<svg xmlns="http://www.w3.org/2000/svg" width="90" height="112" viewBox="0 0 90 112" fill="none">
	<g id="Лечение">
		<path id="Vector" d="M65.8298 66.1758C63.5138 63.0872 60.1696 60.9287 56.4014 60.0899L51.6925 59.0405L53.5285 55.3667C54.2357 53.9432 54.7821 52.4453 55.1576 50.9009C56.4525 48.5206 57.2441 45.8995 57.4832 43.2004H57.6002C58.983 43.2073 60.3383 42.8138 61.5025 42.0675C62.6667 41.3211 63.59 40.2537 64.1609 38.9942C64.7319 37.7347 64.9261 36.3369 64.7201 34.9694C64.5142 33.602 63.9168 32.3233 63.0002 31.2879V12.6001C62.9984 10.9721 62.446 9.39254 61.433 8.11809C60.42 6.84364 59.0058 5.94918 57.4202 5.58005C57.0513 3.99428 56.157 2.57989 54.8824 1.56681C53.6079 0.553734 52.0282 0.00154095 50.4001 0H28.7999C24.5047 0.0042888 20.3866 1.71246 17.3494 4.74965C14.3122 7.78684 12.6041 11.9049 12.5998 16.2001V31.2897C11.6837 32.3252 11.0869 33.6036 10.8813 34.9708C10.6756 36.338 10.87 37.7354 11.4408 38.9946C12.0117 40.2538 12.9347 41.3209 14.0986 42.0671C15.2624 42.8134 16.6173 43.207 17.9998 43.2004H18.0916C18.3656 46.18 19.3117 49.0588 20.8587 51.62C22.4058 54.1813 24.5135 56.3584 27.0233 57.9875L18.9718 58.8875C14.8696 59.3412 11.0398 61.1638 8.10054 64.0612C5.16129 66.9586 3.28403 70.7619 2.77168 74.8573L0.0140523 96.9777C-0.0364342 97.3794 0.0499835 97.7864 0.259344 98.1329C0.468705 98.4795 0.788781 98.7453 1.16786 98.8875L1.55847 99.0333L1.79967 111.633L5.3997 111.561L5.1873 100.39L14.3998 103.848V111.601H17.9998V99.1809C18.0017 93.1973 18.5925 87.2285 19.7638 81.3607L16.2358 80.6407C15.0154 86.7453 14.4004 92.9555 14.3998 99.1809V100.005L3.76169 96.0147L6.35191 75.2983C6.7636 72.0072 8.27172 68.9508 10.6331 66.6217C12.9945 64.2927 16.0714 62.8268 19.3678 62.4606L29.0357 61.3805C29.466 63.252 30.4848 64.9363 31.9426 66.1861C33.4005 67.436 35.2206 68.1856 37.1358 68.325C37.2024 68.5644 37.2474 68.8092 37.3266 69.045C37.6633 70.0562 37.882 71.103 37.9782 72.1644L38.736 80.5039C39.3235 87.126 41.3376 93.5424 44.6401 99.3123C45.8828 101.507 47.9062 103.153 50.3076 103.924C52.7091 104.694 55.3126 104.532 57.6002 103.47V111.601H61.2002V100.7C61.643 100.175 62.0303 99.6057 62.3558 99.0009H62.5754C64.1217 99.0064 65.6386 98.5789 66.9544 97.7667C68.2701 96.9546 69.3322 95.7902 70.0203 94.4054C70.1417 94.1548 70.2033 93.8793 70.2003 93.6008V91.8458C70.1993 85.7382 69.7656 79.6382 68.9025 73.5919C68.5166 70.9012 67.46 68.3509 65.8298 66.1758ZM64.3592 93.4208L65.7272 94.1804C65.1659 94.6976 64.4859 95.0685 63.7472 95.2605L64.3592 93.4208ZM55.6202 63.6054C58.1149 64.1601 60.3814 65.4617 62.1178 67.3367C63.8543 69.2118 64.9783 71.5714 65.3402 74.1013C66.1105 79.5441 66.5236 85.0314 66.5769 90.5282L55.4294 84.3344C55.0028 83.0347 54.5383 81.7459 54.0631 80.4607C54.2329 76.5392 54.7967 72.6448 55.7462 68.8362L52.2541 67.965C51.8095 69.7434 51.4585 71.547 51.1741 73.3651C50.5459 71.9664 49.8997 70.5768 49.2157 69.2088C48.8109 68.4003 48.6001 67.5084 48.6001 66.6042C48.6001 65.6999 48.8109 64.8081 49.2157 63.9996L50.0329 62.3652L55.6202 63.6054ZM57.6002 39.6004V32.4003C58.555 32.4003 59.4706 32.7796 60.1458 33.4547C60.8209 34.1299 61.2002 35.0455 61.2002 36.0003C61.2002 36.9551 60.8209 37.8708 60.1458 38.5459C59.4706 39.2211 58.555 39.6004 57.6002 39.6004ZM14.3998 36.0003C14.3998 35.0455 14.7791 34.1299 15.4542 33.4547C16.1293 32.7796 17.045 32.4003 17.9998 32.4003V39.6004C17.045 39.6004 16.1293 39.2211 15.4542 38.5459C14.7791 37.8708 14.3998 36.9551 14.3998 36.0003ZM17.9998 27.0002V28.8003C17.3913 28.8079 16.7863 28.8938 16.1998 29.0559V16.2001C16.2031 12.8594 17.5317 9.65646 19.894 7.2942C22.2562 4.93195 25.4592 3.60337 28.7999 3.60003H50.4001C51.3549 3.60003 52.2706 3.97932 52.9457 4.65446C53.6209 5.32959 54.0001 6.24528 54.0001 7.20006C54.0001 7.67746 54.1898 8.1353 54.5274 8.47287C54.8649 8.81044 55.3228 9.00008 55.8002 9.00008C56.7549 9.00008 57.6706 9.37937 58.3458 10.0545C59.0209 10.7296 59.4002 11.6453 59.4002 12.6001V29.0559C58.8136 28.8938 58.2087 28.8079 57.6002 28.8003V27.0002C57.6001 26.5229 57.4104 26.0651 57.0728 25.7276L49.8727 18.5276C49.6904 18.3452 49.471 18.2042 49.2294 18.114C48.9878 18.0239 48.7297 17.9866 48.4724 18.0049C48.2152 18.0232 47.9649 18.0965 47.7385 18.2199C47.5121 18.3433 47.3148 18.5139 47.1601 18.7202C45.6468 20.7276 43.6893 22.3574 41.4407 23.4816C39.1922 24.6059 36.7139 25.1941 34.2 25.2002H19.7998C19.3224 25.2002 18.8646 25.3899 18.527 25.7274C18.1895 26.065 17.9998 26.5228 17.9998 27.0002ZM21.5998 41.4004V28.8003H34.2C36.9246 28.7932 39.6188 28.227 42.1158 27.1369C44.6129 26.0467 46.8596 24.4558 48.7171 22.4624L54.0001 27.7454V41.4004C54.0001 41.6686 53.9623 41.9404 53.9479 42.1978C53.1141 41.6053 52.0972 41.3278 51.078 41.4148C50.0588 41.5019 49.1036 41.9477 48.3823 42.673L43.326 47.7292C43.191 47.8642 43.0686 48.0118 42.9354 48.1504C41.3671 47.2691 39.599 46.8043 37.8 46.8004C36.4218 46.7964 35.0564 47.0659 33.7831 47.5933C32.5098 48.1208 31.3538 48.8956 30.3821 49.873L29.3273 50.9279L31.8725 53.4731L32.9273 52.4183C33.9074 51.4269 35.1687 50.761 36.5401 50.5108C37.9115 50.2606 39.3266 50.4382 40.5936 51.0197C39.1971 53.0281 38.1216 55.2416 37.4058 57.5807C33.1823 57.4752 29.1668 55.7249 26.2145 52.7027C23.2623 49.6806 21.6065 45.6252 21.5998 41.4004ZM32.5061 60.4607C33.8475 60.8321 35.2244 61.0602 36.6138 61.1411C36.4516 62.2922 36.4052 63.4566 36.4752 64.617C35.4894 64.3681 34.594 63.846 33.8919 63.1107C33.1897 62.3754 32.7094 61.4569 32.5061 60.4607ZM47.7739 97.5267C44.7229 92.2071 42.8604 86.2898 42.3144 80.1817L41.5566 71.8422C41.435 70.5051 41.159 69.1865 40.734 67.9128C40.024 65.7732 39.8455 63.493 40.2138 61.2689C40.9005 57.1017 42.8796 53.2556 45.8713 50.2744L50.9275 45.2182C51.0361 45.126 51.1679 45.0655 51.3086 45.0434C51.4493 45.0214 51.5934 45.0385 51.725 45.093C51.8565 45.1476 51.9705 45.2373 52.0544 45.3525C52.1382 45.4676 52.1886 45.6036 52.2001 45.7456C52.1972 48.5271 51.5496 51.2701 50.3083 53.7593L45.9883 62.385C45.3337 63.6938 44.9929 65.1372 44.9929 66.6006C44.9929 68.064 45.3337 69.5073 45.9883 70.8162C48.9933 76.8312 51.4355 83.1112 53.2837 89.576L54.0595 92.294L57.521 91.3076L56.9486 89.3006L61.1498 91.6406L59.5802 96.3549C59.1833 97.5454 58.4504 98.5957 57.4698 99.3789C56.4892 100.162 55.3029 100.645 54.0541 100.769C52.8053 100.893 51.5473 100.652 50.4319 100.077C49.3166 99.5018 48.3915 98.616 47.7685 97.5267H47.7739Z" fill="#4178E4" />
		<path id="Vector_2" d="M67.4009 37.4976L70.6409 39.6576L60.163 47.1421C59.8562 47.3642 59.6272 47.6775 59.5087 48.0373C59.3903 48.3971 59.3883 48.7851 59.5032 49.146C59.6181 49.507 59.8439 49.8225 60.1485 50.0477C60.4532 50.2729 60.821 50.3962 61.1998 50.4001C61.3674 50.4007 61.5341 50.377 61.6948 50.3299L86.8951 43.1298C87.1962 43.0435 87.4696 42.8802 87.6882 42.6558C87.9068 42.4315 88.0631 42.154 88.1417 41.8508C88.2202 41.5476 88.2182 41.2291 88.136 40.9268C88.0537 40.6246 87.894 40.349 87.6727 40.1274L83.2446 35.6994L89.7625 24.2999C89.9621 23.9507 90.0391 23.5447 89.981 23.1466C89.9229 22.7486 89.7332 22.3815 89.4422 22.1039C89.1511 21.8263 88.7754 21.6542 88.3751 21.615C87.9747 21.5758 87.5728 21.6719 87.2335 21.8879L67.4333 34.488C67.1804 34.6487 66.9717 34.8701 66.826 35.132C66.6804 35.3939 66.6024 35.688 66.5992 35.9876C66.596 36.2872 66.6676 36.5829 66.8076 36.8479C66.9476 37.1128 67.1515 37.3386 67.4009 37.5048V37.4976ZM74.799 38.1024L71.6975 36.036L83.0268 28.8251L79.4376 35.1C79.2431 35.4422 79.1661 35.8387 79.2184 36.2288C79.2708 36.6189 79.4496 36.9812 79.7274 37.26L82.9674 40.5L70.7273 43.9957L74.844 41.0562C75.0812 40.8869 75.2738 40.6625 75.4052 40.4024C75.5366 40.1422 75.6029 39.854 75.5983 39.5625C75.5937 39.2711 75.5183 38.9851 75.3788 38.7292C75.2393 38.4733 75.0397 38.2551 74.7972 38.0934L74.799 38.1024Z" fill="#4178E4" />
		<path id="Vector_3" d="M83.2452 66.9015L87.6733 62.4735C87.8951 62.2519 88.0552 61.9762 88.1377 61.6737C88.2202 61.3713 88.2223 61.0525 88.1437 60.7489C88.0651 60.4454 87.9087 60.1677 87.6898 59.9432C87.4708 59.7188 87.1971 59.5554 86.8956 59.4692L61.6954 52.2692C61.2876 52.1529 60.8518 52.1844 60.4649 52.358C60.0779 52.5316 59.7648 52.8363 59.5805 53.2183C59.3963 53.6003 59.3529 54.0351 59.4579 54.446C59.5629 54.8569 59.8097 55.2175 60.1546 55.4642L70.6325 62.9487L67.3925 65.1087C67.1431 65.2749 66.9392 65.5007 66.7992 65.7656C66.6592 66.0306 66.5876 66.3263 66.5908 66.6259C66.594 66.9255 66.672 67.2196 66.8176 67.4815C66.9633 67.7434 67.172 67.9647 67.4249 68.1255L87.225 80.7256C87.5644 80.9416 87.9663 81.0376 88.3666 80.9985C88.767 80.9593 89.1427 80.7872 89.4337 80.5096C89.7248 80.232 89.9145 79.8649 89.9726 79.4668C90.0306 79.0688 89.9537 78.6628 89.7541 78.3136L83.2452 66.9015ZM71.6981 66.5649L74.7995 64.4985C75.0417 64.3367 75.2409 64.1186 75.3802 63.8629C75.5196 63.6071 75.5947 63.3214 75.5993 63.0303C75.6039 62.7391 75.5378 62.4511 75.4067 62.1911C75.2755 61.9311 75.0832 61.7068 74.8463 61.5375L70.7297 58.5962L82.9698 62.0901L79.7298 65.3301C79.4519 65.6089 79.2732 65.9711 79.2208 66.3613C79.1685 66.7514 79.2455 67.1479 79.44 67.4901L83.0292 73.7704L71.6981 66.5649Z" fill="#4178E4" />
	</g>
</svg>
