<svg xmlns="http://www.w3.org/2000/svg" width="59" height="69" viewBox="0 0 59 69" fill="none"> <path fill-rule="evenodd" clip-rule="evenodd" d="M2.89162 35.9325V61.4035C2.89162 63.8876 4.87735 65.9035 7.32353 65.9035H51.6767C54.1228 65.9035 56.108 63.8876 56.108 61.4035V35.9577C53.8637 35.8053 51.7025 35.0102 49.8918 33.6688C48.6408 32.8783 47.2555 32.2857 45.8103 31.9314L45.3317 31.8145L45.5918 31.3912C45.9883 30.7337 46.6642 29.8459 47.3199 29.4448L47.4532 29.3635L47.6024 29.4078C48.9973 29.8212 50.3295 30.4464 51.552 31.2612C53.0576 32.3859 54.8627 33.0068 56.7187 33.0398H57.5544C58.3525 33.0398 59 33.6973 59 34.5078V61.4031C59 65.5088 55.7193 68.8398 51.6763 68.8398H7.32316C3.28073 68.8398 0 65.5086 0 61.4035V34.5076C0 33.6971 0.647485 33.0384 1.44618 33.0396L1.96032 33.0401C3.87454 33.0066 5.73905 32.3728 7.30078 31.2271C8.51931 30.4314 9.83971 29.8157 11.2189 29.3986L11.3538 29.3579L11.479 29.4217C12.1965 29.7862 13.1616 30.6256 13.4018 31.4268L13.5124 31.794L13.1447 31.8827C11.66 32.241 10.2321 32.8394 8.94105 33.6412C7.16684 34.9322 5.07353 35.7261 2.89162 35.9327V35.9325Z" fill="#D7B487"/> <path d="M57.5541 33.3994H56.7153C54.7833 33.3649 52.9066 32.7203 51.3494 31.5564C50.1634 30.7666 48.8638 30.1564 47.5028 29.7532C46.6853 30.2527 45.8933 31.5807 45.8933 31.5807C47.3759 31.9437 48.7957 32.5513 50.0899 33.3695C51.9468 34.7445 54.1673 35.5261 56.4628 35.6151V61.4028C56.4598 64.0858 54.3185 66.2608 51.6765 66.2633H7.32339C4.68105 66.2608 2.53955 64.0858 2.53652 61.4028V35.5991C4.7723 35.4489 6.92386 34.6646 8.74512 33.34C10.0792 32.511 11.5417 31.8982 13.0624 31.531C12.7617 30.5309 11.3201 29.7432 11.3201 29.7432C9.97237 30.1504 8.68232 30.7525 7.50021 31.5239C5.88726 32.7077 3.95275 33.3647 1.96283 33.3998L1.4451 33.3992C0.84276 33.3992 0.354431 33.8951 0.354431 34.5068V61.4026C0.358415 65.3085 3.47599 68.4743 7.32263 68.4785H51.6758C55.523 68.4745 58.6405 65.3085 58.6445 61.4023V34.507C58.6445 33.8953 58.1562 33.3994 57.5539 33.3994H57.5541Z" fill="#D7B487"/> <path d="M10.8405 49.4699C8.65554 49.4699 6.88379 51.2691 6.88379 53.4879C6.88379 55.7068 8.65554 57.5065 10.8405 57.5065C13.0254 57.5065 14.7977 55.7068 14.7977 53.4879V53.4874C14.7956 51.2695 13.025 49.4718 10.841 49.4697H10.8405V49.4699ZM10.8405 55.2898C9.86023 55.2898 9.06569 54.483 9.06569 53.4876C9.06569 52.4921 9.86023 51.6853 10.8405 51.6853C11.8207 51.6853 12.6158 52.4921 12.6158 53.4876C12.6149 54.483 11.8207 55.2893 10.8405 55.2898Z" fill="#D7B487"/> <path d="M38.7724 56.0825C36.8227 56.0825 35.2416 57.6881 35.2416 59.668C35.2416 61.648 36.8227 63.2541 38.7724 63.2541C40.7227 63.2541 42.3038 61.648 42.3038 59.668C42.3017 57.6887 40.7217 56.0841 38.7724 56.0825ZM38.7724 61.0384C38.0276 61.0384 37.4235 60.4246 37.4235 59.6682C37.4235 58.9119 38.0274 58.2984 38.7724 58.2984C39.5172 58.2984 40.1216 58.9117 40.1216 59.6682C40.1216 60.4252 39.5178 61.039 38.7724 61.0399V61.0384Z" fill="#D7B487"/> <path d="M47.9404 42.8914C47.9404 42.8909 47.9404 42.892 47.9404 42.892C47.9404 44.7248 49.4044 46.2113 51.209 46.2113C53.0141 46.2113 54.4775 44.7246 54.4775 42.892C54.4775 41.0593 53.0141 39.5728 51.209 39.5728H51.2084C49.4048 39.5753 47.9428 41.0599 47.9402 42.8916L47.9404 42.8914ZM51.2086 41.7885H51.2091C51.8096 41.7885 52.2958 42.2828 52.2958 42.892C52.2958 43.5012 51.8096 43.9955 51.2091 43.9955C50.6093 43.9955 50.1225 43.5012 50.1225 42.892V42.8914C50.1234 42.2828 50.6093 41.7894 51.2086 41.7885Z" fill="#D7B487"/> <path fill-rule="evenodd" clip-rule="evenodd" d="M52.7932 5.45063C55.9311 10.9409 55.4462 18.8627 52.3849 24.3035C50.963 26.8304 49.4701 28.9504 47.6407 31.1717C47.13 31.7917 46.1424 32.8204 46.1424 33.6862C46.1424 40.8012 45.7559 47.1334 41.1629 52.9635C40.7395 53.5016 40.125 53.8024 39.4439 53.7482C37.2275 53.5722 34.7783 48.5747 33.7996 46.849C33.2103 45.8104 30.3949 40.7769 29.5183 40.4375C28.5077 40.5533 25.6122 46.3794 25.089 47.4031C24.2036 49.1364 22.3624 53.6411 20.1045 53.7538C19.4651 53.7544 18.9189 53.4506 18.5355 52.9634C13.9272 47.1141 12.3106 41.0018 12.9775 33.5579C13.0505 32.7418 11.7919 31.3318 11.333 30.7561C5.5198 24.0887 1.54585 13.1545 6.45187 4.87054C8.18149 1.95027 11.0003 0.231394 14.3673 0.231394C18.5112 0.231394 21.3625 0.930734 25.1254 2.56561C27.993 3.956 30.3667 4.32301 33.2082 2.69122L33.2573 2.66541C37.0442 0.822461 39.9076 0.231201 44.1625 0.231201C47.9479 0.231201 50.9072 2.15044 52.793 5.45005L52.7932 5.45063ZM20.2027 50.5249C20.9739 49.3909 22.2564 46.8015 22.6083 46.1052C23.7984 43.7519 26.4855 37.6093 29.5573 37.6093C32.2099 37.6093 35.087 43.44 36.2184 45.4344C36.6752 46.2403 38.4815 49.4647 39.4312 50.6018C43.1132 45.5384 43.3536 39.8065 43.3515 33.6876C43.3509 31.8656 44.4103 30.6762 45.5 29.3534C47.2048 27.2833 48.6221 25.2283 49.9659 22.891C53.4448 16.8404 53.3287 3.38767 44.1502 3.0669C41.6848 3.07249 39.2872 3.26572 36.9486 4.15348C35.6582 4.64321 34.4664 5.23697 33.2093 5.76003C34.2742 6.3877 34.0308 8.39441 32.4847 8.40635C31.3944 8.41463 30.6577 7.7781 29.9026 7.05005C29.8169 6.95951 29.6101 6.74315 29.4837 6.6607C29.2986 6.76011 28.8954 7.10458 28.7769 7.2009L28.742 7.22865L28.7044 7.25292C28.3424 7.48507 28.0336 7.82761 27.6319 8.07267C26.849 8.54949 25.9621 8.55103 25.4282 7.69564L25.4058 7.66019L25.3871 7.62263C25.0824 7.0017 25.2679 6.26113 25.7948 5.8579C24.348 5.33002 22.9779 4.70601 21.5099 4.17756C19.1312 3.32217 16.8884 3.06073 14.3844 3.06574C5.51714 3.42832 6.15097 16.5474 9.18488 22.3656C10.0302 24.0891 10.9612 25.6282 12.1012 27.1519C12.8232 28.1175 13.5762 29.0438 14.2888 30.0109C14.3745 29.9054 14.4622 29.806 14.5504 29.717C15.8439 28.409 17.8108 30.4126 16.5316 31.7134C16.1466 32.1284 15.7928 32.8222 15.7598 33.4179C15.1924 39.9021 16.3622 45.4174 20.2029 50.5251L20.2027 50.5249Z" fill="#D7B487"/> <path d="M52.0918 5.86367C50.2937 2.71837 47.5525 1.05518 44.1627 1.05518C38.4433 1.05518 35.7625 2.36003 33.6079 3.40846C30.5427 5.16857 27.9074 4.82757 24.7913 3.3158C22.4724 2.30859 19.5852 1.05518 14.3673 1.05518C11.3755 1.05518 8.81129 2.56136 7.14692 5.29514C2.54673 13.1378 6.21846 23.6466 11.9514 30.2234C13.1506 31.725 13.8753 32.6303 13.785 33.6323C13.1193 41.0736 14.7793 46.877 19.1687 52.4488C19.4157 52.7624 19.7377 52.9302 20.0839 52.9302C21.4373 52.8622 22.4407 50.7669 24.3688 47.0234C25.9489 43.8987 28.1136 39.619 29.5573 39.619C30.6358 39.619 32.9623 43.722 34.5024 46.4373C36.8143 50.5135 38.1868 52.8246 39.5073 52.9265C39.9049 52.961 40.2629 52.7871 40.5294 52.4488C45.3309 46.3533 45.3309 39.3297 45.3309 33.6858C45.3309 32.6904 45.8947 32.0067 47.0184 30.6425C48.1709 29.2428 49.7501 27.3263 51.6805 23.8941C54.7611 18.4204 54.9339 10.8373 52.0912 5.86348H52.0918V5.86367ZM50.6664 23.3057C48.7871 26.6462 47.2467 28.5159 46.122 29.8815C44.9005 31.3645 44.1627 32.2606 44.1627 33.6864C44.1651 39.1515 44.156 45.9848 39.5873 51.7438C38.8389 51.7053 36.7598 48.0394 35.5155 45.8451C32.8995 41.2327 31.1936 38.4325 29.5573 38.4325C27.4006 38.4325 25.423 42.3419 23.3299 46.4811C22.2905 48.5361 20.72 51.6413 20.1268 51.7546C15.7846 46.3709 14.3187 40.5773 14.9506 33.3574C15.0191 32.1205 15.9409 31.1478 15.9491 31.1389C16.4871 30.592 15.6657 29.7516 15.1231 30.3001C15.0922 30.3315 14.6759 30.7661 14.3123 31.4532C12.3438 28.5442 10.6117 27.123 8.46355 22.7415C4.80092 15.7182 5.21069 2.61549 14.3674 2.24174C21.2313 2.22671 22.8621 4.23303 27.5996 5.58258C27.2107 5.89777 26.8158 6.23511 26.375 6.45743C26.0859 6.60424 25.9694 6.96046 26.1134 7.25349C26.6784 8.1582 27.766 6.87916 28.2716 6.5553C29.2989 5.72476 29.5372 5.46564 30.4759 6.46629C31.0185 6.98897 31.6341 7.58158 32.4789 7.58158C33.2446 7.56925 33.2482 6.40811 32.4789 6.3952C32.0991 6.39578 31.6793 5.98889 31.2755 5.60166C35.8535 4.14133 36.7733 2.25927 44.1634 2.24213C53.9419 2.58409 54.5818 16.5672 50.6666 23.3057H50.6664Z" fill="#D7B487"/> </svg>