<svg xmlns:dc="http://purl.org/dc/elements/1.1/"
	xmlns:cc="http://creativecommons.org/ns#"
	xmlns:rdf="http://www.w3.org/1999/02/22-rdf-syntax-ns#"
	xmlns:svg="http://www.w3.org/2000/svg"
	xmlns="http://www.w3.org/2000/svg" width="146" height="125" viewBox="0 0 146 125" version="1.1" id="svg3198">
	<metadata id="metadata3204">
		<rdf:RDF>
			<cc:Work rdf:about="">
				<dc:format>image/svg+xml</dc:format>
				<dc:type rdf:resource="http://purl.org/dc/dcmitype/StillImage"/>
				<dc:title/>
			</cc:Work>
		</rdf:RDF>
	</metadata>
	<defs id="defs3202"/>
	<g fill="none" fill-rule="evenodd" stroke="#FF111F" stroke-linecap="round" stroke-linejoin="round" stroke-width="3" id="g3196">
		<path d="M107.34 72.852c-6.457.92-7.55 6.863-7.607 8.195M132.596 76.13c-2.176.129-5.342-.009-8.542-1.58-2.3-1.128-3.197-2.526-4.463-3.263-7.118-4.141-15.515-3.783-20.446.87a12.432 12.432 0 0 0-2.907 4.176M95.1 80.776c-.557 5.023.987 9.893 1.607 11.367.708 1.68 1.56 3.299 2.546 4.834.485.804.974 1.608 1.422 2.445a20.491 20.491 0 0 1 2.467 7.344 60.052 60.052 0 0 0 1.564 9.213c.594 2.218 1.838 6.83 5.962 6.83 1.325 0 4.849 0 7.096-16.127.365-2.577 1.264-2.944 1.823-3.035.558.091 1.457.458 1.822 3.031 2.247 16.13 5.77 16.13 7.095 16.13 4.125 0 5.37-4.611 5.964-6.815a60.063 60.063 0 0 0 1.567-9.229 20.494 20.494 0 0 1 2.466-7.342c.448-.837.935-1.641 1.421-2.445a31.616 31.616 0 0 0 2.55-4.836c.99-2.354 4.422-13.5-2.436-19.982-4.816-4.552-13.008-5.226-19.872-1.273M81.244 37.493c0-2.724 1.405-4.931 3.138-4.931 1.732 0 3.137 2.207 3.137 4.93M93.646 37.493c0-2.724 1.404-4.931 3.137-4.931 1.732 0 3.138 2.207 3.138 4.93M97.41 41.812c0 2.723-3.057 4.93-6.827 4.93-3.772 0-6.828-2.207-6.828-4.93" id="path3188"/>
		<path d="M110.726 30.971c0 12.128-9.832 21.96-21.96 21.96-12.129 0-21.961-9.832-21.961-21.96s9.832-21.96 21.96-21.96c12.129 0 21.961 9.832 21.961 21.96z" id="path3190"/>
		<path d="M55.07 106.942c-.52.201-1.03.39-1.529.566-4.628 1.637-8.319 2.258-9.99 2.502-2.586-1.67-8.473-5.966-12.258-13.958-4.17-8.795-3.311-16.827-2.84-19.82a78.117 78.117 0 0 0 24.84-9.276 78.17 78.17 0 0 0 21.751-18.843M61.204 104.127a52 52 0 0 1-.7.369M88.766 52.932c.309 3.631 1.54 22.496-12.291 38.863a51.792 51.792 0 0 1-10.357 9.35" id="path3192"/>
		<path d="M67.085 55.316c-1.96-10.372-8.753-18.18-17.053-19.689-.626-.114-11.908-1.993-16.433 5.68-3.463 5.872-.212 12.79.435 14.064 4.087 8.047 15.054 13.221 16.042 13.36M60.92 53.531C59.083 46.6 53.596 41.217 47.14 39.957M67.888 21.98c-2.193-.734-4.655-.954-7.225-.096-6.466 2.157-8.553 9.51-8.902 10.897a18.203 18.203 0 0 0-.445 2.563M28.044 90.848c-2.391.57-10.124 2.089-16.322-2.366a15.54 15.54 0 0 1-2.602-2.365M109.41 82.963c-4.175 3.89-17.938 14.659-33.728-8.52-2.566-3.766-4.914-8.031-7.045-12.511M89.023 60.007c7.816-.093 12.41 3.933 15.631 8.725M33.577 101.145c-1.304 2.086-5.741 8.598-13.281 9.78a15.458 15.458 0 0 1-3.514.143M76.086 11.808a6.228 6.228 0 1 1 11.62-3.121M60.504 34.055c6.83-1.256 22.568-4.97 28.053-15.34.374-.708.705-1.457.984-2.248M114.442 32.198c-5.851-1.124-19.33-4.445-24.027-13.72a15.204 15.204 0 0 1-.843-2.011M8.313 86.398c-1.395 2.419-3.594 3.764-4.909 3.004-1.316-.76-1.25-3.335.147-5.754 1.395-2.418 3.594-3.763 4.908-3.004 1.317.76 1.25 3.336-.146 5.754zM17.491 113.226c1.395 2.418 1.462 4.995.146 5.754-1.315.759-3.513-.586-4.909-3.004-1.397-2.418-1.462-4.995-.147-5.754 1.315-.76 3.514.586 4.91 3.004zM132.596 38.515l3.048 6.177 6.817.99-4.932 4.807 1.163 6.788-6.096-3.204-6.095 3.204 1.163-6.788-4.932-4.807 6.816-.99zM33.577 6.095l3.048 6.176 6.816.99-4.932 4.808 1.164 6.789-6.096-3.206-6.096 3.206 1.164-6.789-4.933-4.808 6.817-.99z" id="path3194"/>
	</g>
	<path style="fill:#9d2945;stroke-width:0.00568862" d="m 26.924037,26.120536 c -0.310013,-0.133921 -0.567422,-0.394437 -0.695589,-0.70399 -0.182182,-0.440009 -0.146373,-0.826004 0.34243,-3.691122 l 0.545888,-3.199726 -2.258663,-2.191413 c -1.242266,-1.205277 -2.341436,-2.346073 -2.442601,-2.535102 -0.255377,-0.477176 -0.07359,-1.147833 0.424804,-1.567204 0.356606,-0.300064 0.848935,-0.412055 3.394683,-0.772195 1.637672,-0.231676 3.065819,-0.454825 3.173659,-0.495885 0.107841,-0.04106 0.805242,-1.2953188 1.54978,-2.7872411 0.744538,-1.4919223 1.48999,-2.8606635 1.656559,-3.041647 0.421881,-0.4583907 1.042744,-0.5644034 1.604412,-0.2739541 0.38708,0.2001673 0.693704,0.7153085 1.873924,3.1482823 1.137213,2.3443149 1.478099,2.9236439 1.756202,2.9846319 0.189797,0.04162 1.557661,0.249393 3.039697,0.461713 3.081666,0.441487 3.449547,0.552631 3.749574,1.132818 0.489264,0.946132 0.403451,1.086958 -2.193303,3.599405 l -2.419144,2.340602 0.557027,3.225578 c 0.306365,1.774067 0.516194,3.354229 0.466289,3.511468 -0.04991,0.157241 -0.252424,0.437788 -0.450039,0.623438 -0.649243,0.609931 -1.125096,0.482979 -4.078413,-1.088072 -1.496715,-0.796195 -2.818272,-1.447628 -2.936792,-1.447628 -0.11852,0 -1.420132,0.632625 -2.892471,1.405833 -1.472339,0.773206 -2.81171,1.443669 -2.976381,1.489916 -0.164671,0.04624 -0.52086,-0.01159 -0.791532,-0.128506 z m 4.517406,-4.937901 c 1.011557,-0.53518 1.968041,-0.971345 2.125522,-0.969256 0.157481,0.0021 1.125485,0.439962 2.151122,0.973054 1.025636,0.533091 1.909528,0.969256 1.964205,0.969256 0.05468,0 -0.05994,-0.89259 -0.254705,-1.983533 -0.194764,-1.090943 -0.354479,-2.11149 -0.354924,-2.267881 -4.49e-4,-0.160982 0.692819,-0.988234 1.597939,-1.906743 0.87931,-0.892318 1.567404,-1.653737 1.529097,-1.692044 -0.03831,-0.03831 -0.9621,-0.206433 -2.052876,-0.373615 -1.090777,-0.167182 -2.116661,-0.375378 -2.279744,-0.462658 -0.163083,-0.08728 -0.733906,-1.031552 -1.268497,-2.098383 -0.53459,-1.066832 -1.006976,-1.9396943 -1.049747,-1.9396943 -0.04277,0 -0.472719,0.8356363 -0.955442,1.8569683 -0.566996,1.199637 -1.012628,1.945393 -1.258917,2.106767 -0.220732,0.144629 -1.216281,0.372411 -2.364638,0.541029 -1.09087,0.160178 -2.015087,0.322919 -2.053816,0.361649 -0.03873,0.03873 0.64849,0.761651 1.527154,1.606493 1.842577,1.771651 1.775626,1.552889 1.291078,4.218624 -0.31507,1.733348 -0.346698,2.033021 -0.214566,2.033021 0.04541,0 0.910199,-0.437875 1.921755,-0.973054 z" id="path3206"/>
	<path style="fill:#9d2945;stroke-width:0.00568862" d="m 109.6018,124.1585 c -3.31271,-0.83968 -5.08574,-3.14306 -6.35687,-8.25828 -0.59431,-2.39163 -0.99014,-4.5868 -1.35545,-7.51699 -0.55259,-4.4324 -1.16425,-6.13975 -3.797118,-10.599079 -1.740567,-2.948027 -2.596991,-4.68101 -3.100768,-6.27445 -0.176615,-0.558629 -0.397199,-1.088533 -0.490188,-1.177566 -0.09299,-0.08903 -0.702949,-0.246981 -1.355469,-0.350996 -1.342777,-0.214045 -3.738304,-1.008611 -5.091163,-1.68867 -1.08757,-0.546706 -2.63182,-1.526264 -4.020545,-2.550336 -0.559169,-0.412341 -1.03885,-0.724429 -1.065958,-0.693527 -0.02711,0.0309 -0.431521,0.677578 -0.898693,1.437059 -3.199096,5.200751 -8.040978,10.505727 -13.036644,14.283515 -2.528867,1.91236 -2.985133,2.07878 -3.805879,1.38817 -0.462155,-0.38888 -0.602869,-1.01358 -0.366848,-1.62864 0.05156,-0.13436 0.977829,-0.905113 2.058383,-1.712794 4.759986,-3.55794 8.688958,-7.702066 11.968522,-12.623925 0.673017,-1.01004 1.389184,-2.151016 1.591482,-2.535501 l 0.367816,-0.699065 -1.147251,-1.200816 c -3.58997,-3.757579 -7.533937,-9.685122 -10.909961,-16.397006 -1.759276,-3.497622 -1.80717,-3.680531 -1.148523,-4.386269 0.425532,-0.455955 1.047461,-0.564163 1.600079,-0.278392 0.372225,0.192485 0.740048,0.799527 2.037517,3.362654 1.761153,3.479126 4.227304,7.676515 5.960994,10.145609 2.042948,2.909536 4.756717,6.137886 5.021817,5.974045 0.21196,-0.130999 1.582605,-3.425777 2.309452,-5.551501 1.24612,-3.644381 2.093984,-7.431352 2.580761,-11.526947 0.269733,-2.269452 0.451695,-8.296814 0.258753,-8.571027 -0.07267,-0.103285 -0.700578,-0.257727 -1.395343,-0.343202 -3.403112,-0.418679 -6.976277,-1.700615 -9.832012,-3.527405 -0.44932,-0.287428 -0.866605,-0.502351 -0.927299,-0.477607 -0.06069,0.02474 -0.514306,0.516547 -1.008029,1.092894 -7.998893,9.337514 -18.280244,16.814964 -29.68176,21.587041 -3.983764,1.667393 -10.365457,3.671688 -13.960475,4.384556 l -0.852953,0.169135 -0.11558,0.70209 c -0.06357,0.386148 -0.113107,1.948346 -0.110085,3.471549 0.006,3.00244 0.246967,5.071324 0.905433,7.772403 1.669048,6.846576 5.700756,13.141381 11.23436,17.540481 2.173059,1.72754 2.039671,1.6741 3.499761,1.40207 2.081555,-0.38782 5.321438,-1.25796 7.570455,-2.0332 1.164219,-0.40131 2.228567,-0.72966 2.365219,-0.72966 0.458006,0 1.087943,0.43093 1.269035,0.86813 0.23468,0.56657 0.07758,1.14627 -0.425308,1.56942 -1.066204,0.89715 -10.193745,3.39816 -12.409512,3.4003 -1.260738,0.001 -6.136733,-4.1141 -9.016943,-7.61025 l -0.531886,-0.64563 -0.843749,1.10159 c -1.296741,1.69301 -3.883061,4.11912 -5.621199,5.27298 -2.439847,1.6197 -5.16135,2.65641 -7.558337,2.8792 -0.55836,0.0519 -1.046004,0.1442 -1.083652,0.20512 -0.03765,0.0609 0.12473,0.53944 0.360842,1.06339 1.047433,2.32433 0.985122,4.59614 -0.161895,5.90252 -0.667006,0.75967 -1.245718,1.01479 -2.307672,1.01728 -1.293686,0.003 -2.388521,-0.55847 -3.728718,-1.91236 -1.720358,-1.73793 -2.767297,-4.09129 -2.767297,-6.22048 0,-1.70641 0.534162,-2.80482 1.676114,-3.44663 0.976761,-0.54897 2.105145,-0.48948 3.40957,0.17978 1.026252,0.52654 1.046873,0.53023 2.727187,0.48875 1.937174,-0.0478 3.760527,-0.42796 5.400929,-1.12602 2.485901,-1.05784 5.696899,-3.69269 7.553588,-6.19825 1.115641,-1.50553 1.193865,-1.67868 0.937438,-2.07502 -1.099814,-1.699927 -2.843868,-5.421709 -3.633425,-7.75367 -0.07387,-0.21817 -0.217863,-0.212351 -1.553952,0.06278 -2.033856,0.418822 -6.843082,0.452528 -8.764426,0.06143 -2.938569,-0.598163 -5.668238,-1.835539 -7.770962,-3.522624 L 8.9863052,88.080725 7.9974829,89.082719 C 5.9574627,91.149915 3.7795147,91.577841 2.2286581,90.216189 0.69013058,88.865361 0.65683779,86.331636 2.1387191,83.371434 2.9166977,81.817347 4.3294818,80.273091 5.5919279,79.596877 7.1099998,78.78374 8.747311,78.91075 9.7285206,79.917763 c 1.0209104,1.047758 1.3131844,2.401469 0.9224664,4.272536 l -0.246683,1.181319 0.64665,0.666225 c 3.388605,3.491178 9.464022,4.894868 15.66897,3.620224 0.76229,-0.156592 0.796473,-0.183616 0.711485,-0.562479 -0.0491,-0.21889 -0.23399,-1.307414 -0.41086,-2.418941 -0.398103,-2.501849 -0.468094,-7.192988 -0.141799,-9.504038 0.263413,-1.865678 0.512636,-2.178097 1.959573,-2.45647 3.443424,-0.662471 8.407798,-2.074091 11.858295,-3.371902 2.259156,-0.849721 5.647065,-2.283803 5.85474,-2.478277 0.06777,-0.06346 -0.336424,-0.371714 -0.898204,-0.685008 -2.714714,-1.513946 -5.695832,-3.693201 -7.880593,-5.760864 -3.816287,-3.611745 -5.949804,-7.326973 -6.831589,-11.896283 -1.396502,-7.236512 1.987477,-13.291699 8.706323,-15.578815 2.216967,-0.754664 3.260588,-0.888104 6.94579,-0.888104 h 3.458357 l 0.182482,-0.898203 c 0.30291,-1.490961 1.023483,-3.473463 1.840862,-5.064731 2.669205,-5.196394 7.024208,-8.154105 12.042284,-8.178549 0.953108,-0.0046 2.882918,0.273917 3.493708,0.504302 0.160755,0.06064 0.427479,-0.265533 0.938818,-1.148042 0.392847,-0.678007 1.066203,-1.704298 1.496347,-2.280645 0.821894,-1.101249 3.080657,-3.457778 4.045951,-4.221069 l 0.56794,-0.449091 -0.380815,-1.134428 c -0.45235,-1.3475257 -0.511874,-3.1353264 -0.150576,-4.5224478 0.823761,-3.1626279 4.025801,-5.616078 7.329641,-5.616078 3.394515,0 6.581482,2.484834 7.412654,5.7795455 l 0.192883,0.7645754 1.511602,0.096659 c 6.971578,0.4457965 13.596197,4.3316089 17.628967,10.3406499 2.1398,3.188404 3.58929,7.317503 3.82539,10.897187 0.0673,1.020847 0.1387,1.321909 0.32621,1.375989 0.13201,0.03807 0.79869,0.186307 1.48152,0.329405 1.46507,0.307031 1.97706,0.697841 1.97706,1.509119 0,0.696352 -0.23266,1.079969 -0.79798,1.315697 -0.40027,0.166907 -0.65812,0.161251 -1.64873,-0.03616 -1.3655,-0.272118 -1.36205,-0.274395 -1.49507,0.987287 -0.24475,2.321407 -1.54941,6.022099 -2.94584,8.355907 -2.31406,3.867406 -5.81052,7.139442 -9.735719,9.110792 -2.369663,1.190117 -4.567944,1.82687 -8.268449,2.395035 l -0.565441,0.08682 0.04149,2.125688 0.04149,2.125687 1.197605,0.113903 c 2.788438,0.265204 5.965136,1.447617 8.415514,3.132376 1.33078,0.914979 3.69869,3.235157 4.68329,4.588874 0.61768,0.849255 0.71096,0.919374 1.12275,0.843973 3.74808,-0.68629 8.10586,-0.121464 12.00393,1.555874 l 1.73142,0.745029 1.16172,-0.585783 c 2.98161,-1.503437 6.11245,-2.168431 9.6342,-2.046317 2.81769,0.0977 4.53726,0.515007 6.90586,1.675916 4.50178,2.206437 7.2316,5.999524 8.09543,11.248622 0.18794,1.142011 0.2243,2.048718 0.1585,3.952084 -0.12277,3.551387 -0.79715,6.623511 -2.09677,9.551803 -0.65077,1.466301 -0.93705,1.990612 -2.98811,5.472664 -2.02165,3.432115 -2.62447,5.240455 -3.17565,9.526425 -0.41842,3.25362 -1.05202,6.57273 -1.64319,8.60779 -1.29099,4.44416 -3.18406,6.62292 -6.20453,7.14087 -4.26342,0.7311 -6.91969,-3.23403 -8.745,-13.05405 -0.2066,-1.11152 -0.45124,-2.55988 -0.54362,-3.21856 -0.21006,-1.49756 -0.41943,-2.32036 -0.59046,-2.32036 -0.15802,0 -0.18977,0.14903 -0.68567,3.21857 -1.42513,8.82128 -3.40068,13.64038 -6.14146,14.98132 -0.81323,0.39788 -2.38811,0.60877 -3.13408,0.41969 z m 2.49095,-3.44134 c 1.52441,-1.4783 2.8396,-5.59744 4.00975,-12.55848 0.55253,-3.28692 0.64115,-3.60689 1.25033,-4.51429 0.77374,-1.15251 1.96944,-1.65142 3.00984,-1.25586 0.64726,0.24609 1.54029,1.17576 1.87353,1.95041 0.17832,0.41451 0.54758,2.0984 0.83433,3.80467 1.30212,7.74804 2.74042,11.91851 4.47525,12.97636 1.24715,0.76047 3.15656,-0.0965 4.20635,-1.88782 0.90112,-1.53764 2.01681,-5.90591 2.5415,-9.95071 0.46841,-3.61091 0.5546,-4.12771 0.91132,-5.46407 0.61763,-2.31381 1.45326,-4.139307 3.29563,-7.199565 1.33284,-2.213904 2.44448,-4.412902 2.97,-5.875112 1.01356,-2.820126 1.52426,-7.314129 1.15104,-10.128921 -0.70421,-5.311169 -3.9353,-9.01917 -9.06773,-10.406121 -1.69993,-0.459377 -4.91039,-0.570982 -6.73652,-0.234181 -1.52729,0.281683 -3.9323,1.034933 -4.3572,1.364675 -0.27314,0.211972 -0.26708,0.233907 0.16558,0.599219 2.0635,1.742283 5.30556,2.763235 8.77473,2.763235 1.57784,0 1.63863,0.01241 2.10614,0.430135 0.68682,0.613672 0.6781,1.378161 -0.0229,2.004471 l -0.50427,0.450563 -2.33256,-0.08229 c -4.38139,-0.154576 -7.26775,-1.239614 -10.40868,-3.912823 -2.71419,-2.310011 -6.74298,-3.680473 -10.8196,-3.680473 -2.87487,0 -4.57485,0.380073 -6.7862,1.517223 -2.02888,1.04332 -3.696811,2.730299 -4.827082,4.882214 -0.312886,0.5957 -0.695807,1.151021 -0.850937,1.234043 -0.909027,0.486497 -2.099982,-0.187913 -2.096037,-1.186937 0.0044,-1.109991 1.752016,-3.754446 3.589473,-5.431458 0.996772,-0.909735 2.976953,-2.207907 3.706323,-2.429798 0.18526,-0.05636 0.33683,-0.196123 0.33683,-0.310587 0,-0.332575 -3.12584,-3.411919 -4.17383,-4.111745 -2.077259,-1.387151 -4.65701,-2.317481 -6.924953,-2.497328 l -1.143691,-0.09069 -0.08223,0.432595 c -0.04522,0.237925 -0.125486,0.904149 -0.178359,1.480497 -0.497103,5.418747 -2.695689,13.141187 -5.10129,17.918073 l -0.54375,1.079744 0.428839,0.352922 c 1.637658,1.347737 3.816834,2.707376 5.48071,3.419545 1.077156,0.461042 3.528702,1.187901 3.633006,1.07715 0.02333,-0.02477 -0.02426,-0.415548 -0.105747,-0.868392 -0.08149,-0.452845 -0.155446,-1.934881 -0.164347,-3.293414 -0.01331,-2.030753 0.02779,-2.552839 0.231052,-2.935501 0.464088,-0.873689 1.559979,-1.019003 2.277048,-0.301934 0.33088,0.33088 0.343151,0.434127 0.341777,2.875648 -0.0012,2.157504 0.203006,4.469171 0.41341,4.679575 0.03297,0.03297 0.618743,-0.02041 1.301717,-0.118627 3.008168,-0.432587 6.492648,-2.095231 9.076858,-4.331086 1.24136,-1.074022 1.70256,-1.365081 2.16305,-1.365081 0.58958,0 0.96088,0.229219 1.23736,0.763867 0.35476,0.686042 0.15978,1.217011 -0.75337,2.051582 -3.31075,3.025836 -7.4106,5.098673 -11.287878,5.707023 -0.525499,0.08245 -0.984619,0.179076 -1.020264,0.214723 -0.0989,0.0989 0.95728,2.59071 1.563178,3.687955 0.295527,0.53518 1.043424,1.81512 1.661984,2.844311 2.60137,4.328256 3.35272,6.569176 3.99034,11.901206 0.47653,3.98491 1.47939,8.15321 2.4234,10.07263 0.87399,1.77704 2.04744,2.61186 3.53648,2.51591 0.60291,-0.0388 0.81875,-0.14158 1.32123,-0.62887 z m -94.991865,-3.27975 c 0.417094,-1.66184 -1.295866,-4.9319 -3.020933,-5.76699 -0.887644,-0.4297 -1.011475,-0.29686 -0.936214,1.00436 0.103779,1.79426 1.577509,4.18776 3.014898,4.89654 0.662148,0.3265 0.832777,0.30225 0.942249,-0.13391 z M 5.1262018,87.86472 C 6.6947603,86.895296 8.2014496,84.000978 7.9461766,82.447605 7.8299689,81.740464 7.4333942,81.700037 6.5928201,82.309641 5.3448984,83.214662 4.480606,84.5511 4.0459115,86.24788 3.6068837,87.961572 4.0051127,88.55759 5.1262018,87.86472 Z M 52.092705,66.001178 c 4.076626,-2.33534 8.307388,-5.32715 11.801605,-8.345579 0.961181,-0.830303 1.781858,-1.565068 1.823724,-1.632809 0.04187,-0.06774 -0.08323,-0.793772 -0.277991,-1.613398 C 63.588392,46.617015 59.021205,40.558145 53.099398,38.03819 51.120714,37.196184 49.947,36.960644 47.277835,36.869919 c -4.570028,-0.155334 -7.537922,0.594415 -10.162305,2.567198 -0.919293,0.691045 -2.068882,2.057673 -2.585799,3.073992 -0.886373,1.742713 -1.253753,4.536074 -0.908247,6.90583 0.81583,5.595621 4.334889,10.361646 10.880486,14.735947 1.303773,0.871286 5.155472,3.045807 5.420076,3.059966 0.02793,0.0015 1.004731,-0.543759 2.170659,-1.211674 z m 19.89234,-16.421852 1.062626,-1.244028 -0.821948,-0.85178 c -1.859015,-1.926493 -3.233983,-3.856722 -4.390154,-6.163055 -0.790656,-1.577201 -1.733541,-4.325128 -2.021445,-5.891261 -0.171266,-0.931653 -0.216364,-1.015278 -0.505573,-0.937527 -0.174644,0.04695 -1.338859,0.298972 -2.587148,0.560045 -2.541499,0.531542 -3.001285,0.486608 -3.426068,-0.334832 -0.273435,-0.528767 -0.273435,-0.791237 0,-1.320003 0.266015,-0.514416 0.652011,-0.678005 2.47712,-1.049828 0.782186,-0.159352 1.900464,-0.398698 2.485064,-0.53188 l 1.062909,-0.24215 0.09759,-1.70872 c 0.107093,-1.875064 0.536524,-4.342076 0.993686,-5.708553 0.16143,-0.48252 0.295165,-0.921748 0.297189,-0.976061 0.0079,-0.212665 -2.206059,-0.460793 -3.334854,-0.373747 -3.850296,0.296915 -7.045317,2.816919 -9.082109,7.16332 -0.623093,1.329646 -1.307398,3.498924 -1.381527,4.379505 l -0.04514,0.536147 1.197605,0.489314 c 6.087364,2.48716 11.136035,8.500451 13.473604,16.047924 0.306006,0.988024 0.588992,1.897455 0.628857,2.020958 0.07734,0.239582 1.823048,-1.526276 3.81971,-3.863788 z m 20.999985,1.484946 c 7.29261,-1.591597 12.91017,-6.632462 15.27846,-13.709973 0.55675,-1.663821 1.09669,-4.659119 0.87432,-4.850226 -0.0742,-0.06373 -0.87583,-0.336003 -1.78152,-0.60506 -7.602145,-2.25841 -13.886253,-6.236708 -16.930389,-10.718169 -0.47381,-0.697524 -0.876678,-1.251934 -0.89526,-1.232021 -0.01858,0.01991 -0.389617,0.569393 -0.824518,1.221063 -0.974683,1.460496 -3.25433,3.858171 -4.85283,5.104084 -3.963414,3.089192 -8.176886,5.10997 -15.290943,7.333529 -0.251822,0.07871 0.140071,2.060034 0.780702,3.947079 1.049719,3.092049 2.497529,5.43628 4.779702,7.739087 1.9539,1.971566 3.168559,2.855543 5.538923,4.030991 2.06331,1.023182 3.802085,1.587569 5.993751,1.945498 1.81978,0.297196 5.497915,0.19388 7.329602,-0.205882 z M 70.092769,30.150413 c 9.161774,-3.033534 15.485679,-7.742566 17.72968,-13.202227 0.595202,-1.448129 0.973184,-1.858366 1.712256,-1.858366 0.755451,0 1.144439,0.404981 1.728741,1.799813 1.791705,4.277114 5.888135,7.864511 11.970544,10.483057 1.98055,0.852647 5.83035,2.181735 5.95589,2.056187 0.0408,-0.04074 -0.005,-0.632873 -0.10217,-1.315847 -0.79535,-5.603722 -3.85984,-10.645177 -8.46795,-13.930797 -1.391296,-0.992007 -4.316591,-2.398586 -5.986244,-2.878386 -2.369128,-0.680804 -3.929269,-0.863843 -6.588606,-0.772988 -3.31445,0.113236 -5.421211,0.618319 -8.233533,1.973939 -3.906127,1.882866 -7.378715,5.278684 -9.301453,9.095825 -1.211144,2.404438 -1.718551,4.036832 -2.080367,6.69279 -0.248603,1.824907 -0.2703,2.39521 -0.09112,2.39521 0.07087,0 0.86032,-0.242195 1.754335,-0.53821 z M 78.703967,9.9000178 C 81.001846,8.8242015 84.430198,7.7981518 85.761976,7.787671 86.263858,7.783721 86.271799,7.6248081 85.818246,6.6616766 85.370078,5.7099687 84.571094,4.8960922 83.581951,4.3836937 82.921416,4.0415222 82.615269,3.9806412 81.532934,3.9762216 c -1.630418,-0.00666 -2.551612,0.3765119 -3.5584,1.4801118 -0.863083,0.9460783 -1.23375,1.9206962 -1.23276,3.2413877 6.11e-4,0.8146999 0.213094,1.9310219 0.367557,1.9310219 0.02097,0 0.738555,-0.327927 1.594636,-0.7287252 z" id="path3208"/>
	<path style="fill:#9d2945;stroke-width:0.00568862" d="m 60.086513,54.641988 c -0.25679,-0.201991 -0.506044,-0.69681 -0.772937,-1.534431 -0.902273,-2.831715 -2.760793,-5.816913 -4.821796,-7.74488 -1.936038,-1.811069 -4.625209,-3.307008 -6.915587,-3.847022 -0.841674,-0.198445 -1.181861,-0.359057 -1.459581,-0.689109 -0.638563,-0.758889 -0.364133,-1.867543 0.540328,-2.18284 0.849797,-0.296241 3.800803,0.643133 6.033577,1.920629 4.281797,2.449857 7.651186,6.636334 9.235889,11.475622 0.449259,1.371928 0.477757,1.561109 0.299859,1.990592 -0.353338,0.853033 -1.438428,1.163101 -2.139752,0.611439 z" id="path3210"/>
	<path style="fill:#9d2945;stroke-width:0.00568862" d="m 80.323814,38.484569 c -0.392009,-0.392009 -0.437586,-0.536859 -0.437586,-1.390703 0,-2.362678 1.200205,-4.650455 2.912432,-5.551545 0.836419,-0.440181 2.320752,-0.440181 3.157171,0 0.730009,0.38418 1.72872,1.436934 2.154008,2.270566 0.662138,1.297898 1.001151,3.627509 0.629063,4.322761 -0.455412,0.850945 -1.404674,1.018877 -2.118784,0.374831 -0.403229,-0.363666 -0.471531,-0.548052 -0.585677,-1.581057 -0.14904,-1.348798 -0.645635,-2.456411 -1.253859,-2.796626 -0.359363,-0.201013 -0.44731,-0.201013 -0.806673,0 -0.606543,0.339275 -1.08118,1.404629 -1.23437,2.770627 -0.118838,1.059677 -0.18398,1.234555 -0.597504,1.604038 -0.623888,0.557444 -1.245714,0.549615 -1.818221,-0.02289 z" id="path3212"/>
	<path style="fill:#9d2945;stroke-width:0.00568862" d="m 92.725416,38.48446 c -0.469467,-0.420306 -0.487598,-0.478067 -0.456396,-1.453924 0.05744,-1.796416 0.832241,-3.705216 1.93371,-4.763889 0.235954,-0.226785 0.790671,-0.582168 1.232705,-0.789739 1.404145,-0.659361 2.944367,-0.274118 4.154991,1.039254 1.059914,1.149867 1.702984,2.92592 1.702984,4.703321 0,0.715004 -0.0595,0.886988 -0.43758,1.265086 -0.57251,0.572507 -1.194336,0.580336 -1.818225,0.02289 -0.410359,-0.366656 -0.479,-0.547348 -0.592545,-1.559824 -0.194494,-1.734303 -0.90829,-2.965601 -1.719189,-2.965601 -0.711836,0 -1.445848,1.428778 -1.647345,3.206607 -0.182119,1.606859 -1.311201,2.228625 -2.35311,1.295817 z" id="path3214"/>
	<path style="fill:#9d2945;stroke-width:0.00568862" d="m 89.092814,48.063256 c -3.548072,-0.5791 -6.149643,-2.698647 -6.668136,-5.432649 -0.25366,-1.337543 0.28378,-2.211445 1.360014,-2.211445 0.528049,0 1.340508,0.695467 1.341891,1.148664 0.0072,2.35168 3.235949,4.147986 6.565647,3.652755 1.319274,-0.196217 2.423785,-0.6627 3.215961,-1.358239 0.687212,-0.60338 0.934797,-1.061569 1.07353,-1.986711 0.174115,-1.161078 1.098309,-1.732801 2.078872,-1.286027 1.336202,0.608815 0.767986,3.391404 -1.056229,5.172408 -0.859652,0.839288 -2.694063,1.821559 -3.964595,2.122917 -0.968896,0.229814 -3.054243,0.324031 -3.946955,0.178327 z" id="path3216"/>
	<path style="fill:#9d2945;stroke-width:0.00568862" d="m 99.031146,82.260533 c -0.636498,-0.34593 -0.802984,-0.957129 -0.598307,-2.196491 0.740138,-4.48171 4.221091,-7.986739 8.518911,-8.577841 0.7522,-0.103454 0.79932,-0.08842 1.30355,0.415808 0.59612,0.596121 0.6532,1.011609 0.23351,1.699894 -0.303,0.49693 -0.3421,0.5159 -1.65647,0.803795 -2.85006,0.624264 -4.9796,2.931092 -5.59768,6.06369 -0.27062,1.371574 -0.34916,1.537551 -0.85016,1.796628 -0.52262,0.270258 -0.848429,0.268938 -1.353354,-0.0055 z" id="path3218"/>
	<path style="fill:#9d2945;stroke-width:0.00568862" d="m 125.53339,58.245048 c -0.26068,-0.26068 -0.43758,-0.595952 -0.43758,-0.829314 0,-0.215451 0.23832,-1.753192 0.5296,-3.417204 l 0.52961,-3.025476 -2.40086,-2.322396 c -2.25503,-2.181328 -2.40087,-2.356229 -2.40087,-2.879375 0,-0.399167 0.11665,-0.683959 0.41168,-1.005141 0.39837,-0.433679 0.51209,-0.462784 3.51856,-0.900566 1.70879,-0.248821 3.16343,-0.452402 3.23252,-0.452402 0.0691,0 0.74157,-1.27433 1.49437,-2.831843 0.86139,-1.78217 1.5157,-2.947442 1.76521,-3.143712 0.47983,-0.377434 1.21311,-0.398099 1.65232,-0.04657 0.17773,0.142256 0.96961,1.555429 1.75973,3.140384 0.79011,1.584955 1.46193,2.881737 1.49292,2.881737 0.60082,0 6.34406,0.951019 6.51456,1.078741 0.47253,0.353979 0.61329,0.634984 0.61755,1.232805 0.004,0.589656 -0.0662,0.6762 -2.38298,2.927975 l -2.38729,2.320359 0.51156,2.919162 c 0.28135,1.605538 0.51163,3.143281 0.51171,3.417203 1.5e-4,0.633395 -0.69083,1.373216 -1.28265,1.373216 -0.22453,0 -1.71046,-0.676557 -3.30794,-1.506136 l -2.9003,-1.506138 -2.85037,1.506138 c -1.78939,0.945514 -3.01845,1.506136 -3.30192,1.506136 -0.29948,0 -0.59892,-0.147367 -0.88914,-0.437587 z m 4.79051,-4.577383 c 1.01737,-0.53519 2.04111,-0.973054 2.27502,-0.973054 0.23455,0 1.2658,0.442293 2.29941,0.98619 1.03077,0.542404 1.87413,0.924326 1.87413,0.848715 0,-0.07561 -0.13371,-0.873065 -0.29713,-1.772118 -0.50098,-2.756124 -0.55438,-2.573869 1.29879,-4.432804 1.07002,-1.073345 1.52896,-1.628882 1.38473,-1.676157 -0.11866,-0.03889 -1.0578,-0.183373 -2.08699,-0.32107 -1.0292,-0.137697 -2.03065,-0.351157 -2.22546,-0.474355 -0.21617,-0.136705 -0.70026,-0.947441 -1.24222,-2.08042 -0.48842,-1.021033 -0.93657,-1.856424 -0.99589,-1.856424 -0.0593,0 -0.52598,0.839428 -1.03703,1.865396 -0.52731,1.058625 -1.07644,1.957905 -1.26968,2.079292 -0.18728,0.117643 -1.18257,0.332435 -2.21176,0.477317 -1.02919,0.144882 -1.96097,0.309645 -2.07062,0.366141 -0.13685,0.07051 0.27046,0.536244 1.29894,1.485272 0.84295,0.777835 1.56587,1.5764 1.6528,1.825743 0.11897,0.341294 0.07,0.915367 -0.21298,2.496866 -0.40727,2.276137 -0.38464,2.128524 -0.32626,2.128524 0.0234,0 0.87485,-0.437875 1.8922,-0.973054 z" id="path3220"/>
</svg>