<svg xmlns="http://www.w3.org/2000/svg" width="100" height="111" viewBox="0 0 100 111" fill="none">
	<g>
		<path id="Vector" d="M10.7143 25.1232C3.41607 26.9536 0 29.1964 0 32.1429C0 35.4946 5.125 37.8679 12.3804 39.5161C12.9821 40.9375 13.7339 42.3 14.6482 43.5804C17.1036 47.0179 18.8589 50.9018 19.8339 54.9893C15.0393 56.2661 12.5 58.225 12.5 60.7143C12.5 63.7911 16.5054 65.8179 21.8232 66.9C22.5679 70.2268 23.5482 73.5 24.8179 76.6732C24.9786 77.0732 25.1571 77.4607 25.325 77.8554C21.5214 78.7768 19.6429 80.1839 19.6429 82.1429C19.6429 85.5875 25.75 86.8196 30.5429 87.2589C32.3054 89.7822 34.2786 92.1607 36.4821 94.3661C37.8143 95.6964 39.5839 96.4286 41.4625 96.4286C44.2 96.4286 46.4286 94.2 46.4286 91.4625C46.4286 91.0589 46.3786 90.6571 46.2804 90.2589L45.3661 86.6018C48.7982 85.8697 51.7857 84.55 51.7857 82.1429C51.7857 79.7964 48.975 78.1946 43.4964 77.3518C43.0857 74.3304 42.8571 71.2857 42.8571 68.2339C42.8571 67.7536 42.8875 67.2732 42.9321 66.7964C48.0107 65.6893 51.7857 63.6982 51.7857 60.7143C51.7857 59.3536 51.0393 58.1625 49.5839 57.1482C49.5982 57.1482 49.6107 57.1429 49.6232 57.1429C51.3768 57.1429 52.9554 58.1179 53.7393 59.6875C54.7982 61.8018 55.3571 64.1732 55.3571 66.5375C55.3571 77.9196 53.8393 89.2589 50.8375 100.261C50.2821 102.298 50 104.404 50 106.516C50 108.83 51.8839 110.714 54.1982 110.714C55.4804 110.714 56.675 110.141 57.4768 109.139L63.3143 101.843C68.5946 95.2429 72.3982 87.7625 74.6214 79.6125C74.8125 78.9143 74.9571 78.2036 75.1232 77.5C80.1768 76.3911 83.9286 74.4036 83.9286 71.4286C83.9286 68.9661 81.4232 67.0179 76.7089 65.7393C76.7375 64.9714 76.7857 64.2036 76.7857 63.4321C76.7857 61.0946 76.9339 58.7732 77.1982 56.4714C77.3554 56.6661 77.5411 56.8375 77.7732 56.9554C79.65 57.8929 81.05 59.5071 81.7143 61.4982L82.2357 63.0661C82.4804 63.7946 83.1625 64.2857 83.9304 64.2857C84.6982 64.2857 85.3804 63.7947 85.625 63.0643L86.1482 61.4929C86.8107 59.5036 88.2089 57.8911 90.0839 56.9536C90.6893 56.6518 91.0714 56.0339 91.0714 55.3571C91.0714 54.6804 90.6893 54.0625 90.0857 53.7589C88.2107 52.8214 86.8125 51.2089 86.15 49.2196L85.6268 47.6482C85.3821 46.9196 84.7 46.4286 83.9304 46.4286C83.1607 46.4286 82.4804 46.9196 82.2357 47.65L81.7143 49.2179C81.05 51.2089 79.65 52.8232 77.7714 53.7607C77.6875 53.8018 77.6196 53.8643 77.5446 53.9161C78.2089 49.7071 79.3036 45.5732 80.8482 41.5571L83.7821 33.9268C84.0893 33.1304 84.3536 32.3232 84.5875 31.5089C93.1589 30.3321 100 27.5357 100 23.2143C100 17.475 88.7446 15.4304 83.8821 14.8161C80.5179 7.15536 72.8679 1.78571 63.9804 1.78571C60.825 1.78571 57.8286 2.825 55.3821 4.73929C51.7625 1.67321 47.2214 0 42.4232 0H42.1518C37.7661 0 33.5125 1.23571 29.8161 3.57857C27.4679 3.64107 25.2054 4.13393 23.0536 5C22.5554 4.33393 22.1339 3.60536 21.8625 2.79107L21.3393 1.21964C21.0964 0.491071 20.4143 0 19.6446 0C18.875 0 18.1946 0.491071 17.95 1.22143L17.4286 2.78929C16.7643 4.78036 15.3643 6.39464 13.4857 7.33214C12.8821 7.63214 12.5 8.25179 12.5 8.92857C12.5 9.60536 12.8821 10.2232 13.4875 10.5268C13.9321 10.75 14.3464 11.0161 14.7357 11.3107C12.1321 14.7179 10.7143 18.8821 10.7143 23.2143V25.1232ZM83.9304 52.8321C84.5232 53.7768 85.2518 54.6268 86.0929 55.3571C85.25 56.0875 84.5232 56.9375 83.9304 57.8821C83.3357 56.9375 82.6071 56.0875 81.7643 55.3571C82.6089 54.6268 83.3357 53.7768 83.9304 52.8321ZM3.57143 32.1571C3.575 32.1411 4.11607 30.5911 10.7143 28.8179V31.3036C10.7143 32.7643 10.8768 34.2018 11.1679 35.6071C6.37857 34.3929 3.775 33.1107 3.57143 32.1571ZM16.0696 60.7429C16.1429 60.4786 17.1304 59.4446 20.4607 58.5161C20.4929 58.7768 20.5393 59.0339 20.5643 59.2947C20.6911 60.5607 20.875 61.8196 21.0768 63.0732C17.8929 62.2625 16.2179 61.2536 16.0696 60.7429ZM23.7125 82.1482C24.2804 81.8661 25.2946 81.5018 26.8714 81.1679C27.2482 81.9054 27.6446 82.6304 28.0554 83.3464C25.9732 82.9929 24.5018 82.5393 23.7125 82.1482ZM42.8143 91.1214C42.8429 91.2357 42.8571 91.3482 42.8571 91.4625C42.8571 92.2304 42.2321 92.8571 41.4625 92.8571C40.5357 92.8571 39.6643 92.4964 39.0071 91.8411C37.6304 90.4643 36.3554 89.0089 35.1625 87.4964C35.3732 87.4982 35.5661 87.5 35.7143 87.5C36.7018 87.5 39.1411 87.4625 41.825 87.1643L42.8143 91.1214ZM47.7143 82.15C47.0839 82.4625 46.0036 82.8107 44.5464 83.1197C44.3929 82.4375 44.2321 81.7571 44.1 81.0696C45.9357 81.425 47.0839 81.8357 47.7143 82.15ZM41.0089 83.6572C39.4607 83.8196 37.7089 83.9286 35.7143 83.9286C34.5714 83.9286 33.5268 83.8857 32.5286 83.8268C30.8036 81.1643 29.3286 78.3357 28.1339 75.3482C27.1089 72.7857 26.2696 70.1589 25.6054 67.4875C27.7357 67.7321 29.9554 67.8571 32.1429 67.8571C34.5482 67.8571 37 67.7107 39.3196 67.4143C39.3071 67.6875 39.2857 67.9607 39.2857 68.2339C39.2857 73.4214 39.8857 78.5964 41.0089 83.6572ZM43.825 62.9036C44.3125 61.5804 44.975 60.3232 45.8054 59.1786C47.5804 59.8946 48.1607 60.5357 48.2161 60.6875C48.0786 61.1929 46.6089 62.1179 43.825 62.9036ZM80.3589 71.4018C80.2196 71.9107 78.725 72.8464 75.8982 73.6357C76.1357 72.2232 76.325 70.8036 76.4625 69.3786C79.3964 70.2696 80.2929 71.2036 80.3589 71.4018ZM96.4286 23.2143C96.4286 24.5429 92.3875 26.65 85.3714 27.7839C85.5804 26.3768 85.7143 24.9571 85.7143 23.5214C85.7143 21.825 85.5 20.1804 85.1304 18.5964C93.0643 19.8125 96.4286 22.1214 96.4286 23.2143ZM42.4232 3.57143C46.2786 3.57143 49.9321 4.88393 52.8732 7.29821C51.5143 9.08214 50.5946 11.1643 50.2089 13.3768C48.5036 13.7589 46.8339 14.2911 45.1911 14.925C42.5732 10.7518 38.8661 7.37679 34.4589 5.16607C36.8786 4.125 39.4839 3.57143 42.1518 3.57143H42.4232ZM19.6446 6.40357C20.2375 7.34821 20.9661 8.19821 21.8071 8.92857C20.9643 9.65893 20.2375 10.5089 19.6446 11.4536C19.05 10.5089 18.3232 9.65893 17.4804 8.92857C18.3232 8.19821 19.05 7.34821 19.6446 6.40357ZM14.2857 23.2143C14.2857 19.9786 15.2661 16.8643 17.0536 14.225C17.1839 14.5036 17.3304 14.7732 17.4286 15.0679L17.95 16.6357C18.1946 17.3661 18.8768 17.8571 19.6446 17.8571C20.4125 17.8571 21.0946 17.3661 21.3393 16.6357L21.8625 15.0643C22.525 13.075 23.9232 11.4625 25.7982 10.525C26.4036 10.2232 26.7857 9.60536 26.7857 8.92857C26.7857 8.45357 26.5893 8.01429 26.2679 7.68571C27.5 7.3625 28.7679 7.18214 30.0679 7.15893C36.2643 9.31429 41.2929 13.975 43.8786 20.0143L44.7875 22.1339L48.0696 20.725L47.1607 18.6071C47.0857 18.4304 46.9857 18.2661 46.9071 18.0911C50.4589 16.7768 54.1696 16.0714 57.9857 16.0714C62.95 16.0714 67.825 17.4214 72.0857 19.9768L74.0804 21.175L75.9179 18.1125L73.9214 16.9143C69.1071 14.025 63.5964 12.5 57.9857 12.5C56.6643 12.5 55.3554 12.5839 54.0571 12.7268C54.5536 11.1107 55.4089 9.61607 56.6196 8.40536C58.5857 6.43929 61.2 5.35714 63.9804 5.35714C73.9946 5.35714 82.1429 13.5054 82.1429 23.5214C82.1429 25.1196 81.9893 26.7018 81.6946 28.2571C79.6429 28.4554 77.4089 28.5714 75 28.5714V32.1429C76.9107 32.1429 78.8196 32.0607 80.6911 31.9179C80.6071 32.1589 80.5411 32.4054 80.45 32.6429L77.5161 40.2714C74.6625 47.6929 73.2143 55.4857 73.2143 63.4339C73.2143 67.1286 72.8464 70.8089 72.1446 74.4304C69.9589 74.7732 67.3464 75 64.2857 75V78.5714C66.6339 78.5714 69.0268 78.4321 71.2964 78.15C71.2518 78.3232 71.2196 78.5 71.1732 78.6714C69.0804 86.3482 65.4964 93.3929 60.525 99.6107L54.6875 106.907C54.3536 107.329 53.5714 107.055 53.5714 106.516C53.5714 104.72 53.8107 102.932 54.2893 101.175C57.3679 89.8911 58.9286 78.2357 58.9286 66.5375C58.9286 63.6196 58.2393 60.6982 56.9339 58.0911C55.5411 55.3036 52.7393 53.5714 49.6232 53.5714C47.0643 53.5714 44.6196 54.7946 43.0821 56.8411C41.5429 58.8946 40.4393 61.2571 39.8321 63.7429C37.6786 64.0696 35.1268 64.2857 32.1429 64.2857C29.3304 64.2857 26.8982 64.0929 24.8232 63.7982C24.5286 62.1893 24.2804 60.5714 24.1161 58.9393C23.4875 52.6661 21.2196 46.6375 17.5554 41.5054C17.2982 41.1446 17.0554 40.775 16.8268 40.3982C27.4661 42.2321 40.8768 42.8571 50 42.8571V39.2857C34.6857 39.2857 22.9339 38.0268 15.0661 36.4732C14.5554 34.8125 14.2857 33.075 14.2857 31.3018V23.2143Z" fill="#4178E4" />
	</g>
</svg>
