<svg xmlns="http://www.w3.org/2000/svg" width="61" height="69" viewBox="0 0 61 69" fill="none"> <path fill-rule="evenodd" clip-rule="evenodd" d="M10.5259 29.1634C10.5213 29.1634 10.5164 29.1634 10.5117 29.1634C9.66253 29.1634 8.97432 28.3826 8.97432 27.4186C8.97432 26.9168 9.16547 26.4385 9.49759 26.1078L10.2684 25.3399C10.7668 24.8434 11.4077 24.5707 12.0704 24.5707C12.7426 24.5707 13.3931 24.8517 13.894 25.3616L14.6279 26.1093C14.9662 26.4294 15.1674 26.9196 15.1674 27.4365C15.1674 28.3998 14.4796 29.1806 13.6311 29.1806C13.6204 29.1806 13.6098 29.1806 13.5991 29.1798V32.5028C13.5991 33.4661 12.9107 34.2476 12.0622 34.2476C11.2137 34.2476 10.5259 33.4661 10.5259 32.5028V29.1637V29.1634ZM47.3698 29.1871C47.3651 29.1871 47.3603 29.1871 47.3556 29.1871C46.5071 29.1871 45.8182 28.4056 45.8182 27.4423C45.8182 26.9405 46.0094 26.4622 46.3415 26.1308L47.1129 25.3628C47.6109 24.8671 48.2516 24.5941 48.9138 24.5941C49.5867 24.5941 50.237 24.8756 50.7385 25.3857L51.476 26.1363C51.8101 26.4609 52.007 26.9446 52.007 27.4547C52.007 28.4179 51.3186 29.1995 50.4701 29.1995C50.4612 29.1995 50.4517 29.1995 50.4428 29.1995V32.5265C50.4428 33.4898 49.755 34.2713 48.9065 34.2713C48.058 34.2713 47.3696 33.4898 47.3696 32.5265V29.1874L47.3698 29.1871ZM28.9476 31.1015C28.943 31.1015 28.9381 31.1015 28.9334 31.1015C28.0843 31.1015 27.3943 30.3215 27.3943 29.3567C27.3943 28.8542 27.5854 28.3758 27.9182 28.0444L28.689 27.2772C29.187 26.7815 29.8283 26.5085 30.4906 26.5085C31.1628 26.5085 31.8119 26.7901 32.3134 27.2982L33.0689 28.0633C33.3857 28.4008 33.5627 28.8623 33.5627 29.3439C33.5627 30.3071 32.8742 31.0887 32.0257 31.0887C32.0246 31.0887 32.0229 31.0887 32.0215 31.0887V34.4407C32.0215 35.404 31.3331 36.1847 30.4846 36.1847C29.6361 36.1847 28.9476 35.404 28.9476 34.4407V31.1015ZM52.4737 14.2652L52.1722 17.442C52.031 18.9315 50.9254 20.0619 49.6052 20.0619H48.2059C46.8867 20.0619 45.7818 18.9302 45.6413 17.442L45.3813 14.6916C41.6026 14.8506 37.8163 14.926 34.0351 14.9562L33.7503 17.9761C33.6097 19.4661 32.5041 20.5959 31.1832 20.5959H29.7857C28.4666 20.5959 27.3612 19.4648 27.2204 17.9761L26.9356 14.9562C23.154 14.9252 19.3675 14.8499 15.589 14.6908L15.329 17.442C15.1885 18.932 14.0822 20.0619 12.7619 20.0619H11.3626C10.0431 20.0619 8.93992 18.9287 8.79917 17.4415L8.49835 14.2626C6.91591 14.1427 5.33966 13.8786 3.79407 13.4786L3.75788 13.4693L3.72281 13.4564C1.50365 12.6378 0 10.2884 0 7.63022V4.41633C0 1.97919 1.74274 0 3.88974 0H57.108C59.2555 0 61 1.97768 61 4.41633V7.63979C61 10.2886 59.4964 12.6376 57.2776 13.4574L57.2421 13.4708L57.2059 13.4801C55.6506 13.8836 54.0652 14.1449 52.473 14.2657L52.4737 14.2652ZM12.3199 16.5738L12.5122 14.5406C12.2107 14.5232 11.9099 14.5048 11.6091 14.4859L11.806 16.5735H12.3199V16.5738ZM30.7417 17.1081L30.9435 14.9693C30.7903 14.9693 30.6378 14.9693 30.4848 14.9693H30.0268L30.2286 17.1081H30.7419H30.7417ZM49.1634 16.5738L49.3603 14.487C49.0595 14.5066 48.7587 14.5248 48.4578 14.5421L48.6494 16.5738H49.1634ZM57.9252 7.62921V4.41582C57.9252 3.90395 57.5598 3.48885 57.1087 3.48885H3.89041C3.43952 3.48885 3.07388 3.9037 3.07388 4.41582V7.64937C3.07388 8.7709 3.7006 9.78961 4.64811 10.1304C6.66858 10.8572 11.2401 10.9905 13.406 11.1057C19.0853 11.4069 24.7995 11.4835 30.4848 11.4835C36.1772 11.4835 41.8981 11.4066 47.5849 11.1057C49.7515 10.9905 54.3288 10.8577 56.3503 10.1304C57.2981 9.78961 57.9252 8.77091 57.9252 7.62921ZM58.9347 56.1171C58.9702 57.8462 58.857 61.05 58.3473 62.4445C57.5172 64.7133 53.625 65.4268 51.69 65.4268C51.4842 65.4268 51.2775 65.4195 51.0806 65.4026C50.7822 65.3837 50.4812 65.3305 50.1871 65.2451C48.5464 66.6605 45.3835 67.1116 43.4954 67.1116C43.2063 67.1116 42.9175 67.1015 42.6427 67.0774C42.1882 67.0552 41.7307 66.9682 41.2862 66.8208C40.7889 67.3523 40.1611 67.7107 39.4806 67.8473C37.8511 68.1739 36.1974 68.3466 34.543 68.3466C34.5057 68.3466 34.4678 68.3466 34.4303 68.3466C33.6985 68.3466 32.9653 68.3163 32.2437 68.2488C31.6237 68.2049 31.0203 67.9935 30.4844 67.6364C29.9491 67.9927 29.3457 68.2037 28.7261 68.2468C28.005 68.3141 27.2717 68.3446 26.54 68.3446C26.5027 68.3446 26.4647 68.3446 26.4272 68.3446C24.7728 68.3446 23.1191 68.1727 21.4903 67.846C20.8096 67.7092 20.1818 67.3503 19.6847 66.8188C19.2403 66.9662 18.7834 67.0532 18.3283 67.0753C18.0534 67.0995 17.7639 67.1091 17.4756 67.1091C15.5881 67.1091 12.4247 66.6572 10.7839 65.2426C10.4895 65.3288 10.1887 65.3819 9.89031 65.4008C9.69383 65.4177 9.48737 65.425 9.28157 65.425C7.34725 65.425 3.4564 64.7095 2.62499 62.4435C2.11349 61.0511 2.00005 57.844 2.03646 56.1153C-0.374955 51.1127 -0.898439 43.9717 2.77818 39.5619C7.63142 33.7403 21.849 38.7658 27.4635 41.5275C28.4159 41.9963 29.4472 42.2362 30.485 42.2362C31.5233 42.2362 32.5541 41.9963 33.5072 41.5275C39.1219 38.7655 53.3393 33.7395 58.1925 39.5619C61.8685 43.9715 61.3452 51.1143 58.9349 56.1173L58.9347 56.1171ZM9.49382 61.9455C9.41434 61.0483 9.37393 60.1455 9.37393 59.245C9.37393 58.281 9.42077 57.3165 9.5109 56.3577C9.5169 56.295 9.52157 56.2317 9.52157 56.1692C9.52157 56.0593 9.51023 55.9502 9.4907 55.8547C9.14703 54.341 8.07965 53.1623 6.74452 52.8124C6.31383 52.7194 5.75949 52.7404 5.50307 53.2381C4.9525 54.3085 5.02353 59.5462 5.4147 60.9661C5.76658 61.2512 6.65371 61.5334 6.99848 61.6257C7.49866 61.7598 8.67663 61.9747 9.4936 61.9458L9.49382 61.9455ZM18.5092 63.5663C18.4457 62.4637 18.412 61.3575 18.412 60.2526C18.412 59.1633 18.4439 58.0741 18.5052 56.9735C18.5099 56.9155 18.5117 56.8704 18.5117 56.8253C18.5117 56.7733 18.5099 56.7202 18.5045 56.6682C18.2945 54.6906 16.8288 53.2994 15.1774 52.9012C14.7484 52.7981 13.4832 52.67 13.2222 53.2313C12.5528 54.6729 12.1452 61.1783 12.6401 62.5222C13.0217 62.9103 14.7091 63.315 15.267 63.4181C15.8824 63.532 17.5468 63.7193 18.5092 63.5663ZM28.8435 64.6959C29.2536 63.0292 28.6939 58.0708 28.382 56.5616C27.8687 54.3561 26.0998 52.8089 24.0282 52.8089C23.9849 52.8089 23.9647 52.8082 23.9445 52.8082C22.8581 52.8082 21.9407 53.725 21.8 54.9693C21.3822 57.7205 21.4095 60.9215 21.5904 63.6823L21.594 63.7395L21.5922 63.7962C21.5922 64.0958 21.7773 64.364 22.0395 64.4172C23.507 64.7156 25.0024 64.8577 26.4929 64.8577C27.157 64.8577 27.8216 64.826 28.4832 64.7703L28.5658 64.7675C28.6626 64.7675 28.7574 64.7425 28.8435 64.6962V64.6959ZM32.1221 64.7012C32.1962 64.7436 32.2764 64.766 32.3683 64.766L32.4091 64.7607L32.4786 64.7667C33.142 64.824 33.8078 64.8557 34.4729 64.8557C35.9623 64.8557 37.4553 64.7088 38.9221 64.4131C39.1838 64.36 39.3694 64.0938 39.3694 63.7942C39.3694 63.7624 39.3701 63.7314 39.3719 63.6903C39.5577 60.9271 39.5801 57.7132 39.1576 54.9681C39.0171 53.7233 38.0996 52.8064 37.0131 52.8064C36.9929 52.8064 36.9727 52.8071 36.9431 52.8077H36.8144C34.8223 52.8399 33.086 54.3806 32.5783 56.5604C32.2673 58.0728 31.7103 63.0408 32.1221 64.7012ZM42.4315 63.5552C43.3881 63.7163 45.0787 63.5275 45.6999 63.4131C46.2582 63.31 47.9446 62.9065 48.3269 62.5184C48.8253 61.1778 48.413 54.6699 47.7448 53.2275C47.4855 52.6678 46.2163 52.7958 45.7889 52.8989C44.1352 53.2956 42.6706 54.688 42.4617 56.6685C42.4564 56.7197 42.4553 56.7723 42.4553 56.824C42.4553 56.8719 42.4577 56.9198 42.4613 56.9795C42.501 57.9833 42.5266 58.9776 42.5266 59.9711C42.5266 61.1662 42.4915 62.3611 42.4315 63.555V63.5552ZM55.5525 60.9639C55.9452 59.5459 56.0111 54.309 55.4581 53.2391C55.2012 52.7414 54.6469 52.7197 54.2162 52.8119C52.8804 53.1615 51.8141 54.341 51.47 55.8542C51.4505 55.95 51.4391 56.0591 51.4391 56.1687C51.4391 56.2315 51.4427 56.2947 51.4487 56.3572C51.5388 57.3157 51.587 58.2805 51.587 59.2445C51.587 60.1445 51.5473 61.0458 51.4678 61.9417C52.2868 61.9707 53.4592 61.7578 53.9653 61.6224C54.3112 61.5302 55.1997 61.2479 55.5527 60.9636L55.5525 60.9639ZM57.4952 50.5656C58.0376 47.5941 57.7925 44.1587 55.9601 41.9598C54.2861 39.9511 49.7159 40.314 47.547 40.622C43.2691 41.2304 38.6907 42.7804 34.7297 44.7291C33.3917 45.3871 31.9427 45.7246 30.4846 45.7246C29.0267 45.7246 27.5781 45.3864 26.2401 44.7283C22.2793 42.7789 17.7007 41.2289 13.4228 40.6212C11.2541 40.3127 6.68367 39.9496 5.00976 41.959C3.17867 44.1572 2.93292 47.5934 3.47461 50.5648C4.46919 49.4453 5.90267 49.0789 7.34703 49.3914C8.59137 49.6946 9.72182 50.3856 10.6196 51.3706C11.6799 49.405 13.9526 49.0458 15.8134 49.4892C17.2826 49.8387 18.6195 50.6702 19.6621 51.8663C20.6156 50.3007 22.2078 49.3241 23.9772 49.3241C24.0258 49.3241 24.0651 49.3233 24.1042 49.3233C26.7482 49.3233 29.1443 50.897 30.4855 53.3664C31.8306 50.8947 34.2309 49.3206 36.8781 49.3206C36.9118 49.3206 36.9451 49.3213 37.0371 49.3206C38.768 49.3206 40.3518 50.2974 41.3035 51.8623C42.3456 50.6667 43.683 49.8352 45.1515 49.4856C47.0117 49.0423 49.2768 49.4042 50.3453 51.3686C51.2425 50.3831 52.3729 49.6913 53.6179 49.3881C55.0658 49.0741 56.5 49.4433 57.4945 50.5656H57.4952Z" fill="#D7B487"/> </svg>