<!-- icon666.com - MILLIONS vector ICONS FREE --><svg viewBox="0 0 496.016 496" xmlns="http://www.w3.org/2000/svg"><path d="m272 256.007812c0-17.648437-14.351562-32-32-32s-32 14.351563-32 32c0 17.648438 14.351562 32 32 32s32-14.351562 32-32zm-48 0c0-8.824218 7.175781-16 16-16s16 7.175782 16 16c0 8.824219-7.175781 16-16 16s-16-7.175781-16-16zm0 0"></path><path d="m454.535156 66.320312-2.054687-.34375c-5.648438-.945312-10.777344-3.578124-14.824219-7.625-4.046875-4.046874-6.679688-9.167968-7.625-14.824218l-.34375-2.054688c-4-24.023437-24.582031-41.4648435-48.945312-41.4648435-24.972657 0-46.140626 18.6874995-49.230469 43.4648435-.976563 7.765625-3.359375 15.191406-6.953125 21.976563-69.125 9.320312-121.167969 66.511719-124.253906 136.0625l-6.738282-1.34375-1.566406-.160157c-43.136719 0-83.199219 19.417969-109.9375 53.28125l-74.519531 94.382813c-4.863281 6.167969-7.542969 13.886719-7.542969 21.742187v3.488282c0 19.363281 15.753906 35.105468 35.105469 35.105468 10.613281 0 20.542969-4.726562 27.238281-12.96875l75.6875-93.152343c10.609375-13.054688 26.058594-20.808594 42.746094-21.710938 6.503906 15.871094 19.183594 28.550781 35.054687 35.054688-.894531 16.691406-8.640625 32.128906-21.710937 42.753906l-93.160156 75.6875c-8.234376 6.6875-12.960938 16.625-12.960938 27.230469 0 19.363281 15.753906 35.105468 35.105469 35.105468h3.496093c7.847657 0 15.574219-2.679687 21.75-7.550781l94.375-74.511719c33.847657-26.730468 53.273438-66.792968 53.273438-109.9375l-1.574219-8.304687c70.261719-3.046875 127.421875-55.519531 136.269531-125.335937 5.929688-2.734376 12.234376-4.664063 18.753907-5.480469l3.101562-.382813c24.792969-3.105468 43.472657-24.273437 43.464844-49.238281-.015625-24.363281-17.457031-44.9375-41.480469-48.945313zm-146.023437 18.710938-27.96875 23.976562c-5.429688 4.648438-8.542969 11.417969-8.542969 18.558594 0 6.984375 2.976562 13.25 7.6875 17.707032-8.519531 16.015624-13.671875 33.574218-15.175781 51.628906-7.550781-3.140625-15.832031-4.894532-24.511719-4.894532-8.289062 0-16.191406 1.632813-23.464844 4.511719 4.6875-53.046875 41.5625-97.085937 91.976563-111.488281zm32.152343 97.890625c-3.054687 4.253906-4.664062 9.277344-4.664062 14.527344v1.589843c0 2.121094.34375 4.136719.839844 6.105469-14.761719 6.742188-30.800782 10.503907-47.046875 10.75-2.890625-3.574219-6.152344-6.839843-9.738281-9.71875.296874-19.046875 5.21875-37.6875 14.296874-54.375.703126.054688 1.375.207031 2.089844.207031h3.191406c4.246094 0 8.445313-1.113281 12.128907-3.222656l48.015625-27.441406c1.535156-.871094 3.277344-1.335938 5.054687-1.335938h.992188c5.609375 0 10.175781 4.566407 10.175781 10.175782 0 2.128906-.65625 4.175781-1.886719 5.914062zm-290.742187 202.03125c-3.640625 4.488281-9.050781 7.054687-14.816406 7.054687-10.539063 0-19.105469-8.566406-19.105469-19.105468v-3.488282c0-4.277343 1.464844-8.476562 4.113281-11.828124l14.421875-18.273438 34.03125 22.6875zm75.6875-93.152344-46.90625 57.726563-34.222656-22.816406 50.144531-63.511719c23.269531-29.480469 57.976562-46.542969 95.4375-47.109375-8.773438 10.949218-14.0625 24.820312-14.0625 39.917968 0 2.855469.257812 5.648438.617188 8.40625-19.929688 1.945313-38.226563 11.648438-51.007813 27.386719zm66.390625-35.792969c0-26.472656 21.527344-48 48-48s48 21.527344 48 48c0 26.472657-21.527344 48-48 48s-48-21.527343-48-48zm-53.566406 219.886719c-3.363282 2.65625-7.570313 4.113281-11.839844 4.113281h-3.496094c-10.53125 0-19.097656-8.566406-19.097656-19.105468 0-5.773438 2.566406-11.175782 7.054688-14.824219l31.601562-25.671875 22.777344 34.167969zm94.375-74.511719-54.777344 43.25-22.902344-34.359374 49.085938-39.882813c15.730468-12.78125 25.441406-31.070313 27.378906-51.007813 2.757812.371094 5.550781.625 8.40625.625 15.105469 0 28.96875-5.289062 39.929688-14.0625-.578126 37.460938-17.640626 72.167969-47.121094 95.4375zm66.679687-121.910156c2.878907-7.28125 4.511719-15.175781 4.511719-23.464844 0-8.6875-1.753906-16.96875-4.902344-24.519531 16.199219-1.359375 32.09375-5.664062 46.757813-12.703125 4.207031 3.222656 9.410156 5.222656 15.113281 5.222656 6.574219 0 13.007812-2.664062 17.65625-7.3125l33.429688-33.429687c-13.039063 52.65625-57.816407 91.414063-112.566407 96.207031zm151.0625-130.839844-3.101562.382813c-17.519531 2.191406-34.058594 10.273437-46.527344 22.761719l-33.609375 33.605468c-1.671875 1.664063-3.984375 2.625-6.34375 2.625-4.945312 0-8.96875-4.023437-8.96875-8.96875v-1.589843c0-1.882813.574219-3.679688 1.671875-5.21875l33.464844-46.839844c3.183593-4.46875 4.863281-9.726563 4.863281-15.207031 0-14.429688-11.742188-26.175782-26.175781-26.175782h-.992188c-4.542969 0-9.039062 1.191407-12.992187 3.449219l-48.023438 27.4375c-1.273437.730469-2.710937 1.113281-4.183594 1.113281h-3.191406c-4.65625 0-8.441406-3.785156-8.441406-8.441406 0-2.46875 1.070312-4.804687 2.945312-6.40625l29.175782-25.015625c15.109375-12.945312 24.789062-30.945312 27.253906-50.6875 2.113281-16.785156 16.449219-29.449219 33.367188-29.449219 16.503906 0 30.457031 11.816407 33.167968 28.097657l.347656 2.054687c1.496094 8.960938 5.679688 17.078125 12.09375 23.503906 6.417969 6.425782 14.535157 10.601563 23.503907 12.097657l2.074219.34375c16.253906 2.710937 28.070312 16.65625 28.070312 33.160156.007812 16.917969-12.65625 31.261719-29.449219 33.367187zm0 0"></path></svg>