<svg id="Group_630" data-name="Group 630" xmlns="http://www.w3.org/2000/svg" viewBox="0 0 157.516 173.741"><defs><style>.cls-braces1,.cls-braces2{fill:#fff}.cls-braces2{fill-rule:evenodd}</style></defs><path id="Path_256" data-name="Path 256" class="cls-braces1" d="M-3343.285 1612.919a3.151 3.151 0 0 0 3.21-3.1 3.169 3.169 0 0 0-2.992-3.325 73.6 73.6 0 0 1-8.118-1.012c-9.885-1.578-20.737-3.31-27.177 6.054a28.62 28.62 0 0 0-2.833 5.253c-3.194 7.7-3.561 17.327-1.417 26.252 2.156 8.974 6.865 17.335 13.811 22.46a27.123 27.123 0 0 0 5.077 2.966 3.068 3.068 0 0 0 4.075-1.7 3.261 3.261 0 0 0-1.642-4.22 20.82 20.82 0 0 1-3.909-2.286c-5.673-4.185-9.559-11.178-11.379-18.756-1.832-7.627-1.558-15.76 1.1-22.17v-.013a22.055 22.055 0 0 1 2.181-4.055c4.208-6.119 13.1-4.7 21.192-3.409a74.983 74.983 0 0 0 8.821 1.061z" transform="translate(3497.577 -1545.34)"/><path id="Path_257" data-name="Path 257" class="cls-braces1" d="M-3377.3 2731.622a3.2 3.2 0 0 0-2.676-3.6 3.127 3.127 0 0 0-3.479 2.772c-.992 7.823-.342 18.528 1.5 28.783 1.781 9.938 4.7 19.568 8.349 25.9a12.869 12.869 0 0 0 4.692 4.978 7.43 7.43 0 0 0 5.151.885 7.972 7.972 0 0 0 4.376-2.592 12.851 12.851 0 0 0 2.867-6.115c.424-2.14.47-8.388.515-14.568.035-4.722.069-9.4.275-11.936.264-3.24.683-5.97 1.563-7.722a2.867 2.867 0 0 1 2.775-1.751 3.159 3.159 0 0 0 3.114-3.2 3.161 3.161 0 0 0-3.089-3.225 8.571 8.571 0 0 0-8.322 5.2c-1.334 2.658-1.918 6.162-2.244 10.165-.2 2.481-.239 7.439-.276 12.44-.042 5.846-.086 11.757-.393 13.308a6.382 6.382 0 0 1-1.335 3.017 1.923 1.923 0 0 1-1 .652 1.546 1.546 0 0 1-1.041-.23 6.764 6.764 0 0 1-2.308-2.609c-3.26-5.661-5.912-14.512-7.57-23.762-1.73-9.652-2.356-19.625-1.444-26.79z" transform="translate(3505.788 -2617.737)"/><path id="Path_258" data-name="Path 258" class="cls-braces1" d="M-2521.021 1621.743a3.171 3.171 0 0 0-2.992 3.326 3.151 3.151 0 0 0 3.211 3.1c2.476-.094 5.013-.405 7.592-.72h.012c7.663-.937 15.776-1.928 16.471 3.5 1.03 8.032 1.747 16.951.212 25.16-1.47 7.865-5.062 15.161-12.6 20.457a3.283 3.283 0 0 0-.827 4.459 3.034 3.034 0 0 0 4.305.856c9.135-6.419 13.471-15.166 15.227-24.563 1.692-9.054.936-18.624-.163-27.2-1.5-11.742-12.741-10.369-23.355-9.072-2.531.314-5.023.618-7.093.697z" transform="translate(2608.973 -1560.589)"/><path id="Path_259" data-name="Path 259" class="cls-braces1" d="M-2315.821 2704.955a3.183 3.183 0 0 0-2.895-3.426 3.148 3.148 0 0 0-3.309 3c-.465 7-2.445 18.195-4.95 28.527-2.236 9.228-4.85 17.651-7.1 21.555a7.469 7.469 0 0 1-2.439 2.538 5.34 5.34 0 0 1-2.782.92 3.171 3.171 0 0 0-3.114 3.225 3.171 3.171 0 0 0 3.114 3.225 11.447 11.447 0 0 0 6.042-1.9 13.825 13.825 0 0 0 4.507-4.705c2.591-4.5 5.444-13.551 7.8-23.292 2.587-10.66 4.635-22.29 5.126-29.667z" transform="translate(2427.357 -2592.476)"/><path id="Path_260" data-name="Path 260" class="cls-braces1" d="M-1849.249 1628.176a3.151 3.151 0 0 0 3.211-3.1 3.17 3.17 0 0 0-2.992-3.325c-2.069-.079-4.561-.384-7.094-.693-10.615-1.3-21.852-2.672-23.355 9.07-1.1 8.576-1.855 18.146-.163 27.2 1.757 9.4 6.093 18.144 15.227 24.563a3.035 3.035 0 0 0 4.305-.856 3.283 3.283 0 0 0-.827-4.459c-7.537-5.3-11.13-12.592-12.6-20.457-1.534-8.209-.817-17.128.212-25.16.7-5.432 8.809-4.441 16.471-3.5h.013c2.579.313 5.117.623 7.592.717z" transform="translate(1937.201 -1560.598)"/><path id="Path_261" data-name="Path 261" class="cls-braces1" d="M-1874.66 2704.526a3.148 3.148 0 0 0-3.308-3 3.183 3.183 0 0 0-2.895 3.426c.49 7.377 2.539 19.007 5.12 29.661 2.361 9.741 5.214 18.8 7.8 23.292a13.833 13.833 0 0 0 4.507 4.705 11.449 11.449 0 0 0 6.041 1.9 3.171 3.171 0 0 0 3.114-3.225 3.171 3.171 0 0 0-3.114-3.225 5.339 5.339 0 0 1-2.782-.92 7.48 7.48 0 0 1-2.44-2.538c-2.25-3.9-4.863-12.327-7.1-21.555-2.497-10.326-4.478-21.516-4.943-28.521z" transform="translate(1945.451 -2592.476)"/><path id="Path_262" data-name="Path 262" class="cls-braces1" d="M-1239.157 1621.743a3.17 3.17 0 0 0-2.992 3.326 3.151 3.151 0 0 0 3.211 3.1c2.476-.094 5.013-.405 7.592-.72h.013c7.663-.937 15.776-1.928 16.471 3.5 1.029 8.032 1.746 16.951.212 25.16-1.47 7.865-5.062 15.161-12.6 20.457a3.283 3.283 0 0 0-.827 4.459 3.035 3.035 0 0 0 4.305.856c9.135-6.419 13.471-15.166 15.227-24.563 1.692-9.054.935-18.624-.163-27.2-1.5-11.742-12.741-10.369-23.355-9.072-2.537.314-5.026.618-7.094.697z" transform="translate(1270.543 -1560.589)"/><path id="Path_263" data-name="Path 263" class="cls-braces1" d="M-1033.961 2704.955a3.183 3.183 0 0 0-2.894-3.426 3.147 3.147 0 0 0-3.308 3c-.465 7-2.446 18.2-4.95 28.528-2.237 9.228-4.849 17.65-7.1 21.555a7.472 7.472 0 0 1-2.439 2.538 5.34 5.34 0 0 1-2.782.92 3.171 3.171 0 0 0-3.114 3.225 3.171 3.171 0 0 0 3.114 3.225 11.45 11.45 0 0 0 6.042-1.9 13.831 13.831 0 0 0 4.507-4.705c2.591-4.5 5.444-13.551 7.805-23.292 2.58-10.661 4.629-22.291 5.119-29.668z" transform="translate(1088.93 -2592.476)"/><path id="Path_264" data-name="Path 264" class="cls-braces1" d="M-2176.086 1945.13h-23.05a5.78 5.78 0 0 0-4.165 1.791 6.2 6.2 0 0 0-1.73 4.313v16.975a6.2 6.2 0 0 0 1.73 4.313 5.779 5.779 0 0 0 4.165 1.791h23.05a5.77 5.77 0 0 0 4.153-1.791l.011-.012a6.188 6.188 0 0 0 1.729-4.3v-16.975a6.187 6.187 0 0 0-1.729-4.3l-.011-.012a5.77 5.77 0 0 0-4.153-1.793zm-22.717 6.45h22.382v16.284h-22.379z" transform="translate(2275.673 -1870.656)"/><path id="Path_265" data-name="Path 265" class="cls-braces1" d="M-3056.927 2193.83a3.171 3.171 0 0 0-3.114 3.225 3.172 3.172 0 0 0 3.114 3.225h37.621a3.171 3.171 0 0 0 3.114-3.225 3.171 3.171 0 0 0-3.114-3.225z" transform="translate(3159.403 -2107.989)"/><path id="Path_266" data-name="Path 266" class="cls-braces1" d="M-3366.791 1951.568a3.158 3.158 0 0 0 3.1-3.212 3.158 3.158 0 0 0-3.1-3.212h-11.525v-.013a5.781 5.781 0 0 0-4.165 1.791 6.2 6.2 0 0 0-1.729 4.313v16.975a6.2 6.2 0 0 0 1.729 4.313 5.78 5.78 0 0 0 4.165 1.791h11.525a3.171 3.171 0 0 0 3.114-3.225 3.171 3.171 0 0 0-3.114-3.225h-11.191v-16.3z" transform="translate(3521.193 -1870.656)"/><path id="Path_267" data-name="Path 267" class="cls-braces1" d="M-894.226 1945.13h-23.05a5.78 5.78 0 0 0-4.164 1.791 6.2 6.2 0 0 0-1.729 4.313v16.975a6.2 6.2 0 0 0 1.729 4.313 5.778 5.778 0 0 0 4.164 1.791h23.05a5.769 5.769 0 0 0 4.153-1.791l.012-.012a6.188 6.188 0 0 0 1.729-4.3v-16.975a6.188 6.188 0 0 0-1.729-4.3l-.012-.012a5.769 5.769 0 0 0-4.153-1.793zm-22.716 6.45h22.383v16.284h-22.383z" transform="translate(937.246 -1870.656)"/><path id="Path_268" data-name="Path 268" class="cls-braces1" d="M-1553.586 2193.83a3.171 3.171 0 0 0-3.114 3.225 3.171 3.171 0 0 0 3.114 3.225h27.957a3.171 3.171 0 0 0 3.114-3.225 3.171 3.171 0 0 0-3.114-3.225z" transform="translate(1599.386 -2107.989)"/><path id="Path_269" data-name="Path 269" class="cls-braces1" d="M-271.726 2193.83a3.171 3.171 0 0 0-3.114 3.225 3.172 3.172 0 0 0 3.114 3.225h13.978a3.171 3.171 0 0 0 3.114-3.225 3.171 3.171 0 0 0-3.114-3.225z" transform="translate(274.938 -2107.989)"/><path id="Path_270" data-name="Path 270" class="cls-braces1" d="M-567.389 1628.176a3.151 3.151 0 0 0 3.211-3.1 3.17 3.17 0 0 0-2.992-3.325c-2.069-.079-4.561-.384-7.093-.693-10.615-1.3-21.852-2.672-23.356 9.07-1.1 8.576-1.855 18.146-.163 27.2 1.756 9.4 6.092 18.144 15.227 24.563a3.035 3.035 0 0 0 4.305-.856 3.283 3.283 0 0 0-.827-4.459c-7.537-5.3-11.13-12.592-12.6-20.457-1.534-8.209-.817-17.128.212-25.16.7-5.432 8.808-4.441 16.471-3.5h.012c2.582.313 5.118.623 7.593.717z" transform="translate(598.774 -1560.598)"/><path id="Path_271" data-name="Path 271" class="cls-braces1" d="M-592.81 2704.526a3.148 3.148 0 0 0-3.308-3 3.183 3.183 0 0 0-2.894 3.426c.49 7.377 2.538 19.007 5.121 29.662 2.361 9.741 5.214 18.8 7.805 23.292a13.83 13.83 0 0 0 4.507 4.705 11.448 11.448 0 0 0 6.042 1.9 3.171 3.171 0 0 0 3.114-3.225 3.171 3.171 0 0 0-3.114-3.225 5.341 5.341 0 0 1-2.782-.92 7.478 7.478 0 0 1-2.439-2.538c-2.251-3.9-4.863-12.327-7.1-21.555-2.506-10.326-4.487-21.518-4.952-28.522z" transform="translate(607.034 -2592.476)"/><path id="Path_272" data-name="Path 272" class="cls-braces2" d="m-2825.426 857.4-2.168 13.209-12.606 2.091 12.753 2.246 2.021 13.056 2.169-13.209 12.6-2.092-12.753-2.246z" transform="translate(2944.161 -832.641)"/><path id="Path_273" data-name="Path 273" class="cls-braces1" d="m-2860.564 823.583-1.982 12.069-11.5 1.91a1.6 1.6 0 0 0-1.289 1.839 1.581 1.581 0 0 0 1.277 1.333l11.653 2.054 1.844 11.915a1.559 1.559 0 0 0 1.775 1.335 1.58 1.58 0 0 0 1.287-1.323l1.983-12.069 11.5-1.91a1.6 1.6 0 0 0 1.289-1.839 1.582 1.582 0 0 0-1.277-1.333l-11.653-2.054-1.843-11.91a1.559 1.559 0 0 0-1.775-1.335 1.583 1.583 0 0 0-1.289 1.318zm.9 13.738.592-3.606.521 3.359a1.586 1.586 0 0 0 1.289 1.416l3.482.614-3.243.538a1.578 1.578 0 0 0-1.368 1.335l-.592 3.607-.52-3.359a1.587 1.587 0 0 0-1.289-1.416l-3.482-.613 3.243-.539a1.577 1.577 0 0 0 1.362-1.335z" transform="translate(2977.769 -799.089)"/><path id="Path_274" data-name="Path 274" class="cls-braces2" d="m-1035.046 350.85-2.168 13.209-12.606 2.093 12.754 2.245 2.02 13.056 2.168-13.209 12.605-2.092-12.753-2.246z" transform="translate(1074.774 -349.243)"/><path id="Path_275" data-name="Path 275" class="cls-braces1" d="m-1070.185 317.034-1.982 12.069-11.5 1.91a1.6 1.6 0 0 0-1.289 1.839 1.581 1.581 0 0 0 1.277 1.333l11.653 2.054 1.844 11.915a1.56 1.56 0 0 0 1.775 1.335 1.58 1.58 0 0 0 1.287-1.323l1.983-12.069 11.5-1.91a1.6 1.6 0 0 0 1.289-1.839 1.581 1.581 0 0 0-1.277-1.333l-11.653-2.054-1.844-11.914a1.56 1.56 0 0 0-1.775-1.335 1.582 1.582 0 0 0-1.288 1.322zm.9 13.738.592-3.606.52 3.359a1.587 1.587 0 0 0 1.289 1.416l3.482.613-3.243.538a1.578 1.578 0 0 0-1.368 1.335l-.592 3.607-.52-3.359a1.587 1.587 0 0 0-1.289-1.416l-3.482-.613 3.244-.539a1.578 1.578 0 0 0 1.363-1.335z" transform="translate(1108.382 -315.691)"/></svg>