<svg xmlns="http://www.w3.org/2000/svg" viewBox="0 0 127.01 134.709"><defs><style>.cls-hygiene1,.cls-hygiene2{fill:#fff}.cls-hygiene2{fill-rule:evenodd}</style></defs><g id="Group_516" data-name="Group 516" transform="translate(-496.892 -1866.811)"><path id="Path_342" data-name="Path 342" class="cls-hygiene1" d="M9283.64 6610.851v-2.809a2.535 2.535 0 0 1 2.535-2.534h77.625l-3.848-13.613a2.524 2.524 0 0 1 2.43-3.205l45.542-.118a2.485 2.485 0 0 1 .8.069 2.53 2.53 0 0 1 1.841 3.067l-4.979 19.628a2.533 2.533 0 0 1-2.486 2.05h-116.925a2.533 2.533 0 0 1-2.535-2.535zm86.016-2.532h31.485l3.726-14.694-39.143.1 3.854 13.634a2.53 2.53 0 0 1 .077.959z" transform="translate(-8786.748 -4626.502)"/><path id="Path_343" data-name="Path 343" class="cls-hygiene1" d="M11535.242 6038.026a2.531 2.531 0 0 1-2.712 4.275 20.016 20.016 0 0 1-3.96-3.208 12.262 12.262 0 0 1-2.81-4.715 9.892 9.892 0 0 1-.472-2.957 8.021 8.021 0 0 1 1.6-4.879 8.477 8.477 0 0 1 4.321-2.975 11.507 11.507 0 0 1 3.439-.5h18.014a6.515 6.515 0 0 0 2.451-.506 1.851 1.851 0 0 0 .627-.41.2.2 0 0 0 .025-.111 1.933 1.933 0 0 0-.211-.751 3.249 3.249 0 0 1-.306-1.633 2.674 2.674 0 0 1 1.872-2.426 3.691 3.691 0 0 1 1.583-.2 8.75 8.75 0 0 1 2.334.607 13.667 13.667 0 0 1 6.29 5.615 12.668 12.668 0 0 1 1.705 8.133 11.712 11.712 0 0 1-3.463 6.967 23.53 23.53 0 0 1-5.937 3.993 2.528 2.528 0 0 1-2.316-4.493 19.207 19.207 0 0 0 4.691-3.081 6.862 6.862 0 0 0 2.019-4.078 7.625 7.625 0 0 0-1.052-4.888 8.7 8.7 0 0 0-2.278-2.558 5.145 5.145 0 0 1-1.1 2.158v.01a6.778 6.778 0 0 1-2.407 1.756 12.009 12.009 0 0 1-4.53.96h-18.014a6.507 6.507 0 0 0-1.935.265 3.5 3.5 0 0 0-1.79 1.174 3.041 3.041 0 0 0-.565 1.851 4.851 4.851 0 0 0 .234 1.452 7.3 7.3 0 0 0 1.68 2.776 15.093 15.093 0 0 0 2.973 2.377z" transform="translate(-10947.914 -4075.477)"/><path id="Path_344" data-name="Path 344" class="cls-hygiene1" d="M9330.27 4164.045a2.525 2.525 0 1 1-.178 5.047 89.787 89.787 0 0 1-10.123-1.183c-9.713-1.5-20.377-3.14-25.652 4.266a25.516 25.516 0 0 0-2.646 4.749v.01c-3.18 7.405-3.516 16.773-1.332 25.544 2.172 8.731 6.828 16.8 13.639 21.652a25.393 25.393 0 0 0 4.742 2.677 2.527 2.527 0 0 1-1.98 4.651 30.567 30.567 0 0 1-5.691-3.211c-7.846-5.588-13.172-14.733-15.617-24.561-2.436-9.79-2.025-20.33 1.59-28.751a30.751 30.751 0 0 1 3.178-5.69c7.092-9.954 19.354-8.065 30.52-6.344a88.38 88.38 0 0 0 9.55 1.144z" transform="translate(-8786.993 -2286.604)"/><path id="Path_345" data-name="Path 345" class="cls-hygiene1" d="M9551.319 5767.341a2.525 2.525 0 0 1 5.008.653 84.435 84.435 0 0 0-.054 17.738h.011a135.325 135.325 0 0 0 3.477 20.632 2.53 2.53 0 1 1-4.908 1.228 140.642 140.642 0 0 1-3.615-21.425h.01a89.358 89.358 0 0 1 .071-18.826zm11.288 60.624a2.525 2.525 0 0 1 4.335-2.592 8.718 8.718 0 0 0 3.094 3.324 2.894 2.894 0 0 0 1.925.367 3.285 3.285 0 0 0 1.742-1.057 8.114 8.114 0 0 0 1.817-3.9 2.525 2.525 0 0 1 4.947 1.009 13.143 13.143 0 0 1-3.062 6.337 8.279 8.279 0 0 1-4.494 2.581 7.839 7.839 0 0 1-5.269-.882 13.614 13.614 0 0 1-5.035-5.187zm18.454-21.069a2.524 2.524 0 0 1-5.047-.04c.021-2.374.043-4.671.09-6.654.047-2.128.113-3.913.212-5.095.369-4.361 1.019-8.159 2.489-10.987a8.988 8.988 0 0 1 8.7-5.254 2.523 2.523 0 1 1-.02 5.046 4.331 4.331 0 0 0-4.187 2.544c-1.1 2.116-1.616 5.307-1.934 9.067-.107 1.265-.172 2.913-.214 4.777-.05 2.012-.07 4.273-.088 6.6z" transform="translate(-9044.308 -3832.646)"/><path id="Path_346" data-name="Path 346" class="cls-hygiene1" d="M10505.411 4169.384a2.525 2.525 0 0 1-.18-5.047 88.25 88.25 0 0 0 9.55-1.143c9.836-1.515 20.525-3.162 27.887 3.389a2.53 2.53 0 0 1-3.365 3.78c-5.578-4.964-15.053-3.5-23.77-2.162a89.745 89.745 0 0 1-10.122 1.183zm40.854 17.218a2.53 2.53 0 1 1 5.025-.594 51.248 51.248 0 0 1-4.765 27.8c-3.86 7.925-9.861 14.551-17.765 17.944a2.527 2.527 0 0 1-1.978-4.651c6.688-2.872 11.826-8.607 15.191-15.51a46.067 46.067 0 0 0 4.293-24.991z" transform="translate(-9962.133 -2286.895)"/><path id="Path_347" data-name="Path 347" class="cls-hygiene1" d="M10536.52 5767.994a2.524 2.524 0 1 1 5.006-.653c.207 1.57.352 3.232.436 4.965s.113 3.576.084 5.506a2.524 2.524 0 0 1-5.047-.06c.027-1.779 0-3.523-.084-5.209a56.636 56.636 0 0 0-.395-4.549zm-10.615 57.379a2.525 2.525 0 0 1 4.334 2.592 13.6 13.6 0 0 1-5.033 5.184 7.842 7.842 0 0 1-5.27.882 8.267 8.267 0 0 1-4.494-2.581 13.132 13.132 0 0 1-3.064-6.337 2.525 2.525 0 1 1 4.947-1.009 8.115 8.115 0 0 0 1.818 3.9 3.282 3.282 0 0 0 1.742 1.057 2.89 2.89 0 0 0 1.924-.367 8.721 8.721 0 0 0 3.091-3.321zm-9.074-18.517a2.524 2.524 0 1 1-5.047.04 500.21 500.21 0 0 0-.086-6.6c-.043-1.864-.109-3.513-.217-4.777-.316-3.761-.832-6.951-1.934-9.067a4.33 4.33 0 0 0-4.186-2.544 2.523 2.523 0 1 1-.02-5.046 8.991 8.991 0 0 1 8.7 5.254c1.469 2.828 2.119 6.626 2.486 10.987.1 1.182.168 2.966.217 5.095.043 1.987.069 4.283.086 6.657z" transform="translate(-9962.163 -3832.646)"/><path id="Path_348" data-name="Path 348" class="cls-hygiene2" d="m9737.064 4693.561 2.292 13.472 13.316 2.133-13.473 2.291-2.136 13.316-2.289-13.473-13.316-2.134 13.474-2.29z" transform="translate(-9208.849 -2799.538)"/><path id="Path_349" data-name="Path 349" class="cls-hygiene1" d="m9704.375 4659.455 2.141 12.577 12.418 1.99a1.262 1.262 0 0 1 .011 2.492l-12.577 2.14-1.99 12.419a1.262 1.262 0 0 1-2.492.01l-2.14-12.577-12.42-1.99a1.262 1.262 0 0 1-.011-2.492l12.578-2.139 1.99-12.419a1.263 1.263 0 0 1 2.492-.01zm-.2 13.888-1.008-5.928-.915 5.7a1.262 1.262 0 0 1-1.048 1.113l-5.929 1.008 5.7.914a1.263 1.263 0 0 1 1.112 1.048l1.009 5.929.913-5.7a1.264 1.264 0 0 1 1.05-1.112l5.928-1.009-5.7-.913a1.264 1.264 0 0 1-1.113-1.05z" transform="translate(-9174.913 -2765.64)"/><path id="Path_350" data-name="Path 350" class="cls-hygiene2" d="m11603.83 3970.81 2.982 17.548 17.34 2.78-17.545 2.984-2.777 17.345-2.984-17.549-17.346-2.78 17.547-2.983z" transform="translate(-11004.036 -2102.737)"/><path id="Path_351" data-name="Path 351" class="cls-hygiene1" d="m11571.187 3936.706 2.833 16.653 16.448 2.636a1.263 1.263 0 0 1 .01 2.492l-16.653 2.833-2.637 16.448a1.262 1.262 0 0 1-2.491.01l-2.832-16.653-16.449-2.637a1.262 1.262 0 0 1-.011-2.492l16.654-2.833 2.635-16.448a1.263 1.263 0 0 1 2.493-.01zm.491 17.964-1.7-10.005-1.56 9.728a1.263 1.263 0 0 1-1.049 1.112l-10 1.7 9.727 1.56a1.267 1.267 0 0 1 1.114 1.049l1.7 10 1.56-9.728a1.263 1.263 0 0 1 1.049-1.113l10-1.7-9.728-1.559a1.267 1.267 0 0 1-1.113-1.044z" transform="translate(-10970.146 -2068.84)"/></g></svg>