<svg version="1.0" xmlns="http://www.w3.org/2000/svg" width="110.667" height="98.667" viewBox="0 0 83 74"><g fill="#fff"><path d="M20.4 1c-3.2 1.3-7.3 6.7-8 10.8-.9 4.8.8 14.7 4.7 26.9 2.1 6.5 3.4 13.1 3.9 19.7.9 11.3 2.7 14.9 7.7 15.4 4.6.5 7.8-4 9.3-13 1.6-9.2 2.6-11.8 4.4-11.8 2.1 0 3.2 2.5 5.2 11.1 2.7 12.1 5.1 15 11 13.5 3.4-.9 5-5.2 5.9-16.1.4-5.4 2.1-13.8 4.2-21 4.4-14.8 5.2-23.6 2.6-28.4C68.8 3.4 65.1.9 59.6.3c-3.9-.5-5.7 0-10.9 2.6l-6.3 3.2L36.6 3C30.7-.1 24.8-.8 20.4 1zm14.1 5c7 3.7 9.4 3.7 15.1.4C60.9-.2 71 6.3 69.3 19c-.3 2.5-2.1 9.7-4 16-2.1 7.1-3.7 15.5-4.3 21.7-1.2 13.3-2.7 16.4-6.4 12.8-1.6-1.6-2.9-5.8-4.2-13-2.2-13-11.7-15.5-14.2-3.8-.6 2.6-1.6 7.1-2.2 10-.6 2.8-2.1 6-3.2 7-1.9 1.7-2 1.7-3.8-.4-1.2-1.6-1.9-4.9-2.5-11.5-.4-6.1-2-13.6-4.6-22.2-4.9-16.2-5.2-23.9-1.4-28.5 2.4-2.7 4.2-3.6 8.6-4 1 0 4.3 1.2 7.4 2.9z"/><path d="M57.7 8.8c-1.3 1.5-1.3 1.9.2 3.3s1.7 1.4 3.2-.2c1.5-1.5 1.5-1.8-.1-3.2-1.7-1.4-2-1.4-3.3.1zM32.3 22.6c-.3.8-.1 2 .5 2.6 1.6 1.6 4.2.2 4.2-2.2 0-2.4-3.8-2.8-4.7-.4zm16.1-.1c-.4.9-.2 2.1.4 2.7 1.5 1.5 4.4.1 4-1.9-.4-2.3-3.6-2.9-4.4-.8zM34 29.9c0 4.2 5.5 7.6 10.6 6.6 3.3-.6 6.4-3.6 6.4-6.2 0-2-2.4-1.5-3.8.7-.8 1.3-2.3 2-4.2 2-1.8 0-3.7-.8-4.7-2-1.8-2.1-4.3-2.7-4.3-1.1zm-27.6-2c-.4 1.3-2.1 2.9-3.8 3.6l-3.1 1.3 2.8 1.1c1.6.6 3.1 2 3.4 3.1.3 1.1.9 2 1.3 2s1-.9 1.3-2c.3-1.1 1.8-2.5 3.4-3.1l2.8-1.1-2.7-1c-1.5-.5-3.1-2.1-3.7-3.6l-1-2.7-.7 2.4zm67.1 17.3c-.6 1.3-2.3 2.9-3.9 3.7l-2.9 1.4 3 1.2c1.8.8 3.5 2.5 4.1 4.2l1 2.8 1.1-2.8c.6-1.6 2.5-3.4 4.3-4.2l3.3-1.4-3.3-1.1c-2-.8-3.4-2.1-3.8-3.6-.8-3-1.6-3-2.9-.2zm-61.6 1.7c-1.4 1.5-1.4 1.7.2 3.2 1.5 1.5 1.8 1.5 3.2-.1 1.4-1.7 1.4-2-.1-3.3-1.5-1.3-1.9-1.3-3.3.2z"/></g></svg>