<svg xmlns="http://www.w3.org/2000/svg" viewBox="0 0 130.203 127.547">
	<defs>
		<style>
.cls-veneers1,.cls-veneers2{
fill:#fff
}
.cls-veneers2{
fill-rule:evenodd
}
		</style>
	</defs>
	<g id="Group_518" data-name="Group 518" transform="translate(-481.999 -2350.493)">
		<path id="Path_323" data-name="Path 323" class="cls-veneers1" d="M9590.58 17673.523a2.564 2.564 0 1 1-.181-5.125 50.818 50.818 0 0 0 5.3-.643c6.675-1.027 14-2.156 18.44 4.07a18.506 18.506 0 0 1 1.923 3.445 27.44 27.44 0 0 1 .961 17.063c-1.451 5.83-4.628 11.27-9.32 14.613a18.58 18.58 0 0 1-3.449 1.945 2.567 2.567 0 1 1-2.011-4.725 13.7 13.7 0 0 0 2.483-1.4c3.64-2.6 6.138-6.941 7.312-11.66a22.276 22.276 0 0 0-.7-13.8v-.01a13.345 13.345 0 0 0-1.388-2.486c-2.591-3.641-8.3-2.762-13.493-1.961a52.53 52.53 0 0 1-5.877.674z" transform="translate(-9081.044 -15263.161)"></path>
		<path id="Path_324" data-name="Path 324" class="cls-veneers1" d="M9607.152 18567.576a2.565 2.565 0 1 1 5.087-.662c.662 5.037.231 11.922-.991 18.508-1.186 6.389-3.135 12.59-5.576 16.682a8.848 8.848 0 0 1-3.3 3.365 5.564 5.564 0 0 1-3.742.617 5.837 5.837 0 0 1-3.172-1.809 8.6 8.6 0 0 1-2.021-4.146 79.936 79.936 0 0 1-.351-9.387c-.021-2.988-.045-5.953-.182-7.57a13.692 13.692 0 0 0-.974-4.727 1.423 1.423 0 0 0-1.371-.838 2.564 2.564 0 0 1-.02-5.129 6.148 6.148 0 0 1 5.954 3.6 18.026 18.026 0 0 1 1.538 6.676c.134 1.578.158 4.764.182 7.971.028 3.7.057 7.438.249 8.381a3.482 3.482 0 0 0 .754 1.672.761.761 0 0 0 .377.262.557.557 0 0 0 .345-.1 3.832 3.832 0 0 0 1.325-1.471c2.119-3.553 3.849-9.133 4.934-14.975 1.137-6.107 1.548-12.408.955-16.92z" transform="translate(-9081.107 -16128.145)"></path>
		<path id="Path_325" data-name="Path 325" class="cls-veneers1" d="M8933.382 17668.357a2.565 2.565 0 1 1-.181 5.127 51.231 51.231 0 0 1-5.884-.682c-5.2-.8-10.9-1.68-13.493 1.959a13.309 13.309 0 0 0-1.386 2.49v.008a22.27 22.27 0 0 0-.7 13.8c1.175 4.719 3.671 9.068 7.311 11.658a13.515 13.515 0 0 0 2.483 1.4 2.567 2.567 0 0 1-2.009 4.725 18.377 18.377 0 0 1-3.45-1.947c-4.691-3.338-7.871-8.779-9.322-14.611a27.476 27.476 0 0 1 .962-17.064 18.6 18.6 0 0 1 1.926-3.447c4.437-6.227 11.766-5.1 18.44-4.068a50.675 50.675 0 0 0 5.303.652z" transform="translate(-8423.847 -15263.122)"></path>
		<path id="Path_326" data-name="Path 326" class="cls-veneers1" d="M9055.575 18566.895a2.566 2.566 0 0 1 5.088.664c-.593 4.518-.184 10.813.95 16.92 1.084 5.842 2.813 11.422 4.934 14.975a3.9 3.9 0 0 0 1.325 1.477.6.6 0 0 0 .345.094.809.809 0 0 0 .375-.262 3.472 3.472 0 0 0 .755-1.674c.192-.941.223-4.68.25-8.381.023-3.209.048-6.395.182-7.973a18 18 0 0 1 1.538-6.676 6.154 6.154 0 0 1 5.955-3.594 2.563 2.563 0 1 1-.021 5.127 1.423 1.423 0 0 0-1.37.838 13.8 13.8 0 0 0-.976 4.729c-.136 1.617-.157 4.58-.18 7.568a79.437 79.437 0 0 1-.351 9.385 8.6 8.6 0 0 1-2.021 4.15 5.829 5.829 0 0 1-3.17 1.807 5.55 5.55 0 0 1-3.742-.619 8.8 8.8 0 0 1-3.3-3.359c-2.442-4.1-4.392-10.3-5.577-16.687-1.219-6.584-1.651-13.466-.989-18.509z" transform="translate(-8567.816 -16128.127)"></path>
		<path id="Path_327" data-name="Path 327" class="cls-veneers1" d="M10288.434 17680.908a2.569 2.569 0 0 1-.562 5.107 21.776 21.776 0 0 0-6.7-.051 2.308 2.308 0 0 0-1.99 2.023c-.672 5.074-1.143 10.711-.144 15.875a19.012 19.012 0 0 0 8.1 12.711 2.562 2.562 0 0 1-2.875 4.242 23.934 23.934 0 0 1-10.272-15.988c-1.13-5.842-.627-11.994.1-17.5.5-3.795 2.748-5.617 5.891-6.367a25.724 25.724 0 0 1 8.452-.052z" transform="translate(-9741.447 -15276.299)"></path>
		<path id="Path_328" data-name="Path 328" class="cls-veneers1" d="M10418.346 18546.211a2.569 2.569 0 1 1 5.127-.34 118.36 118.36 0 0 0 3.255 18.09c1.467 5.844 3.171 11.16 4.629 13.6a4.247 4.247 0 0 0 1.44 1.441 3.044 3.044 0 0 0 1.564.512 2.574 2.574 0 0 1 0 5.148 8.272 8.272 0 0 1-4.261-1.293 9.562 9.562 0 0 1-3.149-3.172c-1.738-2.918-3.641-8.738-5.21-14.992a123.251 123.251 0 0 1-3.395-18.994z" transform="translate(-9881.167 -16107.709)"></path>
		<path id="Path_329" data-name="Path 329" class="cls-veneers1" d="M10958 17686.156a2.568 2.568 0 1 1-.562-5.105 27.351 27.351 0 0 1 8.626-.02c3.233.717 5.556 2.529 6.067 6.4.732 5.512 1.234 11.666.1 17.5a23.943 23.943 0 0 1-10.272 15.988 2.563 2.563 0 1 1-2.875-4.244 19 19 0 0 0 8.1-12.709c1-5.166.53-10.8-.143-15.871a2.347 2.347 0 0 0-2.088-2.057 23.893 23.893 0 0 0-6.953.118z" transform="translate(-10398.396 -15276.403)"></path>
		<path id="Path_330" data-name="Path 330" class="cls-veneers1" d="M10800.448 18545.85a2.569 2.569 0 1 1 5.127.342 123.515 123.515 0 0 1-3.394 19c-1.569 6.252-3.474 12.074-5.211 14.99a9.535 9.535 0 0 1-3.149 3.172 8.281 8.281 0 0 1-4.26 1.291 2.574 2.574 0 0 1 0-5.148 3.085 3.085 0 0 0 1.565-.508 4.311 4.311 0 0 0 1.438-1.441c1.457-2.443 3.163-7.762 4.629-13.6a118.321 118.321 0 0 0 3.255-18.098z" transform="translate(-10236.368 -16107.689)"></path>
		<path id="Path_331" data-name="Path 331" class="cls-veneers1" d="M11328.125 17680.6a2.565 2.565 0 0 1-.181 5.127c-1.668-.059-3.348-.258-5.054-.459h-.011c-4.813-.568-9.909-1.17-10.3 1.785-.674 5.076-1.145 10.711-.145 15.875a19.017 19.017 0 0 0 8.1 12.713 2.563 2.563 0 0 1-2.876 4.242 23.954 23.954 0 0 1-10.271-15.988c-1.13-5.842-.627-11.992.1-17.506 1.062-7.988 8.738-7.086 15.993-6.229 1.671.195 3.312.389 4.645.44z" transform="translate(-10737.144 -15275.364)"></path>
		<path id="Path_332" data-name="Path 332" class="cls-veneers1" d="M11451.747 18546.211a2.569 2.569 0 1 1 5.127-.34 118.322 118.322 0 0 0 3.255 18.09c1.465 5.84 3.171 11.16 4.628 13.6a4.25 4.25 0 0 0 1.438 1.441 3.05 3.05 0 0 0 1.565.512 2.574 2.574 0 0 1 0 5.148 8.274 8.274 0 0 1-4.26-1.293 9.547 9.547 0 0 1-3.147-3.172c-1.74-2.918-3.644-8.738-5.212-14.992a123.553 123.553 0 0 1-3.394-18.994z" transform="translate(-10876.872 -16107.709)"></path>
		<path id="Path_333" data-name="Path 333" class="cls-veneers1" d="M11823.252 17685.777a2.566 2.566 0 0 1-.182-5.129c1.333-.047 2.974-.242 4.641-.437 7.255-.859 14.934-1.766 15.994 6.23.73 5.512 1.232 11.66.1 17.5a23.953 23.953 0 0 1-10.271 15.988 2.563 2.563 0 1 1-2.876-4.242 19.005 19.005 0 0 0 8.1-12.711c1-5.168.53-10.8-.144-15.875-.392-2.957-5.489-2.355-10.3-1.785h-.012c-1.702.2-3.382.399-5.05.461z" transform="translate(-11232.271 -15275.413)"></path>
		<path id="Path_334" data-name="Path 334" class="cls-veneers1" d="M11833.761 18545.85a2.569 2.569 0 1 1 5.127.342 123.548 123.548 0 0 1-3.4 19c-1.568 6.252-3.472 12.074-5.211 14.99a9.511 9.511 0 0 1-3.147 3.172 8.284 8.284 0 0 1-4.26 1.291 2.574 2.574 0 0 1 0-5.148 3.094 3.094 0 0 0 1.566-.508 4.326 4.326 0 0 0 1.438-1.441c1.457-2.443 3.162-7.762 4.629-13.6a118.5 118.5 0 0 0 3.258-18.098z" transform="translate(-11231.985 -16107.689)"></path>
		<path id="Path_335" data-name="Path 335" class="cls-veneers1" d="M10307.164 16206.994a2.565 2.565 0 1 1-.182 5.127c-1.667-.061-3.346-.26-5.051-.459h-.011c-4.814-.568-9.911-1.17-10.3 1.787q-.088.665-.18 1.7c-.062.682-.1 1.256-.122 1.715l-.028.715-.015.715a2.563 2.563 0 1 1-5.126-.037c.01-.543.022-1.074.041-1.615.034-.76.076-1.408.122-1.936s.119-1.166.221-1.92c1.059-7.99 8.739-7.086 15.993-6.232 1.664.198 3.307.391 4.638.44zm-12.481 36.66a2.567 2.567 0 1 1 3.7-3.559 13.3 13.3 0 0 0 4.107 2.955 11.11 11.11 0 0 0 4.578.957 2.574 2.574 0 0 1 0 5.148 16.243 16.243 0 0 1-6.67-1.42 18.355 18.355 0 0 1-5.715-4.081z" transform="translate(-9753.797 -13855.516)"></path>
		<path id="Path_336" data-name="Path 336" class="cls-veneers1" d="M10792.067 16212.07a2.565 2.565 0 0 1-.18-5.127c1.332-.049 2.973-.242 4.641-.439 7.254-.857 14.934-1.764 15.993 6.227a45.343 45.343 0 0 1 .4 5.939 41.365 41.365 0 0 1-4.641 19.557c-3.194 5.789-7.96 9.912-14.1 10.725a16.477 16.477 0 0 1-2.193.15 2.572 2.572 0 1 1 0-5.145 11.986 11.986 0 0 0 1.529-.092c4.341-.576 7.825-3.7 10.26-8.111a36.166 36.166 0 0 0 4-17.084 40.269 40.269 0 0 0-.334-5.273c-.392-2.955-5.488-2.355-10.3-1.787h-.009c-1.718.201-3.397.398-5.066.46z" transform="translate(-10238.703 -13855.466)"></path>
		<path id="Path_337" data-name="Path 337" class="cls-veneers2" d="M10062.939 16725.3l1.4 8.236 8.142 1.3-8.237 1.4-1.3 8.141-1.4-8.234-8.139-1.307 8.236-1.4z" transform="translate(-9529.54 -14355.861)"></path>
		<path id="Path_338" data-name="Path 338" class="cls-veneers1" d="M10030.289 16691.2l1.245 7.328 7.229 1.156a1.283 1.283 0 0 1 .01 2.533l-7.326 1.248-1.158 7.229a1.282 1.282 0 0 1-2.531.01l-1.248-7.326-7.229-1.16a1.281 1.281 0 0 1-.01-2.529l7.326-1.248 1.158-7.23a1.284 1.284 0 0 1 2.533-.01zm-1.134 8.658l-.1-.57-.064.4a1.288 1.288 0 0 1-1.065 1.131l-.571.1.4.064a1.284 1.284 0 0 1 1.13 1.064l.1.572.063-.4a1.288 1.288 0 0 1 1.065-1.131l.573-.1-.4-.064a1.287 1.287 0 0 1-1.131-1.063z" transform="translate(-9495.625 -14321.98)"></path>
		<path id="Path_339" data-name="Path 339" class="cls-veneers1" d="M10820.6 17468.678a1.282 1.282 0 0 1 2.563.006l-.158 25.461a1.282 1.282 0 0 1-2.564-.01z" transform="translate(-10268.599 -15070.893)"></path>
		<path id="Path_340" data-name="Path 340" class="cls-veneers2" d="M10742.624 18023.938l4.232-2.738-4.279 9.227-4.279-9.227z" transform="translate(-10189.453 -15604.489)"></path>
		<path id="Path_341" data-name="Path 341" class="cls-veneers1" d="M10708.623 17988.449l3.54-2.293a1.284 1.284 0 0 1 1.864 1.613l-4.279 9.23a1.287 1.287 0 0 1-1.7.629 1.305 1.305 0 0 1-.63-.629l-4.278-9.227a1.284 1.284 0 0 1 1.9-1.592zm1.2 2.277l-.471.307a1.285 1.285 0 0 1-1.409.027l-.645-.41 1.28 2.76z" transform="translate(-10155.46 -15570.524)"></path>
	</g>
</svg>