<svg xmlns="http://www.w3.org/2000/svg" viewBox="0 0 512 512" style="enable-background:new 0 0 512 512" fill="#3695a7" xml:space="preserve"><path d="M479.999 202.503v-63.221c0-6.837-3.51-13.003-9.389-16.494L270.53 3.991a28.443 28.443 0 0 0-29.059 0L41.391 122.789c-5.879 3.491-9.389 9.657-9.389 16.494s3.509 13.003 9.389 16.495l56.075 33.294v57.988c0 10.878 5.811 21.086 15.164 26.639l127.554 75.736a30.96 30.96 0 0 0 31.634 0l127.553-75.736c9.354-5.553 15.164-15.76 15.164-26.639v-57.988l45.464-26.994v40.425c-11.639 4.128-20 15.243-20 28.28v73.5c0 5.523 4.477 10 10 10h40c5.523 0 10-4.477 10-10v-73.5c0-13.036-8.361-24.152-20-28.28zM246.001 329.628 122.84 256.502a11.028 11.028 0 0 1-5.374-9.441v-46.113l124.005 73.628a28.385 28.385 0 0 0 4.53 2.159v52.893zm148.535-82.568h-.001c0 3.855-2.059 7.473-5.375 9.441l-123.159 73.128v-52.894a28.471 28.471 0 0 0 4.53-2.159l124.005-73.628v46.112zm-134.217 10.319a8.456 8.456 0 0 1-8.638 0L52.785 139.283 251.681 21.189a8.456 8.456 0 0 1 8.638 0l198.897 118.095-198.897 118.095zM480 294.282h-20v-63.5c0-5.514 4.486-10 10-10s10 4.486 10 10v63.5z"/><path d="M256.001 107.235c-21.45 0-38.902 15.55-38.902 34.664S234.55 176.563 256 176.563c21.45 0 38.902-15.55 38.902-34.664s-17.451-34.664-38.901-34.664zM256 156.563c-10.245 0-18.901-6.715-18.901-14.664s8.656-14.664 18.901-14.664 18.901 6.715 18.901 14.664-8.656 14.664-18.901 14.664zM435.055 371.501H223.001c-5.523 0-10 4.477-10 10s4.477 10 10 10h33c31.399 0 56.944 25.545 56.944 56.944 0 24.017-19.539 43.556-43.556 43.556H99.066c10.735-11.385 17.335-26.71 17.335-43.556 0-22.546-9.748-42.859-25.25-56.944h43.183c5.523 0 10-4.477 10-10s-4.477-10-10-10H39.457c-.196 0-.366.01-.522.026-5.279.273-9.478 4.627-9.478 9.974 0 5.124 3.856 9.341 8.823 9.925.248.05.628.075 1.177.075 31.399 0 56.944 25.545 56.944 56.944 0 24.017-19.539 43.556-43.556 43.556-18.11 0-32.844-14.734-32.844-32.844 0-13.386 10.89-24.276 24.275-24.276 9.605 0 17.42 7.815 17.42 17.42 0 5.523 4.477 10 10 10s10-4.477 10-10c0-20.634-16.787-37.42-37.42-37.42-24.414 0-44.275 19.862-44.275 44.276C.002 488.294 23.707 512 52.845 512h395.598c35.045 0 63.556-28.511 63.556-63.556.001-42.426-34.517-76.943-76.944-76.943zM448.444 492H315.609c10.735-11.385 17.335-26.71 17.335-43.556 0-22.546-9.748-42.859-25.25-56.944h127.36c31.399 0 56.944 25.545 56.944 56.944C492 472.461 472.46 492 448.444 492z"/><path d="M186.071 374.431a10.076 10.076 0 0 0-7.07-2.93c-2.63 0-5.209 1.07-7.07 2.93-1.86 1.86-2.93 4.44-2.93 7.07s1.07 5.21 2.93 7.07 4.44 2.93 7.07 2.93 5.21-1.07 7.07-2.93 2.93-4.44 2.93-7.07-1.071-5.21-2.93-7.07z"/></svg>