<svg width="800" height="800" viewBox="0 0 24 24" fill="none" xmlns="http://www.w3.org/2000/svg">
	<path d="M12 8.25a.75.75 0 1 0 0 1.5.75.75 0 0 0 0-1.5Z" fill="#3695a7" />
	<path fill-rule="evenodd" clip-rule="evenodd" d="M12 3C8.602 3 6 5.586 6 8.813c0 1.807.84 3.69 1.91 5.271 1.077 1.59 2.455 2.978 3.674 3.79a.75.75 0 0 0 .832 0c1.219-.812 2.597-2.2 3.674-3.79C17.16 12.505 18 10.62 18 8.814 18 5.585 15.398 3 12 3ZM9.75 9a2.25 2.25 0 1 1 4.5 0 2.25 2.25 0 0 1-4.5 0Z" fill="#3695a7" />
	<path d="M6.93 16.6a.75.75 0 0 0-.36-1.456c-.954.236-1.789.544-2.403.927C3.59 16.43 3 16.988 3 17.778c0 .706.474 1.227.965 1.575.51.361 1.2.656 1.986.892C7.531 20.718 9.67 21 12 21c2.33 0 4.468-.282 6.049-.755.785-.236 1.476-.53 1.986-.892.491-.348.965-.87.965-1.575 0-.79-.59-1.348-1.167-1.707-.614-.383-1.449-.691-2.403-.927a.75.75 0 1 0-.36 1.456c.878.217 1.544.478 1.971.744.213.133.338.248.404.334a.347.347 0 0 1 .055.098v.005l-.003.01a.273.273 0 0 1-.034.063 1.188 1.188 0 0 1-.295.274c-.324.23-.842.468-1.55.68-1.405.42-3.392.692-5.618.692-2.226 0-4.213-.271-5.618-.692-.708-.212-1.226-.45-1.55-.68a1.187 1.187 0 0 1-.295-.274.272.272 0 0 1-.034-.064l-.003-.01v-.004l.005-.014a.348.348 0 0 1 .05-.084c.066-.085.191-.201.404-.334.427-.266 1.093-.527 1.971-.744Z" fill="#3695a7" />
</svg>
