<svg viewBox="0 0 128 128" xmlns="http://www.w3.org/2000/svg" fill="#3695a7"><path d="M100.375 51.313A36.375 36.375 0 1 0 64 87.688a36.416 36.416 0 0 0 36.375-36.375zm-69.25 0A32.875 32.875 0 1 1 64 84.188a32.912 32.912 0 0 1-32.875-32.875z"/><path d="m117.262 110.747-14.854-25.728a15.808 15.808 0 0 0 2.476-10.071 13.286 13.286 0 0 1 4.741-11.448 15.845 15.845 0 0 0 0-24.379 13.291 13.291 0 0 1-4.74-11.457A15.848 15.848 0 0 0 87.636 10.43 13.308 13.308 0 0 1 76.19 5.686a15.847 15.847 0 0 0-24.38 0 13.319 13.319 0 0 1-11.456 4.743 15.846 15.846 0 0 0-17.238 17.248 13.284 13.284 0 0 1-4.742 11.446 15.846 15.846 0 0 0 0 24.379 13.289 13.289 0 0 1 4.741 11.457 15.788 15.788 0 0 0 2.477 10.06l-14.854 25.728a1.763 1.763 0 0 0 1.475 2.625l15.709.362 8.168 13.423a1.763 1.763 0 0 0 3.011-.035L54.9 99.761a15.738 15.738 0 0 0 18.2 0l15.8 27.361a1.762 1.762 0 0 0 3.011.035l8.168-13.423 15.709-.362a1.763 1.763 0 0 0 1.474-2.625zm-79.716 12.068L30.415 111.1a1.754 1.754 0 0 0-1.455-.84l-13.714-.317 12.732-22.056a15.951 15.951 0 0 0 8.886 4.249 15.783 15.783 0 0 0 3.5.059 13.588 13.588 0 0 1 11.852 5.211zm18.01-27c-3.724-4.671-9.439-7.769-15.523-7.1a12.425 12.425 0 0 1-10.982-4.864 12.3 12.3 0 0 1-2.451-8.58 16.786 16.786 0 0 0-5.989-14.461 12.346 12.346 0 0 1 0-19A16.792 16.792 0 0 0 26.6 27.344a12.348 12.348 0 0 1 13.441-13.43A16.787 16.787 0 0 0 54.5 7.923a12.346 12.346 0 0 1 19 0 16.794 16.794 0 0 0 14.471 5.989A12.348 12.348 0 0 1 101.4 27.354a16.786 16.786 0 0 0 5.991 14.461 12.346 12.346 0 0 1 0 19 16.792 16.792 0 0 0-5.99 14.471 12.294 12.294 0 0 1-2.452 8.569 12.436 12.436 0 0 1-10.989 4.861c-6.177-.668-11.765 2.426-15.522 7.108a12.32 12.32 0 0 1-16.88-.008zm43.484 14.442a1.754 1.754 0 0 0-1.455.84l-7.131 11.718-14.67-25.409A13.512 13.512 0 0 1 87.646 92.2a15.92 15.92 0 0 0 12.376-4.309l12.732 22.053z"/><path d="M97.2 95.1a20.117 20.117 0 0 1-9.981 1.575 8.793 8.793 0 0 0-4.011.567 1.749 1.749 0 0 0-.876 2.5l6.748 11.688a1.747 1.747 0 0 0 1.5.875h.02a1.751 1.751 0 0 0 1.495-.84l3.427-5.632 6.593-.153a1.75 1.75 0 0 0 1.475-2.625l-4.173-7.229A1.752 1.752 0 0 0 97.2 95.1zm-2.72 7.259a1.755 1.755 0 0 0-1.455.84l-2.39 3.929-4.035-6.985c.1 0 .2.009.3.018a23.713 23.713 0 0 0 10.237-1.273l1.944 3.366zM44.792 97.243a8.529 8.529 0 0 0-4.024-.565A20.243 20.243 0 0 1 30.8 95.1a1.753 1.753 0 0 0-2.213.73l-4.173 7.229a1.75 1.75 0 0 0 1.475 2.625l6.593.153 3.427 5.632a1.762 1.762 0 0 0 3.011-.035l6.748-11.688a1.761 1.761 0 0 0-.876-2.503zm-7.427 9.886-2.39-3.929a1.755 1.755 0 0 0-1.455-.84l-4.6-.106 1.944-3.366a23.909 23.909 0 0 0 10.224 1.275c.106-.01.208-.016.31-.02zM82.032 70.186l8.762-25.851a1.761 1.761 0 0 0-1.862-2.3l-13.848 1.634-9.735-11.783a1.809 1.809 0 0 0-2.7 0l-9.733 11.783-13.848-1.634a1.761 1.761 0 0 0-1.862 2.3l8.762 25.851a1.749 1.749 0 0 0 1.657 1.189h32.75a1.749 1.749 0 0 0 1.657-1.189zM48.88 67.875l-7.47-22.039 12.043 1.421a1.745 1.745 0 0 0 1.554-.624L64 35.748l8.993 10.885a1.748 1.748 0 0 0 1.554.624l12.043-1.421-7.47 22.039z"/><path d="M78.854 52.1a1.746 1.746 0 0 0-1.565-.637l-5.6.66-6.343-7.678a1.81 1.81 0 0 0-2.7 0l-6.343 7.678-5.6-.66a1.75 1.75 0 0 0-1.862 2.3l2.859 8.423a1.75 1.75 0 0 0 1.657 1.189H74.64a1.75 1.75 0 0 0 1.66-1.189l2.854-8.422a1.748 1.748 0 0 0-.3-1.664zm-5.469 7.774h-18.77l-1.562-4.61 3.791.447a1.746 1.746 0 0 0 1.554-.624L64 48.309l5.6 6.779a1.746 1.746 0 0 0 1.554.624l3.791-.447z"/></svg>