<svg xmlns="http://www.w3.org/2000/svg" viewBox="0 0 511.998 511.998" fill="#3695a7" style="enable-background:new 0 0 511.998 511.998" xml:space="preserve"><path d="M330.438 247.091h-66.431c-2.804-11.614-11.961-20.77-23.574-23.575v-88.704a7.503 7.503 0 0 0-7.503-7.503 7.502 7.502 0 0 0-7.503 7.503v88.704c-14.023 3.386-24.474 16.03-24.474 31.078 0 17.631 14.346 31.975 31.977 31.975 15.047 0 27.692-10.45 31.077-24.473h66.431a7.503 7.503 0 1 0 0-15.005zm-97.507 24.473c-9.359 0-16.972-7.612-16.972-16.97 0-9.358 7.613-16.97 16.972-16.97 9.357 0 16.97 7.612 16.97 16.97-.001 9.357-7.613 16.97-16.97 16.97zM165.365 231.53h-44.058c-6.896 0-12.505 5.609-12.505 12.505v21.119c0 6.896 5.609 12.505 12.505 12.505h44.058c6.896 0 12.505-5.609 12.505-12.505v-21.119c0-6.896-5.609-12.505-12.505-12.505zm-2.501 31.124h-39.056v-16.118h39.056v16.118z"/><path d="M459.12 310.369a233.635 233.635 0 0 0 6.738-55.775c0-62.217-24.229-120.711-68.224-164.706-43.994-43.995-102.487-68.223-164.703-68.223-62.218 0-120.713 24.229-164.708 68.224C24.229 133.883 0 192.376 0 254.594 0 316.812 24.229 375.306 68.223 419.3c43.995 43.995 102.489 68.224 164.708 68.224h.007c16.38 0 32.744-1.712 48.631-5.088a7.501 7.501 0 0 0 5.779-8.899c-.86-4.054-4.848-6.638-8.898-5.779-14.865 3.159-30.177 4.76-45.513 4.76h-.007c-58.211 0-112.937-22.668-154.096-63.829-41.16-41.159-63.828-95.884-63.828-154.094S37.674 141.66 78.835 100.5c41.16-41.16 95.886-63.829 154.096-63.829 58.208 0 112.934 22.669 154.094 63.829 41.161 41.16 63.829 95.886 63.829 154.095 0 17.145-2.004 33.947-5.819 50.146a94.553 94.553 0 0 0-27.922-4.195c-2.332 0-4.643.088-6.933.254a182.787 182.787 0 0 0 5.914-46.206c0-16.124-2.099-32.125-6.236-47.557-1.072-4.003-5.19-6.374-9.19-5.303a7.503 7.503 0 0 0-5.304 9.191c3.155 11.769 4.999 23.903 5.539 36.166h-13.985a7.503 7.503 0 1 0 0 15.006h14.005a167.165 167.165 0 0 1-7.079 41.339c-41.108 10.403-71.618 47.705-71.618 92.004 0 .526.012 1.048.02 1.573-23.909 15.05-51.853 24.247-81.811 25.571v-14.002c0-4.144-3.358-7.503-7.503-7.503s-7.503 3.359-7.503 7.503v13.997c-40.719-1.797-77.719-18.137-105.923-43.949l9.845-9.844a7.504 7.504 0 0 0-10.609-10.612l-9.846 9.845c-27.074-29.583-43.726-68.845-44.105-111.924h12.116c4.145 0 7.503-3.359 7.503-7.503s-3.358-7.503-7.503-7.503H65.312c3.063-38.348 19.044-73.109 43.582-99.919l9.847 9.845a7.48 7.48 0 0 0 5.305 2.197 7.476 7.476 0 0 0 5.306-2.198 7.501 7.501 0 0 0-.001-10.61l-9.846-9.844c28.202-25.811 65.203-42.15 105.922-43.948v13.996c0 4.144 3.358 7.503 7.503 7.503s7.503-3.359 7.503-7.503V86.623c27.091 1.206 53.534 8.908 76.9 22.496a168.663 168.663 0 0 1 29.064 21.397l-9.887 9.889a7.501 7.501 0 0 0 5.306 12.807 7.476 7.476 0 0 0 5.306-2.198l9.882-9.884c7.763 8.482 14.684 17.746 20.584 27.673a7.503 7.503 0 0 0 12.899-7.667c-15.947-26.829-38.635-49.302-65.611-64.989-27.807-16.17-59.601-24.718-91.946-24.718-100.998 0-183.167 82.167-183.167 183.164s82.169 183.165 183.167 183.165c33.112 0 64.191-8.843 91.022-24.276a94.357 94.357 0 0 0 12.991 32.667 219.973 219.973 0 0 1-18.854 9.101 7.504 7.504 0 0 0 5.869 13.811 234.394 234.394 0 0 0 22.101-10.8c17.398 19.657 42.8 32.073 71.051 32.073 18.601 0 36.615-5.384 52.094-15.571a7.504 7.504 0 0 0-8.249-12.535c-13.023 8.569-28.185 13.1-43.845 13.1-44.046 0-79.881-35.838-79.881-79.889 0-44.051 35.834-79.888 79.881-79.888s79.883 35.838 79.883 79.888c0 14.022-3.683 27.813-10.65 39.88a7.503 7.503 0 0 0 12.995 7.503c8.282-14.347 12.66-30.731 12.66-47.383.002-37.247-21.572-69.546-52.878-85.07z"/><path d="M470.18 359.299a23.116 23.116 0 0 0-16.231-6.61c-6.31 0-12.212 2.486-16.62 7.002l-31.396 32.164-12.677-12.935c-4.405-4.495-10.297-6.971-16.59-6.971a23.094 23.094 0 0 0-16.261 6.643c-9.148 8.965-9.295 23.702-.329 32.851l25.63 26.151c5.301 5.411 12.684 8.514 20.256 8.514H405.987c7.574-.007 14.961-3.124 20.266-8.554l44.326-45.403c8.945-9.169 8.766-23.906-.399-32.852zm-10.342 22.371-44.322 45.4a13.44 13.44 0 0 1-9.545 4.033h-.011a13.433 13.433 0 0 1-9.538-4.011l-25.631-26.152c-3.174-3.239-3.122-8.457.117-11.633a8.175 8.175 0 0 1 5.756-2.352c2.228 0 4.314.876 5.873 2.468l18.046 18.413a7.503 7.503 0 0 0 5.358 2.251h.008a7.5 7.5 0 0 0 5.361-2.262l36.753-37.653a8.157 8.157 0 0 1 5.882-2.478c2.16 0 4.201.831 5.748 2.342 3.249 3.17 3.312 8.388.145 11.634z"/></svg>