<svg xmlns="http://www.w3.org/2000/svg" viewBox="0 0 97.564 131.284">
	<defs>
		<style>
            .cls-implantation1,.cls-implantation2{
                fill:#fff
            }
            .cls-implantation2{
            fill-rule:evenodd
            }
		</style>
	</defs>
	<g id="Group_435" data-name="Group 435" transform="translate(-.001)">
		<path id="Path_276" data-name="Path 276" class="cls-implantation1" d="M10227.81 534.617a2.484 2.484 0 0 1-.175 4.964 88.331 88.331 0 0 1-9.958-1.163c-9.554-1.472-20.044-3.089-25.233 4.2a25.231 25.231 0 0 0-2.6 4.682c-3.127 7.284-3.458 16.5-1.311 25.127 2.137 8.589 6.716 16.527 13.415 21.3a25.161 25.161 0 0 0 4.575 2.595 50.212 50.212 0 0 0 6.318 1.874 47.908 47.908 0 0 0 6.423.99 2.491 2.491 0 1 1-.408 4.964 53.07 53.07 0 0 1-7.105-1.107 55.2 55.2 0 0 1-6.968-2.059l-.116-.049a30.08 30.08 0 0 1-5.6-3.159c-7.717-5.5-12.956-14.492-15.361-24.161-2.4-9.629-1.994-20 1.563-28.281a30.1 30.1 0 0 1 3.129-5.6c6.976-9.792 19.037-7.934 30.023-6.24a87.128 87.128 0 0 0 9.389 1.123z" transform="translate(-10182.188 -532.137)"></path>
		<path id="Path_277" data-name="Path 277" class="cls-implantation1" d="M10638.171 2283.731a2.482 2.482 0 0 1 4.867-.973l11.626 57.3v.2c0 1.044 1.206 2.15 3.155 3.093a26.285 26.285 0 0 0 19.9 0c1.951-.943 3.157-2.048 3.157-3.093v-.2l11.626-57.3a2.482 2.482 0 0 1 4.867.973l-11.514 56.743c-.1 3.026-2.368 5.608-5.976 7.352a31.01 31.01 0 0 1-24.217 0c-3.608-1.744-5.871-4.327-5.976-7.352z" transform="translate(-10622.02 -2219.004)"></path>
		<path id="Path_278" data-name="Path 278" class="cls-implantation2" d="M10539.525 1524.96l1.732 10.207 10.09 1.617-10.209 1.735-1.613 10.089-1.738-10.207-10.088-1.617 10.209-1.735z" transform="translate(-10515.495 -1489.895)"></path>
		<path id="Path_279" data-name="Path 279" class="cls-implantation1" d="M10506.842 1490.838l1.586 9.327 9.207 1.476a1.242 1.242 0 0 1 .01 2.451l-9.326 1.587-1.476 9.207a1.242 1.242 0 0 1-2.451.009l-1.588-9.326-9.206-1.476a1.241 1.241 0 0 1-.009-2.451l9.325-1.587 1.477-9.207a1.242 1.242 0 0 1 2.451-.01zm-.717 10.616l-.474-2.787-.417 2.6a1.242 1.242 0 0 1-1.03 1.095l-2.787.474 2.6.416a1.245 1.245 0 0 1 1.095 1.032l.474 2.787.416-2.6a1.245 1.245 0 0 1 1.032-1.094l2.787-.474-2.6-.417a1.244 1.244 0 0 1-1.096-1.032z" transform="translate(-10481.589 -1455.978)"></path>
		<path id="Path_280" data-name="Path 280" class="cls-implantation2" d="M12251.726 659.6l1.737 10.207 10.087 1.617-10.207 1.735-1.617 10.089-1.735-10.207-10.09-1.617 10.207-1.736z" transform="translate(-12167.226 -655.098)"></path>
		<path id="Path_281" data-name="Path 281" class="cls-implantation1" d="M12219.044 625.478l1.585 9.326 9.208 1.476a1.242 1.242 0 0 1 .01 2.451l-9.327 1.587-1.476 9.207a1.242 1.242 0 0 1-2.451.01l-1.587-9.327-9.208-1.476a1.242 1.242 0 0 1-.009-2.451l9.326-1.587 1.476-9.207a1.243 1.243 0 0 1 2.453-.01zm-.717 10.616l-.475-2.787-.416 2.6a1.244 1.244 0 0 1-1.031 1.094l-2.787.474 2.595.416a1.242 1.242 0 0 1 1.095 1.032l.475 2.787.416-2.6a1.244 1.244 0 0 1 1.031-1.095l2.788-.474-2.6-.416a1.242 1.242 0 0 1-1.091-1.031z" transform="translate(-12133.318 -621.181)"></path>
		<path id="Path_282" data-name="Path 282" class="cls-implantation1" d="M10377.563 2667.04a2.488 2.488 0 0 1 1.284-4.808l69.619 18.822a2.488 2.488 0 0 1-1.285 4.808z" transform="translate(-10368.882 -2586.918)"></path>
		<path id="Path_283" data-name="Path 283" class="cls-implantation1" d="M10512.664 3332.59a2.488 2.488 0 0 1 1.284-4.808l60.574 16.377a2.488 2.488 0 0 1-1.284 4.808z" transform="translate(-10499.21 -3228.961)"></path>
		<path id="Path_284" data-name="Path 284" class="cls-implantation1" d="M11403.669 540.1a2.484 2.484 0 1 1-.176-4.964 87.145 87.145 0 0 0 9.394-1.124c7.685-1.184 15.91-2.451 22.669.362a2.487 2.487 0 0 1-1.908 4.594c-5.462-2.274-12.989-1.114-20.021-.031a88.369 88.369 0 0 1-9.958 1.163zm40.156 27.088a2.489 2.489 0 1 1 4.944.584 49.037 49.037 0 0 1-7.334 20.756 33.764 33.764 0 0 1-14.784 12.922l-.128.049a55.092 55.092 0 0 1-6.967 2.059 53.075 53.075 0 0 1-7.1 1.107 2.491 2.491 0 1 1-.409-4.964 47.933 47.933 0 0 0 6.424-.99 50.315 50.315 0 0 0 6.25-1.849 28.849 28.849 0 0 0 12.554-11.039 44.032 44.032 0 0 0 6.55-18.636z" transform="translate(-11358.047 -532.655)"></path>
	</g>
</svg>