<svg xmlns="http://www.w3.org/2000/svg" viewBox="0 0 471.999 471.999" style="enable-background:new 0 0 471.999 471.999" xml:space="preserve" fill="#fff"><path d="M176 63.999c-22.091 0-40 17.909-40 40s17.909 40 40 40 40-17.909 40-40c-.027-22.08-17.92-39.974-40-40zm0 64c-13.255 0-24-10.745-24-24a23.608 23.608 0 0 1 2.4-10.28l31.88 31.88a23.608 23.608 0 0 1-10.28 2.4zm21.6-13.72-31.88-31.88a23.608 23.608 0 0 1 10.28-2.4c13.255 0 24 10.745 24 24a23.622 23.622 0 0 1-2.4 10.28z"/><path d="M416 55.999v-48a8 8 0 0 0-9.064-7.928l-206.4 27.76v.104A79.446 79.446 0 0 0 176 23.999a74.733 74.733 0 0 0-35.576 7.84c-6.064 3.032-12.376 6.28-19.256 9.824C81.095 62.153 55.914 103.4 56 148.407v91.592c.035 30.913 25.087 55.965 56 56a7.703 7.703 0 0 0 2.096-.424l6.032 18.112 1.192 11.944a25.516 25.516 0 0 0-17.528-1.32l-41.984 12A8 8 0 0 0 56 343.999v120a8 8 0 0 0 8 8h224a8 8 0 0 0 8-8v-120a8 8 0 0 0-5.808-7.696l-41.976-12a25.391 25.391 0 0 0-17.536 1.288l1.192-11.92 6.032-18.112c.675.244 1.38.392 2.096.44 30.913-.035 55.965-25.087 56-56v-80h112a8 8 0 0 0 8-8v-48a8 8 0 0 0-8-8H285.992a93.261 93.261 0 0 0-5.392-13.712l128.536-18.4A8 8 0 0 0 416 55.999zm-184.336 292a9.604 9.604 0 0 1 .976-3.384 9.55 9.55 0 0 1 11.2-4.912L280 350.031v105.968H72V350.031l36.184-10.336c5.104-1.435 10.405 1.54 11.84 6.644.153.543.257 1.099.312 1.66l6.328 69.6c1.237 13.516 13.197 23.471 26.713 22.234a24.576 24.576 0 0 0 18.199-10.826 5.304 5.304 0 0 1 8.848 0c7.537 11.288 22.798 14.328 34.086 6.791a24.576 24.576 0 0 0 10.826-18.199l6.328-69.6zM184 378.951v.448c-.097 11.279 8.968 20.502 20.248 20.599a20.41 20.41 0 0 0 6.728-1.079l-1.6 17.28a8.567 8.567 0 0 1-15.664 4c-6.526-9.795-19.757-12.445-29.553-5.919a21.3 21.3 0 0 0-5.919 5.919 8.57 8.57 0 0 1-15.664-4l-1.6-17.28c10.674 3.646 22.283-2.052 25.929-12.727a20.406 20.406 0 0 0 1.095-6.793v-.448a39.984 39.984 0 0 0 16 0zm-16-16.512v-50.44a8 8 0 0 1 16 0v50.44a27.799 27.799 0 0 1-16 0zm64-99.76-15.592 46.792a7.978 7.978 0 0 0-.368 1.728l-6.872 68.664a4.592 4.592 0 0 1-9.168-.464v-67.4c0-13.255-10.745-24-24-24s-24 10.745-24 24v67.4a4.592 4.592 0 0 1-9.168.456L136 311.199a7.978 7.978 0 0 0-.368-1.728L120 262.703v-34.4c.002-11.205 9.087-20.286 20.292-20.284a20.288 20.288 0 0 1 14.34 5.94c11.955 11.425 30.781 11.425 42.736 0 7.924-7.922 20.77-7.92 28.692.004a20.286 20.286 0 0 1 5.94 14.316v34.4zm0-64.464c-14.393-9.727-33.663-7.878-45.944 4.408-5.627 5.374-14.485 5.374-20.112 0-12.281-12.286-31.551-14.135-45.944-4.408v-37.096c31.102 30.578 80.999 30.496 112-.184v37.28zm48 41.784c-.021 19.002-13.387 35.375-32 39.2v-119.2h32v80zm120-128v32H229.6a7.999 7.999 0 0 0-5.952 2.656c-23.479 26.314-63.846 28.613-90.16 5.133a63.855 63.855 0 0 1-14.336-18.565A8 8 0 0 0 104 136.887v142.312c-18.613-3.825-31.979-20.198-32-39.2v-91.592c-.042-39.132 21.915-74.966 56.8-92.696 6.48-3.336 12.728-6.544 18.744-9.552A58.955 58.955 0 0 1 176 39.999c35.33.04 63.96 28.67 64 64a8 8 0 0 0 8 8h152zM253.896 86.095l9.72-1.384a58.758 58.758 0 0 1 5.488 11.288H255.6a77.94 77.94 0 0 0-1.704-9.904zM400 49.063l-151.368 21.6A80.37 80.37 0 0 0 224.8 40.711L400 17.151v31.912z"/></svg>