<!-- icon666.com - MILLIONS vector ICONS FREE --><svg id="Layer_1" viewBox="0 0 512 512" xmlns="http://www.w3.org/2000/svg"><path d="m210.35 85.758c1.611-4.146 6.307-6.217 10.43-4.6 22.711 8.793 47.719 8.793 70.438 0 4.137-1.617 8.82.453 10.432 4.6 1.609 4.154-.449 8.828-4.604 10.438-13.233 5.125-27.135 7.688-41.041 7.688-13.908 0-27.814-2.563-41.047-7.688-4.157-1.61-6.218-6.284-4.608-10.438zm295.646 238.34v101.402c0 25.576-20.805 46.383-46.383 46.383h-407.226c-25.576 0-46.383-20.807-46.383-46.383v-101.402c0-4.453 3.609-8.064 8.068-8.064h33.105c9.297 0 14.016-8.826 15.226-16.391l7.776-48.639c4.863-30.863 9.463-60.01 28.813-65.318 9.303-2.551 19.765 1.297 32.131 11.953-17.235-33.863-20.489-72.373-9.33-111.822.059-.219.135-.441.215-.654 11.276-29.895 29.452-45.045 54.019-45.045 15.803 0 33.488 6.299 54.043 19.27 16.506 6.199 35.355 6.199 51.865 0 20.553-12.971 38.237-19.27 54.039-19.27 24.566 0 42.742 15.15 54.019 45.045.082.213.153.436.218.654 11.141 39.402 7.913 77.854-9.258 111.689 12.322-10.662 22.619-14.379 32.026-11.83 19.375 5.287 23.977 34.449 28.845 65.328l7.775 48.639c1.209 7.564 5.927 16.391 15.225 16.391h33.111c4.452-.001 8.061 3.611 8.061 8.064zm-357.535-128.239.953 1.654c4.211 7.32 6.328 11.637 4.543 22.449-9.289 56.34 6.949 98.529 49.633 128.898v-72.813c0-28.902 23.512-52.412 52.413-52.412 28.896 0 52.407 23.51 52.407 52.412v72.813c42.676-30.346 58.926-72.533 49.629-128.898-1.779-10.813.338-15.135 4.548-22.449l.95-1.654c17.882-31.402 21.77-67.813 11.248-105.326-8.781-23.072-21.481-34.289-38.811-34.289-12.643 0-28.146 5.781-46.084 17.195-.45.279-.919.523-1.415.711-20.667 8.008-44.284 8.008-64.949 0-.497-.188-.966-.432-1.417-.711-17.932-11.414-33.438-17.195-46.082-17.195-17.326 0-30.027 11.217-38.809 34.289-10.526 37.514-6.636 73.924 11.243 105.326zm341.408 136.299h-25.045c-15.765 0-28.28-12.039-31.148-29.965l-7.782-48.68c-3.124-19.803-7.846-49.73-17.16-52.271-2.337-.631-11.606-.541-33.494 25.453 7.001 58.434-12.854 104.35-59.209 136.523-2.573 1.764-5.522 2.684-8.563 2.684-4.025 0-7.964-1.643-10.813-4.504-2.842-2.865-4.396-6.67-4.373-10.732v-74.617c0-20.006-16.275-36.285-36.278-36.285-20.011 0-36.285 16.279-36.285 36.285v74.66c.023 4.012-1.53 7.824-4.373 10.689-5.005 5.029-13.44 5.893-19.338 1.848-46.393-32.211-66.249-78.127-59.247-136.561-21.902-26.035-31.146-26.084-33.5-25.443-9.307 2.549-14.027 32.479-17.146 52.281l-7.787 48.67c-2.869 17.926-15.387 29.965-31.148 29.965h-25.048v93.342c0 16.686 13.573 30.252 30.255 30.252h407.227c16.684 0 30.256-13.566 30.256-30.252v-93.342zm-73.255-159.178c.697.189 1.4.268 2.092.268 3.56 0 6.815-2.369 7.783-5.969l3.753-13.996c1.153-4.297-1.396-8.719-5.701-9.877-4.285-1.148-8.719 1.404-9.875 5.703l-3.754 13.996c-1.154 4.295 1.397 8.719 5.702 9.875zm13.366 7.874c1.578 1.643 3.688 2.463 5.802 2.463 2.015 0 4.033-.744 5.6-2.264l10.423-10.059c3.206-3.092 3.295-8.195.197-11.404-3.086-3.205-8.197-3.295-11.397-.195l-10.423 10.059c-3.206 3.091-3.3 8.192-.202 11.4zm7.399 13.632c.857 3.729 4.176 6.258 7.847 6.258.604 0 1.211-.068 1.821-.209l14.115-3.256c4.338-1 7.047-5.334 6.045-9.674-1.002-4.35-5.35-7.029-9.67-6.045l-14.113 3.258c-4.342 1-7.05 5.33-6.045 9.668zm-351.866-27.207c.969 3.6 4.226 5.969 7.786 5.969.688 0 1.393-.078 2.09-.268 4.304-1.156 6.855-5.58 5.701-9.875l-3.75-13.996c-1.156-4.299-5.574-6.852-9.879-5.703-4.303 1.158-6.854 5.58-5.703 9.877zm-14.886 13.78c1.564 1.514 3.582 2.258 5.598 2.258 2.115 0 4.223-.82 5.805-2.463 3.093-3.207 2.999-8.309-.203-11.4l-10.428-10.063c-3.198-3.088-8.307-3.006-11.404.199-3.094 3.209-2.998 8.313.209 11.404zm-19.785 16.22 14.115 3.256c.611.141 1.219.209 1.821.209 3.675 0 6.989-2.529 7.853-6.258 1-4.338-1.707-8.668-6.044-9.668l-14.12-3.258c-4.327-.979-8.668 1.705-9.67 6.045-1.006 4.34 1.705 8.674 6.045 9.674z"></path></svg>