<!-- icon666.com - MILLIONS vector ICONS FREE --><svg id="Capa_1" enable-background="new 0 0 512.139 512.139" viewBox="0 0 512.139 512.139" xmlns="http://www.w3.org/2000/svg"><g><path d="m508.608 233.118c-1.175-1.035-27.398-23.65-71.293-25.152.506-3.799.804-7.442.804-10.76v-60.307c0-55.376-39.871-109.425-98.47-109.425-23.062 0-44.555 8.953-60.651 25.299-5.962 6.042-13.025 13.89-22.353 13.873-9.388-.017-16.435-7.769-22.458-13.873-16.748-17.009-38.794-26.16-62.152-25.74-57.745 1.015-96.968 55.363-96.968 109.866v60.307c0 3.305.295 6.933.798 10.715-44.591 1.14-71.287 24.154-72.473 25.197-2.157 1.899-3.392 4.632-3.392 7.505v234.496c0 5.522 4.478 10 10 10h492c5.522 0 10-4.478 10-10v-85.666c0-5.522-4.478-10-10-10s-10 4.478-10 10v75.666h-472v-219.525c7.88-5.457 28.964-17.719 59.321-17.719 0 0 4.509 12.295 5.555 15.079 3.174 8.446 6.749 16.748 9.989 25.173 14.526 37.817 26.381 76.365 38.483 114.997 7.372 23.036 24.705 37.347 45.234 37.347.262 0 .523-.011.784-.031 23.484-1.847 41.005-17.401 44.356-39.023 3.594-23.192 3.838-46.883 7.307-70.092 1.874-12.448 12.879-22.035 25.564-22.034 13.117 0 24.37 10.142 25.712 23.203l6.833 66.447c2.401 23.345 21.831 39.702 44.682 41.499 22.194 1.746 40.574-17.755 46.109-37.617 5.085-17.802 10.634-35.707 16.691-53.885 7.582-22.747 15.969-45.933 25.296-69.912 4.02-10.342 8.316-20.425 11.256-31.148 30.112.138 51.022 12.309 58.828 17.714v55.886c0 5.522 4.478 10 10 10s10-4.478 10-10v-60.854c0-2.874-1.235-5.607-3.392-7.506zm-109.091 28.402h-22.17c-3.78 0-7.631-1.594-10.301-4.265-8.746-8.746-2.38-18.224 4.505-25.107 6.532-6.521 10.13-15.204 10.13-24.451v-66.225c0-9.233-3.595-17.914-10.123-24.444l-19.543-19.543c-2.711-2.711-4.266-6.465-4.266-10.301v-8.762c0-3.836 1.555-7.591 4.266-10.302l15.147-15.148c32.82 13.204 50.956 49.82 50.956 83.925v60.313c-.001 22.393-10.769 43.846-18.601 64.31zm-275.461-194.883c25.329-22.482 66.156-29.682 95.58-.135 8.974 10.8 22.504 20.156 37.022 20.145 14.472-.012 27.947-9.383 36.89-20.142 13.581-13.61 32-19.857 50.566-18.769l-6.242 6.242c-6.528 6.528-10.123 15.209-10.123 24.444v8.762c0 9.101 3.689 18.01 10.123 24.443l19.542 19.542c2.752 2.752 4.267 6.41 4.267 10.303v66.225c0 3.898-1.513 7.555-4.265 10.301-14.798 14.795-21.201 36.712-4.513 53.4 6.433 6.433 15.342 10.122 24.443 10.122h14.69c-5.754 15.695-11.129 31.117-16.139 46.355-5.467 16.625-10.51 33.036-15.174 49.364-3.621 11.745-12.464 23.03-25.731 23.228-13.218-1.189-24.548-9.833-25.96-23.573l-6.832-66.443c-2.379-23.15-22.354-41.162-45.607-41.162-22.938 0-42.756 17.655-45.502 40.337-2.803 23.036-3.067 46.825-7.285 69.652-2.606 14.112-14.649 20.204-25.611 21.19-16.936-.262-23.953-17.734-25.76-23.32-8.816-30.186-17.907-58.418-27.465-85.286h17.371c9.299 0 18.398-3.767 24.967-10.336l22.861-22.87c6.675-6.662 10.351-15.531 10.351-24.974 0-9.423-3.674-18.285-10.337-24.948-2.891-2.897-4.483-6.744-4.483-10.832v-27.008c0-9.293-3.771-18.393-10.344-24.967l-18.388-18.388c-6.574-6.573-15.674-10.344-24.967-10.344h-34.993c3.794-19.016 13.072-36.505 27.048-50.558zm51.976 156.229c2.894 2.893 4.486 6.733 4.486 10.813 0 4.093-1.591 7.935-4.487 10.826l-22.868 22.877c-2.845 2.845-6.79 4.477-10.823 4.477h-24.667c-4.575-12.234-9.76-24.252-14.283-36.497-4.392-11.938-8.321-25.367-8.321-38.151v-60.018h36.931c4.028 0 7.974 1.635 10.824 4.486l18.388 18.388c2.852 2.851 4.486 6.796 4.486 10.824v27.008c0 9.422 3.668 18.287 10.334 24.967z"></path><path d="m510.31 339.999c-6.749-10.326-22.871-.587-17.08 10.235 6.382 11.928 24.714.905 17.08-10.235z"></path></g></svg>