<svg xmlns="http://www.w3.org/2000/svg" viewBox="0 0 121.13 121.05">
	<defs>
		<style>
			.cls-1{fill:#fff;}
		</style>
	</defs>
	<g id="Layer_2" data-name="Layer 2">
		<g id="Layer_1-2" data-name="Layer 1">
			<path class="cls-1" d="M9.74,60.79c1.23,2,2.5,4.13,3.67,6.31a56.26,56.26,0,0,1,6.77,20.34,141.43,141.43,0,0,0,3.66,21.63c1.55,5.81,3.61,12,8.37,12,2.16,0,7.24-7.1,11-34,1.13-8,4.71-12.39,10.63-13l.27,0,.25,0c5.93.65,9.52,5,10.64,13,3.75,26.89,8.83,34,11,34,4.75,0,6.81-6.17,8.38-12A140.44,140.44,0,0,0,88,87.44a48.86,48.86,0,0,1,1.3-6.78h-.06a32.3,32.3,0,1,1,18-59.08A26.43,26.43,0,0,0,99.78,8C88.6-2.8,67.52-2.62,55.55,8.3a1.75,1.75,0,0,1-.29.18,2.12,2.12,0,0,1-.36.21,1.85,1.85,0,0,1-.42.11,2.3,2.3,0,0,1-.39,0,1.4,1.4,0,0,1-.41-.06,2.59,2.59,0,0,1-.4-.09,2.67,2.67,0,0,1-.36-.22l-.29-.17c-12-10.93-33-11.1-44.22-.37S-1.23,36.66,4,49.92A72,72,0,0,0,9.74,60.79ZM23.82,6.45a2.16,2.16,0,1,1-2.16,2.16A2.16,2.16,0,0,1,23.82,6.45Zm-8.5,4a2.17,2.17,0,0,1,1.88,3.9c-.52.25-11.8,6.09-7,23.78a2.16,2.16,0,1,1-4.17,1.14C.25,18,15.17,10.52,15.32,10.44Z">
			</path>
			<path class="cls-1" d="M78.51,22.51a28,28,0,1,0,10.67-2.13A28,28,0,0,0,78.51,22.51Zm16,6.19a2.15,2.15,0,0,1,0,3.06l-7.12,7.12,3.87,3.86a4.33,4.33,0,0,1,.81,5l-3,6.05,4.76,6.36a4.33,4.33,0,0,1,.14,5l-3.48,5.22a2.16,2.16,0,0,1-3.6-2.4l3.48-5.22-4.76-6.35a4.3,4.3,0,0,1-.42-4.52l3-6.06-3.85-3.86a4.36,4.36,0,0,1-.74-1L77.2,38.77a2.16,2.16,0,0,1-.76-3.67,2.16,2.16,0,0,1,2.12-.44l5.31,1.77a3.61,3.61,0,0,1,.5-.61l7.12-7.12A2.16,2.16,0,0,1,94.54,28.7Z">
			</path>
			<path class="cls-1" d="M109.93,80a2.83,2.83,0,0,0,0-2.21l-1.48-3.57a31.32,31.32,0,0,1-14.52,6l0,.08,1.45,3.5a2.89,2.89,0,0,0,3.74,1.55l9.28-3.85A2.77,2.77,0,0,0,109.93,80Z">
			</path>
			<path class="cls-1" d="M102.78,88.58l12.89,31.14a2.18,2.18,0,0,0,2.83,1.17l1.3-.54a2.16,2.16,0,0,0,1.17-2.82l-12.9-31.14Z">
			</path>
		</g>
	</g>
</svg>
