<svg xmlns="http://www.w3.org/2000/svg" viewBox="0 0 109.97 123.04">
	<defs>
		<style>
			.cls-1{fill:#fff;}
		</style>
	</defs>
	<g id="Layer_2" data-name="Layer 2">
		<g id="Layer_1-2" data-name="Layer 1">
			<path class="cls-1" d="M42.68,66.82,53.42,56.08a2.2,2.2,0,0,1,3.11,0L67.26,66.8a4.47,4.47,0,0,0,6.19,0,4.41,4.41,0,0,0,0-6.23L62.74,49.87a2.2,2.2,0,0,1,0-3.11L73.47,36a4.4,4.4,0,0,0-6.21-6.21L56.53,40.55a2.2,2.2,0,0,1-3.11,0L42.7,29.82A4.39,4.39,0,0,0,36.49,36L47.21,46.76a2.2,2.2,0,0,1,0,3.11L36.49,60.59a4.38,4.38,0,0,0,0,6.21A4.47,4.47,0,0,0,42.68,66.82Z">
			</path>
			<path class="cls-1" d="M9.9,61.78c1.25,2.07,2.54,4.21,3.73,6.42a57.43,57.43,0,0,1,6.89,20.68,142.32,142.32,0,0,0,3.71,22C25.81,116.77,27.9,123,32.74,123c2.55,0,7.63-9.2,11.16-34.55,1.15-8.13,4.79-12.59,10.82-13.26l.26,0,.27,0c6,.66,9.67,5.13,10.81,13.26C69.87,115.82,75,123,77.22,123c4.84,0,6.93-6.27,8.52-12.15a141.52,141.52,0,0,0,3.72-22A57.42,57.42,0,0,1,96.34,68.2c1.18-2.21,2.47-4.35,3.72-6.41a73.14,73.14,0,0,0,5.87-11.06C111.2,37.25,112.8,19,101.42,8.07,90.61-2.3,70.73-2.63,58.34,6.9c3.84,3.35,13.1,10.64,20.81,10.64a2.2,2.2,0,0,1,0,4.4c-11.6,0-24.8-12.67-25.66-13.51C41.33-2.66,19.91-2.84,8.55,8.07S-1.25,37.26,4,50.74A72,72,0,0,0,9.9,61.78ZM33.38,39.14A8.79,8.79,0,0,1,45.8,26.72L55,35.89l9.17-9.18A8.79,8.79,0,1,1,76.57,39.14L67.4,48.31l9.17,9.17A8.79,8.79,0,1,1,64.13,69.9L55,60.74,45.8,69.91A8.79,8.79,0,1,1,33.38,57.48l9.17-9.17ZM24.21,6.55A2.2,2.2,0,1,1,22,8.75,2.2,2.2,0,0,1,24.21,6.55Zm-8.64,4.07a2.19,2.19,0,0,1,1.91,4c-.53.26-12,6.2-7.08,24.18a2.19,2.19,0,0,1-2.68,2.7,2.17,2.17,0,0,1-1.56-1.54C.25,18.25,15.41,10.69,15.57,10.62Z">
			</path>
		</g>
	</g>
</svg>
