<svg xmlns="http://www.w3.org/2000/svg" width="72" height="73" viewBox="0 0 72 73" fill="none">
	<path fill-rule="evenodd" clip-rule="evenodd" d="M13.409 38.8444C13.275 38.8444 13.141 38.8274 13.0109 38.7919C8.73618 37.6253 4.18794 35.8078 0.616603 33.1058C0.228352 32.812 0 32.3499 0 31.8582C0 31.0002 0.686364 30.3029 1.53158 30.3029C1.86183 30.3029 2.18241 30.4114 2.44708 30.6115C5.69706 33.0737 9.91714 34.7253 13.8064 35.7876C14.4756 35.9707 14.9406 36.5863 14.9406 37.2897C14.9406 38.1477 14.2543 38.8442 13.409 38.8442V38.8444ZM63.6416 38.37C63.9309 38.9763 64.108 39.6346 64.1576 40.3095C64.3162 42.4449 63.1875 44.3411 61.7999 45.8461C60.7462 46.9877 61.3335 48.3855 61.7265 49.7076C61.9123 50.3316 62.0946 50.9535 62.2412 51.5898C62.8858 54.3916 62.5618 57.2247 60.8403 59.5609C58.6895 62.4792 55.0539 63.6875 51.5949 63.8804C51.3056 63.896 51.0159 63.9003 50.7261 63.9003C49.7673 63.9003 48.8079 63.8244 47.867 63.6803C45.9717 63.4365 45.1302 63.3683 43.5401 64.6334C42.797 65.3439 41.4499 68.4983 41.1392 69.5259C40.5485 71.4769 38.7606 72.7966 36.7551 72.7966L6.84927 72.7974C5.43578 72.7974 4.08866 72.1662 3.18649 71.0592C2.52155 70.2431 2.167 69.2104 2.167 68.1531C2.167 67.7114 2.23049 67.2717 2.35355 66.8483C3.32992 63.4755 7.6762 49.6338 4.8244 47.4163C4.00662 46.78 3.12874 46.2276 2.25452 45.6765C1.73067 45.3459 1.20552 45.0185 0.694465 44.6688C0.274077 44.3815 0.0248228 43.8973 0.0248228 43.3831C0.0248228 42.525 0.710663 41.8278 1.55562 41.8278C1.8553 41.8278 2.14792 41.9156 2.3977 42.0838C2.88158 42.4106 3.37539 42.7227 3.86841 43.0334C4.83068 43.6404 5.78615 44.2467 6.68623 44.9466C11.5292 48.7132 6.70086 62.8581 5.30358 67.6833C5.26021 67.8329 5.23225 67.9902 5.23225 68.1462C5.23225 68.5185 5.36498 68.8838 5.61423 69.159C5.92227 69.4994 6.36226 69.6873 6.86077 69.6867H36.764C37.4198 69.6867 38.0147 69.2611 38.208 68.6209C38.7094 66.9637 40.3512 63.2213 41.6383 62.1966C43.9338 60.3691 45.5419 60.2478 48.2649 60.5997C49.0932 60.7244 49.9243 60.7904 50.7546 60.7904C50.9817 60.7904 51.2092 60.7841 51.4292 60.7764C53.9306 60.6344 56.8086 59.8387 58.3869 57.6991C59.5511 56.1191 59.6894 54.1788 59.257 52.3009C59.1258 51.7307 58.9601 51.1711 58.7932 50.611C58.0271 48.0411 57.5529 45.9121 59.5613 43.7256C60.3073 42.9129 61.1891 41.7243 61.1034 40.5499C61.0475 39.9301 60.7569 39.348 60.3114 38.9437C59.9582 38.663 59.7416 38.2119 59.7416 37.7338C59.7416 36.963 60.2997 36.3069 61.0511 36.1957C62.1119 36.0376 63.5609 34.4475 63.8326 33.3881C64.1218 32.2633 63.4248 31.4032 62.5882 30.7507C62.2626 30.4968 62.0484 30.1225 62 29.7083C61.6816 26.9837 64.9848 25.2248 67.075 24.418C67.399 24.2933 68.0736 23.9882 68.1588 23.5897C68.2669 23.0834 67.7125 22.2755 67.3794 21.9316C64.6551 19.1176 62.0986 16.1285 59.7458 12.9876C58.9831 11.9698 58.5774 10.7225 58.5774 9.44446C58.5774 8.71323 58.7177 7.98995 58.9735 7.3078C59.4694 5.98384 59.7144 4.57311 59.7144 3.15761C59.7144 2.67684 59.6844 2.19449 59.6259 1.69807C59.6217 1.64209 59.6204 1.60521 59.6204 1.56753C59.6204 0.709477 60.3062 0.0130071 61.1512 0.0130071C61.9319 0.0130071 62.5856 0.610235 62.6736 1.39665C62.7387 1.98302 62.7771 2.5731 62.7771 3.16318C62.7771 4.97003 62.4544 6.76655 61.8203 8.45507C61.7022 8.77054 61.6387 9.10672 61.6387 9.445C61.6387 10.0513 61.8357 10.64 62.1981 11.1216C64.4712 14.1455 66.935 17.029 69.5587 19.7443C70.6704 20.8953 71.5015 22.5995 71.1496 24.2439C70.8172 25.7998 69.5649 26.7778 68.1473 27.3254C67.0823 27.6828 66.1143 28.2652 65.3064 29.0325C66.3555 30.0246 66.9546 31.418 66.9546 32.8797C66.9546 33.3122 66.9023 33.7457 66.7926 34.1854C66.252 35.9293 65.1332 37.4043 63.6424 38.37H63.6416ZM31.707 28.8744C34.3592 29.6942 37.4503 30.1623 40.1472 30.551C44.9191 31.2381 49.7495 31.7117 54.5561 32.1161C54.2455 30.4263 53.6573 28.1829 52.9806 26.9229C52.6266 26.1975 52.445 25.4124 52.445 24.6167C52.445 24.0147 52.549 23.4169 52.7489 22.86C53.4969 20.5822 55.0512 18.6525 57.1351 17.4349C57.2812 17.3646 57.3564 17.2434 57.3564 17.111C57.3564 17.0593 57.3452 17.008 57.3348 16.9834C56.8781 16.1303 56.3325 15.2962 55.7154 14.5076C55.0345 13.5814 54.0451 12.3163 53.8899 11.1603C53.8439 10.8143 53.8222 10.4646 53.8222 10.1157C53.8222 9.32002 53.9403 8.52776 54.1671 7.78326C54.4527 6.65935 54.6421 5.4898 54.7231 4.2786C54.7231 3.49218 54.617 2.70497 54.4062 1.93686C54.374 1.80579 54.3586 1.68003 54.3586 1.55533C54.3586 0.696478 55.0444 0 55.8902 0C56.5956 0 57.2101 0.489251 57.3747 1.17432C57.6436 2.15787 57.7834 3.18838 57.7834 4.22023C57.7834 4.31521 57.7805 4.411 57.7784 4.52509C57.6828 5.89655 57.4657 7.24201 57.1268 8.57526C56.9648 9.08734 56.8851 9.60285 56.8851 10.1192C56.8851 10.3269 56.8963 10.5363 56.9222 10.7382C56.9982 11.0921 57.9166 12.3068 58.1562 12.6339C58.8742 13.5543 59.5201 14.5493 60.0773 15.6053C60.3078 16.0868 60.4251 16.6024 60.4251 17.1237C60.4251 18.44 59.6841 19.6406 58.5431 20.2031C57.201 21.0065 56.1682 22.2973 55.6569 23.8348C55.5618 24.0909 55.515 24.3519 55.515 24.6135C55.515 24.9171 55.5785 25.2193 55.6882 25.4716C56.7239 27.3934 57.6611 31.2323 57.8335 33.4547C57.849 33.6531 57.8516 33.8744 57.8516 34.0859C57.7565 37.1822 57.258 40.2591 56.3884 43.2172C56.3404 43.3817 56.2803 43.5598 56.2202 43.7208C55.058 46.8426 55.1348 48.8877 56.0336 51.9955C56.7242 54.3826 56.9854 56.2327 54.6998 57.8987C53.6286 58.5872 52.4051 58.9483 51.1572 58.9483C51.0253 58.9483 50.8933 58.944 50.7927 58.9334C46.47 58.9348 40.3316 56.5535 36.1926 55.0769C33.1072 53.9026 29.9591 52.9013 26.7852 52.0743C22.4938 51.0899 19.7143 48.3958 18.1096 44.26C17.6458 43.0657 17.2542 41.8325 16.8555 40.607C15.4924 36.1235 13.7388 31.7566 11.5956 27.6059C10.6066 25.6897 9.96155 22.8367 10.7778 20.7526C11.252 19.5398 12.2393 18.6058 13.4629 18.2285C16.0725 17.3583 18.3805 18.4803 19.5456 20.9935C19.8884 21.7934 20.165 22.6138 20.3626 23.4416C20.4213 23.6586 20.6335 24.4578 20.7991 24.8223C21.5547 24.487 22.2999 22.765 22.6038 22.1312C24.1333 18.9364 25.971 16.233 29.9965 17.7265C33.3361 18.9653 32.4553 23.5262 32.0503 26.2628C31.9218 27.1293 31.7927 28.0017 31.7076 28.8754L31.707 28.8744ZM48.2124 34.6483C48.1586 35.0646 48.0972 35.4801 48.0316 35.8943C48.6469 35.9829 49.2622 36.0694 49.8773 36.1533C49.9541 35.7144 50.0254 35.2745 50.0918 34.8341C49.4652 34.7738 48.839 34.712 48.2124 34.6483ZM47.4897 38.9601C47.4226 39.3082 47.3549 39.6558 47.2852 40.0034C47.8641 40.1501 48.4436 40.2955 49.0247 40.4359C49.1149 40.0294 49.2029 39.6224 49.2886 39.2146C48.6887 39.1315 48.0888 39.0471 47.4897 38.9598V38.9601ZM42.75 34.0315C42.7171 34.3732 42.6815 34.7152 42.6439 35.0561C43.4303 35.1872 44.2165 35.3151 45.0037 35.4385C45.063 35.0668 45.1189 34.694 45.1686 34.3209C44.362 34.2289 43.5555 34.1331 42.7503 34.0315H42.75ZM42.2716 38.1482C42.2436 38.3645 42.2149 38.5807 42.1864 38.7972C42.8953 38.9455 43.602 39.1042 44.3066 39.2703C44.3576 39.0142 44.408 38.7582 44.4574 38.5022C43.7285 38.3873 42.9992 38.2695 42.2716 38.1482ZM37.3226 33.2527C37.3066 33.5292 37.2904 33.8059 37.2758 34.0824C38.0565 34.2376 38.8387 34.3859 39.6215 34.5284C39.6544 34.2257 39.6858 33.9235 39.7143 33.6208C38.9161 33.5051 38.1187 33.3833 37.3223 33.2527H37.3226ZM37.1193 37.2178C37.1102 37.3873 37.1026 37.5574 37.0963 37.7277C37.7814 37.9219 38.4743 38.0885 39.1724 38.2254C39.199 38.0233 39.2246 37.8219 39.2513 37.6197C38.5396 37.49 37.8287 37.356 37.1193 37.2175V37.2178ZM34.2897 32.7003C33.4377 32.5295 32.5914 32.3302 31.7512 32.1039C31.7904 32.3371 31.8351 32.5685 31.8852 32.7988C32.6638 33.0392 33.4515 33.2549 34.245 33.4398C34.2597 33.1938 34.2743 32.9468 34.2897 32.7001V32.7003ZM52.7985 44.3613C51.8776 44.2379 50.9618 44.0705 50.0567 43.8641C46.556 43.0655 43 42.0464 39.47 41.438C35.0012 40.6677 30.8077 39.3934 29.2393 34.6627C29.1863 34.547 29.1471 34.4258 29.1233 34.3003C28.9229 33.6194 28.7664 32.9224 28.6679 32.2182C28.5911 31.6709 28.5576 31.1161 28.5576 30.5632C28.5576 30.4029 28.561 30.2435 28.5673 30.0829C28.5639 30.0418 28.5624 30.0007 28.5624 29.9595C28.5624 29.8807 28.5678 29.8022 28.5804 29.7247C28.6614 28.4093 28.8304 27.1001 29.0279 25.7974C29.1335 25.1004 29.8779 20.99 28.9519 20.6467C26.7899 19.8454 26.1662 21.8141 25.3631 23.4904C24.4776 25.3405 23.4707 27.4562 21.2849 27.9142C18.761 28.4432 17.9447 26.2256 17.4104 24.2421C17.2492 23.5676 17.0334 22.9144 16.7708 22.2967C16.4594 21.6257 15.997 21.0394 15.1975 21.0423C14.9341 21.0431 14.6715 21.0932 14.4042 21.1869C14.0335 21.2941 13.7534 21.5607 13.6186 21.9046C13.164 23.0641 13.7513 25.0943 14.2961 26.1461C16.5294 30.4586 18.3604 34.9959 19.7703 39.6452C20.146 40.7991 20.5188 41.9798 20.9609 43.1172C22.197 46.3 24.1573 48.2807 27.482 49.0446C30.7873 49.8954 34.0423 50.9429 37.2217 52.1494C39.9627 53.1265 50.4254 57.1844 52.931 55.3568C53.8752 54.6675 53.389 53.8803 53.1035 52.8862C52.5796 51.3685 52.3081 49.7474 52.3081 48.1212C52.3081 46.8519 52.4743 45.586 52.7983 44.3613H52.7985ZM53.7203 41.3387C53.8523 40.8283 53.9732 40.3146 54.0827 39.7991C53.5003 39.7394 52.9193 39.6744 52.3382 39.6049C52.2347 40.1026 52.1279 40.599 52.0176 41.0949C52.5819 41.1971 53.1502 41.2793 53.72 41.3387H53.7203ZM54.5932 36.7248C54.6533 36.2347 54.7001 35.7425 54.7335 35.2496C54.205 35.2055 53.6769 35.1602 53.1484 35.1135C53.0778 35.59 53.0018 36.066 52.92 36.5409C53.4773 36.607 54.0354 36.6693 54.5932 36.7245V36.7248Z" fill="#fff" />
</svg>
