<!-- icon666.com - MILLIONS vector ICONS FREE -->
<svg viewBox="0 0 128 128" fill="#fff" xmlns="http://www.w3.org/2000/svg">
	<g id="Solid">
		<path d="m102.46 37.73c-3.423-5.879-9.381-8.71-15.692-9.311a1.99 1.99 0 0 0 -1.706.719q-3.78 4.543-7.272 9.322-3.9 5.325-7.38 10.95l.012.014c6.784-2.624 15.824-1.887 18.838 3.866a17.971 17.971 0 0 1 2.01 8.52c0 6.44-2.79 13.14-5.35 19.27q-.57 1.35-1.11 2.67c-1.93 4.73-2.78 11.84-3.53 18.12-.47 3.913-1.081 9.037-1.882 11.165a.386.386 0 0 1 -.726-.01c-.6-1.818-.852-6-1.052-9.225-.54-9.12-1.29-21.62-8.36-27.4a8.252 8.252 0 0 0 -10.52-.01 13.906 13.906 0 0 0 -1.85 1.83c-5.3 6.24-6.01 17.08-6.5 25.3-.01.1-.01.2-.02.29-.19 3.222-.44 7.426-1.021 9.224a.391.391 0 0 1 -.737.031c-.811-2.107-1.422-7.262-1.892-11.2-.75-6.27-1.6-13.38-3.53-18.11q-.54-1.32-1.11-2.67c-3.72-8.91-7.94-19.02-3.34-27.79 1.93-3.69 6.34-5.32 11.05-5.32a21.87 21.87 0 0 1 7.35 1.29 20.115 20.115 0 0 0 9.31 1.06 164.3 164.3 0 0 1 15.28-21.925 29.887 29.887 0 0 0 -10.54 2.87 16.341 16.341 0 0 1 -4.01 1.35 1.982 1.982 0 0 0 -.62 3.7 2.152 2.152 0 0 0 .566.186 1.689 1.689 0 0 1 1.474 1.516 1.512 1.512 0 0 1 -1.5 1.5h-.15c-3.11-.31-4.58-2.37-6-4.37a10.454 10.454 0 0 0 -4.13-3.88c-9.77-5.22-24.94-4.42-31.28 6.46-8.31 14.28 0 35.03 8.25 49.68s5.37 39.73 17.09 37.76c8.56-1.45 3.97-41.43 13.12-41.43s4.57 39.98 13.13 41.43c11.72 1.97 8.85-23.1 17.09-37.76s16.56-35.402 8.24-49.682z">
		</path>
		<path d="m47.853 107.115a73.791 73.791 0 0 1 -.04-12.856 85.447 85.447 0 0 1 2.234-12.707 119.421 119.421 0 0 1 9.115-24 167.75 167.75 0 0 1 29.891-41.452 1.5 1.5 0 1 1 2.147 2.1 178.883 178.883 0 0 0 -16.222 19.26 160.138 160.138 0 0 0 -13.278 21.378 116.708 116.708 0 0 0 -9.08 23.374 91.359 91.359 0 0 0 -2.291 12.288c-.421 4.144-.644 8.361-.758 12.543v.014a.861.861 0 0 1 -1.717.059z">
		</path>
		<rect height="7.444" rx="3.722" transform="matrix(.661 -.751 .751 .661 25.306 75.951)" width="19.959" x="86.707" y="6.255">
		</rect>
	</g>
</svg>
