<!-- icon666.com - MILLIONS vector ICONS FREE --><svg id="Layer_1" enable-background="new 0 0 450 450" viewBox="0 0 450 450" xmlns="http://www.w3.org/2000/svg"><g><path d="m290.26 445c-2.35 0-4.44-1.66-4.9-4.05-13.88-71.36-47.81-111.42-61.76-125.32-6.06-6.04-11.44-12.56-15.99-19.39-.02-.03-.04-.06-.06-.09-.51-.8-.79-1.74-.79-2.7v-30.09c0-2.35 1.64-4.39 3.94-4.89l36.62-7.93c1.78-.39 2.27-1.81 2.39-2.4.12-.6.26-2.09-1.22-3.16-.05-.04-.1-.07-.15-.11l-4.31-3.38c-6.5-5.09-8.79-13.96-5.56-21.56 3.18-7.5 10.77-11.93 18.85-11.04l4.39.48v-20.58c0-1.58.75-3.07 2.02-4.02l18.98-14.07-19.6-20.31c-.9-.93-1.4-2.18-1.4-3.47v-45.79c0-2.76 2.24-5 5-5s5 2.24 5 5v43.77l22.15 22.96c1 1.04 1.5 2.45 1.39 3.88-.12 1.43-.85 2.75-2.01 3.6l-21.53 15.96v23.65c0 1.42-.61 2.78-1.66 3.72-1.06.95-2.48 1.4-3.88 1.25l-9.93-1.1c-3.68-.41-7.11 1.61-8.55 5.01-1.46 3.45-.43 7.47 2.52 9.78l4.24 3.33c4.19 3.08 6.13 8.15 5.05 13.25-1.08 5.13-4.93 9.01-10.06 10.12l-32.68 7.08v24.53c3.97 5.78 8.65 11.39 13.89 16.62 14.6 14.56 50.11 56.42 64.52 130.5.53 2.71-1.24 5.33-3.95 5.86-.32.07-.64.1-.96.1z"></path><path d="m55.64 424.94c-.32 0-.64-.03-.96-.09-2.71-.53-4.48-3.15-3.95-5.86 14.4-74.08 49.92-115.94 64.52-130.5 5.23-5.21 9.9-10.8 13.89-16.62v-28.56c0-2.76 2.24-5 5-5s5 2.24 5 5v30.09c0 1.01-.3 1.99-.87 2.82-4.52 6.79-9.9 13.31-15.96 19.35-13.95 13.91-47.88 53.96-61.76 125.32-.47 2.39-2.56 4.05-4.91 4.05z"></path><path d="m208.5 311.48c-45.85 0-76.66-33.17-78.06-34.71-1.86-2.04-1.71-5.2.33-7.06s5.2-1.71 7.06.32c.34.37 34.8 37.3 82.55 30.62 2.73-.38 5.26 1.52 5.64 4.26.38 2.73-1.52 5.26-4.26 5.64-4.54.64-8.97.93-13.26.93z"></path><g><g><path d="m352.2 226.24c-6.1 0-9.3-1.24-12.13-2.34-2.4-.93-4.29-1.66-8.52-1.66s-6.12.73-8.52 1.66c-2.83 1.1-6.03 2.34-12.13 2.34s-9.3-1.24-12.13-2.34c-2.4-.93-4.29-1.66-8.51-1.66-2.76 0-5-2.24-5-5s2.24-5 5-5c6.1 0 9.3 1.24 12.13 2.34 2.4.93 4.29 1.66 8.52 1.66s6.12-.73 8.52-1.66c2.83-1.1 6.03-2.34 12.13-2.34s9.3 1.24 12.13 2.34c2.4.93 4.29 1.66 8.52 1.66 2.76 0 5 2.24 5 5s-2.25 5-5.01 5z"></path></g><g><path d="m352.2 250.31c-6.1 0-9.3-1.24-12.13-2.34-2.4-.93-4.29-1.66-8.52-1.66s-6.12.73-8.52 1.66c-2.83 1.1-6.03 2.34-12.13 2.34s-9.3-1.24-12.13-2.34c-2.4-.93-4.29-1.66-8.51-1.66-2.76 0-5-2.24-5-5s2.24-5 5-5c6.1 0 9.3 1.24 12.13 2.34 2.4.93 4.29 1.66 8.52 1.66s6.12-.73 8.52-1.66c2.83-1.1 6.03-2.34 12.13-2.34s9.3 1.24 12.13 2.34c2.4.93 4.29 1.66 8.52 1.66 2.76 0 5 2.24 5 5s-2.25 5-5.01 5z"></path></g></g><g><path d="m348.39 278.75c-9.17 0-16.64-7.46-16.64-16.64 0-2.76 2.24-5 5-5s5 2.24 5 5c0 3.66 2.98 6.64 6.64 6.64 2.83 0 5.36-1.81 6.27-4.49.43-1.26 1.34-2.29 2.53-2.87s2.57-.67 3.82-.24c1.2.41 2.44.62 3.66.62 6.23 0 11.29-5.07 11.29-11.29 0-.43-.04-.92-.12-1.53-.35-2.56 1.32-4.97 3.84-5.55 5.69-1.3 9.67-6.29 9.67-12.13s-3.98-10.83-9.67-12.13c-2.52-.58-4.19-2.98-3.84-5.54.08-.61.12-1.1.12-1.53 0-6.23-5.07-11.29-11.29-11.29-1.23 0-2.46.21-3.66.62-1.25.43-2.63.35-3.82-.24-1.19-.58-2.1-1.62-2.53-2.87-.92-2.69-3.44-4.49-6.27-4.49-3.66 0-6.64 2.98-6.64 6.64 0 2.76-2.24 5-5 5s-5-2.24-5-5c0-9.17 7.46-16.64 16.64-16.64 5.54 0 10.61 2.75 13.66 7.15.88-.11 1.75-.17 2.63-.17 11.29 0 20.55 8.82 21.25 19.94 8.08 3.51 13.43 11.46 13.43 20.56s-5.35 17.05-13.43 20.56c-.7 11.11-9.96 19.94-21.25 19.94-.88 0-1.76-.06-2.63-.17-3.05 4.39-8.11 7.14-13.66 7.14z"></path></g><path d="m134.13 248.31c-1.09 0-2.16-.36-3.04-1.03-1.43-1.1-35.33-27.35-54.59-69.45-12.01-26.25-14.44-56.01-6.83-83.81 7.65-27.96 24.99-52.17 48.84-68.18 15.06-10.11 31.98-16.65 50.29-19.43 21.65-3.29 44.43-.79 65.86 7.21 30.13 11.26 48.26 24.75 49.02 25.32.01 0 .01.01.02.01 9.52 7.21 15.51 19.01 15.63 30.8.1 9.99-4.06 18.81-11.72 24.85-5.37 4.23-11.72 7.97-18.88 11.1-1 .44-2.11.54-3.17.28-.44-.1-44.22-10.25-74.14 9.77-14.63 9.79-23.73 25.38-27.04 46.34-.23 1.45-1.08 2.72-2.32 3.48-1.25.76-2.77.95-4.16.49-.64-.2-16.04-4.94-20.38 6.63-2.41 6.4-.44 13.89 4.91 18.64l15.98 14.2c1.81 1.61 2.21 4.29.94 6.36l-20.93 34.02c-.74 1.2-1.96 2.04-3.35 2.3-.33.07-.63.1-.94.1zm53.48-233.3c-5.82 0-11.61.43-17.32 1.3-16.84 2.56-32.39 8.56-46.22 17.85-45.36 30.46-61.54 89.14-38.48 139.52 14.28 31.21 37.73 53.74 47.31 62.1l15.71-25.53-12.84-11.42c-8.42-7.48-11.49-19.39-7.63-29.63 5.04-13.43 18.01-15.22 27.31-13.88 4.42-21.24 14.65-37.33 30.44-47.88 30.42-20.32 71.35-13.38 80.29-11.53 5.77-2.65 10.89-5.71 15.23-9.14 6.62-5.22 7.96-12.07 7.91-16.9-.08-8.62-4.66-17.61-11.65-22.92-.37-.28-17.99-13.29-46.51-23.95-14.18-5.3-28.97-7.99-43.55-7.99z"></path></g></svg>