<!-- icon666.com - MILLIONS vector ICONS FREE --><svg viewBox="-59 0 512 512.001" xmlns="http://www.w3.org/2000/svg"><path d="m386.347656 331.355469-37.425781-20.84375c-8.90625-4.960938-18.925781-6.292969-28.398437-4.050781 2.160156-9.496094 4.101562-17.28125 5.671874-22.445313.039063-.125.078126-.253906.117188-.390625l1.265625-4.277344c1.171875-3.96875-1.09375-8.144531-5.066406-9.316406-3.972657-1.175781-8.144531 1.09375-9.320313 5.066406l-1.292968 4.378906c-.003907.015626-.011719.027344-.015626.042969-.007812.027344-.015624.054688-.023437.085938-8.464844 27.796875-26.988281 127.558593-34.5625 169.167969-.683594 3.769531-2.683594 7.203124-5.625 9.660156-2.953125 2.460937-6.691406 3.8125-10.527344 3.8125-8.15625 0-14.980469-5.847656-16.21875-13.914063l-.84375-5.457031c.144531-.128906.289063-.261719.425781-.402344l16.621094-17.589844c1.3125-1.394531 2.046875-3.238281 2.046875-5.152343v-22.308594l13.46875-4.457031c3.933594-1.300782 6.066407-5.542969 4.765625-9.476563-1.300781-3.929687-5.542968-6.066406-9.476562-4.765625l-8.757813 2.898438v-10.988282c0-4.144531-3.355469-7.5-7.5-7.5-4.140625 0-7.5 3.355469-7.5 7.5v21.476563.035156 24.605469l-6.984375 7.394531-10.53125-68.175781c-1.726562-11.144531-8.847656-20.664062-19.039062-25.464844-4.53125-2.140625-9.386719-3.226562-14.4375-3.226562-16.832032 0-30.90625 12.070312-33.46875 28.695312l-6.582032 42.617188-6.398437-3.191406-1.816406-41.542969c-.078125-1.761719-.773438-3.441407-1.96875-4.742188l-10.625-11.582031 12.460937-12.683594c.664063-.675781 1.191406-1.46875 1.558594-2.339844l11.050781-26.210937c1.609375-3.816406-.179687-8.214844-3.996093-9.824219-3.816407-1.609375-8.214844.179688-9.824219 3.996094l-10.492188 24.890625-10.910156 11.105469-7.253906-7.910156c-2.800781-3.050782-7.542969-3.253907-10.597657-.457032-3.050781 2.800782-3.257812 7.542969-.457031 10.597656l26.1875 28.546876 1.890625 43.226562c.121094 2.722656 1.707032 5.167969 4.148438 6.382812l14.640625 7.300782-5.277344 34.179687c-.601563 3.871094-2.570313 7.410157-5.542969 9.957031-3.128906 2.679688-7.113281 4.082032-11.234375 3.945313-7.671875-.25-14.273437-6.121094-15.699219-13.953125-1.03125-5.664062-2.246093-12.296875-3.597656-19.605469-.75-4.074219-4.667968-6.769531-8.734375-6.015625-4.074219.75-6.765625 4.664063-6.015625 8.738282 1.347656 7.292968 2.5625 13.917968 3.589844 19.570312 2.683594 14.734375 15.285156 25.777344 29.964844 26.261719 7.902344.261719 15.5-2.421875 21.488281-7.550781 5.691406-4.878907 9.457031-11.644532 10.605469-19.058594l14.265625-92.363282c1.425781-9.257812 9.265625-15.980468 18.640625-15.980468 2.816406 0 5.519531.601562 8.035156 1.792968 5.6875 2.679688 9.65625 7.984376 10.617188 14.191407l14.265624 92.355469c2.375 15.433593 15.429688 26.632812 31.042969 26.632812 7.339844 0 14.488281-2.589844 20.136719-7.296875 5.640625-4.710937 9.46875-11.28125 10.773438-18.5 2.429687-13.332031 5.984374-32.671875 9.96875-53.664063l21.4375 12.828126 3.304687 27.597656c.457031 3.808594 3.695313 6.609375 7.4375 6.609375.296875 0 .597656-.019531.902344-.054688 4.109375-.492187 7.046875-4.226562 6.554687-8.339843l-1.101562-9.195313h16.125c4.140625 0 7.5-3.359375 7.5-7.5 0-4.144531-3.359375-7.5-7.5-7.5h-17.917969l-.84375-7.054687c-.277344-2.304688-1.605469-4.355469-3.597656-5.542969l-29.300781-17.53125c3.851562-20.007813 7.921874-40.515625 11.644531-58.042969 7.742187-4.675781 17.054687-4.847656 24.960937-.445312l37.421875 20.84375c.195313.109374.316407.3125.316407.535156v151.390625c0 .339843-.273438.613281-.613282.613281h-363.136718c-.339844 0-.613282-.273438-.613282-.613281v-151.390625c0-.222656.121094-.429688.3125-.535156l37.425782-20.84375c7.941406-4.425782 17.222656-4.234376 24.964843.453124 2.582031 12.15625 5.515625 26.625 8.792969 43.367188l-20.390625 30.066406-30.261719 7.058594c-4.035156.941406-6.542968 4.976562-5.601562 9.007812.808594 3.460938 3.890625 5.796876 7.296875 5.796876.566406 0 1.136719-.0625 1.710937-.195313l9.460938-2.207031 4.253906 12.316406c1.074219 3.101562 3.980469 5.050781 7.089844 5.050781.8125 0 1.640625-.132812 2.449218-.414062 3.917969-1.351563 5.992188-5.625 4.640626-9.539063l-3.746094-10.839844 8.972656-2.09375c1.835938-.429687 3.445312-1.535156 4.503906-3.09375l13.640625-20.121093c.675781 3.535156 1.355469 7.105469 2.042969 10.726562.683594 3.597657 3.828125 6.105469 7.359375 6.105469.464844 0 .933594-.042969 1.40625-.132812 4.066406-.769532 6.742187-4.695313 5.972656-8.765626-1.871093-9.871093-3.714843-19.472656-5.480469-28.539062-8.863281-45.4375-15.363281-75.050781-19.289062-87.9375-.027344-.105469-.0625-.210938-.097656-.324219l-17.964844-60.742187c-1.835938-6.226563-2.765625-12.597656-2.765625-18.9375 0-16.136719 5.980469-31.753906 16.847656-43.96875 2.753907-3.09375 2.480469-7.835938-.617187-10.585938-3.097656-2.753906-7.835938-2.476562-10.589844.617188-13.3125 14.964844-20.640625 34.121094-20.640625 53.9375 0 7.777344 1.136719 15.574218 3.382813 23.1875l17.996093 60.859375c.019531.058593.039063.121093.058594.179687.007813.023438.011719.046875.019531.066406 1.5 4.925782 3.40625 12.460938 5.695313 22.53125-9.488281-2.207031-19.613281-.894531-28.414063 4.007813l-37.425781 20.839844c-4.941406 2.757812-8.015625 7.984375-8.015625 13.640625v151.390625c0 8.609375 7.003906 15.613281 15.613281 15.613281h363.132813c8.609375 0 15.617187-7.003906 15.617187-15.613281v-151.390625c0-5.65625-3.070312-10.886719-8.015625-13.640625zm0 0"></path><path d="m102.488281 138.628906c8.070313-3.367187 16.664063-5.074218 25.535157-5.074218 6.273437 0 12.488281.875 18.464843 2.597656 11.167969 3.234375 22.664063 5.375 34.277344 6.421875l-6.984375 14.113281c-7.808594-1.101562-15.574219-2.757812-23.117188-4.941406-3.980468-1.152344-8.136718 1.140625-9.292968 5.117187-1.152344 3.980469 1.140625 8.136719 5.117187 9.289063 6.648438 1.925781 13.453125 3.476562 20.3125 4.632812l-15.21875 30.738282c-2.335937 4.722656-2.449219 10.042968-.308593 14.589843 2.058593 4.378907 6.023437 7.542969 10.871093 8.6875 1.25.292969 2.503907.4375 3.742188.4375 5.53125 0 10.773437-2.832031 13.765625-7.683593l27.449218-44.503907c13.816407-.75 27.53125-3.0625 40.773438-6.898437 3.976562-1.148438 6.269531-5.308594 5.117188-9.289063-1.152344-3.980469-5.316407-6.265625-9.289063-5.117187-8.75 2.53125-17.726563 4.328125-26.796875 5.40625l10.03125-16.269532c7.054688-1.164062 14.09375-2.746093 20.929688-4.726562 5.984374-1.726562 12.203124-2.601562 18.476562-2.601562 13.324219 0 26.125 3.890624 37.015625 11.257812 24.105469 16.296875 34.769531 45.957031 26.535156 73.800781l-7.40625 25.042969c-1.171875 3.972656 1.09375 8.144531 5.066407 9.316406.710937.210938 1.425781.3125 2.128906.3125 3.238281 0 6.226562-2.113281 7.191406-5.375l7.402344-25.042968c10.097656-34.144532-2.972656-70.507813-32.519532-90.480469-13.378906-9.050781-29.082031-13.835938-45.414062-13.835938-7.683594 0-15.296875 1.074219-22.644531 3.195313-1.960938.566406-3.945313 1.089844-5.9375 1.585937l14.113281-22.886719c3.816406-6.222656 4.332031-13.90625 1.382812-20.542968-3.570312-8.035156-11.785156-13.222656-20.933593-13.222656h-26.824219l32.109375-44.738282c3.042969-4.242187 3.453125-9.761718 1.070313-14.410156-2.382813-4.644531-7.105469-7.53125-12.328126-7.53125h-40.003906c-7.828125 0-14.863281 4.652344-17.925781 11.851562-29.222656 68.753907-29.222656 74.851563-29.222656 77.453126 0 12.394531 10.085937 22.480468 22.480469 22.480468h34.324218l-8.054687 16.277344c-12.640625-.695312-25.175781-2.808594-37.296875-6.320312-7.335938-2.113282-14.949219-3.1875-22.632813-3.1875-10.859375 0-21.394531 2.09375-31.308593 6.226562-3.824219 1.59375-5.628907 5.984375-4.035157 9.808594 1.597657 3.824218 5.988281 5.632812 9.8125 4.039062zm59.191407-41.84375c-4.0625 0-7.382813-3.261718-7.476563-7.304687.242187-1.703125 2.777344-12.363281 28.023437-71.761719.703126-1.652344 2.320313-2.71875 4.121094-2.71875h37.777344l-39.332031 54.804688c-1.640625 2.285156-1.863281 5.296874-.582031 7.796874 1.285156 2.503907 3.863281 4.078126 6.675781 4.078126h41.4375c3.175781 0 6.078125 1.730468 7.222656 4.3125 1.363281 3.066406.132813 5.652343-.449219 6.601562l-72.210937 117.089844c-.207031.332031-.671875.667968-1.300781.519531-.585938-.136719-.695313-.375-.742188-.476563-.066406-.140624-.25-.671874.183594-1.546874l49.78125-100.566407c1.148437-2.328125 1.019531-5.082031-.351563-7.285156-1.367187-2.203125-3.777343-3.542969-6.371093-3.542969zm0 0"></path><path d="m330.320312 121.84375c1.496094 0 3.007813-.445312 4.320313-1.375l36.820313-26.019531c2.167968-1.53125 3.367187-4.097657 3.148437-6.746094-.222656-2.644531-1.824219-4.980469-4.21875-6.132813l-10.09375-4.871093 14.84375-10.488281c3.382813-2.390626 4.1875-7.070313 1.796875-10.453126-2.390625-3.382812-7.070312-4.191406-10.453125-1.796874l-25.242187 17.835937c-2.167969 1.53125-3.367188 4.097656-3.144532 6.746094.21875 2.644531 1.820313 4.980469 4.214844 6.132812l10.097656 4.871094-26.425781 18.671875c-3.382813 2.386719-4.1875 7.066406-1.796875 10.453125 1.460938 2.066406 3.777344 3.171875 6.132812 3.171875zm0 0"></path><path d="m23.566406 66.210938 14.84375 10.488281-10.09375 4.871093c-2.394531 1.152344-3.996094 3.488282-4.21875 6.132813-.21875 2.648437.980469 5.214844 3.148438 6.746094l36.820312 26.019531c1.3125.929688 2.824219 1.375 4.320313 1.375 2.355469 0 4.671875-1.105469 6.132812-3.171875 2.390625-3.382813 1.585938-8.0625-1.796875-10.453125l-26.425781-18.671875 10.097656-4.871094c2.394531-1.152343 3.996094-3.484375 4.214844-6.132812.222656-2.648438-.976563-5.214844-3.144531-6.746094l-25.242188-17.835937c-3.382812-2.390626-8.0625-1.585938-10.453125 1.796874-2.390625 3.382813-1.585937 8.0625 1.796875 10.453126zm0 0"></path></svg>