<svg xmlns="http://www.w3.org/2000/svg" width="61" height="70" viewBox="0 0 61 70" fill="#fff">
	<path d="M1.05121 70H21.0243C21.1623 70 21.299 69.9698 21.4266 69.9112C21.5541 69.8526 21.67 69.7666 21.7676 69.6583C22.0089 69.3904 24.1558 66.7689 25.221 57.3113C25.7504 52.6116 27.6651 47.887 29.4504 44.3333H57.8168C58.6529 44.3323 59.4545 43.9632 60.0457 43.3071C60.6369 42.6509 60.9695 41.7613 60.9704 40.8333V3.5C60.9695 2.57206 60.6369 1.68243 60.0457 1.02628C59.4545 0.370126 58.6529 0.00104217 57.8168 0H19.9731C19.137 0.00104217 18.3354 0.370126 17.7441 1.02628C17.1529 1.68243 16.8204 2.57206 16.8194 3.5V34.0891L9.20601 36.2015C9.02119 36.2526 8.85237 36.3584 8.71759 36.5078L0.307874 45.8411C0.210199 45.9495 0.132733 46.0782 0.0799059 46.2199C0.0270787 46.3615 -7.39313e-05 46.5134 1.51185e-07 46.6667V68.8333C1.51185e-07 69.1428 0.110753 69.4395 0.307894 69.6583C0.505034 69.8771 0.772415 70 1.05121 70ZM57.8168 42H30.6255C31.0959 40.7753 31.1771 39.4094 30.8556 38.1267C30.5341 36.8441 29.8291 35.7209 28.8565 34.9417L28.7251 34.8374C29.1909 33.455 29.4346 31.5293 29.4346 29.1703C29.4346 29.147 29.4933 26.8332 30.4859 26.8332C31.4785 26.8332 31.5371 29.147 31.5371 29.1665C31.5371 31.6689 31.7999 33.6465 32.3167 35.0448C33.0527 37.036 34.1196 37.3333 34.6901 37.3333C35.4296 37.3333 36.4424 36.9674 37.0684 35.2243C37.5901 33.7709 37.8437 31.4078 37.8437 28C37.8437 24.451 38.3705 22.0598 38.8949 20.0005C39.4193 22.0598 39.9461 24.451 39.9461 28C39.9461 32.6152 40.3209 37.3333 43.0998 37.3333C43.6702 37.3333 44.7372 37.036 45.4738 35.0449C45.9906 33.6467 46.2534 31.669 46.2534 29.1705C46.2534 29.1471 46.312 26.8333 47.3046 26.8333C48.2972 26.8333 48.3558 29.1471 48.3558 29.1667C48.3558 31.669 48.6186 33.6467 49.1354 35.0449C49.8721 37.036 50.9391 37.3333 51.5095 37.3333C52.249 37.3333 53.2619 36.9674 53.8879 35.2243C54.4095 33.7709 54.6631 31.4078 54.6631 28C54.6631 24.3542 55.2188 21.9306 55.757 19.8333H58.868V40.8333C58.8677 41.1426 58.7568 41.4392 58.5597 41.6579C58.3627 41.8766 58.0955 41.9997 57.8168 42ZM18.9218 19.8333H22.0328C22.5715 21.9306 23.1267 24.3542 23.1267 28C23.1267 30.5925 23.274 32.5792 23.5735 34.0217C22.4697 34.5047 21.5451 35.387 20.9495 36.5259L18.9218 40.4139V19.8333ZM23.1267 14C23.1267 10.7504 26.6587 9.37519 27.3176 9.33333C27.6905 9.40435 28.8688 10.25 29.8099 11.1242C29.9992 11.3001 30.2382 11.3966 30.4851 11.3966C30.732 11.3966 30.971 11.3001 31.1602 11.1242C32.101 10.2502 33.2784 9.40508 33.6522 9.33304C34.3208 9.37781 37.844 10.7536 37.844 13.9997C37.844 15.218 37.6337 16.3244 37.3483 17.4997H23.6224C23.3369 16.3247 23.1267 15.2183 23.1267 14ZM54.1675 17.5H40.4418C40.1564 16.3247 39.9461 15.2183 39.9461 14C39.9461 10.7504 43.4781 9.37519 44.1371 9.33333C44.51 9.40435 45.6882 10.25 46.6293 11.1242C46.8186 11.3001 47.0576 11.3966 47.3045 11.3966C47.5514 11.3966 47.7904 11.3001 47.9796 11.1242C48.9205 10.2502 50.0978 9.40508 50.4717 9.33304C51.1402 9.37781 54.6634 10.7536 54.6634 13.9997C54.6631 15.2183 54.4529 16.3247 54.1675 17.5ZM53.5738 19.8333C52.8907 22.4889 52.5496 25.2384 52.5607 28C52.5607 33.458 51.8511 34.8759 51.5489 34.992C51.273 34.7761 50.4583 33.3624 50.4583 29.1667C50.4583 27.5526 49.7992 24.5 47.3046 24.5C44.8101 24.5 44.151 27.5526 44.151 29.1667C44.151 33.3624 43.3363 34.7761 43.0603 34.992C42.759 34.8753 42.0486 33.458 42.0486 28C42.0596 25.2384 41.7185 22.4889 41.0354 19.8333H53.5738ZM25.6486 33.6203C25.4275 32.6207 25.2291 30.9127 25.2291 28C25.2402 25.2384 24.8991 22.4889 24.216 19.8333H36.7544C36.0713 22.4889 35.7302 25.2384 35.7413 28C35.7413 33.458 35.0317 34.8759 34.7295 34.992C34.4535 34.7761 33.6388 33.3624 33.6388 29.1667C33.6388 27.5526 32.9797 24.5 30.4852 24.5C27.9907 24.5 27.3316 27.5526 27.3316 29.1667C27.3316 31.5309 27.077 32.9646 26.8254 33.8053C26.4407 33.6946 26.0459 33.6325 25.6486 33.6203V33.6203ZM19.9731 2.33333H57.8168C58.0955 2.33368 58.3627 2.45671 58.5597 2.67543C58.7568 2.89414 58.8677 3.19069 58.868 3.5V17.5H56.339C56.6111 16.3574 56.7544 15.1818 56.7655 14C56.7655 9.18196 51.9273 7 50.4583 7C49.5503 7 48.2656 7.91977 47.3046 8.73542C46.3437 7.91977 45.059 7 44.151 7C43.1146 7 40.4033 8.08777 38.8949 10.4189C37.3866 8.08777 34.6752 7 33.6388 7C32.7309 7 31.4461 7.91977 30.4852 8.73542C29.5243 7.91977 28.2395 7 27.3316 7C25.8625 7 21.0243 9.18196 21.0243 14C21.0354 15.1818 21.1787 16.3574 21.4508 17.5H18.9218V3.5C18.9222 3.19069 19.033 2.89414 19.2301 2.67543C19.4272 2.45671 19.6944 2.33368 19.9731 2.33333ZM2.10243 47.1498L9.99836 38.3868L16.8194 36.4942V41.715C16.3112 42.7949 15.5603 43.7108 14.6394 44.3739C13.7186 45.037 12.659 45.4249 11.5634 45.5C11.3968 45.5 11.2326 45.5439 11.0843 45.6281C10.936 45.7124 10.8079 45.8345 10.7105 45.9845C10.6131 46.1344 10.5492 46.308 10.5241 46.4907C10.499 46.6735 10.5133 46.8602 10.566 47.0356C11.5494 50.3093 11.5634 54.7896 11.5634 54.8333C11.5633 55.0901 11.6396 55.3396 11.7804 55.5434C11.9211 55.7471 12.1185 55.8936 12.3419 55.9602C12.5653 56.0268 12.8023 56.0097 13.0161 55.9117C13.2298 55.8136 13.4085 55.64 13.5244 55.4178L22.7694 37.695C22.9897 37.2729 23.287 36.9066 23.6423 36.6196C23.9976 36.3325 24.403 36.131 24.8325 36.028C25.2621 35.925 25.7063 35.9228 26.1367 36.0215C26.5671 36.1203 26.9741 36.3177 27.3317 36.6013L27.6346 36.8413C28.2772 37.3558 28.7228 38.1188 28.8837 38.9799C29.0445 39.841 28.9089 40.7377 28.5035 41.4934C26.4192 45.338 23.7959 51.1528 23.1349 57.0224C22.3681 63.8304 21.0324 66.736 20.4971 67.6671H2.10243V47.1498ZM15.8626 46.2786L13.4344 50.9332C13.3195 49.8268 13.1443 48.7292 12.9097 47.6464C13.9619 47.3976 14.9632 46.9338 15.8626 46.2786V46.2786Z" />
</svg>
