<svg xmlns="http://www.w3.org/2000/svg" width="64" height="70" viewBox="0 0 64 70" fill="none">
	<path d="M16.9561 19.2522C16.403 19.2522 15.9505 19.76 15.9505 20.3805V21.0011C15.9631 21.7345 15.4478 22.3269 14.7942 22.3551H14.7816C14.1154 22.3551 13.5749 21.7487 13.5624 21.0011V20.3805C13.5624 19.76 13.1099 19.2522 12.5568 19.2522C12.0038 19.2522 11.5513 19.76 11.5513 20.3805V21.0011C11.5638 21.9602 11.9032 22.877 12.5191 23.554C13.1099 24.231 13.9269 24.6118 14.769 24.6118C16.5413 24.6118 17.9616 23.0039 17.9616 21.0011V20.3805C17.9616 19.76 17.5091 19.2522 16.9561 19.2522Z" fill="#fff" />
	<path d="M28.0171 19.2668C27.4641 19.2668 27.0116 19.7746 27.0116 20.3951V21.0156C27.0116 21.749 26.4711 22.3554 25.8175 22.3554C25.1639 22.3554 24.6234 21.749 24.6234 21.0156V20.3951C24.6234 19.7746 24.1709 19.2668 23.6179 19.2668C23.0648 19.2668 22.6123 19.7746 22.6123 20.3951V21.0156C22.6123 23.0042 24.0578 24.6119 25.8301 24.6119C27.6023 24.6119 29.0352 22.9901 29.0227 21.0156V20.3951C29.0227 19.7746 28.5702 19.2668 28.0171 19.2668Z" fill="#fff" />
	<path d="M48.3417 36.9536C43.7288 36.9395 39.3798 39.3513 36.602 43.4839C35.0308 42.3555 33.2082 41.749 31.348 41.749H26.006V39.7744C28.3062 38.6179 30.2796 36.7984 31.725 34.4853C33.2082 32.1299 34.0755 29.3654 34.2263 26.4882C35.8478 26.065 37.0042 24.443 37.0167 22.5813C37.0167 21.5093 36.6397 20.4797 35.9609 19.7181C35.4959 19.2103 34.9302 18.8436 34.3018 18.6744V12.13H36.3631C36.9162 12.13 37.3687 11.6222 37.3687 11.0016C37.3561 4.93674 32.982 0.0143345 27.5646 0.000230143H18.5147C17.0818 -0.0138742 15.7117 0.62082 14.6936 1.76327C14.417 2.07357 14.1657 2.41207 13.9646 2.79289C9.47729 3.03266 7.15196 6.82672 6.47322 10.4092C6.47322 10.4233 6.47322 10.4233 6.47322 10.4374C6.43551 10.7054 6.41037 10.9734 6.41037 11.2414V18.6179C5.68135 18.7449 5.01517 19.1398 4.49983 19.7322C3.09206 21.2978 3.09206 23.8506 4.48726 25.4303C5.01517 26.0227 5.69392 26.4176 6.43551 26.5587C6.80002 32.5671 10.2189 37.7998 15.2089 40.0283V41.749H9.86694C4.43698 41.749 0 46.7702 0 52.8491V66.6573C0.0125694 67.292 0.452497 67.8138 1.03069 67.842H40.5236C40.6493 67.8279 40.7875 67.7997 40.9007 67.7292C43.1632 69.2243 45.7399 70 48.3543 70C56.4741 70 63.073 62.5811 63.073 53.4838C63.073 44.3865 56.4615 36.9536 48.3417 36.9536ZM6.3978 24.2033C5.76933 23.9353 5.44253 23.3006 5.44253 22.5813C5.44253 22.1158 5.60593 21.6645 5.9076 21.326C6.04586 21.1567 6.20926 21.0298 6.3978 20.9452V24.2033ZM34.5532 21.3401C34.8548 21.6645 35.0308 22.1158 35.0308 22.5813C35.0308 23.2018 34.6663 23.7519 34.2892 24.0622V21.1003C34.3018 21.1567 34.4777 21.2413 34.5532 21.3401ZM15.4603 4.38668C15.6237 3.99175 15.85 3.65325 16.1139 3.35706C16.7549 2.65184 17.6097 2.24282 18.5147 2.25692H27.5646C31.4862 2.22871 34.8045 5.50092 35.2822 9.87326H18.5147C18.4769 9.87326 18.4518 9.85915 18.4141 9.85915C18.3764 9.85915 18.3513 9.84505 18.3135 9.84505C16.5161 9.73222 15.1209 8.06791 15.1209 6.05099C15.1209 5.47271 15.2341 4.90854 15.4603 4.38668ZM8.4089 11.2414C8.4089 11.1144 8.42147 10.9875 8.43404 10.8747C8.54716 10.2682 8.91167 8.74491 9.8418 7.41911C10.6588 6.22024 11.8403 5.41629 13.1727 5.16241C12.8082 7.91276 14.1531 10.5926 16.4533 11.6504C13.3864 15.3175 9.91722 15.783 8.4089 15.7689V11.2414ZM11.9032 34.9507C9.65326 32.4402 8.39633 29.0269 8.4089 25.4726V18.0538C10.5205 18.0538 15.0329 17.3486 18.7409 12.13H32.2907V25.4726C32.2655 31.058 29.186 36.0368 24.5228 38.0114C21.9587 39.0833 19.1431 39.1397 16.5538 38.1665C14.8067 37.5177 13.2104 36.4035 11.9032 34.9507ZM19.3442 65.5853H1.99853V52.8491C2.0111 48.1806 5.26656 44.3301 9.41445 44.0763V47.1087C8.48431 47.3202 7.61703 47.8421 6.96342 48.6178C6.03329 49.6616 5.50538 51.0861 5.51795 52.5671V58.7871C5.51795 59.4077 5.92017 59.9436 6.47322 59.9436H8.05696C8.61001 59.9436 9.0625 59.4359 9.0625 58.8153C9.0625 58.1947 8.61001 57.6869 8.05696 57.6869H7.52904V52.5671C7.51647 51.6926 7.81814 50.8322 8.37119 50.2116C8.8991 49.591 9.62812 49.2384 10.3949 49.2243H10.4326C12.0791 49.2384 13.4115 50.7194 13.4366 52.5671V57.6869H12.4185C11.8655 57.6869 11.413 58.1947 11.413 58.8153C11.413 59.4359 11.8655 59.9436 12.4185 59.9436H14.4045C14.9701 59.9295 15.4352 59.4218 15.4477 58.7871V52.5671C15.4352 49.9013 13.7509 47.6164 11.4255 47.0946V44.0057H15.762L19.3442 48.3499V65.5853ZM17.2074 42.4966V40.7194C18.2381 40.9874 19.2814 41.1284 20.3372 41.1284C21.569 41.1284 22.8008 40.9451 23.9949 40.5784V42.4543L20.4252 46.2906L17.2074 42.4966ZM21.3553 65.5853V48.3781L25.3901 44.0057H27.2629V49.9578C25.4655 50.4655 24.196 52.285 24.1834 54.3724C24.196 56.883 26.0311 58.8999 28.2559 58.8858C30.4933 58.8717 32.2907 56.8125 32.2781 54.316C32.2655 53.1312 31.8507 52.0029 31.1091 51.1566C30.5938 50.5924 29.9653 50.1834 29.2615 49.9578V44.0057H31.3354C32.806 44.0057 34.2515 44.4853 35.4959 45.3738C32.2027 52.0311 33.3465 60.3667 38.2988 65.5853H21.3553V65.5853ZM28.2182 52.0734C28.7587 52.0734 29.2866 52.3132 29.6762 52.7504C30.4681 53.6531 30.4681 55.0917 29.6762 55.9944C28.8718 56.8971 27.5772 56.8971 26.7727 55.9944C25.9683 55.0917 25.9683 53.639 26.7727 52.7363C27.1498 52.3132 27.6777 52.0734 28.2182 52.0734ZM48.3417 67.7292C41.328 67.7292 35.6341 61.354 35.6341 53.4838C35.6341 50.7194 36.3506 48.0114 37.6955 45.6982C41.5291 39.0974 49.3976 37.2357 55.2674 41.5375C61.1499 45.8393 62.8091 54.6686 58.9754 61.2553C56.6501 65.2892 52.6405 67.7292 48.3417 67.7292Z" fill="#fff" />
	<path d="M53.2059 44.4147C52.8917 44.3724 52.59 44.3583 52.2758 44.3865C51.4588 44.457 50.6544 44.6121 49.8625 44.866C49.322 45.0212 49.0078 45.6418 49.146 46.2482C49.2843 46.8547 49.8374 47.2073 50.3778 47.0522C51.044 46.8406 51.7353 46.7137 52.4266 46.6432C54.0858 46.5021 55.5313 47.8985 55.657 49.7461C55.6695 49.9577 55.6695 50.1552 55.6444 50.3667C55.393 52.9902 54.5634 57.0663 52.1124 61.8336L50.0636 57.6023C49.7996 57.0381 49.2843 56.6996 48.7187 56.6996C48.1405 56.6996 47.6252 57.0663 47.3612 57.6446L45.5261 61.7631C43.1002 57.024 42.2706 52.9761 42.0192 50.3667C41.8432 48.505 43.0499 46.8406 44.7091 46.6432C44.8473 46.6291 44.973 46.615 45.1113 46.6291C45.2998 46.8688 45.4758 47.1227 45.6518 47.3766C46.5945 48.787 48.3542 51.3964 51.7353 50.9168C52.2884 50.8463 52.678 50.2821 52.6026 49.6615C52.5272 49.0409 52.037 48.6037 51.4839 48.6883C49.2592 48.9986 48.1405 47.3484 47.2606 46.0226C46.695 45.1763 46.2048 44.457 45.4255 44.3865C42.6603 44.1467 40.2344 46.4598 40.0207 49.5769C39.9956 49.9295 39.9956 50.268 40.0333 50.6206C40.3224 53.6108 41.2902 58.3357 44.2691 63.8082C44.5582 64.3442 45.0861 64.6545 45.6392 64.6263C46.1922 64.5981 46.6824 64.2314 46.9213 63.6813L48.7313 59.6051L50.7424 63.7518C50.9937 64.2878 51.4839 64.6263 52.037 64.6545C52.0496 64.6545 52.0621 64.6545 52.0873 64.6545C52.6152 64.6545 53.118 64.3442 53.3945 63.8365C56.386 58.3498 57.3538 53.6249 57.6555 50.6206C57.9572 47.5317 55.9586 44.7532 53.2059 44.4147Z" fill="#fff" />
</svg>
