<svg xmlns="http://www.w3.org/2000/svg" width="49" height="70" viewBox="0 0 49 70" fill="#3695a7">
	<path d="M24.1827 3.5498C22.5989 3.5498 21.3103 4.97997 21.3103 6.73786C21.3103 8.49576 22.5989 9.92592 24.1827 9.92592C25.7665 9.92592 27.0551 8.49576 27.0551 6.73786C27.0551 4.97997 25.7665 3.5498 24.1827 3.5498ZM24.1827 7.87488C23.6178 7.87488 23.1581 7.36475 23.1581 6.73773C23.1581 6.1107 23.6178 5.60057 24.1827 5.60057C24.7476 5.60057 25.2073 6.1107 25.2073 6.73773C25.2073 7.36475 24.7476 7.87488 24.1827 7.87488Z" />
	<path d="M15.6649 11.2012C15.1546 11.2012 14.741 11.6603 14.741 12.2266V13.9374C14.741 14.5037 15.1546 14.9628 15.6649 14.9628C16.1751 14.9628 16.5888 14.5037 16.5888 13.9374V12.2266C16.5888 11.6603 16.1751 11.2012 15.6649 11.2012Z" />
	<path d="M32.7003 11.2012C32.19 11.2012 31.7764 11.6603 31.7764 12.2266V13.9374C31.7764 14.5037 32.19 14.9628 32.7003 14.9628C33.2105 14.9628 33.6242 14.5037 33.6242 13.9374V12.2266C33.6242 11.6603 33.2105 11.2012 32.7003 11.2012Z" />
	<path d="M26.8929 13.0464C26.5088 12.6736 25.9252 12.7172 25.5892 13.1435C25.248 13.5766 24.7354 13.8251 24.1827 13.8251C23.6299 13.8251 23.1172 13.5767 22.7761 13.1435C22.4403 12.7172 21.8566 12.6736 21.4724 13.0464C21.0882 13.4192 21.049 14.0668 21.3848 14.4933C22.077 15.3721 23.0968 15.876 24.1827 15.876C25.2686 15.876 26.2883 15.3719 26.9805 14.4933C27.3163 14.0668 27.2772 13.419 26.8929 13.0464Z" />
	<path d="M34.3669 41.2178H13.9986C13.4884 41.2178 13.0747 41.6769 13.0747 42.2432C13.0747 42.8097 13.4884 43.2686 13.9986 43.2686H34.3669C34.8771 43.2686 35.2908 42.8097 35.2908 42.2432C35.2908 41.6769 34.8771 41.2178 34.3669 41.2178Z" />
	<path d="M34.3669 47.4072H13.9986C13.4884 47.4072 13.0747 47.8663 13.0747 48.4326C13.0747 48.9989 13.4884 49.4579 13.9986 49.4579H34.3669C34.8771 49.4579 35.2908 48.9989 35.2908 48.4326C35.2908 47.8663 34.8771 47.4072 34.3669 47.4072Z" />
	<path d="M34.3669 53.5967H13.9986C13.4884 53.5967 13.0747 54.0558 13.0747 54.6221C13.0747 55.1884 13.4884 55.6476 13.9986 55.6476H34.3669C34.8771 55.6476 35.2908 55.1884 35.2908 54.6221C35.2908 54.0558 34.8771 53.5967 34.3669 53.5967Z" />
	<path d="M29.4084 27.587H27.055V24.9751C27.055 24.4087 26.6414 23.9497 26.1311 23.9497H22.2342C21.7239 23.9497 21.3103 24.4087 21.3103 24.9751V27.587H18.9569C18.4466 27.587 18.033 28.0461 18.033 28.6124V32.9375C18.033 33.5037 18.4466 33.9628 18.9569 33.9628H21.3103V36.5747C21.3103 37.141 21.7239 37.6001 22.2342 37.6001H26.1311C26.6414 37.6001 27.055 37.141 27.055 36.5747V33.9628H29.4084C29.9187 33.9628 30.3324 33.5037 30.3324 32.9375V28.6124C30.3324 28.0461 29.9187 27.587 29.4084 27.587ZM28.4845 31.9121H26.1311C25.6209 31.9121 25.2072 32.371 25.2072 32.9375V35.5493H23.1581V32.9375C23.1581 32.371 22.7444 31.9121 22.2342 31.9121H19.8808V29.6378H22.2342C22.7444 29.6378 23.1581 29.1787 23.1581 28.6124V26.0005H25.2072V28.6124C25.2072 29.1787 25.6209 29.6378 26.1311 29.6378H28.4845V31.9121Z" />
	<path d="M42.9964 10.7629H39.0492V9.15141C39.0492 7.45062 37.8024 6.06689 36.27 6.06689H30.5065C30.0574 2.64045 27.3926 0 24.1827 0C20.9728 0 18.3081 2.64045 17.8589 6.06689H12.0954C10.5629 6.06689 9.31615 7.45062 9.31615 9.15141V10.7629H5.36893C2.40859 10.7629 0 13.4359 0 16.7214V64.0415C0 67.327 2.40846 70 5.36893 70H9.80496C10.3152 70 10.7289 69.5409 10.7289 68.9746C10.7289 68.4083 10.3152 67.9492 9.80496 67.9492H5.36893C3.42748 67.9492 1.84783 66.1962 1.84783 64.0415V16.7214C1.84783 14.5667 3.42736 12.8137 5.36893 12.8137H9.31615V15.4723H5.36893C4.74831 15.4723 4.24348 16.0326 4.24348 16.7214V64.0415C4.24348 64.7303 4.74831 65.2906 5.36893 65.2906H42.9964C43.6171 65.2906 44.1219 64.7303 44.1219 64.0415V16.7214C44.1219 16.0326 43.6169 15.4723 42.9964 15.4723H39.0492V12.8137H42.9964C44.9379 12.8137 46.5175 14.5667 46.5175 16.7214V64.0415C46.5175 66.1962 44.938 67.9492 42.9964 67.9492H13.5006C12.9904 67.9492 12.5767 68.4083 12.5767 68.9746C12.5767 69.5409 12.9904 70 13.5006 70H42.9964C45.9568 70 48.3654 67.327 48.3654 64.0415V16.7214C48.3654 13.4359 45.9569 10.7629 42.9964 10.7629ZM42.2741 17.5232V63.2398H6.09131V17.5231H9.31615V17.7424C9.31615 19.4432 10.5629 20.8269 12.0954 20.8269H30.0079C30.5182 20.8269 30.9318 20.3678 30.9318 19.8015C30.9318 19.2352 30.5182 18.7761 30.0079 18.7761H12.0954C11.5818 18.7761 11.164 18.3124 11.164 17.7424V9.15141C11.164 8.58143 11.5818 8.11768 12.0954 8.11768H18.7163C19.2266 8.11768 19.6402 7.65857 19.6402 7.09229C19.6401 4.31238 21.6779 2.05078 24.1827 2.05078C26.6875 2.05078 28.7253 4.31238 28.7253 7.09229C28.7253 7.65857 29.1389 8.11768 29.6492 8.11768H36.27C36.7835 8.11768 37.2014 8.58143 37.2014 9.15141V17.7425C37.2014 18.3125 36.7835 18.7763 36.27 18.7763H33.7036C33.1933 18.7763 32.7797 19.2354 32.7797 19.8017C32.7797 20.368 33.1933 20.8271 33.7036 20.8271H36.27C37.8024 20.8271 39.0492 19.4433 39.0492 17.7425V17.5232H42.2741Z" />
</svg>
