<!-- icon666.com - MILLIONS vector ICONS FREE -->
<svg viewBox="-34 0 512 512.00005" xmlns="http://www.w3.org/2000/svg" fill="#fff">
	<path d="m113.332031 229.171875c8.605469 19.242187 13.578125 39.910156 14.667969 60.960937 0 34.910157 5.519531 85.46875 7.226562 100.121094 1.4375 11.425782 11.492188 19.773438 22.984376 19.085938 11.492187-.691406 20.476562-10.183594 20.535156-21.695313-.050782-17.691406 1.878906-60.902343 20.832031-79.90625 12.378906-12.097656 32.148437-12.097656 44.527344 0 18.953125 19.003907 20.878906 62.214844 20.828125 79.929688.085937 11.503906 9.078125 20.972656 20.5625 21.648437 11.484375.675782 21.527344-7.671875 22.957031-19.085937 1.757813-14.628907 7.28125-65.1875 7.28125-100.097657 1.089844-21.050781 6.0625-41.71875 14.667969-60.960937 6.042968-13.066406 9.742187-27.09375 10.929687-41.4375 0-.707031-.085937-1.414063-.253906-2.101563.160156-2.105468.253906-4.265624.253906-6.433593 0-25.738281-12.898437-49.769531-34.347656-63.996094s-48.601563-16.761719-72.316406-6.753906c-8.128907 3.4375-17.300781 3.4375-25.429688 0-23.734375-10.046875-50.921875-7.53125-72.410156 6.695312-21.488281 14.230469-34.417969 38.28125-34.429687 64.054688 0 2.152343.09375 4.328125.257812 6.433593-.167969.6875-.253906 1.394532-.257812 2.101563 1.191406 14.34375 4.890624 28.371094 10.933593 41.4375zm65.867188-109.707031c8.015625-.019532 15.953125 1.585937 23.332031 4.722656 12.398438 5.222656 26.382812 5.222656 38.78125 0 18.441406-7.78125 39.554688-5.808594 56.234375 5.253906s26.710937 29.742188 26.71875 49.757813c.003906 2.472656-.144531 4.9375-.441406 7.390625-3.761719 29.890625-29.164063 52.316406-59.289063 52.34375-4.714844 0-8.535156 3.820312-8.535156 8.53125 0 4.714844 3.820312 8.535156 8.535156 8.535156 15.234375-.011719 30.117188-4.578125 42.742188-13.105469-5.421875 15.171875-8.328125 31.128907-8.609375 47.238281 0 33.996094-5.445313 83.738282-7.109375 98.195313-.265625 2.414063-2.320313 4.238281-4.753906 4.207031-2.652344-.023437-4.789063-2.1875-4.777344-4.839844.066406-24.628906-3.191406-69.324218-25.8125-92.007812-19.046875-18.78125-49.648438-18.78125-68.695313 0-22.621093 22.683594-25.882812 67.414062-25.8125 91.980469.019531 2.664062-2.117187 4.835937-4.777343 4.867187-2.4375.027344-4.5-1.800781-4.753907-4.226562-1.664062-14.4375-7.109375-64.179688-7.109375-98.175782-.28125-16.109374-3.1875-32.066406-8.609375-47.238281 12.625 8.527344 27.507813 13.09375 42.742188 13.105469 4.714843 0 8.535156-3.820312 8.535156-8.535156 0-4.710938-3.820313-8.53125-8.535156-8.53125-30.121094-.027344-55.523438-22.449219-59.289063-52.335938-2.085937-16.996094 3.210938-34.066406 14.542969-46.902344 11.335937-12.832031 27.625-20.199218 44.746094-20.230468zm0 0">
	</path>
	<path d="m219.308594 511.726562c.960937.179688 1.9375.273438 2.917968.273438.71875 0 1.433594-.09375 2.132813-.273438 87.210937-22.554687 155.597656-76.175781 192.570313-150.988281 11.527343-23.246093 26.804687-57.625 26.804687-87.671875v-170.792968c-.089844-9.289063-7.542969-16.828126-16.828125-17.027344-134.296875-2.625-189.226562-69.886719-196.796875-80.058594-1.339844-3.144531-4.429687-5.1875-7.851563-5.1875h-.785156c-3.277344-.0078125-6.257812 1.90625-7.617187 4.890625-6.570313 9.09375-60.664063 77.652344-197.027344 80.355469-9.289063.199218-16.7382812 7.738281-16.828125 17.027344v170.792968c0 30.046875 15.273438 64.425782 26.769531 87.664063 36.972657 74.820312 105.359375 128.441406 192.539063 150.996093zm-202.148438-409.410156c125.695313-2.476562 185.59375-57.746094 204.707032-80.054687 19.113281 22.308593 79.027343 77.578125 204.800781 80.011719v170.792968c0 26.453125-14.269531 58.394532-25.003907 80.109375-34.5 69.796875-98.304687 120.023438-179.796874 141.578125-81.492188-21.554687-145.296876-71.78125-179.796876-141.585937-10.734374-21.707031-25.003906-53.648438-25.003906-80.101563zm0 0">
	</path>
</svg>
