<!-- icon666.com - MILLIONS vector ICONS FREE -->
<svg viewBox="0 0 64 64" xmlns="http://www.w3.org/2000/svg" fill="#fff">
	<g id="tooth_health" data-name="tooth health">
		<path d="m41.387 45.047 4.182-11.831a24.9 24.9 0 0 0 1.431-8.334v-.882a7.009 7.009 0 0 0 -7-7h-4c-1.736 0-3.141 1.612-4 2.936-.859-1.324-2.264-2.936-4-2.936h-4a7.009 7.009 0 0 0 -7 7v.882a24.9 24.9 0 0 0 1.431 8.334l4.179 11.824a2.909 2.909 0 0 0 5.606-.394l2.85-7.424a1 1 0 0 1 1.868 0l2.85 7.424a2.909 2.909 0 0 0 5.6.4zm-3.646-.818a1.042 1.042 0 0 0 -.054-.208l-2.887-7.516a3 3 0 0 0 -5.6 0l-2.886 7.516a1.042 1.042 0 0 0 -.054.208.91.91 0 0 1 -1.761.152l-4.184-11.831a22.943 22.943 0 0 1 -1.315-7.668v-.882a5.006 5.006 0 0 1 5-5h4c1.06 0 2.469 2.034 3.088 3.409a1 1 0 0 0 1.824 0c.619-1.375 2.028-3.409 3.088-3.409h4a5.006 5.006 0 0 1 5 5v.882a22.943 22.943 0 0 1 -1.315 7.668l-4.185 11.838a.909.909 0 0 1 -1.758-.159z">
		</path>
		<path d="m41 24v1h2v-1a3 3 0 0 0 -3-3h-1v2h1a1 1 0 0 1 1 1z">
		</path>
		<path d="m32 25c-1.12 0-3-.26-3-2h-2c0 1.846 1.31 4 5 4s5-2.154 5-4h-2c0 1.74-1.88 2-3 2z">
		</path>
		<path d="m31 9.858v5.142h2v-5.142a4 4 0 1 0 -2 0zm1-5.858a2 2 0 1 1 -2 2 2 2 0 0 1 2-2z">
		</path>
		<path d="m9.858 34h5.142v-2h-5.142a4 4 0 1 0 0 2zm-3.858 1a2 2 0 1 1 2-2 2 2 0 0 1 -2 2z">
		</path>
		<path d="m33 54.142v-5.142h-2v5.142a4 4 0 1 0 2 0zm-1 5.858a2 2 0 1 1 2-2 2 2 0 0 1 -2 2z">
		</path>
		<path d="m58 29a4 4 0 0 0 -3.858 3h-5.142v2h5.142a3.993 3.993 0 1 0 3.858-5zm0 6a2 2 0 1 1 2-2 2 2 0 0 1 -2 2z">
		</path>
		<path d="m40.52 9.105h1.999v1.811h-1.999z" transform="matrix(.389 -.921 .921 .389 16.158 44.374)">
		</path>
		<path d="m37.183 7.698h2.001v1.81h-2.001z" transform="matrix(.388 -.921 .921 .388 15.424 40.447)">
		</path>
		<path d="m43.856 10.512h2.001v1.81h-2.001z" transform="matrix(.388 -.921 .921 .388 16.912 48.316)">
		</path>
		<path d="m54.084 41.52h1.811v1.999h-1.811z" transform="matrix(.389 -.921 .921 .389 -5.566 76.649)">
		</path>
		<path d="m55.491 38.183h1.81v2.001h-1.81z" transform="matrix(.388 -.921 .921 .388 -1.619 75.928)">
		</path>
		<path d="m52.678 44.856h1.81v2.001h-1.81z" transform="matrix(.388 -.921 .921 .388 -9.488 77.416)">
		</path>
		<path d="m21.48 55.084h1.999v1.811h-1.999z" transform="matrix(.389 -.921 .921 .389 -37.845 54.938)">
		</path>
		<path d="m24.816 56.491h2.001v1.81h-2.001z" transform="matrix(.388 -.921 .921 .388 -37.101 58.89)">
		</path>
		<path d="m18.143 53.678h2.001v1.81h-2.001z" transform="matrix(.388 -.921 .921 .388 -38.589 51.021)">
		</path>
		<path d="m8.105 22.48h1.811v1.999h-1.811z" transform="matrix(.389 -.921 .921 .389 -16.126 22.651)">
		</path>
		<path d="m9.512 19.143h1.81v2.001h-1.81z" transform="matrix(.388 -.921 .921 .388 -12.191 21.917)">
		</path>
		<path d="m6.698 25.816h1.81v2.001h-1.81z" transform="matrix(.388 -.921 .921 .388 -20.06 23.405)">
		</path>
		<path d="m8.011 41.614h1.999v1.811h-1.999z" transform="matrix(.921 -.389 .389 .921 -15.825 6.85)">
		</path>
		<path d="m6.603 38.279h2.001v1.81h-2.001z" transform="matrix(.921 -.388 .388 .921 -14.625 6.032)">
		</path>
		<path d="m9.417 44.951h2.001v1.81h-2.001z" transform="matrix(.921 -.388 .388 .921 -16.997 7.649)">
		</path>
		<path d="m43.951 53.583h1.81v2.001h-1.81z" transform="matrix(.921 -.388 .388 .921 -17.682 21.714)">
		</path>
		<path d="m37.279 56.396h1.81v2.001h-1.81z" transform="matrix(.921 -.388 .388 .921 -19.299 19.342)">
		</path>
		<path d="m40.614 54.99h1.811v1.999h-1.811z" transform="matrix(.921 -.389 .389 .921 -18.504 20.551)">
		</path>
		<path d="m55.396 25.911h2.001v1.81h-2.001z" transform="matrix(.921 -.388 .388 .921 -5.988 24.016)">
		</path>
		<path d="m52.583 19.238h2.001v1.81h-2.001z" transform="matrix(.921 -.388 .388 .921 -3.617 22.396)">
		</path>
		<path d="m53.99 22.574h1.999v1.811h-1.999z" transform="matrix(.921 -.389 .389 .921 -4.803 23.23)">
		</path>
		<path d="m21.574 9.011h1.811v1.999h-1.811z" transform="matrix(.921 -.389 .389 .921 -2.123 9.529)">
		</path>
		<path d="m24.911 7.603h1.81v2.001h-1.81z" transform="matrix(.921 -.388 .388 .921 -1.315 10.705)">
		</path>
		<path d="m18.238 10.417h1.81v2.001h-1.81z" transform="matrix(.921 -.388 .388 .921 -2.932 8.334)">
		</path>
		<path d="m19.979 46.435-1.414-1.414-3.546 3.546a3.947 3.947 0 0 0 -2.019-.567 4 4 0 1 0 4 4 3.947 3.947 0 0 0 -.567-2.019zm-6.979 7.565a2 2 0 1 1 2-2 2 2 0 0 1 -2 2z">
		</path>
		<path d="m47.707 18.707 1.274-1.274a3.947 3.947 0 0 0 2.019.567 4 4 0 1 0 -4-4 3.947 3.947 0 0 0 .567 2.019l-1.274 1.274zm3.293-6.707a2 2 0 1 1 -2 2 2 2 0 0 1 2-2z">
		</path>
		<path d="m13 18a3.947 3.947 0 0 0 2.019-.567l1.274 1.274 1.414-1.414-1.274-1.274a3.947 3.947 0 0 0 .567-2.019 4 4 0 1 0 -4 4zm0-6a2 2 0 1 1 -2 2 2 2 0 0 1 2-2z">
		</path>
		<path d="m51 48a3.947 3.947 0 0 0 -2.019.567l-3.546-3.546-1.414 1.414 3.546 3.546a3.947 3.947 0 0 0 -.567 2.019 4 4 0 1 0 4-4zm0 6a2 2 0 1 1 2-2 2 2 0 0 1 -2 2z">
		</path>
	</g>
</svg>
