<svg xmlns="http://www.w3.org/2000/svg" width="117" height="129">
	<g fill="none" fill-rule="evenodd" stroke="#fff" stroke-linecap="round" stroke-linejoin="round" stroke-width="3">
		<path d="M30.832 12.932c-14.825 2.114-17.336 15.764-17.464 18.822m75.448-11.292c-4.995.296-12.265-.021-19.613-3.626-5.28-2.591-7.338-5.803-10.245-7.495-16.343-9.513-35.62-8.69-46.94 1.996-3.035 2.864-5.19 6.137-6.676 9.591m-2.61 10.205C1.455 42.67 5 53.856 6.422 57.238a72.93 72.93 0 0 0 5.844 11.104l.447.738c2.018 3.339 5.091 5.914 8.751 7.26a108.669 108.669 0 0 0 37.49 6.686c15.715 0 28.593-3.415 37.46-6.673 3.653-1.343 6.697-3.93 8.74-7.243.156-.252.318-.509.484-.768a72.596 72.596 0 0 0 5.852-11.107c2.276-5.407 10.15-31.006-5.591-45.893C94.842.888 76.035-.66 60.275 8.418m-24.823 3.586-.03.034m10.771 75.788-.808-5.215m2.795 18.449-.875-5.649m2.996 19.339-.892-5.76m17.383 8.268-1.522 9.826H51.758l-.613-3.956m18.466-21.13-.957 6.18M72.01 86.52l-1.028 6.635"/>
		<path d="M82.161 80.604a3.81 3.81 0 0 1-2.485 3.157L40.83 97.74a3.805 3.805 0 0 1-4.856-2.287 3.808 3.808 0 0 1 2.286-4.859l20.58-7.406m17.614 16.069-32.4 11.661a3.806 3.806 0 0 1-4.857-2.287 3.809 3.809 0 0 1 2.286-4.859l32.4-11.662a3.807 3.807 0 0 1 4.857 2.288 3.809 3.809 0 0 1-2.286 4.86zm-3.565 15.733-25.27 9.095a3.807 3.807 0 0 1-4.858-2.288 3.809 3.809 0 0 1 2.288-4.858l25.27-9.096a3.806 3.806 0 0 1 4.856 2.288 3.809 3.809 0 0 1-2.286 4.86z"/>
	</g>
	<path style="fill:#fff;stroke-width:.00587066" d="M50.857 128.112c-.33-.288-.442-.601-.646-1.816-.135-.807-.258-1.482-.272-1.5-.014-.017-.614.173-1.333.423-2.323.809-4.14.528-5.71-.884-2.188-1.966-2.34-5.125-.353-7.324.763-.845 1.471-1.222 3.907-2.078 1.147-.404 2.136-.778 2.199-.832.105-.09-.282-2.932-.418-3.069-.033-.033-1.118.302-2.41.746-2.16.742-2.436.801-3.404.732-4.384-.314-6.43-5.612-3.38-8.754.786-.81 1.344-1.082 4.693-2.287 1.538-.554 2.818-1.027 2.844-1.05.08-.072-.315-2.667-.436-2.862-.082-.132-.86.088-2.798.791-2.397.871-2.807.976-3.842.976-2.786.002-4.939-2.07-5.073-4.88-.093-1.94.682-3.56 2.177-4.55.382-.253 2.319-1.04 4.305-1.75a325.01 325.01 0 0 0 3.649-1.317c.02-.015-.078-.792-.218-1.728l-.256-1.702-1.383-.184c-5.33-.71-12.25-2.371-18.419-4.422-3.956-1.316-5.368-1.93-7.114-3.091-2.598-1.729-4.194-3.512-6.52-7.285C4.689 58.754 1.997 50.62 1.17 39.781c-.188-2.463-.099-7.33.159-8.647.247-1.266 1.39-1.787 2.266-1.033l.42.36.02 5.472c.018 4.335.078 5.84.291 7.247 1.442 9.513 3.515 15.172 8.65 23.616 2.44 4.01 4.411 6.023 7.365 7.518 1.177.596 5.543 2.098 8.96 3.082 16.637 4.794 33.93 5.475 51.06 2.012 6.164-1.246 14.164-3.625 17.16-5.103 1.696-.838 3.675-2.395 4.9-3.857 1.77-2.113 4.961-7.555 6.848-11.682 2.634-5.76 4.306-12.872 4.68-19.912.8-15.037-4.979-26.042-16.595-31.603-3.112-1.49-6.288-2.442-10.119-3.032-2.046-.315-8.744-.269-10.969.076-2.507.39-5.926 1.252-8.188 2.066-1.997.72-6.488 2.793-6.488 2.996 0 .242 4.008 3.613 5.418 4.557 2.652 1.774 6.25 3.294 9.806 4.14 3.02.719 4.58.895 8.682.982l3.9.083.387.388c.428.427.524 1.314.19 1.749-.47.61-.86.673-4.128.661-6.045-.022-11.052-1.042-16.04-3.269-3.213-1.433-5.1-2.72-9.204-6.276-.84-.729-2.057-1.63-2.703-2.001-10.699-6.157-23.574-7.866-33.785-4.485C16.45 8.423 10.885 13.092 7.43 19.883c-.549 1.08-1.152 2.07-1.34 2.202-.832.583-2.126-.087-2.126-1.1 0-.651 1.438-3.54 2.718-5.457C9.815 10.835 14.575 6.84 19.8 4.518c4.417-1.962 8.994-2.978 14.213-3.154 7.755-.262 15.906 1.65 23.266 5.459l1.637.847.573-.389c1.915-1.3 6.86-3.435 10.263-4.431C74.057 1.589 77.54 1.097 82.137 1.1c8.299.008 15.465 2.222 21.624 6.68 7.11 5.148 11.477 12.852 12.752 22.5 1.033 7.818-.264 18.266-3.268 26.317-1.59 4.26-5.637 11.751-8.067 14.931-1.65 2.16-4.61 4.551-6.902 5.575-2.377 1.063-8.98 3.152-13.141 4.159l-1.714.414-.328.675c-.426.877-1.308 1.845-2.102 2.308-.347.202-2.19.928-4.094 1.614-1.905.685-3.499 1.281-3.542 1.324-.08.081-.618 3.32-.55 3.32.02 0 .476-.112 1.012-.25 2.5-.64 5.017.589 6.115 2.986.976 2.133.183 4.92-1.79 6.287-.349.241-2.11.97-3.915 1.62l-3.282 1.18-.177 1.08c-.098.593-.223 1.391-.278 1.774l-.101.695 1.278.004c1.073.004 1.418.072 2.15.428 3.209 1.56 3.963 5.762 1.492 8.31-.745.767-1.322 1.05-4.425 2.177-1.416.513-2.632.987-2.703 1.053-.109.101-1.484 8.484-1.49 9.089-.002.112-.206.408-.455.656l-.451.452H51.256zm13.205-2.506c0-.04.211-1.404.47-3.032.258-1.628.449-3.016.424-3.084-.034-.093-9.333 3.157-11.877 4.152-.396.154-.399.169-.25 1.096l.152.94h5.54c3.048 0 5.54-.032 5.54-.072zm-4.37-7.365c7.12-2.56 13.127-4.784 13.35-4.94.821-.576 1.153-1.993.68-2.906-.335-.65-1.074-1.205-1.756-1.32-.533-.09-2.133.448-13.562 4.56-7.127 2.563-13.143 4.768-13.369 4.9-.95.557-1.327 2.075-.775 3.13.314.599 1.373 1.233 2.063 1.233.234 0 6.25-2.096 13.37-4.657zm-.196-8.002c4.229-1.525 7.727-2.81 7.773-2.857.106-.106.63-3.487.54-3.487-.035 0-3.657 1.295-8.047 2.876l-8.375 3.017-.392.14.226 1.541c.138.94.296 1.541.406 1.541.1 0 3.64-1.247 7.869-2.771zM46.45 108.55c1.657-.599 9.026-3.251 16.376-5.893 7.35-2.643 13.523-4.909 13.718-5.036.864-.564 1.23-2.027.741-2.965-.415-.798-.956-1.16-1.85-1.233-.783-.065-1.808.281-17.265 5.842-9.038 3.252-16.615 6.039-16.838 6.194-.813.567-1.154 1.993-.69 2.885.48.922 1.413 1.463 2.332 1.352.255-.03 1.819-.546 3.476-1.146zM59.576 95.76c5.308-1.912 9.765-3.536 9.904-3.61.18-.097.323-.594.497-1.723.135-.873.216-1.616.182-1.65-.072-.072-20.939 7.393-21.138 7.562-.073.062-.052.623.046 1.247.287 1.83.3 1.87.595 1.753.145-.057 4.607-1.668 9.914-3.58zm-10.135-2.62c5.11-1.838 12.072-4.345 15.47-5.572 3.4-1.227 7.66-2.757 9.468-3.4 1.81-.643 3.26-1.198 3.224-1.233-.036-.036-1.237.108-2.67.32-4.429.653-10.584 1.173-13.926 1.175h-1.432l-6.215 2.252a1552.507 1552.507 0 0 1-8.764 3.15c-6.866 2.42-6.92 2.446-7.269 3.505-.524 1.588.538 3.142 2.15 3.143.49 0 3.214-.913 9.964-3.34zm1.72-8.724c.443-.189.409-.202-.772-.3-.68-.057-1.714-.155-2.298-.218l-1.063-.114.113.902c.062.497.142.952.179 1.012.06.097 2.594-.749 3.842-1.282z"/>
	<path style="fill:#fff;stroke-width:.00587066" d="M12.405 32.731c-.515-.515-.54-1.439-.098-3.608 1.495-7.336 6.07-13.22 12.406-15.95 1.56-.673 4.3-1.444 5.693-1.601.845-.096.912-.078 1.36.37.588.589.618 1.222.088 1.853-.328.389-.584.492-1.766.708-7.027 1.285-12.14 5.843-14.363 12.802-.464 1.453-.946 3.773-.946 4.552 0 .212-.199.577-.452.83-.598.598-1.35.615-1.922.044zM34.94 13.375c-1.016-.426-1.227-1.623-.415-2.348.663-.592 1.298-.59 1.895.007.59.59.6 1.237.026 1.858-.465.504-1.027.685-1.506.483z"/>
</svg>