<svg xmlns="http://www.w3.org/2000/svg" xml:space="preserve" width="326.073" height="382.734" style="shape-rendering:geometricPrecision;text-rendering:geometricPrecision;image-rendering:optimizeQuality;fill-rule:evenodd;clip-rule:evenodd" viewBox="0 0 6938.23 8143.88">
	<defs>
		<style>.fil0{fill:#fff}</style>
	</defs>
	<g id="Слой_x0020_1">
		<path class="fil0" d="M1502.69 8143.88h388.69c58.66-39.7 134-55.76 205.35-108.91 214.36-159.71 256.55-331.23 297.49-605.69l315.48-2099.6c22.88-153.39 39.06-373.59 106.37-495.91 60.85-110.6 205.15-221.22 384.33-218.42 89.9 1.4 180.06 27.71 239.94 73.42 216.15 165.07 197.86 319.56 246.95 655.86l313.8 2103.11c31.08 213.79 49.02 289.88 152.12 448.7 99.18 152.75 268.64 191.96 356.62 247.44h372.79c113.35-64.42 319.05-97.21 439.33-388.08 74.88-181.08 89.8-506.44 113.78-721.3 55.27-495.24 109.69-990.58 164.58-1487.48 14.85-134.41 54.88-655.93 93.88-738.33 222.19-469.46 339.01-620.3 506.05-1159.35 33.62-108.46 60.12-217.19 86.06-329.99 19.72-85.75 37.69-276.81 68.33-337.95 87.05-43.25 102.13-46.01 172.91-103.06 58.83-47.41 87.28-72.57 132.99-133.31 294.37-391.16 355.44-733.35 179.77-1236.31-96.94-277.57-383.55-614.79-576.17-776.81C5632.1 200.32 4969.64-29.2 4044.17 2.96c-160.4 5.58-331.88 23.63-483.47 59.33-285.54 67.25-470.88 250.19-504.27 558.08-23.48 216.45 44.9 274.82 118.69 399.38-231.77 9.99-472.41-42.1-677.95-105.78-215.79-66.86-344.15-146.73-589.9-185.99-471.58-75.35-905.59 64.18-1218.09 290.18-40.6 29.35-72.42 57.2-111.01 85.58-65.67 48.29-229.43 234.76-277.26 300.9-411.93 569.66-322.43 1275.39-189.83 1930.07 107.93 532.9 320.13 945.46 548.33 1394.34 69.01 135.77 60.27 140.9 78.52 303.82 25.94 231.51 51.14 464.12 76.79 695.38 51.68 465.96 103.61 931.17 154.5 1396.68 22.69 207.5 30.51 488.98 115.8 659.2 130.77 260.94 269.16 268.76 417.68 359.75zM3959.37 382.37c-81.4 8.61-377.01 42.36-435.63 93.51-28.44 24.81-59.76 65.48-76.42 108.43-54.01 139.26-12.05 186.22 96.22 231.26 100.29 41.71 157.92 61.79 236.23 121.93 126.93 97.48 202.33 304.99 187.99 533.46-6.34 101 4.08 242.78 74.72 279.38 84.48 43.77 204 35.49 292.33-.89 306.94-126.43 666.38-433.23 1077.27-257.64 151 64.54 258.85 226.63 314.04 402.12 62.24 197.96 3.08 439.46 101.56 615.92 32.81 58.79 127.37 114.26 228.81 119.66 118.35 6.29 207.98-36.94 272.17-89.01 58.17-47.18 118.09-126.12 157.46-200.72 196.11-371.58-18.16-885.16-307.56-1164.17-287.67-277.34-501.64-470.88-971.39-636.12-334.83-117.78-861.68-197.97-1247.8-157.12zM5979.7 3009.01c-100.33-50.71-376.99-68.92-503.31-368-32.18-76.19-55.32-142.98-70.86-229-25.91-143.46-12.36-409.49-79.17-511.26-89.63-136.53-308.93-72.98-435.64-11.19-245.59 119.74-547.96 349.87-898 246.36-154.86-45.8-269.48-143.61-327.99-262.2-84.69-171.67-74-314.22-74-521.2-308.24-3.22-343.71 63.54-807.07-7.79-261.43-40.25-437.76-108.53-670.75-197.51-238.2-90.96-494.73-107.68-755.5-50.69-161.85 35.38-319.23 107.99-447.15 200.64-217.05 157.24-373.94 353.45-473.16 613.93-93.61 245.75-90.54 492.16-66.11 767.35 46.76 526.87 162.41 948.86 359.81 1388.96 89.99 200.64 187.29 389.14 285.02 582.21 79.9 157.86 94.83 546.03 118.13 751.96 59 521.53 115.61 1046.28 174.68 1567.05 23.11 203.76 29.43 606.79 140.62 729.13 43.58 47.95 57.08 58.51 121.01 87.35 55.67 25.12 125.97 32.39 192.67 19 121.49-24.38 196.61-98.36 236.37-202.07 53.04-138.34 95.46-570.5 121.81-743.75l226.97-1519.45c37.19-253.82 51.07-499.8 171.76-697.44 262.47-429.81 833.45-493.05 1182.16-202.54 157.45 131.17 251.06 298.8 292.99 572.65l342.55 2274.7c15.95 103.08 27.78 272.89 72 354.15 107.29 197.19 409.18 241.67 558.84 27.95 64.2-91.69 66.37-235.71 79.79-359.98L5308 4955.54c33.6-302.89 82.83-332.89 233.54-634.28 157.66-315.32 425.14-960.59 438.17-1312.24z"/>
		<path class="fil0" d="M710.71 2615.79v222.6h357.37c-2.75-283.27-15.83-487.45 128.35-746.38 65.91-118.33 213.43-292.65 320.2-339.19-15.51-49.45-167.94-273.49-200.52-302.23-376.73 295.51-605.4 627.36-605.4 1165.2z"/>
	</g>
</svg>