<svg xmlns="http://www.w3.org/2000/svg" width="134" height="130">
	<g fill="none" fill-rule="evenodd" stroke="#fff" stroke-linecap="round" stroke-linejoin="round" stroke-width="3">
		<path d="M38.733 12.932C23.866 15.046 21.348 28.696 21.22 31.754m75.663-11.292c-5.01.296-12.3-.021-19.668-3.626-5.294-2.591-7.36-5.803-10.275-7.495C50.55-.172 31.217.65 19.866 11.337c-3.044 2.864-5.206 6.137-6.695 9.591m-2.618 10.205c-1.28 11.536 2.274 22.723 3.701 26.105a72.772 72.772 0 0 0 5.86 11.104c1.12 1.845 2.244 3.69 3.275 5.615a46.976 46.976 0 0 1 5.681 16.868 137.385 137.385 0 0 0 3.6 21.158c1.368 5.094 4.232 15.686 13.728 15.686 3.053 0 11.165 0 16.339-37.039.839-5.918 2.909-6.76 4.196-6.971 1.285.211 3.354 1.053 4.196 6.964 5.174 37.046 13.286 37.046 16.336 37.046 9.497 0 12.362-10.592 13.73-15.653a137.653 137.653 0 0 0 3.607-21.195 46.946 46.946 0 0 1 5.68-16.864c1.028-1.924 2.153-3.77 3.273-5.615a72.52 72.52 0 0 0 5.867-11.107c2.283-5.407 10.18-31.006-5.608-45.893C102.927.888 84.066-.66 68.26 8.418m-24.893 3.586c-.032.034 0 0-.03.034"/>
		<path d="M43.088 49.001c0-6.943 3.59-12.57 8.016-12.57 4.429 0 8.018 5.627 8.018 12.57m15.658 0c0-6.943 3.59-12.57 8.016-12.57 4.428 0 8.017 5.627 8.017 12.57M84.4 60.012c0 6.942-7.812 12.57-17.45 12.57-9.637 0-17.45-5.628-17.45-12.57m-37.165-9.169L4.008 87.648m4.877 3.204a3.208 3.208 0 0 1-3.211 3.204 3.209 3.209 0 0 1-3.213-3.204 3.209 3.209 0 0 1 3.213-3.204 3.208 3.208 0 0 1 3.21 3.204zm112.892-40.009 8.327 36.805m-4.877 3.204a3.208 3.208 0 0 0 3.211 3.204 3.209 3.209 0 0 0 3.214-3.204 3.209 3.209 0 0 0-3.214-3.204 3.208 3.208 0 0 0-3.21 3.204z"/>
	</g>
	<path style="fill:#fff;stroke-width:.00591617" d="M43.783 128.819c-3.177-.683-6.03-2.713-8.078-5.75-1.098-1.627-2.498-4.571-3.258-6.852-1.842-5.529-3.773-15.356-4.601-23.427-.45-4.371-1.46-8.592-2.984-12.455-1.047-2.652-2.96-6.269-5.898-11.146-2.515-4.174-4.988-8.858-5.93-11.232-.246-.62-.482-1.128-.525-1.128-.043-.001-1.545 6.496-3.338 14.438-1.794 7.942-3.288 14.553-3.322 14.692-.047.195.1.277.631.357.381.057 1.067.329 1.525.603 2.121 1.274 2.86 3.755 1.777 5.968-.477.975-1.24 1.68-2.382 2.203-.719.33-1.006.375-1.964.314-3.787-.243-5.664-4.355-3.371-7.385l.58-.767 4.08-18.054 4.08-18.054-.39-1.713c-1.152-5.063-1.537-8.842-1.453-14.245.055-3.491.105-4.203.328-4.627.436-.828 1.294-1.07 2.045-.579.564.37.675.908.513 2.481-.2 1.95-.044 8.014.268 10.353.334 2.502 1.133 6.612 1.418 7.294.121.29.221.678.222.86.001.182.203.997.45 1.81 1.388 4.596 3.512 9.014 7.25 15.084 1.96 3.183 3.93 6.708 4.869 8.709 2.353 5.019 3.73 10.145 4.397 16.375.83 7.752 2.578 16.675 4.314 22.03 2.012 6.205 4.745 9.684 8.533 10.86.833.26 1.492.34 2.802.345 1.545.005 1.801-.037 2.619-.42 1.107-.518 2.605-1.976 3.572-3.475 3.578-5.545 6.323-15.343 8.601-30.703.638-4.302 1.389-6.418 2.774-7.82 1.24-1.255 2.686-1.736 3.941-1.31 2.022.684 3.367 2.501 4.196 5.664.124.473.506 2.68.85 4.907 2.98 19.347 6.964 30.293 11.902 32.705.865.423 1.062.456 2.647.45 2.776-.013 4.586-.734 6.58-2.624 2.533-2.4 4.242-6.002 5.86-12.349 1.385-5.434 2.651-12.621 3.287-18.65.31-2.946.599-4.666 1.162-6.927 1.498-6.014 3.272-9.89 8.408-18.372 3.385-5.588 5.525-10.031 6.752-14.011 2.015-6.54 2.853-12.902 2.565-19.484-.41-9.398-3.956-17.197-10.17-22.375-7.631-6.357-18.267-8.823-29.283-6.789-3.696.682-7.406 1.908-10.967 3.622-2.502 1.205-2.475.94-.292 2.834 2.641 2.291 4.112 3.306 6.445 4.45 5.087 2.49 9.645 3.504 16.043 3.567 3.536.034 3.954.103 4.271.695.384.717-.021 1.744-.793 2.014-.706.246-5.257.212-7.802-.058-5.436-.577-10.854-2.28-14.803-4.653-1.888-1.135-2.87-1.879-5.581-4.223-2.325-2.01-4.173-3.14-7.636-4.67-6.122-2.704-11.904-3.963-18.229-3.97-4.331-.004-7.838.538-11.61 1.794-7.436 2.479-13.034 7.231-16.467 13.98-.875 1.72-1.089 2.029-1.541 2.218-.362.151-.642.175-.902.076-.482-.183-1.04-.89-1.04-1.32 0-.49 1.54-3.535 2.606-5.152C18.865 8.927 25.939 4.172 34.46 2.277c2.945-.655 5.4-.914 8.719-.921 7.578-.017 14.824 1.78 22.031 5.462 1.723.88 1.798.904 2.048.627.356-.393 5.242-2.782 7.058-3.45C79.715 2.006 84.68 1.09 90.042 1.09c10.45 0 19.425 3.567 25.924 10.304 2.385 2.472 3.67 4.278 5.185 7.289 1.913 3.803 3.096 7.866 3.628 12.46.574 4.966.043 12.525-1.278 18.193l-.31 1.33 4.151 18.377c3.845 17.022 4.183 18.41 4.582 18.843.823.893 1.009 1.44 1.008 2.958 0 1.628-.243 2.228-1.336 3.31-1.2 1.184-3.077 1.59-4.745 1.022-1.114-.379-2.45-1.752-2.777-2.855-.317-1.067-.314-1.938.012-2.946.482-1.494 2.04-2.81 3.628-3.063.372-.06.618-.176.583-.276-.033-.096-1.559-6.808-3.39-14.917-1.83-8.109-3.354-14.718-3.384-14.688-.03.03-.495 1.068-1.031 2.305-1.374 3.17-2.791 5.817-5.74 10.722-3.113 5.177-4.493 7.78-5.64 10.64-1.884 4.696-2.477 7.343-3.354 14.95-.832 7.219-2.641 16.003-4.36 21.174-2.845 8.548-7.514 12.844-13.964 12.844-2.472 0-4.302-.729-6.107-2.431-5.03-4.745-8.613-15.619-11.448-34.74-.57-3.843-1.174-5.604-2.2-6.41-1.58-1.243-2.962 1.187-3.715 6.527-1.034 7.331-2.726 15.584-4.198 20.473-3.016 10.016-6.498 15.164-11.053 16.341-1.15.297-3.53.294-4.93-.007zM6.8 92.169c.626-.55.806-1.224.512-1.918-.344-.813-.805-1.12-1.683-1.12-.679 0-.832.064-1.23.51-.354.396-.454.657-.454 1.185 0 1.583 1.681 2.374 2.855 1.343zm122.595.154c1.476-.9.768-3.27-.977-3.27-.94 0-1.79.89-1.79 1.872 0 1.325 1.578 2.123 2.767 1.398z"/>
	<path style="fill:#fff;stroke-width:.00591617" d="M20.26 32.685c-.474-.474-.476-.483-.373-1.718.142-1.704.898-4.537 1.749-6.553 2.855-6.764 8.485-11.303 15.726-12.677 1.713-.325 2.294-.178 2.647.667.186.444.185.594-.006 1.05-.272.653-.507.781-1.84 1.01-7.037 1.203-12.192 5.703-14.524 12.679-.499 1.492-1.01 3.885-1.01 4.728 0 .213-.2.58-.455.836-.62.62-1.28.612-1.914-.022zM42.543 13.19c-.726-.558-.794-1.508-.154-2.148.58-.58 1.22-.598 1.869-.052.98.825.384 2.406-.905 2.394-.31-.002-.674-.09-.81-.194zM42.375 50.205c-.673-.366-.815-1.075-.609-3.046.257-2.453.815-4.464 1.795-6.463 2.131-4.352 5.811-6.464 9.376-5.381 4.257 1.293 7.44 6.705 7.538 12.817.023 1.428.02 1.442-.465 1.875-.548.49-.92.54-1.559.21-.577-.298-.75-.811-.848-2.498-.273-4.73-2.532-8.823-5.333-9.666-.932-.28-1.37-.278-2.357.016-2.779.825-4.956 4.781-5.32 9.668-.134 1.79-.151 1.852-.622 2.273-.538.48-.973.533-1.596.195zM74.217 50.295c-.875-.369-1.037-1.53-.609-4.368.962-6.377 4.78-10.897 9.206-10.897 4.379 0 8.229 4.587 9.163 10.918.363 2.454.33 3.444-.128 3.977-.298.346-.504.433-1.029.433-.9 0-1.399-.566-1.406-1.597-.007-1.11-.27-2.924-.625-4.312-.681-2.664-2.318-5.111-4.061-6.075-.703-.388-1.009-.462-1.926-.462-.911 0-1.223.074-1.908.453-1.621.896-3.029 2.824-3.846 5.266-.44 1.32-.86 3.778-.861 5.052-.001.616-.085.903-.352 1.207-.388.44-1.106.62-1.618.405zM63.964 73.855c-1.427-.214-3.646-.722-4.705-1.077-6.198-2.077-10.543-6.61-11.073-11.552-.155-1.452-.098-1.785.385-2.239a1.334 1.334 0 0 1 1.867.045c.33.33.425.623.541 1.661.17 1.511.565 2.629 1.376 3.882 3.948 6.109 14.832 8.426 23.004 4.899 4.48-1.934 7.177-5.098 7.595-8.911.13-1.18.35-1.592.991-1.858.39-.162.554-.151 1.01.065.745.353.947.91.807 2.217-.633 5.914-6.056 10.848-13.749 12.51-1.169.252-2.196.337-4.546.377-1.67.028-3.246.02-3.503-.02z"/>
</svg>