<svg xmlns="http://www.w3.org/2000/svg" width="61" height="70" fill="none">
	<path d="M1.051 70h19.973c.138 0 .275-.03.403-.089.127-.058.243-.144.34-.253.242-.268 2.389-2.89 3.454-12.347.53-4.7 2.444-9.424 4.23-12.978h28.366c.836 0 1.638-.37 2.229-1.026.59-.656.923-1.546.924-2.474V3.5c0-.928-.333-1.818-.924-2.474C59.455.37 58.653.001 57.816 0H19.974c-.836.001-1.638.37-2.229 1.026-.591.656-.924 1.546-.925 2.474v30.59L9.206 36.2a1.029 1.029 0 0 0-.488.307L.308 45.84a1.182 1.182 0 0 0-.228.379c-.053.142-.08.293-.08.447v22.166c0 .31.11.606.308.825.197.22.464.342.743.342Zm56.766-28H30.625a6.47 6.47 0 0 0 .23-3.873c-.32-1.283-1.026-2.406-1.998-3.185l-.132-.105c.466-1.382.71-3.308.71-5.667 0-.023.058-2.337 1.05-2.337.994 0 1.052 2.314 1.052 2.334 0 2.502.263 4.48.78 5.878.736 1.991 1.803 2.288 2.373 2.288.74 0 1.752-.366 2.378-2.109.522-1.453.776-3.816.776-7.224 0-3.549.526-5.94 1.05-8 .525 2.06 1.052 4.451 1.052 8 0 4.615.375 9.333 3.154 9.333.57 0 1.637-.297 2.374-2.288.517-1.398.78-3.376.78-5.875 0-.023.058-2.337 1.05-2.337.993 0 1.052 2.314 1.052 2.334 0 2.502.263 4.48.78 5.878.736 1.991 1.803 2.288 2.373 2.288.74 0 1.753-.366 2.379-2.109.522-1.453.775-3.816.775-7.224 0-3.646.556-6.07 1.094-8.167h3.111v21c0 .31-.111.606-.308.825a1.002 1.002 0 0 1-.743.342ZM18.922 19.833h3.11c.54 2.098 1.095 4.521 1.095 8.167 0 2.593.147 4.58.447 6.022-1.104.483-2.029 1.365-2.625 2.504l-2.027 3.888v-20.58ZM23.127 14c0-3.25 3.532-4.625 4.19-4.667.373.071 1.552.917 2.493 1.791.19.176.428.273.675.273a.99.99 0 0 0 .675-.273c.941-.874 2.118-1.719 2.492-1.791.669.045 4.192 1.42 4.192 4.667 0 1.218-.21 2.324-.496 3.5H23.622c-.285-1.175-.495-2.282-.495-3.5Zm31.04 3.5H40.442c-.286-1.175-.496-2.282-.496-3.5 0-3.25 3.532-4.625 4.191-4.667.373.071 1.551.917 2.492 1.791.19.176.429.273.675.273a.99.99 0 0 0 .676-.273c.94-.874 2.118-1.719 2.492-1.791.668.045 4.191 1.42 4.191 4.667 0 1.218-.21 2.325-.495 3.5Zm-.593 2.333A32.29 32.29 0 0 0 52.56 28c0 5.458-.71 6.876-1.012 6.992-.276-.216-1.09-1.63-1.09-5.825 0-1.614-.66-4.667-3.154-4.667-2.495 0-3.154 3.053-3.154 4.667 0 4.195-.815 5.61-1.09 5.825-.302-.117-1.012-1.534-1.012-6.992a32.294 32.294 0 0 0-1.014-8.167h12.539ZM25.649 33.62c-.222-1-.42-2.707-.42-5.62a32.29 32.29 0 0 0-1.013-8.167h12.538A32.29 32.29 0 0 0 35.741 28c0 5.458-.71 6.876-1.011 6.992-.276-.216-1.091-1.63-1.091-5.825 0-1.614-.66-4.667-3.154-4.667-2.494 0-3.153 3.053-3.153 4.667 0 2.364-.255 3.798-.507 4.638a4.784 4.784 0 0 0-1.176-.185ZM19.973 2.333h37.844c.279 0 .546.124.743.342.197.22.308.516.308.825v14h-2.529c.272-1.143.415-2.318.427-3.5 0-4.818-4.839-7-6.308-7-.908 0-2.192.92-3.153 1.735C46.344 7.92 45.059 7 44.15 7c-1.036 0-3.748 1.088-5.256 3.419C37.387 8.088 34.675 7 33.639 7c-.908 0-2.193.92-3.154 1.735C29.525 7.92 28.24 7 27.332 7c-1.47 0-6.308 2.182-6.308 7 .011 1.182.155 2.357.427 3.5h-2.53v-14c.001-.31.112-.606.31-.825.196-.218.463-.341.742-.342ZM2.103 47.15l7.895-8.763 6.821-1.893v5.221a6.863 6.863 0 0 1-2.18 2.659 5.956 5.956 0 0 1-3.076 1.126.969.969 0 0 0-.479.128 1.09 1.09 0 0 0-.373.356 1.24 1.24 0 0 0-.187.507c-.025.182-.01.37.042.545.983 3.273.997 7.754.997 7.797 0 .257.077.507.217.71.141.204.338.35.562.417.223.067.46.05.674-.048.214-.098.393-.272.508-.494l9.245-17.723c.22-.422.518-.788.873-1.075.356-.287.761-.489 1.19-.592.43-.103.874-.105 1.305-.006.43.098.837.296 1.195.58l.303.24c.642.514 1.088 1.277 1.249 2.138a3.85 3.85 0 0 1-.38 2.513c-2.085 3.845-4.708 9.66-5.37 15.53-.766 6.807-2.102 9.713-2.637 10.644H2.102V47.15Zm13.76-.871-2.429 4.654a30.31 30.31 0 0 0-.524-3.287 8.234 8.234 0 0 0 2.953-1.367Z" fill="#fff"/>
</svg>