<!-- icon666.com - MILLIONS vector ICONS FREE -->
<svg viewBox="-82 0 456 456" xmlns="http://www.w3.org/2000/svg" fill="#3695a7">
	<path d="m94.324219 409h176v47h-176zm0 0">
	</path>
	<path d="m152.324219 95v-95h-98v95h18.019531l.007812-12.511719c.101563-13.839843 8.492188-26.265625 21.292969-31.527343 12.800781-5.257813 27.507813-2.324219 37.308594 7.445312 6.453125 6.390625 10.0625 15.109375 10.019531 24.195312-.003906 3.914063-.011718 8.398438-.023437 12.398438zm0 0">
	</path>
	<path d="m280.25 204h-26.925781v31.492188c0 3.867187-3.132813 7-7 7-3.863281 0-7-3.132813-7-7v-42.054688c-.070313-6.867188-5.640625-12.40625-12.511719-12.4375h-29.488281v54.492188c0 3.867187-3.132813 7-7 7-3.863281 0-7-3.132813-7-7v-66.300782c0-6.816406-5.882813-12.1875-12.699219-12.1875h-29.800781c-.082031 41-.167969 78.59375-.167969 78.59375l-14-.117187s.09375-41.855469.183594-85.261719c-.007813-.128906-.011719-.257812-.011719-.386719 0-.132812 0-.28125.011719-.417969.050781-24.109374.101562-48.625.132812-66.632812.015625-11.21875-9.070312-20.324219-20.289062-20.335938-11.21875-.015624-20.324219 9.070313-20.335938 20.289063l-.023437 19.664063v.023437l-.097657 142.597656c-.003906 2.917969-1.816406 5.523438-4.546874 6.542969-2.726563 1.023438-5.804688.246094-7.722657-1.945312l-22.171875-25.429688c-12.390625-14.027344-33.726562-15.566406-48-3.460938-.101562.082032-.199218.164063-.300781.242188l-3.484375 2.671875 76.292969 136.976563c10.441406 18.617187 28.945312 31.324218 50.070312 34.382812h107.363281c33.515626-5 58.792969-33.636719 58.828126-67.484375.023437-21.753906.046874-36.699219.0625-48.347656.035156-24.375.050781-34.546875-.003907-62.746094-.019531-6.828125-5.535156-12.371094-12.363281-12.421875zm0 0">
	</path>
</svg>
