<svg width="0" height="0" class="hidden">
	<symbol xmlns="http://www.w3.org/2000/svg" viewBox="0 0 52 52" id="descr">
		<path d="M44.75 4.125c1.726 0 3.125 1.4 3.125 3.125v37.5c0 1.726-1.4 3.125-3.125 3.125H7.25a3.125 3.125 0 0 1-3.125-3.125V7.25c0-1.726 1.4-3.125 3.125-3.125h37.5ZM7.25 1A6.25 6.25 0 0 0 1 7.25v37.5A6.25 6.25 0 0 0 7.25 51h37.5A6.25 6.25 0 0 0 51 44.75V7.25A6.25 6.25 0 0 0 44.75 1H7.25Z" fill="#000">
		</path>
		<path d="m28.908 21.587-7.159.897-.256 1.19 1.41.257c.915.22 1.098.55.897 1.465l-2.307 10.84c-.605 2.801.33 4.12 2.527 4.12 1.702 0 3.68-.788 4.577-1.868l.275-1.3c-.623.55-1.538.769-2.142.769-.861 0-1.172-.605-.953-1.666l3.131-14.704ZM29.125 15.063a3.125 3.125 0 1 1-6.25 0 3.125 3.125 0 0 1 6.25 0Z">
		</path>
		<path d="m28.908 21.587.49.104.146-.687-.698.087.062.496Zm-7.159.897-.062-.496-.352.044-.075.347.489.105Zm-.256 1.19-.49-.105-.108.505.508.092.09-.491Zm1.41.257.116-.486-.013-.003-.014-.003-.09.492Zm.897 1.465-.489-.108v.004l.489.104Zm-2.307 10.84.488.105v-.001l-.488-.104Zm7.104 2.252.385.32.079-.096.025-.12-.489-.104Zm.275-1.3.489.103.312-1.477-1.132.999.33.375Zm-3.095-.898-.489-.104v.003l.49.102ZM7.25 4.626h37.5v-1H7.25v1ZM4.625 7.25A2.625 2.625 0 0 1 7.25 4.625v-1A3.625 3.625 0 0 0 3.625 7.25h1Zm0 37.5V7.25h-1v37.5h1Zm2.625 2.625a2.625 2.625 0 0 1-2.625-2.625h-1a3.625 3.625 0 0 0 3.625 3.625v-1Zm37.5 0H7.25v1h37.5v-1Zm2.625-2.625a2.625 2.625 0 0 1-2.625 2.625v1a3.625 3.625 0 0 0 3.625-3.625h-1Zm0-37.5v37.5h1V7.25h-1ZM44.75 4.625a2.625 2.625 0 0 1 2.625 2.625h1a3.625 3.625 0 0 0-3.625-3.625v1ZM1.5 7.25A5.75 5.75 0 0 1 7.25 1.5v-1A6.75 6.75 0 0 0 .5 7.25h1Zm0 37.5V7.25h-1v37.5h1Zm5.75 5.75a5.75 5.75 0 0 1-5.75-5.75h-1a6.75 6.75 0 0 0 6.75 6.75v-1Zm37.5 0H7.25v1h37.5v-1Zm5.75-5.75a5.75 5.75 0 0 1-5.75 5.75v1a6.75 6.75 0 0 0 6.75-6.75h-1Zm0-37.5v37.5h1V7.25h-1ZM44.75 1.5a5.75 5.75 0 0 1 5.75 5.75h1A6.75 6.75 0 0 0 44.75.5v1Zm-37.5 0h37.5v-1H7.25v1Zm21.596 19.591-7.16.897.125.992 7.16-.897-.125-.992Zm-7.586 1.288-.256 1.19.977.21.257-1.19-.978-.21Zm.143 1.787 1.41.257.179-.984-1.41-.256-.179.983Zm1.383.251c.444.107.534.207.556.243.025.043.069.177-.03.628l.976.215c.102-.464.155-.953-.09-1.358-.248-.412-.707-.587-1.179-.7l-.233.972Zm.525.875-2.307 10.84.978.208 2.307-10.84-.978-.208ZM21.004 36.13c-.312 1.445-.26 2.638.28 3.484.56.88 1.543 1.242 2.736 1.242v-1c-1.006 0-1.587-.298-1.893-.778-.326-.513-.438-1.38-.146-2.737l-.977-.21Zm3.015 4.725c.924 0 1.908-.212 2.78-.565.866-.35 1.664-.858 2.183-1.483l-.77-.639c-.378.456-1.017.883-1.79 1.195-.766.311-1.623.492-2.402.492v1Zm5.067-2.264.275-1.3-.978-.207-.275 1.3.978.207Zm-.545-1.778c-.507.447-1.292.644-1.811.644v1c.689 0 1.734-.243 2.473-.894l-.662-.75Zm-1.811.644c-.306 0-.4-.097-.445-.178-.07-.128-.119-.4-.018-.887l-.98-.203c-.118.574-.12 1.136.124 1.576.27.486.763.692 1.319.692v-1Zm-.464-1.062 3.132-14.704-.979-.208-3.13 14.703.977.209Zm2.359-21.333A2.625 2.625 0 0 1 26 17.689v1a3.625 3.625 0 0 0 3.625-3.625h-1ZM26 17.689a2.625 2.625 0 0 1-2.625-2.625h-1A3.625 3.625 0 0 0 26 18.686v-1Zm-2.625-2.625A2.625 2.625 0 0 1 26 12.437v-1a3.625 3.625 0 0 0-3.625 3.626h1ZM26 12.437a2.625 2.625 0 0 1 2.625 2.626h1A3.625 3.625 0 0 0 26 11.437v1Z">
		</path>
	</symbol>
	<symbol version="1.1" id="home" xmlns="http://www.w3.org/2000/svg" xmlns:xlink="http://www.w3.org/1999/xlink" x="0px" y="0px" xml:space="preserve" viewBox="0 0 460.298 460.297">
		<g>
			<g>
				<path d="M230.149,120.939L65.986,256.274c0,0.191-0.048,0.472-0.144,0.855c-0.094,0.38-0.144,0.656-0.144,0.852v137.041
			c0,4.948,1.809,9.236,5.426,12.847c3.616,3.613,7.898,5.431,12.847,5.431h109.63V303.664h73.097v109.64h109.629
			c4.948,0,9.236-1.814,12.847-5.435c3.617-3.607,5.432-7.898,5.432-12.847V257.981c0-0.76-0.104-1.334-0.288-1.707L230.149,120.939
			z">
				</path>
				<path d="M457.122,225.438L394.6,173.476V56.989c0-2.663-0.856-4.853-2.574-6.567c-1.704-1.712-3.894-2.568-6.563-2.568h-54.816
			c-2.666,0-4.855,0.856-6.57,2.568c-1.711,1.714-2.566,3.905-2.566,6.567v55.673l-69.662-58.245
			c-6.084-4.949-13.318-7.423-21.694-7.423c-8.375,0-15.608,2.474-21.698,7.423L3.172,225.438c-1.903,1.52-2.946,3.566-3.14,6.136
			c-0.193,2.568,0.472,4.811,1.997,6.713l17.701,21.128c1.525,1.712,3.521,2.759,5.996,3.142c2.285,0.192,4.57-0.476,6.855-1.998
			L230.149,95.817l197.57,164.741c1.526,1.328,3.521,1.991,5.996,1.991h0.858c2.471-0.376,4.463-1.43,5.996-3.138l17.703-21.125
			c1.522-1.906,2.189-4.145,1.991-6.716C460.068,229.007,459.021,226.961,457.122,225.438z">
				</path>
			</g>
		</g>
	</symbol>
	<symbol id="breketi" enable-background="new 0 0 64 64" xmlns="http://www.w3.org/2000/svg" viewBox="0 0 64 64">
		<path d="m60.167 21.247c-1.475-1.423-3.418-2.207-5.473-2.207-2.049 0-3.995.782-5.484 2.206-.97.935-1.739 2.05-2.293 3.262-.423-.614-.907-1.19-1.449-1.714-1.553-1.5-3.598-2.327-5.759-2.327-2.167 0-4.21.828-5.746 2.327-.778.752-1.432 1.612-1.962 2.54-.529-.929-1.184-1.79-1.963-2.54-3.227-3.107-8.281-3.107-11.507 0-.543.522-1.027 1.097-1.451 1.712-.555-1.211-1.324-2.326-2.296-3.262-3.072-2.958-7.884-2.958-10.957 0-2.088 2.011-3.286 4.827-3.286 7.726v8.383c0 2.716 2.39 4.926 5.327 4.926h6.875c.976 0 1.88-.262 2.668-.688.779 1.97 2.823 3.382 5.222 3.382h7.301c1.602 0 3.044-.632 4.061-1.637.026.027.045.058.072.084l.447.422h.064c.984.734 2.199 1.133 3.482 1.133h7.308c.512 0 .966-.057 1.317-.155 1.854-.412 3.288-1.648 3.908-3.227.799.432 1.701.683 2.66.683h6.871c2.94 0 5.333-2.207 5.333-4.92v-8.385c0-2.906-1.2-5.723-3.29-7.724zm-8.879 2.164c.924-.883 2.134-1.37 3.406-1.37 1.273 0 2.478.485 3.395 1.369 1.457 1.396 2.305 3.34 2.358 5.36-1.432.328-2.864.633-4.293.897v-1.189c0-.829-.672-1.5-1.5-1.5s-1.5.671-1.5 1.5v1.697c-1.415.221-2.822.409-4.223.576v-1.782c0-2.089.86-4.116 2.357-5.558zm-17.789 7.519c0-2.235.929-4.414 2.553-5.983.979-.954 2.277-1.479 3.657-1.479 1.379 0 2.684.527 3.674 1.484 1.618 1.564 2.547 3.743 2.547 5.978v.143c-1.589.149-3.161.265-4.715.354v-1.343c0-.829-.672-1.5-1.5-1.5s-1.5.671-1.5 1.5v1.482c-1.601.056-3.173.083-4.716.086v-.72zm-12.887-5.975c1.03-.992 2.351-1.488 3.673-1.488 1.321 0 2.643.496 3.672 1.488 1.616 1.555 2.542 3.734 2.542 5.977v.698c-1.616-.03-3.19-.084-4.714-.159v-1.387c0-.829-.671-1.5-1.5-1.5s-1.5.671-1.5 1.5v1.21c-1.647-.113-3.219-.246-4.713-.393.008-2.232.932-4.398 2.54-5.946zm-14.703-1.55c.953-.917 2.175-1.376 3.397-1.376s2.444.458 3.397 1.376c1.504 1.449 2.367 3.477 2.367 5.564v1.61c-1.557-.183-2.995-.375-4.305-.566v-1.535c0-.829-.671-1.5-1.5-1.5s-1.5.671-1.5 1.5v1.066c-1.876-.315-3.299-.594-4.212-.785.057-2.012.903-3.954 2.356-5.354zm6.835 15.873h-6.875c-1.283 0-2.327-.864-2.327-1.926v-5.534c1.025.206 2.452.474 4.223.764v2.081c0 .828.671 1.5 1.5 1.5s1.5-.672 1.5-1.5v-1.622c1.317.188 2.758.375 4.304.553v3.762c-.002 1.06-1.044 1.922-2.325 1.922zm15.191 2.695h-7.301c-1.414 0-2.564-.959-2.564-2.138v-2.478c0-.002 0-.003 0-.004v-3.441c1.495.144 3.073.273 4.714.383v1.974c0 .828.671 1.5 1.5 1.5s1.5-.672 1.5-1.5v-1.801c1.525.073 3.099.127 4.714.156v5.211c.001 1.179-1.149 2.138-2.563 2.138zm16.027-.064c-.158.043-.358.065-.594.065h-7.308c-.726 0-1.422-.264-1.911-.725l-.097-.089c-.272-.295-.554-.74-.554-1.323v-.003-5.188c1.54-.003 3.118-.037 4.716-.092v1.713c0 .828.672 1.5 1.5 1.5s1.5-.672 1.5-1.5v-1.846c1.553-.086 3.126-.203 4.715-.348v5.764c.001.962-.778 1.806-1.967 2.072zm14.162-2.634h-6.871c-.671 0-1.307-.243-1.755-.677-.259-.245-.567-.661-.567-1.243v-3.592c1.4-.162 2.808-.351 4.223-.565v1.466c0 .828.672 1.5 1.5 1.5s1.5-.672 1.5-1.5v-1.964c1.433-.257 2.867-.547 4.304-.866v5.52c-.001 1.059-1.048 1.921-2.334 1.921z">
		</path>
	</symbol>
	<symbol version="1.1" id="call" xmlns="http://www.w3.org/2000/svg" xmlns:xlink="http://www.w3.org/1999/xlink" x="0px" y="0px" xml:space="preserve" viewBox="0 0 287.32 287.32">
		<path d="M267.749,191.076c-14.595-11.729-27.983-17.431-40.93-17.431c-18.729,0-32.214,11.914-44.423,24.119 c-1.404,1.405-3.104,2.06-5.349,2.06c-10.288,0.001-28.387-12.883-53.794-38.293c-29.89-29.892-41.191-48.904-33.592-56.506 c20.6-20.593,27.031-41.237-4.509-80.462C73.861,10.51,62.814,3.68,51.38,3.68c-15.42,0-27.142,12.326-37.484,23.202 c-1.788,1.88-3.477,3.656-5.133,5.312c-11.689,11.688-11.683,37.182,0.017,68.2c12.837,34.033,38.183,71.055,71.37,104.247 c25.665,25.663,53.59,46.403,80.758,60.328c23.719,12.158,46.726,18.672,64.783,18.672c0.002,0,0.004,0,0.007,0 c11.3,0,20.479-2.465,26.541-7.478c12.314-10.181,35.234-29.039,35.081-51.439C287.236,212.71,280.653,201.451,267.749,191.076z">
		</path>
	</symbol>
	<symbol xmlns="http://www.w3.org/2000/svg" viewBox="0 0 130.203 127.547" id="veneers">
		<g id="Group_518" transform="translate(-481.999 -2350.493)">
			<path id="Path_323" d="M9590.58 17673.523a2.564 2.564 0 1 1-.181-5.125 50.818 50.818 0 0 0 5.3-.643c6.675-1.027 14-2.156 18.44 4.07a18.506 18.506 0 0 1 1.923 3.445 27.44 27.44 0 0 1 .961 17.063c-1.451 5.83-4.628 11.27-9.32 14.613a18.58 18.58 0 0 1-3.449 1.945 2.567 2.567 0 1 1-2.011-4.725 13.7 13.7 0 0 0 2.483-1.4c3.64-2.6 6.138-6.941 7.312-11.66a22.276 22.276 0 0 0-.7-13.8v-.01a13.345 13.345 0 0 0-1.388-2.486c-2.591-3.641-8.3-2.762-13.493-1.961a52.53 52.53 0 0 1-5.877.674z" transform="translate(-9081.044 -15263.161)">
			</path>
			<path id="Path_324" d="M9607.152 18567.576a2.565 2.565 0 1 1 5.087-.662c.662 5.037.231 11.922-.991 18.508-1.186 6.389-3.135 12.59-5.576 16.682a8.848 8.848 0 0 1-3.3 3.365 5.564 5.564 0 0 1-3.742.617 5.837 5.837 0 0 1-3.172-1.809 8.6 8.6 0 0 1-2.021-4.146 79.936 79.936 0 0 1-.351-9.387c-.021-2.988-.045-5.953-.182-7.57a13.692 13.692 0 0 0-.974-4.727 1.423 1.423 0 0 0-1.371-.838 2.564 2.564 0 0 1-.02-5.129 6.148 6.148 0 0 1 5.954 3.6 18.026 18.026 0 0 1 1.538 6.676c.134 1.578.158 4.764.182 7.971.028 3.7.057 7.438.249 8.381a3.482 3.482 0 0 0 .754 1.672.761.761 0 0 0 .377.262.557.557 0 0 0 .345-.1 3.832 3.832 0 0 0 1.325-1.471c2.119-3.553 3.849-9.133 4.934-14.975 1.137-6.107 1.548-12.408.955-16.92z" transform="translate(-9081.107 -16128.145)">
			</path>
			<path id="Path_325" d="M8933.382 17668.357a2.565 2.565 0 1 1-.181 5.127 51.231 51.231 0 0 1-5.884-.682c-5.2-.8-10.9-1.68-13.493 1.959a13.309 13.309 0 0 0-1.386 2.49v.008a22.27 22.27 0 0 0-.7 13.8c1.175 4.719 3.671 9.068 7.311 11.658a13.515 13.515 0 0 0 2.483 1.4 2.567 2.567 0 0 1-2.009 4.725 18.377 18.377 0 0 1-3.45-1.947c-4.691-3.338-7.871-8.779-9.322-14.611a27.476 27.476 0 0 1 .962-17.064 18.6 18.6 0 0 1 1.926-3.447c4.437-6.227 11.766-5.1 18.44-4.068a50.675 50.675 0 0 0 5.303.652z" transform="translate(-8423.847 -15263.122)">
			</path>
			<path id="Path_326" d="M9055.575 18566.895a2.566 2.566 0 0 1 5.088.664c-.593 4.518-.184 10.813.95 16.92 1.084 5.842 2.813 11.422 4.934 14.975a3.9 3.9 0 0 0 1.325 1.477.6.6 0 0 0 .345.094.809.809 0 0 0 .375-.262 3.472 3.472 0 0 0 .755-1.674c.192-.941.223-4.68.25-8.381.023-3.209.048-6.395.182-7.973a18 18 0 0 1 1.538-6.676 6.154 6.154 0 0 1 5.955-3.594 2.563 2.563 0 1 1-.021 5.127 1.423 1.423 0 0 0-1.37.838 13.8 13.8 0 0 0-.976 4.729c-.136 1.617-.157 4.58-.18 7.568a79.437 79.437 0 0 1-.351 9.385 8.6 8.6 0 0 1-2.021 4.15 5.829 5.829 0 0 1-3.17 1.807 5.55 5.55 0 0 1-3.742-.619 8.8 8.8 0 0 1-3.3-3.359c-2.442-4.1-4.392-10.3-5.577-16.687-1.219-6.584-1.651-13.466-.989-18.509z" transform="translate(-8567.816 -16128.127)">
			</path>
			<path id="Path_327" d="M10288.434 17680.908a2.569 2.569 0 0 1-.562 5.107 21.776 21.776 0 0 0-6.7-.051 2.308 2.308 0 0 0-1.99 2.023c-.672 5.074-1.143 10.711-.144 15.875a19.012 19.012 0 0 0 8.1 12.711 2.562 2.562 0 0 1-2.875 4.242 23.934 23.934 0 0 1-10.272-15.988c-1.13-5.842-.627-11.994.1-17.5.5-3.795 2.748-5.617 5.891-6.367a25.724 25.724 0 0 1 8.452-.052z" transform="translate(-9741.447 -15276.299)">
			</path>
			<path id="Path_328" d="M10418.346 18546.211a2.569 2.569 0 1 1 5.127-.34 118.36 118.36 0 0 0 3.255 18.09c1.467 5.844 3.171 11.16 4.629 13.6a4.247 4.247 0 0 0 1.44 1.441 3.044 3.044 0 0 0 1.564.512 2.574 2.574 0 0 1 0 5.148 8.272 8.272 0 0 1-4.261-1.293 9.562 9.562 0 0 1-3.149-3.172c-1.738-2.918-3.641-8.738-5.21-14.992a123.251 123.251 0 0 1-3.395-18.994z" transform="translate(-9881.167 -16107.709)">
			</path>
			<path id="Path_329" d="M10958 17686.156a2.568 2.568 0 1 1-.562-5.105 27.351 27.351 0 0 1 8.626-.02c3.233.717 5.556 2.529 6.067 6.4.732 5.512 1.234 11.666.1 17.5a23.943 23.943 0 0 1-10.272 15.988 2.563 2.563 0 1 1-2.875-4.244 19 19 0 0 0 8.1-12.709c1-5.166.53-10.8-.143-15.871a2.347 2.347 0 0 0-2.088-2.057 23.893 23.893 0 0 0-6.953.118z" transform="translate(-10398.396 -15276.403)">
			</path>
			<path id="Path_330" d="M10800.448 18545.85a2.569 2.569 0 1 1 5.127.342 123.515 123.515 0 0 1-3.394 19c-1.569 6.252-3.474 12.074-5.211 14.99a9.535 9.535 0 0 1-3.149 3.172 8.281 8.281 0 0 1-4.26 1.291 2.574 2.574 0 0 1 0-5.148 3.085 3.085 0 0 0 1.565-.508 4.311 4.311 0 0 0 1.438-1.441c1.457-2.443 3.163-7.762 4.629-13.6a118.321 118.321 0 0 0 3.255-18.098z" transform="translate(-10236.368 -16107.689)">
			</path>
			<path id="Path_331" d="M11328.125 17680.6a2.565 2.565 0 0 1-.181 5.127c-1.668-.059-3.348-.258-5.054-.459h-.011c-4.813-.568-9.909-1.17-10.3 1.785-.674 5.076-1.145 10.711-.145 15.875a19.017 19.017 0 0 0 8.1 12.713 2.563 2.563 0 0 1-2.876 4.242 23.954 23.954 0 0 1-10.271-15.988c-1.13-5.842-.627-11.992.1-17.506 1.062-7.988 8.738-7.086 15.993-6.229 1.671.195 3.312.389 4.645.44z" transform="translate(-10737.144 -15275.364)">
			</path>
			<path id="Path_332" d="M11451.747 18546.211a2.569 2.569 0 1 1 5.127-.34 118.322 118.322 0 0 0 3.255 18.09c1.465 5.84 3.171 11.16 4.628 13.6a4.25 4.25 0 0 0 1.438 1.441 3.05 3.05 0 0 0 1.565.512 2.574 2.574 0 0 1 0 5.148 8.274 8.274 0 0 1-4.26-1.293 9.547 9.547 0 0 1-3.147-3.172c-1.74-2.918-3.644-8.738-5.212-14.992a123.553 123.553 0 0 1-3.394-18.994z" transform="translate(-10876.872 -16107.709)">
			</path>
			<path id="Path_333" d="M11823.252 17685.777a2.566 2.566 0 0 1-.182-5.129c1.333-.047 2.974-.242 4.641-.437 7.255-.859 14.934-1.766 15.994 6.23.73 5.512 1.232 11.66.1 17.5a23.953 23.953 0 0 1-10.271 15.988 2.563 2.563 0 1 1-2.876-4.242 19.005 19.005 0 0 0 8.1-12.711c1-5.168.53-10.8-.144-15.875-.392-2.957-5.489-2.355-10.3-1.785h-.012c-1.702.2-3.382.399-5.05.461z" transform="translate(-11232.271 -15275.413)">
			</path>
			<path id="Path_334" d="M11833.761 18545.85a2.569 2.569 0 1 1 5.127.342 123.548 123.548 0 0 1-3.4 19c-1.568 6.252-3.472 12.074-5.211 14.99a9.511 9.511 0 0 1-3.147 3.172 8.284 8.284 0 0 1-4.26 1.291 2.574 2.574 0 0 1 0-5.148 3.094 3.094 0 0 0 1.566-.508 4.326 4.326 0 0 0 1.438-1.441c1.457-2.443 3.162-7.762 4.629-13.6a118.5 118.5 0 0 0 3.258-18.098z" transform="translate(-11231.985 -16107.689)">
			</path>
			<path id="Path_335" d="M10307.164 16206.994a2.565 2.565 0 1 1-.182 5.127c-1.667-.061-3.346-.26-5.051-.459h-.011c-4.814-.568-9.911-1.17-10.3 1.787q-.088.665-.18 1.7c-.062.682-.1 1.256-.122 1.715l-.028.715-.015.715a2.563 2.563 0 1 1-5.126-.037c.01-.543.022-1.074.041-1.615.034-.76.076-1.408.122-1.936s.119-1.166.221-1.92c1.059-7.99 8.739-7.086 15.993-6.232 1.664.198 3.307.391 4.638.44zm-12.481 36.66a2.567 2.567 0 1 1 3.7-3.559 13.3 13.3 0 0 0 4.107 2.955 11.11 11.11 0 0 0 4.578.957 2.574 2.574 0 0 1 0 5.148 16.243 16.243 0 0 1-6.67-1.42 18.355 18.355 0 0 1-5.715-4.081z" transform="translate(-9753.797 -13855.516)">
			</path>
			<path id="Path_336" d="M10792.067 16212.07a2.565 2.565 0 0 1-.18-5.127c1.332-.049 2.973-.242 4.641-.439 7.254-.857 14.934-1.764 15.993 6.227a45.343 45.343 0 0 1 .4 5.939 41.365 41.365 0 0 1-4.641 19.557c-3.194 5.789-7.96 9.912-14.1 10.725a16.477 16.477 0 0 1-2.193.15 2.572 2.572 0 1 1 0-5.145 11.986 11.986 0 0 0 1.529-.092c4.341-.576 7.825-3.7 10.26-8.111a36.166 36.166 0 0 0 4-17.084 40.269 40.269 0 0 0-.334-5.273c-.392-2.955-5.488-2.355-10.3-1.787h-.009c-1.718.201-3.397.398-5.066.46z" transform="translate(-10238.703 -13855.466)">
			</path>
			<path id="Path_337" d="M10062.939 16725.3l1.4 8.236 8.142 1.3-8.237 1.4-1.3 8.141-1.4-8.234-8.139-1.307 8.236-1.4z" transform="translate(-9529.54 -14355.861)">
			</path>
			<path id="Path_338" d="M10030.289 16691.2l1.245 7.328 7.229 1.156a1.283 1.283 0 0 1 .01 2.533l-7.326 1.248-1.158 7.229a1.282 1.282 0 0 1-2.531.01l-1.248-7.326-7.229-1.16a1.281 1.281 0 0 1-.01-2.529l7.326-1.248 1.158-7.23a1.284 1.284 0 0 1 2.533-.01zm-1.134 8.658l-.1-.57-.064.4a1.288 1.288 0 0 1-1.065 1.131l-.571.1.4.064a1.284 1.284 0 0 1 1.13 1.064l.1.572.063-.4a1.288 1.288 0 0 1 1.065-1.131l.573-.1-.4-.064a1.287 1.287 0 0 1-1.131-1.063z" transform="translate(-9495.625 -14321.98)">
			</path>
			<path id="Path_339" d="M10820.6 17468.678a1.282 1.282 0 0 1 2.563.006l-.158 25.461a1.282 1.282 0 0 1-2.564-.01z" transform="translate(-10268.599 -15070.893)">
			</path>
			<path id="Path_340" d="M10742.624 18023.938l4.232-2.738-4.279 9.227-4.279-9.227z" transform="translate(-10189.453 -15604.489)">
			</path>
			<path id="Path_341" d="M10708.623 17988.449l3.54-2.293a1.284 1.284 0 0 1 1.864 1.613l-4.279 9.23a1.287 1.287 0 0 1-1.7.629 1.305 1.305 0 0 1-.63-.629l-4.278-9.227a1.284 1.284 0 0 1 1.9-1.592zm1.2 2.277l-.471.307a1.285 1.285 0 0 1-1.409.027l-.645-.41 1.28 2.76z" transform="translate(-10155.46 -15570.524)">
			</path>
		</g>
	</symbol>
	<symbol xmlns="http://www.w3.org/2000/svg" viewBox="0 0 10 7" id="arrow-drop">
		<path fill-rule="evenodd" clip-rule="evenodd" d="M9.53033 0.96967C9.82322 1.26256 9.82322 1.73744 9.53033 2.03033L5.53033 6.03033C5.23744 6.32322 4.76256 6.32322 4.46967 6.03033L0.46967 2.03033C0.176777 1.73744 0.176777 1.26256 0.46967 0.96967C0.762563 0.676777 1.23744 0.676777 1.53033 0.96967L5 4.43934L8.46967 0.96967C8.76256 0.676777 9.23744 0.676777 9.53033 0.96967Z">
		</path>
	</symbol>
	<symbol version="1.1" id="implant" xmlns="http://www.w3.org/2000/svg" xmlns:xlink="http://www.w3.org/1999/xlink" x="0px" y="0px" xml:space="preserve" viewBox="0 0 380.721 380.721">
		<g>
			<path d="M299.774,28.738c-36.9-43.07-99.764-9.469-108.687-4.38c-28.64-19.56-68.672-36.796-100.902-12.241 C67.029,29.761,53.697,52.534,50.542,79.779c-4.247,36.75,11.613,72.477,22.592,88.801h0.396c0,5.211-0.146,11.41-0.146,11.41 h18.212h82.8v25.195h-67.365c1.545,7.238,3.375,15.336,5.496,23.957h61.869v25.213h-55.183c2.405,8.436,5.054,17.092,7.947,25.701 h47.235v25.212h-37.981c3.724,9.167,7.773,18.009,12.112,26.235h25.869v25.201h-20.193c11.683,14.65,25.021,24.016,40.096,24.016 c0.117,0,0.238-0.023,0.355-0.023c0.121,0,0.227,0.023,0.359,0.023c15.087,0,28.402-9.365,40.091-24.027h-20.193v-25.201h25.863 c4.345-8.215,8.389-17.068,12.118-26.246h-37.981v-25.189h47.241c2.882-8.621,5.542-17.266,7.947-25.701h-55.2v-25.213h61.881 c2.114-8.644,3.95-16.719,5.495-23.957H214.9V179.99h82.795h13.338c0,0,0.163-6.53,0.163-11.41h0.313 c10.003-14.535,16.533-31.231,18.624-48.781C332.783,97.503,329.681,63.624,299.774,28.738z M309.372,117.325 c-1.487,12.484-5.81,24.428-12.374,35.135H87.734c-8.284-14.326-19.653-42.286-16.417-70.275 c2.475-21.396,13.083-39.37,31.551-53.435c40.747-31.062,109.396,40.427,110.081,41.153c3.985,4.2,10.619,4.369,14.779,0.407 c4.194-3.962,4.368-10.579,0.418-14.779c-0.941-0.988-7.854-8.209-18.531-17.132c16.719-7.674,53.445-20.379,74.301,3.95 C303.667,65.396,312.462,91.316,309.372,117.325z">
			</path>
		</g>
	</symbol>
	<symbol xmlns="http://www.w3.org/2000/svg" viewBox="0 0 18 18" id="time">
		<path fill-rule="evenodd" clip-rule="evenodd" d="M0.5 9C0.5 4.30558 4.30558 0.5 9 0.5C13.6944 0.5 17.5 4.30558 17.5 9C17.5 13.6944 13.6944 17.5 9 17.5C4.30558 17.5 0.5 13.6944 0.5 9ZM9.75 4C9.75 3.58579 9.41421 3.25 9 3.25C8.58579 3.25 8.25 3.58579 8.25 4V9C8.25 9.25859 8.38321 9.49895 8.6025 9.636L11.6025 11.511C11.9538 11.7305 12.4165 11.6238 12.636 11.2725C12.8555 10.9212 12.7488 10.4585 12.3975 10.239L9.75 8.58431V4Z">
		</path>
	</symbol>
	<symbol xmlns="http://www.w3.org/2000/svg" viewBox="0 0 16 21" id="locate">
		<path fill-rule="evenodd" clip-rule="evenodd" d="M10.7808 18.7005C13.0905 15.7551 16 11.4759 16 8.6087C16 3.85424 12.4183 0 8 0C3.58172 0 0 3.85424 0 8.6087C0 11.4759 2.90945 15.7551 5.21921 18.7005C6.42425 20.2371 7.02677 21.0055 8 21.0055C8.97323 21.0055 9.57575 20.2371 10.7808 18.7005ZM8 12C6.34315 12 5 10.6569 5 9C5 7.34315 6.34315 6 8 6C9.65685 6 11 7.34315 11 9C11 10.6569 9.65685 12 8 12Z">
		</path>
	</symbol>
	<symbol xmlns="http://www.w3.org/2000/svg" viewBox="0 0 21 20" id="plus">
		<path d="M21 9v2h-9.45v9h-2.1v-9H0V9h9.45V0h2.1v9z" fill-rule="evenodd">
		</path>
	</symbol>
	<symbol xmlns="http://www.w3.org/2000/svg" xml:space="preserve" viewBox="0 0 32 32" id="menu">
		<path d="M16 2C8.3 2 2 8.3 2 16s6.3 14 14 14 14-6.3 14-14S23.7 2 16 2zm6 19H10c-.6 0-1-.4-1-1s.4-1 1-1h12c.6 0 1 .4 1 1s-.4 1-1 1zm0-4H10c-.6 0-1-.4-1-1s.4-1 1-1h12c.6 0 1 .4 1 1s-.4 1-1 1zm0-4H10c-.6 0-1-.4-1-1s.4-1 1-1h12c.6 0 1 .4 1 1s-.4 1-1 1z">
		</path>
	</symbol>
	<symbol xmlns="http://www.w3.org/2000/svg" viewBox="0 0 24 24" id="menu1">
		<path d="M8.81 0H2.19A2.19 2.19 0 0 0 0 2.19v6.62A2.19 2.19 0 0 0 2.19 11h6.62A2.19 2.19 0 0 0 11 8.81V2.19A2.19 2.19 0 0 0 8.81 0ZM9 8.81a.18.18 0 0 1-.19.19H2.19A.18.18 0 0 1 2 8.81V2.19A.18.18 0 0 1 2.19 2h6.62a.18.18 0 0 1 .19.19ZM21.81 0h-6.62A2.19 2.19 0 0 0 13 2.19v6.62A2.19 2.19 0 0 0 15.19 11h6.62A2.19 2.19 0 0 0 24 8.81V2.19A2.19 2.19 0 0 0 21.81 0ZM22 8.81a.18.18 0 0 1-.19.19h-6.62a.18.18 0 0 1-.19-.19V2.19a.18.18 0 0 1 .19-.19h6.62a.18.18 0 0 1 .19.19ZM8.81 13H2.19A2.19 2.19 0 0 0 0 15.19v6.62A2.19 2.19 0 0 0 2.19 24h6.62A2.19 2.19 0 0 0 11 21.81v-6.62A2.19 2.19 0 0 0 8.81 13ZM9 21.81a.18.18 0 0 1-.19.19H2.19a.18.18 0 0 1-.19-.19v-6.62a.18.18 0 0 1 .19-.19h6.62a.18.18 0 0 1 .19.19ZM21.81 13h-6.62A2.19 2.19 0 0 0 13 15.19v6.62A2.19 2.19 0 0 0 15.19 24h6.62A2.19 2.19 0 0 0 24 21.81v-6.62A2.19 2.19 0 0 0 21.81 13Zm.19 8.81a.18.18 0 0 1-.19.19h-6.62a.18.18 0 0 1-.19-.19v-6.62a.18.18 0 0 1 .19-.19h6.62a.18.18 0 0 1 .19.19Z">
		</path>
	</symbol>
	<symbol xmlns="http://www.w3.org/2000/svg" viewBox="0 0 127.01 134.709" id="gigiena">
		<defs>
		</defs>
		<g id="Group_516" transform="translate(-496.892 -1866.811)">
			<path id="Path_342" d="M9283.64 6610.851v-2.809a2.535 2.535 0 0 1 2.535-2.534h77.625l-3.848-13.613a2.524 2.524 0 0 1 2.43-3.205l45.542-.118a2.485 2.485 0 0 1 .8.069 2.53 2.53 0 0 1 1.841 3.067l-4.979 19.628a2.533 2.533 0 0 1-2.486 2.05h-116.925a2.533 2.533 0 0 1-2.535-2.535zm86.016-2.532h31.485l3.726-14.694-39.143.1 3.854 13.634a2.53 2.53 0 0 1 .077.959z" transform="translate(-8786.748 -4626.502)">
			</path>
			<path id="Path_343" d="M11535.242 6038.026a2.531 2.531 0 0 1-2.712 4.275 20.016 20.016 0 0 1-3.96-3.208 12.262 12.262 0 0 1-2.81-4.715 9.892 9.892 0 0 1-.472-2.957 8.021 8.021 0 0 1 1.6-4.879 8.477 8.477 0 0 1 4.321-2.975 11.507 11.507 0 0 1 3.439-.5h18.014a6.515 6.515 0 0 0 2.451-.506 1.851 1.851 0 0 0 .627-.41.2.2 0 0 0 .025-.111 1.933 1.933 0 0 0-.211-.751 3.249 3.249 0 0 1-.306-1.633 2.674 2.674 0 0 1 1.872-2.426 3.691 3.691 0 0 1 1.583-.2 8.75 8.75 0 0 1 2.334.607 13.667 13.667 0 0 1 6.29 5.615 12.668 12.668 0 0 1 1.705 8.133 11.712 11.712 0 0 1-3.463 6.967 23.53 23.53 0 0 1-5.937 3.993 2.528 2.528 0 0 1-2.316-4.493 19.207 19.207 0 0 0 4.691-3.081 6.862 6.862 0 0 0 2.019-4.078 7.625 7.625 0 0 0-1.052-4.888 8.7 8.7 0 0 0-2.278-2.558 5.145 5.145 0 0 1-1.1 2.158v.01a6.778 6.778 0 0 1-2.407 1.756 12.009 12.009 0 0 1-4.53.96h-18.014a6.507 6.507 0 0 0-1.935.265 3.5 3.5 0 0 0-1.79 1.174 3.041 3.041 0 0 0-.565 1.851 4.851 4.851 0 0 0 .234 1.452 7.3 7.3 0 0 0 1.68 2.776 15.093 15.093 0 0 0 2.973 2.377z" transform="translate(-10947.914 -4075.477)">
			</path>
			<path id="Path_344" d="M9330.27 4164.045a2.525 2.525 0 1 1-.178 5.047 89.787 89.787 0 0 1-10.123-1.183c-9.713-1.5-20.377-3.14-25.652 4.266a25.516 25.516 0 0 0-2.646 4.749v.01c-3.18 7.405-3.516 16.773-1.332 25.544 2.172 8.731 6.828 16.8 13.639 21.652a25.393 25.393 0 0 0 4.742 2.677 2.527 2.527 0 0 1-1.98 4.651 30.567 30.567 0 0 1-5.691-3.211c-7.846-5.588-13.172-14.733-15.617-24.561-2.436-9.79-2.025-20.33 1.59-28.751a30.751 30.751 0 0 1 3.178-5.69c7.092-9.954 19.354-8.065 30.52-6.344a88.38 88.38 0 0 0 9.55 1.144z" transform="translate(-8786.993 -2286.604)">
			</path>
			<path id="Path_345" d="M9551.319 5767.341a2.525 2.525 0 0 1 5.008.653 84.435 84.435 0 0 0-.054 17.738h.011a135.325 135.325 0 0 0 3.477 20.632 2.53 2.53 0 1 1-4.908 1.228 140.642 140.642 0 0 1-3.615-21.425h.01a89.358 89.358 0 0 1 .071-18.826zm11.288 60.624a2.525 2.525 0 0 1 4.335-2.592 8.718 8.718 0 0 0 3.094 3.324 2.894 2.894 0 0 0 1.925.367 3.285 3.285 0 0 0 1.742-1.057 8.114 8.114 0 0 0 1.817-3.9 2.525 2.525 0 0 1 4.947 1.009 13.143 13.143 0 0 1-3.062 6.337 8.279 8.279 0 0 1-4.494 2.581 7.839 7.839 0 0 1-5.269-.882 13.614 13.614 0 0 1-5.035-5.187zm18.454-21.069a2.524 2.524 0 0 1-5.047-.04c.021-2.374.043-4.671.09-6.654.047-2.128.113-3.913.212-5.095.369-4.361 1.019-8.159 2.489-10.987a8.988 8.988 0 0 1 8.7-5.254 2.523 2.523 0 1 1-.02 5.046 4.331 4.331 0 0 0-4.187 2.544c-1.1 2.116-1.616 5.307-1.934 9.067-.107 1.265-.172 2.913-.214 4.777-.05 2.012-.07 4.273-.088 6.6z" transform="translate(-9044.308 -3832.646)">
			</path>
			<path id="Path_346" d="M10505.411 4169.384a2.525 2.525 0 0 1-.18-5.047 88.25 88.25 0 0 0 9.55-1.143c9.836-1.515 20.525-3.162 27.887 3.389a2.53 2.53 0 0 1-3.365 3.78c-5.578-4.964-15.053-3.5-23.77-2.162a89.745 89.745 0 0 1-10.122 1.183zm40.854 17.218a2.53 2.53 0 1 1 5.025-.594 51.248 51.248 0 0 1-4.765 27.8c-3.86 7.925-9.861 14.551-17.765 17.944a2.527 2.527 0 0 1-1.978-4.651c6.688-2.872 11.826-8.607 15.191-15.51a46.067 46.067 0 0 0 4.293-24.991z" transform="translate(-9962.133 -2286.895)">
			</path>
			<path id="Path_347" d="M10536.52 5767.994a2.524 2.524 0 1 1 5.006-.653c.207 1.57.352 3.232.436 4.965s.113 3.576.084 5.506a2.524 2.524 0 0 1-5.047-.06c.027-1.779 0-3.523-.084-5.209a56.636 56.636 0 0 0-.395-4.549zm-10.615 57.379a2.525 2.525 0 0 1 4.334 2.592 13.6 13.6 0 0 1-5.033 5.184 7.842 7.842 0 0 1-5.27.882 8.267 8.267 0 0 1-4.494-2.581 13.132 13.132 0 0 1-3.064-6.337 2.525 2.525 0 1 1 4.947-1.009 8.115 8.115 0 0 0 1.818 3.9 3.282 3.282 0 0 0 1.742 1.057 2.89 2.89 0 0 0 1.924-.367 8.721 8.721 0 0 0 3.091-3.321zm-9.074-18.517a2.524 2.524 0 1 1-5.047.04 500.21 500.21 0 0 0-.086-6.6c-.043-1.864-.109-3.513-.217-4.777-.316-3.761-.832-6.951-1.934-9.067a4.33 4.33 0 0 0-4.186-2.544 2.523 2.523 0 1 1-.02-5.046 8.991 8.991 0 0 1 8.7 5.254c1.469 2.828 2.119 6.626 2.486 10.987.1 1.182.168 2.966.217 5.095.043 1.987.069 4.283.086 6.657z" transform="translate(-9962.163 -3832.646)">
			</path>
			<path id="Path_348" d="m9737.064 4693.561 2.292 13.472 13.316 2.133-13.473 2.291-2.136 13.316-2.289-13.473-13.316-2.134 13.474-2.29z" transform="translate(-9208.849 -2799.538)">
			</path>
			<path id="Path_349" d="m9704.375 4659.455 2.141 12.577 12.418 1.99a1.262 1.262 0 0 1 .011 2.492l-12.577 2.14-1.99 12.419a1.262 1.262 0 0 1-2.492.01l-2.14-12.577-12.42-1.99a1.262 1.262 0 0 1-.011-2.492l12.578-2.139 1.99-12.419a1.263 1.263 0 0 1 2.492-.01zm-.2 13.888-1.008-5.928-.915 5.7a1.262 1.262 0 0 1-1.048 1.113l-5.929 1.008 5.7.914a1.263 1.263 0 0 1 1.112 1.048l1.009 5.929.913-5.7a1.264 1.264 0 0 1 1.05-1.112l5.928-1.009-5.7-.913a1.264 1.264 0 0 1-1.113-1.05z" transform="translate(-9174.913 -2765.64)">
			</path>
			<path id="Path_350" d="m11603.83 3970.81 2.982 17.548 17.34 2.78-17.545 2.984-2.777 17.345-2.984-17.549-17.346-2.78 17.547-2.983z" transform="translate(-11004.036 -2102.737)">
			</path>
			<path id="Path_351" d="m11571.187 3936.706 2.833 16.653 16.448 2.636a1.263 1.263 0 0 1 .01 2.492l-16.653 2.833-2.637 16.448a1.262 1.262 0 0 1-2.491.01l-2.832-16.653-16.449-2.637a1.262 1.262 0 0 1-.011-2.492l16.654-2.833 2.635-16.448a1.263 1.263 0 0 1 2.493-.01zm.491 17.964-1.7-10.005-1.56 9.728a1.263 1.263 0 0 1-1.049 1.112l-10 1.7 9.727 1.56a1.267 1.267 0 0 1 1.114 1.049l1.7 10 1.56-9.728a1.263 1.263 0 0 1 1.049-1.113l10-1.7-9.728-1.559a1.267 1.267 0 0 1-1.113-1.044z" transform="translate(-10970.146 -2068.84)">
			</path>
		</g>
	</symbol>
	<symbol xmlns="http://www.w3.org/2000/svg" xml:space="preserve" viewBox="0 0 6938.23 8143.88" id="lechenie">
		<defs>
		</defs>
		<g id="Слой_x0020_1">
			<path d="M1502.69 8143.88h388.69c58.66-39.7 134-55.76 205.35-108.91 214.36-159.71 256.55-331.23 297.49-605.69l315.48-2099.6c22.88-153.39 39.06-373.59 106.37-495.91 60.85-110.6 205.15-221.22 384.33-218.42 89.9 1.4 180.06 27.71 239.94 73.42 216.15 165.07 197.86 319.56 246.95 655.86l313.8 2103.11c31.08 213.79 49.02 289.88 152.12 448.7 99.18 152.75 268.64 191.96 356.62 247.44h372.79c113.35-64.42 319.05-97.21 439.33-388.08 74.88-181.08 89.8-506.44 113.78-721.3 55.27-495.24 109.69-990.58 164.58-1487.48 14.85-134.41 54.88-655.93 93.88-738.33 222.19-469.46 339.01-620.3 506.05-1159.35 33.62-108.46 60.12-217.19 86.06-329.99 19.72-85.75 37.69-276.81 68.33-337.95 87.05-43.25 102.13-46.01 172.91-103.06 58.83-47.41 87.28-72.57 132.99-133.31 294.37-391.16 355.44-733.35 179.77-1236.31-96.94-277.57-383.55-614.79-576.17-776.81C5632.1 200.32 4969.64-29.2 4044.17 2.96c-160.4 5.58-331.88 23.63-483.47 59.33-285.54 67.25-470.88 250.19-504.27 558.08-23.48 216.45 44.9 274.82 118.69 399.38-231.77 9.99-472.41-42.1-677.95-105.78-215.79-66.86-344.15-146.73-589.9-185.99-471.58-75.35-905.59 64.18-1218.09 290.18-40.6 29.35-72.42 57.2-111.01 85.58-65.67 48.29-229.43 234.76-277.26 300.9-411.93 569.66-322.43 1275.39-189.83 1930.07 107.93 532.9 320.13 945.46 548.33 1394.34 69.01 135.77 60.27 140.9 78.52 303.82 25.94 231.51 51.14 464.12 76.79 695.38 51.68 465.96 103.61 931.17 154.5 1396.68 22.69 207.5 30.51 488.98 115.8 659.2 130.77 260.94 269.16 268.76 417.68 359.75zM3959.37 382.37c-81.4 8.61-377.01 42.36-435.63 93.51-28.44 24.81-59.76 65.48-76.42 108.43-54.01 139.26-12.05 186.22 96.22 231.26 100.29 41.71 157.92 61.79 236.23 121.93 126.93 97.48 202.33 304.99 187.99 533.46-6.34 101 4.08 242.78 74.72 279.38 84.48 43.77 204 35.49 292.33-.89 306.94-126.43 666.38-433.23 1077.27-257.64 151 64.54 258.85 226.63 314.04 402.12 62.24 197.96 3.08 439.46 101.56 615.92 32.81 58.79 127.37 114.26 228.81 119.66 118.35 6.29 207.98-36.94 272.17-89.01 58.17-47.18 118.09-126.12 157.46-200.72 196.11-371.58-18.16-885.16-307.56-1164.17-287.67-277.34-501.64-470.88-971.39-636.12-334.83-117.78-861.68-197.97-1247.8-157.12zM5979.7 3009.01c-100.33-50.71-376.99-68.92-503.31-368-32.18-76.19-55.32-142.98-70.86-229-25.91-143.46-12.36-409.49-79.17-511.26-89.63-136.53-308.93-72.98-435.64-11.19-245.59 119.74-547.96 349.87-898 246.36-154.86-45.8-269.48-143.61-327.99-262.2-84.69-171.67-74-314.22-74-521.2-308.24-3.22-343.71 63.54-807.07-7.79-261.43-40.25-437.76-108.53-670.75-197.51-238.2-90.96-494.73-107.68-755.5-50.69-161.85 35.38-319.23 107.99-447.15 200.64-217.05 157.24-373.94 353.45-473.16 613.93-93.61 245.75-90.54 492.16-66.11 767.35 46.76 526.87 162.41 948.86 359.81 1388.96 89.99 200.64 187.29 389.14 285.02 582.21 79.9 157.86 94.83 546.03 118.13 751.96 59 521.53 115.61 1046.28 174.68 1567.05 23.11 203.76 29.43 606.79 140.62 729.13 43.58 47.95 57.08 58.51 121.01 87.35 55.67 25.12 125.97 32.39 192.67 19 121.49-24.38 196.61-98.36 236.37-202.07 53.04-138.34 95.46-570.5 121.81-743.75l226.97-1519.45c37.19-253.82 51.07-499.8 171.76-697.44 262.47-429.81 833.45-493.05 1182.16-202.54 157.45 131.17 251.06 298.8 292.99 572.65l342.55 2274.7c15.95 103.08 27.78 272.89 72 354.15 107.29 197.19 409.18 241.67 558.84 27.95 64.2-91.69 66.37-235.71 79.79-359.98L5308 4955.54c33.6-302.89 82.83-332.89 233.54-634.28 157.66-315.32 425.14-960.59 438.17-1312.24z">
			</path>
			<path d="M710.71 2615.79v222.6h357.37c-2.75-283.27-15.83-487.45 128.35-746.38 65.91-118.33 213.43-292.65 320.2-339.19-15.51-49.45-167.94-273.49-200.52-302.23-376.73 295.51-605.4 627.36-605.4 1165.2z">
			</path>
		</g>
	</symbol>
	<symbol xmlns="http://www.w3.org/2000/svg" viewBox="0 0 464 464" id="udalenie">
		<path d="m215.59375 303.382812c-1.945312 19.929688-11.65625 38.226563-27.386719 51l-49.085937 39.882813 22.902344 34.359375 54.777343-43.25c29.488281-23.269531 46.542969-57.976562 47.128907-95.445312-10.960938 8.78125-24.824219 14.070312-39.929688 14.070312-2.855469 0-5.648438-.257812-8.40625-.617188zm0 0">
		</path>
		<path d="m160.617188 248.40625c-.371094-2.75-.617188-5.550781-.617188-8.40625 0-15.097656 5.28125-28.96875 14.0625-39.929688-37.460938.578126-72.167969 17.640626-95.4375 47.121094l-50.144531 63.511719 34.222656 22.816406 46.90625-57.726562c12.78125-15.738281 31.078125-25.441407 51.007813-27.386719zm0 0">
		</path>
		<path d="m95.054688 430.070312c-4.488282 3.648438-7.054688 9.050782-7.054688 14.824219 0 10.539063 8.566406 19.105469 19.105469 19.105469h3.496093c4.269532 0 8.476563-1.457031 11.832032-4.113281l27-21.320313-22.777344-34.167968zm0 0">
		</path>
		<path d="m248.511719 180.894531c1.503906-18.054687 6.648437-35.613281 15.167969-51.628906-4.703126-4.457031-7.679688-10.722656-7.679688-17.707031 0-7.144532 3.113281-13.910156 8.535156-18.558594l27.976563-23.976562c-50.414063 14.402343-87.289063 58.441406-91.976563 111.488281 7.28125-2.878907 15.175782-4.511719 23.464844-4.511719 8.679688 0 16.960938 1.753906 24.511719 4.894531zm0 0">
		</path>
		<path d="m4.113281 341.566406c-2.648437 3.363282-4.113281 7.570313-4.113281 11.839844v3.496094c0 10.53125 8.566406 19.097656 19.105469 19.097656 5.773437 0 11.183593-2.566406 14.816406-7.054688l18.644531-22.953124-34.039062-22.6875zm0 0">
		</path>
		<path d="m435.910156 66.097656-2.070312-.34375c-8.960938-1.496094-17.085938-5.675781-23.496094-12.097656-6.414062-6.417969-10.601562-14.542969-12.097656-23.503906l-.34375-2.0625c-2.710938-16.273438-16.664063-28.089844-33.160156-28.089844-16.917969 0-31.261719 12.65625-33.367188 29.457031-2.464844 19.734375-12.144531 37.734375-27.246094 50.6875l-29.175781 25.007813c-1.882813 1.609375-2.953125 3.945312-2.953125 6.40625 0 4.65625 3.785156 8.441406 8.441406 8.441406h3.191406c1.472657 0 2.910157-.382812 4.175782-1.113281l48.023437-27.4375c3.960938-2.257813 8.449219-3.449219 12.992188-3.449219h1c14.433593 0 26.175781 11.742188 26.175781 26.175781 0 5.472657-1.679688 10.734375-4.863281 15.199219l-33.464844 46.839844c-1.097656 1.546875-1.671875 3.335937-1.671875 5.226562v1.589844c0 4.945312 4.023438 8.96875 8.96875 8.96875 2.359375 0 4.671875-.960938 6.34375-2.625l33.609375-33.605469c12.476563-12.480469 29.007813-20.570312 46.527344-22.761719l3.101562-.382812c16.792969-2.105469 29.457031-16.449219 29.449219-33.359375 0-16.511719-11.816406-30.457031-28.089844-33.167969zm0 0">
		</path>
		<path d="m344.96875 208c-5.703125 0-10.90625-2-15.113281-5.222656-14.664063 7.03125-30.558594 11.34375-46.765625 12.703125 3.148437 7.550781 4.910156 15.832031 4.910156 24.519531 0 8.289062-1.632812 16.183594-4.519531 23.464844 54.757812-4.792969 99.535156-43.554688 112.566406-96.207032l-33.429687 33.429688c-4.640626 4.648438-11.074219 7.3125-17.648438 7.3125zm0 0">
		</path>
		<path d="m224 192c-26.472656 0-48 21.527344-48 48s21.527344 48 48 48 48-21.527344 48-48-21.527344-48-48-48zm0 64c-8.824219 0-16-7.175781-16-16s7.175781-16 16-16c8.816406 0 16 7.175781 16 16s-7.183594 16-16 16zm0 0">
		</path>
	</symbol>
	<symbol version="1.0" xmlns="http://www.w3.org/2000/svg" viewBox="0 0 83 74" id="smile">
		<g>
			<path d="M20.4 1c-3.2 1.3-7.3 6.7-8 10.8-.9 4.8.8 14.7 4.7 26.9 2.1 6.5 3.4 13.1 3.9 19.7.9 11.3 2.7 14.9 7.7 15.4 4.6.5 7.8-4 9.3-13 1.6-9.2 2.6-11.8 4.4-11.8 2.1 0 3.2 2.5 5.2 11.1 2.7 12.1 5.1 15 11 13.5 3.4-.9 5-5.2 5.9-16.1.4-5.4 2.1-13.8 4.2-21 4.4-14.8 5.2-23.6 2.6-28.4C68.8 3.4 65.1.9 59.6.3c-3.9-.5-5.7 0-10.9 2.6l-6.3 3.2L36.6 3C30.7-.1 24.8-.8 20.4 1zm14.1 5c7 3.7 9.4 3.7 15.1.4C60.9-.2 71 6.3 69.3 19c-.3 2.5-2.1 9.7-4 16-2.1 7.1-3.7 15.5-4.3 21.7-1.2 13.3-2.7 16.4-6.4 12.8-1.6-1.6-2.9-5.8-4.2-13-2.2-13-11.7-15.5-14.2-3.8-.6 2.6-1.6 7.1-2.2 10-.6 2.8-2.1 6-3.2 7-1.9 1.7-2 1.7-3.8-.4-1.2-1.6-1.9-4.9-2.5-11.5-.4-6.1-2-13.6-4.6-22.2-4.9-16.2-5.2-23.9-1.4-28.5 2.4-2.7 4.2-3.6 8.6-4 1 0 4.3 1.2 7.4 2.9z">
			</path>
			<path d="M57.7 8.8c-1.3 1.5-1.3 1.9.2 3.3s1.7 1.4 3.2-.2c1.5-1.5 1.5-1.8-.1-3.2-1.7-1.4-2-1.4-3.3.1zM32.3 22.6c-.3.8-.1 2 .5 2.6 1.6 1.6 4.2.2 4.2-2.2 0-2.4-3.8-2.8-4.7-.4zm16.1-.1c-.4.9-.2 2.1.4 2.7 1.5 1.5 4.4.1 4-1.9-.4-2.3-3.6-2.9-4.4-.8zM34 29.9c0 4.2 5.5 7.6 10.6 6.6 3.3-.6 6.4-3.6 6.4-6.2 0-2-2.4-1.5-3.8.7-.8 1.3-2.3 2-4.2 2-1.8 0-3.7-.8-4.7-2-1.8-2.1-4.3-2.7-4.3-1.1zm-27.6-2c-.4 1.3-2.1 2.9-3.8 3.6l-3.1 1.3 2.8 1.1c1.6.6 3.1 2 3.4 3.1.3 1.1.9 2 1.3 2s1-.9 1.3-2c.3-1.1 1.8-2.5 3.4-3.1l2.8-1.1-2.7-1c-1.5-.5-3.1-2.1-3.7-3.6l-1-2.7-.7 2.4zm67.1 17.3c-.6 1.3-2.3 2.9-3.9 3.7l-2.9 1.4 3 1.2c1.8.8 3.5 2.5 4.1 4.2l1 2.8 1.1-2.8c.6-1.6 2.5-3.4 4.3-4.2l3.3-1.4-3.3-1.1c-2-.8-3.4-2.1-3.8-3.6-.8-3-1.6-3-2.9-.2zm-61.6 1.7c-1.4 1.5-1.4 1.7.2 3.2 1.5 1.5 1.8 1.5 3.2-.1 1.4-1.7 1.4-2-.1-3.3-1.5-1.3-1.9-1.3-3.3.2z">
			</path>
		</g>
	</symbol>
	<symbol id="brekets" xmlns="http://www.w3.org/2000/svg" viewBox="0 0 157.516 173.741">
		<defs>
		</defs>
		<path id="Path_256" d="M-3343.285 1612.919a3.151 3.151 0 0 0 3.21-3.1 3.169 3.169 0 0 0-2.992-3.325 73.6 73.6 0 0 1-8.118-1.012c-9.885-1.578-20.737-3.31-27.177 6.054a28.62 28.62 0 0 0-2.833 5.253c-3.194 7.7-3.561 17.327-1.417 26.252 2.156 8.974 6.865 17.335 13.811 22.46a27.123 27.123 0 0 0 5.077 2.966 3.068 3.068 0 0 0 4.075-1.7 3.261 3.261 0 0 0-1.642-4.22 20.82 20.82 0 0 1-3.909-2.286c-5.673-4.185-9.559-11.178-11.379-18.756-1.832-7.627-1.558-15.76 1.1-22.17v-.013a22.055 22.055 0 0 1 2.181-4.055c4.208-6.119 13.1-4.7 21.192-3.409a74.983 74.983 0 0 0 8.821 1.061z" transform="translate(3497.577 -1545.34)">
		</path>
		<path id="Path_257" d="M-3377.3 2731.622a3.2 3.2 0 0 0-2.676-3.6 3.127 3.127 0 0 0-3.479 2.772c-.992 7.823-.342 18.528 1.5 28.783 1.781 9.938 4.7 19.568 8.349 25.9a12.869 12.869 0 0 0 4.692 4.978 7.43 7.43 0 0 0 5.151.885 7.972 7.972 0 0 0 4.376-2.592 12.851 12.851 0 0 0 2.867-6.115c.424-2.14.47-8.388.515-14.568.035-4.722.069-9.4.275-11.936.264-3.24.683-5.97 1.563-7.722a2.867 2.867 0 0 1 2.775-1.751 3.159 3.159 0 0 0 3.114-3.2 3.161 3.161 0 0 0-3.089-3.225 8.571 8.571 0 0 0-8.322 5.2c-1.334 2.658-1.918 6.162-2.244 10.165-.2 2.481-.239 7.439-.276 12.44-.042 5.846-.086 11.757-.393 13.308a6.382 6.382 0 0 1-1.335 3.017 1.923 1.923 0 0 1-1 .652 1.546 1.546 0 0 1-1.041-.23 6.764 6.764 0 0 1-2.308-2.609c-3.26-5.661-5.912-14.512-7.57-23.762-1.73-9.652-2.356-19.625-1.444-26.79z" transform="translate(3505.788 -2617.737)">
		</path>
		<path id="Path_258" d="M-2521.021 1621.743a3.171 3.171 0 0 0-2.992 3.326 3.151 3.151 0 0 0 3.211 3.1c2.476-.094 5.013-.405 7.592-.72h.012c7.663-.937 15.776-1.928 16.471 3.5 1.03 8.032 1.747 16.951.212 25.16-1.47 7.865-5.062 15.161-12.6 20.457a3.283 3.283 0 0 0-.827 4.459 3.034 3.034 0 0 0 4.305.856c9.135-6.419 13.471-15.166 15.227-24.563 1.692-9.054.936-18.624-.163-27.2-1.5-11.742-12.741-10.369-23.355-9.072-2.531.314-5.023.618-7.093.697z" transform="translate(2608.973 -1560.589)">
		</path>
		<path id="Path_259" d="M-2315.821 2704.955a3.183 3.183 0 0 0-2.895-3.426 3.148 3.148 0 0 0-3.309 3c-.465 7-2.445 18.195-4.95 28.527-2.236 9.228-4.85 17.651-7.1 21.555a7.469 7.469 0 0 1-2.439 2.538 5.34 5.34 0 0 1-2.782.92 3.171 3.171 0 0 0-3.114 3.225 3.171 3.171 0 0 0 3.114 3.225 11.447 11.447 0 0 0 6.042-1.9 13.825 13.825 0 0 0 4.507-4.705c2.591-4.5 5.444-13.551 7.8-23.292 2.587-10.66 4.635-22.29 5.126-29.667z" transform="translate(2427.357 -2592.476)">
		</path>
		<path id="Path_260" d="M-1849.249 1628.176a3.151 3.151 0 0 0 3.211-3.1 3.17 3.17 0 0 0-2.992-3.325c-2.069-.079-4.561-.384-7.094-.693-10.615-1.3-21.852-2.672-23.355 9.07-1.1 8.576-1.855 18.146-.163 27.2 1.757 9.4 6.093 18.144 15.227 24.563a3.035 3.035 0 0 0 4.305-.856 3.283 3.283 0 0 0-.827-4.459c-7.537-5.3-11.13-12.592-12.6-20.457-1.534-8.209-.817-17.128.212-25.16.7-5.432 8.809-4.441 16.471-3.5h.013c2.579.313 5.117.623 7.592.717z" transform="translate(1937.201 -1560.598)">
		</path>
		<path id="Path_261" d="M-1874.66 2704.526a3.148 3.148 0 0 0-3.308-3 3.183 3.183 0 0 0-2.895 3.426c.49 7.377 2.539 19.007 5.12 29.661 2.361 9.741 5.214 18.8 7.8 23.292a13.833 13.833 0 0 0 4.507 4.705 11.449 11.449 0 0 0 6.041 1.9 3.171 3.171 0 0 0 3.114-3.225 3.171 3.171 0 0 0-3.114-3.225 5.339 5.339 0 0 1-2.782-.92 7.48 7.48 0 0 1-2.44-2.538c-2.25-3.9-4.863-12.327-7.1-21.555-2.497-10.326-4.478-21.516-4.943-28.521z" transform="translate(1945.451 -2592.476)">
		</path>
		<path id="Path_262" d="M-1239.157 1621.743a3.17 3.17 0 0 0-2.992 3.326 3.151 3.151 0 0 0 3.211 3.1c2.476-.094 5.013-.405 7.592-.72h.013c7.663-.937 15.776-1.928 16.471 3.5 1.029 8.032 1.746 16.951.212 25.16-1.47 7.865-5.062 15.161-12.6 20.457a3.283 3.283 0 0 0-.827 4.459 3.035 3.035 0 0 0 4.305.856c9.135-6.419 13.471-15.166 15.227-24.563 1.692-9.054.935-18.624-.163-27.2-1.5-11.742-12.741-10.369-23.355-9.072-2.537.314-5.026.618-7.094.697z" transform="translate(1270.543 -1560.589)">
		</path>
		<path id="Path_263" d="M-1033.961 2704.955a3.183 3.183 0 0 0-2.894-3.426 3.147 3.147 0 0 0-3.308 3c-.465 7-2.446 18.2-4.95 28.528-2.237 9.228-4.849 17.65-7.1 21.555a7.472 7.472 0 0 1-2.439 2.538 5.34 5.34 0 0 1-2.782.92 3.171 3.171 0 0 0-3.114 3.225 3.171 3.171 0 0 0 3.114 3.225 11.45 11.45 0 0 0 6.042-1.9 13.831 13.831 0 0 0 4.507-4.705c2.591-4.5 5.444-13.551 7.805-23.292 2.58-10.661 4.629-22.291 5.119-29.668z" transform="translate(1088.93 -2592.476)">
		</path>
		<path id="Path_264" d="M-2176.086 1945.13h-23.05a5.78 5.78 0 0 0-4.165 1.791 6.2 6.2 0 0 0-1.73 4.313v16.975a6.2 6.2 0 0 0 1.73 4.313 5.779 5.779 0 0 0 4.165 1.791h23.05a5.77 5.77 0 0 0 4.153-1.791l.011-.012a6.188 6.188 0 0 0 1.729-4.3v-16.975a6.187 6.187 0 0 0-1.729-4.3l-.011-.012a5.77 5.77 0 0 0-4.153-1.793zm-22.717 6.45h22.382v16.284h-22.379z" transform="translate(2275.673 -1870.656)">
		</path>
		<path id="Path_265" d="M-3056.927 2193.83a3.171 3.171 0 0 0-3.114 3.225 3.172 3.172 0 0 0 3.114 3.225h37.621a3.171 3.171 0 0 0 3.114-3.225 3.171 3.171 0 0 0-3.114-3.225z" transform="translate(3159.403 -2107.989)">
		</path>
		<path id="Path_266" d="M-3366.791 1951.568a3.158 3.158 0 0 0 3.1-3.212 3.158 3.158 0 0 0-3.1-3.212h-11.525v-.013a5.781 5.781 0 0 0-4.165 1.791 6.2 6.2 0 0 0-1.729 4.313v16.975a6.2 6.2 0 0 0 1.729 4.313 5.78 5.78 0 0 0 4.165 1.791h11.525a3.171 3.171 0 0 0 3.114-3.225 3.171 3.171 0 0 0-3.114-3.225h-11.191v-16.3z" transform="translate(3521.193 -1870.656)">
		</path>
		<path id="Path_267" d="M-894.226 1945.13h-23.05a5.78 5.78 0 0 0-4.164 1.791 6.2 6.2 0 0 0-1.729 4.313v16.975a6.2 6.2 0 0 0 1.729 4.313 5.778 5.778 0 0 0 4.164 1.791h23.05a5.769 5.769 0 0 0 4.153-1.791l.012-.012a6.188 6.188 0 0 0 1.729-4.3v-16.975a6.188 6.188 0 0 0-1.729-4.3l-.012-.012a5.769 5.769 0 0 0-4.153-1.793zm-22.716 6.45h22.383v16.284h-22.383z" transform="translate(937.246 -1870.656)">
		</path>
		<path id="Path_268" d="M-1553.586 2193.83a3.171 3.171 0 0 0-3.114 3.225 3.171 3.171 0 0 0 3.114 3.225h27.957a3.171 3.171 0 0 0 3.114-3.225 3.171 3.171 0 0 0-3.114-3.225z" transform="translate(1599.386 -2107.989)">
		</path>
		<path id="Path_269" d="M-271.726 2193.83a3.171 3.171 0 0 0-3.114 3.225 3.172 3.172 0 0 0 3.114 3.225h13.978a3.171 3.171 0 0 0 3.114-3.225 3.171 3.171 0 0 0-3.114-3.225z" transform="translate(274.938 -2107.989)">
		</path>
		<path id="Path_270" d="M-567.389 1628.176a3.151 3.151 0 0 0 3.211-3.1 3.17 3.17 0 0 0-2.992-3.325c-2.069-.079-4.561-.384-7.093-.693-10.615-1.3-21.852-2.672-23.356 9.07-1.1 8.576-1.855 18.146-.163 27.2 1.756 9.4 6.092 18.144 15.227 24.563a3.035 3.035 0 0 0 4.305-.856 3.283 3.283 0 0 0-.827-4.459c-7.537-5.3-11.13-12.592-12.6-20.457-1.534-8.209-.817-17.128.212-25.16.7-5.432 8.808-4.441 16.471-3.5h.012c2.582.313 5.118.623 7.593.717z" transform="translate(598.774 -1560.598)">
		</path>
		<path id="Path_271" d="M-592.81 2704.526a3.148 3.148 0 0 0-3.308-3 3.183 3.183 0 0 0-2.894 3.426c.49 7.377 2.538 19.007 5.121 29.662 2.361 9.741 5.214 18.8 7.805 23.292a13.83 13.83 0 0 0 4.507 4.705 11.448 11.448 0 0 0 6.042 1.9 3.171 3.171 0 0 0 3.114-3.225 3.171 3.171 0 0 0-3.114-3.225 5.341 5.341 0 0 1-2.782-.92 7.478 7.478 0 0 1-2.439-2.538c-2.251-3.9-4.863-12.327-7.1-21.555-2.506-10.326-4.487-21.518-4.952-28.522z" transform="translate(607.034 -2592.476)">
		</path>
		<path id="Path_272" d="m-2825.426 857.4-2.168 13.209-12.606 2.091 12.753 2.246 2.021 13.056 2.169-13.209 12.6-2.092-12.753-2.246z" transform="translate(2944.161 -832.641)">
		</path>
		<path id="Path_273" d="m-2860.564 823.583-1.982 12.069-11.5 1.91a1.6 1.6 0 0 0-1.289 1.839 1.581 1.581 0 0 0 1.277 1.333l11.653 2.054 1.844 11.915a1.559 1.559 0 0 0 1.775 1.335 1.58 1.58 0 0 0 1.287-1.323l1.983-12.069 11.5-1.91a1.6 1.6 0 0 0 1.289-1.839 1.582 1.582 0 0 0-1.277-1.333l-11.653-2.054-1.843-11.91a1.559 1.559 0 0 0-1.775-1.335 1.583 1.583 0 0 0-1.289 1.318zm.9 13.738.592-3.606.521 3.359a1.586 1.586 0 0 0 1.289 1.416l3.482.614-3.243.538a1.578 1.578 0 0 0-1.368 1.335l-.592 3.607-.52-3.359a1.587 1.587 0 0 0-1.289-1.416l-3.482-.613 3.243-.539a1.577 1.577 0 0 0 1.362-1.335z" transform="translate(2977.769 -799.089)">
		</path>
		<path id="Path_274" d="m-1035.046 350.85-2.168 13.209-12.606 2.093 12.754 2.245 2.02 13.056 2.168-13.209 12.605-2.092-12.753-2.246z" transform="translate(1074.774 -349.243)">
		</path>
		<path id="Path_275" d="m-1070.185 317.034-1.982 12.069-11.5 1.91a1.6 1.6 0 0 0-1.289 1.839 1.581 1.581 0 0 0 1.277 1.333l11.653 2.054 1.844 11.915a1.56 1.56 0 0 0 1.775 1.335 1.58 1.58 0 0 0 1.287-1.323l1.983-12.069 11.5-1.91a1.6 1.6 0 0 0 1.289-1.839 1.581 1.581 0 0 0-1.277-1.333l-11.653-2.054-1.844-11.914a1.56 1.56 0 0 0-1.775-1.335 1.582 1.582 0 0 0-1.288 1.322zm.9 13.738.592-3.606.52 3.359a1.587 1.587 0 0 0 1.289 1.416l3.482.613-3.243.538a1.578 1.578 0 0 0-1.368 1.335l-.592 3.607-.52-3.359a1.587 1.587 0 0 0-1.289-1.416l-3.482-.613 3.244-.539a1.578 1.578 0 0 0 1.363-1.335z" transform="translate(1108.382 -315.691)">
		</path>
	</symbol>
</svg>
