<svg xmlns="http://www.w3.org/2000/svg" width="146" height="125">
	<g fill="none" fill-rule="evenodd" stroke="#ffff00" stroke-linecap="round" stroke-linejoin="round" stroke-width="3">
		<path d="M107.34 72.852c-6.457.92-7.55 6.863-7.607 8.195m32.863-4.917c-2.176.129-5.342-.009-8.542-1.58-2.3-1.128-3.197-2.526-4.463-3.263-7.118-4.141-15.515-3.783-20.446.87a12.432 12.432 0 0 0-2.907 4.176M95.1 80.776c-.557 5.023.987 9.893 1.607 11.367a31.793 31.793 0 0 0 2.546 4.834c.485.804.974 1.608 1.422 2.445a20.491 20.491 0 0 1 2.467 7.344 60.052 60.052 0 0 0 1.564 9.213c.594 2.218 1.838 6.83 5.962 6.83 1.325 0 4.849 0 7.096-16.127.365-2.577 1.264-2.944 1.823-3.035.558.091 1.457.458 1.822 3.031 2.247 16.13 5.77 16.13 7.095 16.13 4.125 0 5.37-4.611 5.964-6.815a60.063 60.063 0 0 0 1.567-9.229 20.494 20.494 0 0 1 2.466-7.342c.448-.837.935-1.641 1.421-2.445a31.616 31.616 0 0 0 2.55-4.836c.99-2.354 4.422-13.5-2.436-19.982-4.816-4.552-13.008-5.226-19.872-1.273m-38.92-33.393c0-2.724 1.405-4.931 3.138-4.931 1.732 0 3.137 2.207 3.137 4.93m6.127.001c0-2.724 1.404-4.931 3.137-4.931 1.732 0 3.138 2.207 3.138 4.93m-2.511 4.32c0 2.723-3.057 4.93-6.827 4.93-3.772 0-6.828-2.207-6.828-4.93"/>
		<path d="M110.726 30.971c0 12.128-9.832 21.96-21.96 21.96-12.129 0-21.961-9.832-21.961-21.96s9.832-21.96 21.96-21.96c12.129 0 21.961 9.832 21.961 21.96z"/>
		<path d="M55.07 106.942c-.52.201-1.03.39-1.529.566-4.628 1.637-8.319 2.258-9.99 2.502-2.586-1.67-8.473-5.966-12.258-13.958-4.17-8.795-3.311-16.827-2.84-19.82a78.117 78.117 0 0 0 24.84-9.276 78.17 78.17 0 0 0 21.751-18.843m-13.84 56.014a52 52 0 0 1-.7.369m28.262-51.564c.309 3.631 1.54 22.496-12.291 38.863a51.792 51.792 0 0 1-10.357 9.35"/>
		<path d="M67.085 55.316c-1.96-10.372-8.753-18.18-17.053-19.689-.626-.114-11.908-1.993-16.433 5.68-3.463 5.872-.212 12.79.435 14.064 4.087 8.047 15.054 13.221 16.042 13.36m10.844-15.2c-1.837-6.931-7.324-12.314-13.78-13.574M67.888 21.98c-2.193-.734-4.655-.954-7.225-.096-6.466 2.157-8.553 9.51-8.902 10.897a18.203 18.203 0 0 0-.445 2.563M28.044 90.848c-2.391.57-10.124 2.089-16.322-2.366a15.54 15.54 0 0 1-2.602-2.365m100.29-3.154c-4.175 3.89-17.938 14.659-33.728-8.52-2.566-3.766-4.914-8.031-7.045-12.511m20.386-1.925c7.816-.093 12.41 3.933 15.631 8.725m-71.077 32.413c-1.304 2.086-5.741 8.598-13.281 9.78a15.458 15.458 0 0 1-3.514.143m59.304-99.26a6.228 6.228 0 1 1 11.62-3.121M60.504 34.055c6.83-1.256 22.568-4.97 28.053-15.34.374-.708.705-1.457.984-2.248m24.901 15.731c-5.851-1.124-19.33-4.445-24.027-13.72a15.204 15.204 0 0 1-.843-2.011M8.313 86.398c-1.395 2.419-3.594 3.764-4.909 3.004-1.316-.76-1.25-3.335.147-5.754 1.395-2.418 3.594-3.763 4.908-3.004 1.317.76 1.25 3.336-.146 5.754zm9.178 26.828c1.395 2.418 1.462 4.995.146 5.754-1.315.759-3.513-.586-4.909-3.004-1.397-2.418-1.462-4.995-.147-5.754 1.315-.76 3.514.586 4.91 3.004zm115.105-74.711 3.048 6.177 6.817.99-4.932 4.807 1.163 6.788-6.096-3.204-6.095 3.204 1.163-6.788-4.932-4.807 6.816-.99zM33.577 6.095l3.048 6.176 6.816.99-4.932 4.808 1.164 6.789-6.096-3.206-6.096 3.206 1.164-6.789-4.933-4.808 6.817-.99z"/>
	</g>
	<path style="fill:#ffff00;stroke-width:.00568862" d="M26.924 26.12a1.339 1.339 0 0 1-.696-.703c-.182-.44-.146-.826.343-3.692l.546-3.2-2.259-2.19c-1.242-1.206-2.341-2.347-2.442-2.536-.256-.477-.074-1.148.424-1.567.357-.3.85-.412 3.395-.772 1.638-.232 3.066-.455 3.174-.496.107-.041.805-1.295 1.55-2.787.744-1.492 1.49-2.861 1.656-3.042.422-.458 1.043-.564 1.604-.274.387.2.694.715 1.874 3.148 1.138 2.345 1.478 2.924 1.757 2.985.19.042 1.557.25 3.04.462 3.08.441 3.449.552 3.749 1.133.49.946.403 1.086-2.194 3.599l-2.419 2.34.557 3.226c.307 1.774.517 3.354.467 3.512-.05.157-.253.437-.45.623-.65.61-1.125.483-4.079-1.088-1.497-.796-2.818-1.448-2.937-1.448-.118 0-1.42.633-2.892 1.406-1.472.773-2.812 1.444-2.976 1.49-.165.046-.521-.012-.792-.128zm4.517-4.937c1.012-.536 1.968-.972 2.126-.97.157.002 1.125.44 2.151.973 1.026.534 1.91.97 1.964.97.055 0-.06-.893-.254-1.984-.195-1.09-.355-2.111-.355-2.268 0-.16.692-.988 1.598-1.906.879-.893 1.567-1.654 1.529-1.693-.039-.038-.962-.206-2.053-.373s-2.117-.376-2.28-.463c-.163-.087-.734-1.031-1.268-2.098-.535-1.067-1.007-1.94-1.05-1.94-.043 0-.473.836-.956 1.857-.567 1.2-1.012 1.945-1.259 2.107-.22.145-1.216.372-2.364.54-1.091.161-2.015.324-2.054.363-.039.038.649.761 1.527 1.606 1.843 1.772 1.776 1.553 1.291 4.219-.315 1.733-.346 2.033-.214 2.033.045 0 .91-.438 1.921-.973zM109.602 124.159c-3.313-.84-5.086-3.144-6.357-8.259-.594-2.391-.99-4.587-1.356-7.517-.552-4.432-1.164-6.14-3.797-10.599-1.74-2.948-2.597-4.68-3.1-6.274-.177-.559-.398-1.089-.49-1.178-.094-.089-.704-.247-1.356-.35-1.343-.215-3.738-1.01-5.091-1.69-1.088-.546-2.632-1.526-4.02-2.55-.56-.412-1.04-.724-1.067-.693-.027.03-.431.677-.898 1.437-3.2 5.2-8.041 10.505-13.037 14.283-2.529 1.913-2.985 2.079-3.806 1.388-.462-.389-.603-1.013-.367-1.628.052-.135.978-.905 2.059-1.713 4.76-3.558 8.689-7.702 11.968-12.624.673-1.01 1.39-2.151 1.592-2.536l.367-.699-1.147-1.2c-3.59-3.758-7.534-9.686-10.91-16.397-1.76-3.498-1.807-3.68-1.148-4.387a1.31 1.31 0 0 1 1.6-.278c.372.192.74.8 2.037 3.363 1.761 3.479 4.228 7.676 5.961 10.145 2.043 2.91 4.757 6.138 5.022 5.974.212-.13 1.583-3.426 2.31-5.551 1.246-3.645 2.094-7.432 2.58-11.527.27-2.27.452-8.297.259-8.571-.073-.104-.7-.258-1.395-.343-3.403-.42-6.977-1.701-9.832-3.528-.45-.287-.867-.502-.928-.477-.06.024-.514.516-1.008 1.092-7.999 9.338-18.28 16.815-29.681 21.587-3.984 1.668-10.366 3.672-13.96 4.385l-.854.17-.115.701c-.064.386-.114 1.949-.11 3.472.006 3.002.246 5.071.905 7.772 1.669 6.847 5.7 13.142 11.234 17.54 2.173 1.728 2.04 1.675 3.5 1.403 2.082-.388 5.322-1.258 7.57-2.033 1.165-.402 2.23-.73 2.366-.73.458 0 1.088.43 1.269.868.234.567.077 1.146-.426 1.57-1.066.897-10.193 3.398-12.409 3.4-1.26 0-6.137-4.114-9.017-7.61l-.532-.646-.844 1.101c-1.296 1.693-3.883 4.12-5.62 5.273-2.44 1.62-5.162 2.657-7.56 2.88-.558.052-1.045.144-1.083.205-.037.06.125.54.361 1.063 1.047 2.324.985 4.596-.162 5.903-.667.76-1.246 1.014-2.308 1.017-1.293.003-2.388-.559-3.728-1.912-1.72-1.738-2.768-4.092-2.768-6.22 0-1.707.535-2.806 1.677-3.448.976-.548 2.105-.489 3.41.18 1.025.527 1.046.53 2.726.489 1.937-.048 3.76-.428 5.401-1.126 2.486-1.058 5.697-3.693 7.554-6.198 1.115-1.506 1.194-1.679.937-2.075-1.1-1.7-2.844-5.422-3.633-7.754-.074-.218-.218-.212-1.554.063-2.034.419-6.843.452-8.765.061-2.938-.598-5.668-1.835-7.77-3.522l-1.272-1.02-.989 1.002c-2.04 2.067-4.217 2.495-5.768 1.133-1.539-1.35-1.572-3.884-.09-6.845.778-1.554 2.19-3.098 3.453-3.774 1.518-.813 3.155-.686 4.137.32 1.02 1.049 1.313 2.402.922 4.273l-.247 1.182.647.666c3.389 3.491 9.464 4.895 15.669 3.62.762-.157.796-.184.711-.562a78.884 78.884 0 0 1-.41-2.42c-.399-2.501-.469-7.192-.142-9.503.263-1.866.512-2.178 1.96-2.457 3.443-.662 8.407-2.074 11.858-3.372 2.259-.85 5.647-2.284 5.854-2.478.068-.064-.336-.372-.898-.685-2.715-1.514-5.696-3.693-7.88-5.76-3.817-3.613-5.95-7.328-6.832-11.897-1.397-7.237 1.987-13.292 8.706-15.579 2.217-.755 3.26-.888 6.946-.888h3.458l.183-.898c.303-1.491 1.023-3.474 1.84-5.065 2.67-5.196 7.025-8.154 12.043-8.179.953-.004 2.883.274 3.494.505.16.06.427-.266.939-1.148a28.53 28.53 0 0 1 1.496-2.281c.822-1.101 3.08-3.458 4.046-4.221l.568-.45-.381-1.134c-.452-1.347-.512-3.135-.15-4.522.823-3.163 4.025-5.616 7.33-5.616 3.394 0 6.58 2.485 7.412 5.78l.193.764 1.511.097c6.972.445 13.596 4.331 17.63 10.34 2.139 3.189 3.588 7.318 3.825 10.898.067 1.02.138 1.321.326 1.376.132.038.798.186 1.481.329 1.465.307 1.977.698 1.977 1.509 0 .696-.232 1.08-.798 1.316-.4.167-.658.161-1.648-.036-1.366-.273-1.362-.275-1.495.987-.245 2.321-1.55 6.022-2.946 8.356-2.314 3.867-5.81 7.14-9.736 9.11-2.37 1.19-4.568 1.827-8.268 2.396l-.566.086.042 2.126.041 2.126 1.198.114c2.788.265 5.965 1.447 8.415 3.132 1.331.915 3.699 3.235 4.684 4.589.617.85.71.92 1.122.844 3.748-.686 8.106-.122 12.004 1.556l1.732.745 1.161-.586c2.982-1.503 6.113-2.168 9.635-2.046 2.817.097 4.537.515 6.905 1.676 4.502 2.206 7.232 6 8.096 11.248.188 1.142.224 2.049.158 3.952-.122 3.552-.797 6.624-2.096 9.552-.651 1.466-.937 1.99-2.989 5.473-2.021 3.432-2.624 5.24-3.175 9.526-.419 3.254-1.052 6.573-1.643 8.608-1.291 4.444-3.184 6.623-6.205 7.14-4.263.732-6.92-3.233-8.745-13.053a94.367 94.367 0 0 1-.544-3.219c-.21-1.497-.419-2.32-.59-2.32-.158 0-.19.149-.686 3.218-1.425 8.822-3.4 13.64-6.141 14.982-.813.398-2.388.609-3.134.42zm2.49-3.442c1.525-1.478 2.84-5.597 4.01-12.558.553-3.287.642-3.607 1.25-4.515.775-1.152 1.97-1.651 3.01-1.255.648.246 1.541 1.175 1.874 1.95.179.414.548 2.098.835 3.805 1.302 7.748 2.74 11.918 4.475 12.976 1.247.76 3.156-.097 4.206-1.888.901-1.537 2.017-5.906 2.542-9.95.468-3.611.554-4.128.91-5.465.619-2.313 1.454-4.139 3.297-7.2 1.332-2.213 2.444-4.412 2.97-5.874 1.013-2.82 1.524-7.314 1.15-10.13-.704-5.31-3.935-9.018-9.067-10.405-1.7-.46-4.91-.571-6.737-.235-1.527.282-3.932 1.035-4.357 1.365-.273.212-.267.234.166.6 2.063 1.742 5.305 2.763 8.774 2.763 1.578 0 1.64.012 2.107.43.686.613.678 1.378-.023 2.004l-.505.45-2.332-.082c-4.382-.154-7.268-1.24-10.409-3.912-2.714-2.31-6.743-3.68-10.82-3.68-2.874 0-4.574.38-6.786 1.516-2.028 1.044-3.696 2.73-4.827 4.883-.313.595-.695 1.15-.85 1.234-.91.486-2.1-.188-2.097-1.187.005-1.11 1.752-3.755 3.59-5.432.997-.91 2.977-2.208 3.706-2.43.185-.056.337-.196.337-.31 0-.333-3.126-3.412-4.174-4.112-2.077-1.387-4.657-2.317-6.925-2.497l-1.143-.09-.083.432c-.045.238-.125.904-.178 1.48-.497 5.419-2.696 13.141-5.101 17.918l-.544 1.08.429.353c1.637 1.348 3.817 2.707 5.48 3.42 1.078.46 3.53 1.187 3.633 1.077.024-.025-.024-.416-.105-.869-.082-.453-.156-1.935-.165-3.293-.013-2.03.028-2.553.231-2.936.464-.873 1.56-1.019 2.277-.302.331.331.344.435.342 2.876-.001 2.158.203 4.47.414 4.68.033.033.618-.02 1.301-.119 3.009-.433 6.493-2.095 9.077-4.331 1.242-1.074 1.703-1.365 2.163-1.365.59 0 .961.23 1.238.764.354.686.16 1.217-.754 2.051-3.31 3.026-7.41 5.099-11.288 5.707-.525.083-.984.18-1.02.215-.099.099.957 2.59 1.563 3.688a119.7 119.7 0 0 0 1.662 2.844c2.602 4.329 3.353 6.57 3.99 11.902.477 3.984 1.48 8.153 2.424 10.072.874 1.777 2.047 2.612 3.536 2.516.603-.039.82-.142 1.322-.629zm-94.991-3.28c.417-1.661-1.296-4.931-3.021-5.767-.888-.43-1.012-.296-.936 1.005.104 1.794 1.577 4.188 3.015 4.896.662.327.832.303.942-.134zM5.126 87.865c1.569-.97 3.075-3.864 2.82-5.417-.116-.708-.513-.748-1.353-.138-1.248.905-2.112 2.241-2.547 3.938-.44 1.714-.04 2.31 1.08 1.617ZM52.093 66c4.076-2.335 8.307-5.327 11.801-8.345.961-.83 1.782-1.565 1.824-1.633.042-.068-.083-.794-.278-1.614-1.852-7.792-6.419-13.85-12.34-16.37-1.98-.843-3.153-1.078-5.822-1.17-4.57-.154-7.538.595-10.162 2.568-.92.691-2.07 2.058-2.586 3.074-.887 1.743-1.254 4.536-.909 6.906.816 5.596 4.335 10.362 10.881 14.736 1.304.871 5.155 3.046 5.42 3.06.028.001 1.005-.544 2.17-1.212zM71.985 49.58l1.063-1.244-.822-.851c-1.86-1.927-3.234-3.857-4.39-6.164-.791-1.577-1.734-4.325-2.022-5.89-.171-.932-.216-1.016-.505-.938-.175.047-1.34.299-2.588.56-2.541.531-3 .486-3.426-.335-.273-.529-.273-.791 0-1.32.266-.515.652-.678 2.477-1.05.783-.16 1.9-.399 2.486-.532l1.062-.242.098-1.709c.107-1.875.537-4.342.994-5.708.161-.483.295-.922.297-.976.008-.213-2.206-.461-3.335-.374-3.85.297-7.045 2.817-9.082 7.163-.623 1.33-1.307 3.5-1.382 4.38l-.045.536 1.198.49c6.087 2.486 11.136 8.5 13.473 16.047.306.988.59 1.898.63 2.021.077.24 1.822-1.526 3.819-3.864zm21 1.485c7.293-1.591 12.91-6.632 15.278-13.71.557-1.664 1.097-4.659.875-4.85-.074-.064-.876-.336-1.782-.605-7.602-2.258-13.886-6.237-16.93-10.718-.474-.698-.877-1.252-.895-1.232-.019.02-.39.57-.825 1.22-.975 1.461-3.254 3.86-4.853 5.105-3.963 3.09-8.177 5.11-15.29 7.333-.252.08.14 2.06.78 3.948 1.05 3.092 2.498 5.436 4.78 7.739 1.954 1.971 3.168 2.855 5.539 4.03 2.063 1.024 3.802 1.588 5.993 1.946 1.82.297 5.498.194 7.33-.206zM70.093 30.15c9.162-3.033 15.485-7.742 17.73-13.202.595-1.448.973-1.858 1.712-1.858.755 0 1.144.405 1.728 1.8 1.792 4.277 5.889 7.864 11.971 10.483 1.98.852 5.83 2.181 5.956 2.056.04-.04-.005-.633-.102-1.316a20.69 20.69 0 0 0-8.468-13.93c-1.392-.993-4.317-2.4-5.986-2.88-2.37-.68-3.93-.863-6.59-.772-3.314.113-5.42.618-8.233 1.974-3.906 1.883-7.378 5.278-9.301 9.096-1.211 2.404-1.719 4.036-2.08 6.692-.249 1.825-.27 2.396-.092 2.396.071 0 .86-.243 1.755-.539zM78.704 9.9c2.298-1.076 5.726-2.102 7.058-2.112.502-.004.51-.163.056-1.126-.448-.952-1.247-1.766-2.236-2.278-.66-.342-.967-.403-2.05-.408-1.63-.006-2.55.377-3.557 1.48-.864.946-1.234 1.921-1.233 3.242 0 .814.213 1.93.367 1.93.021 0 .739-.327 1.595-.728z"/>
	<path style="fill:#ffff00;stroke-width:.00568862" d="M60.087 54.642c-.257-.202-.507-.697-.773-1.534-.903-2.832-2.761-5.817-4.822-7.745-1.936-1.811-4.625-3.307-6.916-3.847-.841-.199-1.182-.36-1.46-.69-.638-.758-.364-1.867.54-2.182.85-.297 3.802.643 6.035 1.92 4.281 2.45 7.65 6.637 9.235 11.476.45 1.372.478 1.561.3 1.99-.353.854-1.438 1.164-2.14.612zM80.324 38.485c-.392-.392-.438-.537-.438-1.391 0-2.363 1.2-4.65 2.913-5.552.836-.44 2.32-.44 3.157 0 .73.385 1.729 1.437 2.154 2.27.662 1.299 1.001 3.628.629 4.324-.456.85-1.405 1.019-2.119.374-.403-.363-.471-.548-.586-1.58-.149-1.35-.645-2.457-1.253-2.797-.36-.201-.448-.201-.807 0-.607.34-1.081 1.404-1.234 2.77-.12 1.06-.184 1.235-.598 1.604-.624.558-1.246.55-1.818-.022zM92.725 38.484c-.47-.42-.487-.478-.456-1.453.057-1.797.832-3.706 1.934-4.764.236-.227.79-.583 1.232-.79 1.405-.66 2.945-.274 4.155 1.04 1.06 1.149 1.703 2.925 1.703 4.702 0 .715-.06.887-.437 1.266-.573.572-1.195.58-1.818.022-.41-.366-.48-.547-.593-1.56-.194-1.734-.908-2.965-1.72-2.965-.711 0-1.445 1.429-1.646 3.207-.183 1.606-1.312 2.228-2.354 1.295zM89.093 48.063c-3.548-.579-6.15-2.698-6.668-5.432-.254-1.338.283-2.212 1.36-2.212.528 0 1.34.696 1.342 1.149.007 2.352 3.236 4.148 6.565 3.653 1.32-.197 2.424-.663 3.216-1.359.687-.603.935-1.061 1.074-1.986.174-1.161 1.098-1.733 2.079-1.286 1.336.608.768 3.391-1.057 5.172-.86.84-2.694 1.822-3.964 2.123-.97.23-3.054.324-3.947.178zM99.031 82.26c-.636-.345-.803-.957-.598-2.196.74-4.482 4.22-7.987 8.519-8.578.752-.103.8-.088 1.303.416.596.596.654 1.012.234 1.7-.303.497-.342.516-1.657.804-2.85.624-4.98 2.93-5.597 6.063-.271 1.372-.35 1.538-.85 1.797-.523.27-.849.269-1.354-.005zM125.533 58.245c-.26-.26-.437-.596-.437-.83 0-.215.238-1.752.53-3.416l.529-3.026-2.4-2.322c-2.256-2.182-2.402-2.357-2.402-2.88 0-.399.117-.684.412-1.005.398-.434.512-.463 3.519-.9 1.708-.25 3.163-.453 3.232-.453.07 0 .742-1.274 1.494-2.832.862-1.782 1.516-2.947 1.766-3.143.48-.378 1.213-.398 1.652-.047.178.142.97 1.555 1.76 3.14.79 1.585 1.462 2.882 1.493 2.882.6 0 6.344.951 6.514 1.079.473.354.613.635.618 1.233.004.59-.066.676-2.383 2.928l-2.388 2.32.512 2.92c.281 1.605.512 3.142.512 3.416 0 .634-.691 1.374-1.283 1.374-.224 0-1.71-.677-3.308-1.507l-2.9-1.506-2.85 1.506c-1.79.946-3.019 1.507-3.302 1.507-.3 0-.6-.148-.89-.438zm4.79-4.577c1.018-.536 2.042-.973 2.276-.973.234 0 1.266.442 2.3.986 1.03.542 1.873.924 1.873.849 0-.076-.133-.874-.297-1.773-.5-2.756-.554-2.573 1.3-4.432 1.07-1.074 1.528-1.63 1.384-1.677-.119-.038-1.058-.183-2.087-.32-1.03-.138-2.03-.352-2.226-.475-.216-.137-.7-.947-1.242-2.08-.488-1.021-.936-1.857-.996-1.857-.059 0-.526.84-1.037 1.866-.527 1.058-1.076 1.957-1.27 2.079-.187.117-1.182.332-2.211.477-1.03.145-1.961.31-2.07.366-.138.07.27.537 1.298 1.486.843.777 1.566 1.576 1.653 1.825.119.342.07.916-.213 2.497-.407 2.276-.385 2.129-.326 2.129.023 0 .875-.438 1.892-.973z"/>
</svg>