<svg xmlns="http://www.w3.org/2000/svg" xmlns:xlink="http://www.w3.org/1999/xlink" xml:space="preserve" width="2480px" height="2480px" style="shape-rendering:geometricPrecision; text-rendering:geometricPrecision; image-rendering:optimizeQuality; fill-rule:evenodd; clip-rule:evenodd" viewBox="0 0 2480 2480">
	<defs>
		<style type="text/css">
			<![CDATA[ .fil0 {fill:#249778} .fil1 {fill:#FAFAFA} ]]>
		</style>
	</defs>
	<g id="Слой_x0020_1">
		<metadata id="CorelCorpID_0Corel-Layer" />
		<path class="fil0" d="M2221.66 0l-655.46 0c-123.42,-0.35 -241.87,48.7 -328.92,136.19l-1149.19 1149.31c-117.45,117.57 -117.45,308.07 0,425.64l680.67 680.77c117.57,117.45 308.07,117.45 425.64,0l1149.41 -1149.3c86.9,-87.4 135.85,-205.55 136.19,-328.81l0 -655.46c0,-142.67 -115.66,-258.34 -258.34,-258.34zm-310 826.69c-142.68,0 -258.34,-115.67 -258.34,-258.34 0,-142.68 115.66,-258.34 258.34,-258.34 142.67,0 258.33,115.66 258.33,258.33 0,142.68 -115.66,258.35 -258.33,258.35z" />
		<g id="_2992470989408">
			<path class="fil1" d="M1084.97 1860.04c-28.53,0 -51.67,-23.13 -51.67,-51.67l0 -826.68c0,-28.54 23.13,-51.67 51.67,-51.67 28.53,0 51.67,23.13 51.67,51.67l0 826.68c0,28.54 -23.14,51.67 -51.67,51.67z" />
			<path class="fil1" d="M774.96 1446.7c-85.6,0 -155,-69.4 -155,-155 0,-85.61 69.4,-155.01 155,-155.01 85.61,0 155.01,69.4 155.01,155.01 0,85.6 -69.4,155 -155.01,155zm0 -206.67c-28.53,0 -51.67,23.13 -51.67,51.67 0,28.53 23.14,51.67 51.67,51.67 28.54,0 51.67,-23.14 51.67,-51.67 0,-28.54 -23.13,-51.67 -51.67,-51.67z" />
			<path class="fil1" d="M1394.98 1653.37c-85.61,0 -155.01,-69.4 -155.01,-155 0,-85.61 69.4,-155 155.01,-155 85.6,0 155,69.39 155,155 0,85.6 -69.4,155 -155,155l0 0zm0 -206.67c-28.54,0 -51.67,23.13 -51.67,51.67 0,28.53 23.13,51.67 51.67,51.67 28.53,0 51.67,-23.14 51.67,-51.67 0,-28.54 -23.14,-51.67 -51.67,-51.67z" />
		</g>
	</g>
</svg>
