<svg viewBox="0 0 32 32">
	<path d="M30.8571429,14 C31.4285714,14 32,14.6 32,15.2 C32,24.4783838 24.836556,32 16,32 C10.1791848,32 5.08435288,28.7362813 2.28478586,23.8565898 L2.28571429,27.2 C2.28571429,27.8627417 1.77403971,28.4 1.14285714,28.4 C0.511674572,28.4 -5.54223334e-13,27.8627417 -5.54223334e-13,27.2 L-5.54223334e-13,21.2 C-5.54223334e-13,20.5372583 0.511674572,20 1.14285714,20 L6.85714286,20 C7.48832543,20 8,20.5372583 8,21.2 C8,21.8627417 7.48832543,22.4 6.85714286,22.4 L4.12041354,22.3999492 C6.49167125,26.7041471 10.9237582,29.6 16,29.6 C23.5741909,29.6 29.7142857,23.1529004 29.7142857,15.2 C29.7142857,14.6 30.2857143,14 30.8571429,14 Z M13.0384615,9 C13.4927157,9 13.8461538,9.3534381 13.8461538,9.80769231 L13.8461538,9.80769231 L13.8461538,13.0384615 C13.8461538,13.4927157 13.4927157,13.8461538 13.0384615,13.8461538 L13.0384615,13.8461538 L12.2307692,13.8461538 C12.2101657,15.3809084 12.8758179,16.9683235 13.9611511,18.0536566 C15.0464842,19.1389897 16.5384615,19.7692308 18.1538462,19.7692308 L18.1538462,19.7692308 L18.1538462,18.9615385 C18.1538462,18.5072843 18.5072843,18.1538462 18.9615385,18.1538462 L18.9615385,18.1538462 L22.1923077,18.1538462 C22.6465619,18.1538462 23,18.5072843 23,18.9615385 L23,18.9615385 L23,22.1923077 C23,22.6465619 22.6465619,23 22.1923077,23 L22.1923077,23 L18.1538462,23 C13.1506066,23 9,18.9588806 9,13.955641 L9,13.955641 L9,9.80769231 C9,9.3534381 9.3534381,9 9.80769231,9 L9.80769231,9 Z M16,0 C21.8208152,0 26.9156471,3.26371868 29.7152141,8.14341018 L29.7142857,4.8 C29.7142857,4.1372583 30.2259603,3.6 30.8571429,3.6 C31.4883254,3.6 32,4.1372583 32,4.8 L32,10.8 C32,11.4627417 31.4883254,12 30.8571429,12 L25.1428571,12 C24.5116746,12 24,11.4627417 24,10.8 C24,10.1372583 24.5116746,9.6 25.1428571,9.6 L27.8795865,9.60005082 C25.5083288,5.29585293 21.0762418,2.4 16,2.4 C8.42580915,2.4 2.28571429,8.8470996 2.28571429,16.8 C2.28571429,17.4 1.71428571,18 1.14285714,18 C0.571428571,18 -2.74269496e-12,17.4 -2.74269496e-12,16.8 C-2.74269496e-12,7.5216162 7.163444,0 16,0 Z">
	</path>
</svg>
