<svg xmlns="http://www.w3.org/2000/svg" width="20" height="20" viewBox="0 0 20 20" fill="none">
<path d="M10 20C4.47715 20 -1.95703e-07 15.5228 -4.37114e-07 10L-7.43094e-07 3C-8.15517e-07 1.34315 1.34315 -5.87108e-08 3 -1.31134e-07L17 -7.43094e-07C18.6569 -8.15517e-07 20 1.34314 20 3L20 10C20 15.5228 15.5228 20 10 20Z" fill="url(#paint0_linear_296_5818)"/>
<path fill-rule="evenodd" clip-rule="evenodd" d="M15.2082 4.69589C15.6274 5.06929 15.6737 5.72248 15.3117 6.15483L9.60078 12.9749C9.41189 13.2005 9.13784 13.3311 8.84886 13.3332C8.55988 13.3353 8.28407 13.2088 8.09209 12.986L4.69773 9.04673C4.32978 8.61972 4.36713 7.96592 4.78115 7.58643C5.19518 7.20693 5.82909 7.24545 6.19703 7.67247L8.83095 10.7292L13.7936 4.80264C14.1556 4.37029 14.789 4.32249 15.2082 4.69589Z" fill="white"/>
<defs>
<linearGradient id="paint0_linear_296_5818" x1="0" y1="20" x2="20" y2="4.33333" gradientUnits="userSpaceOnUse">
<stop stop-color="#EAA12B"/>
<stop offset="1" stop-color="#E16054"/>
</linearGradient>
</defs>
</svg>