<svg xmlns="http://www.w3.org/2000/svg" width="30" height="31" viewBox="0 0 30 31" fill="none">
	<path fill-rule="evenodd" clip-rule="evenodd" d="M14.8364 19.1362H14.5714C14.2909 19.1362 10.0208 14.8661 10.0208 14.5856C10.0208 14.1181 10.2234 13.7129 10.6909 13.7129C11.1273 13.7129 11.5169 14.2427 11.7818 14.5077C12.2026 14.9285 14.2753 17.1882 14.6961 17.1882C15.1792 17.1882 15.9584 16.2375 16.4571 15.7388L26.8831 5.31287C27.1169 5.07911 27.4442 4.62716 27.8649 4.62716C28.3948 4.62716 28.5351 5.04794 28.5351 5.43755C28.5351 5.82716 27.2571 6.93365 26.9455 7.26092L15.8182 18.3726C15.5844 18.6064 15.2104 19.1362 14.8364 19.1362ZM0 14.5856C0 17.422 0.420779 19.1051 1.38701 21.3492C1.71429 22.144 2.27532 23.0168 2.74286 23.6713C3.24156 24.3882 3.8026 25.0427 4.42597 25.6661C8.55584 29.7804 14.774 31.1051 20.2286 29.0791C21.2883 28.6895 22.2701 28.1908 23.2052 27.583C24.6234 26.6635 23.5792 25.9466 23.1896 25.9466C22.8623 25.9466 21.8493 26.7103 21.5221 26.8817C17.5481 28.9388 13.4494 29.0791 9.36623 27.3337C7.07533 26.3363 5.39221 24.7778 3.95844 22.8609C3.45974 22.222 3.07013 21.4895 2.71169 20.757C0.623377 16.409 1.23117 11.1103 3.91169 7.21417C6.2026 3.91028 10.3636 1.49469 14.4935 1.49469C15.8026 1.49469 17.1429 1.60378 18.3117 1.8843C20.0416 2.32067 22.4571 3.42716 23.7351 4.67391C24.0312 4.97002 24.374 5.17261 24.5922 5.49989L23.6727 6.45053C23.3299 6.26352 23.2831 6.17002 23.0338 5.92066C22.426 5.31287 21.6935 4.89209 20.961 4.44015C19.9636 3.83235 18.8571 3.44274 17.5325 3.13105C16.2234 2.83495 14.7273 2.80378 13.3091 2.97521C12.374 3.0843 11.3766 3.38041 10.5195 3.72326C9.55325 4.11287 9.97403 5.17261 10.6286 5.17261C11.0961 5.17261 11.7039 4.82976 12.1714 4.70508C13.9325 4.26872 15.7247 4.20638 17.4545 4.61157C18.5455 4.87651 19.4805 5.2817 20.3221 5.76482C20.9299 6.10768 21.5688 6.51287 22.0675 7.01157C22.2545 7.19859 22.3792 7.37002 22.5818 7.51028L14.7117 15.4116C14.4312 14.9752 13.3714 14.0246 12.9506 13.6038C12.3896 13.0427 11.7662 12.2479 10.6909 12.2479C9.42857 12.2479 8.55584 13.3388 8.55584 14.5233C8.55584 15.6921 10.2078 17.0168 11.174 17.983C12.1558 18.9648 13.4494 20.6012 14.6338 20.6012C15.5065 20.6012 15.974 20.3051 16.5195 19.744L22.5351 13.7285C23.0649 13.1986 24.4831 11.6557 24.9818 11.3129C26.0883 13.6194 25.7455 17.3752 24.6545 19.6038C24.3584 20.196 24.0779 20.6791 23.7195 21.1934C23.5481 21.4272 23.361 21.6921 23.1584 21.9103C21.2727 24.1544 18.4208 25.6817 15.3662 25.6817C12.9506 25.6817 11.3299 25.2765 9.50649 24.1856C5.73506 21.9414 3.75584 17.5778 4.45714 13.2298C4.55065 12.6064 5.14286 10.8142 5.14286 10.6427C5.14286 10.222 4.70649 9.97261 4.34805 9.97261C3.6 9.97261 3.22597 11.8739 3.11688 12.4817C2.77403 14.2272 2.75844 15.8012 3.11688 17.5622C3.44416 19.2453 4.17662 20.8505 5.17403 22.1752L6.03117 23.1882C6.2026 23.3908 6.26494 23.4999 6.46753 23.6869C7.10649 24.3103 7.83896 24.8869 8.6026 25.3544C10.239 26.383 12.4052 27.1466 14.4312 27.1466C16.8468 27.1466 18.1091 26.8973 20.1351 26.0246C20.5091 25.8687 20.7429 25.7129 21.0857 25.5259C24.5299 23.6557 27.1325 19.4012 27.1325 15.4583C27.1325 14.2583 27.039 13.2765 26.8052 12.17C26.6494 11.4375 26.2753 10.783 26.1195 10.1129L27.1792 9.09989C27.3039 9.52067 27.5221 9.92586 27.6935 10.3466C27.8805 10.8298 27.974 11.1414 28.0987 11.6713C29.813 18.5285 25.9169 22.5648 25.9169 23.2038C25.9169 23.6557 26.6805 24.5752 27.5221 23.2661C28.1299 22.3466 28.6286 21.3648 29.0338 20.3051C30.1558 17.3752 30.2649 14.1025 29.4701 11.0479C29.1117 9.69209 28.3948 8.44534 28.2701 7.97781C28.8623 7.57261 30 6.37261 30 5.56222V5.23495C30 3.44274 27.8805 2.63235 26.5714 3.61417C26.213 3.87911 25.9636 4.22196 25.6519 4.42456L24.2182 3.19339C24.0156 3.02196 23.8909 2.95963 23.6883 2.80378C22.161 1.69729 20.4779 0.918068 18.6701 0.46612C11.5948 -1.34167 4.45714 2.25833 1.38701 8.67911C0.67013 10.1596 0 12.4505 0 14.5856H0Z" fill="white" />
</svg>
