<svg xmlns="http://www.w3.org/2000/svg" width="24" height="26" viewBox="0 0 24 26" fill="none">
	<circle cx="8.5" cy="8.5" r="8.5" fill="#dc5621" fill-opacity="0.24" />
	<circle cx="8.5" cy="8.5" r="4.5" fill="#dc5621" />
	<path d="M17.5 25.5L15.5 25L13 23.5L11 21.5L9 20.5L8.5 19.5L9 18.5H11L13.5 20C12.5 18.1667 10.5 14.4 10.5 14C10.5 13.6 9.5 11.1667 9 10L9.5 9.5H10L12.5 13L13.5 12.5C13.6667 12.3333 14.1 12.1 14.5 12.5C14.7144 12.7144 14.7469 12.8426 14.7051 12.9155C15.1167 12.7737 15.8316 12.6658 16.5 13C17.3 13.4 17.5 13.8333 17.5 14C17.8333 13.6667 18.6 13.1 19 13.5C19.4 13.9 21.5 16.6667 22.5 18C22.8333 19.1667 23.5 21.6 23.5 22C23.5 22.5 20.5 26 17.5 25.5Z" fill="url(#paint0_linear_1_7301)" />
	<path d="M23.257 19.2332C22.891 18.3051 22.0367 16.98 21.3492 15.9161C20.9952 15.3661 20.6892 14.8848 20.5156 14.5737C20.1066 13.8278 19.5617 13.0629 18.625 13.0526C18.3002 13.0483 17.9793 13.1232 17.69 13.2709C17.3858 12.9271 16.8306 12.329 16.425 12.1795C16.1623 12.0891 15.8805 12.0686 15.6075 12.1201C15.3344 12.1717 15.0795 12.2934 14.8678 12.4734C14.7355 12.3366 14.5741 12.2313 14.3956 12.1652C14.2171 12.0992 14.0261 12.0741 13.8366 12.0918C13.3684 12.161 12.941 12.3972 12.6335 12.757C11.6778 10.997 10.7652 9.39855 10.4369 9.13558C10.3118 9.02276 10.1596 8.9443 9.99509 8.90785C9.83062 8.8714 9.65951 8.87821 9.49845 8.92761C9.00173 9.08402 8.69064 9.62543 8.62705 9.84886C8.58064 10.007 8.54626 10.1221 10.057 13.429C10.7652 14.9759 11.5902 16.7273 11.7552 17.0264C11.8944 17.2807 12.288 18.2295 12.6558 19.1628C12.5395 19.0851 12.4287 18.9995 12.3241 18.9067C11.9219 18.5526 11.0213 17.9751 9.50876 18.0696C8.82126 18.1143 8.30564 18.434 8.11142 18.9496C8.03085 19.1512 8.00972 19.3717 8.05053 19.5849C8.09135 19.7981 8.19241 19.9952 8.34173 20.1528C8.60814 20.4261 8.9897 20.5911 9.43142 20.7818C9.85554 20.9448 10.2593 21.1565 10.6345 21.4126C11.0086 21.7043 11.3592 22.025 11.683 22.3717C12.0546 22.7732 12.4644 23.1376 12.9067 23.4596C13.1061 23.5971 13.321 23.7398 13.541 23.8859C14.2057 24.3069 14.8456 24.766 15.4574 25.2609C16.2153 25.9157 17.9135 25.9931 18.106 26H18.118C18.1631 26.0006 18.208 25.9924 18.2499 25.9758C18.2919 25.9591 18.3302 25.9344 18.3626 25.9029C18.395 25.8715 18.4208 25.834 18.4388 25.7925C18.4567 25.7511 18.4662 25.7065 18.4669 25.6614C18.4676 25.6162 18.4593 25.5714 18.4427 25.5294C18.426 25.4875 18.4013 25.4492 18.3699 25.4168C18.3384 25.3844 18.3009 25.3585 18.2595 25.3406C18.218 25.3227 18.1734 25.3131 18.1283 25.3125C17.6763 25.297 16.3958 25.1629 15.9077 24.7401C15.2741 24.226 14.6113 23.7491 13.9225 23.3118C13.7042 23.1675 13.4911 23.0265 13.2935 22.8907C12.8887 22.5928 12.5134 22.2566 12.1728 21.887C11.8242 21.514 11.4466 21.1692 11.0436 20.8557C10.6263 20.5708 10.1769 20.336 9.7047 20.1562C9.3283 19.9946 9.00517 19.8554 8.83501 19.6801C8.7785 19.6165 8.74083 19.5385 8.72626 19.4547C8.71168 19.3709 8.72078 19.2847 8.75251 19.2057C8.85048 18.9514 9.14267 18.7915 9.55173 18.7657C10.8167 18.685 11.5489 19.149 11.872 19.4309C12.1949 19.7343 12.5865 19.9549 13.0133 20.0737C13.125 20.3556 13.223 20.6048 13.2935 20.7887C13.3185 20.8536 13.3626 20.9093 13.42 20.9486C13.4774 20.9879 13.5453 21.0088 13.6149 21.0087C13.6573 21.0091 13.6994 21.0009 13.7386 20.9846C13.8232 20.9516 13.8913 20.8864 13.9281 20.8033C13.9648 20.7203 13.9671 20.626 13.9345 20.5412C13.883 20.4071 12.6627 17.2618 12.3585 16.705C11.982 16.0106 9.56205 10.7512 9.31283 9.98121C9.39513 9.80758 9.53388 9.66701 9.70642 9.58246C9.74251 9.57043 9.8422 9.53949 10.0072 9.67183C10.2753 9.89527 11.3135 11.7446 12.5269 14.0478L12.5458 14.0873V14.0993C13.1903 15.3231 13.883 16.6775 14.5344 17.9717C14.5752 18.0533 14.6467 18.1153 14.7333 18.1442C14.8198 18.173 14.9143 18.1663 14.9959 18.1255C15.0775 18.0847 15.1395 18.0132 15.1684 17.9266C15.1972 17.8401 15.1905 17.7456 15.1497 17.664C14.8489 17.0659 14.0016 15.385 13.0872 13.6696C13.0558 13.6082 13.0395 13.5401 13.0395 13.4711C13.0395 13.4021 13.0558 13.3341 13.0872 13.2726C13.2247 13.0045 13.6475 12.8017 13.8899 12.7742C14.2697 12.7329 14.5035 13.13 14.5138 13.1454C14.5464 13.1764 16.0933 15.8593 16.4147 16.4729C16.4438 16.5284 16.4876 16.5748 16.5412 16.6073C16.5948 16.6397 16.6563 16.6568 16.7189 16.6568C16.7746 16.6568 16.8295 16.6432 16.8788 16.6173C16.9594 16.5749 17.02 16.5022 17.047 16.4152C17.0741 16.3281 17.0655 16.2339 17.0231 16.1532C16.7447 15.6256 15.6481 13.7109 15.2597 13.0371C15.3825 12.924 15.5328 12.845 15.6956 12.8079C15.8584 12.7708 16.0281 12.777 16.1878 12.8257C16.4474 12.9203 17.0214 13.5321 17.348 13.9343C17.7951 14.5064 18.151 15.1441 18.4033 15.825C18.4266 15.8926 18.4704 15.9514 18.5286 15.993C18.5868 16.0346 18.6566 16.0569 18.7281 16.057C18.7655 16.0573 18.8027 16.0515 18.8381 16.0398C18.8809 16.0253 18.9204 16.0025 18.9544 15.9726C18.9884 15.9428 19.0161 15.9066 19.0361 15.8661C19.056 15.8255 19.0678 15.7814 19.0707 15.7363C19.0736 15.6912 19.0676 15.646 19.053 15.6032C18.8262 14.9695 18.5127 14.3703 18.1214 13.8226C18.2779 13.7615 18.445 13.7323 18.613 13.7367C19.0117 13.7367 19.3847 13.9412 19.9106 14.902C20.0963 15.2457 20.4091 15.7236 20.77 16.277C21.4403 17.3082 22.2739 18.6093 22.616 19.4739C23.1316 20.775 23.3035 22.6295 23.312 22.6484C23.3202 22.7338 23.36 22.8131 23.4236 22.8706C23.4872 22.9282 23.57 22.9599 23.6558 22.9595H23.6885C23.7791 22.9508 23.8627 22.9064 23.9207 22.8362C23.9787 22.7659 24.0064 22.6755 23.9978 22.5848C23.9995 22.5143 23.8053 20.6271 23.257 19.2332Z" fill="#fff" />
	<defs>
		<linearGradient id="paint0_linear_1_7301" x1="8" y1="7" x2="21.5" y2="26" gradientUnits="userSpaceOnUse">
			<stop stop-color="#dc5621" />
			<stop offset="0.890625" stop-color="#dc5621" stop-opacity="0" />
		</linearGradient>
	</defs>
</svg>
