<?xml version="1.0" encoding="utf-8"?>
<!DOCTYPE svg PUBLIC "-//W3C//DTD SVG 20010904//EN" "http://www.w3.org/TR/2001/REC-SVG-20010904/DTD/svg10.dtd">
<svg version="1.0" xmlns="http://www.w3.org/2000/svg" width="130pt" height="130pt" viewBox="0 0 130 130" style="" preserveAspectRatio="xMidYMid meet">
	<g fill="#3DB4B2FF" stroke="#3DB4B2FF">
		<path d="M 57.500 6.484 C 51.589 10.847 51.380 10.914 43.426 10.957 L 35.352 11.000 33.026 18.417 C 30.812 25.476 30.393 26.060 24.350 30.497 C 20.857 33.061 18.000 35.654 18.000 36.259 C 18.000 36.863 18.989 40.428 20.197 44.179 L 22.394 51.000 20.197 57.821 C 18.989 61.572 18.000 65.137 18.000 65.741 C 18.000 66.346 20.905 68.974 24.456 71.581 C 32.387 77.404 33.152 79.688 29.411 86.381 C 27.513 89.776 27.056 91.456 27.820 92.220 C 28.585 92.985 29.552 92.179 31.181 89.419 L 33.467 85.543 34.427 88.272 C 35.367 90.945 35.553 91.000 43.634 91.000 C 48.308 91.000 52.163 91.454 52.530 92.048 C 53.225 93.173 36.902 123.236 36.056 122.390 C 35.778 122.112 34.603 119.548 33.445 116.692 C 31.163 111.067 31.193 111.079 22.734 112.389 L 17.968 113.127 21.484 106.731 C 25.127 100.103 25.833 97.556 23.842 98.219 C 22.105 98.798 12.929 115.329 13.839 116.239 C 14.272 116.672 17.909 116.406 21.920 115.647 L 29.214 114.268 30.607 117.602 C 31.373 119.436 32.000 121.120 32.000 121.346 C 32.000 121.571 32.697 123.423 33.548 125.461 C 34.810 128.481 35.358 128.948 36.513 127.989 C 37.293 127.342 41.834 119.768 46.606 111.157 C 51.378 102.545 55.434 95.322 55.620 95.104 C 55.807 94.886 57.759 95.898 59.958 97.354 C 64.888 100.616 65.112 100.616 70.042 97.354 C 72.241 95.898 74.193 94.886 74.380 95.104 C 74.566 95.322 78.622 102.545 83.394 111.157 C 88.166 119.768 92.707 127.342 93.487 127.989 C 94.642 128.948 95.190 128.481 96.452 125.461 C 97.303 123.423 98.000 121.571 98.000 121.346 C 98.000 121.120 98.627 119.436 99.393 117.602 L 100.786 114.268 108.080 115.647 C 112.091 116.406 115.723 116.677 116.151 116.249 C 116.578 115.822 112.644 107.891 107.409 98.626 C 96.054 78.531 96.055 78.548 105.544 71.581 C 109.095 68.974 112.000 66.346 112.000 65.741 C 112.000 65.137 111.011 61.572 109.803 57.821 L 107.606 51.000 109.803 44.179 C 111.011 40.428 112.000 36.863 112.000 36.259 C 112.000 35.654 109.143 33.061 105.650 30.497 C 99.607 26.060 99.188 25.476 96.974 18.417 L 94.648 11.000 86.753 11.000 C 78.997 11.000 78.747 10.921 72.552 6.500 C 69.084 4.025 65.628 2.012 64.873 2.027 C 64.118 2.042 60.800 4.047 57.500 6.484 M 71.381 9.452 C 77.231 13.627 78.080 13.923 84.978 14.202 L 92.336 14.500 94.498 21.000 C 96.645 27.457 97.956 28.953 107.041 35.316 C 108.985 36.677 108.984 36.733 107.000 42.501 C 104.496 49.779 104.498 52.228 107.015 59.545 C 108.732 64.535 108.818 65.522 107.596 66.206 C 106.807 66.648 104.023 68.703 101.410 70.773 C 97.472 73.892 96.288 75.647 94.497 81.018 L 92.336 87.500 84.978 87.798 C 78.066 88.077 77.238 88.368 71.310 92.598 L 65.000 97.101 58.690 92.598 C 52.762 88.368 51.934 88.077 45.022 87.798 L 37.664 87.500 35.503 81.018 C 33.712 75.647 32.528 73.892 28.590 70.773 C 25.977 68.703 23.193 66.648 22.404 66.206 C 21.182 65.522 21.268 64.535 22.985 59.545 C 25.502 52.228 25.504 49.779 23.000 42.501 C 21.016 36.733 21.015 36.677 22.959 35.316 C 32.044 28.953 33.355 27.457 35.502 21.000 L 37.664 14.500 45.082 14.200 C 52.071 13.918 52.847 13.646 58.500 9.494 C 61.800 7.070 64.644 5.067 64.821 5.043 C 64.997 5.019 67.949 7.004 71.381 9.452 M 104.540 99.766 C 112.438 113.784 112.556 112.798 103.081 111.913 L 98.662 111.500 96.555 116.692 C 95.397 119.548 94.222 122.112 93.944 122.390 C 93.098 123.236 76.775 93.173 77.470 92.048 C 77.838 91.453 81.718 91.000 86.451 91.000 C 94.605 91.000 94.797 90.944 95.440 88.382 C 95.802 86.942 96.383 86.050 96.732 86.398 C 97.081 86.747 100.595 92.763 104.540 99.766 " />
	</g>
	<g fill="#3DB4B2FF" stroke="#3DB4B2FF">
		<path d="M 46.458 19.880 C 40.979 22.369 38.786 26.098 37.866 34.494 C 37.444 38.347 36.714 43.805 36.245 46.623 C 35.101 53.485 36.779 61.404 40.683 67.577 C 42.396 70.284 44.099 73.941 44.468 75.703 C 45.251 79.444 48.557 84.000 50.489 84.000 C 51.228 84.000 52.658 82.913 53.667 81.585 C 55.328 79.396 55.946 79.240 60.250 79.926 C 62.863 80.342 67.138 80.342 69.750 79.926 C 74.054 79.240 74.672 79.396 76.333 81.585 C 77.342 82.913 78.772 84.000 79.511 84.000 C 81.437 84.000 84.745 79.453 85.547 75.703 C 85.925 73.941 87.770 69.993 89.649 66.928 C 93.505 60.637 94.942 53.685 93.768 47.000 C 93.333 44.525 92.605 39.070 92.148 34.879 C 91.163 25.817 88.847 21.956 82.993 19.614 C 77.580 17.448 72.192 17.585 68.250 19.989 C 65.010 21.964 64.990 21.964 61.750 19.989 C 57.691 17.514 51.759 17.472 46.458 19.880 M 60.139 22.572 C 63.031 24.067 63.097 24.236 61.485 26.016 C 60.554 27.046 58.826 28.026 57.646 28.194 C 54.761 28.605 55.315 30.422 58.444 30.814 C 60.325 31.050 62.044 30.003 65.333 26.619 C 67.743 24.139 70.907 21.810 72.364 21.445 C 76.836 20.322 82.125 21.925 85.679 25.479 C 88.434 28.234 88.996 29.541 88.978 33.150 C 88.955 37.720 86.543 43.667 82.880 48.188 C 80.742 50.827 80.732 50.985 82.351 56.754 C 83.258 59.986 84.000 64.208 84.000 66.134 C 84.000 70.144 81.387 79.643 80.057 80.465 C 79.567 80.768 78.137 77.548 76.879 73.310 C 73.926 63.362 70.304 59.000 65.000 59.000 C 59.696 59.000 56.074 63.362 53.121 73.310 C 51.863 77.548 50.433 80.768 49.943 80.465 C 48.613 79.643 46.000 70.144 46.000 66.134 C 46.000 64.208 46.742 59.986 47.649 56.754 C 49.268 50.985 49.258 50.827 47.120 48.188 C 40.947 40.569 39.283 31.453 43.165 26.517 C 47.230 21.350 54.506 19.659 60.139 22.572 M 69.924 64.631 C 72.062 67.349 74.534 74.800 73.605 75.728 C 71.690 77.644 58.310 77.644 56.395 75.728 C 55.466 74.800 57.938 67.349 60.076 64.631 C 62.856 61.096 67.144 61.096 69.924 64.631 M 91.000 50.532 C 91.000 54.268 90.321 58.656 89.413 60.782 L 87.827 64.500 85.869 58.222 L 83.910 51.944 86.705 47.993 C 88.242 45.821 89.838 44.033 90.250 44.021 C 90.663 44.010 91.000 46.939 91.000 50.532 M 43.295 47.993 L 46.090 51.944 44.131 58.222 L 42.173 64.500 40.587 60.782 C 38.983 57.024 38.332 43.981 39.750 44.021 C 40.163 44.033 41.758 45.821 43.295 47.993 " />
	</g>
</svg>
