<svg xmlns="http://www.w3.org/2000/svg" viewBox="0 0 64 64" xml:space="preserve"><path fill="#316CFF" d="M32 0c17.7 0 32 14.3 32 32S49.7 64 32 64 0 49.7 0 32 14.3 0 32 0z"/><path fill="#FFD41D" d="M32 9 13 22v13h38V22z"/><path fill="#FFF" d="M45 13v30c0 .5-.5 1-1 1H20c-.5 0-1-.5-1-1V13c0-.6.5-1 1-1h24c.5 0 1 .4 1 1z"/><path fill="#D3D5DD" d="M40.1 18c.5 0 .9.5.9 1s-.4 1-.9 1H23.9c-.5 0-.9-.5-.9-1s.4-1 .9-1h16.2zM40.1 23c.5 0 .9.5.9 1s-.4 1-.9 1H23.9c-.5 0-.9-.5-.9-1s.4-1 .9-1h16.2z"/><path fill="#D1D5DB" d="M32 35 13 22v26h38V22z"/><path fill="#E1E5EA" d="M51 48 35.2 32.2h-6.4L13 48h38z"/></svg>