<svg class="i" viewBox="0 0 40 40" fill="none" xmlns="http://www.w3.org/2000/svg"><path d="M20.179 39.656a19.836 19.836 0 0 1-9.48-2.412L.19 40l2.812-10.271a19.786 19.786 0 0 1-2.645-9.91C.362 8.892 9.254 0 20.178 0A19.693 19.693 0 0 1 34.2 5.813 19.7 19.7 0 0 1 40 19.835c-.004 10.927-8.893 19.817-19.821 19.821Z" fill="#2FB944"/><path d="m11.103 33.655.601.357a16.473 16.473 0 0 0 8.392 2.297c9.08 0 16.47-7.39 16.474-16.475A16.375 16.375 0 0 0 31.75 8.18a16.362 16.362 0 0 0-11.647-4.831c-9.088 0-16.478 7.39-16.482 16.473a16.435 16.435 0 0 0 2.52 8.767l.39.624-1.663 6.079 6.235-1.636Z" fill="#2FB944"/><path d="M30.082 24.549c-.123-.207-.453-.33-.949-.579-.495-.248-2.93-1.446-3.384-1.611-.454-.165-.784-.248-1.114.248-.33.496-1.28 1.611-1.568 1.942-.29.33-.578.372-1.073.124-.496-.248-2.091-.771-3.983-2.458-1.472-1.314-2.466-2.936-2.755-3.431-.29-.496-.031-.764.217-1.011.223-.222.495-.579.743-.868.247-.289.33-.496.495-.826.165-.33.083-.62-.041-.868s-1.115-2.685-1.527-3.677c-.402-.966-.81-.835-1.115-.85-.288-.015-.619-.018-.949-.018-.33 0-.867.124-1.32.62-.454.496-1.734 1.694-1.734 4.132 0 2.438 1.775 4.793 2.022 5.123.248.33 3.493 5.333 8.46 7.478 1.182.51 2.105.815 2.824 1.044 1.187.377 2.267.323 3.12.196.951-.142 2.93-1.198 3.343-2.355.412-1.157.412-2.149.288-2.355Z" fill="#fff"/></svg>