<svg xmlns="http://www.w3.org/2000/svg" viewBox="0 0 448.001 448.001" style="enable-background:new 0 0 448.001 448.001" fill="#51210F" xml:space="preserve">
	<path d="M123.602 179.999H88.953c9.852 19.344 27.199 34.001 48.329 40.313-5.16-10.18-10.336-23.695-13.68-40.313zM88.954 107.999h34.61c3.312-16.587 8.484-30.003 13.742-40.32a79.86 79.86 0 0 0-48.352 40.32zM182.747 124h-45.488c-.73 6.295-1.258 12.855-1.258 20 0 7.141.535 13.703 1.274 20h45.457c.734-6.297 1.269-12.858 1.269-20-.001-7.145-.528-13.705-1.254-20zM162.352 64.238c-.801-.024-1.547-.238-2.352-.238-.797 0-1.539.211-2.328.234-5.977 9.152-13.305 23.717-17.746 43.766h40.152c-4.422-19.981-11.722-34.55-17.726-43.762zM120.001 144c0-7.074.465-13.664 1.133-20H82.841C81.168 130.43 80 137.054 80 144s1.168 13.57 2.84 20h38.317c-.68-6.34-1.156-12.922-1.156-20zM139.945 180c4.523 20.342 11.992 34.946 17.726 43.766.794.023 1.532.234 2.329.234s1.535-.211 2.324-.234c5.754-8.84 13.215-23.438 17.73-43.766h-40.109zM237.161 124h-38.29c.668 6.336 1.129 12.926 1.129 20 0 7.078-.477 13.66-1.152 20h38.313c1.672-6.43 2.84-13.054 2.84-20s-1.168-13.57-2.84-20zM422.621 185.367 368 130.746v-16.478c0-15.615-10.172-30.305-25.442-33.566a31.297 31.297 0 0 0-6.558-.701h-16v184a8 8 0 0 1-16 0v-54.296c0-17.251-12.817-33.704-32-33.704-17.676 0-32 14.324-32 32v144c0 17.672 7.164 33.672 18.746 45.254 16 16 29.254 26.462 29.254 50.746h128v-40.363c0-26.897 5-43.631 10.266-64.706A191.928 191.928 0 0 0 432 296.365V208c0-8.84-3.585-16.842-9.379-22.633z" />
	<path d="M272 0H48C30.328 0 16 14.326 16 32v288c0 17.673 14.328 32 32 32h176v-48H80v-16h144v-72.589C207.008 230.65 184.621 240 160 240c-53.019 0-96-42.981-96-96s42.981-96 96-96 96 42.981 96 96c0 6.702-.695 13.242-2.004 19.556C259.563 161.302 265.621 160 272 160c12.461 0 23.422 4.596 32 12.617V32c0-17.674-14.328-32-32-32z" />
	<path d="M196.403 180c-3.336 16.617-8.508 30.123-13.676 40.313 21.125-6.317 38.469-20.971 48.321-40.313h-34.645zM182.696 67.679c5.278 10.34 10.446 23.74 13.754 40.32h34.598c-9.856-19.351-27.212-34.011-48.352-40.32z" />
</svg>
