<svg xmlns="http://www.w3.org/2000/svg" xmlns:xlink="http://www.w3.org/1999/xlink" version="1.1" width="20" height="20" viewBox="0,0,256,256">
	<g fill="none" fill-rule="nonzero" stroke="none" stroke-width="1" stroke-linecap="butt" stroke-linejoin="miter" stroke-miterlimit="10" stroke-dasharray="" stroke-dashoffset="0" font-family="none" font-weight="none" font-size="none" text-anchor="none" style="mix-blend-mode: normal">
		<g transform="scale(12.8,12.8)">
			<rect x="0" y="0" width="20" height="20" rx="10" ry="0" fill="#e57d8e" />
			<path d="M7.71429,9.42857c-0.94678,0 -1.71429,-0.76751 -1.71429,-1.71428c0,-0.94678 0.76751,-1.71429 1.71429,-1.71429c0.94677,0 1.71428,0.76751 1.71428,1.71429c0,0.94677 -0.76751,1.71428 -1.71428,1.71428zM12.2857,14c-0.9468,0 -1.7143,-0.7675 -1.7143,-1.7143c0,-0.9468 0.7675,-1.7143 1.7143,-1.7143c0.9468,0 1.7143,0.7675 1.7143,1.7143c0,0.9468 -0.7675,1.7143 -1.7143,1.7143zM11.8817,7.31022c0.2231,-0.22315 0.5849,-0.22315 0.8081,0c0.2231,0.22316 0.2231,0.58497 0,0.80813l-4.57145,4.57145c-0.22316,0.2231 -0.58497,0.2231 -0.80813,0c-0.22315,-0.2232 -0.22315,-0.585 0,-0.8081zM7.71429,8.28571c0.31559,0 0.57142,-0.25583 0.57142,-0.57142c0,-0.3156 -0.25583,-0.57143 -0.57142,-0.57143c-0.3156,0 -0.57143,0.25583 -0.57143,0.57143c0,0.31559 0.25583,0.57142 0.57143,0.57142zM12.2857,12.8571c0.3156,0 0.5714,-0.2558 0.5714,-0.5714c0,-0.3156 -0.2558,-0.5714 -0.5714,-0.5714c-0.3156,0 -0.5714,0.2558 -0.5714,0.5714c0,0.3156 0.2558,0.5714 0.5714,0.5714z" fill="#ffffff" />
		</g>
	</g>
</svg>
