<?xml version="1.0" encoding="UTF-8"?>
<svg id="Layer_1" data-name="Layer 1" xmlns="http://www.w3.org/2000/svg" viewBox="0 0 48 48" fill="#fff">
	<path d="M1,19H9c.553,0,1-.448,1-1s-.447-1-1-1H1c-.553,0-1,.448-1,1s.447,1,1,1Z" />
	<path d="M2,23.908c0,.552,.447,1,1,1H11c.553,0,1-.448,1-1s-.447-1-1-1H3c-.553,0-1,.448-1,1Z" />
	<path d="M9,30c0-.552-.447-1-1-1H1c-.553,0-1,.448-1,1s.447,1,1,1h7c.553,0,1-.448,1-1Z" />
	<path d="M43,8H10c-2.757,0-5,2.243-5,5v1c0,.552,.447,1,1,1s1-.448,1-1v-1c0-.412,.084-.804,.235-1.161l13.381,12.159-13.381,12.164c-.151-.358-.235-.75-.235-1.162v-1c0-.552-.447-1-1-1s-1,.448-1,1v1c0,2.757,2.243,5,5,5H43c2.757,0,5-2.243,5-5V13c0-2.757-2.243-5-5-5Zm-10.615,15.998l13.38-12.16c.151,.357,.234,.75,.234,1.162v22c0,.412-.084,.804-.235,1.162l-13.38-12.163Zm10.615-13.998c.512,0,.987,.141,1.409,.368l-15.893,14.444c-1.13,1.033-2.901,1.033-4.033-.002L8.591,10.368c.422-.227,.897-.368,1.409-.368H43ZM10,38c-.512,0-.987-.141-1.409-.368l13.512-12.283,1.033,.938c.944,.863,2.155,1.294,3.366,1.294s2.42-.431,3.362-1.292l1.035-.941,13.511,12.282c-.422,.227-.897,.368-1.41,.368H10Z" />
</svg>
