<svg version="1.0" xmlns="http://www.w3.org/2000/svg" width="130pt" height="130pt" viewBox="0 0 130 130"><path d="M57.5 6.484c-5.911 4.363-6.12 4.43-14.074 4.473L35.352 11l-2.326 7.417c-2.214 7.059-2.633 7.643-8.676 12.08-3.493 2.564-6.35 5.157-6.35 5.762 0 .604.989 4.169 2.197 7.92L22.394 51l-2.197 6.821C18.989 61.572 18 65.137 18 65.741c0 .605 2.905 3.233 6.456 5.84 7.931 5.823 8.696 8.107 4.955 14.8-1.898 3.395-2.355 5.075-1.591 5.839.765.765 1.732-.041 3.361-2.801l2.286-3.876.96 2.729c.94 2.673 1.126 2.728 9.207 2.728 4.674 0 8.529.454 8.896 1.048.695 1.125-15.628 31.188-16.474 30.342-.278-.278-1.453-2.842-2.611-5.698-2.282-5.625-2.252-5.613-10.711-4.303l-4.766.738 3.516-6.396c3.643-6.628 4.349-9.175 2.358-8.512-1.737.579-10.913 17.11-10.003 18.02.433.433 4.07.167 8.081-.592l7.294-1.379 1.393 3.334c.766 1.834 1.393 3.518 1.393 3.744 0 .225.697 2.077 1.548 4.115 1.262 3.02 1.81 3.487 2.965 2.528.78-.647 5.321-8.221 10.093-16.832 4.772-8.612 8.828-15.835 9.014-16.053.187-.218 2.139.794 4.338 2.25 4.93 3.262 5.154 3.262 10.084 0 2.199-1.456 4.151-2.468 4.338-2.25.186.218 4.242 7.441 9.014 16.053 4.772 8.611 9.313 16.185 10.093 16.832 1.155.959 1.703.492 2.965-2.528.851-2.038 1.548-3.89 1.548-4.115 0-.226.627-1.91 1.393-3.744l1.393-3.334 7.294 1.379c4.011.759 7.643 1.03 8.071.602.427-.427-3.507-8.358-8.742-17.623-11.355-20.095-11.354-20.078-1.865-27.045 3.551-2.607 6.456-5.235 6.456-5.84 0-.604-.989-4.169-2.197-7.92L107.606 51l2.197-6.821c1.208-3.751 2.197-7.316 2.197-7.92 0-.605-2.857-3.198-6.35-5.762-6.043-4.437-6.462-5.021-8.676-12.08L94.648 11h-7.895c-7.756 0-8.006-.079-14.201-4.5-3.468-2.475-6.924-4.488-7.679-4.473-.755.015-4.073 2.02-7.373 4.457m13.881 2.968c5.85 4.175 6.699 4.471 13.597 4.75l7.358.298 2.162 6.5c2.147 6.457 3.458 7.953 12.543 14.316 1.944 1.361 1.943 1.417-.041 7.185-2.504 7.278-2.502 9.727.015 17.044 1.717 4.99 1.803 5.977.581 6.661-.789.442-3.573 2.497-6.186 4.567-3.938 3.119-5.122 4.874-6.913 10.245L92.336 87.5l-7.358.298c-6.912.279-7.74.57-13.668 4.8L65 97.101l-6.31-4.503c-5.928-4.23-6.756-4.521-13.668-4.8l-7.358-.298-2.161-6.482c-1.791-5.371-2.975-7.126-6.913-10.245-2.613-2.07-5.397-4.125-6.186-4.567-1.222-.684-1.136-1.671.581-6.661 2.517-7.317 2.519-9.766.015-17.044-1.984-5.768-1.985-5.824-.041-7.185C32.044 28.953 33.355 27.457 35.502 21l2.162-6.5 7.418-.3c6.989-.282 7.765-.554 13.418-4.706 3.3-2.424 6.144-4.427 6.321-4.451.176-.024 3.128 1.961 6.56 4.409m33.159 90.314c7.898 14.018 8.016 13.032-1.459 12.147l-4.419-.413-2.107 5.192c-1.158 2.856-2.333 5.42-2.611 5.698-.846.846-17.169-29.217-16.474-30.342.368-.595 4.248-1.048 8.981-1.048 8.154 0 8.346-.056 8.989-2.618.362-1.44.943-2.332 1.292-1.984.349.349 3.863 6.365 7.808 13.368" fill="#3695a7" stroke="#3695a7"/><path d="M46.458 19.88c-5.479 2.489-7.672 6.218-8.592 14.614-.422 3.853-1.152 9.311-1.621 12.129-1.144 6.862.534 14.781 4.438 20.954 1.713 2.707 3.416 6.364 3.785 8.126.783 3.741 4.089 8.297 6.021 8.297.739 0 2.169-1.087 3.178-2.415 1.661-2.189 2.279-2.345 6.583-1.659 2.613.416 6.888.416 9.5 0 4.304-.686 4.922-.53 6.583 1.659C77.342 82.913 78.772 84 79.511 84c1.926 0 5.234-4.547 6.036-8.297.378-1.762 2.223-5.71 4.102-8.775 3.856-6.291 5.293-13.243 4.119-19.928-.435-2.475-1.163-7.93-1.62-12.121-.985-9.062-3.301-12.923-9.155-15.265-5.413-2.166-10.801-2.029-14.743.375-3.24 1.975-3.26 1.975-6.5 0-4.059-2.475-9.991-2.517-15.292-.109m13.681 2.692c2.892 1.495 2.958 1.664 1.346 3.444-.931 1.03-2.659 2.01-3.839 2.178-2.885.411-2.331 2.228.798 2.62 1.881.236 3.6-.811 6.889-4.195 2.41-2.48 5.574-4.809 7.031-5.174 4.472-1.123 9.761.48 13.315 4.034 2.755 2.755 3.317 4.062 3.299 7.671-.023 4.57-2.435 10.517-6.098 15.038-2.138 2.639-2.148 2.797-.529 8.566.907 3.232 1.649 7.454 1.649 9.38 0 4.01-2.613 13.509-3.943 14.331-.49.303-1.92-2.917-3.178-7.155C73.926 63.362 70.304 59 65 59c-5.304 0-8.926 4.362-11.879 14.31-1.258 4.238-2.688 7.458-3.178 7.155C48.613 79.643 46 70.144 46 66.134c0-1.926.742-6.148 1.649-9.38 1.619-5.769 1.609-5.927-.529-8.566-6.173-7.619-7.837-16.735-3.955-21.671 4.065-5.167 11.341-6.858 16.974-3.945m9.785 42.059c2.138 2.718 4.61 10.169 3.681 11.097-1.915 1.916-15.295 1.916-17.21 0-.929-.928 1.543-8.379 3.681-11.097 2.78-3.535 7.068-3.535 9.848 0M91 50.532c0 3.736-.679 8.124-1.587 10.25L87.827 64.5l-1.958-6.278-1.959-6.278 2.795-3.951c1.537-2.172 3.133-3.96 3.545-3.972.413-.011.75 2.918.75 6.511m-47.705-2.539 2.795 3.951-1.959 6.278-1.958 6.278-1.586-3.718c-1.604-3.758-2.255-16.801-.837-16.761.413.012 2.008 1.8 3.545 3.972" fill="#3695a7" stroke="#3695a7"/></svg>