<svg width="42" height="41" viewBox="0 0 42 41" fill="none" xmlns="http://www.w3.org/2000/svg">
<rect x="0.818359" width="40.365" height="40.365" rx="20.1825" fill="url(#paint0_linear_0_25201)"/>
<path fill-rule="evenodd" clip-rule="evenodd" d="M9.95598 19.968C15.8396 17.4046 19.7629 15.7147 21.726 14.8982C27.3308 12.5669 28.4955 12.162 29.2546 12.1486C29.4216 12.1456 29.7949 12.187 30.0367 12.3832C30.2409 12.5489 30.297 12.7727 30.3239 12.9298C30.3508 13.0869 30.3843 13.4447 30.3577 13.7243C30.0539 16.9156 28.7397 24.6601 28.0711 28.2345C27.7882 29.7469 27.2311 30.254 26.6918 30.3036C25.5198 30.4115 24.6298 29.5291 23.4946 28.785C21.7183 27.6206 20.7148 26.8957 18.9905 25.7595C16.9979 24.4464 18.2896 23.7247 19.4252 22.5452C19.7224 22.2365 24.8864 17.5394 24.9864 17.1133C24.9989 17.06 25.0105 16.8614 24.8925 16.7565C24.7745 16.6516 24.6003 16.6875 24.4746 16.716C24.2965 16.7565 21.4588 18.6321 15.9615 22.3428C15.1561 22.8959 14.4265 23.1654 13.7728 23.1513C13.0522 23.1357 11.666 22.7439 10.6355 22.4089C9.3716 21.998 8.36706 21.7808 8.45453 21.0831C8.50009 20.7196 9.00057 20.3479 9.95598 19.968Z" fill="white"/>
<defs>
<linearGradient id="paint0_linear_0_25201" x1="21.0008" y1="0" x2="21.0008" y2="40.0656" gradientUnits="userSpaceOnUse">
<stop stop-color="#2AABEE"/>
<stop offset="1" stop-color="#229ED9"/>
</linearGradient>
</defs>
</svg>
