<svg width="41" height="41" viewBox="0 0 41 41" fill="none" xmlns="http://www.w3.org/2000/svg">
<rect width="40.365" height="40.365" rx="20.1825" fill="url(#paint0_linear_0_25200)"/>
<path d="M7.93945 31.9223L9.66999 25.6382C8.6001 23.7937 8.03884 21.7048 8.04469 19.5693C8.04469 12.8779 13.5169 7.4375 20.2344 7.4375C23.4967 7.4375 26.5603 8.70014 28.8579 10.9927C31.1614 13.2852 32.43 16.3342 32.4242 19.5752C32.4242 26.2666 26.952 31.707 20.2286 31.707H20.2228C18.1824 31.707 16.177 31.1949 14.3939 30.2291L7.93945 31.9223ZM14.7037 28.0354L15.0721 28.2565C16.6272 29.1759 18.4104 29.6588 20.2286 29.6646H20.2344C25.8178 29.6646 30.3663 25.1436 30.3663 19.581C30.3663 16.8869 29.3139 14.3558 27.4021 12.4473C25.4904 10.5388 22.9413 9.49147 20.2344 9.49147C14.6511 9.48566 10.1026 14.0067 10.1026 19.5693C10.1026 21.472 10.6346 23.3282 11.6519 24.9341L11.8916 25.3181L10.8685 29.0362L14.7037 28.0354Z" fill="white"/>
<path d="M8.36719 31.4985L10.0393 25.4297C9.00445 23.655 8.46073 21.636 8.46073 19.5762C8.46658 13.1175 13.7459 7.86328 20.2354 7.86328C23.3866 7.86328 26.339 9.08519 28.5607 11.2963C30.7823 13.5073 32.0042 16.4516 32.0042 19.582C32.0042 26.0407 26.7191 31.2949 20.2354 31.2949H20.2295C18.2593 31.2949 16.3241 30.8003 14.6053 29.8693L8.36719 31.4985Z" fill="url(#paint1_linear_0_25200)"/>
<path d="M7.93945 31.9223L9.66999 25.6382C8.6001 23.7937 8.03884 21.7048 8.04469 19.5693C8.04469 12.8779 13.5169 7.4375 20.2344 7.4375C23.4967 7.4375 26.5603 8.70014 28.8579 10.9927C31.1614 13.2852 32.43 16.3342 32.4242 19.5752C32.4242 26.2666 26.952 31.707 20.2286 31.707H20.2228C18.1824 31.707 16.177 31.1949 14.3939 30.2291L7.93945 31.9223ZM14.7037 28.0354L15.0721 28.2565C16.6272 29.1759 18.4104 29.6588 20.2286 29.6646H20.2344C25.8178 29.6646 30.3663 25.1436 30.3663 19.581C30.3663 16.8869 29.3139 14.3558 27.4021 12.4473C25.4904 10.5388 22.9413 9.49147 20.2344 9.49147C14.6511 9.48566 10.1026 14.0067 10.1026 19.5693C10.1026 21.472 10.6346 23.3282 11.6519 24.9341L11.8916 25.3181L10.8685 29.0362L14.7037 28.0354Z" fill="url(#paint2_linear_0_25200)"/>
<path fill-rule="evenodd" clip-rule="evenodd" d="M17.1883 14.4982C16.9603 13.992 16.7206 13.9804 16.5043 13.9746C16.3289 13.9688 16.1243 13.9688 15.9197 13.9688C15.715 13.9688 15.3876 14.0444 15.107 14.347C14.8264 14.6495 14.043 15.3827 14.043 16.8781C14.043 18.3676 15.1362 19.8106 15.2883 20.0143C15.4403 20.218 17.3988 23.3775 20.4916 24.5936C23.064 25.606 23.5901 25.4023 24.1456 25.35C24.701 25.2976 25.9462 24.6168 26.2035 23.907C26.4549 23.1971 26.4549 22.592 26.3789 22.4639C26.3029 22.3359 26.0983 22.2603 25.7942 22.109C25.4902 21.9577 23.9935 21.2246 23.7129 21.1198C23.4323 21.0209 23.2277 20.9686 23.0289 21.2711C22.8243 21.5737 22.2396 22.2545 22.0642 22.4581C21.8888 22.6618 21.7076 22.685 21.4036 22.5338C21.0996 22.3825 20.1174 22.0625 18.9539 21.0267C18.0478 20.2238 17.4339 19.2288 17.2585 18.9262C17.0831 18.6236 17.241 18.4607 17.393 18.3094C17.5274 18.1756 17.697 17.9545 17.849 17.7799C18.001 17.6054 18.0536 17.4774 18.153 17.2737C18.2524 17.0701 18.2056 16.8955 18.1296 16.7442C18.0536 16.5988 17.4573 15.0976 17.1883 14.4982Z" fill="white"/>
<defs>
<linearGradient id="paint0_linear_0_25200" x1="20.1814" y1="40.363" x2="20.1814" y2="-0.00141227" gradientUnits="userSpaceOnUse">
<stop stop-color="#20B038"/>
<stop offset="1" stop-color="#60D66A"/>
</linearGradient>
<linearGradient id="paint1_linear_0_25200" x1="20.1851" y1="31.4974" x2="20.1851" y2="7.86245" gradientUnits="userSpaceOnUse">
<stop stop-color="#20B038"/>
<stop offset="1" stop-color="#60D66A"/>
</linearGradient>
<linearGradient id="paint2_linear_0_25200" x1="20.1842" y1="31.92" x2="20.1842" y2="7.4375" gradientUnits="userSpaceOnUse">
<stop stop-color="#F9F9F9"/>
<stop offset="1" stop-color="white"/>
</linearGradient>
</defs>
</svg>
