<svg class="services-calc__tooths-svg" height="800" viewBox="0 0 571 794" fill="none" xmlns="http://www.w3.org/2000/svg">
				<g fill="#8D929C"><text xml:space="preserve">
						<tspan x="149.488" y="756.432">43</tspan>
					</text><text xml:space="preserve">
						<tspan x="529.488" y="546.432">37</tspan>
					</text><text xml:space="preserve">
						<tspan x="554.488" y="471.432">38</tspan>
					</text><text xml:space="preserve">
						<tspan x=".488" y="471.432">48</tspan>
					</text><text xml:space="preserve">
						<tspan x="394.488" y="756.432">33</tspan>
					</text><text xml:space="preserve">
						<tspan x="439.488" y="726.432">34</tspan>
					</text><text xml:space="preserve">
						<tspan x="107.488" y="726.432">44</tspan>
					</text><text xml:space="preserve">
						<tspan x="73.488" y="672.432">45</tspan>
					</text><text xml:space="preserve">
						<tspan x="474.488" y="672.432">35</tspan>
					</text><text xml:space="preserve">
						<tspan x="507.488" y="618.432">36</tspan>
					</text><text xml:space="preserve">
						<tspan x="36.488" y="618.432">46</tspan>
					</text><text xml:space="preserve">
						<tspan x="15.488" y="546.432">47</tspan>
					</text><text xml:space="preserve">
						<tspan x="540.488" y="302.432">27</tspan>
					</text><text xml:space="preserve">
						<tspan x="13.488" y="302.432">17</tspan>
					</text><text xml:space="preserve">
						<tspan x="440.488" y="72.432">23</tspan>
					</text><text xml:space="preserve">
						<tspan x="119.488" y="72.432">13</tspan>
					</text><text xml:space="preserve">
						<tspan x="476.488" y="122.432">24</tspan>
					</text><text xml:space="preserve">
						<tspan x="81.488" y="122.432">14</tspan>
					</text><text xml:space="preserve">
						<tspan x="505.488" y="176.432">25</tspan>
					</text><text xml:space="preserve">
						<tspan x="50.488" y="176.432">15</tspan>
					</text><text xml:space="preserve">
						<tspan x="525.488" y="231.432">26</tspan>
					</text><text xml:space="preserve">
						<tspan x="28.488" y="231.432">16</tspan>
					</text><text xml:space="preserve">
						<tspan x="548.488" y="373.432">28</tspan>
					</text><text xml:space="preserve">
						<tspan x="9.488" y="373.432">18</tspan>
					</text><text xml:space="preserve">
						<tspan x="313.488" y="19.432">21</tspan>
					</text><text xml:space="preserve">
						<tspan x="295.488" y="785.432">31</tspan>
					</text><text xml:space="preserve">
						<tspan x="344.488" y="776.432">32</tspan>
					</text><text xml:space="preserve">
						<tspan x="200.488" y="776.432">42</tspan>
					</text><text xml:space="preserve">
						<tspan x="246.488" y="19.432">11</tspan>
					</text><text xml:space="preserve">
						<tspan x="251.488" y="785.432">41</tspan>
					</text><text xml:space="preserve">
						<tspan x="380.488" y="40.432">22</tspan>
					</text><text xml:space="preserve">
						<tspan x="179.488" y="40.432">12</tspan>
					</text>
					</g>
	<g data-tooth-number="48" data-jaw="bottom" class="tooth">
		<path d="M96.532 468.441v.371a33.79 33.79 0 0 1-.594 4.974c-.372 1.633-.817 3.117-1.411 4.527l-.149.372c-.371.816-.817 1.781-1.41 2.523a12.92 12.92 0 0 1-2.377 2.079c-1.262.89-2.6 1.558-3.936 2.226-.445.223-.817.446-1.262.668-3.342 1.782-6.758 3.266-10.1 4.602-2.97 1.114-9.653 3.341-16.93 3.341-6.313 0-12.996-1.708-17.972-7.2-3.712-4.083-4.084-9.353-4.53-14.326l-.074-.52c-.371-4.75-1.336-9.13-2.747-12.989-1.782-4.974-1.337-10.466 1.41-15.811 2.228-4.305 6.164-7.942 10.768-9.872a48.435 48.435 0 0 1 3.49-1.262c6.832-2.226 13.813-2.375 19.754-2.301 2.227 0 4.455.371 6.609 1.039 3.787 1.114 7.277 3.192 10.47 6.087 3.12 2.895 4.753 5.419 5.57 8.685.445 1.707.668 3.414.965 5.047.223 1.633.52 3.34.891 4.973.594 2.227 1.411 4.231 2.302 6.384.223.594.52 1.187.743 1.781.594 1.485.52 3.043.52 4.602Z" fill="#E8ECEF" />
		<path fill-rule="evenodd" clip-rule="evenodd" d="M40.391 486.849c4.976 5.493 11.66 7.2 17.971 7.2 7.203 0 13.961-2.226 16.931-3.34 3.342-1.336 6.758-2.82 10.1-4.602.332-.11.622-.262.933-.424.106-.056.215-.113.33-.17 1.336-.668 2.672-1.336 3.935-2.226a12.92 12.92 0 0 0 2.376-2.079c.594-.742 1.04-1.707 1.411-2.523l.149-.372c.594-1.41 1.114-2.894 1.41-4.527.372-1.559.52-3.192.595-4.974v-.371l.001-.467c.007-1.403.014-2.806-.521-4.209-.112-.297-.242-.594-.371-.891-.13-.297-.26-.594-.372-.89-.89-2.153-1.708-4.157-2.302-6.384a58.234 58.234 0 0 1-.89-4.973c-.084-.457-.161-.921-.24-1.388-.2-1.201-.406-2.431-.726-3.66-.891-3.266-2.525-5.789-5.644-8.684-3.193-2.895-6.683-4.973-10.47-6.087-2.154-.668-4.382-.965-6.61-1.039-5.94-.074-12.92.074-19.753 2.301a63.724 63.724 0 0 0-3.416 1.262c-4.604 1.93-8.54 5.567-10.767 9.872-2.748 5.344-3.194 10.837-1.411 15.81 1.41 3.86 2.376 8.24 2.747 12.99l.075.52.037.424c.432 4.847.885 9.935 4.492 13.901Zm8.689-53.74c5.866-1.855 11.807-2.227 17.154-2.227.742 0 1.485 0 2.302-.222 2.153 0 4.307.371 6.312.965 3.639 1.113 6.98 3.043 10.025 5.864 2.97 2.746 4.456 5.121 5.272 8.165.372 1.633.669 3.34.892 4.973.074.427.143.853.213 1.28.209 1.281.418 2.561.752 3.841.594 2.301 1.41 4.454 2.302 6.532.297.594.52 1.188.742 1.782.52 1.336.446 2.82.372 4.231v.371c0 1.707-.223 3.34-.52 4.825a19.439 19.439 0 0 1-1.337 4.305l-.148.371c-.371.816-.743 1.633-1.263 2.227-.594.742-1.262 1.336-2.153 1.93-1.014.696-2.136 1.285-3.227 1.858l-.56.294c-.223.112-.427.223-.631.334-.205.112-.409.223-.632.334-3.341 1.782-6.757 3.266-10.025 4.528-5.272 2.004-23.466 7.794-33.64-3.563-3.357-3.721-3.773-8.445-4.21-13.398a227.96 227.96 0 0 0-.022-.26l-.075-.519c-.37-4.825-1.336-9.278-2.747-13.287-1.708-4.676-1.263-9.798 1.337-14.919 2.079-4.083 5.792-7.497 10.173-9.353 1.114-.445 2.228-.891 3.342-1.262Zm15 31.621c-5.346-1.262-11.51-1.113-18.713.445 3.267-.445 10.545-.816 19.679 1.114v.074l.297.297c3.935 3.34 5.42 7.794 4.826 14.4 0 .223-.148.371-.37.445-2.154.52-4.16 1.707-5.867 3.415 4.53-2.376 9.208-3.563 14.109-3.118a16.173 16.173 0 0 0-6.09-.668.508.508 0 0 1-.52-.52c.447-6.086-.816-10.466-4.158-13.88-.52-.52-.668-1.188-.52-1.856.372-1.558.298-3.043-.296-4.379-.149-.371.148-.742.52-.668 2.153.445 4.232.742 6.237.742 5.57.074 10.248-1.41 14.035-4.453-6.163 3.859-15.371 4.379-22.13 2.078-.036-.037-.092-.074-.148-.111-.055-.038-.111-.075-.148-.112-3.565-4.528-4.753-10.466-3.787-18.037h.297c1.41.074 2.747-.297 4.084-.891-2.673.446-6.312-.074-11.065-1.633 1.783 1.188 3.49 1.93 5.124 2.301a.56.56 0 0 1 .371.52c-.965 8.017.52 14.252 4.53 19.002.966 1.336 1.411 2.672 1.337 4.231 0 .891-.817 1.485-1.634 1.262Z" fill="#555962" />
	</g>
	<g data-tooth-number="47" data-jaw="bottom" class="tooth">
		<path d="M119.032 538.957c-.817 3.191-2.747 6.161-5.495 8.387-3.713 3.118-8.391 4.751-12.921 6.384l-1.634.594c-.965.371-1.93.742-2.896 1.039-3.861 1.484-7.871 2.969-12.03 3.785-2.228.446-4.307.668-6.312.668-3.416 0-6.61-.668-9.282-1.929-5.867-2.747-8.763-8.685-11.585-14.4l-1.56-3.118c-.816-1.559-1.782-3.118-2.747-4.602-1.857-3.043-3.862-6.161-4.753-9.65-1.04-4.082-1.856-10.243.594-15.958 2.748-6.532 8.911-11.58 18.937-15.439 9.95-3.86 18.193-4.603 25.174-2.227 5.123 1.707 9.802 5.27 13.663 10.243 2.228 2.895 3.713 6.755 5.124 10.392a166.03 166.03 0 0 0 1.337 3.414c.594 1.485 1.337 2.895 2.079 4.231 1.263 2.45 2.451 4.751 3.119 7.571l.149-.074c1.411 4.379 1.782 7.868 1.039 10.689Z" fill="#E8ECEF" />
		<path fill-rule="evenodd" clip-rule="evenodd" d="M68.536 557.885c2.673 1.261 5.866 1.929 9.282 1.929 2.005 0 4.159-.222 6.386-.742 4.159-.816 8.169-2.301 12.03-3.785l2.897-1.114 1.633-.594.386-.139c4.409-1.588 8.928-3.215 12.536-6.244 2.747-2.227 4.678-5.27 5.495-8.388.742-2.82.371-6.235-1.114-10.466l-.149.074c-.666-2.812-1.849-5.108-3.108-7.55l-.011-.021c-.742-1.336-1.485-2.746-2.079-4.231-.445-1.113-.891-2.226-1.337-3.414l-.045-.117c-1.397-3.603-2.875-7.411-5.078-10.275-3.862-5.047-8.54-8.61-13.664-10.317-6.98-2.376-15.223-1.633-25.174 2.227-10.025 3.859-16.189 8.907-18.936 15.439-2.451 5.715-1.634 11.876-.594 15.958.827 3.24 2.615 6.16 4.353 8.997l.001.002.002.003.396.648c.965 1.484 1.93 3.043 2.748 4.602l1.56 3.118.065.133c2.801 5.674 5.698 11.542 11.519 14.267Zm-.817-62.054c6.09-2.301 11.436-3.489 16.263-3.489 2.97 0 5.643.446 8.02 1.411 4.9 1.633 9.431 5.047 13.144 9.872 2.099 2.677 3.493 6.272 4.869 9.82l.106.275a166.03 166.03 0 0 0 1.337 3.414c.668 1.559 1.336 2.969 2.079 4.305l.144.279c1.282 2.49 2.474 4.804 2.975 7.738l.223-.075c1.188 3.786 1.485 6.829.891 9.279-.669 2.895-2.525 5.715-5.05 7.794-3.554 2.96-8.141 4.592-12.511 6.147l-.039.013-1.633.594-2.897 1.114c-3.787 1.41-7.797 2.894-11.807 3.711-4.01.816-9.802 1.262-14.926-1.188-5.495-2.598-8.317-8.313-11.065-13.88l-1.56-3.118a59.479 59.479 0 0 0-2.747-4.676c-1.856-2.969-3.713-6.012-4.604-9.352-1.04-3.934-1.782-9.724.52-15.217 2.6-6.161 8.614-11.06 18.268-14.771Zm11.953 4.64c-.27.024-.541.036-.814.036a11.305 11.305 0 0 1-4.01-.965c3.341.371 6.535.149 9.505-.891-1.13.835-2.325 1.378-3.564 1.649.7 4.497.337 8.074-1.152 10.982 4.074 2.923 7.052 7.209 8.868 12.66 6.255 2.048 15.903-1.125 19.908-2.8-7.352 3.637-13.59 4.899-19.53 4.009.73 2.32.452 4.345-.78 6.127 4.904 5.051 7.168 10.63 6.729 16.674 2.172-.579 4.436-.817 6.749-.756-1.374 0-4.06.677-6.827 1.587l-.005.046-.094-.013c-3.48 1.152-7.063 2.663-8.297 3.65 2.154-1.782 4.53-3.192 7.055-4.083l.266-.089c.6-5.85-1.621-11.41-6.525-16.336-7.294 4.068-15.845 6.034-25.45 6.034 5.9-.516 16.412-1.618 25.284-7.23 1.322-1.773 1.463-3.759.484-6.205l-.371-.965.035.007c-1.801-4.885-4.585-8.723-8.352-11.512-6.684 1.113-13.293.89-19.68-.743.102.012.257.034.462.062 2.334.321 11.081 1.527 19.087-.383l-.092-.05c1.44-2.663 1.833-6.163 1.11-10.502Z" fill="#555962" />
	</g>
	<g data-tooth-number="46" data-jaw="bottom" class="tooth">
		<path d="m137.374 617.192-.742.445c-5.644 3.266-10.991 6.309-17.006 8.536-3.193 1.188-6.46 2.153-9.728 2.969-.742.149-1.411.371-2.153.52-2.228.594-4.53 1.187-6.832 1.187h-.149c-2.599-.074-5.198-.89-7.945-2.449-4.827-2.746-8.763-7.052-12.253-11.282-2.674-3.266-5.05-6.829-7.278-10.986-2.153-3.934-3.564-7.497-3.267-11.876.074-1.336.371-2.598.594-3.86.223-.965.371-1.93.52-2.821.297-2.301.52-4.602.742-6.829l.223-2.672c.149-2.895.371-5.864 1.857-8.61.297-.52.594-1.039.965-1.485 1.782-2.598 4.753-4.453 7.203-5.938 2.748-1.707 5.644-3.043 8.689-4.156 6.237-2.153 12.772-2.97 19.01-2.227 5.124.594 12.179 2.004 16.783 5.567l.074.074c.074.074.223.148.297.223 6.98 6.606 10.619 17.072 13.738 26.276 1.04 2.969 2.005 5.79 3.045 8.313 2.822 6.681 1.188 16.701-6.387 21.081Z" fill="#E8ECEF" />
		<path fill-rule="evenodd" clip-rule="evenodd" d="M80.566 617.043c-2.674-3.191-5.05-6.754-7.278-10.911-2.153-3.934-3.49-7.497-3.267-12.099.057-.979.249-2.002.436-3.001.054-.289.108-.576.158-.859.223-.89.371-1.855.52-2.82.297-2.227.52-4.528.742-6.829.1-.594.132-1.188.165-1.782.017-.297.033-.593.058-.89.149-2.895.371-5.864 1.857-8.611.225-.393.492-.787.738-1.148l.227-.336c1.782-2.598 4.752-4.454 7.203-5.938 2.673-1.708 5.644-3.118 8.688-4.157 6.238-2.153 12.773-2.969 19.011-2.227 5.124.594 12.178 2.004 16.783 5.567l.074.074c.037.038.093.075.148.112.056.037.112.074.149.111 6.92 6.623 10.483 16.894 13.656 26.039l.082.237.346.99c.91 2.606 1.775 5.082 2.699 7.324 2.747 6.829 1.113 16.849-6.461 21.229l-.743.445c-5.643 3.266-10.916 6.309-17.005 8.536-3.119 1.188-6.461 2.227-9.728 2.969-.743.149-1.411.297-2.154.52l-.456.122c-2.085.559-4.23 1.135-6.376 1.065h-.148c-2.6-.074-5.272-.89-7.946-2.449-4.827-2.747-8.688-7.052-12.178-11.283Zm-8.763-26.424c-.297 1.187-.52 2.449-.594 3.711-.297 4.157 1.04 7.497 2.97 11.208 2.228 4.083 4.604 7.571 7.203 10.763 3.936 4.825 7.5 8.536 11.882 11.06 2.525 1.484 5.05 2.227 7.426 2.301h.148c2.154.074 4.382-.52 6.535-1.113.372-.075.724-.167 1.077-.26s.706-.186 1.077-.26c3.193-.742 6.46-1.707 9.579-2.895 5.912-2.188 11.106-5.165 16.569-8.297l.288-.165.743-.445c7.055-4.083 8.54-13.435 5.941-19.819-.84-2.037-1.63-4.316-2.451-6.68l-.594-1.707c-3.119-9.13-6.683-19.373-13.441-25.831 0-.046-.028-.064-.068-.088-.024-.015-.052-.032-.081-.061l-.148-.074c-4.381-3.414-11.213-4.75-16.189-5.344a31.024 31.024 0 0 0-3.713-.223c-4.901-.074-9.876.742-14.777 2.45a44.169 44.169 0 0 0-8.466 4.008l-.399.257c-2.229 1.432-4.892 3.144-6.433 5.384v.001c-.297.445-.594.89-.89 1.409-1.338 2.524-1.56 5.27-1.709 8.165l-.223 2.673c-.222 2.301-.445 4.602-.742 6.903-.149 1.039-.297 2.004-.52 2.969Zm32.006-22.565c.891 4.305.371 8.461-1.56 12.247-5.57-2.078-12.327-2.969-20.347-2.153 6.61.075 25.62.446 31.041 14.029l.074.297c1.337 4.008 1.04 7.571-.668 10.615-6.164-1.708-14.407 1.41-22.724 5.344 4.307-1.707 18.862-6.755 24.209-3.489 3.416 2.004 5.718 5.27 6.312 11.431-2.896.817-5.718 2.227-8.466 4.38 5.718-2.821 11.585-4.528 17.823-4.602-2.896-.594-5.644-.594-8.317 0-.966-6.235-3.194-10.244-6.832-12.174-.149-.074-.316-.148-.483-.222a12.498 12.498 0 0 1-.483-.223c1.708-3.117 2.005-6.68.891-10.614.52.074.966.074 1.486.074 8.094.148 14.406-1.559 18.787-5.196-3.713 1.856-10.842 5.27-20.57 4.008v-.074c-2.747-4.973-6.237-8.61-10.619-10.911 2.08-4.083 2.599-8.462 1.634-13.064-.074-.371.148-.743.52-.891 2.005-.668 3.713-1.707 5.124-3.118-4.307 2.153-9.431 3.341-15.15 3.786 1.115.149 2.228.223 3.268.223 1.485 0 2.896-.075 4.233-.297.371 0 .743.222.817.594Z" fill="#555962" />
	</g>
	<g data-tooth-number="45" data-jaw="bottom" class="tooth">
		<path d="M155.345 657.571c-4.381 4.751-9.134 8.388-14.258 10.763-5.124 2.375-10.545 3.563-16.262 3.563-4.085 0-8.318-.594-12.699-1.782-3.639-1.039-7.426-4.231-8.911-5.567-1.782-1.633-3.193-3.562-4.084-5.641-2.154-4.899-1.931-10.763.52-16.107 2.45-5.27 6.757-9.798 11.51-11.951 6.46-2.969 13.441-5.863 20.644-6.606 6.312-.668 12.253.817 17.08 4.157 5.421 3.786 9.579 10.614 10.247 16.924.52 4.75-.742 8.981-3.787 12.247Z" fill="#E8ECEF" />
		<path fill-rule="evenodd" clip-rule="evenodd" d="M112.2 670.116c4.382 1.187 8.614 1.781 12.699 1.781 11.436 0 21.684-4.751 30.372-14.4 2.97-3.192 4.307-7.423 3.787-12.173-.668-6.309-4.827-13.138-10.248-16.924-4.752-3.34-10.693-4.825-17.005-4.157-7.129.743-14.109 3.638-20.57 6.607-4.753 2.152-9.06 6.68-11.51 11.95-2.45 5.344-2.674 11.208-.52 16.107.891 2.079 2.302 4.009 4.084 5.642 1.485 1.336 5.273 4.527 8.911 5.567Zm19.828-44.759c.891-.074 1.856-.149 2.747-.149 4.976 0 9.58 1.411 13.441 4.083 5.198 3.637 9.134 10.095 9.803 16.181.519 4.38-.743 8.239-3.491 11.283-11.584 12.618-25.768 16.775-42.031 12.247-3.416-.965-7.054-4.082-8.465-5.344-1.634-1.559-2.971-3.34-3.787-5.27-2.005-4.528-1.783-10.095.519-15.142 2.377-5.048 6.461-9.353 10.991-11.431 6.386-2.97 13.292-5.79 20.273-6.458Zm-3.119 9.649c3.713.668 6.535 2.301 8.243 4.825 2.524 3.637 3.044 9.278 1.485 16.627-3.416 1.187-6.832 3.043-10.248 5.641 6.312-3.34 12.847-5.79 19.753-7.051h-.371c-2.674-.075-5.273.296-7.872 1.039 1.188-6.31.966-11.209-.594-14.846a1.184 1.184 0 0 1 .149-1.113c1.708-2.153 4.01-3.786 6.831-4.899-3.341.816-6.089 2.152-7.797 4.454-.09-.09-.152-.207-.221-.335a2.72 2.72 0 0 0-.15-.259c-1.782-2.524-4.456-4.231-8.094-5.048.816-.89 1.336-1.855 1.336-2.895-2.302 3.415-8.688 6.31-16.485 9.056 6.312-1.559 11.287-3.192 14.035-5.196Z" fill="#555962" />
	</g>
	<g data-tooth-number="44" data-jaw="bottom" class="tooth">
		<path d="M174.653 685.852c-3.342 17.072-11.659 25.534-24.654 25.311-3.788-.074-8.02-.891-12.624-2.45-3.045-1.039-6.016-3.043-8.021-4.527-3.341-2.598-5.495-5.716-6.46-9.205-1.56-6.16 1.188-12.024 4.158-16.923 2.302-3.934 6.461-6.829 12.699-8.907 5.792-1.93 11.733-2.895 17.525-2.821h.371c4.604.148 11.139.816 15.075 5.79 3.268 4.156 2.748 9.501 1.931 13.732Z" fill="#E8ECEF" />
		<path fill-rule="evenodd" clip-rule="evenodd" d="M129.354 704.26c2.005 1.484 4.902 3.489 8.02 4.528 4.605 1.484 8.837 2.301 12.55 2.449 12.996.223 21.313-8.239 24.655-25.311.816-4.231 1.336-9.575-1.931-13.732-3.936-4.973-10.471-5.641-15.075-5.79h-.371a51.568 51.568 0 0 0-17.525 2.821c-6.238 2.078-10.397 5.047-12.699 8.907-2.896 4.899-5.718 10.763-4.084 16.924.891 3.488 3.119 6.606 6.46 9.204Zm-1.336-25.608c2.228-3.638 6.163-6.384 12.104-8.388 5.718-1.93 11.436-2.895 17.08-2.746h.371c6.906.148 11.436 1.855 14.184 5.344 2.97 3.785 2.45 8.833 1.708 12.767-3.268 16.701-10.991 24.643-23.541 24.421-3.638-.075-7.797-.891-12.252-2.376-2.897-1.039-5.793-2.969-7.649-4.379-3.119-2.45-5.198-5.344-6.015-8.61-1.485-5.79 1.188-11.357 4.01-16.033Zm22.723-.891c6.387.668 10.471 4.453 12.402 11.357.074.371 0 .742-.297.89-2.005 2.079-4.01 5.345-5.941 9.798 3.193-5.047 6.832-9.352 11.362-12.544-1.114.074-2.228.445-3.268 1.113-.371.223-.817 0-.965-.371-2.08-6.532-6.238-10.392-12.253-11.357-.371 0-.594-.371-.446-.742.446-.891.446-1.93 0-3.043 0 0-.817 2.746-1.856 3.785-2.228 2.227-12.327 5.864-12.327 5.864 4.678-.965 9.728-2.301 12.401-4.379.371-.297.743-.445 1.188-.371Z" fill="#555962" />
	</g>
	<g data-tooth-number="43" data-jaw="bottom" class="tooth">
		<path d="M201.832 727.567c-.743 4.825-2.971 8.017-6.907 9.501-3.935 1.485-8.094 2.301-12.475 2.524-1.114.074-2.451.148-3.787.074-2.377-.074-4.307-.371-5.941-.891-3.787-1.336-7.055-3.934-9.728-7.868a31.883 31.883 0 0 1-2.971-5.715l-.074-.149c-.817-2.004-1.708-4.231-1.782-6.532-.074-1.336.52-2.82 1.04-3.934 1.114-2.672 2.97-5.195 4.975-6.828 7.352-6.087 16.56-10.392 27.625-12.842 6.534-.222 10.247 3.637 11.213 11.505.668 7.646.223 14.772-1.188 21.155Z" fill="#E8ECEF" />
		<path fill-rule="evenodd" clip-rule="evenodd" d="M163.068 730.982c2.599 3.934 5.941 6.532 9.728 7.868 1.634.519 3.565.816 5.941.816 1.337.074 2.673 0 3.787-.074 4.381-.223 8.54-1.039 12.476-2.524 3.935-1.484 6.163-4.602 6.906-9.501 1.411-6.383 1.782-13.509 1.114-21.08-.966-7.868-4.753-11.728-11.213-11.505-11.065 2.449-20.273 6.754-27.625 12.841-1.931 1.633-3.787 4.156-4.901 6.829-.52 1.113-1.114 2.598-1.04 3.934.074 2.301.966 4.528 1.782 6.532l.075.148a31.89 31.89 0 0 0 2.97 5.716Zm1.857-22.343c7.203-5.938 16.262-10.169 27.03-12.544h.52c5.421.148 8.465 3.563 9.282 10.54.669 7.423.297 14.4-1.114 20.709-.668 4.454-2.673 7.275-6.163 8.685-3.787 1.41-7.872 2.227-12.104 2.45-1.114.074-2.376.074-3.713.074-2.228 0-4.01-.297-5.57-.817-3.639-1.262-6.609-3.637-9.134-7.422a34.68 34.68 0 0 1-2.822-5.493l-.074-.149c-.817-2.004-1.634-4.082-1.708-6.161 0-1.078.488-2.296.924-3.384l.041-.104c1.04-2.524 2.748-4.825 4.605-6.384Zm27.995 24.124c-10.842-2.821-20.347-8.239-27.921-17.369 5.272 9.13 14.703 14.994 27.921 17.369Z" fill="#555962" />
	</g>
	<g data-tooth-number="42" data-jaw="bottom" class="tooth">
		<path d="M240.892 745.159c-.445 4.231-2.45 6.829-5.941 7.793-5.792 2.153-10.767 3.192-15.371 3.044-8.095-.149-14.704-3.934-19.531-11.208-1.559-3.118-1.336-7.126.595-11.951l.074-.148c5.792-7.868 12.475-14.549 19.827-19.819.371-.223.743-.445 1.188-.668 4.456-2.227 9.283-1.484 12.699 1.93.742.742 1.411 1.781 2.005 3.117.519 1.262.891 2.524 1.262 3.786.668 2.375 1.04 4.825 1.411 7.126l.074.297c.817 5.047 1.337 10.466 1.708 16.701Z" fill="#E8ECEF" />
		<path fill-rule="evenodd" clip-rule="evenodd" d="M219.505 755.996c-8.094-.149-14.703-3.86-19.53-11.208-1.559-3.118-1.337-7.126.52-11.951l.074-.148c5.792-7.868 12.476-14.549 19.828-19.819.185-.111.389-.223.594-.334.204-.111.408-.223.594-.334 4.455-2.227 9.282-1.484 12.772 1.93.743.742 1.411 1.781 2.005 3.117.52 1.262.891 2.524 1.263 3.785v.001c.645 2.221 1.013 4.58 1.372 6.877l.039.249.074.297c.817 5.047 1.337 10.54 1.708 16.701-.446 4.231-2.451 6.829-5.941 7.794-5.792 2.152-10.767 3.117-15.372 3.043Zm12.847-3.786c.743 0 1.486-.074 2.228-.371 3.119-.816 4.753-3.043 5.198-6.755-.371-6.012-.891-11.43-1.708-16.478l-.074-.297c-.371-2.375-.743-4.75-1.411-7.051-.297-1.188-.668-2.45-1.188-3.637-.52-1.188-1.114-2.079-1.782-2.747-1.857-1.855-4.159-2.82-6.535-2.895-1.634 0-3.268.371-4.901 1.188a8.793 8.793 0 0 1-.437.239c-.217.113-.424.22-.603.355-7.203 5.196-13.812 11.728-19.53 19.521-1.337 3.415-1.857 6.384-1.337 8.833.149.594.52 1.188 1.04 1.559 8.391 5.567 18.862 8.462 31.04 8.536Zm-2.227 1.114c-10.991-.371-20.422-3.044-28.293-7.943 4.529 6.235 10.322 9.353 17.822 9.501 3.119.075 6.683-.445 10.471-1.558Zm2.153-6.384c-9.876-1.781-19.233-4.899-28.07-9.055 7.723 5.863 17.154 8.907 27.922 9.055h.148Z" fill="#555962" />
	</g>
	<g data-tooth-number="41" data-jaw="bottom" class="tooth">
		<path d="M278.913 748.87c-.742 2.746-2.227 4.454-4.975 5.715-4.753 2.153-8.837 3.266-12.773 3.415h-1.485c-4.084-.074-8.168-1.188-13.07-3.637-1.039-.52-2.302-1.262-3.267-2.375-1.931-2.153-1.782-5.493-1.559-8.165.074-.891.222-1.856.445-2.747.223-.742.446-1.484.817-2.227.817-1.707 1.559-3.488 2.376-5.195 1.337-2.821 2.748-5.567 4.307-8.165 1.337-2.153 2.748-4.157 4.382-6.087.222-.297.445-.52.668-.742 5.644-6.161 11.213-5.493 16.189 2.152 3.564 5.345 6.015 12.025 7.5 19.745.223 1.261.445 2.598.594 3.934.148 1.41.297 2.746-.149 4.379Z" fill="#E8ECEF" />
		<path fill-rule="evenodd" clip-rule="evenodd" d="M243.343 752.062c-1.931-2.153-1.857-5.493-1.56-8.165.075-.965.223-1.856.372-2.672.222-.742.445-1.485.816-2.227.522-.999.967-2.023 1.41-3.044.315-.723.628-1.444.967-2.152 1.262-2.82 2.673-5.567 4.307-8.165 1.337-2.152 2.747-4.231 4.381-6.086.112-.112.223-.242.334-.372.112-.129.223-.259.334-.371 5.57-6.161 11.214-5.493 16.189 2.153 3.565 5.418 6.015 12.025 7.5 19.744l.084.501c.194 1.154.381 2.265.51 3.433.223 1.336.372 2.747-.074 4.305-.742 2.747-2.228 4.454-4.975 5.716-4.827 2.153-8.837 3.266-12.773 3.414h-1.485c-4.084-.074-8.169-1.187-13.07-3.637-.965-.519-2.302-1.262-3.267-2.375Zm17.079 2.895c-4.604-.074-9.282-.742-13.96-1.93.155.103.31.171.441.227.056.025.108.047.153.07 5.346 2.672 9.505 3.711 14.035 3.489 3.564-.149 7.203-1.04 11.436-2.895-4.01.742-8.02 1.113-12.105 1.039Zm-17.302-13.064c-.297 2.004-.594 4.602-.149 6.829.298 1.41 1.411 2.598 2.748 2.895 9.58 2.672 19.308 2.895 28.813.668 1.039-.223 1.931-.817 2.45-1.708.372-.593.594-1.261.817-2.004.297-1.262.297-2.301.074-3.859-.148-1.336-.371-2.598-.593-3.859l-.001-.001c-1.411-7.571-3.935-14.029-7.351-19.299-2.451-3.786-5.05-5.716-7.649-5.79-2.154-.074-4.456 1.188-6.758 3.786-4.084 4.453-7.945 11.282-12.104 21.377-.124.249-.197.55-.261.815a8.494 8.494 0 0 1-.036.15Zm17.08 6.458c4.233.074 8.688-.817 13.366-2.747-8.614 1.93-17.005 1.856-25.174-.445 3.639 2.078 7.575 3.117 11.808 3.192Z" fill="#555962" />
	</g>
	<g data-tooth-number="31" data-jaw="bottom" class="tooth">
		<path d="M317.454 749.761c-.966 1.113-2.302 1.781-3.342 2.301-4.975 2.301-9.06 3.34-13.144 3.34-.52 0-.965 0-1.485-.074-3.936-.223-7.946-1.411-12.698-3.637-2.748-1.336-4.233-3.044-4.902-5.79-.371-1.559-.222-2.969 0-4.305.223-1.336.446-2.598.669-3.86 1.559-7.72 4.233-14.252 7.871-19.596 5.124-7.497 10.768-8.165 16.263-1.856.223.297.446.52.668.817a50.152 50.152 0 0 1 4.233 6.161c1.56 2.672 2.896 5.418 4.159 8.239.742 1.707 1.485 3.489 2.228 5.196.371.742.594 1.484.742 2.227.223.89.297 1.855.371 2.746.223 2.598.297 5.938-1.633 8.091Z" fill="#E8ECEF" />
		<path fill-rule="evenodd" clip-rule="evenodd" d="M317.974 736.623c.297.742.594 1.484.742 2.227.14.557.221 1.144.299 1.705.046.336.091.662.147.967.223 2.746.223 6.012-1.708 8.165-.966 1.113-2.302 1.781-3.342 2.301-4.975 2.301-8.985 3.34-13.144 3.34-.214 0-.445-.017-.686-.035-.259-.019-.529-.039-.799-.039-3.936-.223-7.946-1.411-12.698-3.637-2.748-1.262-4.233-3.044-4.902-5.79-.371-1.633-.222-2.969 0-4.305.149-1.262.372-2.598.669-3.86 1.633-7.72 4.233-14.252 7.871-19.596 5.124-7.497 10.768-8.165 16.263-1.856.111.149.223.279.334.409.112.13.223.259.334.408a50.152 50.152 0 0 1 4.233 6.161c1.56 2.672 2.896 5.418 4.159 8.239.274.63.538 1.271.803 1.914.453 1.099.909 2.205 1.425 3.282Zm-18.491 17.592c4.53.297 8.688-.668 14.109-3.192.112-.074.223-.13.334-.186.112-.055.223-.111.335-.185-4.679 1.113-9.357 1.707-14.035 1.707-4.085 0-8.095-.445-12.105-1.262 4.233 1.856 7.872 2.895 11.362 3.118Zm-13.367-4.751c9.431 2.375 19.159 2.375 28.813-.148 1.485-.372 2.525-1.485 2.822-2.969.52-2.153.223-4.825 0-6.829 0-.297-.074-.668-.223-.965-4.01-10.169-7.723-16.998-11.733-21.526-2.302-2.598-4.53-3.934-6.683-3.934-2.599 0-5.199 1.856-7.798 5.641-3.49 5.122-6.089 11.58-7.648 19.151-.112.631-.223 1.28-.335 1.93-.111.649-.222 1.299-.334 1.929-.222 1.559-.297 2.598 0 3.86.149.817.372 1.485.743 2.079.52.89 1.411 1.558 2.376 1.781Zm14.481-3.711c-4.159 0-8.614-.965-13.293-2.969 8.54 2.004 16.932 2.078 25.1 0-3.639 2.004-7.574 2.969-11.807 2.969Z" fill="#555962" />
	</g>
	<g data-tooth-number="32" data-jaw="bottom" class="tooth">
		<path d="M360.822 743.229c-4.976 7.2-11.659 10.837-19.753 10.837-4.605 0-9.58-1.113-15.298-3.34-3.49-.965-5.421-3.637-5.866-7.868.445-6.161 1.113-11.654 2.005-16.701l.074-.297c.445-2.376.817-4.825 1.559-7.126.372-1.262.743-2.524 1.337-3.786.594-1.336 1.262-2.301 2.079-3.043 3.565-3.34 8.392-4.008 12.773-1.707l1.114.668c7.277 5.418 13.812 12.247 19.53 20.19l.074.148c1.931 4.973 2.005 8.981.372 12.025Z" fill="#E8ECEF" />
		<path fill-rule="evenodd" clip-rule="evenodd" d="m360.376 731.13.074.148c1.931 4.899 2.005 8.908.372 12.025-4.976 7.2-11.659 10.837-19.753 10.837-4.605 0-9.58-1.113-15.298-3.34-3.49-.965-5.495-3.637-5.866-7.868.445-6.235 1.113-11.654 2.005-16.701l.074-.297c.445-2.375.891-4.75 1.559-7.126a38.513 38.513 0 0 1 1.337-3.785c.594-1.336 1.262-2.376 2.079-3.118 3.565-3.34 8.392-3.934 12.773-1.633l1.114.668c7.277 5.419 13.886 12.173 19.53 20.19Zm-37.278-4.751c-.891 5.048-1.56 10.392-2.005 16.479.297 3.711 2.005 5.938 5.049 6.754h.075a5.326 5.326 0 0 0 2.153.446c12.179.148 22.724-2.524 31.189-7.942.52-.372.891-.891 1.04-1.559.52-2.375.148-5.345-1.188-8.833-5.57-7.868-12.03-14.549-19.159-19.893a4.432 4.432 0 0 0-.603-.355c-.142-.074-.29-.15-.437-.239-1.634-.816-3.267-1.262-4.901-1.262-2.451 0-4.678.965-6.609 2.747-.669.668-1.263 1.558-1.782 2.746-.459 1.047-.802 2.152-1.131 3.212l-.132.425c-.514 1.713-.852 3.557-1.184 5.364a151.04 151.04 0 0 1-.301 1.614l-.074.296Zm7.5 24.866c3.787 1.114 7.277 1.708 10.471 1.708 7.425 0 13.292-2.969 17.97-9.13-7.945 4.75-17.525 7.2-28.441 7.422Zm-2.079-6.383c9.95-1.633 19.307-4.528 28.218-8.536-7.797 5.715-17.228 8.536-28.07 8.536h-.148Z" fill="#555962" />
	</g>
	<g data-tooth-number="33" data-jaw="bottom" class="tooth">
		<path d="M403.075 717.843c-.148 2.301-1.114 4.528-1.931 6.532l-.074.149c-.891 2.078-1.856 3.934-3.044 5.641-2.674 3.86-6.016 6.458-9.877 7.72-1.634.519-3.639.816-5.941.816a57.86 57.86 0 0 1-3.787-.148c-4.307-.297-8.466-1.262-12.401-2.747-3.862-1.633-6.015-4.75-6.684-9.649-1.336-6.384-1.559-13.51-.742-21.081 1.114-7.868 4.901-11.653 11.436-11.282 10.99 2.598 20.124 7.126 27.327 13.286 1.931 1.708 3.713 4.231 4.827 6.903.446 1.04.965 2.524.891 3.86Z" fill="#E8ECEF" />
		<path fill-rule="evenodd" clip-rule="evenodd" d="M378.421 738.478c1.114.075 2.451.149 3.787.149 2.377 0 4.307-.297 6.089-.668 3.862-1.262 7.204-3.86 9.877-7.72 1.188-1.707 2.154-3.563 3.045-5.641l.074-.148.157-.384c.779-1.903 1.635-3.993 1.774-6.148.067-1.288-.422-2.575-.846-3.693a47.326 47.326 0 0 1-.12-.316c-1.114-2.672-2.896-5.196-4.827-6.903-7.277-6.161-16.411-10.688-27.401-13.286-6.535-.371-10.322 3.414-11.436 11.282-.817 7.571-.594 14.697.742 21.081.669 4.899 2.822 8.016 6.684 9.649 3.935 1.485 8.094 2.45 12.401 2.746Zm-18.788-33.402c.966-6.903 4.085-10.317 9.506-10.317.297 0 .519 0 .519-.149 10.694 2.598 19.753 6.978 26.808 13.064 1.857 1.633 3.49 3.934 4.53 6.532l.036.091c.437 1.091.927 2.315.855 3.398-.14 1.962-.942 3.924-1.719 5.824l-.137.337-.075.148c-.817 2.004-1.856 3.786-2.97 5.419-2.599 3.711-5.644 6.086-9.283 7.274-1.485.52-3.341.742-5.569.742-1.262 0-2.599-.074-3.713-.148-4.159-.297-8.243-1.188-12.03-2.672-3.416-1.411-5.421-4.306-6.015-8.759-1.263-6.384-1.56-13.361-.743-20.784Zm8.466 26.277c10.916-2.598 20.496-7.868 28.219-16.85-5.421 9.056-14.852 14.697-28.219 16.85Z" fill="#555962" />
	</g>
	<g data-tooth-number="34" data-jaw="bottom" class="tooth">
		<path d="M438.869 694.907c-.966 3.489-3.194 6.606-6.61 9.13-2.005 1.485-4.975 3.415-8.094 4.38-4.604 1.484-8.911 2.226-12.624 2.226-12.995 0-21.164-8.684-24.209-25.756-.742-4.231-1.188-9.576 2.228-13.658 4.01-4.825 10.545-5.493 15.149-5.493h.371c5.793 0 11.733 1.039 17.526 3.118 6.163 2.226 10.248 5.195 12.55 9.13 2.747 4.899 5.421 10.762 3.713 16.923Z" fill="#E8ECEF" />
		<path fill-rule="evenodd" clip-rule="evenodd" d="M387.258 684.812c3.045 17.073 11.213 25.757 24.209 25.757 3.787 0 8.02-.742 12.698-2.152 3.119-.965 6.089-2.895 8.094-4.38 3.416-2.524 5.644-5.641 6.609-9.13 1.708-6.161-.965-12.024-3.787-16.998-2.302-3.934-6.386-6.903-12.55-9.13-5.792-2.078-11.733-3.117-17.525-3.117h-.371c-4.604 0-11.139.668-15.149 5.493-3.416 4.082-2.971 9.427-2.228 13.657Zm17.377-18.037h.371c5.644 0 11.436 1.039 17.08 3.118 5.94 2.078 9.802 4.899 11.955 8.61 2.748 4.751 5.347 10.392 3.713 16.107-.891 3.266-2.97 6.087-6.163 8.462-1.857 1.411-4.753 3.266-7.723 4.231-4.53 1.411-8.688 2.153-12.327 2.153-12.624 0-20.125-8.091-23.095-24.792-.743-4.008-1.114-9.056 1.931-12.767 2.747-3.489 7.351-5.048 14.258-5.122Zm6.757 10.392c-6.386.594-10.545 4.231-12.624 11.134-.148.297 0 .742.372.965 2.005 2.078 3.935 5.344 5.792 9.872-3.119-5.121-6.684-9.501-11.139-12.767a7.939 7.939 0 0 1 3.267 1.188c.372.222.817 0 .966-.371 2.153-6.532 6.312-10.244 12.401-11.134.371 0 .594-.372.446-.743-.372-.965-.372-1.93.074-3.043 0 0 .817 2.746 1.782 3.786 2.154 2.301 12.179 6.086 12.179 6.086-4.679-1.113-9.654-2.523-12.327-4.602-.372-.223-.743-.445-1.189-.371Z" fill="#555962" />
	</g>
	<g data-tooth-number="35" data-jaw="bottom" class="tooth">
		<path d="M463.226 659.204c-.966 2.078-2.377 3.934-4.159 5.567-1.485 1.336-5.347 4.454-9.06 5.419-4.158 1.039-8.094 1.558-11.955 1.558-11.808 0-22.204-4.973-30.967-14.919-2.45-2.747-3.713-6.161-3.713-9.947 0-.742.075-1.484.149-2.301.817-6.309 5.049-13.064 10.545-16.775 4.901-3.266 10.767-4.602 17.079-3.86 7.204.817 14.11 3.86 20.496 6.978 4.753 2.301 8.985 6.829 11.287 12.173 2.377 5.418 2.451 11.282.298 16.107Z" fill="#E8ECEF" />
		<path fill-rule="evenodd" clip-rule="evenodd" d="M407.085 656.903c8.763 9.947 19.159 14.92 30.967 14.92 3.861 0 7.797-.594 11.955-1.559 3.639-.965 7.501-4.082 8.986-5.419 1.782-1.633 3.193-3.488 4.158-5.567 2.228-4.824 2.154-10.688-.223-16.107-2.302-5.344-6.534-9.872-11.287-12.173-6.386-3.117-13.367-6.161-20.496-6.977-6.312-.743-12.178.594-17.079 3.86-5.496 3.711-9.728 10.391-10.545 16.775-.594 4.676.594 8.907 3.564 12.247Zm42.625 12.173c-16.337 4.231-30.446-.148-41.808-12.989-2.747-3.044-3.861-6.978-3.267-11.431.742-6.013 4.752-12.47 10.025-15.959 4.604-3.118 10.322-4.379 16.337-3.637 6.98.816 13.812 3.785 20.124 6.829 4.53 2.227 8.54 6.532 10.768 11.653 2.228 5.048 2.302 10.615.223 15.143-.817 1.93-2.154 3.711-3.862 5.196-1.411 1.261-5.124 4.305-8.54 5.195Zm-15.743-34.292c-3.787.668-6.609 2.226-8.391 4.676-2.525 3.563-3.193 9.204-1.931 16.775 3.416 1.188 6.832 3.118 10.174 5.79-6.238-3.489-12.699-6.013-19.605-7.423h.372c2.673 0 5.272.371 7.871 1.188-1.04-6.31-.743-11.209.891-14.846.223-.445.149-.89-.074-1.187-1.634-2.227-3.862-3.86-6.683-5.048 3.341.891 6.015 2.301 7.723 4.602.089-.09.152-.207.221-.335a2.71 2.71 0 0 1 .15-.258c1.856-2.524 4.604-4.157 8.243-4.899-.891-.891-1.337-1.856-1.337-2.895 2.228 3.414 8.614 6.457 16.337 9.352-6.312-1.707-11.213-3.414-13.961-5.492Z" fill="#555962" />
	</g>
	<g data-tooth-number="36" data-jaw="bottom" class="tooth">
		<path d="M493.523 595.146c.223 4.38-1.262 7.943-3.49 11.877-2.302 4.082-4.752 7.645-7.5 10.837-3.565 4.156-7.575 8.387-12.401 11.06-2.674 1.484-5.421 2.226-7.946 2.301h-.149c-2.302 0-4.604-.668-6.832-1.262-.742-.223-1.411-.371-2.079-.594a73.246 73.246 0 0 1-9.654-3.118c-6.015-2.375-11.287-5.492-16.857-8.833l-.742-.445c-7.5-4.528-8.986-14.548-6.015-21.377 1.039-2.45 2.079-5.27 3.193-8.239 3.342-9.13 7.129-19.522 14.258-25.98.074-.074.223-.148.297-.222l.074-.075c4.678-3.488 11.733-4.75 16.857-5.27 6.238-.594 12.773.297 18.936 2.598 3.045 1.114 5.941 2.598 8.614 4.305 2.377 1.559 5.347 3.415 7.055 6.087.297.519.668.965.965 1.559 1.486 2.746 1.56 5.789 1.708 8.684 0 .891.075 1.782.149 2.672.223 2.301.371 4.602.594 6.903.074.965.297 1.93.445 2.895.223.965.446 2.301.52 3.637Z" fill="#E8ECEF" />
		<path fill-rule="evenodd" clip-rule="evenodd" d="M493.004 591.287c.222 1.262.445 2.524.519 3.859.149 4.38-1.262 7.869-3.564 11.728-2.302 4.157-4.753 7.646-7.5 10.837-3.565 4.157-7.501 8.388-12.402 11.06-2.673 1.485-5.346 2.301-7.945 2.301h-.149c-2.302 0-4.604-.594-6.832-1.262a21.906 21.906 0 0 0-2.079-.593 73.198 73.198 0 0 1-9.654-3.118c-6.015-2.375-11.287-5.493-16.857-8.833l-.742-.445c-7.501-4.528-8.986-14.623-6.015-21.378.837-1.841 1.591-3.893 2.386-6.06.263-.715.53-1.442.807-2.179 3.341-9.13 7.129-19.447 14.258-25.979a1 1 0 0 1 .148-.111c.056-.038.111-.075.149-.112l.074-.074c4.678-3.489 11.733-4.751 16.857-5.27 6.238-.594 12.698.297 18.936 2.598a46.67 46.67 0 0 1 8.614 4.305l.15.095c2.421 1.539 5.306 3.374 6.979 5.992.371.519.668 1.039.965 1.558 1.408 2.674 1.548 5.481 1.686 8.232l.022.453c.038.445.056.891.075 1.336.018.445.037.891.074 1.336.148 2.227.371 4.528.594 6.829.049.643.165 1.287.281 1.93.057.322.115.643.165.965Zm-11.288 25.756c2.673-3.117 5.05-6.606 7.352-10.614 2.079-3.786 3.49-7.126 3.267-11.283-.074-1.187-.297-2.449-.52-3.71v-.001c-.046-.3-.099-.608-.153-.919-.12-.686-.241-1.386-.292-2.05-.112-1.15-.204-2.301-.297-3.451a223.13 223.13 0 0 0-.297-3.452c-.037-.445-.056-.891-.075-1.336a31.462 31.462 0 0 0-.074-1.336c-.074-2.895-.223-5.641-1.559-8.165-.149-.223-.297-.464-.446-.705a21.7 21.7 0 0 0-.445-.705c-1.478-2.321-4.154-4.042-6.389-5.479l-.369-.237a46.53 46.53 0 0 0-8.391-4.157c-4.827-1.781-9.803-2.672-14.778-2.672h-.001c-1.262 0-2.524 0-3.712.149-4.975.445-11.882 1.707-16.337 5.047l-.149.074c0 .046-.028.064-.067.088-.024.015-.053.032-.081.061-6.906 6.309-10.694 16.552-13.961 25.534-.298.795-.586 1.579-.868 2.35-.773 2.108-1.509 4.115-2.325 5.963-2.748 6.309-1.411 15.736 5.569 19.893l.743.445c5.569 3.341 10.768 6.458 16.708 8.759 3.119 1.188 6.312 2.227 9.58 3.043.601.121 1.154.29 1.737.468l.416.126.495.137c1.999.555 4.051 1.125 6.04 1.125h.149c2.376-.074 4.901-.742 7.426-2.152 4.455-2.45 8.094-6.087 12.104-10.838Zm-21.461-48.767c-.965 4.306-.52 8.388 1.337 12.248 5.569-1.93 12.327-2.672 20.644-1.707-6.684-.075-25.694-.075-31.338 13.435l-.148.296c-1.337 4.009-1.188 7.646.52 10.689 6.089-1.633 14.332 1.633 22.575 5.716-4.233-1.782-18.714-7.052-24.135-3.934-3.342 2.004-5.718 5.196-6.46 11.356 2.821.817 5.569 2.376 8.317 4.528-5.644-2.969-11.511-4.825-17.748-4.973 2.896-.52 5.643-.445 8.317.148 1.114-6.16 3.416-10.169 7.054-12.024.297-.149.594-.297.966-.446-1.634-3.117-1.857-6.68-.669-10.614h-1.485c-8.094 0-14.406-1.856-18.713-5.567 3.638 1.93 10.767 5.418 20.495 4.379v-.074c2.822-4.899 6.461-8.462 10.842-10.689-2.005-4.082-2.45-8.461-1.411-13.064.075-.371-.148-.742-.519-.89-2.08-.668-3.713-1.707-5.124-3.192 4.232 2.227 9.356 3.489 15.074 4.082-1.114.075-2.228.149-3.267.149-1.485 0-2.896-.149-4.233-.371-.445-.074-.817.148-.891.519Z" fill="#555962" />
	</g>
	<g data-tooth-number="37" data-jaw="bottom" class="tooth">
		<path d="M516.915 527.452c-.965 3.488-2.97 6.532-4.901 9.575a94.983 94.983 0 0 0-2.822 4.602 60.166 60.166 0 0 0-1.633 3.043c-2.897 5.641-5.941 11.505-11.882 14.178-2.599 1.187-5.569 1.781-8.837 1.781-2.153 0-4.455-.297-6.832-.817-4.084-.89-8.094-2.449-11.881-4.008l-2.896-1.113-1.634-.594c-4.456-1.707-9.06-3.414-12.773-6.606-2.673-2.301-4.604-5.345-5.346-8.462-.669-2.821-.223-6.235 1.336-10.466l.149.074c.668-2.82 1.93-5.121 3.193-7.571.742-1.336 1.485-2.746 2.153-4.231.446-1.113.966-2.227 1.411-3.414 1.486-3.637 2.971-7.497 5.273-10.318 3.936-4.973 8.762-8.387 13.886-10.02 6.981-2.227 15.224-1.337 25.1 2.672 9.951 4.008 16.04 9.204 18.639 15.736 2.302 5.79 1.411 11.876.297 15.959Z" fill="#E8ECEF" />
		<path fill-rule="evenodd" clip-rule="evenodd" d="M480.008 559.74c2.377.52 4.679.817 6.832.817 3.268 0 6.238-.594 8.911-1.782 5.941-2.672 8.986-8.536 11.882-14.177.26-.52.538-1.021.817-1.522.278-.501.557-1.002.817-1.521a149.793 149.793 0 0 1 2.821-4.528l.309-.486c1.832-2.882 3.678-5.786 4.593-9.089 1.113-4.083 2.005-10.17-.298-15.959-2.599-6.532-8.688-11.728-18.639-15.736-9.876-4.009-18.119-4.899-25.099-2.672-5.124 1.633-9.951 5.047-13.887 10.02-2.19 2.754-3.64 6.313-5.055 9.784l-.217.534c-.391 1.041-.839 2.082-1.243 3.023l-.168.391c-.669 1.559-1.411 2.895-2.154 4.231l-.164.309c-1.207 2.267-2.39 4.49-3.029 7.188l-.149-.074c-1.559 4.231-2.005 7.645-1.336 10.466.668 3.117 2.599 6.161 5.272 8.462 3.601 3.095 8.04 4.794 12.369 6.451l.404.155 1.634.594 2.896 1.113c3.787 1.559 7.797 3.118 11.881 4.008Zm-33.417-21.08c-.519-2.45-.148-5.493 1.114-9.204l.223-.149c.594-2.969 1.857-5.418 3.267-7.942.743-1.336 1.486-2.746 2.154-4.305l.167-.389v-.001c.405-.941.853-1.983 1.244-3.025 1.411-3.563 2.896-7.274 5.124-10.02 3.787-4.751 8.391-8.091 13.292-9.65 6.758-2.152 14.704-1.262 24.358 2.672 9.579 3.934 15.52 8.908 17.97 15.143 2.154 5.567 1.337 11.356.223 15.29-.855 3.134-2.735 6.062-4.526 8.851l-.227.354a94.969 94.969 0 0 0-2.821 4.602c-.594 1.039-1.114 2.078-1.634 3.117l-.155.294c-2.845 5.399-5.736 10.885-11.207 13.364-5.198 2.301-10.99 1.781-14.926.891-3.92-.871-7.769-2.38-11.478-3.834l-.255-.1-2.896-1.114-1.634-.594-.077-.029c-4.284-1.624-8.781-3.329-12.324-6.354-2.525-2.153-4.307-4.899-4.976-7.868Zm39.058-37.525c.272.027.545.04.82.04 1.262 0 2.599-.297 3.936-.89-3.342.371-6.461.074-9.431-1.04 1.127.833 2.319 1.407 3.554 1.701-.841 4.535-.476 8.2.967 11.124-4.155 2.843-7.211 6.987-9.105 12.432-6.249 2.031-15.898-1.382-19.922-3.137 7.277 3.711 13.441 5.122 19.456 4.305-.735 2.271-.508 4.361.735 6.163-5.07 4.926-7.419 10.514-7.109 16.575-2.15-.61-4.434-.915-6.77-.915 1.404.032 4.085.754 6.825 1.709l.007.072.169-.01c3.342 1.176 6.734 2.687 7.973 3.709l.101.087c-.032-.029-.066-.057-.101-.087a24.404 24.404 0 0 0-6.88-4.144l-.11-.039c-.45-5.896 1.833-11.367 6.782-16.208 7.28 4.133 15.748 6.305 25.334 6.449-5.941-.668-16.56-1.93-25.397-7.794l-.003.005c-1.14-1.736-1.232-3.723-.219-6.017l.04-.087.034.012.132-.372.239-.518-.049.007c1.877-4.92 4.807-8.771 8.663-11.364 6.684 1.262 13.293 1.113 19.679-.371l-.258.032c-1.988.249-11.14 1.396-19.349-.736l.225-.112c-1.44-2.808-1.763-6.245-.968-10.581Z" fill="#555962" />
	</g>
	<g data-tooth-number="38" data-jaw="bottom" class="tooth">
		<path d="M532.955 460.573c-1.485 3.86-2.45 8.239-2.97 12.99l-.074.519c-.52 5.048-1.04 10.244-4.753 14.252-4.901 5.27-11.362 6.903-17.451 6.903-7.5 0-14.48-2.449-17.525-3.637-3.342-1.336-6.683-2.969-10.025-4.751-.371-.222-.817-.445-1.263-.668-1.336-.668-2.673-1.41-3.861-2.301a16.773 16.773 0 0 1-2.376-2.152c-.594-.742-1.04-1.707-1.337-2.598l-.149-.297a21.407 21.407 0 0 1-1.336-4.528c-.297-1.559-.446-3.192-.52-4.973v-.371c0-1.559-.074-3.192.594-4.677.223-.593.52-1.187.743-1.781.891-2.152 1.782-4.157 2.376-6.383.445-1.633.743-3.341 1.04-4.974.297-1.633.594-3.34 1.039-5.047.891-3.266 2.599-5.79 5.792-8.61 3.194-2.821 6.758-4.825 10.545-5.938a24.884 24.884 0 0 1 6.609-.891c5.941 0 12.922.297 19.753 2.672 1.189.371 2.303.816 3.416 1.336 4.605 2.004 8.466 5.715 10.62 10.095 2.599 5.344 2.97 10.837 1.113 15.81Z" fill="#E8ECEF" />
		<path fill-rule="evenodd" clip-rule="evenodd" d="M490.182 491.526c3.045 1.187 10.025 3.637 17.525 3.637 6.089 0 12.55-1.633 17.377-6.903 3.696-3.99 4.228-9.157 4.745-14.182l.008-.07.074-.519c.52-4.751 1.485-9.13 2.97-12.99 1.931-4.899 1.56-10.392-1.114-15.81-2.153-4.38-6.015-8.091-10.619-10.095a27.093 27.093 0 0 0-3.416-1.336c-6.757-2.376-13.738-2.672-19.679-2.672-2.227 0-4.455.296-6.609.89-3.787 1.114-7.351 3.044-10.545 5.938-3.193 2.821-4.901 5.345-5.792 8.611-.408 1.565-.692 3.131-.965 4.639l-.074.408-.069.378c-.275 1.517-.56 3.088-.971 4.595-.513 1.922-1.246 3.677-2.01 5.505-.122.291-.244.583-.366.879-.112.297-.242.594-.372.891-.13.296-.26.593-.371.89-.608 1.35-.601 2.823-.595 4.251l.001.426v.371c0 1.781.148 3.414.445 4.973a21.484 21.484 0 0 0 1.337 4.528l.149.297c.371.89.817 1.855 1.411 2.598a16.773 16.773 0 0 0 2.376 2.152c1.188.891 2.525 1.633 3.861 2.301l.001.001c.446.222.891.445 1.262.667 3.342 1.782 6.683 3.415 10.025 4.751Zm1.559-58.936a25.352 25.352 0 0 1 6.312-.817c5.867 0 12.699.371 19.308 2.598 1.114.371 2.227.816 3.341 1.262h.001c4.381 1.93 8.02 5.344 10.025 9.501 2.524 5.122 2.896 10.318 1.113 14.92-1.559 4.008-2.524 8.461-3.044 13.286l-.074.52c-.446 5.047-.966 9.798-4.456 13.583-10.396 11.209-28.441 5.122-33.714 2.969-3.267-1.262-6.609-2.894-9.876-4.676-.223-.111-.427-.223-.632-.334-.204-.111-.408-.223-.631-.334a37.71 37.71 0 0 1-3.713-2.227c-.891-.594-1.559-1.262-2.153-1.93-.413-.531-.686-1.155-.967-1.799a35.124 35.124 0 0 0-.221-.502l-.149-.297a24.279 24.279 0 0 1-1.262-4.305 25.34 25.34 0 0 1-.446-4.825v-.371c-.074-1.484-.074-2.969.446-4.231.111-.296.241-.593.371-.89.13-.297.26-.594.371-.891.891-2.078 1.782-4.231 2.451-6.532.386-1.417.661-2.946.921-4.392l.118-.655c.297-1.633.595-3.266 1.04-4.899.817-3.044 2.376-5.419 5.421-8.091 3.045-2.746 6.461-4.602 10.099-5.641Zm10.025 33.105c5.347-1.114 11.511-.891 18.714.816-3.193-.519-10.471-1.039-19.679.594v.074l-.297.223c-4.01 3.266-5.569 7.72-5.124 14.326 0 .222.149.371.371.445 2.228.594 4.159 1.782 5.867 3.563-4.456-2.524-9.134-3.786-14.035-3.414 2.153-.594 4.233-.743 6.089-.52.297 0 .52-.223.52-.52-.297-6.086 1.04-10.391 4.456-13.732a1.931 1.931 0 0 0 .519-1.781c-.371-1.559-.222-3.043.372-4.379.148-.371-.149-.743-.52-.668-2.154.371-4.233.593-6.238.593-5.569 0-10.248-1.558-13.961-4.676 6.015 4.008 15.298 4.676 22.055 2.524.075 0 .223-.074.297-.149 3.565-4.453 4.901-10.391 4.085-17.962h-.297a8.927 8.927 0 0 1-4.085-.965c2.599.445 6.312 0 11.065-1.485-1.782 1.188-3.49 1.93-5.124 2.227a.557.557 0 0 0-.371.519c.742 8.017-.817 14.252-4.901 18.928-1.04 1.262-1.486 2.598-1.411 4.157 0 .816.817 1.41 1.633 1.262Z" fill="#555962" />
	</g>
	<g data-tooth-number="28" data-jaw="top" class="tooth">
		<path d="M536 381.002c-.074 1.93-1.114 4.379-2.97 7.348-1.857 2.821-4.233 4.751-6.906 5.567-2.377.743-4.976 1.04-7.501 1.262l-1.039.075c-2.377.222-4.827.371-7.278.371a83.42 83.42 0 0 1-15.149-1.411l-.817-.148c-2.97-.52-6.089-1.039-8.688-2.895-2.228-1.559-4.01-3.86-5.124-6.829l-.074-.148c-.446-1.114-.594-2.375-.817-3.563a78 78 0 0 0-.445-2.45c-.595-2.078-1.263-4.305-2.154-6.68-.297-.742-.52-1.41-.817-2.153-.668-1.633-1.337-3.266-1.708-5.047-.52-2.227-.445-4.528.149-7.497.965-4.676 3.638-8.759 7.426-11.06.668-.445 1.336-.742 2.079-1.113 2.153-.891 4.604-1.336 6.98-1.782.669-.148 1.337-.222 1.931-.371a108.54 108.54 0 0 1 11.436-1.707c2.451-.223 4.53-.371 6.461-.371 3.564 0 6.683.371 9.505 1.188 4.01 1.187 7.352 3.191 9.876 5.938 1.188 1.336 2.896 3.34 3.639 5.641.668 2.004.371 4.157.074 6.161-.074.371-.074.742-.148 1.039-.594 4.379-.371 8.759.594 13.064.148.742.371 1.484.594 2.227.446 1.855.965 3.563.891 5.344Z" fill="#E8ECEF" />
		<path fill-rule="evenodd" clip-rule="evenodd" d="M534.515 373.654c.148.742.371 1.484.594 2.226l.102.374c.419 1.52.858 3.113.789 4.896-.074 1.93-1.04 4.454-2.97 7.349-1.783 2.746-4.233 4.676-6.906 5.567-2.377.742-4.976 1.039-7.501 1.262l-1.039.074c-2.377.223-4.827.371-7.278.371-4.827 0-9.951-.445-15.149-1.41l-.817-.149c-2.97-.519-6.089-1.113-8.688-2.894-2.228-1.559-3.936-3.86-5.124-6.829l-.074-.149c-.351-.877-.518-1.846-.681-2.798-.045-.257-.089-.512-.136-.765-.074-.816-.223-1.707-.445-2.449-.595-2.078-1.263-4.305-2.154-6.681-.173-.575-.39-1.106-.617-1.661l-.2-.491c-.668-1.633-1.337-3.266-1.708-5.048-.52-2.226-.445-4.527.149-7.496.965-4.751 3.713-8.759 7.426-11.06.668-.371 1.336-.742 2.079-1.039 2.095-.867 4.472-1.312 6.788-1.746l.192-.036c.334-.074.65-.13.966-.185.315-.056.631-.112.965-.186 3.713-.742 7.5-1.336 11.436-1.707 2.451-.223 4.53-.371 6.461-.371 3.564 0 6.683.371 9.505 1.187 4.01 1.114 7.426 3.192 9.876 5.938 1.188 1.337 2.896 3.341 3.639 5.642.668 2.004.371 4.082.074 6.16v.001c-.039.155-.057.332-.077.518a5.547 5.547 0 0 1-.071.521c-.52 4.379-.371 8.758.594 13.064Zm-8.763 19.224c3.119-.965 5.124-3.34 6.312-5.121 1.783-2.747 2.748-5.048 2.822-6.681.068-1.499-.364-2.999-.781-4.441l-.11-.383a26.306 26.306 0 0 1-.594-2.302c-.965-4.453-1.188-8.981-.594-13.435.037-.185.056-.371.074-.556.019-.186.037-.371.074-.557.297-1.93.595-3.86 0-5.641-.742-2.153-2.302-4.008-3.415-5.27-2.377-2.598-5.57-4.528-9.357-5.642-2.748-.816-5.718-1.187-9.208-1.187-1.931 0-3.936.148-6.387.371-3.861.371-7.648.965-11.287 1.707-.334.074-.669.13-1.003.186-.334.055-.668.111-1.002.185l-.192.037c-2.242.434-4.544.879-6.566 1.745-.668.222-1.336.594-1.931.965-3.49 2.152-6.015 5.938-6.906 10.317-.594 2.747-.594 4.899-.148 6.978.325 1.497.879 2.937 1.411 4.319l.222.58c.149.371.279.723.409 1.076.13.352.26.705.408 1.076a86.843 86.843 0 0 1 2.154 6.755c.223.816.371 1.707.52 2.598.148 1.113.371 2.375.742 3.34l.075.148c1.039 2.747 2.599 4.899 4.678 6.31 2.35 1.615 5.282 2.141 8.149 2.655l.094.017.891.148c7.797 1.411 15.223 1.782 22.129 1.039l1.04-.074.973-.115c2.14-.25 4.306-.502 6.304-1.147Zm-27.55-42.086c-.297 6.235 1.708 12.47 6.164 19.002 8.762 1.633 18.119.371 24.357-1.188-4.976 2.004-10.322 3.043-15.966 3.043-2.673 0-5.421-.222-8.169-.668-.891 3.266 1.189 8.759 2.822 13.064 1.263 3.341 2.005 4.825 3.342 5.567-1.782-.371-2.748-1.93-3.416-3.637-.891 1.411-2.079 2.376-3.639 2.376l-1.633.074c.225-.226.709-.377 1.278-.554.929-.29 2.087-.65 2.732-1.525.445-.593.371-1.41.074-2.152a140.044 140.044 0 0 1-2.154-6.977 71.01 71.01 0 0 1-6.609.296c-6.535 0-11.436-2.301-14.109-4.824l.363.226c3.144 1.96 8.204 5.116 20.207 3.188-.223-1.856-.297-3.711-.372-5.567-4.604-6.68-6.683-13.064-6.386-19.522-.26 0-.501.019-.742.038-.242.018-.483.037-.743.037-.116 0-.261.003-.427.006-1.001.021-2.776.058-3.732-.452 4.382 0 8.615-.89 12.773-2.523-2.673 1.558-4.381 2.301-6.015 2.672Z" fill="#555962" />
	</g>
	<g data-tooth-number="27" data-jaw="top" class="tooth">
		<path d="M524.267 323.773c-.52 2.301-1.56 4.602-2.97 6.829-1.04 1.633-3.119 2.45-4.976 3.192-.445.222-.891.371-1.337.519-5.272 2.376-10.767 4.38-16.337 6.013-3.341.965-7.797 2.152-12.327 2.375-.52 0-.965.074-1.485.074-4.084 0-7.797-.816-10.916-2.375-5.273-2.672-9.208-7.794-10.471-13.806a9.24 9.24 0 0 1-.222-2.004c-.075-.817-.075-1.485-.297-2.227-.075-.371-.223-.742-.298-1.039-.297-1.039-.594-2.079-.816-3.192a92.074 92.074 0 0 1-1.114-11.283 48.617 48.617 0 0 1 0-4.676c-.223-6.532 1.93-11.134 6.386-13.658 12.921-6.309 24.431-10.243 35.273-11.876.52-.074.966-.148 1.56-.148 3.861 0 8.02 1.93 10.396 3.563 3.936 2.672 6.832 6.606 7.797 10.54.669 2.598.446 5.196.297 7.719-.148 1.856-.297 3.786-.074 5.716.074.445.074.891.074 1.262.075.89.149 1.707.372 2.523.445 1.559.965 3.415 1.336 5.271.743 4.008.817 7.571.149 10.688Z" fill="#E8ECEF" />
		<path fill-rule="evenodd" clip-rule="evenodd" d="M522.708 307.666c.445 1.559.965 3.414 1.336 5.27.817 4.157.891 7.72.223 10.837a23.868 23.868 0 0 1-2.97 6.829c-1.028 1.614-3.07 2.43-4.909 3.165l-.067.027c-.223.074-.445.167-.668.26-.223.092-.446.185-.668.259-5.273 2.376-10.768 4.38-16.338 6.013-3.341 1.039-7.797 2.152-12.327 2.375h-1.485c-4.084 0-7.797-.817-10.916-2.375-5.272-2.672-9.208-7.868-10.471-13.806-.099-.446-.132-.891-.165-1.336a18.853 18.853 0 0 0-.057-.669c-.018-.189-.031-.375-.044-.556-.043-.601-.082-1.157-.253-1.67a4.33 4.33 0 0 0-.149-.52 4.154 4.154 0 0 1-.148-.52h-.001c-.297-1.039-.594-2.078-.816-3.191a92.074 92.074 0 0 1-1.114-11.283c-.074-1.558-.074-3.117-.074-4.675v-.001c-.223-6.532 1.93-11.134 6.386-13.658 12.921-6.383 24.431-10.243 35.273-11.95.52-.075 1.04-.149 1.56-.149 3.861 0 8.02 1.93 10.396 3.563 3.936 2.672 6.832 6.606 7.797 10.54.62 2.41.473 4.819.33 7.169l-.033.551c-.148 1.93-.297 3.86-.074 5.715 0 .223.019.427.037.631.019.204.037.409.037.631.075.891.149 1.707.372 2.524Zm-2.377 22.268c1.337-2.078 2.302-4.231 2.822-6.458.668-2.969.594-6.235-.445-10.317-.372-1.782-.892-3.637-1.337-5.196-.223-.965-.297-1.856-.371-2.747 0-.371 0-.742-.075-1.187-.222-1.93-.074-3.934.075-5.864.222-2.524.371-4.973-.223-7.348-.891-3.563-3.713-7.349-7.352-9.873-2.228-1.558-6.163-3.34-9.728-3.34-.445 0-.891 0-1.337.074-10.693 1.633-22.129 5.493-34.902 11.802-4.01 2.227-5.94 6.384-5.718 12.619v.001c0 1.558 0 3.117.075 4.601.148 3.786.519 7.571 1.114 11.134.131.923.381 1.787.643 2.697l.099.346c.03.121.073.253.117.393.066.205.136.426.18.647.223.816.297 1.632.371 2.449.024.211.04.414.056.612.034.431.066.837.167 1.244 1.114 5.567 4.901 10.54 9.803 12.989 2.97 1.559 6.46 2.301 10.396 2.301h1.411c4.455-.222 8.762-1.336 12.104-2.301 5.495-1.633 10.916-3.563 16.189-5.938.278-.139.555-.249.851-.366.179-.07.364-.144.56-.228l.063-.024c1.692-.662 3.585-1.402 4.392-2.722Zm-23.805-17.224.042.003c9.728.965 18.119-4.676 20.793-7.348-1.485 1.633-3.193 2.969-4.976 4.157-5.495 3.563-12.03 4.899-18.49 3.859-.743 4.009-2.376 7.869-5.05 11.654 4.307 1.188 8.317 2.969 11.807 5.419.817.519 1.783.816 2.748.742 2.228-.149 5.644.223 7.5.594-6.089-.743-11.064.371-14.777 3.785 1.262-1.781 2.747-2.969 4.529-3.711-3.787-2.746-8.094-4.751-12.846-5.938-5.124-1.262-10.991-1.633-17.303-1.039 0-.817 11.213-1.708 17.154-.149 1.262-1.781 2.376-3.563 3.267-5.567.446-.965.817-1.93 1.114-2.969.021-.102.097-.338.193-.634.252-.78.637-1.971.476-2.187-5.867-6.606-11.659-14.251-8.466-22.119a12.13 12.13 0 0 1-2.302.223 12.37 12.37 0 0 1-3.267-.446c5.379 0 8.493-1.698 11.186-3.167.541-.295 1.064-.58 1.586-.841-.891.965-4.158 3.192-4.752 3.414-.297.075-1.263.668-1.263.668-.128-.064-.699 1.755-.901 2.395l-.064.203a16.179 16.179 0 0 0-.223 2.673c.149 3.34 1.708 6.531 3.565 9.278.544.841 1.155 1.616 1.765 2.392.306.387.611.775.908 1.171.817 1.187 1.708 2.301 3.045 2.895.879.439 1.975.517 3.002.59Z" fill="#555962" />
	</g>
	<g data-tooth-number="26" data-jaw="top" class="tooth">
		<path d="M514.093 261.72c-1.93 5.344-6.237 8.09-10.247 10.169l-1.04.519c-4.827 2.45-9.802 4.973-14.852 6.903a94.185 94.185 0 0 1-8.837 2.895c-.594.149-1.337.371-2.005.668-2.079.668-4.381 1.411-6.386 1.411h-.446c-5.495-.372-10.619-2.301-15.223-5.79l-.074-.074c-6.609-8.611-11.065-16.479-14.035-24.792-2.599-7.349-1.634-15.959 2.45-22.491.669-.965 1.337-1.93 2.154-2.82 11.659-13.064 26.065-20.561 39.58-20.561 3.416 0 6.832.445 10.099 1.41 6.461 1.781 11.362 7.2 12.253 13.361 1.337 9.13 3.862 17.592 7.5 25.014 2.154 4.528.52 10.244-.891 14.178Z" fill="#E8ECEF" />
		<path fill-rule="evenodd" clip-rule="evenodd" d="M470.28 284.285h.446c1.57 0 3.323-.456 5.043-.903.477-.124.95-.247 1.417-.359.669-.297 1.411-.52 2.005-.668a94.675 94.675 0 0 0 8.837-2.895c5.05-1.93 10.025-4.454 14.852-6.903l1.04-.52c4.01-2.078 8.317-4.825 10.248-10.169 1.411-3.934 3.044-9.649.816-14.177-3.638-7.497-6.163-15.885-7.5-25.015-.891-6.161-5.792-11.579-12.253-13.361-3.267-.964-6.683-1.41-10.099-1.41-13.515 0-27.921 7.497-39.58 20.561a20.222 20.222 0 0 0-2.154 2.821c-4.084 6.457-5.049 15.068-2.45 22.416 2.97 8.239 7.426 16.107 14.035 24.718l.074.074c4.604 3.488 9.728 5.418 15.223 5.79Zm0-1.188c-5.272-.297-10.173-2.153-14.555-5.493-6.535-8.462-10.916-16.181-13.886-24.495-2.451-7.051-1.56-15.29 2.376-21.451a17.87 17.87 0 0 1 2.005-2.672c11.436-12.842 25.545-20.19 38.689-20.19 3.342 0 6.609.445 9.803 1.336 6.015 1.707 10.619 6.68 11.436 12.47 1.336 9.278 3.861 17.814 7.648 25.386 2.005 4.156.446 9.575-.891 13.286-1.782 4.899-5.718 7.497-9.654 9.501l-1.039.52c-4.753 2.449-9.654 4.973-14.704 6.903a85.306 85.306 0 0 1-8.688 2.895c-.668.222-1.337.445-2.079.668l-.435.135c-2.043.638-4.293 1.339-6.026 1.201Zm3.936-21.452c3.787 3.415 7.723 5.939 14.035 7.72.743.223 1.559.148 2.154-.149.52-.222 1.039-.445 1.41-.668 1.04-.668 2.08-1.336 3.045-2.152.163-.136.336-.261.515-.392.311-.226.64-.466.97-.796.446-.445.966-.965 1.485-1.187 0 .093-.117.244-.222.381a1.615 1.615 0 0 0-.149.212c-1.262 1.633-2.822 2.895-4.53 4.009-1.93 1.187-3.935 2.226-6.089 3.043-2.079.742-4.233 1.41-6.386 1.707l3.119-1.262c1.892-.549 2.831-.948 4.095-1.484.274-.117.563-.239.88-.371-6.535-1.856-11.584-4.454-15.446-7.943-.297.223-.668.372-1.114.446l-1.336.297c-2.971.668-6.164 1.336-9.209 1.336-2.005 0-5.272-.965-7.054-1.707l4.084.519c3.976.559 6.393.027 9.817-.727.668-.147 1.375-.303 2.139-.461l1.336-.296c2.154-.446 2.599-3.341 2.897-5.642 0-.371.074-.742.148-1.113.594-3.34.965-6.68 1.04-10.021h.074c-.446-.445-.668-.965-.891-1.484l-.074-.223c-.743-1.484-1.783-2.895-3.045-3.934-.743-.594-1.56-1.113-2.376-1.633h-.001c-.52-.297-1.039-.594-1.559-.965-1.262-.816-2.45-1.93-3.787-3.266-.446-.445-.965-1.336-1.485-2.375-.208-.381-.4-.81-.583-1.22-.209-.469-.407-.913-.605-1.23h-.001c-.222-.445-.445-.891-.594-1.336-.05-.135-.105-.269-.159-.405-.187-.462-.377-.934-.435-1.45.112.148.223.278.335.408.111.13.222.26.334.408a26.216 26.216 0 0 1 2.228 3.34c.148.279.287.557.425.833.415.828.818 1.635 1.431 2.359.223.297.52.594.817.891.223.223.594.594.891.742.074-.223.074-.519.074-.816.075-.297.075-.52.075-.817.037-.26.055-.538.074-.816.018-.279.037-.557.074-.817.074-1.113.223-2.227.446-3.266.297-1.336.594-2.598.965-3.86.148-.593.371-1.261.594-1.855.074-.149.13-.297.186-.446.055-.148.111-.297.185-.445.026-.052.071-.177.12-.318.09-.251.196-.552.247-.572-.741.148-1.482.296-2.223.296-.891 0-1.782-.074-2.599-.297l.199-.023c1.203-.141 2.466-.289 3.662-.571 1.845-.409 3.628-1.196 5.347-1.956l.446-.196c-.115.096-.23.196-.347.298-.334.293-.679.595-1.064.815-.326.232-.68.406-1.027.577-.207.102-.412.203-.607.314-.52.297-.965.742-1.188 1.262-1.857 4.528-2.377 9.278-2.377 14.548.669.52 1.337.965 2.08 1.411.891.519 1.708 1.039 2.525 1.707 1.41 1.187 2.599 2.672 3.341 4.379l.074.223c.223.594.52 1.113.892 1.336.294.177.682.166 1.127.155.116-.003.235-.007.358-.007.901 0 1.737-.064 2.629-.133l.193-.015 2.45-.223c2.005-.222 4.01-.519 5.941-.965 1.498-.338 2.965-.802 4.441-1.269.792-.25 1.587-.501 2.391-.735a36.78 36.78 0 0 1 4.084-1.113c.334-.074.687-.149 1.04-.223.352-.074.705-.148 1.039-.223.339-.067.662-.12.977-.17.375-.061.739-.12 1.103-.201-.335.149-.65.279-.966.409-.315.129-.631.259-.965.408-2.673 1.113-5.421 2.004-8.169 2.82-2.673.743-5.346 1.411-8.094 1.856a70.502 70.502 0 0 1-7.946.891h-.52c-.297 0-.668-.074-.965-.149-.148 3.192-.52 6.384-1.04 9.576-.037.185-.055.371-.074.556a5.591 5.591 0 0 1-.074.557c-.223 1.781-.52 3.934-1.708 5.344Z" fill="#555962" />
	</g>
	<g data-tooth-number="25" data-jaw="top" class="tooth">
		<path d="M493.004 188.977c-1.263 4.083-3.491 7.943-6.312 11.06-6.313 7.052-15.521 9.575-22.724 10.986-3.49.668-6.906 1.113-10.025 1.262-2.153.074-3.861.148-5.421.148-2.302 0-4.307-.074-6.089-.297-6.981-.816-13.887-7.051-15.743-14.103-.891-3.266-.446-6.977 1.114-10.095.297-.594.668-1.187 1.039-1.781.817-1.188 1.783-2.227 2.748-3.192.371-.445.817-.817 1.188-1.262a89.722 89.722 0 0 1 5.124-5.27c3.639-3.637 9.357-8.685 16.114-11.505 4.827-2.004 10.619-2.227 16.857-.594 5.495 1.41 11.065 3.86 15.595 6.977 2.97 2.079 5.198 4.454 6.46 7.126 1.783 3.711 1.04 7.274.075 10.54Z" fill="#E8ECEF" />
		<path fill-rule="evenodd" clip-rule="evenodd" d="M486.395 171.237c3.044 2.079 5.198 4.454 6.46 7.126 1.857 3.785 1.114 7.348.074 10.689-1.262 4.082-3.49 7.942-6.312 11.059-6.312 6.978-15.446 9.576-22.723 10.986-3.49.668-6.906 1.113-10.025 1.262l-1.171.041c-1.621.058-2.984.107-4.25.107-2.302 0-4.307-.074-6.089-.297-6.907-.89-13.887-7.051-15.743-14.177-.892-3.266-.446-6.903 1.113-10.095.297-.668.669-1.262 1.04-1.781.817-1.114 1.782-2.153 2.748-3.192.445-.445.817-.817 1.188-1.262 1.498-1.747 3.101-3.337 4.412-4.637.249-.246.487-.482.712-.707 3.638-3.637 9.356-8.685 16.114-11.505 4.827-1.93 10.619-2.153 16.857-.594 5.495 1.336 10.99 3.86 15.595 6.977Zm-.595 28.058c2.748-3.043 4.827-6.755 6.09-10.689.965-2.969 1.633-6.309-.075-9.723-1.188-2.524-3.267-4.751-6.089-6.681-4.455-3.043-9.876-5.493-15.223-6.829-2.673-.668-5.272-1.039-7.723-1.039-3.045 0-5.867.52-8.391 1.559-6.609 2.746-12.105 7.719-15.743 11.282a89.194 89.194 0 0 0-5.124 5.27c-.186.223-.39.427-.594.631a9.31 9.31 0 0 0-.594.631c-.152.165-.306.329-.461.494-.753.804-1.522 1.626-2.139 2.55a11.791 11.791 0 0 0-.965 1.633c-1.411 2.969-1.856 6.383-1.04 9.352 1.708 6.681 8.243 12.544 14.778 13.287 1.708.222 3.713.297 5.941.297 1.234 0 2.514-.047 4.062-.103l1.285-.046c3.118-.148 6.386-.594 9.876-1.262 7.129-1.336 15.966-3.859 22.129-10.614Zm-31.263-14.994c4.159 3.118 6.238 6.977 6.164 11.357 4.381-1.411 9.579-1.188 15.594.519h-2.376c-.371 0-.668 0-1.04-.074-5.346-.742-9.059-.668-12.327.445l-.297.075c-2.525.965-4.752 2.598-7.352 5.047l-2.302 2.078c2.377-3.711 5.273-6.309 8.837-7.719.297-4.379-1.708-8.017-6.015-11.134-3.341 1.856-6.98 2.82-10.916 2.82-.594 0-1.262 0-1.931-.074l2.971-.371c9.282-1.781 13.441-4.973 19.976-12.618l1.856-1.93c-3.193 5.196-6.832 9.055-10.842 11.579Z" fill="#555962" />
	</g>
	<g data-tooth-number="24" data-jaw="top" class="tooth">
		<path d="M469.983 145.851c-.817 3.192-2.599 8.833-5.347 11.506-4.455 4.231-9.95 7.497-16.56 9.649-9.133 3.043-18.564 3.415-27.401 3.415h-1.04c-2.525 0-4.381-1.559-6.164-3.044l-.519-.371c-3.936-3.192-6.461-6.383-7.723-9.798-.669-1.855-1.04-3.785-.966-5.79.075-3.34.966-5.789 2.822-8.164.594-.743 1.188-1.485 1.782-2.301a138.686 138.686 0 0 1 3.045-3.86c3.713-4.528 7.277-8.239 10.768-11.283 2.599-2.227 5.198-4.082 8.094-5.641.891-.52 1.931-.891 3.045-1.113.742-.149 1.559-.297 2.45-.297 2.228-.075 4.604.371 6.758.668l1.188.222c4.01.668 7.5 1.559 10.768 2.747 5.718 2.078 13.069 6.235 15.223 13.658.668 2.969.668 6.235-.223 9.797Z" fill="#E8ECEF" />
		<path fill-rule="evenodd" clip-rule="evenodd" d="M419.561 170.421h1.114c8.837 0 18.268-.446 27.476-3.638 6.535-2.152 12.03-5.418 16.485-9.649 2.748-2.672 4.53-8.313 5.347-11.505.965-3.489.965-6.755.149-9.65-2.154-7.422-9.506-11.505-15.224-13.657-3.267-1.188-6.757-2.079-10.767-2.747l-1.188-.222c-.406-.056-.82-.118-1.239-.18-1.805-.267-3.711-.549-5.519-.489-.891 0-1.708.149-2.451.297-1.113.223-2.153.594-3.044 1.114-2.896 1.559-5.495 3.414-8.095 5.641-3.49 3.043-7.054 6.755-10.767 11.283a137.193 137.193 0 0 0-3.045 3.859 61.476 61.476 0 0 1-1.782 2.301c-1.857 2.376-2.748 4.825-2.822 8.165-.074 2.004.297 3.934.965 5.79 1.263 3.414 3.788 6.606 7.723 9.798l.52.445.031.026c1.773 1.477 3.623 3.018 6.133 3.018Zm16.634-50.475h.52c1.875 0 3.75.325 5.747.671l.416.072 1.189.222c3.935.594 7.351 1.485 10.544 2.672 5.496 2.005 12.476 5.939 14.481 12.916.743 2.672.743 5.715-.149 9.056-.816 3.043-2.45 8.536-5.049 10.985-4.307 4.083-9.728 7.274-16.115 9.353-8.985 2.969-18.342 3.414-27.03 3.414h-1.114c-2.153 0-3.787-1.336-5.495-2.746l-.52-.446c-3.713-3.043-6.164-6.086-7.352-9.278a13.288 13.288 0 0 1-.891-5.344c.074-3.192.817-5.345 2.525-7.497.297-.371.594-.761.891-1.151.297-.389.594-.779.891-1.15.52-.631 1.021-1.262 1.523-1.893.501-.631 1.002-1.262 1.522-1.893 3.713-4.453 7.203-8.09 10.693-11.134 2.525-2.227 5.05-4.008 7.872-5.493a11.104 11.104 0 0 1 2.747-1.039c.595-.148 1.337-.297 2.154-.297Zm-6.906 20.042c6.683 3.711 9.802 8.758 9.357 14.919 4.307-1.707 9.431-1.781 15.446-.297l-1.708.149c-9.06-.223-14.407.445-21.016 6.012l-2.005 2.004c2.228-3.34 4.975-5.789 8.094-7.274.669-6.309-2.376-11.134-9.356-14.845-3.862 1.855-8.02 3.043-12.327 3.637l1.262-.743c9.357-2.746 14.481-5.789 22.278-11.876l2.673-1.93c-3.787 4.38-8.094 7.794-12.698 10.244Z" fill="#555962" />
	</g>
	<g data-tooth-number="23" data-jaw="top" class="tooth">
		<path d="M438.126 107.699c-.446 2.153-1.04 4.008-1.857 5.79-.668 1.41-1.485 2.969-2.599 4.156-.742.817-1.782 1.485-2.747 2.005l-.595.371c-5.049 3.191-10.916 4.676-16.114 5.789a114.561 114.561 0 0 1-11.436 1.93l-1.114.149c-1.856.222-3.787.519-5.643.519-1.263 0-2.377-.148-3.416-.297-3.491-.742-8.02-2.523-10.322-7.125-2.451-4.825-1.634-10.466-.669-15.365 1.708-8.908 6.906-24.421 22.055-28.726 3.713-1.04 8.689-1.262 14.704-.668 4.455.445 8.094 1.559 11.064 3.34 9.357 5.567 10.619 18.111 8.689 28.132Z" fill="#E8ECEF" />
		<path fill-rule="evenodd" clip-rule="evenodd" d="M396.169 128.408c-1.262 0-2.376-.074-3.416-.297-3.416-.742-8.02-2.523-10.322-7.125-2.45-4.825-1.634-10.466-.668-15.365 1.708-8.908 6.906-24.421 22.055-28.652 3.713-1.04 8.688-1.262 14.703-.668 4.456.445 8.095 1.559 11.065 3.34 9.208 5.493 10.471 18.112 8.54 28.058a22.932 22.932 0 0 1-1.782 5.79c-.669 1.41-1.486 2.969-2.525 4.156-.743.817-1.782 1.485-2.748 2.005l-.52.371c-5.049 3.191-10.916 4.676-16.114 5.789a114.561 114.561 0 0 1-11.436 1.93l-1.114.149c-1.931.297-3.861.519-5.718.519Zm16.04-51.365c-3.119 0-5.866.297-8.168.965-14.629 4.083-19.605 19.15-21.239 27.835-.891 4.677-1.707 10.095.595 14.623 2.079 4.157 6.386 5.864 9.579 6.532 2.525.52 5.718.223 8.688-.148l1.114-.149c3.788-.445 7.575-1.113 11.288-1.93 5.049-1.113 10.916-2.524 15.743-5.641l.594-.371c.203-.135.41-.267.616-.398.7-.444 1.393-.885 1.909-1.458.965-1.113 1.782-2.598 2.376-3.86.743-1.707 1.337-3.488 1.708-5.492 1.856-9.576.668-21.675-8.02-26.87-2.822-1.708-6.312-2.747-10.619-3.192-2.228-.297-4.307-.446-6.164-.446Zm7.278 13.955c-3.936-5.047-9.802-7.423-17.525-6.903l.148-.371c8.169-.817 13.293 1.039 17.303 6.754l.074.52Zm8.465 21.674.52-.891c1.411-5.863.446-10.391-3.787-17.146l-.668-.223c3.935 6.458 5.198 12.471 3.935 18.26Z" fill="#555962" />
	</g>
	<g data-tooth-number="22" data-jaw="top" class="tooth">
		<path d="M391.491 83.427c-10.174 9.872-20.051 16.552-30.298 20.561-1.188.445-2.525.668-3.936.668-3.639 0-7.426-1.559-9.728-4.083-1.634-1.781-3.045-4.305-3.787-6.754-.743-2.673-.372-6.087-.075-9.056.075-.52.149-1.04.149-1.559a70.71 70.71 0 0 1 3.49-16.181 61.6 61.6 0 0 1 2.228-5.938c.297-.743.668-1.337.965-2.005.966-1.707 2.525-2.969 4.827-3.86v-.074c.149 0 .223 0 .371-.074.223-.074.372-.148.595-.223.445-.148 1.113-.148 1.782-.074 1.782-.148 3.49-.297 5.198-.297 15.297 0 27.105 7.349 31.115 19.819.074.223.222.445.297.742.891 3.118-1.263 6.235-3.193 8.388Z" fill="#E8ECEF" />
		<path fill-rule="evenodd" clip-rule="evenodd" d="m394.64 74.978.044.135c.891 3.044-1.263 6.161-3.119 8.314-10.174 9.946-20.05 16.627-30.298 20.561-1.188.445-2.525.668-3.936.668-3.638 0-7.426-1.633-9.728-4.083-1.708-1.781-3.044-4.305-3.787-6.754-.752-2.46-.434-5.547-.147-8.338l.073-.718c.037-.26.056-.52.074-.78.019-.26.037-.52.074-.779.52-5.493 1.708-10.911 3.491-16.181.668-2.079 1.336-4.083 2.227-5.938a17.89 17.89 0 0 1 .739-1.56c.078-.152.155-.3.227-.445.965-1.707 2.525-2.969 4.827-3.86v-.074c.074-.074.148-.074.297-.074.111-.037.204-.074.297-.111a4.77 4.77 0 0 1 .297-.111c.445-.149 1.114-.149 1.782-.075 17.748-1.781 31.857 5.716 36.313 19.596.12.18.191.408.253.607Zm-4.412-5.58c.446.371.966.816 1.411 1.262-4.901-9.501-15.297-14.92-28.218-14.92.462.084.924.192 1.373.297.344.08.681.158 1.003.223a50.829 50.829 0 0 1 8.614 2.82c5.421 2.301 10.545 5.567 15.223 9.798l.594.52Zm-29.406 33.476c10.099-3.86 19.827-10.54 29.852-20.264 1.708-1.855 3.639-4.676 3.045-7.348-.554-1.938-2.27-3.488-3.824-4.892l-.335-.304-.594-.52c-4.53-4.156-9.58-7.422-14.852-9.65-2.748-1.187-5.569-2.077-8.466-2.745-1.485-.297-2.97-.594-4.529-.817a14.747 14.747 0 0 0-1.114-.223c-.52-.148-1.114-.222-1.708-.297-.307.035-.628.084-.959.135-.39.06-.793.122-1.195.162-2.079.817-3.564 1.93-4.381 3.415-.371.52-.668 1.187-.966 1.855-.816 1.856-1.559 3.86-2.227 5.864-1.708 5.196-2.896 10.54-3.416 15.96 0 .519-.074 1.038-.149 1.558-.371 2.895-.742 6.235 0 8.684.669 2.302 1.931 4.602 3.49 6.31 2.005 2.227 5.496 3.711 8.837 3.711 1.263 0 2.451-.148 3.491-.594Zm-1.56-40.082c11.51 1.633 20.421 6.31 26.511 14.4-5.644-9.575-14.704-14.177-26.511-14.4Z" fill="#555962" />
	</g>
	<g data-tooth-number="21" data-jaw="top" class="tooth">
		<path d="M346.861 66.948c-.297.594-.594 1.262-.891 1.93-4.753 10.466-11.362 19.002-19.679 25.237-1.857 1.337-3.713 2.302-5.57 2.97a16.193 16.193 0 0 1-5.495.965c-4.53 0-8.985-2.079-13.441-6.161l-.074-.075c-5.867-8.981-9.877-19.892-12.476-33.327-.445-2.376-.817-5.196-.297-8.165.371-1.856.966-5.419 2.822-6.607.223-.148.446-.222.743-.37 21.164-8.908 39.134-6.607 53.318 6.828a4.561 4.561 0 0 1 1.782 1.41c1.337 1.708 1.634 4.083 1.708 6.161.149 3.637-1.114 6.31-2.45 9.204Z" fill="#E8ECEF" />
		<path fill-rule="evenodd" clip-rule="evenodd" d="M347.603 51.51c1.337 1.707 1.634 4.082 1.708 6.16.149 3.712-1.114 6.384-2.45 9.204-.149.334-.297.65-.446.965-.148.316-.297.631-.445.965-4.753 10.466-11.362 19.002-19.679 25.237-3.713 2.672-7.426 4.008-11.065 4.008-4.53 0-9.06-2.078-13.441-6.16l-.074-.075c-5.867-8.981-9.951-19.892-12.476-33.327-.445-2.301-.817-5.122-.297-8.165.297-1.856.966-5.419 2.822-6.607.223-.148.52-.296.743-.37 21.238-8.908 39.134-6.607 53.318 6.754a4.562 4.562 0 0 1 1.782 1.41Zm-6.312-2.821c.52.222 1.114.37 1.782.52-12.549-10.69-28.07-12.916-46.115-6.384 3.565-.223 6.609-.371 9.802-.371 4.753 0 9.283.297 14.258 1.039 4.307.668 8.837 1.633 13.441 2.969 2.228.668 4.53 1.41 6.832 2.227Zm3.639 19.67c.297-.668.594-1.336.891-1.93l.06-.127c1.312-2.768 2.463-5.195 2.316-8.558-.074-1.93-.371-4.082-1.485-5.567-.891-1.187-2.302-1.558-3.861-1.93-.669-.148-1.337-.297-1.931-.52a145.544 145.544 0 0 0-6.832-2.226 108.32 108.32 0 0 0-13.292-2.969c-4.902-.668-9.357-1.04-14.11-1.04-3.861 0-7.574.224-12.253.595-.742.074-1.485.148-2.079.52-1.367.934-1.967 4.098-2.273 5.712l-.029.151c-.52 2.82-.148 5.567.297 7.794 2.525 13.286 6.535 24.05 12.253 32.882 7.574 6.903 15.149 7.572 23.02 2.004 8.169-6.16 14.63-14.474 19.308-24.791Zm-47.898-15.44-1.113.372c14.703-6.161 29.926-4.9 45.001 4.75l.668.52c-14.777-7.497-30.001-9.353-44.556-5.641Z" fill="#555962" />
	</g>
	<g data-tooth-number="11" data-jaw="top" class="tooth">
		<path d="M286.339 58.71c-2.673 13.434-6.832 24.271-12.773 33.179l-.074.074c-4.381 4.008-8.837 6.012-13.292 6.012h-.149c-3.639 0-7.352-1.41-11.065-4.082-8.242-6.31-14.777-14.846-19.456-25.386-.297-.668-.594-1.336-.891-1.93-1.336-2.895-2.599-5.567-2.376-9.278.149-2.078.446-4.454 1.782-6.16a4.562 4.562 0 0 1 1.782-1.411C238.367 41.934 248.17 38 259.16 38c7.5 0 15.52 1.856 24.134 5.567.223.074.52.223.743.371 1.856 1.188 2.451 4.75 2.748 6.68.445 2.97.074 5.716-.446 8.091Z" fill="#E8ECEF" />
		<path fill-rule="evenodd" clip-rule="evenodd" d="M229.605 68.582a48.339 48.339 0 0 0-.891-1.93l-.059-.127c-1.315-2.846-2.536-5.491-2.244-8.93.149-2.077.446-4.453 1.783-6.16a4.562 4.562 0 0 1 1.782-1.41c14.258-13.287 32.229-15.365 53.318-6.31.106.053.201.096.291.137.164.074.308.139.452.235 1.856 1.187 2.451 4.676 2.748 6.606.519 2.969.074 5.79-.372 8.165-2.673 13.36-6.832 24.272-12.772 33.18l-.075.073c-4.381 4.009-8.911 6.087-13.441 6.013-3.638 0-7.351-1.41-11.064-4.083-8.317-6.383-14.852-14.92-19.456-25.46Zm39.432-26.128c3.193.074 6.237.222 9.802.52-18.045-6.607-33.491-4.603-46.19 5.937.594-.148 1.188-.297 1.783-.52 2.302-.816 4.604-1.484 6.906-2.152 4.604-1.262 9.134-2.227 13.441-2.82 4.901-.668 9.431-.965 14.258-.965Zm-40.026 9.5c-1.189 1.485-1.411 3.564-1.56 5.493-.216 3.313.896 5.717 2.182 8.5l.12.26c.297.593.594 1.261.891 1.93 4.604 10.317 10.991 18.704 19.085 24.94 7.797 5.715 15.446 5.121 23.021-1.782 5.792-8.759 9.95-19.522 12.549-32.734.446-2.227.817-4.973.372-7.794l-.067-.359c-.309-1.664-.856-4.609-2.235-5.505-.594-.371-1.337-.445-2.08-.52l-.106-.008c-4.628-.367-8.314-.66-12.146-.66-4.753-.074-9.209.223-14.11.891-4.307.594-8.762 1.559-13.292 2.82-2.302.669-4.604 1.337-6.832 2.153a18.59 18.59 0 0 1-1.931.52 80.4 80.4 0 0 1-.297.074c-1.384.34-2.733.673-3.564 1.782Zm49.605 1.188 1.114.371c-14.629-6.309-29.853-5.195-45.001 4.306l-.669.52c14.778-7.35 30.001-9.056 44.556-5.197Z" fill="#555962" />
	</g>
	<g data-tooth-number="12" data-jaw="top" class="tooth">
		<path d="M231.164 93.819c-.742 2.449-2.153 4.973-3.861 6.754-2.302 2.45-6.09 4.008-9.728 3.934-1.411 0-2.748-.222-3.936-.742-10.174-4.008-20.05-10.837-30.075-20.784-1.931-2.152-4.084-5.344-3.119-8.313.074-.223.148-.52.297-.742 4.604-13.88 18.713-21.23 36.461-19.225.669-.074 1.337-.074 1.783.074.222.075.371.149.594.223.148 0 .222 0 .371.074v.074c2.228.891 3.862 2.227 4.827 3.934.297.594.668 1.262.965 2.005.817 1.93 1.485 3.934 2.228 5.938a75.529 75.529 0 0 1 3.342 16.181c.074.52.074 1.04.148 1.559.223 2.969.52 6.383-.297 9.055Z" fill="#E8ECEF" />
		<path fill-rule="evenodd" clip-rule="evenodd" d="M213.713 103.765c-10.173-4.008-20.05-10.837-30.075-20.784-1.931-2.152-4.084-5.344-3.119-8.239.044-.176.115-.327.18-.466.045-.096.087-.186.117-.276 4.53-13.88 18.714-21.229 36.462-19.225.668-.074 1.336-.074 1.782.075.111.037.204.074.297.11.093.038.186.075.297.112.074.074.148.074.297.074v.075c2.228.89 3.861 2.152 4.753 3.86.148.333.315.667.482 1.002.167.334.334.668.483 1.002.891 1.855 1.559 3.86 2.228 5.938 1.708 5.196 2.896 10.688 3.341 16.181.038.26.056.52.075.78.018.26.037.52.074.779l.023.231c.292 2.914.624 6.222-.172 8.825-.742 2.449-2.227 4.973-3.861 6.754-2.302 2.375-6.089 3.934-9.728 3.934-1.411 0-2.748-.297-3.936-.742Zm-4.084-47.802c.742-.149 1.559-.297 2.376-.446-12.995-.074-23.392 5.27-28.367 14.623.446-.445.965-.89 1.411-1.262l.594-.52c4.753-4.156 9.877-7.422 15.298-9.649 2.821-1.187 5.717-2.078 8.688-2.746Zm-24.247 14.11c-1.554 1.404-3.269 2.954-3.823 4.892-.743 2.524 1.188 5.344 2.747 7.2 9.951 9.872 19.679 16.552 29.704 20.561 1.04.445 2.228.668 3.49.668 3.342 0 6.832-1.411 8.912-3.637 1.559-1.708 2.896-4.009 3.564-6.31.743-2.523.446-5.79.149-8.684-.038-.26-.056-.52-.075-.78-.018-.26-.037-.52-.074-.779-.446-5.418-1.559-10.763-3.267-15.959-.669-2.004-1.337-4.008-2.154-5.864a24.17 24.17 0 0 0-.891-1.93c-.817-1.484-2.302-2.597-4.381-3.414-.743-.148-1.411-.223-2.154-.297-.329.041-.658.105-.974.167-.255.05-.502.097-.734.13-.445.074-.817.148-1.114.223-1.559.222-3.044.52-4.53.816a56.02 56.02 0 0 0-8.465 2.672c-5.347 2.227-10.397 5.419-15.001 9.502l-.594.52-.335.303Zm30.633-7.43c-11.584 1.559-20.495 6.161-26.585 14.178 5.718-9.576 14.852-14.103 26.585-14.178Z" fill="#555962" />
	</g>
	<g data-tooth-number="13" data-jaw="top" class="tooth">
		<path d="M192.624 121.134c-2.377 4.602-6.981 6.309-10.397 7.052-1.039.222-2.153.297-3.416.297-1.856 0-3.787-.297-5.643-.52l-1.114-.149c-3.788-.519-7.649-1.187-11.362-2.078-5.198-1.187-11.065-2.746-16.04-5.938l-.594-.371c-.891-.594-2.005-1.262-2.673-2.078-1.114-1.188-1.857-2.821-2.525-4.231-.817-1.782-1.337-3.638-1.783-5.79-1.782-9.947-.445-22.565 8.837-27.984 3.045-1.781 6.684-2.82 11.139-3.266 6.015-.593 10.991-.297 14.704.743 15.149 4.38 20.198 19.967 21.832 28.874.817 4.973 1.559 10.614-.965 15.439Z" fill="#E8ECEF" />
		<path fill-rule="evenodd" clip-rule="evenodd" d="m173.168 127.889-1.114-.149c-3.788-.519-7.649-1.187-11.362-2.078-5.124-1.188-11.065-2.746-16.04-5.938l-.52-.371c-.125-.084-.254-.168-.386-.254-.808-.53-1.713-1.123-2.287-1.825-1.058-1.127-1.781-2.656-2.423-4.015l-.102-.216a22.924 22.924 0 0 1-1.782-5.789c-1.783-9.947-.446-22.565 8.837-27.984 3.044-1.781 6.683-2.82 11.138-3.266 6.016-.594 10.991-.297 14.704.817 15.149 4.38 20.198 19.967 21.832 28.874.891 4.899 1.634 10.54-.817 15.365-2.376 4.602-6.98 6.309-10.396 7.051-1.04.223-2.154.297-3.416.297-2.153 0-4.01-.222-5.866-.519Zm-16.115-50.697c-4.307.37-7.797 1.41-10.693 3.117-8.763 5.122-10.025 17.221-8.243 26.796.371 2.079.891 3.86 1.708 5.567.594 1.336 1.337 2.821 2.302 3.934.668.668 1.56 1.262 2.451 1.856l.594.371c4.827 3.118 10.619 4.602 15.668 5.79 3.713.816 7.501 1.558 11.288 2.078l1.114.149c2.97.445 6.163.742 8.688.296 3.193-.668 7.5-2.301 9.654-6.457 2.302-4.528 1.559-9.947.743-14.623-1.56-8.61-6.461-23.752-21.016-27.984-2.228-.667-4.975-.964-8.094-1.039-1.794-.143-3.795-.01-5.937.134l-.227.015Zm-1.188 13.583c4.01-4.973 9.877-7.348 17.6-6.754l-.149-.371c-8.094-.891-13.292.965-17.377 6.606l-.074.52Zm-8.763 21.6-.445-.89c-1.411-5.864-.371-10.392 3.861-17.147l.669-.222c-3.936 6.457-5.273 12.47-4.085 18.259Z" fill="#555962" />
	</g>
	<g data-tooth-number="14" data-jaw="top" class="tooth">
		<path d="M170.494 151.419a13.702 13.702 0 0 1-1.04 5.715c-1.336 3.414-3.861 6.532-7.797 9.724l-.52.445c-1.782 1.485-3.713 2.969-6.237 2.969h-1.114c-8.837-.074-18.194-.594-27.328-3.711-6.535-2.227-12.03-5.493-16.411-9.798-2.748-2.672-4.456-8.388-5.273-11.58-.891-3.562-.891-6.828 0-9.649 2.228-7.423 9.58-11.431 15.298-13.509 3.267-1.188 6.757-2.004 10.767-2.672l1.189-.223c2.079-.371 4.529-.742 6.757-.594.891 0 1.708.149 2.451.297 1.039.297 2.079.668 2.97 1.188 2.822 1.558 5.495 3.414 8.02 5.715 3.49 3.118 6.981 6.829 10.694 11.357 1.039 1.262 2.005 2.598 2.97 3.86.594.742 1.188 1.558 1.782 2.301 1.931 2.301 2.748 4.75 2.822 8.165Z" fill="#E8ECEF" />
		<path fill-rule="evenodd" clip-rule="evenodd" d="M110.121 156.689c4.381 4.305 9.876 7.571 16.411 9.798 9.06 3.117 18.491 3.637 27.179 3.637h1.114c2.525 0 4.456-1.485 6.238-2.969l.52-.372c3.936-3.191 6.46-6.309 7.797-9.723a13.707 13.707 0 0 0 1.04-5.716c-.075-3.34-.891-5.789-2.748-8.165-.297-.371-.594-.76-.891-1.15-.297-.39-.594-.78-.891-1.151-.29-.379-.58-.764-.872-1.152a77.239 77.239 0 0 0-2.098-2.707c-3.713-4.603-7.204-8.314-10.694-11.431-2.525-2.301-5.124-4.157-8.02-5.716-.891-.519-1.856-.891-2.97-1.187-.669-.149-1.485-.223-2.377-.297-2.227-.075-4.678.297-6.757.668l-1.188.222c-4.01.668-7.501 1.485-10.768 2.672-5.718 2.079-13.07 6.087-15.297 13.51-.892 2.82-.892 6.086 0 9.649.816 3.192 2.524 8.907 5.272 11.58Zm21.015-36.223 1.189-.223.855-.133c1.683-.266 3.458-.546 5.234-.609h.52c.742 0 1.485.148 2.153.297 1.04.223 1.931.594 2.748 1.039 2.747 1.559 5.346 3.34 7.797 5.567 3.416 3.043 6.906 6.755 10.545 11.283a77.27 77.27 0 0 1 2.099 2.707c.292.388.581.774.871 1.152.297.371.594.761.891 1.151.297.39.594.779.892 1.15 1.633 2.153 2.376 4.38 2.45 7.497 0 1.856-.297 3.637-.965 5.345-1.188 3.191-3.639 6.16-7.426 9.204l-.52.445c-1.708 1.41-3.342 2.747-5.495 2.747h-1.114c-8.689-.075-17.971-.594-26.956-3.638-6.312-2.152-11.733-5.344-15.966-9.501-2.599-2.523-4.233-8.016-4.976-11.059-.816-3.341-.816-6.384 0-9.056 2.08-6.977 9.134-10.763 14.63-12.767 3.118-1.114 6.609-2.004 10.544-2.598Zm14.407 19.225c-6.684 3.637-9.877 8.61-9.505 14.845-4.233-1.707-9.357-1.93-15.521-.445l1.708.148c9.134-.074 14.481.594 21.016 6.235l2.005 2.004c-2.228-3.34-4.901-5.789-8.02-7.348-.594-6.309 2.45-11.134 9.505-14.771a39.17 39.17 0 0 0 12.253 3.785l-1.263-.816c-9.282-2.821-14.406-5.938-22.129-12.099l-2.673-1.93c3.787 4.454 8.02 7.868 12.624 10.392Z" fill="#555962" />
	</g>
	<g data-tooth-number="15" data-jaw="top" class="tooth">
		<path d="M147.622 197.736c-1.931 7.052-8.911 13.212-15.891 14.029-1.783.223-3.788.297-6.09.223-1.559 0-3.267-.075-5.421-.223a86.944 86.944 0 0 1-10.025-1.336c-7.277-1.485-16.337-4.157-22.649-11.208-2.822-3.192-4.975-7.052-6.238-11.134-.965-3.266-1.634-6.829.223-10.615 1.262-2.672 3.49-5.047 6.535-7.051 4.604-3.118 10.173-5.493 15.669-6.829 6.237-1.485 12.104-1.262 16.857.742 6.757 2.895 12.401 8.017 16.04 11.654 1.411 1.41 3.267 3.34 5.124 5.344.371.445.742.816 1.113 1.262.966 1.039 1.931 2.078 2.674 3.266.371.594.742 1.113 1.039 1.781 1.56 3.192 1.931 6.829 1.04 10.095Z" fill="#E8ECEF" />
		<path fill-rule="evenodd" clip-rule="evenodd" d="M87.62 199.221c-2.822-3.192-4.975-7.052-6.238-11.134-.965-3.266-1.633-6.829.223-10.541 1.337-2.672 3.49-5.047 6.535-7.051 4.604-3.044 10.174-5.493 15.669-6.829 6.312-1.559 12.104-1.262 16.857.742 6.757 2.895 12.401 8.017 16.04 11.654 1.485 1.41 3.342 3.34 5.124 5.344.185.223.371.427.557.631.185.204.371.408.557.631l.052.057c.877.949 1.82 1.97 2.621 3.135.371.594.743 1.187 1.04 1.781 1.559 3.118 1.93 6.829 1.039 10.095-1.93 7.052-8.911 13.212-15.891 13.955-1.782.222-3.788.297-6.09.297-1.559 0-3.267-.075-5.421-.223-3.118-.149-6.534-.594-10.025-1.336-7.277-1.485-16.337-4.157-22.649-11.208Zm1.114-27.835c-2.822 1.929-4.901 4.156-6.09 6.606-1.707 3.414-1.113 6.754 0 9.723a29.12 29.12 0 0 0 5.942 10.689c6.015 6.829 14.926 9.353 21.98 10.837 3.416.742 6.758 1.188 9.803 1.336 2.153.149 3.787.223 5.346.223 2.228.074 4.159 0 5.941-.223 6.535-.668 13.07-6.457 14.926-13.138.817-3.043.446-6.383-.965-9.352a11.791 11.791 0 0 0-.965-1.633c-.729-1.092-1.671-2.113-2.548-3.062l-.051-.056c-.446-.445-.817-.816-1.189-1.262-1.782-2.004-3.638-3.86-5.049-5.27-3.565-3.563-9.06-8.61-15.669-11.431-2.525-1.039-5.347-1.633-8.391-1.633-2.451 0-5.05.297-7.723.965-5.347 1.262-10.768 3.637-15.298 6.681Zm31.115 12.395c-4.159 3.118-6.312 6.904-6.238 11.283-4.381-1.41-9.579-1.262-15.817.519h2.376c.371 0 .668 0 1.04-.074 5.346-.668 9.059-.594 12.327.594l.297.074c2.525.965 4.827 2.598 7.352 5.122l2.302 2.078c-2.302-3.711-5.199-6.309-8.763-7.794-.223-4.379 1.782-8.016 6.164-11.059 3.341 1.855 6.98 2.82 10.916 2.895.594 0 1.262 0 1.93-.075l-2.97-.371c-9.282-1.93-13.441-5.121-19.901-12.841l-1.783-2.004c3.193 5.196 6.758 9.13 10.768 11.653Z" fill="#555962" />
	</g>
	<g data-tooth-number="16" data-jaw="top" class="tooth">
		<path d="M132.845 253.183c-3.045 8.314-7.575 16.108-14.258 24.644l-.075.074c-4.604 3.414-9.802 5.344-15.297 5.641h-.371c-2.005 0-4.382-.816-6.461-1.484a32.299 32.299 0 0 1-2.005-.668c-2.97-.817-5.94-1.856-8.763-2.969-5.05-2.005-10.025-4.602-14.777-7.052l-1.04-.52c-3.936-2.078-8.243-4.899-10.174-10.243-1.41-3.934-2.97-9.649-.668-14.177 3.787-7.423 6.386-15.81 7.797-24.94.966-6.235 5.941-11.506 12.402-13.287 3.193-.891 6.46-1.262 9.728-1.262 13.589 0 28.07 7.646 39.729 20.932.742.891 1.485 1.856 2.079 2.821 4.01 6.532 4.827 15.142 2.154 22.49Z" fill="#E8ECEF" />
		<path fill-rule="evenodd" clip-rule="evenodd" d="M96.824 282.274c1.97.636 4.155 1.342 6.02 1.342h.445c5.495-.296 10.694-2.226 15.298-5.641l.074-.074c6.683-8.536 11.287-16.404 14.258-24.643 2.673-7.349 1.856-15.959-2.228-22.491-.594-.965-1.337-1.93-2.079-2.821-11.659-13.286-26.14-20.932-39.73-20.932-3.267 0-6.534.372-9.727 1.262-6.46 1.782-11.436 7.052-12.402 13.287-1.41 9.13-4.01 17.517-7.797 24.94-2.302 4.528-.742 10.243.668 14.177 1.931 5.345 6.238 8.165 10.174 10.244l1.04.519.72.372c4.534 2.338 9.262 4.777 14.057 6.68 2.822 1.113 5.793 2.078 8.763 2.969.594.223 1.262.445 2.005.668l.441.142Zm-17.446-72.959a36.58 36.58 0 0 1 9.43-1.261c13.293 0 27.477 7.496 38.913 20.635a17.939 17.939 0 0 1 2.005 2.672c3.861 6.161 4.678 14.4 2.153 21.451-2.97 8.165-7.426 15.885-14.035 24.273-4.456 3.265-9.357 5.121-14.629 5.418-1.857.149-4.307-.668-6.46-1.41-.3-.09-.588-.192-.869-.292-.414-.146-.813-.288-1.21-.376-2.897-.891-5.868-1.856-8.69-2.969-5.049-2.004-9.95-4.528-14.703-7.052l-1.04-.519c-3.935-2.079-7.797-4.677-9.579-9.65-1.337-3.711-2.822-9.204-.742-13.287 3.787-7.571 6.46-16.107 7.871-25.311.891-5.715 5.57-10.689 11.585-12.322Zm20.05 51.588c-3.788 3.34-7.798 5.79-14.11 7.571-.742.223-1.56.223-2.153-.297-.52-.148-1.04-.445-1.411-.668-.282-.201-.563-.396-.843-.591-.754-.523-1.498-1.04-2.202-1.636a10.104 10.104 0 0 0-.514-.391 7.765 7.765 0 0 1-.971-.796c-.13-.109-.267-.236-.408-.368-.341-.319-.71-.662-1.077-.82 0 .093.117.245.222.382.063.081.121.157.15.212 1.187 1.633 2.747 2.969 4.455 4.082a31.39 31.39 0 0 0 6.089 3.118 30.685 30.685 0 0 0 6.312 1.781l-3.119-1.261c-1.892-.55-2.831-.948-4.096-1.485-.273-.116-.562-.239-.88-.371 6.536-1.782 11.66-4.379 15.521-7.794.297.223.668.371 1.114.445l1.337.297.293.066c2.886.65 5.97 1.345 8.915 1.345 1.931.074 5.272-.891 7.054-1.633l-4.084.445c-4.079.502-6.462-.057-9.926-.869-.635-.149-1.305-.306-2.03-.467l-1.336-.297c-2.151-.445-2.524-3.334-2.821-5.633l-.001-.008a5.743 5.743 0 0 1-.074-.557c-.019-.185-.038-.371-.075-.557-.52-3.34-.817-6.68-.89-10.02h-.075c.446-.446.668-.965.891-1.485l.074-.222c.669-1.559 1.783-2.895 3.045-3.934.743-.594 1.559-1.114 2.376-1.633l.001-.001c.519-.296 1.039-.593 1.559-.964 1.262-.891 2.45-1.93 3.787-3.266.353-.353.705-.984 1.131-1.747.113-.201.23-.412.354-.629.285-.447.526-.962.746-1.433.181-.389.349-.748.517-1.016.222-.446.445-.891.594-1.336.05-.135.105-.27.159-.406.187-.462.377-.934.435-1.45-.112.149-.223.278-.334.408-.112.13-.223.26-.335.409-.816 1.113-1.559 2.152-2.227 3.34-.221.368-.418.737-.612 1.1-.392.734-.773 1.446-1.319 2.092l-.891.89c-.104.078-.216.174-.332.271-.215.184-.44.375-.634.472-.048-.147-.033-.325-.017-.514.009-.099.017-.201.017-.303v-.816c-.037-.26-.055-.539-.074-.817a10.844 10.844 0 0 0-.074-.816c-.048-.358-.088-.716-.128-1.071-.084-.751-.167-1.49-.318-2.195a36.057 36.057 0 0 0-.891-3.86 17.733 17.733 0 0 0-.594-1.856c-.074-.148-.13-.297-.186-.445a4.43 4.43 0 0 0-.185-.446 3.814 3.814 0 0 1-.12-.317c-.092-.26-.203-.573-.251-.573.742.222 1.485.371 2.227.371.891 0 1.708 0 2.599-.223l-.199-.023c-1.203-.141-2.466-.289-3.662-.571-1.931-.519-3.862-1.336-5.718-2.226.115.095.23.196.346.298.334.293.679.595 1.065.815.26.148.538.297.817.445.278.149.557.297.817.446.519.297.965.742 1.188 1.262 1.856 4.527 2.376 9.278 2.302 14.548-.743.52-1.411.965-2.154 1.41-.891.52-1.708 1.039-2.525 1.708-1.41 1.113-2.599 2.672-3.341 4.305l-.075.222c-.222.594-.52 1.114-.89 1.336-.295.177-.683.167-1.128.155a13.692 13.692 0 0 0-.358-.006c-.633 0-1.234-.064-1.845-.129-.32-.034-.644-.068-.977-.094l-2.45-.222c-1.931-.223-3.936-.594-5.867-1.04-2.302-.593-4.53-1.336-6.757-2.078a36.616 36.616 0 0 0-4.085-1.113 77.247 77.247 0 0 0-1.04-.223 97.104 97.104 0 0 1-1.039-.223c-.339-.067-.662-.12-.977-.171-.375-.06-.739-.119-1.102-.2.509.17.974.382 1.463.605.153.07.308.141.468.212 2.599 1.113 5.346 2.078 8.094 2.894 2.673.817 5.346 1.411 8.094 1.93 2.6.446 5.273.817 7.946.965h.52c.297 0 .668-.074.965-.148.074 3.192.371 6.383.891 9.575.037.186.056.371.074.557.019.185.038.371.075.556.222 1.782.52 4.009 1.708 5.419Z" fill="#555962" />
	</g>
	<g data-tooth-number="17" data-jaw="top" class="tooth">
		<path d="M112.646 301.505c0 1.559 0 3.118-.074 4.676-.149 3.86-.594 7.646-1.189 11.283-.222 1.113-.519 2.152-.816 3.192-.075.371-.223.668-.297 1.039-.223.668-.223 1.41-.297 2.227-.075.668-.075 1.336-.223 2.004-1.337 5.938-5.273 11.06-10.545 13.657-3.193 1.559-6.832 2.302-10.99 2.302-.52 0-.966 0-1.486-.075-4.53-.222-8.985-1.41-12.327-2.449A119.891 119.891 0 0 1 58.14 333.2c-.371-.223-.89-.371-1.336-.594-1.857-.742-3.936-1.559-4.976-3.266-1.41-2.227-2.376-4.528-2.896-6.829-.668-3.117-.594-6.68.297-10.837.371-1.855.966-3.711 1.411-5.27.223-.816.297-1.633.371-2.524.075-.445.075-.816.149-1.261.223-1.856.074-3.786 0-5.716-.149-2.524-.297-5.122.371-7.719 1.04-3.86 3.936-7.794 7.872-10.466 2.376-1.633 6.535-3.489 10.396-3.489.52 0 1.04.074 1.56.148 10.767 1.782 22.277 5.79 35.124 12.248 4.307 2.672 6.461 7.274 6.164 13.88Z" fill="#E8ECEF" />
		<path fill-rule="evenodd" clip-rule="evenodd" d="M51.753 329.414c-1.41-2.226-2.376-4.527-2.896-6.828-.668-3.118-.594-6.681.297-10.689.445-1.856.965-3.711 1.41-5.27.224-.817.298-1.633.372-2.524.037-.223.056-.427.075-.631.018-.204.037-.408.074-.631.222-1.93.148-3.86 0-5.715-.149-2.524-.297-5.122.371-7.72.965-3.934 3.936-7.794 7.871-10.466 2.377-1.633 6.535-3.488 10.397-3.488.594 0 1.114.074 1.56.148 10.767 1.781 22.277 5.79 35.124 12.247 4.456 2.524 6.535 7.2 6.238 13.732 0 1.559 0 3.118-.074 4.677-.149 3.859-.52 7.645-1.188 11.282-.223 1.114-.52 2.153-.817 3.192-.03.12-.073.253-.117.392a5.966 5.966 0 0 0-.18.647c-.149.742-.223 1.41-.297 2.227-.075.668-.149 1.336-.297 2.004-1.263 5.938-5.273 11.06-10.545 13.658-3.194 1.559-6.906 2.375-10.99 2.301-.26 0-.502-.019-.743-.037a9.262 9.262 0 0 0-.743-.037c-4.53-.223-8.985-1.411-12.327-2.45-5.495-1.707-10.99-3.711-16.263-6.161a10.84 10.84 0 0 0-.668-.297 9.736 9.736 0 0 1-.669-.297c-1.856-.742-3.935-1.633-4.975-3.266Zm-.227-22.364c-.427 1.492-.909 3.174-1.258 4.921-.891 4.083-.965 7.349-.371 10.169.52 2.227 1.41 4.38 2.747 6.532.891 1.336 2.748 2.153 4.456 2.821.195.084.38.157.56.228.295.117.573.227.85.366 5.199 2.375 10.62 4.453 16.115 6.086 3.342 1.039 7.723 2.227 12.104 2.45.446.074.965.074 1.41.074h.001c3.936.074 7.5-.668 10.47-2.153 4.902-2.449 8.764-7.348 9.952-12.915.101-.407.133-.813.167-1.244.016-.198.032-.401.055-.612.075-.816.149-1.633.372-2.449a6.25 6.25 0 0 1 .117-.393c.065-.205.136-.426.18-.646.371-1.04.594-2.005.817-3.044.594-3.563 1.039-7.348 1.188-11.134.074-1.484.074-3.043.074-4.602.223-6.235-1.559-10.392-5.644-12.693-12.772-6.383-24.134-10.317-34.827-12.099a7.383 7.383 0 0 0-1.337-.148c-3.639-.074-7.5 1.707-9.802 3.266-3.64 2.449-6.535 6.235-7.426 9.798-.59 2.361-.448 4.796-.3 7.304l.003.044c.148 1.93.222 3.86 0 5.864-.075.371-.149.817-.149 1.188-.074.891-.148 1.781-.445 2.746l-.08.275Zm25.146 4.77-.042.003c-9.728.816-18.12-4.899-20.644-7.423 1.41 1.559 3.119 2.969 4.901 4.157 5.495 3.637 12.03 5.047 18.49 4.008.669 4.008 2.228 7.868 4.902 11.654a38.544 38.544 0 0 0-11.807 5.27c-.817.593-1.783.816-2.748.742-2.228-.149-5.644.148-7.5.519 6.089-.742 11.139.372 14.777 3.86-1.262-1.781-2.822-3.043-4.53-3.785 3.862-2.747 8.169-4.677 12.922-5.79 5.198-1.262 10.99-1.559 17.302-.891 0-.816-11.139-1.781-17.154-.297-1.188-1.781-2.302-3.563-3.193-5.567-.446-1.039-.817-2.004-1.114-3.043l-.03-.091c-.199-.59-.848-2.524-.638-2.804 5.94-6.458 11.807-14.029 8.688-21.971a10.76 10.76 0 0 0 2.228.223c1.04 0 2.153-.074 3.267-.371-5.47-.126-8.544-1.848-11.251-3.364a56.33 56.33 0 0 0-1.447-.793c.817 1.039 4.084 3.266 4.678 3.489.297.148 1.263.742 1.263.742.128-.064.7 1.754.9 2.394l.065.204c.149.89.223 1.781.223 2.672-.149 3.414-1.782 6.532-3.639 9.278-.526.746-1.078 1.439-1.626 2.127-.38.476-.757.95-1.121 1.436-.892 1.114-1.783 2.227-3.12 2.821-.878.439-1.974.517-3.002.591Z" fill="#555962" />
	</g>
	<g data-tooth-number="18" data-jaw="top" class="tooth">
		<path d="M98.24 363.633c-.446 1.781-1.114 3.414-1.782 5.047-.298.743-.595 1.411-.817 2.153-.892 2.375-1.634 4.528-2.154 6.68-.223.743-.371 1.633-.52 2.45-.222 1.188-.371 2.449-.817 3.563l-.074.148c-1.188 2.969-2.896 5.196-5.198 6.755-2.6 1.781-5.718 2.301-8.688 2.821l-.817.148c-5.198.891-10.322 1.336-15.15 1.262-2.45 0-4.9-.149-7.277-.446l-1.04-.148c-2.524-.297-5.123-.594-7.5-1.336-2.673-.891-5.05-2.895-6.831-5.641-1.857-2.969-2.897-5.419-2.897-7.349-.074-1.781.446-3.488.966-5.196.223-.742.445-1.484.594-2.226.965-4.306 1.262-8.685.668-13.064-.074-.372-.074-.743-.148-1.04-.297-2.078-.594-4.156.148-6.16.817-2.301 2.45-4.306 3.713-5.642 2.525-2.746 5.941-4.75 9.951-5.864 2.822-.816 5.94-1.187 9.505-1.113 1.931 0 4.01.149 6.46.445 3.937.446 7.724 1.04 11.437 1.856.668.149 1.262.297 1.93.371 2.377.446 4.828.965 6.981 1.856.743.297 1.41.668 2.08 1.113 3.712 2.376 6.386 6.384 7.277 11.134.445 2.821.52 5.196 0 7.423Z" fill="#E8ECEF" />
		<path fill-rule="evenodd" clip-rule="evenodd" d="M39.426 387.089c-1.857-2.969-2.822-5.419-2.896-7.349-.067-1.661.343-3.203.749-4.732l.142-.538c.223-.742.446-1.484.594-2.227a38.634 38.634 0 0 0 .668-13.064c-.039-.155-.057-.332-.077-.518-.017-.168-.036-.344-.071-.521l-.039-.345c-.215-1.905-.443-3.926.187-5.816.817-2.301 2.525-4.305 3.713-5.641 2.525-2.746 5.941-4.75 9.951-5.864 2.822-.816 5.94-1.113 9.505-1.113l.155.006c1.887.072 3.92.15 6.306.439 3.936.446 7.797 1.039 11.436 1.856.594.074 1.262.223 1.93.371 2.377.445 4.828.965 6.981 1.856.743.297 1.411.668 2.08 1.113 3.712 2.375 6.311 6.384 7.277 11.134.594 2.969.594 5.27.074 7.497-.445 1.781-1.114 3.414-1.782 5.047-.149.372-.279.724-.409 1.077-.13.352-.26.705-.408 1.076a97.19 97.19 0 0 0-2.154 6.68c-.222.743-.37 1.559-.52 2.45-.148 1.188-.37 2.449-.816 3.563l-.075.148c-1.188 2.969-2.97 5.196-5.198 6.755-2.55 1.748-5.6 2.281-8.52 2.791l-.168.03-.817.148c-5.198.891-10.322 1.336-15.149 1.262-2.45 0-4.901-.149-7.277-.446l-1.04-.148c-2.525-.223-5.124-.52-7.5-1.336-2.674-.891-5.05-2.821-6.832-5.641Zm-1.001-11.864c-.417 1.442-.85 2.941-.781 4.441.074 1.707.965 4.008 2.673 6.68 1.114 1.782 3.119 4.157 6.238 5.196 2.03.72 4.234.979 6.407 1.233l.87.103 1.04.149c6.906.816 14.332.519 22.13-.817l.89-.148c2.897-.445 5.867-.965 8.243-2.598 2.08-1.41 3.639-3.489 4.753-6.235l.074-.149c.365-.79.53-1.73.701-2.697.038-.213.076-.428.116-.643.148-.891.297-1.781.52-2.598.594-2.152 1.336-4.305 2.228-6.754.172-.576.39-1.106.617-1.661l.2-.492c.668-1.633 1.336-3.266 1.707-4.899.52-2.078.446-4.231-.074-7.051-.817-4.454-3.342-8.24-6.758-10.392-.593-.446-1.262-.742-1.93-1.039-2.08-.817-4.456-1.336-6.758-1.782-.668-.074-1.337-.222-2.005-.371a132.706 132.706 0 0 0-11.287-1.781c-2.45-.297-4.456-.446-6.387-.446-3.49 0-6.46.371-9.208 1.114-3.787 1.039-6.98 2.969-9.356 5.567-1.114 1.187-2.674 3.117-3.416 5.196-.595 1.707-.372 3.711-.075 5.641.037.185.056.371.075.556.018.186.037.372.074.557a39.05 39.05 0 0 1-.743 13.435c-.111.371-.223.761-.334 1.151-.111.389-.223.779-.334 1.15l-.11.384Zm36.2-25.472c.297 6.309-1.782 12.544-6.312 19.002-8.837 1.633-18.194.297-24.283-1.336 4.901 2.078 10.248 3.117 15.892 3.191 2.673 0 5.42-.148 8.168-.593.864 3.167-1.135 8.428-2.746 12.67l-.15.393c-1.262 3.341-2.005 4.825-3.342 5.567 1.783-.371 2.748-1.929 3.416-3.637.817 1.411 2.005 2.376 3.565 2.376l1.633.074c-.26-.261-.782-.431-1.378-.626-.93-.304-2.043-.667-2.632-1.527-.445-.594-.37-1.41-.074-2.152.743-2.004 1.485-4.305 2.228-6.978 2.376.223 4.604.372 6.61.372 6.534 0 11.51-2.227 14.183-4.751l-.482.282c-3.216 1.894-8.297 4.887-20.163 2.91.223-1.856.372-3.712.446-5.567 4.604-6.606 6.758-12.99 6.535-19.448l.173.025c.448.065.85.124 1.312.124.116 0 .26.003.427.006 1 .021 2.776.058 3.732-.452-4.307-.074-8.54-.965-12.699-2.672 2.6 1.559 4.307 2.375 5.941 2.747Z" fill="#555962" />
	</g>
</svg>
