<?xml version="1.0" encoding="utf-8"?>
<!DOCTYPE svg PUBLIC "-//W3C//DTD SVG 20010904//EN" "http://www.w3.org/TR/2001/REC-SVG-20010904/DTD/svg10.dtd">
<svg version="1.0" xmlns="http://www.w3.org/2000/svg" width="66pt" height="66pt" viewBox="0 0 66 66" style="" preserveAspectRatio="xMidYMid meet">
	<g fill="#fff" stroke="#fff">
		<path d="M 24.176 7.589 C 22.928 8.463 21.261 8.931 20.472 8.628 C 18.292 7.791 8.928 13.060 7.930 15.684 C 7.042 18.019 7.515 20.474 9.295 22.771 C 9.836 23.470 10.436 25.784 10.628 27.913 C 10.820 30.042 13.032 36.328 15.543 41.881 C 20.051 51.850 20.087 52.010 18.305 54.458 C 16.968 56.295 15.560 56.945 12.872 56.969 C 8.499 57.006 6.113 59.226 8.000 61.500 C 9.037 62.749 12.882 63.000 31.000 63.000 C 49.118 63.000 52.963 62.749 54.000 61.500 C 54.993 60.303 54.993 59.697 54.000 58.500 C 53.315 57.675 52.381 57.000 51.923 57.000 C 51.169 57.000 46.000 52.306 46.000 51.621 C 46.000 51.463 47.371 51.333 49.048 51.333 C 53.042 51.333 55.110 49.125 55.570 44.366 C 56.196 37.890 56.538 36.603 58.374 33.817 C 60.252 30.967 59.713 28.667 56.555 26.045 C 55.700 25.336 55.000 23.790 55.000 22.610 C 55.000 21.430 53.870 18.801 52.488 16.767 C 49.182 11.902 43.747 10.243 38.414 12.471 C 33.827 14.388 33.000 14.386 33.000 12.455 C 33.000 10.843 28.699 6.000 27.268 6.000 C 26.815 6.000 25.424 6.715 24.176 7.589 M 48.883 14.631 C 51.056 16.153 54.000 21.557 54.000 24.025 C 54.000 24.669 53.094 24.479 51.777 23.557 C 48.917 21.553 48.408 21.592 46.000 24.000 C 43.379 26.621 43.474 27.608 46.628 30.531 C 49.022 32.750 49.147 33.230 48.037 35.912 C 47.366 37.531 46.176 39.102 45.393 39.403 C 42.797 40.399 41.805 44.903 43.454 48.208 C 44.815 50.936 44.772 51.527 42.951 55.096 C 41.722 57.505 40.253 59.000 39.114 59.000 C 37.542 59.000 37.194 57.952 36.762 51.913 C 35.807 38.569 30.190 38.607 29.235 51.964 C 28.769 58.468 28.541 59.076 26.665 58.801 C 23.892 58.395 12.092 33.300 12.037 27.691 C 12.017 25.596 12.412 24.137 12.916 24.448 C 14.873 25.657 18.989 22.963 20.421 19.535 C 22.155 15.384 23.537 15.021 24.407 18.487 C 25.300 22.042 29.275 24.458 31.910 23.048 C 34.438 21.695 36.172 18.611 35.455 16.744 C 34.183 13.429 44.785 11.760 48.883 14.631 M 22.000 56.000 C 22.000 56.550 22.900 57.900 24.000 59.000 L 26.000 61.000 17.500 61.000 C 12.500 61.000 9.000 60.588 9.000 60.000 C 9.000 59.450 11.505 59.000 14.567 59.000 C 19.680 59.000 20.083 58.837 19.500 57.000 C 19.050 55.581 19.320 55.000 20.433 55.000 C 21.295 55.000 22.000 55.450 22.000 56.000 M 47.500 57.000 C 46.959 58.703 47.320 59.000 49.933 59.000 C 51.620 59.000 53.000 59.450 53.000 60.000 C 53.000 60.564 50.167 61.000 46.500 61.000 L 40.000 61.000 42.000 59.000 C 43.100 57.900 44.000 56.550 44.000 56.000 C 44.000 55.450 44.930 55.000 46.067 55.000 C 47.680 55.000 47.995 55.440 47.500 57.000 M 35.855 57.500 C 36.062 58.600 36.742 59.831 37.366 60.235 C 37.990 60.639 36.025 60.941 33.000 60.906 C 29.975 60.871 28.063 60.615 28.750 60.338 C 29.438 60.060 30.000 59.046 30.000 58.083 C 30.000 57.121 30.319 56.014 30.709 55.624 C 32.065 54.268 35.482 55.513 35.855 57.500 M 34.807 48.828 C 35.076 52.472 34.855 53.000 33.057 53.000 C 31.339 53.000 31.000 52.369 31.000 49.167 C 31.000 42.409 34.313 42.115 34.807 48.828 " />
	</g>
	<g fill="#fff" stroke="#fff">
		<path d="M 6.250 43.641 C 3.600 46.502 3.489 47.000 5.500 47.000 C 6.325 47.000 7.007 47.338 7.015 47.750 C 7.024 48.163 7.413 49.103 7.880 49.840 C 8.542 50.884 9.331 50.578 11.455 48.455 C 13.578 46.331 13.884 45.542 12.840 44.880 C 12.103 44.413 11.163 44.024 10.750 44.015 C 10.338 44.007 10.000 43.325 10.000 42.500 C 10.000 40.441 8.905 40.774 6.250 43.641 M 10.554 45.087 C 11.584 46.755 9.267 48.667 7.887 47.287 C 6.733 46.133 7.455 44.000 9.000 44.000 C 9.485 44.000 10.184 44.489 10.554 45.087 M 10.000 46.000 C 10.000 46.550 9.550 47.000 9.000 47.000 C 8.450 47.000 8.000 46.550 8.000 46.000 C 8.000 45.450 8.450 45.000 9.000 45.000 C 9.550 45.000 10.000 45.450 10.000 46.000 " />
	</g>
	<g fill="#fff" stroke="#fff">
		<path d="M 54.250 8.641 C 51.600 11.502 51.489 12.000 53.500 12.000 C 54.325 12.000 55.007 12.338 55.015 12.750 C 55.024 13.163 55.413 14.103 55.880 14.840 C 56.542 15.884 57.331 15.578 59.455 13.455 C 61.578 11.331 61.884 10.542 60.840 9.880 C 60.103 9.413 59.163 9.024 58.750 9.015 C 58.338 9.007 58.000 8.325 58.000 7.500 C 58.000 5.441 56.905 5.774 54.250 8.641 M 58.554 10.087 C 59.584 11.755 57.267 13.667 55.887 12.287 C 54.733 11.133 55.455 9.000 57.000 9.000 C 57.485 9.000 58.184 9.489 58.554 10.087 M 58.000 11.000 C 58.000 11.550 57.550 12.000 57.000 12.000 C 56.450 12.000 56.000 11.550 56.000 11.000 C 56.000 10.450 56.450 10.000 57.000 10.000 C 57.550 10.000 58.000 10.450 58.000 11.000 " />
	</g>
	<g fill="#fff" stroke="#fff">
		<path d="M 15.170 31.059 C 16.610 35.190 21.208 44.012 20.611 41.500 C 19.747 37.863 15.513 28.034 14.802 28.017 C 14.418 28.008 14.584 29.376 15.170 31.059 " />
	</g>
	<g fill="#fff" stroke="#fff">
		<path d="M 40.000 16.000 C 38.875 16.727 39.382 16.973 42.027 16.985 C 43.968 16.993 46.555 17.701 47.777 18.557 C 49.000 19.413 50.000 19.649 50.000 19.082 C 50.000 17.926 44.805 14.992 42.800 15.015 C 42.085 15.024 40.825 15.467 40.000 16.000 " />
	</g>
</svg>
