<?xml version="1.0" encoding="utf-8"?>
<!DOCTYPE svg PUBLIC "-//W3C//DTD SVG 20010904//EN" "http://www.w3.org/TR/2001/REC-SVG-20010904/DTD/svg10.dtd">
<svg version="1.0" xmlns="http://www.w3.org/2000/svg" width="66pt" height="66pt" viewBox="0 0 66 66" style="" preserveAspectRatio="xMidYMid meet">
<g fill="#fff" stroke="#fff">
<path d="M 55.723 39.775 C 52.025 43.501 49.000 47.403 49.000 48.446 C 49.000 51.948 46.251 53.843 41.999 53.273 C 36.540 52.541 33.531 53.539 32.167 56.533 C 29.734 61.873 34.825 65.285 42.835 63.683 C 45.995 63.051 48.272 59.237 46.925 56.831 C 46.317 55.744 46.789 54.608 48.527 52.974 C 49.883 51.701 51.307 50.973 51.691 51.357 C 52.075 51.742 55.227 49.244 58.695 45.807 C 63.883 40.665 65.000 38.977 65.000 36.279 C 65.000 34.286 64.499 33.000 63.723 33.000 C 63.021 33.000 59.421 36.049 55.723 39.775 "/></g>
<g fill="#fff" stroke="#fff">
<path d="M 1.000 8.845 C 1.000 14.206 1.396 16.049 2.829 17.345 C 3.835 18.255 5.129 19.000 5.706 19.000 C 6.283 19.000 7.329 19.692 8.031 20.537 C 8.732 21.382 10.042 21.949 10.940 21.797 C 11.839 21.645 13.794 22.479 15.284 23.651 C 17.511 25.403 17.886 26.319 17.390 28.799 C 16.696 32.271 19.135 34.300 22.838 33.332 C 26.152 32.466 25.406 30.969 22.000 31.650 C 19.072 32.236 19.000 32.156 19.000 28.299 C 19.000 25.428 18.348 23.736 16.612 22.105 C 15.239 20.815 14.418 19.117 14.681 18.111 C 14.933 17.148 14.433 15.774 13.570 15.058 C 12.706 14.341 12.000 13.231 12.000 12.590 C 12.000 11.348 2.921 2.000 1.716 2.000 C 1.322 2.000 1.000 5.080 1.000 8.845 M 7.834 14.620 C 6.390 16.065 4.711 16.940 4.104 16.564 C 3.497 16.189 3.000 13.329 3.000 10.208 L 3.000 4.533 6.730 8.264 L 10.461 11.994 7.834 14.620 M 12.812 17.265 C 13.210 19.331 10.324 20.724 8.800 19.200 C 7.276 17.676 8.669 14.790 10.735 15.188 C 11.693 15.372 12.628 16.307 12.812 17.265 "/></g>
<g fill="#fff" stroke="#fff">
<path d="M 11.559 28.250 C 11.941 29.488 12.913 31.797 13.720 33.381 C 14.527 34.966 15.852 41.034 16.665 46.865 C 18.264 58.341 19.012 60.000 22.587 60.000 C 25.711 60.000 26.457 58.279 28.437 46.500 C 30.240 35.776 30.771 34.621 33.644 35.163 C 35.089 35.435 35.822 37.174 36.955 43.007 C 37.755 47.128 38.570 49.739 38.766 48.810 C 39.871 43.581 36.012 33.000 33.000 33.000 C 30.292 33.000 28.823 36.325 27.122 46.310 C 25.144 57.924 24.053 60.154 21.225 58.370 C 19.963 57.574 19.084 54.391 17.918 46.393 C 17.044 40.401 15.335 33.363 14.118 30.750 C 11.808 25.789 10.365 24.379 11.559 28.250 "/></g>
<g fill="#fff" stroke="#fff">
<path d="M 17.079 7.201 C 12.910 9.438 13.664 10.915 17.905 8.817 C 21.522 7.028 22.444 6.956 27.454 8.077 C 31.824 9.055 34.147 9.061 38.409 8.108 C 42.906 7.101 44.411 7.145 47.331 8.365 C 54.877 11.518 56.585 20.675 51.640 31.474 C 50.188 34.646 49.015 38.425 49.033 39.871 C 49.058 41.899 49.491 41.358 50.929 37.500 C 51.954 34.750 53.495 30.700 54.353 28.500 C 57.642 20.064 55.664 11.447 49.516 7.418 C 47.440 6.058 45.722 5.866 40.718 6.436 C 32.721 7.346 32.593 7.347 25.500 6.564 C 21.354 6.106 18.752 6.303 17.079 7.201 "/></g>




</svg>
