<?xml version="1.0" encoding="utf-8"?>
<!DOCTYPE svg PUBLIC "-//W3C//DTD SVG 20010904//EN" "http://www.w3.org/TR/2001/REC-SVG-20010904/DTD/svg10.dtd">
<svg version="1.0" xmlns="http://www.w3.org/2000/svg" width="372pt" height="272pt" viewBox="0 0 372 272" style="" preserveAspectRatio="xMidYMid meet">

<g fill="#fff" stroke="#fff">
<path d="M 123.500 2.657 C 106.365 6.313 93.574 16.649 85.577 33.302 C 79.951 45.015 77.466 54.405 75.942 69.697 C 73.057 98.660 80.388 138.414 97.174 184.833 C 103.356 201.929 105.032 204.692 108.428 203.389 C 110.797 202.480 110.349 199.117 106.627 189.876 C 100.505 174.672 92.563 148.279 88.609 130.000 C 84.161 109.439 83.557 103.671 83.528 81.500 C 83.502 61.431 83.703 58.799 85.812 51.513 C 92.428 28.658 104.694 15.701 124.632 10.508 C 136.868 7.320 148.461 9.121 163.500 16.546 C 174.836 22.142 183.626 28.722 197.224 41.791 C 206.691 50.889 208.186 51.971 209.974 51.014 C 213.623 49.061 212.263 46.181 203.500 37.299 C 198.825 32.560 195.013 28.417 195.029 28.092 C 195.095 26.766 206.012 19.619 213.500 15.999 C 236.518 4.872 256.255 7.069 271.500 22.455 C 280.942 31.985 286.484 43.987 289.473 61.381 C 291.400 72.587 291.405 83.025 289.492 99.506 C 285.766 131.611 278.413 161.128 266.765 190.739 C 263.392 199.312 262.948 201.232 264.031 202.537 C 264.743 203.395 266.231 203.962 267.339 203.798 C 269.742 203.442 272.155 197.880 280.263 174.000 C 299.255 118.063 303.038 75.006 291.772 43.000 C 279.714 8.743 254.465 -4.891 221.543 5.077 C 212.523 7.808 201.972 13.143 194.739 18.630 C 191.570 21.033 188.785 23.000 188.549 23.000 C 188.313 23.000 184.155 20.342 179.310 17.093 C 168.239 9.670 158.485 5.544 145.977 2.995 C 134.606 0.678 132.894 0.652 123.500 2.657 "/></g>
<g fill="#fff" stroke="#fff">
<path d="M 46.835 194.713 C 45.919 194.933 44.917 195.773 44.608 196.580 C 43.910 198.399 47.366 202.000 49.812 202.000 C 52.470 202.000 66.455 205.750 74.382 208.588 C 92.012 214.901 106.569 223.793 125.006 239.511 C 146.946 258.216 160.791 266.082 177.849 269.532 C 184.820 270.943 187.213 271.029 192.349 270.058 C 211.730 266.392 225.175 258.705 249.996 237.097 C 259.976 228.409 271.170 220.907 282.972 214.997 C 291.980 210.486 311.523 203.705 319.000 202.496 C 324.894 201.542 327.000 200.359 327.000 198.000 C 327.000 194.669 323.983 193.970 316.415 195.548 C 290.419 200.967 264.688 214.141 243.623 232.815 C 233.030 242.206 223.855 248.882 222.341 248.300 C 221.603 248.018 221.000 248.213 221.000 248.734 C 221.000 249.256 218.743 250.910 215.985 252.412 C 213.053 254.007 211.248 255.592 211.639 256.225 C 212.010 256.826 211.849 257.024 211.276 256.671 C 210.708 256.319 208.951 256.676 207.371 257.464 C 202.364 259.961 193.335 261.862 185.796 262.007 C 181.783 262.083 178.725 262.067 179.000 261.971 C 179.706 261.723 172.958 259.892 170.243 259.594 C 169.002 259.458 168.290 259.044 168.660 258.673 C 169.030 258.303 168.471 257.931 167.417 257.848 C 166.363 257.764 164.903 257.648 164.174 257.590 C 163.445 257.532 163.220 257.079 163.674 256.583 C 164.154 256.059 163.745 255.953 162.698 256.329 C 161.707 256.686 161.141 256.582 161.439 256.098 C 161.738 255.615 160.433 254.484 158.539 253.586 C 156.646 252.687 153.632 250.725 151.843 249.226 C 150.053 247.727 148.933 247.063 149.354 247.750 C 151.674 251.544 142.627 245.069 129.018 233.195 C 108.282 215.103 87.944 204.005 63.918 197.672 C 53.126 194.827 49.190 194.145 46.835 194.713 "/></g>
<g fill="#fff" stroke="#fff">
<path d="M 181.852 140.358 C 166.547 145.963 154.840 170.406 147.514 212.056 C 146.590 217.312 145.759 224.737 145.667 228.556 C 145.511 235.055 145.644 235.520 147.750 235.820 C 148.988 235.995 150.000 236.658 150.000 237.292 C 150.000 237.926 150.593 237.557 151.317 236.473 C 152.838 234.195 155.470 216.570 154.519 215.031 C 154.169 214.464 154.411 214.000 155.058 214.000 C 155.741 214.000 156.014 213.162 155.710 212.000 C 155.423 210.900 155.536 210.000 155.963 210.000 C 156.756 210.000 157.358 207.304 159.048 196.194 C 159.576 192.725 160.866 188.111 161.915 185.939 C 162.964 183.768 163.412 182.245 162.911 182.555 C 161.722 183.290 161.771 181.902 163.000 180.000 C 163.862 178.667 163.976 178.667 164.031 180.000 C 164.066 180.825 164.921 179.383 165.933 176.795 C 167.060 173.913 167.377 171.959 166.752 171.751 C 166.184 171.561 166.456 170.687 167.366 169.777 C 168.265 168.878 169.000 167.730 169.000 167.226 C 169.000 166.722 169.911 165.486 171.024 164.479 C 172.569 163.080 172.747 162.456 171.774 161.839 C 170.845 161.250 170.974 161.026 172.250 161.015 C 173.213 161.007 174.000 160.523 174.000 159.941 C 174.000 159.359 173.438 159.193 172.750 159.573 C 172.063 159.953 172.963 158.967 174.752 157.382 C 176.540 155.797 178.160 153.375 178.351 152.000 C 178.543 150.625 178.992 149.613 179.350 149.750 C 179.707 149.888 179.888 149.705 179.750 149.345 C 179.613 148.985 180.355 148.565 181.400 148.412 C 182.445 148.258 183.570 147.766 183.900 147.316 C 185.706 144.859 194.592 149.525 195.576 153.447 C 196.132 155.662 198.202 157.281 197.882 155.250 C 197.816 154.838 197.873 154.613 198.007 154.750 C 198.297 155.048 198.702 156.590 198.875 158.059 C 198.944 158.641 199.445 158.843 199.989 158.507 C 200.540 158.166 200.731 158.536 200.421 159.345 C 200.106 160.166 201.086 161.977 202.683 163.524 C 204.232 165.025 204.938 165.945 204.250 165.568 C 202.705 164.720 202.687 165.218 204.146 168.422 C 204.777 169.805 205.671 170.703 206.135 170.417 C 206.598 170.130 206.711 170.591 206.385 171.440 C 206.059 172.289 206.402 173.218 207.146 173.505 C 207.891 173.792 208.597 175.410 208.717 177.101 C 208.836 178.793 210.073 183.026 211.467 186.509 C 212.860 189.992 214.032 194.114 214.070 195.671 C 214.144 198.652 215.709 203.210 216.071 201.500 C 216.313 200.361 216.580 202.765 216.829 208.309 C 216.945 210.904 217.368 211.891 218.155 211.405 C 218.830 210.987 219.039 211.128 218.659 211.743 C 218.301 212.321 218.674 216.553 219.486 221.147 C 220.298 225.741 220.971 230.963 220.982 232.750 C 220.999 235.782 221.230 236.000 224.433 236.000 C 226.927 236.000 228.030 235.481 228.468 234.099 C 229.262 231.599 225.741 208.120 222.542 194.579 C 213.341 155.641 197.557 134.608 181.852 140.358 "/></g>












</svg>
