<?xml version="1.0" encoding="utf-8"?>
<!DOCTYPE svg PUBLIC "-//W3C//DTD SVG 20010904//EN" "http://www.w3.org/TR/2001/REC-SVG-20010904/DTD/svg10.dtd">
<svg version="1.0" xmlns="http://www.w3.org/2000/svg" width="66pt" height="66pt" viewBox="0 0 66 66" style="" preserveAspectRatio="xMidYMid meet">
<g fill="#fff" stroke="#fff">
<path d="M 22.000 34.288 C 18.658 35.969 18.344 39.915 20.550 52.500 C 22.140 61.568 23.670 65.000 26.120 65.000 C 27.999 65.000 29.784 61.689 30.397 57.066 C 30.942 52.959 31.434 52.000 33.000 52.000 C 34.566 52.000 35.058 52.959 35.603 57.066 C 36.210 61.639 38.014 65.025 39.821 64.985 C 42.916 64.915 46.765 52.396 46.939 41.832 C 47.062 34.400 43.907 32.063 37.027 34.491 C 33.533 35.723 32.454 35.719 28.874 34.456 C 26.605 33.655 24.693 33.007 24.624 33.015 C 24.556 33.023 23.375 33.596 22.000 34.288 M 30.353 37.064 C 32.258 37.635 34.558 37.454 37.276 36.517 C 45.333 33.741 46.544 37.313 43.202 54.000 C 41.974 60.132 41.082 62.500 40.000 62.500 C 39.151 62.500 38.363 61.415 38.183 60.000 C 38.009 58.625 37.430 55.813 36.895 53.750 C 36.051 50.494 35.538 50.000 33.000 50.000 C 30.462 50.000 29.949 50.494 29.105 53.750 C 28.570 55.813 27.991 58.625 27.817 60.000 C 27.637 61.415 26.849 62.500 26.000 62.500 C 24.332 62.500 21.134 48.807 21.048 41.300 C 20.997 36.856 23.056 34.498 26.000 35.631 C 26.825 35.949 28.784 36.593 30.353 37.064 "/></g>
<g fill="#fff" stroke="#fff">
<path d="M 10.925 11.257 C 8.566 16.891 5.411 24.406 3.914 27.957 L 1.193 34.414 5.744 40.207 C 13.757 50.406 15.242 50.579 11.387 40.864 L 8.807 34.361 16.886 18.229 C 21.329 9.356 24.534 1.830 24.009 1.506 C 23.484 1.181 19.419 8.176 14.975 17.049 C 9.002 28.979 6.975 34.006 7.198 36.342 L 7.500 39.500 5.646 36.767 C 3.503 33.608 3.215 34.705 11.316 15.257 C 14.350 7.974 16.468 1.789 16.023 1.514 C 15.578 1.239 13.284 5.623 10.925 11.257 "/></g>
<g fill="#fff" stroke="#fff">
<path d="M 41.718 1.615 C 41.380 1.953 44.723 9.460 49.148 18.296 L 57.193 34.361 54.613 40.864 C 50.758 50.579 52.243 50.406 60.256 40.207 L 64.807 34.414 62.086 27.957 C 60.589 24.406 57.434 16.891 55.075 11.257 C 52.716 5.623 50.415 1.243 49.962 1.524 C 49.509 1.804 51.176 6.863 53.667 12.766 C 62.694 34.158 62.527 33.561 60.380 36.727 L 58.500 39.500 58.802 36.342 C 59.025 34.007 57.002 28.987 51.046 17.092 C 46.614 8.241 42.841 1.000 42.661 1.000 C 42.481 1.000 42.057 1.277 41.718 1.615 "/></g>


</svg>
