<svg xmlns:dc="http://purl.org/dc/elements/1.1/"
	xmlns:cc="http://creativecommons.org/ns#"
	xmlns:rdf="http://www.w3.org/1999/02/22-rdf-syntax-ns#"
	xmlns:svg="http://www.w3.org/2000/svg"
	xmlns="http://www.w3.org/2000/svg" width="117" height="130" viewBox="0 0 117 130" version="1.1" id="svg2730">
	<metadata id="metadata2736">
		<rdf:RDF>
			<cc:Work rdf:about="">
				<dc:format>image/svg+xml</dc:format>
				<dc:type rdf:resource="http://purl.org/dc/dcmitype/StillImage"/>
				<dc:title/>
			</cc:Work>
		</rdf:RDF>
	</metadata>
	<defs id="defs2734"/>
	<g fill="none" fill-rule="evenodd" stroke="#3695a7" stroke-linecap="round" stroke-linejoin="round" stroke-width="3" id="g2728">
		<path d="M30.832 12.932c-14.825 2.114-17.336 15.764-17.464 18.822M88.816 20.462c-4.995.296-12.265-.021-19.613-3.626-5.28-2.591-7.338-5.803-10.245-7.495-16.343-9.513-35.62-8.69-46.94 1.996-3.035 2.864-5.19 6.137-6.676 9.591m-2.61 10.205C1.455 42.67 5 53.856 6.422 57.238a72.849 72.849 0 0 0 5.844 11.104c1.117 1.845 2.238 3.69 3.266 5.615a47.066 47.066 0 0 1 5.665 16.868 137.744 137.744 0 0 0 3.59 21.158c1.362 5.094 4.219 15.686 13.688 15.686 3.043 0 11.132 0 16.29-37.039.838-5.918 2.902-6.76 4.186-6.971 1.281.211 3.345 1.053 4.184 6.964 5.16 37.046 13.248 37.046 16.29 37.046 9.468 0 12.327-10.592 13.69-15.653a138.013 138.013 0 0 0 3.597-21.195 47.055 47.055 0 0 1 5.665-16.864c1.024-1.924 2.144-3.77 3.261-5.615a72.596 72.596 0 0 0 5.852-11.107c2.276-5.407 10.152-31.006-5.591-45.893C94.842.888 76.035-.66 60.275 8.418M35.452 12.004c-.032.034 0 0-.03.034" id="path2724"/>
		<path d="M88.012 69.491l-17.084-14.81 17.298-11.044-14.85-13.224 26.307 13.113-18.681 12.199z" id="path2726"/>
	</g>
	<path style="fill:#3695a7;stroke-width:0.00591617" d="m 35.847305,128.80806 c -5.096028,-1.08684 -8.826911,-5.255 -11.266074,-12.5865 C 22.79268,110.84563 21.001288,101.94635 20.115555,94.036967 19.484685,88.403449 18.969128,85.925703 17.622196,82.053992 16.262337,78.145124 14.808313,75.29581 10.707025,68.502994 8.4655893,64.790583 5.8900047,59.787097 4.8819531,57.186855 3.3541764,53.245998 2.0320092,47.7083 1.4318283,42.736527 1.1031057,40.013458 0.97471265,34.614638 1.1856094,32.383234 c 0.1607738,-1.701076 0.1928335,-1.811785 0.6424641,-2.218563 0.63991,-0.578924 1.2867056,-0.567856 1.8868496,0.03229 l 0.4604322,0.460432 -0.1221088,1.680286 c -0.2923127,4.022389 -0.071318,8.763028 0.5972581,12.812024 1.3694689,8.293701 3.6140301,14.02397 8.7816444,22.419161 4.459205,7.244324 6.601424,11.874552 8.003265,17.298379 0.758652,2.935282 0.979616,4.2276 1.483078,8.673867 0.901768,7.96383 2.652396,16.74273 4.371119,21.9199 2.064953,6.2201 5.112872,9.70282 9.26377,10.58528 1.646418,0.35002 3.399946,0.22725 4.554313,-0.31885 2.982366,-1.41088 5.886912,-6.65865 8.191147,-14.7993 1.414036,-4.99565 2.543506,-10.5239 3.746361,-18.336748 0.842292,-5.470908 1.357044,-7.072891 2.797232,-8.705403 2.093632,-2.373217 5.032492,-2.001794 6.889049,0.870659 0.934401,1.4457 1.427904,3.273424 2.148179,7.955929 3.023065,19.652953 6.976241,30.589953 11.937203,33.025883 0.839429,0.41218 1.04467,0.4466 2.623255,0.43985 2.730725,-0.0117 4.503559,-0.70346 6.471143,-2.52514 2.499339,-2.31401 4.30342,-6.0757 5.878838,-12.25796 1.478939,-5.80366 2.666984,-12.612477 3.366169,-19.291874 0.856117,-8.178589 3.106916,-14.183869 8.9622,-23.911717 2.75922,-4.58413 5.46847,-9.833809 6.45405,-12.505975 1.46827,-3.980851 2.66696,-9.26442 3.22035,-14.194624 0.25009,-2.228074 0.24911,-8.287206 -0.002,-10.275449 -1.00884,-7.998547 -3.77401,-13.891872 -8.77335,-18.698364 C 101.75114,9.3765103 98.071413,7.1942413 93.513428,5.6944833 85.402796,3.0257642 75.950773,3.358952 67.367717,6.6161308 c -1.716243,0.6512958 -5.753945,2.5707014 -5.753945,2.7352568 0,0.1257835 1.875138,1.8242494 3.42515,3.1024394 3.58841,2.959118 8.485569,5.085195 13.958679,6.06009 2.382206,0.424329 6.167365,0.694713 8.222405,0.587347 1.909177,-0.09974 2.547294,0.0705 2.863212,0.763863 0.277073,0.608111 0.213446,0.951806 -0.277812,1.50068 l -0.455075,0.508444 -3.709596,-0.0099 C 80.805294,21.851494 77.566194,21.373649 73.523952,20.076851 68.785804,18.556799 65.869751,16.874333 61.535928,13.160155 58.819345,10.831987 57.976514,10.283648 54.69131,8.7070989 49.888503,6.4022624 45.161307,5.0341061 39.87254,4.4182147 37.046622,4.0891288 31.680212,4.2042568 29.152695,4.6481923 19.019369,6.4280192 11.299458,11.899514 7.2638264,20.161949 6.3904771,21.95002 6.1133422,22.277586 5.4581464,22.296214 4.7987239,22.314964 4.3248702,22.000918 4.0615039,21.370594 3.8314008,20.81988 3.8380018,20.79574 4.7032107,19.023892 11.336036,5.4406295 26.779852,-1.155428 44.116932,2.1902831 c 4.323845,0.834416 9.925342,2.845606 13.692131,4.9160936 0.832002,0.4573249 1.093679,0.5375876 1.294964,0.3971975 0.138743,-0.096769 0.8864,-0.5258113 1.66146,-0.9534275 C 65.114732,4.1505819 70.615961,2.3107386 75.937126,1.4761105 78.142468,1.1302012 83.631374,0.99847679 85.995341,1.2347304 100.05497,2.6398429 110.89482,10.8705 114.92064,23.197605 c 1.23977,3.796188 1.77248,7.053907 1.90941,11.676646 0.16382,5.53068 -0.47752,10.785872 -2.04253,16.736527 -1.52989,5.817173 -3.36165,9.856565 -7.87196,17.359282 -3.87498,6.445869 -5.21336,9.076995 -6.65233,13.077844 -1.023508,2.845745 -2.020639,7.351701 -2.291093,10.353294 -0.668667,7.421105 -2.759334,18.170282 -4.632951,23.820362 -2.80914,8.47122 -7.554467,12.84431 -13.937637,12.84431 -2.507598,0 -4.317349,-0.7334 -6.183111,-2.50569 -4.865162,-4.62143 -8.359068,-15.16639 -11.214868,-33.847605 -0.740337,-4.842914 -1.179953,-6.230618 -2.262352,-7.141397 -0.638909,-0.537605 -1.109667,-0.517099 -1.700853,0.07409 -1.028448,1.028448 -1.410455,2.321783 -2.196052,7.435024 -3.501298,22.789048 -8.199844,33.970388 -15.021441,35.747188 -1.150345,0.29963 -3.523014,0.29036 -4.975567,-0.0194 z" id="path2738"/>
	<path style="fill:#3695a7;stroke-width:0.00591617" d="m 12.383506,32.685902 c -0.470629,-0.47063 -0.474625,-0.488463 -0.369467,-1.648919 0.05847,-0.64523 0.306464,-1.965675 0.551099,-2.934324 2.203551,-8.725094 8.190291,-14.581574 16.697759,-16.334449 1.613011,-0.332344 1.887339,-0.314874 2.446714,0.155809 0.379105,0.318995 0.479012,0.525635 0.479012,0.990746 0,0.884392 -0.521071,1.320452 -1.837707,1.537889 -4.770062,0.787759 -8.878658,3.235674 -11.67253,6.954532 -1.069699,1.423852 -2.569946,4.462738 -3.074433,6.227545 -0.2203,0.770658 -0.52954,2.168835 -0.687198,3.10706 -0.246401,1.46633 -0.344932,1.755994 -0.701703,2.062875 -0.589999,0.507495 -1.24795,0.464831 -1.831546,-0.118764 z" id="path2740"/>
	<path style="fill:#3695a7;stroke-width:0.00591617" d="m 34.439031,13.007077 c -0.5522,-0.5522 -0.521829,-1.370386 0.07294,-1.965161 0.611858,-0.611857 1.280358,-0.611857 1.892216,0 0.580171,0.580171 0.597974,1.219474 0.05203,1.868294 -0.53037,0.63031 -1.440062,0.673993 -2.017189,0.09687 z" id="path2742"/>
	<path style="fill:#3695a7;stroke-width:0.00591617" d="M 86.964042,70.411078 C 85.26511,69.00962 70.051803,55.785127 69.829809,55.516779 c -0.330029,-0.398943 -0.353564,-1.156997 -0.0494,-1.591249 0.124583,-0.177868 3.767697,-2.584348 8.095809,-5.347736 4.328112,-2.763387 7.869294,-5.079358 7.869294,-5.146603 0,-0.06724 -3.042619,-2.831112 -6.761376,-6.141929 -4.639421,-4.130485 -6.811809,-6.164338 -6.922076,-6.480648 -0.09846,-0.282438 -0.107252,-0.601559 -0.02271,-0.823934 0.166758,-0.438606 0.880814,-1.026596 1.2467,-1.026596 0.418842,0 27.13735,13.311715 27.47563,13.688927 0.38976,0.434628 0.39465,1.296761 0.01,1.722061 -0.16161,0.178573 -4.23844,2.896879 -9.059626,6.040678 -4.821188,3.1438 -8.766449,5.778587 -8.767248,5.855084 -7.94e-4,0.0765 1.474631,3.047555 3.278735,6.602353 3.52666,6.948916 3.508536,6.897746 2.699281,7.620837 -0.54856,0.490151 -1.307202,0.460346 -1.958541,-0.07695 z M 83.228543,63.230079 C 83.2,63.155725 82.341387,61.452417 81.320513,59.444949 l -1.856133,-3.649941 0.299247,-0.579624 c 0.256445,-0.496721 1.412677,-1.305524 8.083678,-5.65467 4.281438,-2.791274 8.061725,-5.250982 8.400639,-5.466018 l 0.616207,-0.390974 -6.977588,-3.489483 c -3.837671,-1.919216 -7.016612,-3.450457 -7.06431,-3.402759 -0.0477,0.0477 -0.05753,0.108682 -0.02185,0.135521 0.381604,0.287052 5.951809,5.258837 6.331338,5.651147 0.681751,0.70471 0.681751,1.32174 0,1.985519 -0.278294,0.270957 -3.921334,2.663502 -8.095646,5.316766 -4.174312,2.653266 -7.572216,4.902523 -7.550898,4.998352 0.04401,0.197829 9.465747,8.441008 9.665506,8.456453 0.07136,0.0055 0.106387,-0.0508 0.07784,-0.125159 z" id="path2744"/>
</svg>