<?xml version="1.0" encoding="utf-8"?>
<!DOCTYPE svg PUBLIC "-//W3C//DTD SVG 20010904//EN" "http://www.w3.org/TR/2001/REC-SVG-20010904/DTD/svg10.dtd">
<svg version="1.0" xmlns="http://www.w3.org/2000/svg" width="226pt" height="226pt" viewBox="0 0 226 226" style="" preserveAspectRatio="xMidYMid meet">
<g fill="#3695a7" stroke="#3695a7">
<path d="M 71.652 3.115 C 42.293 7.408 10.196 18.225 3.617 26.044 C -0.777 31.265 -0.118 36.516 8.446 64.553 C 12.541 77.960 16.402 89.883 17.026 91.049 C 17.650 92.215 19.685 93.806 21.548 94.585 C 25.920 96.411 41.572 96.472 45.014 94.676 C 47.062 93.607 48.082 93.600 50.514 94.637 C 54.851 96.486 70.773 96.367 74.433 94.458 C 77.066 93.085 77.758 93.086 81.203 94.465 C 87.041 96.800 104.441 96.579 109.289 94.108 C 112.930 92.252 113.070 92.252 116.711 94.108 C 121.559 96.579 138.959 96.800 144.797 94.465 C 148.242 93.086 148.934 93.085 151.567 94.458 C 155.227 96.367 171.149 96.486 175.486 94.637 C 177.918 93.600 178.938 93.607 180.986 94.676 C 184.428 96.472 200.080 96.411 204.452 94.585 C 206.315 93.806 208.350 92.215 208.974 91.049 C 209.598 89.883 213.459 77.960 217.554 64.553 C 226.118 36.516 226.777 31.265 222.383 26.044 C 220.115 23.348 206.312 15.801 204.237 16.123 C 203.832 16.185 203.725 16.167 204.000 16.082 C 205.279 15.687 192.232 11.425 180.500 8.404 C 158.015 2.615 143.361 1.065 111.980 1.157 C 90.651 1.219 81.624 1.657 71.652 3.115 M 146.750 10.358 C 149.088 10.436 151.000 10.838 151.000 11.250 C 151.000 11.663 152.348 12.000 153.996 12.000 C 158.460 12.000 178.186 16.446 188.937 19.876 C 194.128 21.532 198.740 22.661 199.187 22.384 C 199.634 22.108 200.000 22.265 200.000 22.733 C 200.000 23.479 208.326 27.624 213.259 29.334 C 214.226 29.670 215.529 31.066 216.154 32.438 C 217.103 34.522 216.655 37.079 213.430 47.979 L 209.570 61.024 207.114 57.887 C 200.816 49.839 187.677 48.825 179.750 55.776 C 178.177 57.155 177.823 57.155 176.250 55.776 C 168.972 49.394 157.318 49.594 150.264 56.222 C 148.150 58.207 148.000 58.225 148.000 56.486 C 148.000 53.607 143.914 48.317 140.017 46.152 C 135.853 43.837 126.834 43.534 122.869 45.574 C 119.534 47.291 115.183 52.425 114.391 55.577 C 113.613 58.676 112.387 58.676 111.609 55.577 C 110.817 52.425 106.466 47.291 103.131 45.574 C 99.166 43.534 90.147 43.837 85.983 46.152 C 82.086 48.317 78.000 53.607 78.000 56.486 C 78.000 58.225 77.850 58.207 75.736 56.222 C 68.682 49.594 57.028 49.394 49.750 55.776 C 48.177 57.155 47.823 57.155 46.250 55.776 C 38.323 48.825 25.184 49.839 18.886 57.887 L 16.430 61.024 12.570 47.979 C 9.345 37.079 8.897 34.522 9.846 32.438 C 10.471 31.066 11.774 29.674 12.741 29.345 C 13.709 29.016 17.219 27.498 20.543 25.972 C 35.548 19.084 59.287 13.210 82.903 10.542 C 90.275 9.709 96.424 8.909 96.567 8.764 C 96.711 8.619 107.105 8.886 119.664 9.358 C 132.224 9.829 144.413 10.279 146.750 10.358 M 135.527 52.933 C 134.993 52.970 135.542 53.691 136.748 54.536 C 139.075 56.166 139.728 58.070 143.000 72.757 C 146.013 86.280 145.377 87.000 130.418 87.000 C 122.203 87.000 120.733 86.733 118.913 84.913 C 117.362 83.362 117.000 82.143 117.500 80.163 C 117.871 78.699 118.994 73.674 119.996 68.997 C 120.998 64.321 122.410 59.194 123.135 57.604 C 124.677 54.219 129.253 51.962 133.500 52.491 C 135.150 52.697 136.062 52.895 135.527 52.933 M 97.767 53.198 C 101.897 54.422 103.559 57.586 105.960 68.792 C 106.987 73.581 108.129 78.699 108.500 80.163 C 109.000 82.143 108.638 83.362 107.087 84.913 C 105.267 86.733 103.797 87.000 95.582 87.000 C 80.623 87.000 79.987 86.280 83.000 72.757 C 86.234 58.242 86.926 56.165 89.023 54.696 C 90.103 53.940 90.787 53.120 90.541 52.875 C 89.687 52.020 94.523 52.237 97.767 53.198 M 197.129 61.053 C 201.475 62.853 203.128 67.658 202.922 77.883 L 202.742 86.750 193.532 86.922 C 181.773 87.141 181.613 86.974 182.185 75.020 C 182.544 67.498 182.972 65.659 184.816 63.696 C 186.027 62.406 186.828 61.160 186.595 60.926 C 185.590 59.917 194.649 60.026 197.129 61.053 M 67.883 61.631 C 69.164 62.528 70.839 64.763 71.606 66.599 C 73.332 70.729 73.467 84.133 71.800 85.800 C 70.282 87.318 55.631 87.410 53.236 85.917 C 51.724 84.973 51.568 83.636 52.029 75.536 C 52.547 66.435 53.294 64.291 57.000 61.282 C 59.155 59.532 65.162 59.725 67.883 61.631 M 39.576 60.910 C 39.067 60.960 39.711 62.128 41.005 63.506 C 42.989 65.617 43.428 67.322 43.797 74.352 C 44.446 86.712 44.065 87.138 32.568 86.924 L 23.258 86.750 23.078 77.883 C 22.795 63.856 25.741 59.720 35.500 60.448 C 38.250 60.653 40.084 60.861 39.576 60.910 M 169.873 62.096 C 171.110 63.249 172.545 65.303 173.061 66.661 C 174.433 70.270 174.241 84.359 172.800 85.800 C 171.187 87.413 155.813 87.413 154.200 85.800 C 152.533 84.133 152.668 70.729 154.394 66.599 C 155.161 64.763 156.836 62.528 158.117 61.631 C 161.420 59.317 167.133 59.544 169.873 62.096 "/></g>
<g fill="#3695a7" stroke="#3695a7">
<path d="M 18.484 104.611 C 17.153 106.048 15.847 107.960 15.583 108.861 C 15.318 109.763 11.929 120.912 8.051 133.639 C -0.610 162.062 -0.950 166.011 4.750 172.051 C 7.105 174.546 9.514 176.100 11.226 176.228 C 12.725 176.341 14.149 176.946 14.390 177.573 C 15.004 179.174 34.740 186.279 36.151 185.407 C 36.870 184.962 37.038 185.129 36.595 185.845 C 35.919 186.940 36.693 187.176 41.750 187.417 C 42.713 187.463 43.736 187.813 44.025 188.195 C 44.830 189.261 68.162 193.731 80.500 195.183 C 86.550 195.895 101.175 196.478 113.000 196.478 C 124.825 196.478 139.450 195.895 145.500 195.183 C 157.838 193.731 181.170 189.261 181.975 188.195 C 182.504 187.495 182.885 187.424 187.559 187.150 C 189.216 187.053 189.866 186.593 189.405 185.845 C 188.961 185.128 189.130 184.963 189.851 185.408 C 191.006 186.121 197.999 184.097 198.001 183.049 C 198.001 182.747 199.098 182.437 200.437 182.360 C 201.777 182.283 205.674 180.820 209.096 179.110 C 212.519 177.399 215.870 176.000 216.543 176.000 C 217.217 176.000 219.395 174.199 221.384 171.997 C 226.910 165.881 226.550 161.864 217.949 133.639 C 214.071 120.912 210.682 109.763 210.417 108.861 C 210.153 107.960 208.847 106.048 207.516 104.611 C 205.156 102.065 204.786 102.000 192.607 102.000 C 185.337 102.000 179.859 102.419 179.498 103.003 C 179.084 103.673 178.257 103.673 177.005 103.003 C 174.310 101.560 151.696 101.704 150.227 103.173 C 149.330 104.070 148.449 104.070 146.480 103.173 C 141.673 100.983 114.436 101.822 114.916 104.145 C 114.964 104.377 113.765 104.498 112.252 104.414 C 110.738 104.329 109.950 104.195 110.500 104.115 C 111.050 104.035 110.825 103.533 110.000 103.000 C 107.834 101.600 82.659 101.743 79.520 103.173 C 77.551 104.070 76.670 104.070 75.773 103.173 C 74.304 101.704 51.690 101.560 48.995 103.003 C 47.743 103.673 46.916 103.673 46.502 103.003 C 46.141 102.419 40.663 102.000 33.393 102.000 C 21.214 102.000 20.844 102.065 18.484 104.611 M 20.371 140.423 C 23.857 143.910 25.768 144.993 29.390 145.536 C 35.519 146.455 40.797 145.365 44.750 142.365 L 48.000 139.898 51.676 142.699 C 54.917 145.169 56.204 145.500 62.573 145.500 C 69.203 145.500 70.121 145.238 73.782 142.296 L 77.768 139.092 78.334 141.919 C 78.976 145.131 84.144 150.724 87.729 152.087 C 89.050 152.589 92.486 153.000 95.365 153.000 C 102.384 153.000 108.278 149.276 110.741 143.286 C 111.708 140.933 112.725 139.007 113.000 139.007 C 113.275 139.007 114.292 140.933 115.259 143.286 C 117.722 149.276 123.616 153.000 130.635 153.000 C 133.514 153.000 136.950 152.589 138.271 152.087 C 141.856 150.724 147.024 145.131 147.666 141.919 L 148.232 139.092 152.218 142.296 C 155.879 145.238 156.797 145.500 163.427 145.500 C 169.796 145.500 171.083 145.169 174.324 142.699 L 178.000 139.898 181.250 142.365 C 185.203 145.365 190.481 146.455 196.610 145.536 C 200.232 144.993 202.143 143.910 205.629 140.423 C 209.712 136.341 211.865 134.791 210.592 136.852 C 209.843 138.063 213.090 149.000 214.198 149.000 C 214.704 149.000 214.842 149.446 214.505 149.992 C 214.168 150.537 214.686 153.499 215.655 156.574 C 218.071 164.238 216.861 166.147 206.803 170.549 C 180.405 182.101 148.839 187.960 113.000 187.960 C 82.652 187.960 54.860 183.678 32.000 175.478 C 27.875 173.999 23.713 172.739 22.750 172.680 C 21.788 172.620 21.000 172.273 21.000 171.909 C 21.000 171.544 18.731 170.270 15.958 169.077 C 9.200 166.170 8.103 163.688 10.380 156.463 C 11.330 153.449 11.832 150.537 11.495 149.992 C 11.158 149.446 11.296 149.000 11.802 149.000 C 12.910 149.000 16.157 138.063 15.408 136.852 C 14.135 134.791 16.288 136.341 20.371 140.423 M 107.087 112.087 C 108.638 113.638 109.000 114.857 108.500 116.837 C 106.581 124.425 104.058 137.391 104.428 137.761 C 105.145 138.478 99.752 144.000 98.335 144.000 C 97.601 144.000 97.000 144.427 97.000 144.948 C 97.000 146.184 91.065 144.206 88.741 142.196 C 86.841 140.552 86.156 138.408 83.000 124.243 C 80.912 114.874 81.184 111.897 84.239 110.666 C 84.932 110.387 89.888 110.122 95.250 110.079 C 103.862 110.009 105.243 110.243 107.087 112.087 M 141.446 110.618 C 144.835 111.918 145.144 114.621 143.000 124.243 C 139.844 138.408 139.159 140.552 137.259 142.196 C 135.077 144.083 129.000 146.194 129.000 145.065 C 129.000 144.607 128.146 144.010 127.102 143.737 C 124.047 142.938 122.300 139.154 120.068 128.500 C 118.915 123.000 117.711 117.529 117.393 116.342 C 117.011 114.914 117.522 113.478 118.908 112.092 C 120.735 110.265 122.195 110.000 130.418 110.000 C 135.598 110.000 140.561 110.278 141.446 110.618 M 201.800 111.200 C 203.241 112.641 203.433 126.730 202.061 130.339 C 200.434 134.620 197.017 137.003 192.561 136.967 C 185.025 136.905 182.000 132.100 182.000 120.191 C 182.000 110.516 182.523 110.000 192.335 110.000 C 197.430 110.000 201.060 110.460 201.800 111.200 M 172.800 111.200 C 174.312 112.712 174.401 126.553 172.925 130.785 C 171.538 134.765 168.039 137.009 163.285 136.967 C 156.246 136.905 153.000 131.640 153.000 120.285 C 153.000 110.507 153.510 110.000 163.335 110.000 C 168.430 110.000 172.060 110.460 172.800 111.200 M 71.965 111.934 C 72.534 112.998 73.000 116.756 73.000 120.285 C 73.000 131.640 69.754 136.905 62.715 136.967 C 57.961 137.009 54.462 134.765 53.075 130.785 C 51.599 126.553 51.688 112.712 53.200 111.200 C 53.940 110.460 57.570 110.000 62.665 110.000 C 69.813 110.000 71.070 110.261 71.965 111.934 M 42.965 111.934 C 44.258 114.351 44.316 125.413 43.057 129.800 C 40.357 139.217 27.453 139.581 23.939 130.339 C 22.567 126.730 22.759 112.641 24.200 111.200 C 24.940 110.460 28.570 110.000 33.665 110.000 C 40.813 110.000 42.070 110.261 42.965 111.934 "/></g>
<g fill="#3695a7" stroke="#3695a7">
<path d="M 25.449 162.468 C 24.652 164.375 24.000 166.131 24.000 166.370 C 24.000 167.179 30.224 168.980 31.115 168.429 C 31.602 168.128 32.000 168.270 32.000 168.743 C 32.000 170.075 51.505 176.322 54.281 175.879 C 54.951 175.772 56.280 176.026 57.234 176.443 C 58.187 176.860 60.437 177.269 62.234 177.351 C 64.030 177.433 65.733 177.808 66.019 178.185 C 66.498 178.817 92.309 182.000 96.957 182.000 C 98.703 182.000 99.000 181.364 99.000 177.619 L 99.000 173.238 89.250 172.550 C 71.460 171.296 47.389 166.282 34.213 161.085 C 31.305 159.938 28.470 159.000 27.912 159.000 C 27.354 159.000 26.246 160.561 25.449 162.468 "/></g>
<g fill="#3695a7" stroke="#3695a7">
<path d="M 127.000 19.500 L 127.000 24.000 130.750 24.008 C 132.813 24.012 139.839 24.682 146.365 25.496 C 152.891 26.310 158.628 26.730 159.115 26.429 C 159.602 26.128 160.000 26.307 160.000 26.827 C 160.000 27.347 162.138 28.084 164.750 28.464 C 170.171 29.252 184.029 33.086 192.046 36.017 C 195.030 37.108 197.839 38.000 198.287 38.000 C 198.973 38.000 202.000 31.988 202.000 30.626 C 202.000 29.814 192.759 27.031 191.875 27.577 C 191.394 27.875 191.000 27.593 191.000 26.952 C 191.000 26.309 190.304 26.053 189.448 26.382 C 188.594 26.709 188.131 26.597 188.419 26.132 C 189.681 24.089 144.155 15.164 138.242 16.294 C 136.982 16.535 135.711 16.342 135.417 15.866 C 135.123 15.390 133.109 15.000 130.941 15.000 L 127.000 15.000 127.000 19.500 "/></g>
<g fill="#3695a7" stroke="#3695a7">
<path d="M 113.000 19.000 L 113.000 23.000 117.000 23.000 L 121.000 23.000 121.000 19.000 L 121.000 15.000 117.000 15.000 L 113.000 15.000 113.000 19.000 "/></g>
<g fill="#3695a7" stroke="#3695a7">
<path d="M 105.000 177.993 L 105.000 181.986 109.000 181.829 C 112.944 181.674 113.000 181.619 113.000 177.836 C 113.000 174.027 112.972 174.000 109.000 174.000 C 105.001 174.000 105.000 174.001 105.000 177.993 "/></g>
</svg>
