<?xml version="1.0" encoding="utf-8"?>
<!DOCTYPE svg PUBLIC "-//W3C//DTD SVG 20010904//EN" "http://www.w3.org/TR/2001/REC-SVG-20010904/DTD/svg10.dtd">
<svg version="1.0" xmlns="http://www.w3.org/2000/svg" width="50pt" height="46pt" viewBox="0 0 50 46" style="" preserveAspectRatio="xMidYMid meet">
<g fill="#3695a7" stroke="#3695a7">
<path d="M 30.000 3.656 C 29.175 3.985 27.488 5.176 26.250 6.302 L 24.000 8.349 21.686 6.174 C 18.774 3.439 17.599 3.383 19.026 6.048 C 19.628 7.174 21.272 8.533 22.678 9.068 C 24.826 9.884 25.607 9.638 27.569 7.520 C 32.472 2.230 42.246 5.557 45.636 13.671 C 47.384 17.854 47.379 24.158 45.624 28.357 C 41.732 37.673 27.794 42.241 18.476 37.255 C 17.389 36.673 14.383 35.880 11.796 35.492 C 7.296 34.817 7.063 34.902 6.426 37.440 C 5.537 40.982 6.686 41.955 7.921 38.706 C 8.987 35.904 8.702 35.880 19.270 39.654 C 29.248 43.217 41.427 39.270 45.974 31.000 C 50.527 22.720 48.289 9.857 41.525 5.425 C 38.869 3.684 32.411 2.693 30.000 3.656 "/></g>
<g fill="#3695a7" stroke="#3695a7">
<path d="M 31.500 27.172 C 30.400 27.783 28.600 29.327 27.500 30.603 C 26.172 32.143 24.155 33.035 21.500 33.255 L 17.500 33.588 21.218 35.294 C 23.263 36.232 26.318 37.000 28.008 37.000 C 32.002 37.000 38.240 33.781 40.968 30.313 C 43.006 27.723 43.025 27.530 41.313 26.855 C 38.564 25.772 33.741 25.927 31.500 27.172 "/></g>
<g fill="#3695a7" stroke="#3695a7">
<path d="M 13.000 6.600 C 13.000 8.646 19.311 15.000 21.343 15.000 C 25.213 15.000 27.537 23.480 24.384 26.096 C 21.739 28.291 16.597 29.670 13.822 28.928 C 7.351 27.197 1.917 31.350 2.102 37.885 L 2.205 41.500 3.024 38.016 C 4.227 32.901 8.431 29.646 12.898 30.371 C 16.890 31.019 23.610 29.409 26.250 27.172 C 30.322 23.723 27.598 15.800 21.397 13.057 C 18.753 11.888 16.537 10.006 15.545 8.088 C 13.769 4.652 13.000 4.203 13.000 6.600 "/></g>

</svg>
