<!-- icon666.com - MILLIONS vector ICONS FREE -->
<svg viewBox="0 0 512.04128 512" xmlns="http://www.w3.org/2000/svg" fill="#3695a7">
	<path d="m356.894531 298.71875c-8.777343-.308594-17.339843 2.746094-23.941406 8.539062-11.984375 11.574219-10.132813 35.351563-2.972656 53.777344 1.707031 4.390625 6.652343 6.570313 11.042969 4.859375 4.394531-1.707031 6.570312-6.652343 4.863281-11.042969-5.566407-14.335937-6.058594-30.511718-1.066407-35.328124 3.445313-2.660157 7.730469-3.984376 12.074219-3.742188 5.527344-.171875 10.9375 1.621094 15.265625 5.066406 2.226563 2.152344 5.445313 2.929688 8.410156 2.03125 2.964844-.902344 5.207032-3.335937 5.859376-6.367187.65625-3.027344-.382813-6.171875-2.714844-8.214844-7.449219-6.394531-17.003906-9.808594-26.820313-9.578125zm0 0">
	</path>
	<path d="m458.875 265.839844c-20.1875-3.71875-41.019531.839844-57.808594 12.652344-17.9375-12.648438-40.457031-16.945313-61.789062-11.796876-7.878906-20.050781-10.453125-41.792968-7.46875-63.125 10.699218-3.28125 18.019531-13.144531 18.058594-24.335937-.019532-10.828125-6.863282-20.464844-17.082032-24.046875.015625-2.671875.015625-5.175781.015625-5.820312-1.289062-83.605469-69.992187-150.402344-153.601562-149.3320318-83.609375-1.0703122-152.308594 65.7265628-153.597657 149.3320318 0 .640624 0 3.140624.011719 5.800781-3.574219 1.214843-6.816406 3.238281-9.472656 5.921875-4.894531 4.761718-7.644531 11.3125-7.605469 18.144531.035156 11.191406 7.355469 21.054687 18.054688 24.335937 3.21875 22.28125.234375 45.015626-8.621094 65.710938-16.03125 29.785156-11.695312 66.417969 10.84375 91.632812-18.527344 20.320313-28.8007812 46.820313-28.8125 74.320313v51.199219c.015625 14.132812 11.46875 25.585937 25.601562 25.601562h307.199219c5.304688-.015625 10.472657-1.6875 14.785157-4.78125 3.832031 3.15625 8.660156 4.851563 13.621093 4.78125 6.65625 0 22.246094 0 32.351563-73.210937 1.523437-10.839844 5.078125-12.675781 7.410156-13.132813l.324219.058594c1.382812.285156 5.59375 1.15625 7.289062 13.074219 10.089844 73.210937 25.667969 73.210937 32.316407 73.210937 18.914062 0 24.585937-21.101562 27.292968-31.167968 3.4375-13.6875 5.792969-27.625 7.039063-41.683594 1.550781-11.566406 5.277343-22.738282 10.972656-32.925782 2-3.800781 4.191406-7.449218 6.371094-11.09375 4.410156-6.917968 8.214843-14.207031 11.367187-21.78125 10.972656-28.101562 13.828125-66.667968-11.03125-90.625-9.386718-8.9375-21.246094-14.832031-34.035156-16.917968zm-168.761719 66.953125c-13.519531-5.605469-28.011719-8.492188-42.648437-8.492188h-34.132813v-29.59375c46.542969-9.960937 84.03125-44.359375 97.953125-89.875h3.179688c-2.761719 23.003907.261718 46.332031 8.800781 67.871094-5.140625 2.660156-9.875 6.042969-14.058594 10.039063-13.042969 13.304687-19.964843 31.4375-19.09375 50.050781zm-63.316406 70.375c.65625 2.617187 2.507813 4.769531 4.996094 5.816406 13.675781 6.707031 24.320312 18.324219 29.8125 32.53125-25.644531 9.8125-49.78125 23.179687-71.707031 39.710937 3.921874-36.148437 13.449218-105.765624 31.320312-139.539062 23.214844 1.800781 42.957031 17.632812 49.765625 39.898438-13.339844.925781-34.269531 4.015624-42.535156 14.117187-1.695313 2.089844-2.308594 4.855469-1.652344 7.464844zm-96.847656-7.46875c-8.261719-10.097657-29.183594-13.183594-42.523438-14.117188 6.925781-22.183593 26.613281-37.953125 49.773438-39.867187 17.851562 33.769531 27.375 103.367187 31.300781 139.507812-21.921875-16.527344-46.058594-29.894531-71.703125-39.707031 5.484375-14.191406 16.113281-25.800781 29.769531-32.511719 2.507813-1.019531 4.382813-3.171875 5.050782-5.796875.667968-2.621093.046874-5.40625-1.667969-7.503906zm-69.582031-211.316407c-.410157-3.722656-.621094-7.464843-.632813-11.207031-.015625-3.441406.171875-6.875.566406-10.292969.238281-2.832031.714844-5.648437 1.144531-8.257812.558594-2.785156 1.277344-5.484375 1.992188-8.191406.054688-.199219.101562-.398438.140625-.597656v-.015626l.027344-.132812 3.535156-19.292969c47.839844-13.015625 69.804687-36 79.367187-50.683593 16.007813 17.835937 55.324219 49.152343 131.265626 44.097656 7.125 8.464844 13.023437 17.886718 17.527343 27.992187.632813 2.28125 1.1875 4.574219 1.605469 6.597657.472656 2.835937.953125 5.652343 1.21875 8.777343.378906 3.320313.558594 6.65625.542969 10-.011719 3.71875-.21875 7.433594-.625 11.132813-.398438 3.398437-.953125 6.800781-1.65625 10.082031-11.136719 44.496094-47.820313 78.007813-93.140625 85.085937-15.898438 2.863282-32.183594 2.863282-48.082032 0-45.460937-7.035156-82.21875-40.742187-93.152343-85.425781-.707031-3.234375-1.257813-6.457031-1.644531-9.667969zm118.832031 114.316407c5.707031-.035157 11.402343-.390625 17.066406-1.0625v25.109375c-2.015625 5.25-8.640625 18.621094-17.066406 18.621094-8.269531 0-14.835938-12.78125-17.066407-18.621094v-25.109375c5.664063.671875 11.363282 1.027343 17.066407 1.0625zm-17.066407 53.484375c9.851563 8.332031 24.28125 8.332031 34.132813 0v5.390625c-7.632813 24.304687-13.339844 49.167969-17.066406 74.367187-3.726563-25.199218-9.433594-50.0625-17.066407-74.367187zm162.132813-164.417969h-9.523437c.070312-.527344.195312-1.035156.257812-1.566406.480469-4.324219.722656-8.671875.734375-13.023438 0-.871093-.046875-1.640625-.0625-2.476562h8.59375c2.300781-.003907 4.496094.9375 6.074219 2.609375 1.59375 1.558594 2.480468 3.699218 2.460937 5.925781-.003906 4.710937-3.824219 8.527344-8.535156 8.53125zm-145.066406-170.664063c74.1875-1.078124 135.253906 58.082032 136.535156 132.265626v4.265624h-1.667969c-.132812-.800781-.246094-1.5625-.386718-2.398437-.542969-2.660156-1.191407-5.316406-2-8.242187-5.902344-13.621094-13.835938-26.265626-23.535157-37.5-1.753906-2.167969-4.480469-3.304688-7.253906-3.027344-95.246094 7.828125-127.128906-44.722656-128.417969-46.933594-1.699218-2.980469-5.023437-4.652344-8.433594-4.242188-3.40625.414063-6.238281 2.828126-7.179687 6.128907-.105469.367187-11.367187 37.082031-79.171875 53.796875-3.261719.800781-5.746094 3.441406-6.351562 6.742187l-4.460938 24.335938c-.789062 2.972656-1.5625 5.949219-2.226562 9.308593-.117188.695313-.171876 1.335938-.285157 2.03125h-1.695312c0-2.019531 0-3.753906 0-4.265624 1.277343-74.183594 62.347656-133.34375 136.53125-132.265626zm-150.984375 156.046876c1.582031-1.601563 3.75-2.484376 6.003906-2.449219h8.511719c-.015625.832031-.0625 1.609375-.0625 2.476562.011719 4.382813.257812 8.765625.742187 13.125.058594.496094.183594.96875.25 1.464844h-9.527344c-4.710937-.003906-8.527343-3.820313-8.53125-8.53125-.007812-2.300781.9375-4.503906 2.613282-6.085937zm5.019531 103.765624c10.046875-22.609374 13.746094-47.527343 10.699219-72.082031h3.234375c13.847656 45.542969 51.34375 79.964844 97.898437 89.875v29.59375h-34.132812c-25.378906-.015625-49.988282 8.71875-69.675782 24.730469-17.613281-19.941406-20.820312-48.789062-8.023437-72.113281zm-16.167969 209.519532v-51.199219c.0625-44.710937 31.605469-83.191406 75.433594-92.027344-13.175781 11.679688-21.730469 27.695313-24.117188 45.140625-.40625 2.46875.296876 4.992188 1.917969 6.902344 1.621094 1.90625 3.996094 3.007812 6.5 3.007812 9.90625-.011718 19.777344 1.128907 29.421875 3.390626-13.882812 10.742187-23.847656 25.75-28.347656 42.714843-1.179688 4.324219 1.191406 8.824219 5.421875 10.300781 26.816406 9.71875 52.078125 23.296876 74.980469 40.300782h-132.675782c-4.710937-.003906-8.53125-3.820313-8.535156-8.53125zm183.066406 8.53125c22.90625-16.992188 48.164063-30.566406 74.976563-40.296875 4.226563-1.480469 6.589844-5.980469 5.414063-10.300781-4.5-16.964844-14.457032-31.976563-28.339844-42.71875 9.640625-2.261719 19.515625-3.402344 29.421875-3.390626 2.5 0 4.875-1.101562 6.496093-3.007812 1.621094-1.90625 2.324219-4.429688 1.917969-6.898438-2.371093-17.324218-10.824219-33.242187-23.851562-44.90625 9.105469 1.820313 17.886719 4.984376 26.054687 9.394532 1.378906 7.015625 3.371094 13.898437 5.949219 20.566406 3.175781 7.59375 6.996094 14.902344 11.425781 21.84375 2.167969 3.617188 4.351563 7.242188 6.34375 11.019531 5.699219 10.179688 9.414063 21.347657 10.953125 32.914063 1.234375 14.03125 3.574219 27.941406 7.007813 41.601562 1.054687 4.214844 2.390625 8.351563 3.992187 12.390625-1.457031 1.140625-3.246093 1.769531-5.09375 1.789063zm287.90625-127.773438c-2.816406 6.675782-6.195312 13.097656-10.101562 19.199219-2.347656 3.917969-4.691406 7.84375-6.816406 11.882813-6.707032 12.074218-11.066406 25.3125-12.851563 39.007812-1.160156 13.179688-3.351562 26.246094-6.542969 39.082031-1.675781 6.242188-4.738281 17.632813-10.136718 18.542969-2.886719-2.566406-10.367188-16.832031-16.101563-58.453125-2.804687-19.691406-12.820312-25.785156-21.019531-27.476563-.851562-.183593-1.714844-.316406-2.585938-.410156-.273437.015625-.542968.042969-.8125.085938-.332031-.050782-.667968-.078125-1.003906-.085938-9.039062 1.015625-20.433594 6.675782-23.410156 27.90625-5.75 41.640625-13.246094 55.890625-16.128906 58.441406-4.738282-.757812-7.671875-9.316406-10.144532-18.59375-3.175781-12.824218-5.359374-25.878906-6.527343-39.039062-1.761719-13.691406-6.113281-26.921875-12.824219-38.984375-2.132812-4.050781-4.472656-7.941406-6.800781-11.824219-3.921875-6.121094-7.320313-12.566406-10.15625-19.257812-8.53125-21.953125-11.820313-54.035156 7-72.210938 21.511719-18.101562 53.015625-17.796875 74.175781.714844 3.308594 3.242188 26.945312 25.636719 49.117188 25.636719 4.714843 0 8.535156-3.820313 8.535156-8.535157 0-4.710937-3.820313-8.53125-8.535156-8.53125-11.078126-1.757812-21.398438-6.722656-29.6875-14.277343 12.417968-7.289063 27.03125-9.902344 41.207031-7.375 9.441406 1.503906 18.210937 5.820312 25.160156 12.382812 18.863281 18.179688 15.558594 50.230469 6.992187 72.171875zm0 0">
	</path>
</svg>
