<!-- icon666.com - MILLIONS vector ICONS FREE -->
<svg id="icons" enable-background="new 0 0 64 64" viewBox="0 0 64 64" xmlns="http://www.w3.org/2000/svg">
	<path d="m8.991 17.48h-4c-.553 0-1 .447-1 1v4c0 .553.447 1 1 1h4c.553 0 1-.447 1-1v-4c0-.552-.447-1-1-1zm-1 4h-2v-2h2z">
	</path>
	<path d="m17.991 17.48h-4c-.553 0-1 .447-1 1v4c0 .553.447 1 1 1h4c.553 0 1-.447 1-1v-4c0-.552-.447-1-1-1zm-1 4h-2v-2h2z">
	</path>
	<path d="m26.991 17.48h-4c-.553 0-1 .447-1 1v4c0 .553.447 1 1 1h4c.553 0 1-.447 1-1v-4c0-.552-.447-1-1-1zm-1 4h-2v-2h2z">
	</path>
	<path d="m35.991 17.48h-4c-.553 0-1 .447-1 1v4c0 .553.447 1 1 1h4c.553 0 1-.447 1-1v-4c0-.552-.447-1-1-1zm-1 4h-2v-2h2z">
	</path>
	<path d="m8.991 25.48h-4c-.553 0-1 .447-1 1v4c0 .553.447 1 1 1h4c.553 0 1-.447 1-1v-4c0-.552-.447-1-1-1zm-1 4h-2v-2h2z">
	</path>
	<path d="m17.991 25.48h-4c-.553 0-1 .447-1 1v4c0 .553.447 1 1 1h4c.553 0 1-.447 1-1v-4c0-.552-.447-1-1-1zm-1 4h-2v-2h2z">
	</path>
	<path d="m26.991 25.48h-4c-.553 0-1 .447-1 1v4c0 .553.447 1 1 1h4c.553 0 1-.447 1-1v-4c0-.552-.447-1-1-1zm-1 4h-2v-2h2z">
	</path>
	<path d="m8.991 33.48h-4c-.553 0-1 .447-1 1v4c0 .553.447 1 1 1h4c.553 0 1-.447 1-1v-4c0-.552-.447-1-1-1zm-1 4h-2v-2h2z">
	</path>
	<path d="m17.991 33.48h-4c-.553 0-1 .447-1 1v4c0 .553.447 1 1 1h4c.553 0 1-.447 1-1v-4c0-.552-.447-1-1-1zm-1 4h-2v-2h2z">
	</path>
	<path d="m26.991 33.48h-4c-.553 0-1 .447-1 1v4c0 .553.447 1 1 1h4c.553 0 1-.447 1-1v-4c0-.552-.447-1-1-1zm-1 4h-2v-2h2z">
	</path>
	<path d="m8.991 41.48h-4c-.553 0-1 .447-1 1v4c0 .553.447 1 1 1h4c.553 0 1-.447 1-1v-4c0-.552-.447-1-1-1zm-1 4h-2v-2h2z">
	</path>
	<path d="m17.991 41.48h-4c-.553 0-1 .447-1 1v4c0 .553.447 1 1 1h4c.553 0 1-.447 1-1v-4c0-.552-.447-1-1-1zm-1 4h-2v-2h2z">
	</path>
	<path d="m26.991 41.48h-4c-.553 0-1 .447-1 1v4c0 .553.447 1 1 1h4c.553 0 1-.447 1-1v-4c0-.552-.447-1-1-1zm-1 4h-2v-2h2z">
	</path>
	<path d="m35.991 25.48h-4c-.553 0-1 .447-1 1v4c0 .553.447 1 1 1h4c.553 0 1-.447 1-1v-4c0-.552-.447-1-1-1zm-1 4h-2v-2h2z">
	</path>
	<path d="m40.991 31.48h4c.553 0 1-.447 1-1v-4c0-.553-.447-1-1-1h-4c-.553 0-1 .447-1 1v4c0 .553.447 1 1 1zm1-4h2v2h-2z">
	</path>
	<path d="m40.991 23.48h4c.553 0 1-.447 1-1v-4c0-.553-.447-1-1-1h-4c-.553 0-1 .447-1 1v4c0 .553.447 1 1 1zm1-4h2v2h-2z">
	</path>
	<path d="m50.008 32.536-.017-24.057c-.001-1.653-1.347-2.998-3-2.998h-3v-1.5c0-1.379-1.121-2.5-2.5-2.5s-2.5 1.121-2.5 2.5v1.5h-6v-1.5c0-1.379-1.121-2.5-2.5-2.5s-2.5 1.121-2.5 2.5v1.5h-6v-1.5c0-1.379-1.121-2.5-2.5-2.5s-2.5 1.121-2.5 2.5v1.5h-6v-1.5c0-1.379-1.121-2.5-2.5-2.5s-2.5 1.121-2.5 2.5v1.5h-3c-1.654 0-3 1.346-3 3v48.033c0 .553.447 1 1 1l36.823-.018c2.752 3.074 6.736 5.023 11.177 5.023 8.28 0 15.018-6.737 15.018-15.018 0-7.937-6.195-14.438-14.001-14.965zm-48.017 18.944h32.534c.095.344.202.682.32 1.016l-32.854.002zm32.135-6h-1.117v-2h1.528c-.182.651-.318 1.318-.411 2zm1.883-12h-4c-.553 0-1 .447-1 1v4c0 .553.447 1 1 1h4c.125 0 .242-.029.352-.071-.423.658-.799 1.349-1.117 2.071h-3.234c-.553 0-1 .447-1 1v4c0 .553.447 1 1 1h1.966c0 .007-.001.015-.001.021 0 .672.06 1.329.146 1.979h-32.13v-34h46.005l.012 17.054c-4.492.293-8.443 2.564-11.001 5.956 0-.003.002-.006.002-.01v-4c0-.552-.447-1-1-1zm-1 2v2h-2v-2zm5.982-31.5c0-.275.225-.5.5-.5s.5.225.5.5v5c0 .275-.225.5-.5.5s-.5-.225-.5-.5zm-11 0c0-.275.225-.5.5-.5s.5.225.5.5v5c0 .275-.225.5-.5.5s-.5-.225-.5-.5zm-11 0c0-.275.225-.5.5-.5s.5.225.5.5v5c0 .275-.225.5-.5.5s-.5-.225-.5-.5zm-11 0c0-.275.225-.5.5-.5s.5.225.5.5v5c0 .275-.225.5-.5.5s-.5-.225-.5-.5zm-5 3.5h3v1.5c0 1.379 1.121 2.5 2.5 2.5s2.5-1.121 2.5-2.5v-1.5h6v1.5c0 1.379 1.121 2.5 2.5 2.5s2.5-1.121 2.5-2.5v-1.5h6v1.5c0 1.379 1.121 2.5 2.5 2.5s2.5-1.121 2.5-2.5v-1.5h6v1.5c0 1.379 1.121 2.5 2.5 2.5s2.5-1.121 2.5-2.5v-1.5h3c.552 0 1 .448 1 1v.001l.004 4.999h-46.004v-5c0-.551.448-1 1-1zm-1 48.034v-1.016l33.722-.002c.182.344.382.674.589 1.001zm47 5.006c-7.178 0-13.018-5.84-13.018-13.018s5.84-13.018 13.018-13.018 13.018 5.84 13.018 13.018-5.84 13.018-13.018 13.018z">
	</path>
	<path d="m52.028 38.477c-1.059 0-2.085.282-3.003.822-.918-.54-1.944-.822-3.003-.822-3.309 0-6 2.69-6 5.998 0 1.757.751 3.375 2.063 4.516l.947 6.626c.007.05.032.091.046.138.016.054.028.106.053.156.031.063.072.116.114.17.034.043.063.089.103.126.051.047.11.079.17.114.047.028.088.063.14.082.086.034.18.047.275.056.031.003.058.019.09.019h1.5c1.654 0 3-1.346 3-3v-2.502c0-.275.225-.5.5-.5s.5.225.5.5v2.502c0 1.654 1.346 3 3 3h1.505c.032 0 .059-.016.09-.019.096-.009.189-.021.275-.056.052-.02.093-.054.14-.082.06-.035.119-.067.17-.114.04-.037.068-.083.103-.126.042-.054.083-.106.114-.169.024-.051.037-.104.053-.158.014-.046.039-.087.046-.137l.947-6.624c1.312-1.141 2.063-2.76 2.063-4.518-.001-3.308-2.692-5.998-6.001-5.998zm2.4 9.2c-.023.018-.035.044-.057.063-.076.068-.149.139-.202.228-.055.093-.084.194-.106.298-.005.024-.021.044-.024.069l-.879 6.142h-.637c-.552 0-1-.448-1-1v-2.502c0-1.379-1.121-2.5-2.5-2.5s-2.5 1.121-2.5 2.5v2.502c0 .552-.448 1-1 1h-.632l-.879-6.144c-.004-.029-.021-.052-.028-.08-.023-.099-.05-.197-.102-.286-.067-.115-.156-.215-.262-.294-1.016-.764-1.598-1.929-1.598-3.198 0-2.204 1.794-3.998 4-3.998.858 0 1.688.284 2.4.821.355.27.85.27 1.205 0 .712-.537 1.542-.821 2.4-.821 2.206 0 4 1.794 4 3.998.001 1.271-.582 2.438-1.599 3.202z">
	</path>
</svg>
