<?xml version="1.0" encoding="utf-8"?>
<!DOCTYPE svg PUBLIC "-//W3C//DTD SVG 20010904//EN" "http://www.w3.org/TR/2001/REC-SVG-20010904/DTD/svg10.dtd">
<svg version="1.0"
	xmlns="http://www.w3.org/2000/svg" width="130pt" height="130pt" viewBox="0 0 130 130" style="" preserveAspectRatio="xMidYMid meet">
	<g fill="#028a98" stroke="#028a98">
		<path d="M 46.414 26.107 L 22.233 50.213 16.578 45.607 C 13.467 43.073 10.286 41.000 9.508 41.000 C 5.516 41.000 1.000 45.303 1.000 49.107 C 1.000 49.664 3.329 52.583 6.176 55.593 L 11.352 61.066 7.210 65.286 C 1.889 70.707 0.437 74.650 2.196 78.902 C 2.913 80.637 13.836 92.391 26.468 105.023 C 51.367 129.922 52.546 130.733 59.245 127.554 C 61.137 126.656 77.305 111.202 95.173 93.211 C 130.044 58.102 130.520 57.477 127.607 50.688 C 126.854 48.935 124.607 45.946 122.612 44.047 C 119.414 41.001 119.061 40.192 119.624 37.193 C 120.239 33.914 119.837 33.365 108.381 21.848 C 97.012 10.419 96.356 9.931 93.168 10.513 C 90.214 11.052 89.286 10.606 84.961 6.561 C 80.590 2.472 79.595 2.000 75.340 2.000 L 70.594 2.000 46.414 26.107 M 80.421 22.922 C 79.890 26.393 80.232 26.857 91.847 38.395 C 103.372 49.845 103.952 50.269 107.301 49.726 C 110.240 49.249 111.219 49.619 113.607 52.112 L 116.433 55.062 89.739 81.756 L 63.045 108.450 59.038 104.537 L 55.030 100.623 52.268 103.062 C 50.748 104.403 49.144 106.063 48.703 106.750 C 48.262 107.438 47.386 108.000 46.756 108.000 C 45.755 108.000 14.000 76.466 14.000 75.472 C 14.000 74.712 19.113 70.000 19.938 70.000 C 20.403 70.000 23.387 72.813 26.567 76.250 C 37.288 87.838 41.482 91.060 47.738 92.514 C 50.898 93.249 53.661 93.672 53.878 93.455 C 54.095 93.239 53.731 90.308 53.069 86.943 C 51.903 81.020 51.533 80.495 41.433 70.456 C 35.695 64.753 31.000 59.594 31.000 58.991 C 31.000 58.388 40.940 47.973 53.088 35.845 L 75.176 13.794 78.072 16.569 C 80.520 18.914 80.884 19.898 80.421 22.922 M 121.916 47.894 C 124.039 50.575 125.000 52.884 125.000 55.306 C 125.000 58.592 122.840 60.985 92.343 91.497 C 74.382 109.466 58.601 124.582 57.274 125.086 C 55.947 125.591 53.835 125.746 52.582 125.431 C 51.328 125.116 40.109 114.631 27.651 102.130 C 6.208 80.612 5.000 79.201 5.000 75.661 C 5.000 72.695 5.808 71.056 8.913 67.728 C 12.805 63.555 12.837 63.543 14.940 65.446 L 17.055 67.360 13.527 70.972 C 11.587 72.959 10.000 75.020 10.000 75.553 C 10.000 76.085 17.992 84.504 27.760 94.260 L 45.520 112.000 54.581 112.000 L 63.642 112.000 91.571 83.985 C 106.932 68.577 119.667 55.773 119.871 55.531 C 120.074 55.290 118.895 53.384 117.249 51.296 C 114.822 48.217 114.468 47.169 115.373 45.750 C 117.051 43.121 118.516 43.601 121.916 47.894 M 106.374 23.874 C 116.428 33.959 117.167 34.964 116.559 37.733 C 115.727 41.517 111.310 45.794 107.464 46.537 C 104.749 47.062 103.587 46.191 93.634 36.172 L 82.768 25.234 83.956 21.634 C 85.321 17.496 90.378 13.400 94.517 13.079 C 95.076 13.036 100.412 17.893 106.374 23.874 M 82.106 8.084 C 86.285 11.393 86.862 13.040 84.524 14.980 C 83.317 15.982 82.297 15.611 78.935 12.949 L 74.824 9.692 51.410 33.090 C 31.680 52.807 27.731 56.320 26.308 55.422 C 25.379 54.836 24.477 53.930 24.303 53.408 C 24.129 52.886 34.698 41.780 47.791 28.729 C 74.620 1.985 74.498 2.058 82.106 8.084 M 45.976 84.303 C 44.810 85.786 43.319 87.000 42.665 87.000 C 42.010 87.000 34.748 80.262 26.526 72.026 L 11.576 57.052 14.504 53.996 L 17.432 50.940 32.765 66.273 L 48.098 81.606 45.976 84.303 M 12.847 46.338 L 15.043 48.675 12.949 51.338 C 10.516 54.431 9.347 54.624 6.829 52.345 C 3.610 49.432 5.040 44.000 9.026 44.000 C 9.920 44.000 11.640 45.052 12.847 46.338 M 56.800 106.200 C 58.830 108.230 58.155 109.000 54.345 109.000 C 50.753 109.000 50.721 108.965 52.500 107.000 C 54.604 104.675 55.170 104.570 56.800 106.200 M 50.000 88.000 C 50.000 89.111 49.333 90.000 48.500 90.000 C 46.978 90.000 46.449 87.885 47.667 86.667 C 48.934 85.399 50.000 86.008 50.000 88.000 "/>
	</g>
	<g fill="#028a98" stroke="#028a98">
		<path d="M 63.838 32.526 C 62.122 33.458 60.573 35.665 59.480 38.736 C 58.547 41.356 57.336 44.718 56.788 46.208 C 56.240 47.697 52.914 51.597 49.396 54.874 C 42.535 61.265 41.665 63.665 45.000 67.000 C 47.861 69.861 49.593 69.544 58.343 64.558 C 62.630 62.115 66.747 60.350 67.492 60.635 C 70.429 61.762 69.822 64.328 64.989 71.210 C 59.890 78.470 58.649 83.249 61.200 85.800 C 63.913 88.513 67.436 87.063 75.281 80.007 C 81.295 74.598 83.967 72.869 87.082 72.371 C 95.865 70.966 100.988 64.162 98.915 56.655 C 97.857 52.823 92.922 48.000 90.058 48.000 C 87.077 48.000 83.427 44.368 82.161 40.142 C 79.790 32.228 71.064 28.601 63.838 32.526 M 75.697 35.501 C 76.876 36.326 78.599 39.287 79.527 42.080 C 81.249 47.265 85.328 50.988 89.295 50.996 C 90.283 50.998 92.195 52.105 93.545 53.455 C 97.017 56.926 96.935 62.793 93.364 66.364 C 91.914 67.814 90.226 69.003 89.614 69.006 C 85.425 69.027 80.042 71.891 73.547 77.556 C 69.483 81.100 65.448 84.000 64.579 84.000 C 61.705 84.000 62.882 79.525 67.489 72.928 C 72.511 65.737 73.421 60.831 70.066 59.035 C 66.829 57.303 64.468 57.830 56.705 62.018 C 49.575 65.863 46.000 66.384 46.000 63.576 C 46.000 62.911 48.880 59.471 52.400 55.933 C 57.609 50.698 59.110 48.433 60.465 43.772 C 62.371 37.212 65.641 34.000 70.412 34.000 C 72.141 34.000 74.519 34.675 75.697 35.501 "/>
	</g>
</svg>
