<svg fill="#028a98" version="1.0"
	xmlns="http://www.w3.org/2000/svg" width="298.667" height="298.667" viewBox="0 0 224 224">
	<path d="M69 1.6c-1.9.8-4.8 2.7-6.3 4.2-5.3 5-5.7 6.7-5.7 25 0 16.3.1 16.9 2.3 19 1.9 1.8 3.5 2.2 9 2.2H75v5.9c0 4.4-.4 6-1.6 6.5-.9.3-1.4 1.5-1.2 2.8.2 1.9 1 2.4 4.7 2.6 8.2.6 11.9-2 7.1-5-1.6-1-2-2.4-2-7V52h7c6.2 0 7.4-.3 9.5-2.5 1.4-1.3 2.5-3.6 2.5-5s.2-2.5.6-2.5c.3 0 5.8 1.4 12.2 3.1 6.4 1.6 19.6 5 29.2 7.5 9.6 2.5 21.6 5.7 26.5 7.2 8.1 2.3 11 2.6 29 3 19.3.4 20.1.3 22.8-1.8l2.7-2.1V43c0-14.7-.2-16.1-2-17.8-1.9-1.7-4.4-2-26.3-2.5-13.3-.3-33-1.5-43.7-2.6-10.7-1-26.6-2.5-35.3-3.2l-15.8-1.2-1.8-4.2C96.9 6.6 92.2 2.4 87.2 1 81.9-.4 73.1-.2 69 1.6zm18.6 7C93.2 11.3 94 14 94 30.5V45H62.8l.4-14.9c.3-13.3.5-15.3 2.4-17.8 1.1-1.5 3.2-3.4 4.5-4 3.5-1.8 13.5-1.6 17.5.3zM119.5 24c38.6 3.3 58.1 5 59.2 5 1 0 1.3 3.1 1.3 13 0 7.1-.3 13-.6 13-.7 0-32.2-8.1-65.6-16.9-6.5-1.7-12-3.1-12.3-3.1-.3 0-.5-2.7-.5-6v-6h3.8c2 0 8.7.4 14.7 1zM217 43v13h-30V30h30v13z"/>
	<path d="M38 72.5c-16.8 4.8-26.3 15.3-29.2 32.3-1 6.3-1 8.8.4 17.2 1.9 10.5 4.6 17.4 12.7 31.5 2.8 4.9 5.1 9.5 5.1 10.2 0 .9-3.3 1.3-12.7 1.5l-12.8.3v5l14 .3c9.3.2 14.2.6 14.6 1.4.4.7 1 3.5 1.4 6.3 2 16.4 5.2 31 8 36.6 3.9 7.5 11.2 10.6 16.3 7 5.1-3.6 10.7-19.2 13.1-36.4 1.4-10.3 3.6-15.5 6.9-16.4 3.3-.8 6.9 3.1 7.7 8.5 1.9 11.7 5.6 28.5 7.5 33.5 1.2 3.1 3.7 7.3 5.6 9.3 3 3.3 3.8 3.6 7.1 3.1 5.6-.9 10.4-6.7 13.1-15.9 1.9-6.4 2.9-11.6 6-31.8l.7-4.5 50-.5 50-.5v-5l-48.2-.3c-41.5-.2-48.3-.4-48.3-1.7 0-1.5 3.9-9 7-13.5 3.2-4.6 8-15.9 9.4-22.2 2.6-11.2 2.8-16.9 1.2-24.6-2-9.6-5-15.3-10.7-20.7-13.8-12.9-33.2-14.9-51.4-5.4l-6.1 3.2-3.9-2.5C63 71.9 48.3 69.6 38 72.5zm19.9 6.6c8.6 1.9 13.5 5 22.7 14.3 6.8 6.8 9.8 10.7 12 15.3 2.2 5 3.3 6.3 5 6.3 1.4 0 2.5-.8 2.9-2 .9-2.9-5.5-14.4-12-21.5-3-3.3-5.5-6.3-5.5-6.7 0-1.2 8.4-4.7 14.1-5.9 2.9-.6 8.1-.9 11.6-.6 21.4 2 32.7 17.9 29.4 41.4-1.5 10.4-3.5 15.6-11 28.7-7.9 13.5-9.7 19.1-12.7 37.6-2.9 18.5-5.6 27.4-9 29.7-2.3 1.4-2.6 1.4-4.4-.2-3.5-3.2-6.2-12.4-11-38.5-.6-3.1-1.9-6.9-2.9-8.6-2.3-3.8-8.3-6.8-11.9-5.9-7 1.7-10.3 6.7-12.2 18.5-7.7 47.6-17.9 47.6-24.4 0-1.7-12.2-4.7-20.1-12.9-34.5-6.8-11.9-9.6-20.2-10.4-31-1.1-14.8 4.1-26.1 14.9-32.8 6.5-4.1 18.9-5.7 27.7-3.6z"/>
	<path d="M32.2 91.6c-5.1 4-8.4 10.5-8.9 17.7-.6 7.3 1 10.4 4.5 9.3 1.9-.6 2.2-1.5 2.2-6.2 0-6.9 1.9-11.5 6.6-15.8 6.3-5.7 2.3-10.4-4.4-5z"/>
</svg>