<?xml version="1.0" encoding="utf-8"?>
<!DOCTYPE svg PUBLIC "-//W3C//DTD SVG 20010904//EN" "http://www.w3.org/TR/2001/REC-SVG-20010904/DTD/svg10.dtd">
<svg version="1.0"
	xmlns="http://www.w3.org/2000/svg" width="130pt" height="130pt" viewBox="0 0 130 130" style="" preserveAspectRatio="xMidYMid meet">
	<g fill="#028a98" stroke="#028a98">
		<path d="M 52.684 11.449 C 47.001 13.476 44.671 15.617 40.658 22.500 C 38.646 25.951 37.731 26.581 34.000 27.089 C 28.110 27.891 25.000 31.522 25.000 37.598 C 25.000 40.730 24.385 42.744 22.961 44.272 C 19.166 48.345 19.292 50.733 23.738 59.042 C 24.004 59.540 15.171 70.911 5.583 82.414 C 1.163 87.717 0.489 91.955 3.583 94.993 C 7.151 98.495 10.095 98.401 17.054 94.563 C 42.350 80.612 45.451 79.597 48.419 84.302 C 49.473 85.973 45.567 94.623 35.469 112.987 C 31.624 119.978 31.525 122.869 35.007 126.417 C 37.579 129.037 42.156 128.823 45.732 125.917 C 47.368 124.588 53.384 119.693 59.103 115.040 C 68.770 107.174 79.305 100.000 81.191 100.000 C 81.636 100.000 82.000 103.755 82.000 108.345 C 82.000 115.160 82.335 116.994 83.829 118.345 C 87.610 121.767 93.000 119.068 93.000 113.753 C 93.000 109.857 94.003 108.000 96.107 108.000 C 97.807 108.000 98.000 108.818 98.000 116.045 C 98.000 123.254 98.255 124.346 100.455 126.545 C 103.522 129.612 104.478 129.612 107.545 126.545 C 109.939 124.152 110.000 123.710 110.000 108.667 L 110.000 93.243 113.118 91.951 C 116.476 90.560 119.986 85.741 120.003 82.500 C 120.008 81.325 121.265 79.787 123.048 78.773 C 130.268 74.664 130.113 63.178 122.785 59.389 C 120.670 58.295 120.000 57.221 120.000 54.925 C 120.000 50.744 117.501 46.310 114.176 44.591 C 112.427 43.686 108.794 43.200 104.443 43.289 C 93.539 43.510 88.008 39.292 86.474 29.584 C 84.990 20.187 79.300 13.380 70.920 10.977 C 66.139 9.606 57.203 9.837 52.684 11.449 M 72.982 14.991 C 78.157 17.631 81.500 22.241 83.316 29.241 C 85.582 37.974 87.830 41.166 93.712 44.000 C 99.521 46.799 99.886 48.135 95.110 49.111 C 93.328 49.476 90.738 50.837 89.355 52.136 C 87.124 54.232 86.904 55.063 87.407 59.499 C 88.106 65.676 88.106 66.304 87.415 72.500 C 86.945 76.704 87.198 77.865 89.005 79.790 C 90.186 81.050 92.429 82.336 93.988 82.648 C 96.596 83.169 97.944 85.182 97.986 88.616 C 97.994 89.230 95.188 90.750 91.750 91.995 C 78.445 96.813 68.371 103.176 51.500 117.415 C 44.125 123.641 41.958 124.966 39.500 124.756 C 36.906 124.535 36.457 124.057 36.185 121.230 C 35.940 118.682 37.653 114.693 43.935 103.179 C 48.473 94.862 52.000 87.199 52.000 85.654 C 52.000 82.086 47.918 78.000 44.353 78.000 C 42.823 78.000 35.062 81.557 26.768 86.060 C 15.351 92.259 11.179 94.049 8.710 93.810 C 6.026 93.551 5.447 93.040 5.178 90.689 C 4.931 88.540 5.969 86.539 9.588 82.189 C 12.190 79.060 17.259 72.788 20.851 68.250 C 24.443 63.713 27.936 60.000 28.614 60.000 C 29.291 60.000 30.364 61.574 30.999 63.497 C 31.634 65.420 33.119 67.670 34.299 68.497 C 37.135 70.484 44.375 70.458 46.037 68.456 C 46.963 67.340 48.177 67.108 50.409 67.620 C 57.978 69.357 64.228 66.457 65.890 60.438 C 66.872 56.880 66.026 51.941 64.021 49.525 C 63.295 48.650 63.274 47.410 63.954 45.622 C 66.974 37.677 58.093 28.679 49.628 31.107 C 47.158 31.815 46.179 31.578 44.301 29.813 C 43.035 28.624 42.000 26.932 42.000 26.054 C 42.000 23.619 47.734 17.191 51.842 15.021 C 56.967 12.313 67.704 12.298 72.982 14.991 M 40.723 30.973 C 42.496 32.054 44.232 34.077 44.582 35.469 C 45.340 38.491 47.555 38.808 48.290 36.000 C 49.042 33.124 55.555 33.233 58.686 36.174 C 61.117 38.458 61.840 44.124 60.060 46.938 C 59.442 47.914 59.768 49.160 61.075 50.822 C 63.697 54.155 63.579 59.755 60.826 62.686 C 57.909 65.790 51.073 65.994 50.290 63.000 C 49.542 60.142 47.769 60.539 45.797 64.006 C 42.515 69.773 34.000 67.147 34.000 60.368 C 34.000 57.928 34.664 56.611 36.500 55.408 C 39.024 53.755 39.913 51.000 37.923 51.000 C 37.331 51.000 35.496 52.350 33.846 54.000 C 30.288 57.558 26.714 57.857 24.557 54.777 C 21.724 50.733 23.472 45.350 28.125 43.789 C 29.289 43.398 29.287 42.927 28.108 40.714 C 26.329 37.373 27.882 33.157 31.784 30.738 C 35.312 28.550 36.814 28.589 40.723 30.973 M 114.033 48.681 C 116.914 51.105 117.173 51.776 116.732 55.681 C 116.380 58.808 116.604 60.000 117.546 60.000 C 118.261 60.000 120.231 61.165 121.923 62.589 C 124.335 64.618 125.000 65.975 125.000 68.866 C 125.000 72.822 122.722 77.000 120.565 77.000 C 119.839 77.000 118.595 76.023 117.803 74.829 C 116.952 73.549 115.873 72.961 115.170 73.395 C 114.274 73.948 114.354 74.667 115.489 76.288 C 117.821 79.618 117.396 84.695 114.545 87.545 C 111.027 91.064 104.913 90.976 102.073 87.365 C 99.423 83.996 99.483 83.024 102.517 80.145 C 104.728 78.048 105.969 74.000 104.401 74.000 C 104.072 74.000 102.541 75.350 101.000 77.000 C 99.459 78.650 97.314 80.000 96.234 80.000 C 93.201 80.000 89.000 76.183 89.000 73.427 C 89.000 70.724 92.187 67.000 94.500 67.000 C 95.325 67.000 96.000 66.325 96.000 65.500 C 96.000 64.572 95.059 64.000 93.535 64.000 C 88.721 64.000 87.450 57.364 91.635 54.073 C 95.250 51.229 97.704 51.472 101.000 55.000 C 102.541 56.650 104.072 58.000 104.401 58.000 C 105.833 58.000 104.811 54.427 102.750 52.230 L 100.500 49.830 102.861 47.915 C 106.166 45.234 110.270 45.515 114.033 48.681 M 105.777 92.841 C 106.743 93.454 106.987 97.406 106.777 109.076 C 106.505 124.214 106.458 124.506 104.250 124.820 C 102.100 125.125 102.000 124.827 102.000 118.135 C 102.000 109.603 100.845 106.250 97.629 105.443 C 93.780 104.477 91.000 106.533 91.000 110.344 C 91.000 114.479 88.872 117.548 86.607 116.679 C 85.170 116.128 84.966 114.705 85.212 106.931 L 85.500 97.829 92.000 94.987 C 98.568 92.115 103.438 91.357 105.777 92.841 "/>
	</g>
	<g fill="#028a98" stroke="#028a98">
		<path d="M 118.333 12.615 C 116.798 14.958 116.773 15.505 118.091 17.865 C 119.999 21.281 124.157 21.843 126.939 19.061 C 129.530 16.470 129.546 14.546 127.000 12.000 C 124.171 9.171 120.415 9.437 118.333 12.615 M 124.812 15.265 C 125.210 17.331 122.324 18.724 120.800 17.200 C 119.276 15.676 120.669 12.790 122.735 13.188 C 123.693 13.372 124.628 14.307 124.812 15.265 "/>
	</g>
	<g fill="#028a98" stroke="#028a98">
		<path d="M 103.223 21.557 C 101.957 22.443 101.000 24.165 101.000 25.557 C 101.000 27.913 104.086 32.000 105.865 32.000 C 107.935 32.000 112.000 27.682 112.000 25.484 C 112.000 23.226 108.765 20.000 106.500 20.000 C 105.920 20.000 104.445 20.701 103.223 21.557 M 108.500 25.514 C 108.500 26.812 107.721 27.611 106.250 27.820 C 104.593 28.055 104.000 27.638 104.000 26.236 C 104.000 25.190 104.316 24.018 104.701 23.632 C 106.028 22.306 108.500 23.530 108.500 25.514 "/>
	</g>
	<g fill="#028a98" stroke="#028a98">
		<path d="M 73.228 68.287 C 69.066 70.189 69.119 75.781 73.325 78.433 C 75.638 79.892 80.392 77.185 80.827 74.162 C 81.420 70.035 76.957 66.584 73.228 68.287 M 77.500 73.500 C 77.500 76.478 73.596 76.181 73.170 73.170 C 72.895 71.231 73.231 70.895 75.170 71.170 C 76.723 71.390 77.500 72.167 77.500 73.500 "/>
	</g>
	<g fill="#028a98" stroke="#028a98">
		<path d="M 63.750 19.080 C 61.713 20.266 61.355 25.955 63.200 27.800 C 64.747 29.347 69.253 29.347 70.800 27.800 C 72.754 25.846 72.283 20.222 70.066 19.035 C 67.670 17.753 66.009 17.765 63.750 19.080 M 68.964 22.456 C 70.476 24.279 69.494 26.000 66.941 26.000 C 65.725 26.000 65.000 25.315 65.000 24.167 C 65.000 20.892 66.963 20.045 68.964 22.456 "/>
	</g>
	<g fill="#028a98" stroke="#028a98">
		<path d="M 33.686 2.116 C 29.623 4.479 29.839 9.773 34.090 12.048 C 39.356 14.866 43.724 6.021 38.777 2.557 C 36.184 0.740 36.068 0.730 33.686 2.116 M 38.559 6.096 C 39.441 7.522 36.522 10.441 35.096 9.559 C 34.493 9.187 34.000 8.009 34.000 6.941 C 34.000 4.817 37.382 4.190 38.559 6.096 "/>
	</g>
	<g fill="#028a98" stroke="#028a98">
		<path d="M 93.223 2.557 C 90.090 4.751 90.235 9.452 93.500 11.592 C 95.816 13.109 96.184 13.109 98.500 11.592 C 101.765 9.452 101.910 4.751 98.777 2.557 C 97.555 1.701 96.305 1.000 96.000 1.000 C 95.695 1.000 94.445 1.701 93.223 2.557 M 98.000 6.941 C 98.000 9.462 96.285 10.482 94.516 9.013 C 92.695 7.502 93.687 5.000 96.107 5.000 C 97.314 5.000 98.000 5.703 98.000 6.941 "/>
	</g>
	<g fill="#028a98" stroke="#028a98">
		<path d="M 59.200 90.200 C 58.540 90.860 58.000 92.570 58.000 94.000 C 58.000 97.305 59.695 99.000 63.000 99.000 C 64.430 99.000 66.140 98.460 66.800 97.800 C 67.460 97.140 68.000 95.430 68.000 94.000 C 68.000 92.570 67.460 90.860 66.800 90.200 C 65.253 88.653 60.747 88.653 59.200 90.200 M 64.820 93.828 C 65.057 95.443 64.624 96.000 63.129 96.000 C 60.497 96.000 59.512 94.293 61.064 92.423 C 62.688 90.466 64.420 91.115 64.820 93.828 "/>
	</g>




















</svg>
