<svg fill="#028a98" version="1.0"
	xmlns="http://www.w3.org/2000/svg" width="298.667" height="298.667" viewBox="0 0 224 224">
	<path d="M51.5.7C25.7 4.8 7.9 20.2 2.5 43.3 1.7 46.7 1 54.2 1 60c0 18.9 5.3 35.7 17.3 55.8C30 135.3 34 146.2 36 163.5c2.4 21.1 7.4 42.4 11.8 49.4 6.4 10.3 15.9 13.7 22.1 7.7 7.7-7.3 13.2-23.5 18.1-52.8 3-17.8 2.9-17.6 6.2-21.4 2.3-2.6 3.8-3.4 6.5-3.4 7.8 0 10.4 4.4 13.3 23.1 3.5 21.8 8.6 40.1 13.4 48.3 3.9 6.6 7.1 9.1 11.9 9.1 10 0 16.8-9.2 21.7-29.2 1.5-6.5 3.1-14.3 3.5-17.3.9-7.8 1.3-8.8 3.8-9.6 1.2-.4 4.2-2.5 6.7-4.7 2.5-2.3 8.6-7.7 13.5-12.1 17.9-16 27.1-25.9 30.3-32.7 1.7-3.6 3.6-8.5 4.1-10.9 1.6-6.9 1.4-79.5-.2-80.7-.6-.6-4.6-1.8-8.7-2.7C198.8 20 184.6 13 167.4.5c-.9-.6-1.9-.3-3.3.9-1.8 1.7-2.5 1.7-7.3.5C148.5-.2 133.9.3 125 3c-7.7 2.3-15.5 5.8-20.2 9.1-3.4 2.4-4.3 2.4-8.1-.5C91.8 7.9 85.9 5.3 77.9 3 70.5 1 57.1-.2 51.5.7zm20.2 7.9c8.9 1.8 16.7 5.1 23.2 9.7 2.5 1.9 5.1 3.7 5.7 4 .7.4 2.9-.7 5-2.3 5.7-4.6 17.1-9.9 24.9-11.5 9.9-2.1 22.5-1.8 22.5.4 0 .4-3.5 2.6-7.7 4.8-8.3 4.4-19.6 8.5-28.4 10.4-3 .6-6 1.6-6.6 2.1-2.1 1.7-1.8 74 .3 82.1 2.8 11 8.1 19 18.4 28.1 3 2.7 9.6 8.6 14.5 13.1 5 4.6 10.5 9.5 12.4 11.1l3.3 2.8-.7 7c-1.4 14.9-6.7 34.7-10.9 41.1-.9 1.3-2.7 3.2-4.1 4.1-8.8 5.7-15.4-8.7-22.5-48.9-1.7-9.3-3.9-18.6-5-20.6-6.8-13.3-23.1-13.3-29.7.1-1.4 2.6-3.3 10.4-4.8 19.4-4.5 26.2-9.2 42.3-14.4 48.4-2.3 2.8-3.1 3.2-5.6 2.6-8.5-2.2-13.6-16.4-18.5-51.8-2.8-20-6.3-30.6-15.7-46.6-13.7-23.5-17-32.1-19.4-51.1-1.4-11 .7-24.5 5.2-33.7 5.7-11.6 19-21.7 31.9-24.3 3-.6 6.4-1.3 7.5-1.5 4.6-.9 12-.5 19.2 1zM173.4 13c.3 0 2.2 1.2 4.3 2.6 6.5 4.4 14.9 8.3 26 11.9 5.8 1.9 11.2 3.5 12 3.5 1.2 0 1.4 5.6 1.1 38.2l-.3 38.3-3.2 6.7c-3.6 7.7-7.2 11.5-30.2 32.3-11.6 10.5-16.7 14.6-17.6 13.9-.7-.5-9.6-8.4-19.6-17.6C114.8 114.6 116 117.6 116 67V31.5l9.8-2.8c11.1-3.2 24.8-9.6 34.2-16.1l6.5-4.4 3.2 2.4c1.7 1.3 3.4 2.4 3.7 2.4z"/>
	<path d="M50.6 16.6c-.9.8-1.6 3.2-1.6 5.3 0 5-5.1 15.1-9.7 19.2-4.7 4.1-10.6 6.7-17.4 7.7-4 .5-5.5 1.2-5.7 2.5-.5 2.7 1.7 4.7 5.2 4.7 9.8 0 21.9 8.9 25.5 18.6 1.2 3 2.1 7 2.1 8.8 0 3.7 1.9 5.9 4.7 5.4 1.4-.2 2-1.7 2.5-6C58 68.1 68.8 58 85.2 55.5c4.1-.6 5.8-3.3 3.3-5.1-.8-.6-3.5-1.4-6-1.7-7-1-15-5.3-19.1-10.2-4.1-5-7.4-13-7.4-17.8 0-3.1-1.4-5.7-3.1-5.7-.4 0-1.5.7-2.3 1.6zm8.8 27.1c2.1 2.4 5.4 5.2 7.3 6.4l3.4 2.1-5.3 3.9c-2.9 2.2-6.6 5.9-8.3 8.4-1.6 2.4-3.3 4.5-3.7 4.5-.3 0-2.2-2.2-4.1-4.9-2-2.7-5.6-6.3-8.1-8.1-2.5-1.7-4.6-3.4-4.6-3.9 0-.4 1.2-1.4 2.6-2.2 3.1-1.6 13.4-12.5 13.5-14.2 0-.7.8-.1 1.7 1.3.9 1.4 3.4 4.4 5.6 6.7zM162.5 21.1c-5.9 3.9-20.6 11-28.2 13.5-4.3 1.4-8.4 3.1-9 3.6-1 .8-1.3 8.5-1.3 32.2 0 43.5-1.5 40 29.4 68.1 10.5 9.6 12.1 10.7 14.2 9.9 1.3-.5 9.7-7.7 18.8-16.1 13.4-12.4 16.9-16.2 19.2-21l2.9-5.8.3-33c.3-32.8.3-33-1.9-34.7-1.1-1-2.8-1.8-3.6-1.8-3.1 0-20-7.4-27.9-12.1-4.5-2.7-8.6-4.9-9-4.8-.5 0-2.2.9-3.9 2zm14.2 11.1c5.4 2.9 13.2 6.5 17.3 7.9l7.5 2.7v30.8c0 38.4 1.3 34.7-19.5 53.7-8.2 7.5-15.1 13.7-15.3 13.7-.4 0-1.4-.8-17.7-15.5-6.7-6.1-13.4-13-14.9-15.5l-2.6-4.5V42.8l7.5-2.7c4.1-1.4 11.8-5 17-7.8 5.2-2.8 9.8-5.2 10.2-5.2.4-.1 5.1 2.3 10.5 5.1z"/>
	<path d="M181.3 54.5c-1.1.8-7.1 7.8-13.3 15.5-6.1 7.7-11.5 14-11.8 14-.3 0-1.6-1-3-2.3-3.4-3.2-11.1-3.1-14.6.2-3 2.9-4.1 7.5-2.7 11.4 1.6 4 15.8 17.4 19 17.9 6.6 1 8.1-.4 24.2-20.4 8.5-10.5 16.2-20.6 17.2-22.2 2.5-4.5 2.1-8-1.4-12.1-2.6-3-3.8-3.5-7.3-3.5-2.3 0-5.1.7-6.3 1.5zm8.1 6.1c.9.8 1.6 2.2 1.6 3.1 0 1.3-11 15.7-26.6 34.5-3.1 3.8-6.3 6.8-7.3 6.8-.9 0-4.7-3.1-8.5-6.9-5.2-5.2-6.7-7.4-6.4-9.2.5-4 4.8-3.7 9.4.5 2.2 2 4.4 3.6 5 3.6 1.5 0 5.2-4.3 17.2-19.7 11.7-15 12.6-15.7 15.6-12.7z"/>
</svg>