<svg xmlns="http://www.w3.org/2000/svg" viewBox="0 0 142.34 127.18"><defs><style>.cls-1{fill:#249778;}</style></defs><g id="Layer_2" data-name="Layer 2"><g id="Layer_1-2" data-name="Layer 1"><g id="braces"><path class="cls-1" d="M94.05,56a7.63,7.63,0,0,1-7.63,7.62H55.92A7.62,7.62,0,0,1,48.3,56h0V50.88H9.81a38.31,38.31,0,0,0,6.51,11.48C26.69,74.92,27.45,87.78,33.5,117a12.72,12.72,0,0,0,20.34,7.43c4.62-3.66,4.27-6,10-29.41a7.62,7.62,0,0,1,14.79,0l5.49,22.42a12.72,12.72,0,0,0,20.34,6.83c4.7-3.78,4-5.21,10.85-38.48,4.17-20.92,12.5-21.66,17.23-34.92H94.05Z"></path><path class="cls-1" d="M139.8,40.71h-5.08A38.13,38.13,0,0,0,84.24,2.1a39.68,39.68,0,0,1-26.13,0A38.13,38.13,0,0,0,7.63,40.71H2.54a2.54,2.54,0,0,0,0,5.08H48.3V40.71a7.63,7.63,0,0,1,7.62-7.63h30.5a7.64,7.64,0,0,1,7.63,7.63v5.08H139.8a2.54,2.54,0,0,0,0-5.08ZM71.17,22.91a61.67,61.67,0,0,1-29.28-8,2.54,2.54,0,0,1,2.54-4.32,58,58,0,0,0,26.74,7.24,57.69,57.69,0,0,0,26.64-7.24,2.54,2.54,0,0,1,2.54,4.32A61.62,61.62,0,0,1,71.17,22.91Z"></path><path class="cls-1" d="M61,43.25v2.54H58.46a2.55,2.55,0,0,0,0,5.09H61v2.54a2.55,2.55,0,0,0,5.09,0V50.88H76.26v2.54a2.54,2.54,0,0,0,5.08,0V50.88h2.54a2.55,2.55,0,0,0,0-5.09H81.34V43.25a2.54,2.54,0,0,0-5.08,0v2.54H66.09V43.25a2.55,2.55,0,0,0-5.09,0Z"></path></g></g></g></svg>