<svg xmlns="http://www.w3.org/2000/svg" viewBox="0 0 149.79 127.18"><defs><style>.cls-1{fill:#249778;}</style></defs><g id="Layer_2" data-name="Layer 2"><g id="Layer_1-2" data-name="Layer 1"><g id="bacteria"><path class="cls-1" d="M105.06,66.34c-3.43,6.31-9.65,10.38-12.79,25.38-5.58,27.38-5.2,29.69-9.3,33a10.89,10.89,0,0,1-17.46-5.87l-4.7-19.23a6.54,6.54,0,0,0-12.72,0c-4.9,20.09-4.64,22.16-8.54,25.2A10.9,10.9,0,0,1,24.25,123a10.78,10.78,0,0,1-2.11-4.53c-5.32-25.67-6-36.34-14.74-46.87A32.72,32.72,0,0,1,29.72,18.3C43.24,17.13,46.27,24.14,61,21.15a36.2,36.2,0,0,0-1.4,11.53C49.52,34,40.77,31.35,31.79,26.86a2.59,2.59,0,0,0-2.59,4.41,51.11,51.11,0,0,0,31.14,6.57,36.49,36.49,0,0,0,42.73,28.94c.67-.13,1.33-.28,2-.44Z"></path><path class="cls-1" d="M64.83,31.14A31.15,31.15,0,0,1,96,0c32.91,0,43.29,44.82,13.54,59.2A31.14,31.14,0,0,1,64.83,31.14ZM96,5.19a26,26,0,1,0,26,26A26,26,0,0,0,96,5.19Z"></path><path class="cls-1" d="M147.88,83.05a6.47,6.47,0,0,1-9.17,0h0L121.93,66.29a6.5,6.5,0,0,1,9.19-9.19l16.76,16.77a6.48,6.48,0,0,1,0,9.17Z"></path><path class="cls-1" d="M121.93,59.69c-1.43,0-1.43-.33-7.6-6.51A2.61,2.61,0,0,1,118,49.49l5.76,5.77a2.59,2.59,0,0,1-1.84,4.43Z"></path><path class="cls-1" d="M96,52.22c-2.88,0-3.87-1.82-5-1.64a2.64,2.64,0,1,1-.93-5.19c3.68-.65,5,1.74,6.17,1.53s1.56-2.93,5.19-3.6,5,1.74,6.18,1.53a2.63,2.63,0,1,1,.91,5.19h0c-3.66.67-5-1.77-6.15-1.53S100.6,52.22,96,52.22Z"></path><path class="cls-1" d="M88.61,29.33C90.79,26.27,93.38,27,94,26s-.93-3.16,1.17-6.22,4.72-2.29,5.42-3.3a2.6,2.6,0,0,1,4.28,3c-2.15,3.09-4.74,2.28-5.45,3.29s1,3.17-1.14,6.23-4.75,2.29-5.45,3.3a2.59,2.59,0,0,1-4.25-2.88Z"></path><path class="cls-1" d="M80.4,33.74a2.6,2.6,0,1,1-2.59-2.6A2.6,2.6,0,0,1,80.4,33.74Z"></path><path class="cls-1" d="M109,33.74a2.6,2.6,0,1,1-2.59-2.6A2.6,2.6,0,0,1,109,33.74Z"></path><path class="cls-1" d="M93.38,13a2.6,2.6,0,1,1-2.59-2.6A2.59,2.59,0,0,1,93.38,13Z"></path></g></g></g></svg>