<svg xmlns:dc="http://purl.org/dc/elements/1.1/"
	xmlns:cc="http://creativecommons.org/ns#"
	xmlns:rdf="http://www.w3.org/1999/02/22-rdf-syntax-ns#"
	xmlns:svg="http://www.w3.org/2000/svg"
	xmlns="http://www.w3.org/2000/svg" width="134" height="130" viewBox="0 0 134 130" version="1.1" id="svg3144">
	<metadata id="metadata3150">
		<rdf:RDF>
			<cc:Work rdf:about="">
				<dc:format>image/svg+xml</dc:format>
				<dc:type rdf:resource="http://purl.org/dc/dcmitype/StillImage"/>
				<dc:title/>
			</cc:Work>
		</rdf:RDF>
	</metadata>
	<defs id="defs3148"/>
	<g fill="none" fill-rule="evenodd" id="g3142">
		<path stroke="#249778" stroke-linecap="round" stroke-linejoin="round" stroke-width="3" d="M89.065 20.462c-5.01.295-12.301-.02-19.669-3.626-5.295-2.592-7.36-5.803-10.276-7.495C42.731-.172 23.398.651 12.047 11.337c-3.044 2.865-5.206 6.137-6.696 9.592M2.735 31.134c-1.281 11.535 2.273 22.722 3.7 26.105a72.859 72.859 0 0 0 5.86 11.103c1.12 1.845 2.245 3.691 3.275 5.615a46.971 46.971 0 0 1 5.682 16.867c.646 7.137 1.85 14.21 3.6 21.16 1.366 5.093 4.231 15.685 13.728 15.685 3.051 0 11.164 0 16.337-37.039.84-5.919 2.909-6.76 4.197-6.971 1.285.212 3.354 1.052 4.196 6.964 5.173 37.046 13.286 37.046 16.337 37.046 9.495 0 12.362-10.592 13.729-15.653a137.691 137.691 0 0 0 3.608-21.195 46.922 46.922 0 0 1 5.68-16.864c1.027-1.924 2.151-3.77 3.271-5.615a72.606 72.606 0 0 0 5.869-11.107c2.282-5.407 10.18-31.006-5.609-45.894C95.108.888 76.247-.66 60.442 8.42M35.548 12.004c-.032.034 0 0-.03.034" id="path3124"/>
		<path fill="#FFF" d="M36.637 27.326l3.656-.402-3.656-.4c-5.32-.584-9.523-4.775-10.108-10.083l-.403-3.647-.402 3.647c-.585 5.308-4.787 9.5-10.107 10.082l-3.657.401 3.657.402c5.32.584 9.522 4.775 10.107 10.083l.402 3.648.403-3.648c.585-5.308 4.787-9.499 10.108-10.083" id="path3126"/>
		<path stroke="#249778" stroke-linecap="round" stroke-linejoin="round" stroke-width="3" d="M36.637 27.326l3.656-.402-3.656-.4c-5.32-.584-9.523-4.775-10.108-10.083l-.403-3.647-.402 3.647c-.585 5.308-4.787 9.5-10.107 10.082l-3.657.401 3.657.402c5.32.584 9.522 4.775 10.107 10.083l.402 3.648.403-3.648c.585-5.308 4.787-9.499 10.108-10.083z" id="path3128"/>
		<path fill="#FFF" d="M102.363 29.233c-7.531 4.36-15.869 7.616-24.664 9.636-1.055.24-1.79 1.056-1.79 1.987v31.029c.004 5.38 2.673 10.51 7.348 14.133l18.838 14.569c.923.715 2.334.715 3.257 0l18.84-14.57c4.674-3.624 7.337-8.753 7.341-14.132V40.858c0-.93-.734-1.744-1.789-1.987-8.796-2.02-17.133-5.277-24.667-9.636a2.78 2.78 0 0 0-2.714-.002" id="path3130"/>
		<path stroke="#249778" stroke-linecap="round" stroke-linejoin="round" stroke-width="3" d="M102.363 29.233c-7.531 4.36-15.869 7.616-24.664 9.636-1.055.24-1.79 1.056-1.79 1.987v31.029c.004 5.38 2.673 10.51 7.348 14.133l18.838 14.569c.923.715 2.334.715 3.257 0l18.84-14.57c4.674-3.624 7.337-8.753 7.341-14.132V40.858c0-.93-.734-1.744-1.789-1.987-8.796-2.02-17.133-5.277-24.667-9.636a2.78 2.78 0 0 0-2.714-.002z" id="path3132"/>
		<path fill="#FFF" d="M126.694 42.57V72.04c-.003 4.22-2.094 8.243-5.761 11.086l-17.207 13.312-17.215-13.312c-3.668-2.84-5.76-6.865-5.764-11.085V42.57c8.136-2.026 15.876-5.06 22.975-9.003 7.097 3.942 14.837 6.976 22.972 9.004" id="path3134"/>
		<path stroke="#249778" stroke-linecap="round" stroke-linejoin="round" stroke-width="3" d="M126.694 42.57V72.04c-.003 4.22-2.094 8.243-5.761 11.086l-17.207 13.312-17.215-13.312c-3.668-2.84-5.76-6.865-5.764-11.085V42.57c8.136-2.026 15.876-5.06 22.975-9.003 7.097 3.942 14.837 6.976 22.972 9.004z" id="path3136"/>
		<path fill="#FFF" d="M116.925 60.73h-8.922v-8.901h-8.565v8.901h-8.923v8.544h8.923v8.9h8.565v-8.9h8.922z" id="path3138"/>
		<path stroke="#249778" stroke-linecap="round" stroke-linejoin="round" stroke-width="3" d="M116.925 60.73h-8.922v-8.901h-8.565v8.901h-8.923v8.544h8.923v8.9h8.565v-8.9h8.922z" id="path3140"/>
	</g>
	<path style="fill:#249778;stroke-width:0.00591617" d="M 25.26047,42.067897 C 24.784067,41.642231 24.767223,41.579264 24.48331,39.16252 24.323699,37.803865 24.080051,36.300706 23.941871,35.822166 23.03597,32.684891 20.406473,30.053001 17.257485,29.131698 16.658084,28.956331 15.155104,28.699859 13.917529,28.56176 c -1.237575,-0.138099 -2.440272,-0.349412 -2.672661,-0.469585 -0.603629,-0.312148 -0.855155,-1.144872 -0.533621,-1.76665 0.134239,-0.25959 0.368284,-0.53846 0.5201,-0.619709 0.151815,-0.08125 1.289563,-0.262793 2.528329,-0.403431 1.238765,-0.140638 2.672659,-0.36283 3.186432,-0.493761 3.314077,-0.844565 6.010944,-3.447644 6.9919,-6.748744 0.13995,-0.470958 0.358405,-1.802096 0.485456,-2.958084 0.300571,-2.734785 0.436369,-3.20756 1.00592,-3.502087 0.543138,-0.280867 0.795196,-0.291866 1.310279,-0.05718 0.58536,0.266708 0.811614,0.94894 1.025492,3.092201 0.243697,2.442081 0.616911,3.92601 1.327504,5.278269 1.283842,2.443158 3.836902,4.400328 6.506643,4.98798 0.358706,0.07896 1.665729,0.259108 2.904496,0.400334 1.238764,0.141227 2.383169,0.326815 2.54312,0.412419 0.15995,0.0856 0.38842,0.38923 0.507707,0.674727 0.279472,0.66887 0.0474,1.402015 -0.539931,1.705739 -0.230237,0.11906 -1.431176,0.329462 -2.668749,0.467561 -1.237575,0.138099 -2.740556,0.394571 -3.339957,0.569938 -3.117433,0.912071 -5.646249,3.412496 -6.673767,6.598841 -0.138065,0.428144 -0.386735,1.933696 -0.552598,3.345672 -0.295055,2.511765 -0.311963,2.576516 -0.782574,2.997006 -0.611089,0.546008 -1.121286,0.544445 -1.736579,-0.0053 z m 1.898251,-10.367262 c 1.156,-1.789589 3.191945,-3.648973 4.7762,-4.362004 0.361842,-0.162857 0.657893,-0.342545 0.657893,-0.399309 0,-0.05676 -0.262724,-0.228102 -0.583832,-0.380751 -1.78143,-0.846858 -4.089608,-3.047892 -5.218342,-4.976107 l -0.675492,-1.153946 -0.614461,1.096279 c -1.053516,1.879614 -3.45172,4.180714 -5.246196,5.033774 -0.321108,0.152649 -0.583241,0.317112 -0.582519,0.365474 7.16e-4,0.04836 0.447441,0.32487 0.992708,0.614465 1.818653,0.965894 3.600455,2.725742 4.81071,4.75144 0.554017,0.9273 0.664192,1.036332 0.804807,0.796443 0.0896,-0.152864 0.48494,-0.776456 0.878524,-1.385758 z" id="path3152"/>
	<path style="fill:#249778;stroke-width:0.00591617" d="m 34.531845,13.007077 c -0.552199,-0.5522 -0.521829,-1.370386 0.07295,-1.965161 0.611858,-0.611857 1.280358,-0.611857 1.892216,0 0.580171,0.580171 0.597975,1.219474 0.05203,1.868294 -0.53037,0.63031 -1.440062,0.673993 -2.017189,0.09687 z" id="path3154"/>
	<path style="fill:#249778;stroke-width:0.00591617" d="m 35.949572,128.80892 c -3.95768,-0.84826 -7.292649,-3.73335 -9.576554,-8.28471 C 23.789946,115.37668 21.316669,104.53382 19.985441,92.52105 19.505482,88.189985 18.702293,84.731638 17.324174,81.062263 16.018787,77.586546 14.613558,74.910741 10.646765,68.347305 7.0665334,62.423472 4.8184718,57.584306 3.4864873,52.934132 1.4510175,45.827974 0.68269609,38.568836 1.2460112,31.766004 1.3283891,30.771174 1.4046773,30.541431 1.7759121,30.170196 2.3303076,29.6158 2.983358,29.601545 3.6115426,30.130128 l 0.4677685,0.393601 -0.088325,4.004603 c -0.1554453,7.047837 0.6671052,12.896409 2.7090434,19.262087 1.0443055,3.255589 3.3480655,8.154555 5.4909945,11.676647 3.226223,5.30258 4.081231,6.79389 5.534147,9.652694 2.992901,5.888924 4.345691,10.50795 5.150088,17.584671 1.00163,8.811919 2.640136,17.139869 4.434909,22.541089 2.388992,7.18947 5.684279,10.58143 10.64898,10.96137 2.422638,0.1854 4.131862,-0.5648 5.742511,-2.52046 3.91601,-4.75486 6.962477,-14.67986 9.435701,-30.740322 0.721019,-4.682111 1.023865,-5.938266 1.806165,-7.491709 2.55766,-5.07883 7.673511,-3.748136 9.247303,2.405333 0.162534,0.635507 0.551395,2.828095 0.864134,4.872419 1.763568,11.528159 3.862254,20.031449 6.333155,25.660189 1.676465,3.819 3.708674,6.43943 5.731642,7.39065 0.763102,0.35882 1.04266,0.40184 2.568863,0.39532 2.730725,-0.0117 4.503559,-0.70346 6.471143,-2.52514 3.03197,-2.80714 5.06836,-7.78907 7.05983,-17.27152 0.525052,-2.50005 1.468642,-8.028483 1.525734,-8.939185 l 0.04509,-0.719213 -5.994012,-4.636961 c -3.296706,-2.550329 -6.543792,-5.093355 -7.215747,-5.651169 -2.8101,-2.332766 -5.007152,-5.551819 -6.181455,-9.056883 -0.918267,-2.740841 -0.924311,-2.875731 -0.924365,-20.629736 -3.3e-5,-10.937303 0.05355,-16.38465 0.165132,-16.786469 0.190017,-0.684295 1.070999,-1.725889 1.761981,-2.08321 0.260293,-0.134602 1.806005,-0.587628 3.434919,-1.006725 6.784121,-1.745458 14.017527,-4.5663 19.70205,-7.683296 3.028138,-1.66042 3.086318,-1.683929 4.175618,-1.687277 0.91105,-0.0028 1.11881,0.06891 2.80239,0.967213 2.90216,1.548493 7.52133,3.790404 7.61554,3.696193 0.0475,-0.04748 3e-5,-0.735897 -0.10543,-1.529819 C 112.5923,19.834913 107.13575,11.917129 98.05988,7.4658217 94.703125,5.8194821 91.61096,4.8599466 87.706587,4.2530708 85.214769,3.8657555 79.338529,3.8670586 76.808383,4.2554871 c -2.770368,0.4253083 -5.162175,0.9947558 -7.628742,1.8162706 -2.270758,0.7562986 -5.514312,2.1347855 -6.810565,2.8944402 -0.803112,0.4706551 -0.942249,0.2208239 1.12793,2.0252871 3.272084,2.8521 4.857613,3.88191 8.154424,5.296348 4.503145,1.931996 10.902173,3.07021 15.817079,2.813431 1.909177,-0.09974 2.547294,0.0705 2.863212,0.763863 0.277057,0.608073 0.213454,0.951789 -0.277695,1.50068 l -0.454957,0.508444 -3.63187,-0.007 C 80.957055,21.857531 77.68633,21.356757 73.396123,19.94249 68.512169,18.332497 65.683924,16.659171 61.197298,12.725083 59.247113,11.015068 58.535853,10.550666 55.702908,9.1376408 48.962617,5.7756974 42.482545,4.2035928 35.365215,4.2035928 c -12.95834,0 -23.305746,5.9936212 -28.3266985,16.4079292 -0.5430637,1.126407 -0.7600551,1.422757 -1.1659345,1.592344 -0.9167768,0.383053 -1.9264742,-0.317527 -1.9264742,-1.336688 0,-0.805494 2.4534506,-5.113605 4.1222014,-7.238335 C 9.1994824,12.188581 11.998009,9.4150688 13.365269,8.3792289 24.89494,-0.35567622 41.708657,-1.0370583 56.983987,6.6115643 59.083503,7.6628282 59.231538,7.7134591 59.4618,7.4590231 59.820313,7.0628695 63.682305,5.1274134 65.754491,4.3054091 69.135072,2.9643852 72.518939,2.0460395 76.185629,1.474509 78.393966,1.1302932 83.888258,0.99931437 86.243844,1.2347304 c 6.840952,0.6836814 13.077382,3.0198612 18.225016,6.8271305 1.85148,1.3693786 5.1842,4.7561391 6.46836,6.5732261 3.44078,4.868732 5.37642,10.318622 6.06014,17.062648 l 0.18156,1.790857 0.56024,0.235497 c 1.36703,0.574633 6.53949,2.251421 8.81174,2.856553 4.16533,1.10929 4.48873,1.218812 5.10332,1.72825 0.32359,0.268231 0.74395,0.778672 0.93413,1.134311 l 0.34578,0.646617 0.0469,15.724551 c 0.0484,16.243756 -0.004,18.097803 -0.57761,20.339744 -0.98118,3.836386 -3.40465,7.683438 -6.42104,10.192863 -2.95891,2.461607 -20.0638,15.557462 -20.68297,15.835302 -0.83905,0.37651 -2.30597,0.40287 -3.11377,0.0559 -0.2997,-0.12871 -1.45412,-0.93523 -2.565376,-1.79228 -1.111256,-0.857037 -2.065345,-1.530515 -2.120197,-1.496613 -0.05485,0.0339 -0.148277,0.431025 -0.207608,0.882499 -0.433714,3.300274 -1.998055,10.610214 -3.073838,14.363594 -2.314072,8.07374 -5.674642,12.53187 -10.770432,14.28804 -1.327013,0.45732 -1.573003,0.4913 -3.603868,0.49769 -1.717261,0.005 -2.36129,-0.054 -3.035928,-0.27991 -4.689892,-1.57066 -8.424515,-7.90331 -11.353775,-19.25215 -1.253259,-4.8555 -2.075682,-9.02803 -3.206784,-16.269459 -0.687491,-4.401392 -0.999701,-5.654184 -1.711984,-6.869604 -0.708172,-1.208403 -1.415644,-1.441018 -2.249284,-0.739555 -1.056114,0.888662 -1.518987,2.434072 -2.349,7.842692 -1.952065,12.720236 -4.306745,21.719276 -7.187443,27.468746 -1.311039,2.61664 -2.163166,3.8595 -3.693883,5.38764 -2.091628,2.08811 -3.781371,2.8072 -6.541036,2.78361 -0.816889,-0.007 -1.97142,-0.11689 -2.565622,-0.24425 z M 114.17365,91.996856 c 5.43743,-4.202981 10.29453,-8.038291 10.79357,-8.522913 2.08324,-2.023056 3.8843,-5.018247 4.65718,-7.744937 l 0.3492,-1.232 0.0441,-16.990804 c 0.0419,-16.152455 0.0305,-16.996278 -0.23231,-17.101779 -0.15203,-0.06104 -1.22223,-0.352066 -2.37821,-0.646733 -7.62519,-1.943698 -15.64582,-5.123968 -21.98562,-8.717543 -0.70559,-0.399946 -1.40064,-0.680866 -1.68461,-0.680866 -0.29756,0 -1.12269,0.352129 -2.14612,0.915873 -6.817151,3.755129 -14.170535,6.627196 -21.978133,8.584168 -1.069299,0.268019 -2.032622,0.560709 -2.140718,0.650422 -0.251683,0.208878 -0.284887,30.690864 -0.03583,32.897442 0.432642,3.833169 2.144343,7.227797 5.075276,10.065232 0.588175,0.569411 5.47761,4.440219 10.865413,8.601796 8.751112,6.759426 9.855442,7.566394 10.353292,7.565465 0.4968,-9.35e-4 1.63026,-0.83042 10.44351,-7.642823 z" id="path3156"/>
	<path style="fill:#249778;stroke-width:0.00591617" d="m 103.31315,97.767152 c -0.19333,-0.07769 -4.486846,-3.340652 -9.541139,-7.251029 -6.129113,-4.741936 -9.52893,-7.476257 -10.208435,-8.210184 -1.869849,-2.01961 -3.063193,-4.170428 -3.842401,-6.925333 -0.335309,-1.18549 -0.338369,-1.320998 -0.385501,-17.068332 -0.03286,-10.98014 0.0036,-15.996792 0.118352,-16.273777 0.24245,-0.585326 0.505136,-0.702233 3.311631,-1.473819 5.902992,-1.622901 11.279296,-3.695545 17.073508,-6.582086 2.006155,-0.999418 3.770865,-1.807834 3.921575,-1.796481 0.15072,0.01135 2.04735,0.896986 4.21473,1.968073 4.15929,2.055457 8.27195,3.751452 12.27004,5.059965 2.31925,0.759056 5.61876,1.730058 6.63614,1.952928 0.26754,0.05861 0.65287,0.2837 0.85628,0.500204 l 0.36985,0.393643 0.0466,14.661156 c 0.0501,15.752378 -0.003,17.265678 -0.68873,19.450671 -0.83481,2.661854 -2.67741,5.506073 -4.68579,7.232948 -0.49482,0.425453 -4.81543,3.802501 -9.60137,7.504553 -7.33831,5.676377 -9.2498,7.088677 -9.48507,7.008023 -0.0158,-0.0054 -0.18697,-0.07343 -0.38031,-0.151123 z m 8.69112,-9.485928 c 5.49497,-4.240415 8.62142,-6.761833 9.56459,-7.713652 1.5572,-1.571467 2.43747,-2.965971 3.14404,-4.980746 l 0.4368,-1.245509 0.0433,-15.349522 0.0433,-15.349521 -1.36662,-0.356214 c -5.29574,-1.380348 -13.42976,-4.559628 -18.36548,-7.178365 l -1.74136,-0.923915 -2.92929,1.463552 c -5.367202,2.681593 -10.164649,4.564893 -15.881132,6.23434 l -2.772717,0.809748 v 14.857882 c 0,16.58694 -0.03558,15.990718 1.095047,18.349941 0.771558,1.609971 1.461178,2.587627 2.670842,3.786383 1.003364,0.994316 17.62022,13.988546 17.80724,13.9251 0.0485,-0.01644 3.76163,-2.864714 8.2515,-6.329502 z" id="path3158"/>
	<path style="fill:#249778;stroke-width:0.00591617" d="M 98.496706,79.181375 98.05988,78.805863 98.01359,74.744249 97.9673,70.682635 h -3.974664 -3.974664 l -0.45509,-0.455091 -0.45509,-0.455088 V 65 60.227545 l 0.45509,-0.45509 0.45509,-0.45509 h 3.974664 3.974664 l 0.04629,-4.061614 0.04629,-4.061613 0.436826,-0.375512 0.436825,-0.375512 h 4.783019 c 5.33907,0 5.33024,-0.0017 5.62384,1.055488 0.0893,0.32171 0.16125,2.188597 0.16174,4.199003 l 8.6e-4,3.61976 h 3.90245 c 2.37881,0 4.0194,0.06259 4.20199,0.160304 0.71207,0.381093 0.76982,0.795306 0.76982,5.522331 0,4.727026 -0.0577,5.141238 -0.76982,5.522331 -0.18259,0.09772 -1.82318,0.160304 -4.20199,0.160304 h -3.90245 l -9.3e-4,3.61976 c -4.7e-4,2.010406 -0.0724,3.877293 -0.16174,4.199003 -0.29353,1.057145 -0.2847,1.055488 -5.62377,1.055488 h -4.783019 z m 8.048204,-6.248987 c 0,-4.051108 0.0737,-4.519279 0.76982,-4.891845 0.18303,-0.09795 1.84763,-0.160303 4.27983,-0.160303 h 3.98029 V 65 62.11976 h -3.98029 c -2.4322,0 -4.0968,-0.06235 -4.27983,-0.160303 -0.69624,-0.372619 -0.76982,-0.840489 -0.76982,-4.895357 v -3.825615 l -2.84132,0.04243 -2.84131,0.04243 -0.0778,4.09595 -0.0778,4.09595 -0.38922,0.298792 c -0.360263,0.276557 -0.687552,0.299049 -4.398208,0.302254 l -4.008982,0.0035 V 65 67.88024 h 4.02517 4.02517 l 0.41196,0.381787 0.41195,0.381787 v 3.951546 c 0,2.173351 0.0467,3.998253 0.10379,4.055338 0.0571,0.05709 1.3532,0.103793 2.88024,0.103793 h 2.77645 z" id="path3160"/>
</svg>