<svg xmlns:dc="http://purl.org/dc/elements/1.1/"
	xmlns:cc="http://creativecommons.org/ns#"
	xmlns:rdf="http://www.w3.org/1999/02/22-rdf-syntax-ns#"
	xmlns:svg="http://www.w3.org/2000/svg"
	xmlns="http://www.w3.org/2000/svg" width="132" height="108" viewBox="0 0 132 108" version="1.1" id="svg3318">
	<metadata id="metadata3324">
		<rdf:RDF>
			<cc:Work rdf:about="">
				<dc:format>image/svg+xml</dc:format>
				<dc:type rdf:resource="http://purl.org/dc/dcmitype/StillImage"/>
				<dc:title/>
			</cc:Work>
		</rdf:RDF>
	</metadata>
	<defs id="defs3322"/>
	<g fill="none" fill-rule="evenodd" stroke="#249778" stroke-linecap="round" stroke-linejoin="round" stroke-width="3" id="g3316">
		<path d="M45.286 11.088c-11.16 1.597-13.052 11.904-13.148 14.214M88.943 16.774c-3.76.224-9.235-.016-14.766-2.739-3.975-1.956-5.526-4.381-7.714-5.659C54.158 1.192 39.644 1.814 31.12 9.883c-2.284 2.164-3.907 4.635-5.025 7.244m-1.965 7.706c-.962 8.712 1.707 17.16 2.778 19.714a55.168 55.168 0 0 0 4.4 8.385c.84 1.394 1.685 2.788 2.458 4.24a35.608 35.608 0 0 1 4.264 12.739c.487 5.388 1.39 10.73 2.704 15.978 1.027 3.847 3.177 11.845 10.306 11.845 2.29 0 8.382 0 12.266-27.97.63-4.47 2.184-5.106 3.15-5.265.966.16 2.52.795 3.15 5.259 3.885 27.976 9.975 27.976 12.265 27.976 7.129 0 9.281-7.998 10.308-11.82a104.522 104.522 0 0 0 2.708-16.007 35.601 35.601 0 0 1 4.264-12.736c.772-1.451 1.615-2.845 2.457-4.24a54.946 54.946 0 0 0 4.405-8.387c.702-1.672 2.111-5.903 2.717-11.089m-.275-10.976c-.864-4.517-2.838-8.973-6.652-12.592C93.48 1.992 79.32.823 67.454 7.679M48.765 10.387l-.022.025" id="path3310"/>
		<path d="M130.49 47.943h-9.682c-5.332 0-10.046 3.764-11.647 9.298L99.39 91.008c-2.622 9.059-10.338 15.22-19.063 15.22H52.615c-8.726 0-16.442-6.161-19.064-15.22l-9.77-33.767c-1.6-5.534-6.316-9.298-11.646-9.298H2.45" id="path3312"/>
		<path d="M105.372 13.603c7.582-2.173 11.683-2.419 12.457-.753 1.62 3.488-16.006 15.174-39.37 26.1-10.586 4.952-20.527 8.893-28.393 11.403 8.396 2.72 25.826-.675 44.178-9.257 23.362-10.928 39.362-26.116 35.733-33.927-2.831-6.096-15.698-6.243-32.793-.666" id="path3314"/>
	</g>
	<path style="fill:#249778;stroke-width:0.00491497" d="M 49.267585,99.006391 C 45.391016,98.273339 42.50836,95.360045 40.59702,90.243668 39.066511,86.146723 37.584632,78.95772 36.774782,71.700948 36.343437,67.835808 35.7174,65.139235 34.587115,62.277844 33.5282,59.597133 32.89628,58.39233 30.033288,53.595629 26.534459,47.733637 25.129904,44.579337 23.982046,40.00596 22.887113,35.643456 22.478821,32.091172 22.568837,27.710564 c 0.06726,-3.272964 0.164807,-3.737034 0.861257,-4.097183 0.601839,-0.311223 1.1175,-0.255411 1.596778,0.172824 l 0.420175,0.375426 0.0088,4.119184 c 0.0092,4.292586 0.08637,5.197206 0.721441,8.452119 1.086142,5.56681 2.562872,9.183379 6.258135,15.326417 3.172072,5.273283 4.390279,7.733182 5.476808,11.059212 0.979593,2.998681 1.310671,4.636644 1.772624,8.769829 0.497809,4.453986 1.518967,10.145089 2.464582,13.73556 1.469275,5.578792 3.383058,8.802122 5.95126,10.023527 0.927235,0.440981 1.617941,0.575847 2.960393,0.578036 1.477961,0.0024 2.159807,-0.291977 3.187425,-1.376171 3.068939,-3.237893 5.433855,-10.812191 7.413526,-23.743854 0.637419,-4.163756 1.066823,-5.464571 2.205854,-6.682288 1.598763,-1.709205 3.564762,-1.727847 5.127301,-0.04862 1.204624,1.294585 1.612016,2.54459 2.309574,7.086493 1.932385,12.58204 4.325548,20.195062 7.352128,23.388266 1.053987,1.112015 1.695908,1.37844 3.316767,1.376605 1.493968,-0.0017 2.575666,-0.311192 3.63534,-1.040158 2.676233,-1.841024 4.303352,-5.370806 5.93004,-12.864303 0.784108,-3.612071 1.182381,-6.179949 1.94568,-12.544844 0.520234,-4.33806 2.055341,-8.977505 4.364268,-13.189818 0.506912,-0.92479 1.483597,-2.612694 2.170407,-3.750898 1.8946,-3.139768 2.24169,-3.75818 3.27749,-5.839362 1.16237,-2.335528 1.76387,-3.828409 2.41606,-5.99653 0.47618,-1.583001 1.21246,-4.774033 1.12233,-4.864165 -0.0239,-0.02386 -1.1167,0.569316 -2.42855,1.318167 -2.82493,1.612589 -9.146337,4.796674 -12.150431,6.120162 -12.207395,5.378109 -24.431886,8.705883 -33.228348,9.04548 -3.775032,0.14574 -6.757207,-0.109947 -8.86093,-0.75972 -1.036574,-0.320165 -1.498746,-0.803095 -1.498746,-1.566061 0,-0.85334 0.396476,-1.126334 2.782149,-1.915656 16.731621,-5.535814 39.9682,-16.565597 54.030386,-25.646782 1.60736,-1.038013 1.52875,-0.681117 0.70498,-3.200922 -1.00132,-3.062919 -2.53972,-5.652085 -4.67832,-7.873765 C 97.114067,7.0927154 90.986734,4.6562874 83.90205,4.6562874 c -3.476096,0 -6.315823,0.4569954 -9.646112,1.5523425 -2.018912,0.6640289 -5.204943,2.1056082 -5.13126,2.3217346 0.08054,0.236239 2.61353,2.3372765 3.68296,3.0549025 2.105828,1.413085 5.155759,2.625386 8.098181,3.218905 2.072037,0.417952 3.951628,0.587204 6.522555,0.587336 l 2.091847,1.09e-4 0.397974,0.397973 c 0.689924,0.689926 0.503436,1.797677 -0.379503,2.254262 -0.289347,0.149628 -0.879231,0.193274 -2.612104,0.193274 -4.830752,0 -9.011755,-0.883179 -12.87089,-2.718795 -2.45019,-1.165445 -3.358385,-1.804219 -6.940292,-4.881414 C 65.241497,9.0270532 61.079745,7.0810986 57.261556,6.0294478 49.984474,4.0251079 42.749054,4.5524067 36.962874,7.5087632 c -4.071215,2.0801226 -7.471343,5.5976258 -9.309221,9.6305828 -0.47759,1.048003 -0.853788,1.382331 -1.555449,1.382331 -0.601565,0 -1.07493,-0.323731 -1.315596,-0.899727 -0.183488,-0.43915 -0.175375,-0.514684 0.14223,-1.324205 0.908656,-2.316015 2.903373,-5.151923 5.141548,-7.3097905 3.830687,-3.6932399 8.809717,-5.9964757 14.721638,-6.8100428 2.019196,-0.277871 6.548746,-0.2090345 8.77653,0.1333787 3.982979,0.6121891 8.005325,1.9054743 11.511811,3.7013364 l 1.339837,0.6862038 0.464619,-0.3152987 C 68.175802,5.5047336 71.801128,3.94191 74.30599,3.1826517 c 3.15328,-0.9558015 6.169386,-1.3910815 9.607782,-1.3865804 4.47842,0.00586 8.178032,0.7824665 12.170854,2.5548435 l 1.306183,0.5798027 1.733338,-0.5342926 c 5.368023,-1.6546669 11.355963,-2.869253 15.991653,-3.243728 2.33277,-0.18844277 6.0966,-0.086737 7.79438,0.2106194 4.21943,0.739007 6.94685,2.4361091 8.27937,5.1517255 1.08615,2.2135232 0.936,4.7949242 -0.45389,7.8031482 -2.529,5.4737 -9.41012,12.251428 -18.77736,18.495225 -1.79054,1.193496 -1.83526,1.234622 -1.91625,1.762383 -0.68715,4.477738 -1.73821,8.294358 -3.19425,11.599052 -1.03717,2.35401 -1.99901,4.140348 -4.21341,7.82515 -4.180609,6.956633 -5.800944,11.276601 -6.428024,17.137725 -0.560144,5.235494 -1.433313,10.277437 -2.540915,14.672018 -2.10781,8.363045 -5.219314,12.361952 -10.287401,13.221368 -4.659543,0.790137 -7.9343,-1.943335 -10.604228,-8.851456 -1.722152,-4.455864 -3.410353,-11.764241 -4.443408,-19.235942 -0.219203,-1.5854 -0.382407,-2.381689 -0.671842,-3.277962 -0.266001,-0.823709 -0.89022,-1.701679 -1.20986,-1.701679 -0.314716,0 -0.970871,0.960878 -1.236527,1.810778 -0.144533,0.462396 -0.493035,2.32491 -0.774451,4.138922 -1.577613,10.169335 -3.24128,16.47836 -5.568307,21.11636 -0.853743,1.701595 -1.505571,2.660432 -2.561152,3.767438 -1.00479,1.053742 -1.878805,1.646977 -2.966194,2.013291 -1.064381,0.358564 -2.777564,0.440777 -4.074496,0.19553 z M 60.697006,49.665703 c 5.6579,-0.488764 12.22796,-1.991511 19.542495,-4.469888 9.095174,-3.081708 18.772309,-7.64383 26.955709,-12.70781 11.00081,-6.80743 19.03808,-14.415346 21.27226,-20.135909 0.42566,-1.089889 0.45471,-1.258861 0.45586,-2.6514972 0.001,-1.4077343 -0.0193,-1.5244873 -0.38195,-2.1791874 -0.96241,-1.7375132 -3.03842,-2.8262006 -6.48186,-3.399176 -1.30763,-0.217585 -6.09374,-0.2217303 -8.00922,-0.00694 -1.97313,0.2212582 -5.10162,0.7452064 -7.17844,1.2022189 -2.38962,0.5258436 -6.20839,1.5526254 -6.20839,1.6692964 0,0.052525 0.30557,0.3315055 0.67904,0.6199566 0.70831,0.5470614 2.89087,2.7452547 3.78341,3.8105097 l 0.51719,0.61728 2.05786,-0.522899 c 3.3737,-0.857251 4.81482,-1.084397 6.93137,-1.092502 2.31075,-0.0089 2.97788,0.177546 3.88611,1.085771 1.44683,1.446835 1.01918,3.268625 -1.36092,5.797508 -7.42737,7.891653 -34.108693,22.332448 -57.877943,31.325418 -1.526528,0.577553 -2.802157,1.076749 -2.834731,1.109325 -0.107307,0.107306 2.735781,0.05951 4.25215,-0.07148 z M 110.66367,19.16638 c 1.7838,-1.323814 3.44693,-2.753557 4.44002,-3.816948 0.88879,-0.951715 1.46445,-1.816026 1.31143,-1.969044 -0.2039,-0.203899 -2.19553,-0.205825 -3.59356,-0.0035 -1.34956,0.195334 -5.42253,1.06589 -5.54951,1.186151 -0.0289,0.02735 0.21449,0.617835 0.54082,1.312193 0.32632,0.694357 0.81558,1.917173 1.08723,2.717369 0.27165,0.800196 0.51232,1.454986 0.53483,1.45509 0.0225,1.03e-4 0.57543,-0.396499 1.22874,-0.881337 z" id="path3326"/>
	<path style="fill:#249778;stroke-width:0.00491497" d="m 31.65988,26.655153 c -0.142275,-0.06154 -0.404191,-0.268919 -0.582036,-0.460838 -0.287123,-0.309849 -0.321292,-0.452728 -0.30496,-1.275223 0.03104,-1.563342 0.690738,-3.936774 1.673912,-6.022348 1.57255,-3.335797 4.102853,-5.974815 7.236395,-7.547309 1.741841,-0.874102 4.336786,-1.6395902 5.579939,-1.646037 1.072004,-0.00556 1.773852,1.08505 1.283834,1.99496 -0.302262,0.561267 -0.558541,0.69018 -1.935182,0.973435 -2.95561,0.60814 -5.035307,1.691286 -6.93907,3.614001 -2.077471,2.098153 -3.478551,4.95981 -3.96337,8.095044 -0.221151,1.430148 -0.365579,1.825509 -0.761676,2.085043 -0.360029,0.235899 -0.972036,0.325848 -1.287786,0.189272 z" id="path3328"/>
	<path style="fill:#249778;stroke-width:0.00491497" d="m 48.192996,11.713611 c -1.120293,-0.495313 -1.135124,-2.0298221 -0.02517,-2.6038033 1.12337,-0.5809174 2.448998,0.7423417 1.868412,1.8650723 -0.377636,0.730267 -1.156431,1.04239 -1.843245,0.738731 z" id="path3330"/>
	<path style="fill:#249778;stroke-width:0.00491497" d="M 49.177531,107.35031 C 41.945463,106.07573 35.604737,100.63576 32.823809,93.31976 32.634525,92.821796 30.154122,84.382275 27.311803,74.565269 21.633714,54.953881 21.752059,55.305233 20.167013,53.353293 18.798826,51.668408 17.040704,50.458393 14.97485,49.779824 14.097276,49.491568 13.884688,49.4803 8.0550898,49.413072 3.5688148,49.361335 1.9684638,49.302381 1.7563338,49.181035 1.3036077,48.922061 1.0706587,48.487569 1.0706587,47.902128 c 0,-0.436199 0.079786,-0.623093 0.4047138,-0.948021 l 0.4047139,-0.404714 6.2886994,0.0427 6.2886992,0.04271 1.135181,0.352491 c 3.882008,1.205422 6.914988,3.866153 8.696565,7.629203 0.445847,0.941719 1.647028,4.932049 5.679986,18.868947 2.813011,9.721067 5.267478,18.102385 5.454371,18.62515 2.022983,5.65854 6.875187,10.379286 12.274616,11.942066 2.556715,0.74 2.222394,0.7283 19.401197,0.67887 17.310548,-0.0498 16.089826,0.004 18.62515,-0.82668 4.966369,-1.62792 9.290192,-5.759713 11.44717,-10.938783 0.306092,-0.734953 2.679869,-8.703235 5.702379,-19.141703 2.84789,-9.835441 5.37209,-18.330523 5.60932,-18.877958 1.3374,-3.086152 3.98394,-5.825558 6.98818,-7.233391 2.27833,-1.067663 2.31831,-1.072479 9.2954,-1.119879 6.89346,-0.04683 6.64068,-0.07677 7.02024,0.831608 0.23144,0.553944 0.0785,1.141129 -0.41917,1.60893 l -0.32982,0.310038 -6.10116,0.06579 -6.10116,0.06579 -1.01222,0.356951 c -0.55673,0.196324 -1.25517,0.479376 -1.5521,0.629005 -1.38855,0.69972 -3.14035,2.261318 -4.07722,3.634535 -1.072,1.571297 -1.31688,2.335866 -6.61158,20.642694 -3.51701,12.160318 -5.36289,18.338115 -5.761459,19.282363 -1.813443,4.296275 -4.780871,7.89509 -8.535123,10.35118 -2.20321,1.44137 -4.986081,2.52907 -7.624797,2.98018 -1.467279,0.25084 -2.062168,0.25941 -17.318595,0.24932 -14.804723,-0.01 -15.885111,-0.0256 -17.165305,-0.25122 z" id="path3332"/>
</svg>