<?xml version="1.0" encoding="utf-8"?>
<!DOCTYPE svg PUBLIC "-//W3C//DTD SVG 20010904//EN" "http://www.w3.org/TR/2001/REC-SVG-20010904/DTD/svg10.dtd">
<svg version="1.0" xmlns="http://www.w3.org/2000/svg" width="62pt" height="127pt" viewBox="0 0 62 127" style="" preserveAspectRatio="xMidYMid meet">
<g fill="#3695a7" stroke="#3695a7">
<path d="M 1.048 13.510 L 1.000 25.520 19.500 44.000 C 29.675 54.164 38.000 62.939 38.000 63.500 C 38.000 64.061 29.665 72.841 19.477 83.010 L 0.955 101.500 1.227 113.381 L 1.500 125.262 31.125 94.381 L 60.751 63.500 42.625 44.623 C 32.656 34.241 19.234 20.291 12.798 13.623 L 1.096 1.500 1.048 13.510 "/></g>
<g fill="#3695a7" stroke="#3695a7">
<path d="M 1.229 63.235 L 1.500 82.679 10.137 73.089 L 18.773 63.500 15.137 59.479 C 13.136 57.267 9.128 52.833 6.229 49.625 L 0.957 43.792 1.229 63.235 "/></g>
</svg>
