<svg xmlns="http://www.w3.org/2000/svg" width="54" height="70" viewBox="0 0 54 70" fill="none">
	<path d="M21.2587 59.429C20.7485 59.429 20.3348 59.8881 20.3348 60.4543V66.1891C20.3348 67.1582 19.6243 67.9467 18.7512 67.9467C18.1232 67.9467 17.5536 67.533 17.2999 66.8926C16.0442 63.7225 13.0431 55.3202 12.3003 45.787C12.0716 42.8526 11.0662 40.0811 9.39264 37.7722C7.21044 34.7615 4.60905 30.1742 4.60905 25.4181C4.60905 24.4724 4.6529 23.5749 4.73962 22.7351C5.93931 23.6845 7.30012 24.3755 8.74113 24.7454C9.23805 24.8727 9.73436 24.5293 9.84953 23.9775C9.96459 23.4257 9.65478 22.8751 9.15761 22.7474C7.11251 22.2224 5.25675 20.928 3.93215 19.103C2.56863 17.2243 1.84788 14.9532 1.84788 12.5354C1.84776 6.7542 6.08577 2.0507 11.295 2.0507C16.5042 2.0507 20.7422 6.7542 20.7422 12.5355C20.7422 14.9425 19.9888 17.2932 18.6208 19.1545C17.2716 20.9903 15.3869 22.2772 13.3137 22.778C12.8152 22.8984 12.499 23.4446 12.6075 23.998C12.7016 24.4779 13.0842 24.8055 13.5093 24.8055C13.5744 24.8055 13.6405 24.7978 13.7068 24.7818C16.1866 24.1827 18.4403 22.6446 20.0527 20.4506C21.4847 18.5021 22.3537 16.1057 22.5482 13.6086C24.0681 14.5683 25.1084 15.7383 25.4309 16.1262C25.4351 16.1312 25.4399 16.1356 25.4442 16.1405C25.4485 16.1456 25.4524 16.1509 25.4568 16.156C27.1479 18.0328 28.9552 18.9608 31.0856 18.9608C32.7458 18.9608 34.6021 18.397 36.7519 17.2792C37.214 17.039 37.413 16.4286 37.1966 15.9158C36.9802 15.4031 36.4301 15.1822 35.9681 15.4223C32.1682 17.3979 29.6928 17.4188 27.4544 15.4006C28.6273 14.2209 31.0688 12.2137 34.1026 12.2137C39.8268 12.2137 43.4505 13.62 45.5067 16.6393C45.6884 16.906 45.9647 17.0464 46.2444 17.0464C46.4385 17.0464 46.6341 16.9789 46.8007 16.839C47.2079 16.4975 47.2884 15.8545 46.9807 15.4028C44.5796 11.877 40.3672 10.1632 34.1026 10.1632C30.3733 10.1632 27.501 12.5466 26.1098 13.9827C25.3419 13.1915 24.1171 12.1097 22.5349 11.2943C21.9713 4.96257 17.1457 0 11.295 0C5.06692 0 0 5.62344 0 12.5355C0 15.3852 0.885445 18.1746 2.49312 20.3896C2.6822 20.65 2.8809 20.9009 3.08736 21.1428C2.87191 22.4373 2.76129 23.8728 2.76129 25.4181C2.76129 30.7714 5.58442 35.7901 7.95287 39.0576C9.3956 41.0481 10.2623 43.4361 10.4593 45.9637C11.226 55.8018 14.3157 64.4544 15.6084 67.7179C16.1569 69.1027 17.3905 69.9974 18.7512 69.9974C20.6433 69.9974 22.1826 68.289 22.1826 66.1891V60.4543C22.1826 59.8881 21.7689 59.429 21.2587 59.429V59.429Z" fill="#fff"/>
	<path d="M51.7757 49.4516C50.3754 47.8976 48.076 47.5559 45.3009 48.4898C43.9417 48.9471 42.5451 49.6939 41.2204 50.651C41.4602 49.0599 41.6418 47.4911 41.7606 45.9639C41.9578 43.4357 42.8246 41.0477 44.2677 39.0575C46.6356 35.7889 49.4581 30.7693 49.4581 25.4175C49.4581 23.5713 49.3026 21.8846 48.9961 20.4042C48.8818 19.8523 48.3859 19.5078 47.8887 19.6347C47.3914 19.7616 47.081 20.3118 47.1953 20.8637C47.4708 22.1937 47.6104 23.7258 47.6104 25.4176C47.6104 28.0421 46.7807 32.316 42.828 37.7722C41.1544 40.0804 40.1487 42.8519 39.9197 45.7874C39.7514 47.9531 39.4523 50.2075 39.0332 52.4929C38.7314 52.7871 38.4373 53.0909 38.1542 53.4051C36.0913 55.6946 34.4771 58.5855 33.7255 61.3367C33.0017 63.9862 33.1307 66.2431 34.0716 67.8119C33.8827 67.8984 33.6791 67.9465 33.4688 67.9465C32.5953 67.9465 31.8847 67.1578 31.8847 66.1884V52.1274C31.8847 47.9311 31.2194 44.2844 29.907 41.2886C29.1936 39.6609 27.7387 38.6498 26.1098 38.6498C24.481 38.6498 23.026 39.6609 22.3126 41.2892C21.0004 44.2882 20.335 47.9346 20.335 52.1274V55.392C20.335 55.9583 20.7486 56.4174 21.2588 56.4174C21.7691 56.4174 22.1827 55.9583 22.1827 55.392V52.1274C22.1827 48.2476 22.7856 44.9025 23.9744 42.1856C24.3819 41.2557 25.1801 40.7005 26.1098 40.7005C27.0395 40.7005 27.8378 41.2557 28.2452 42.1855C29.4341 44.8993 30.0369 48.2443 30.0369 52.1274V66.1884C30.0369 68.2886 31.5765 69.9972 33.4688 69.9972C34.2019 69.9972 34.9018 69.7392 35.4807 69.2726C36.2422 69.7552 37.1629 70.0002 38.2072 70.0002C39.0812 70.0002 40.0417 69.8293 41.0669 69.4844C43.5459 68.6502 46.1507 66.8587 48.2136 64.5692C50.2765 62.2796 51.8907 59.3887 52.6423 56.6375C53.4837 53.5575 53.1759 51.0056 51.7757 49.4516V49.4516ZM40.5308 67.5219C38.4695 68.2156 36.7811 68.0518 35.8987 67.0725C34.0968 65.0725 35.5271 59.6921 38.8263 55.6008L46.2353 63.8235C44.5082 65.5417 42.4704 66.8692 40.5308 67.5219V67.5219ZM47.5416 62.3733L40.1326 54.1506C41.8599 52.4325 43.8976 51.105 45.8371 50.4523C46.6794 50.1689 47.4593 50.0287 48.1475 50.0287C49.1435 50.0287 49.9474 50.3226 50.4692 50.9017C52.2711 52.9016 50.8408 58.282 47.5416 62.3733V62.3733Z" fill="#fff"/>
	<path d="M9.61625 19.9485H12.9737C13.9534 19.9485 14.7505 19.0638 14.7505 17.9765V16.371H16.1972C17.1769 16.371 17.9739 15.4864 17.9739 14.3991V10.6728C17.9739 9.58551 17.1769 8.70099 16.1972 8.70099H14.7505V7.09545C14.7505 6.00819 13.9534 5.12354 12.9737 5.12354H9.61625C8.63656 5.12354 7.83944 6.00819 7.83944 7.09545V8.70099H6.39277C5.41309 8.70099 4.61597 9.58551 4.61597 10.6728V14.399C4.61597 15.4862 5.41309 16.3709 6.39277 16.3709H7.83944V17.9764C7.83957 19.0638 8.63656 19.9485 9.61625 19.9485V19.9485ZM6.46385 14.3204V10.7516H8.76344C9.27367 10.7516 9.68732 10.2926 9.68732 9.72632V7.1742H12.9029V9.72632C12.9029 10.2926 13.3166 10.7516 13.8268 10.7516H16.1263V14.3204H13.8268C13.3166 14.3204 12.9029 14.7794 12.9029 15.3457V17.8978H9.68732V15.3457C9.68732 14.7794 9.27367 14.3204 8.76344 14.3204H6.46385Z" fill="#fff"/>
</svg>