<?xml version="1.0" encoding="utf-8"?>
<!DOCTYPE svg PUBLIC "-//W3C//DTD SVG 20010904//EN" "http://www.w3.org/TR/2001/REC-SVG-20010904/DTD/svg10.dtd">
<svg version="1.0" xmlns="http://www.w3.org/2000/svg" width="66pt" height="66pt" viewBox="0 0 66 66" style="" preserveAspectRatio="xMidYMid meet">
<g fill="#fff" stroke="#fff">
<path d="M 21.882 28.000 C 20.907 31.252 20.225 32.000 18.233 32.000 C 16.119 32.000 15.869 32.343 16.411 34.500 C 16.970 36.727 16.728 37.000 14.201 37.000 C 12.640 37.000 9.018 37.696 6.151 38.548 L 0.939 40.096 1.220 52.298 L 1.500 64.500 33.000 64.500 L 64.500 64.500 64.780 52.298 L 65.061 40.096 59.849 38.548 C 56.982 37.696 53.360 37.000 51.799 37.000 C 49.272 37.000 49.030 36.727 49.589 34.500 C 50.131 32.343 49.881 32.000 47.767 32.000 C 45.775 32.000 45.093 31.252 44.118 28.000 L 42.920 24.000 33.000 24.000 L 23.080 24.000 21.882 28.000 M 17.443 40.223 C 18.484 41.708 19.000 44.713 19.000 49.288 C 19.000 57.304 20.132 60.000 23.500 60.000 C 26.624 60.000 27.527 58.174 28.936 49.000 C 29.569 44.875 30.743 40.841 31.544 40.036 C 33.949 37.618 35.771 40.576 37.064 49.000 C 38.473 58.174 39.376 60.000 42.500 60.000 C 45.868 60.000 47.000 57.304 47.000 49.288 C 47.000 42.356 48.689 38.000 51.375 38.000 C 52.069 38.000 54.969 38.692 57.818 39.539 L 63.000 41.077 63.000 52.039 L 63.000 63.000 33.000 63.000 L 3.000 63.000 3.000 52.030 L 3.000 41.061 7.750 39.600 C 14.314 37.581 15.654 37.667 17.443 40.223 M 41.733 26.250 C 42.271 26.938 42.959 28.513 43.262 29.750 C 43.804 31.963 43.658 32.000 34.406 32.000 C 28.802 32.000 25.000 32.404 25.000 33.000 C 25.000 33.609 29.536 34.000 36.607 34.000 C 47.272 34.000 48.155 34.142 47.487 35.750 C 47.087 36.713 46.363 41.932 45.878 47.348 C 44.928 57.960 44.624 59.000 42.476 59.000 C 40.402 59.000 39.318 56.279 38.491 49.000 C 37.468 39.999 36.570 38.000 33.548 38.000 C 30.105 38.000 28.329 41.220 27.480 49.000 C 26.687 56.265 25.605 59.000 23.524 59.000 C 21.323 59.000 20.921 57.638 20.059 47.237 C 19.614 41.882 18.944 36.772 18.569 35.881 C 18.097 34.760 18.505 34.101 19.898 33.737 C 21.066 33.431 22.195 32.014 22.592 30.356 C 23.758 25.484 24.700 25.000 33.000 25.000 C 38.016 25.000 41.101 25.442 41.733 26.250 "/></g>
<g fill="#fff" stroke="#fff">
<path d="M 20.359 2.443 C 16.548 4.104 14.813 8.722 15.830 14.500 L 16.534 18.500 33.000 18.500 L 49.466 18.500 50.170 14.500 C 51.772 5.394 46.550 -0.095 38.420 2.150 C 34.901 3.121 28.578 2.856 24.955 1.584 C 24.155 1.303 22.086 1.689 20.359 2.443 M 33.000 4.283 C 33.825 4.283 36.811 3.943 39.636 3.528 C 46.551 2.511 49.000 4.727 49.000 12.000 L 49.000 17.000 33.000 17.000 L 17.000 17.000 17.000 12.000 C 17.000 4.727 19.449 2.511 26.364 3.528 C 29.189 3.943 32.175 4.283 33.000 4.283 "/></g>



<g fill="#fff" stroke="#fff">
<path d="M 21.183 7.217 C 20.533 7.868 20.018 9.323 20.040 10.450 C 20.074 12.193 20.310 12.075 21.618 9.662 C 23.291 6.576 23.069 5.331 21.183 7.217 "/></g>


</svg>
