<svg xmlns="http://www.w3.org/2000/svg" width="351" height="345" viewBox="0 0 351 345" fill="none">
<path d="M182.901 213.047C180.401 208.147 178.101 203.147 173.401 200.047C169.601 197.547 164.401 196.547 160.701 199.847C156.601 203.647 157.101 209.647 159.001 214.347C160.101 216.947 161.401 219.447 163.001 221.747C163.601 222.747 164.301 223.647 164.901 224.647C165.201 225.147 165.501 225.547 165.901 225.947C166.001 226.147 166.201 226.347 166.301 226.447C166.501 226.647 166.501 226.647 166.301 226.447C166.401 226.547 166.501 226.647 166.601 226.847C169.301 230.547 171.901 234.647 175.401 237.547C177.001 238.847 178.901 239.947 181.001 239.947C183.201 239.847 185.201 238.547 186.901 237.147C190.301 234.347 193.101 230.647 195.501 227.047C198.901 221.947 202.001 215.947 202.201 209.747C202.301 206.847 201.501 203.647 199.401 201.447C197.401 199.347 194.401 198.747 191.601 199.447C188.401 200.247 185.801 202.447 183.801 204.847C181.701 207.347 180.001 210.047 178.601 212.947C178.001 214.147 178.301 215.647 179.501 216.347C180.601 216.947 182.301 216.647 182.901 215.447C184.701 211.647 187.401 206.947 191.201 204.847C191.901 204.447 192.801 204.147 193.501 204.047C194.001 204.047 194.301 204.047 194.501 204.147C195.101 204.347 194.901 204.247 195.301 204.547C195.701 204.847 196.101 205.247 196.501 206.047C196.801 206.647 197.001 207.547 197.101 208.347C197.501 213.747 194.401 219.247 191.601 223.547C189.701 226.547 187.801 229.047 185.401 231.547C184.101 232.847 183.201 233.747 181.601 234.547C181.201 234.747 182.101 234.347 181.501 234.647C181.401 234.647 181.201 234.747 181.101 234.747C181.101 234.747 180.401 234.847 180.901 234.847C181.301 234.847 180.701 234.847 180.701 234.847C180.201 234.847 180.701 234.847 180.801 234.847C180.601 234.847 180.401 234.747 180.201 234.647C180.101 234.647 179.801 234.447 180.201 234.647C180.001 234.547 179.801 234.447 179.601 234.347C178.901 233.947 178.501 233.547 177.801 232.847C177.101 232.147 176.401 231.347 175.701 230.547C174.501 229.047 173.301 227.547 172.201 225.947C171.701 225.247 171.201 224.647 170.801 223.947C170.501 223.547 170.201 223.147 169.901 222.747C169.801 222.647 169.601 222.447 169.901 222.747C169.701 222.547 169.601 222.347 169.401 222.047C168.101 220.247 166.901 218.447 165.801 216.647C163.901 213.447 161.601 208.947 162.801 205.447C163.101 204.447 163.601 203.747 164.201 203.147C164.601 202.747 165.001 202.547 165.901 202.447C165.401 202.547 166.101 202.447 166.201 202.447C166.401 202.447 166.701 202.447 166.901 202.447C166.601 202.447 167.501 202.547 167.701 202.647C168.801 202.947 169.201 203.147 170.201 203.747C171.901 204.747 173.301 205.947 174.501 207.747C176.101 210.147 177.301 212.747 178.501 215.247C180.001 218.447 184.301 215.947 182.901 213.047Z" fill="#F60000"/>
<path d="M43.5013 269.847C40.0013 273.747 34.5013 274.947 29.5013 274.247C26.6013 273.847 24.0012 272.947 21.6012 271.547C19.3012 270.247 17.4012 268.547 16.1012 266.447C14.7012 264.147 14.2013 261.547 14.3013 258.647C14.3013 257.147 14.4013 256.647 14.8013 255.247C14.9013 254.947 15.0012 254.647 15.1012 254.347C15.3012 253.847 15.2012 254.247 15.1012 254.347C15.2012 254.247 15.2013 254.047 15.3013 253.947C15.6013 253.447 15.9013 252.947 16.2013 252.447C16.3013 252.347 16.5013 252.047 16.2013 252.447C16.3013 252.347 16.4013 252.247 16.5013 252.147C16.7013 251.947 16.8013 251.747 17.0013 251.547C17.2013 251.347 17.4012 251.147 17.6012 250.947C17.7012 250.847 18.4013 250.247 18.0013 250.547C18.9013 249.847 19.9013 249.347 20.9013 248.847C21.3013 248.647 20.6013 248.947 20.9013 248.847C21.0013 248.847 21.1013 248.747 21.2013 248.747C21.5013 248.647 21.8012 248.547 22.1012 248.447C22.7012 248.247 23.3013 248.147 23.9013 247.947C24.5013 247.847 25.1013 247.647 25.8013 247.647C25.3013 247.747 26.1013 247.647 26.2013 247.647C26.6013 247.647 26.9013 247.547 27.3013 247.547C28.7013 247.447 30.2012 247.447 31.6012 247.647C32.0012 247.647 32.3013 247.747 32.7013 247.747C32.8013 247.747 33.2013 247.847 32.8013 247.747C33.0013 247.747 33.2013 247.847 33.4013 247.847C34.1013 247.947 34.8013 248.047 35.5013 248.247C36.9013 248.547 38.4013 248.947 39.8013 249.547C40.1013 249.647 40.4013 249.747 40.7013 249.947C40.4013 249.847 41.2013 250.147 41.4013 250.247C42.0013 250.547 42.7013 250.847 43.3013 251.247C44.8013 252.147 47.2012 251.047 47.1012 249.047C46.8013 244.747 46.1013 240.447 46.3013 236.147C46.5013 232.547 47.3013 229.247 50.0013 226.947C53.0013 224.447 58.2013 223.647 62.3013 223.947C63.7013 224.047 65.7013 224.647 67.0013 225.447C68.6013 226.347 69.7013 227.247 71.0013 228.847C74.1013 232.447 76.0013 237.747 77.4013 242.547C78.2013 245.347 82.1013 244.647 82.3013 241.847C82.3013 241.447 82.4013 241.047 82.4013 240.547C82.4013 240.447 82.5013 239.747 82.4013 240.347C82.4013 240.147 82.5013 239.947 82.5013 239.647C82.7013 238.647 82.8012 237.747 83.1012 236.747C83.3012 235.847 83.6013 234.947 83.9013 234.147C84.0013 233.747 84.2013 233.247 84.4013 232.847C84.7013 232.147 84.2013 233.247 84.5013 232.547C84.6013 232.347 84.7013 232.047 84.8013 231.847C85.2013 231.047 85.6012 230.247 86.1012 229.547C86.7012 228.647 86.9013 228.447 87.7013 227.547C88.0013 227.247 88.4013 226.847 88.7013 226.547C88.7013 226.547 89.3013 226.047 88.9013 226.347C89.1013 226.247 89.3013 226.047 89.5013 225.947C89.9013 225.647 90.3013 225.447 90.8013 225.147C91.0013 225.047 91.2013 224.947 91.5013 224.747C91.6013 224.747 92.4013 224.347 92.1012 224.447C96.7012 222.547 102.401 222.747 107.201 224.247C109.201 224.947 110.901 225.947 112.301 227.547C113.401 228.747 114.201 230.947 114.401 232.547C115.101 238.147 112.401 243.747 108.701 248.047C107.901 248.947 107.701 250.347 108.501 251.347C109.201 252.247 110.701 252.747 111.701 251.947C116.301 248.847 121.601 247.247 126.801 248.947C130.701 250.247 133.801 253.247 135.501 257.147C136.201 258.647 136.601 260.647 136.501 262.447C136.501 263.447 136.401 263.847 136.001 264.947C135.601 266.147 135.101 267.347 134.501 268.447C132.401 272.147 128.701 274.147 124.801 274.647C119.501 275.247 114.401 274.147 109.201 272.647C107.701 272.247 106.001 273.447 106.001 275.047C106.201 278.747 106.201 282.447 105.401 285.947C104.701 289.047 103.301 291.647 100.501 293.047C99.1013 293.747 97.3013 294.147 95.7013 294.247C94.0013 294.447 92.0013 294.447 90.6012 294.147C87.5013 293.547 85.2012 292.247 83.1012 290.147C80.3012 287.347 78.5013 283.447 77.0013 279.747C76.3013 277.847 73.6013 277.147 72.4013 279.147C69.0013 284.847 64.9013 292.647 57.8013 293.847C54.7013 294.347 51.1013 293.347 48.7013 291.547C47.9013 290.947 47.0013 289.947 46.4013 288.847C45.8013 287.747 45.3013 286.247 45.2013 284.947C44.7013 280.747 46.0013 276.147 47.6012 272.147C48.1012 270.847 47.0013 269.447 45.9013 269.047C44.5013 268.647 43.3013 269.547 42.8013 270.747C39.7013 278.247 38.1013 288.647 44.8013 294.747C47.9013 297.547 52.2013 299.047 56.4013 298.947C61.0013 298.847 65.1013 296.647 68.3013 293.547C71.8013 290.147 74.3013 285.847 76.8013 281.647C75.3013 281.447 73.8013 281.247 72.2013 281.047C75.1013 288.747 79.7013 296.647 88.3013 298.747C92.4013 299.747 97.2013 299.647 101.201 298.147C105.401 296.547 108.201 293.347 109.601 289.247C111.201 284.747 111.201 279.647 111.001 274.947C109.901 275.747 108.901 276.547 107.801 277.347C118.001 280.147 131.001 281.947 137.901 272.047C141.101 267.547 142.201 261.747 140.401 256.447C138.701 251.347 134.801 246.947 129.901 244.747C122.901 241.647 115.201 243.247 109.001 247.447C110.001 248.747 111.001 250.047 112.001 251.347C116.201 246.547 119.301 240.547 119.301 234.047C119.301 228.447 116.501 223.147 111.401 220.447C108.401 218.847 105.001 218.247 101.601 217.947C98.6012 217.647 95.5013 217.847 92.5013 218.647C87.7013 219.947 83.7012 223.047 81.1012 227.247C78.5013 231.547 77.4013 236.547 76.9013 241.447C78.5013 241.247 80.2013 241.047 81.8013 240.747C79.1013 231.647 74.6013 220.947 64.2013 218.947C59.0013 217.947 53.0013 218.647 48.4013 221.347C44.3013 223.747 41.9013 227.847 41.2013 232.447C40.4013 237.847 41.2012 243.247 41.6012 248.647C42.9012 247.947 44.1013 247.247 45.4013 246.447C40.2013 243.547 34.1012 242.047 28.1012 242.147C22.6012 242.247 16.4013 243.747 12.7013 248.147C8.40128 253.147 7.90127 260.847 10.5013 266.747C13.2013 272.847 19.5013 276.747 25.8013 278.247C33.0013 279.947 41.6013 278.847 46.8013 272.947C47.7013 271.947 47.8013 270.447 46.8013 269.447C46.1013 268.947 44.4013 268.847 43.5013 269.847Z" fill="#3695a7"/>
<path d="M252.4 269.847C248.9 273.747 243.4 274.947 238.4 274.247C235.5 273.847 232.9 272.947 230.5 271.547C228.2 270.247 226.3 268.547 225 266.447C223.6 264.147 223.1 261.547 223.2 258.647C223.2 257.147 223.3 256.647 223.7 255.247C223.8 254.947 223.9 254.647 224 254.347C224.2 253.847 224.1 254.247 224 254.347C224.1 254.247 224.1 254.047 224.2 253.947C224.5 253.447 224.8 252.947 225.1 252.447C225.2 252.347 225.4 252.047 225.1 252.447C225.2 252.347 225.3 252.247 225.4 252.147C225.6 251.947 225.7 251.747 225.9 251.547C226.1 251.347 226.3 251.147 226.5 250.947C226.6 250.847 227.3 250.247 226.9 250.547C227.8 249.847 228.8 249.347 229.8 248.847C230.2 248.647 229.5 248.947 229.8 248.847C229.9 248.847 230 248.747 230.1 248.747C230.4 248.647 230.7 248.547 231 248.447C231.6 248.247 232.2 248.147 232.8 247.947C233.4 247.847 234 247.647 234.7 247.647C234.2 247.747 235 247.647 235.1 247.647C235.5 247.647 235.8 247.547 236.2 247.547C237.6 247.447 239.1 247.447 240.5 247.647C240.9 247.647 241.2 247.747 241.6 247.747C241.7 247.747 242.1 247.847 241.7 247.747C241.9 247.747 242.1 247.847 242.3 247.847C243 247.947 243.7 248.047 244.4 248.247C245.8 248.547 247.3 248.947 248.7 249.547C249 249.647 249.3 249.747 249.6 249.947C249.3 249.847 250.1 250.147 250.3 250.247C250.9 250.547 251.6 250.847 252.2 251.247C253.7 252.147 256.1 251.047 256 249.047C255.7 244.747 255 240.447 255.2 236.147C255.4 232.547 256.2 229.247 258.9 226.947C261.9 224.447 267.1 223.647 271.2 223.947C272.6 224.047 274.6 224.647 275.9 225.447C277.5 226.347 278.6 227.247 279.9 228.847C283 232.447 284.9 237.747 286.3 242.547C287.1 245.347 291 244.647 291.2 241.847C291.2 241.447 291.3 241.047 291.3 240.547C291.3 240.447 291.4 239.747 291.3 240.347C291.3 240.147 291.4 239.947 291.4 239.647C291.6 238.647 291.7 237.747 292 236.747C292.2 235.847 292.5 234.947 292.8 234.147C292.9 233.747 293.1 233.247 293.3 232.847C293.6 232.147 293.1 233.247 293.4 232.547C293.5 232.347 293.6 232.047 293.7 231.847C294.1 231.047 294.5 230.247 295 229.547C295.6 228.647 295.8 228.447 296.6 227.547C296.9 227.247 297.3 226.847 297.6 226.547C297.6 226.547 298.2 226.047 297.8 226.347C298 226.247 298.2 226.047 298.4 225.947C298.8 225.647 299.2 225.447 299.7 225.147C299.9 225.047 300.1 224.947 300.4 224.747C300.5 224.747 301.3 224.347 301 224.447C305.6 222.547 311.3 222.747 316.1 224.247C318.1 224.947 319.8 225.947 321.2 227.547C322.3 228.747 323.1 230.947 323.3 232.547C324 238.147 321.3 243.747 317.6 248.047C316.8 248.947 316.6 250.347 317.4 251.347C318.1 252.247 319.6 252.747 320.6 251.947C325.2 248.847 330.5 247.247 335.7 248.947C339.6 250.247 342.7 253.247 344.4 257.147C345.1 258.647 345.5 260.647 345.4 262.447C345.4 263.447 345.3 263.847 344.9 264.947C344.5 266.147 344 267.347 343.4 268.447C341.3 272.147 337.6 274.147 333.7 274.647C328.4 275.247 323.3 274.147 318.1 272.647C316.6 272.247 314.9 273.447 314.9 275.047C315.1 278.747 315.1 282.447 314.3 285.947C313.6 289.047 312.2 291.647 309.4 293.047C308 293.747 306.2 294.147 304.6 294.247C302.9 294.447 300.9 294.447 299.5 294.147C296.4 293.547 294.1 292.247 292 290.147C289.2 287.347 287.4 283.447 285.9 279.747C285.2 277.847 282.5 277.147 281.3 279.147C277.9 284.847 273.8 292.647 266.7 293.847C263.6 294.347 260 293.347 257.6 291.547C256.8 290.947 255.9 289.947 255.3 288.847C254.7 287.747 254.2 286.247 254.1 284.947C253.6 280.747 254.9 276.147 256.5 272.147C257 270.847 255.9 269.447 254.8 269.047C253.4 268.647 252.2 269.547 251.7 270.747C248.6 278.247 247 288.647 253.7 294.747C256.8 297.547 261.1 299.047 265.3 298.947C269.9 298.847 274 296.647 277.2 293.547C280.7 290.147 283.2 285.847 285.7 281.647C284.2 281.447 282.7 281.247 281.1 281.047C284 288.747 288.6 296.647 297.2 298.747C301.3 299.747 306.1 299.647 310.1 298.147C314.3 296.547 317.1 293.347 318.5 289.247C320.1 284.747 320.1 279.647 319.9 274.947C318.8 275.747 317.8 276.547 316.7 277.347C326.9 280.147 339.9 281.947 346.8 272.047C350 267.547 351.1 261.747 349.3 256.447C347.6 251.347 343.7 246.947 338.8 244.747C331.8 241.647 324.1 243.247 317.9 247.447C318.9 248.747 319.9 250.047 320.9 251.347C325.1 246.547 328.2 240.547 328.2 234.047C328.1 228.447 325.4 223.147 320.3 220.447C317.3 218.847 313.9 218.247 310.5 217.947C307.5 217.647 304.4 217.847 301.4 218.647C296.6 219.947 292.6 223.047 290 227.247C287.4 231.547 286.3 236.547 285.8 241.447C287.4 241.247 289.1 241.047 290.7 240.747C288 231.647 283.5 220.947 273.1 218.947C267.9 217.947 261.9 218.647 257.3 221.347C253.2 223.747 250.8 227.847 250.1 232.447C249.3 237.847 250.1 243.247 250.5 248.647C251.8 247.947 253 247.247 254.3 246.447C249.1 243.547 243 242.047 237 242.147C231.5 242.247 225.3 243.747 221.6 248.147C217.3 253.147 216.8 260.847 219.4 266.747C222.1 272.847 228.4 276.747 234.7 278.247C241.9 279.947 250.5 278.847 255.7 272.947C256.6 271.947 256.7 270.447 255.7 269.447C255 268.947 253.3 268.847 252.4 269.847Z" fill="#3695a7"/>
<path d="M81.101 239.247C82.701 232.447 82.0011 225.247 82.9011 218.347C83.6011 212.147 85.101 205.947 87.101 199.947C91.101 188.647 97.401 177.647 106.001 169.247C121.901 153.647 144.401 147.547 166.001 145.447C186.601 143.447 207.801 144.747 227.201 152.147C242.901 158.147 257.101 168.647 266.801 182.347C277.001 196.747 282.601 213.947 284.401 231.347C284.701 233.747 284.801 236.147 285.001 238.547C285.201 241.747 290.201 241.747 290.001 238.547C289.001 219.747 284.301 200.947 274.401 184.747C265.101 169.647 251.501 157.547 235.301 150.047C216.201 141.147 194.701 138.547 173.801 139.747C150.901 140.947 127.101 145.947 108.601 160.247C98.801 167.847 91.5011 177.847 86.2011 188.947C80.3011 201.247 77.5011 214.347 77.2011 227.947C77.1011 231.247 77.0011 234.647 76.2011 237.947C75.5011 241.047 80.401 242.447 81.101 239.247Z" fill="#F7F701"/>
<path d="M57.7031 221.846C60.1031 198.746 68.5031 175.846 82.8031 157.346C89.8031 148.246 98.2031 140.246 108.003 134.346C117.703 128.446 128.303 124.447 139.303 121.747C150.403 119.047 161.903 117.647 173.303 117.247C185.303 116.847 197.403 117.446 209.203 119.846C232.803 124.446 255.403 135.147 272.203 152.547C288.003 168.847 298.303 189.847 304.003 211.647C304.703 214.347 305.303 217.047 305.903 219.747C306.603 222.847 311.403 221.547 310.703 218.447C305.803 195.547 296.403 173.247 281.303 155.147C265.303 136.047 242.903 123.147 218.903 116.947C195.203 110.747 169.703 110.746 145.703 115.346C134.203 117.546 122.803 121.046 112.303 126.346C101.703 131.746 92.3031 139.046 84.3031 147.846C68.1031 165.846 57.8031 188.946 53.8031 212.846C53.3031 215.846 52.9031 218.947 52.6031 221.947C52.5031 223.247 53.8031 224.447 55.1031 224.447C56.7031 224.347 57.6031 223.246 57.7031 221.846Z" fill="#F60000"/>
<path d="M69.5999 222.747C71.7999 201.847 80.8999 181.447 94.0999 165.147C100.6 157.047 108.2 149.747 117.1 144.447C125.8 139.247 135.4 135.647 145.3 133.347C155.2 130.947 165.4 129.847 175.6 129.547C186.5 129.247 197.4 129.947 208 132.247C229.2 136.747 248.7 146.947 263.7 162.647C278 177.647 289 196.547 294.6 216.547C295.3 218.847 295.8 221.147 296.3 223.547C297 226.647 301.8 225.347 301.1 222.247C296.6 201.147 286 181.147 272.1 164.747C265.2 156.547 257.2 149.347 248.2 143.447C238.6 137.147 227.9 132.547 216.8 129.447C195.5 123.447 172.5 123.247 150.8 127.247C140.4 129.147 130.1 132.247 120.6 136.947C110.9 141.747 102.5 148.347 95.1999 156.247C80.2999 172.447 69.4999 193.047 65.5999 214.847C65.0999 217.547 64.7 220.247 64.4 223.047C64.3 224.347 65.6 225.547 66.9 225.547C68.6 225.247 69.4999 224.147 69.5999 222.747Z" fill="#F7A801"/>
<path d="M115.701 225.947C117.301 214.847 121.201 203.947 128.701 195.447C132.501 191.147 137.101 187.547 142.201 184.647C145.201 182.947 148.201 181.747 151.501 180.747C155.201 179.647 158.901 178.747 162.701 178.047C177.301 175.447 192.501 176.347 206.801 180.447C210.501 181.547 214.101 182.747 217.601 184.247C220.601 185.447 223.301 187.047 226.101 188.647C230.701 191.447 235.001 194.547 238.801 198.347C246.101 205.747 250.101 215.247 250.901 225.647C251.001 227.247 251.101 228.847 251.101 230.447C251.101 233.647 256.101 233.647 256.101 230.447C256.001 224.247 255.301 218.047 253.301 212.147C251.501 206.947 248.801 202.147 245.301 197.947C241.701 193.647 237.301 189.947 232.701 186.847C230.201 185.147 227.601 183.547 224.901 182.047C221.601 180.147 217.901 178.747 214.301 177.547C199.501 172.247 183.501 170.347 167.901 172.247C163.801 172.747 159.801 173.447 155.801 174.347C151.901 175.247 147.901 176.247 144.301 177.947C138.601 180.647 133.201 184.147 128.601 188.447C119.801 196.747 114.301 207.947 111.901 219.747C111.601 221.347 111.301 222.947 111.101 224.447C110.901 225.747 111.401 227.147 112.801 227.547C113.801 227.947 115.501 227.247 115.701 225.947Z" fill="#8D00E4"/>
<path d="M102.602 221.347C104.502 208.247 109.302 195.347 117.902 185.247C126.302 175.347 137.702 168.747 150.202 165.247C164.602 161.247 180.102 160.747 194.802 162.547C209.902 164.447 224.802 169.347 237.602 177.647C244.002 181.747 250.102 186.847 254.702 192.847C259.602 199.347 262.802 206.847 264.402 214.847C264.802 216.847 265.102 218.747 265.202 220.747C265.302 222.047 266.302 223.247 267.702 223.247C269.002 223.247 270.302 222.147 270.202 220.747C269.402 212.047 267.102 203.447 262.702 195.847C258.502 188.547 252.602 182.547 246.002 177.447C233.202 167.647 217.802 161.547 202.102 158.647C186.402 155.847 170.102 155.747 154.502 159.047C140.802 161.947 127.702 168.147 117.802 178.147C107.902 188.047 101.702 200.947 98.9017 214.447C98.5017 216.247 98.2017 218.147 97.9017 220.047C97.7017 221.347 98.2016 222.747 99.6016 223.147C100.702 223.447 102.402 222.747 102.602 221.347Z" fill="#00F701"/>
<path d="M147.2 112.047C155.5 108.247 164.5 106.047 173.6 105.147C183 104.147 192.6 104.447 201.9 106.147C206.9 107.147 211.9 108.447 216.6 110.347C217.9 110.847 219.3 109.847 219.7 108.647C220.1 107.247 219.2 106.047 218 105.547C199.9 98.3469 178.9 97.8467 160.1 102.347C154.8 103.647 149.7 105.447 144.7 107.647C143.5 108.247 143.2 109.947 143.8 111.047C144.5 112.347 146 112.547 147.2 112.047Z" fill="#F7F701"/>
<path d="M147.902 108.147C146.202 103.147 143.102 98.847 141.602 93.747C140.602 90.747 139.502 87.847 138.702 84.747C138.502 83.947 138.302 83.2467 138.102 82.4467C138.002 82.0467 137.902 81.647 137.902 81.247C137.902 81.047 137.802 80.947 137.802 80.747C137.702 80.247 137.802 81.0466 137.802 80.3466C137.702 79.7466 137.802 79.0467 137.702 78.4467C137.702 77.8467 137.602 78.8468 137.702 78.5468C137.702 78.4468 137.802 78.2469 137.802 78.1469C137.802 78.0469 137.902 77.9466 137.902 77.8466C137.802 78.4466 137.802 78.1467 137.902 77.9467C137.602 78.4467 137.702 78.2468 137.802 78.0468C137.802 78.0468 137.302 78.447 137.602 78.247C137.202 78.547 137.202 78.4466 137.402 78.3466C137.602 78.2466 136.802 78.2466 137.202 78.3466C138.002 78.5466 138.702 78.4466 139.702 78.8466C141.302 79.4466 143.002 80.6467 144.402 81.9467C146.102 83.4467 147.702 85.1467 149.202 86.9467C150.402 88.2467 151.502 89.7466 152.802 90.8466C154.002 91.8466 155.902 91.8466 156.702 90.3466C157.602 88.6466 157.902 86.8467 158.202 84.9467C158.602 82.3467 158.702 79.7468 158.902 77.0468C159.002 74.2468 159.102 71.3468 159.302 68.5468C159.402 67.2468 159.502 65.8468 159.602 64.5468C159.702 63.9468 159.702 63.2469 159.802 62.6469C159.802 62.3469 159.902 62.047 159.902 61.747C159.902 61.647 160.002 61.247 159.902 61.747C159.902 61.547 160.002 61.3469 160.002 61.1469C160.202 60.0469 160.402 58.9466 160.702 57.8466C160.802 57.3466 161.002 56.9467 161.102 56.4467C161.202 56.2467 161.302 56.0466 161.302 55.8466C161.102 56.3466 161.302 55.9469 161.402 55.6469C161.602 55.3469 161.802 55.047 161.902 54.747C161.602 55.347 161.702 54.947 161.902 54.747C161.902 54.747 162.002 54.6468 162.102 54.5468C162.302 54.1468 161.702 54.9469 162.002 54.6469C162.102 54.5469 162.302 54.5467 162.402 54.4467C162.102 54.7467 161.902 54.5468 162.302 54.5468C162.602 54.5468 161.702 54.7468 162.102 54.5468C162.402 54.4468 162.702 54.7468 162.102 54.5468C162.302 54.6468 162.502 54.6469 162.602 54.6469C163.202 54.7469 162.402 54.5469 162.702 54.6469C162.902 54.7469 163.102 54.8467 163.302 54.9467C163.402 55.0467 163.502 55.0469 163.602 55.1469C164.102 55.4469 163.302 54.9469 163.602 55.1469C164.602 55.9469 165.402 56.8466 166.202 57.8466C166.402 58.0466 166.302 58.0466 166.602 58.3466C166.802 58.6466 167.002 58.947 167.202 59.247C167.702 59.947 168.102 60.547 168.502 61.247C169.402 62.647 170.202 64.0468 171.002 65.5468C174.102 71.1468 176.502 77.1466 179.502 82.8466C180.402 84.6466 182.802 84.2466 183.802 82.8466C184.702 81.5466 185.302 80.147 186.002 78.747C187.002 76.547 188.002 74.3468 189.002 72.0468C191.202 67.0468 193.402 61.9469 196.102 57.1469C196.602 56.1469 197.202 55.247 197.802 54.247C198.102 53.847 198.302 53.4469 198.602 53.1469C198.202 53.7469 198.602 53.2468 198.702 53.0468C198.802 52.8468 199.002 52.7468 199.202 52.5468C199.302 52.4468 199.502 52.2469 199.602 52.1469C199.702 52.0469 200.102 51.7468 199.702 52.0468C199.302 52.3468 199.802 52.0467 199.902 51.9467C199.902 51.9467 200.002 51.9466 200.102 51.8466C200.302 51.5466 199.502 52.0467 199.802 51.9467C200.102 51.8467 200.402 51.9467 199.502 51.9467C199.902 51.9467 199.402 51.9466 199.202 51.8466C199.702 51.9466 199.002 51.747 199.002 51.747C199.502 51.947 198.602 51.4469 198.902 51.6469C199.302 51.9469 198.902 51.6468 198.802 51.5468C198.802 51.6468 199.002 51.8467 199.102 51.9467C199.402 52.4467 199.002 51.6467 199.102 51.9467C199.202 52.1467 199.302 52.4469 199.302 52.6469C199.602 53.7469 199.802 54.8467 200.002 55.9467C200.602 59.2467 200.902 62.0467 201.302 65.4467C202.102 72.4467 202.502 79.5467 203.802 86.4467C204.102 88.0467 206.202 88.7467 207.502 87.9467C210.902 85.8467 213.802 83.1467 217.102 80.9467C218.102 80.3467 219.002 79.6469 220.002 79.1469C220.502 78.8469 220.902 78.6467 221.402 78.4467C221.602 78.3467 221.902 78.2469 222.102 78.1469C221.802 78.3469 222.402 78.0467 222.502 77.9467C223.002 77.7467 223.402 77.6468 223.902 77.5468C224.102 77.5468 224.302 77.4467 224.502 77.4467C224.002 77.5467 224.502 77.4467 224.702 77.4467C224.902 77.4467 225.102 77.4467 225.302 77.4467C225.402 77.4467 224.902 77.2467 225.302 77.4467C225.402 77.4467 225.902 77.6468 225.602 77.5468C225.302 77.4468 225.802 77.647 225.902 77.747C225.602 77.547 225.702 77.6466 225.902 77.8466C225.902 77.8466 226.102 78.1466 225.902 77.8466C225.702 77.5466 225.902 77.8467 225.902 77.9467L226.002 78.1469C226.002 77.8469 225.802 77.5467 225.902 77.9467C226.002 78.3467 225.902 77.547 225.902 77.747C225.902 77.847 225.902 78.0469 225.902 78.1469C225.902 78.4469 225.902 78.7469 225.902 79.1469C225.902 79.2469 225.802 79.8467 225.902 79.4467C226.002 79.0467 225.902 79.647 225.802 79.747C225.702 80.147 225.602 80.5468 225.502 81.0468C225.302 81.9468 225.002 82.847 224.802 83.747C223.502 88.047 221.702 92.347 220.002 96.247C218.502 99.747 216.902 103.147 215.202 106.547C213.702 109.447 218.102 111.947 219.502 109.047C223.402 101.347 227.102 93.3469 229.602 85.1469C230.602 81.9469 232.102 77.4468 229.602 74.5468C226.302 70.6468 220.702 72.9468 217.002 75.0468C212.702 77.5468 209.002 81.0469 204.802 83.6469C206.002 84.1469 207.202 84.6469 208.502 85.1469C208.402 84.7469 208.302 84.2466 208.302 83.8466C208.302 83.7466 208.202 82.947 208.202 83.247C208.302 83.647 208.202 82.9467 208.202 82.9467C208.202 82.7467 208.102 82.5466 208.102 82.3466C207.902 80.8466 207.702 79.3466 207.602 77.8466C207.202 74.0466 206.802 70.2467 206.302 66.4467C205.902 62.7467 205.402 59.1467 204.802 55.4467C204.402 53.2467 204.202 50.7467 202.902 48.9467C201.602 47.0467 199.302 46.3468 197.302 47.5468C195.602 48.5468 194.302 50.3467 193.302 51.9467C190.302 56.5467 188.102 61.747 185.802 66.747C184.602 69.547 183.402 72.2468 182.102 75.0468C181.302 76.8468 180.502 78.647 179.402 80.247C180.802 80.247 182.302 80.247 183.702 80.247C180.902 75.047 178.702 69.5466 175.902 64.3466C174.302 61.3466 172.602 58.447 170.602 55.747C169.002 53.647 167.202 51.3469 164.702 50.1469C162.502 49.1469 160.202 49.2466 158.402 50.8466C156.902 52.2466 156.102 54.347 155.602 56.247C154.202 61.647 154.102 67.4468 153.902 73.0468C153.802 76.1468 153.602 79.2466 153.302 82.3466C153.302 82.6466 153.202 83.0466 153.202 83.3466C153.202 83.4466 153.202 83.647 153.202 83.747C153.102 84.247 153.202 83.447 153.202 83.747C153.102 84.347 153.002 84.8467 152.902 85.4467C152.802 85.9467 152.702 86.4467 152.502 86.9467C152.402 87.1467 152.302 87.3468 152.302 87.5468C152.502 87.0468 152.402 87.2469 152.202 87.6469C153.502 87.4469 154.802 87.3469 156.102 87.1469C153.102 84.5469 150.902 81.1467 148.002 78.4467C146.202 76.8467 144.302 75.3466 142.002 74.3466C140.102 73.5466 137.702 72.7467 135.602 73.4467C131.802 74.6467 132.302 79.5469 132.902 82.6469C133.602 86.3469 134.902 89.8466 136.102 93.3466C136.802 95.4466 137.502 97.4467 138.402 99.4467C139.902 102.747 141.802 105.747 143.002 109.247C144.002 112.547 148.902 111.247 147.902 108.147Z" fill="#F7F701"/>
<path d="M128.801 62.0467C128.301 62.4467 127.801 63.0468 127.501 63.6468C127.301 64.0468 127.101 64.4465 127.001 64.8465C126.901 65.2465 126.801 65.6467 126.901 66.0467C127.001 67.7467 128.001 69.2468 129.401 70.1468C130.401 70.7468 131.601 71.0467 132.701 71.0467C133.601 71.0467 134.601 70.8465 135.401 70.3465C138.301 68.5465 138.601 64.0469 136.201 61.7469C135.501 61.1469 134.701 60.5466 133.801 60.4466C133.001 60.3466 132.401 60.3466 131.601 60.4466C131.001 60.5466 130.501 60.7467 130.001 61.0467C129.501 61.2467 129.001 62.0467 128.901 62.5467C128.701 63.1467 128.801 63.9466 129.201 64.4466C129.501 64.9466 130.101 65.4467 130.701 65.5467C130.901 65.5467 131.101 65.6468 131.401 65.6468C131.901 65.6468 132.301 65.5465 132.701 65.3465C132.501 65.4465 132.301 65.5468 132.101 65.6468C132.401 65.5468 132.801 65.3465 133.201 65.3465C133.001 65.3465 132.801 65.4466 132.501 65.4466C132.801 65.4466 133.001 65.4466 133.301 65.4466C133.101 65.4466 132.901 65.3465 132.601 65.3465C132.801 65.3465 133.001 65.4467 133.201 65.5467C133.001 65.4467 132.801 65.3469 132.601 65.2469C132.801 65.3469 133.001 65.4467 133.101 65.5467C132.901 65.4467 132.801 65.2468 132.601 65.1468C132.801 65.2468 132.901 65.4468 133.101 65.6468C133.001 65.4468 132.801 65.3468 132.701 65.1468C132.901 65.3468 133.001 65.5465 133.101 65.8465C133.001 65.6465 132.901 65.4469 132.801 65.2469C132.901 65.5469 133.001 65.8468 133.001 66.1468C133.001 65.9468 132.901 65.7466 132.901 65.4466C132.901 65.7466 132.901 66.0466 132.901 66.4466C132.901 66.2466 133.001 66.0469 133.001 65.7469C133.001 66.0469 132.901 66.2467 132.801 66.5467C132.901 66.3467 133.001 66.1466 133.101 65.9466C133.001 66.1466 132.901 66.3467 132.801 66.5467C132.901 66.3467 133.101 66.2467 133.201 66.0467C133.101 66.2467 132.901 66.3466 132.801 66.4466C133.001 66.3466 133.101 66.1467 133.301 66.0467C133.101 66.1467 133.001 66.2465 132.801 66.3465C133.001 66.2465 133.201 66.1467 133.401 66.0467C133.201 66.1467 133.001 66.1469 132.801 66.2469C133.001 66.2469 133.201 66.1468 133.501 66.1468C133.201 66.1468 132.901 66.1468 132.701 66.1468C132.901 66.1468 133.101 66.2469 133.401 66.2469C133.001 66.1469 132.501 66.0465 132.101 65.8465C132.301 65.9465 132.501 66.0468 132.701 66.1468C132.401 66.0468 132.201 65.8469 132.001 65.7469C132.201 65.8469 132.301 66.0468 132.501 66.1468C132.301 65.9468 132.101 65.8468 132.001 65.6468C132.101 65.8468 132.301 65.9468 132.401 66.1468C132.301 65.9468 132.201 65.8468 132.101 65.6468C132.201 65.8468 132.301 66.0469 132.401 66.2469C132.301 66.0469 132.301 65.8469 132.301 65.7469C132.301 65.9469 132.401 66.1466 132.401 66.4466C132.401 66.2466 132.401 66.0465 132.401 65.8465C132.401 66.0465 132.301 66.2467 132.301 66.5467C132.301 66.3467 132.401 66.1466 132.501 65.9466C132.401 66.1466 132.301 66.3467 132.201 66.5467C132.301 66.3467 132.401 66.0465 132.601 65.8465C132.501 66.0465 132.301 66.1465 132.201 66.3465C132.401 66.1465 132.601 65.9469 132.801 65.7469C133.301 65.3469 133.501 64.5466 133.501 63.9466C133.501 63.3466 133.201 62.6468 132.801 62.1468C132.301 61.7468 131.701 61.3466 131.001 61.4466C130.801 61.4466 130.601 61.5467 130.301 61.5467C129.501 61.4467 129.201 61.7467 128.801 62.0467Z" fill="#dc5621"/>
<path d="M154.801 39.0467C154.301 39.4467 153.801 40.0468 153.501 40.6468C153.301 41.0468 153.101 41.4465 153.001 41.8465C152.901 42.2465 152.801 42.6467 152.901 43.0467C153.001 44.7467 154.001 46.2468 155.401 47.1468C156.401 47.7468 157.601 48.0467 158.701 48.0467C159.601 48.0467 160.601 47.8465 161.401 47.3465C164.301 45.5465 164.601 41.0469 162.201 38.7469C161.501 38.1469 160.701 37.5466 159.801 37.4466C159.001 37.3466 158.401 37.3466 157.601 37.4466C157.001 37.5466 156.501 37.7467 156.001 38.0467C155.501 38.2467 155.001 39.0467 154.901 39.5467C154.701 40.1467 154.801 40.9466 155.201 41.4466C155.501 41.9466 156.101 42.4467 156.701 42.5467C156.901 42.5467 157.101 42.6468 157.401 42.6468C157.901 42.6468 158.301 42.5465 158.701 42.3465C158.501 42.4465 158.301 42.5468 158.101 42.6468C158.401 42.5468 158.801 42.3465 159.201 42.3465C159.001 42.3465 158.801 42.4466 158.501 42.4466C158.801 42.4466 159.001 42.4466 159.301 42.4466C159.101 42.4466 158.901 42.3465 158.601 42.3465C158.801 42.3465 159.001 42.4467 159.201 42.5467C159.001 42.4467 158.801 42.3469 158.601 42.2469C158.801 42.3469 159.001 42.4467 159.101 42.5467C158.901 42.4467 158.801 42.2468 158.601 42.1468C158.801 42.2468 158.901 42.4468 159.101 42.6468C159.001 42.4468 158.801 42.3468 158.701 42.1468C158.901 42.3468 159.001 42.5465 159.101 42.8465C159.001 42.6465 158.901 42.4469 158.801 42.2469C158.901 42.5469 159.001 42.8468 159.001 43.1468C159.001 42.9468 158.901 42.7466 158.901 42.4466C158.901 42.7466 158.901 43.0466 158.901 43.4466C158.901 43.2466 159.001 43.0469 159.001 42.7469C159.001 43.0469 158.901 43.2467 158.801 43.5467C158.901 43.3467 159.001 43.1466 159.101 42.9466C159.001 43.1466 158.901 43.3467 158.801 43.5467C158.901 43.3467 159.101 43.2467 159.201 43.0467C159.101 43.2467 158.901 43.3466 158.801 43.4466C159.001 43.3466 159.101 43.1467 159.301 43.0467C159.101 43.1467 159.001 43.2465 158.801 43.3465C159.001 43.2465 159.201 43.1467 159.401 43.0467C159.201 43.1467 159.001 43.1469 158.801 43.2469C159.001 43.2469 159.201 43.1468 159.501 43.1468C159.201 43.1468 158.901 43.1468 158.701 43.1468C158.901 43.1468 159.101 43.2469 159.401 43.2469C159.001 43.1469 158.501 43.0465 158.101 42.8465C158.301 42.9465 158.501 43.0468 158.701 43.1468C158.401 43.0468 158.201 42.8469 158.001 42.7469C158.201 42.8469 158.301 43.0468 158.501 43.1468C158.301 42.9468 158.101 42.8468 158.001 42.6468C158.101 42.8468 158.301 42.9468 158.401 43.1468C158.301 42.9468 158.201 42.8468 158.101 42.6468C158.201 42.8468 158.301 43.0469 158.401 43.2469C158.301 43.0469 158.301 42.8469 158.301 42.7469C158.301 42.9469 158.401 43.1466 158.401 43.4466C158.401 43.2466 158.401 43.0465 158.401 42.8465C158.401 43.0465 158.301 43.2467 158.301 43.5467C158.301 43.3467 158.401 43.1466 158.501 42.9466C158.401 43.1466 158.301 43.3467 158.201 43.5467C158.301 43.3467 158.401 43.0465 158.601 42.8465C158.501 43.0465 158.301 43.1465 158.201 43.3465C158.401 43.1465 158.601 42.9469 158.801 42.7469C159.301 42.3469 159.501 41.5466 159.501 40.9466C159.501 40.3466 159.201 39.6468 158.801 39.1468C158.301 38.7468 157.701 38.3466 157.001 38.4466C156.801 38.4466 156.601 38.5467 156.301 38.5467C155.501 38.5467 155.201 38.7467 154.801 39.0467Z" fill="#dc5621"/>
<path d="M196.902 34.6468C196.402 35.0468 195.902 35.6469 195.602 36.2469C195.402 36.6469 195.202 37.0466 195.102 37.4466C195.002 37.8466 194.902 38.2468 195.002 38.6468C195.102 40.3468 196.102 41.8469 197.502 42.7469C198.502 43.3469 199.702 43.6468 200.802 43.6468C201.702 43.6468 202.702 43.4466 203.502 42.9466C206.402 41.1466 206.702 36.6465 204.302 34.3465C203.602 33.7465 202.802 33.1467 201.902 33.0467C201.102 32.9467 200.502 32.9467 199.702 33.0467C199.102 33.1467 198.602 33.3468 198.102 33.6468C197.602 33.8468 197.102 34.6468 197.002 35.1468C196.802 35.7468 196.902 36.5467 197.302 37.0467C197.602 37.5467 198.202 38.0468 198.802 38.1468C199.002 38.1468 199.202 38.2469 199.502 38.2469C200.002 38.2469 200.402 38.1466 200.802 37.9466C200.602 38.0466 200.402 38.1469 200.202 38.2469C200.502 38.1469 200.902 37.9466 201.302 37.9466C201.102 37.9466 200.902 38.0467 200.602 38.0467C200.902 38.0467 201.102 38.0467 201.402 38.0467C201.202 38.0467 201.002 37.9466 200.702 37.9466C200.902 37.9466 201.102 38.0468 201.302 38.1468C201.102 38.0468 200.902 37.9465 200.702 37.8465C200.902 37.9465 201.102 38.0468 201.202 38.1468C201.002 38.0468 200.902 37.8469 200.702 37.7469C200.902 37.8469 201.002 38.0469 201.202 38.2469C201.102 38.0469 200.902 37.9469 200.802 37.7469C201.002 37.9469 201.102 38.1466 201.202 38.4466C201.102 38.2466 201.002 38.0465 200.902 37.8465C201.002 38.1465 201.102 38.4469 201.102 38.7469C201.102 38.5469 201.002 38.3467 201.002 38.0467C201.002 38.3467 201.002 38.6467 201.002 39.0467C201.002 38.8467 201.102 38.6465 201.102 38.3465C201.102 38.6465 201.002 38.8468 200.902 39.1468C201.002 38.9468 201.102 38.7467 201.202 38.5467C201.102 38.7467 201.002 38.9468 200.902 39.1468C201.002 38.9468 201.202 38.8468 201.302 38.6468C201.202 38.8468 201.002 38.9467 200.902 39.0467C201.102 38.9467 201.202 38.7468 201.402 38.6468C201.202 38.7468 201.102 38.8466 200.902 38.9466C201.102 38.8466 201.302 38.7468 201.502 38.6468C201.302 38.7468 201.102 38.7465 200.902 38.8465C201.102 38.8465 201.302 38.7469 201.602 38.7469C201.302 38.7469 201.002 38.7469 200.802 38.7469C201.002 38.7469 201.202 38.8465 201.502 38.8465C201.102 38.7465 200.602 38.6466 200.202 38.4466C200.402 38.5466 200.602 38.6469 200.802 38.7469C200.502 38.6469 200.302 38.4465 200.102 38.3465C200.302 38.4465 200.402 38.6469 200.602 38.7469C200.402 38.5469 200.202 38.4469 200.102 38.2469C200.202 38.4469 200.402 38.5469 200.502 38.7469C200.402 38.5469 200.302 38.4469 200.202 38.2469C200.302 38.4469 200.402 38.6465 200.502 38.8465C200.402 38.6465 200.402 38.4465 200.402 38.3465C200.402 38.5465 200.502 38.7467 200.502 39.0467C200.502 38.8467 200.502 38.6466 200.502 38.4466C200.502 38.6466 200.402 38.8468 200.402 39.1468C200.402 38.9468 200.502 38.7467 200.602 38.5467C200.502 38.7467 200.402 38.9468 200.302 39.1468C200.402 38.9468 200.502 38.6466 200.702 38.4466C200.602 38.6466 200.402 38.7466 200.302 38.9466C200.502 38.7466 200.702 38.5465 200.902 38.3465C201.402 37.9465 201.602 37.1467 201.602 36.5467C201.602 35.9467 201.302 35.2469 200.902 34.7469C200.402 34.3469 199.802 33.9467 199.102 34.0467C198.902 34.0467 198.702 34.1468 198.402 34.1468C197.602 34.1468 197.202 34.3468 196.902 34.6468Z" fill="#dc5621"/>
<path d="M227.902 63.2469C227.402 63.6469 226.902 64.2465 226.602 64.8465C226.402 65.2465 226.202 65.6467 226.102 66.0467C226.002 66.4467 225.902 66.8469 226.002 67.2469C226.102 68.9469 227.102 70.4465 228.502 71.3465C229.502 71.9465 230.702 72.2469 231.802 72.2469C232.702 72.2469 233.702 72.0467 234.502 71.5467C237.402 69.7467 237.702 65.2466 235.302 62.9466C234.602 62.3466 233.802 61.7468 232.902 61.6468C232.102 61.5468 231.502 61.5468 230.702 61.6468C230.102 61.7468 229.602 61.9469 229.102 62.2469C228.602 62.4469 228.102 63.2469 228.002 63.7469C227.802 64.3469 227.902 65.1468 228.302 65.6468C228.602 66.1468 229.202 66.6469 229.802 66.7469C230.002 66.7469 230.202 66.8465 230.502 66.8465C231.002 66.8465 231.402 66.7467 231.802 66.5467C231.602 66.6467 231.402 66.7465 231.202 66.8465C231.502 66.7465 231.902 66.5467 232.302 66.5467C232.102 66.5467 231.902 66.6468 231.602 66.6468C231.902 66.6468 232.102 66.6468 232.402 66.6468C232.202 66.6468 232.002 66.5467 231.702 66.5467C231.902 66.5467 232.102 66.6469 232.302 66.7469C232.102 66.6469 231.902 66.5466 231.702 66.4466C231.902 66.5466 232.102 66.6469 232.202 66.7469C232.002 66.6469 231.902 66.4465 231.702 66.3465C231.902 66.4465 232.002 66.6465 232.202 66.8465C232.102 66.6465 231.902 66.5465 231.802 66.3465C232.002 66.5465 232.102 66.7467 232.202 67.0467C232.102 66.8467 232.002 66.6466 231.902 66.4466C232.002 66.7466 232.102 67.0465 232.102 67.3465C232.102 67.1465 232.002 66.9468 232.002 66.6468C232.002 66.9468 232.002 67.2468 232.002 67.6468C232.002 67.4468 232.102 67.2466 232.102 66.9466C232.102 67.2466 232.002 67.4469 231.902 67.7469C232.002 67.5469 232.102 67.3468 232.202 67.1468C232.102 67.3468 232.002 67.5469 231.902 67.7469C232.002 67.5469 232.202 67.4469 232.302 67.2469C232.202 67.4469 232.002 67.5468 231.902 67.6468C232.102 67.5468 232.202 67.3469 232.402 67.2469C232.202 67.3469 232.102 67.4467 231.902 67.5467C232.102 67.4467 232.302 67.3469 232.502 67.2469C232.302 67.3469 232.102 67.3466 231.902 67.4466C232.102 67.4466 232.302 67.3465 232.602 67.3465C232.302 67.3465 232.002 67.3465 231.802 67.3465C232.002 67.3465 232.202 67.4466 232.502 67.4466C232.102 67.3466 231.602 67.2467 231.202 67.0467C231.402 67.1467 231.602 67.2465 231.802 67.3465C231.502 67.2465 231.302 67.0466 231.102 66.9466C231.302 67.0466 231.402 67.2465 231.602 67.3465C231.402 67.1465 231.202 67.0465 231.102 66.8465C231.202 67.0465 231.402 67.1465 231.502 67.3465C231.402 67.1465 231.302 67.0465 231.202 66.8465C231.302 67.0465 231.402 67.2466 231.502 67.4466C231.402 67.2466 231.402 67.0466 231.402 66.9466C231.402 67.1466 231.502 67.3468 231.502 67.6468C231.502 67.4468 231.502 67.2467 231.502 67.0467C231.502 67.2467 231.402 67.4469 231.402 67.7469C231.402 67.5469 231.502 67.3468 231.602 67.1468C231.502 67.3468 231.402 67.5469 231.302 67.7469C231.402 67.5469 231.502 67.2467 231.702 67.0467C231.602 67.2467 231.402 67.3467 231.302 67.5467C231.502 67.3467 231.702 67.1466 231.902 66.9466C232.402 66.5466 232.602 65.7468 232.602 65.1468C232.602 64.5468 232.302 63.8465 231.902 63.3465C231.402 62.9465 230.802 62.5468 230.102 62.6468C229.902 62.6468 229.702 62.7469 229.402 62.7469C228.602 62.7469 228.202 62.9469 227.902 63.2469Z" fill="#dc5621"/>
<path d="M306.402 16.1468C304.102 16.7468 301.802 17.2469 299.502 17.7469C300.402 18.1469 301.402 18.5465 302.302 18.8465C300.102 15.6465 299.002 11.1468 294.702 10.1468C292.502 9.54678 290.502 10.8466 289.702 12.9466C289.302 14.1466 289.302 15.3467 289.302 16.5467C289.302 18.0467 288.802 19.6468 288.602 21.1468C289.202 20.5468 289.802 19.9466 290.302 19.4466C288.802 19.7466 287.302 19.9469 285.802 20.2469C284.502 20.4469 283.102 20.5467 281.902 21.0467C279.902 21.8467 278.602 23.8467 278.602 26.0467C278.602 28.0467 279.702 30.0468 281.402 31.1468C282.402 31.7468 283.702 32.0466 284.802 32.4466C286.202 32.9466 287.602 33.5467 289.002 34.0467C288.402 33.2467 287.802 32.4468 287.202 31.6468C286.902 34.2468 286.502 36.8465 286.402 39.3465C286.302 41.0465 286.502 42.9469 287.702 44.2469C288.502 45.1469 289.702 45.6468 290.902 45.6468C291.402 45.6468 291.902 45.5466 292.302 45.4466C292.402 45.4466 292.502 45.4465 292.602 45.3465H292.702C292.502 45.4465 291.702 45.3465 291.502 45.3465C291.002 44.9465 290.502 44.5469 290.002 44.2469C289.902 43.8469 289.802 43.4466 289.702 42.9466C289.802 42.5466 289.902 42.1468 290.002 41.6468C289.902 41.8468 290.502 41.0469 290.302 41.2469C288.102 43.5469 291.402 46.9469 293.802 44.7469C294.802 43.8469 295.502 42.6467 296.302 41.5467C296.402 41.4467 296.902 40.8468 296.602 41.1468C296.302 41.5468 297.102 40.5466 297.202 40.4466C298.102 39.3466 299.102 38.3465 300.002 37.3465C299.002 37.4465 298.002 37.6469 297.002 37.7469C299.202 38.9469 301.402 40.2465 303.802 41.3465C305.602 42.1465 307.902 42.4466 309.502 40.9466C311.202 39.2466 311.302 36.0465 310.602 33.8465C309.802 31.2465 307.802 29.5465 306.402 27.3465C306.302 28.3465 306.102 29.3465 306.002 30.3465C308.802 27.5465 313.702 25.1468 314.102 20.6468C314.702 16.4468 309.702 15.3468 306.402 16.1468C303.302 16.9468 304.602 21.7466 307.702 20.9466C307.702 20.9466 308.502 20.7465 308.102 20.8465C308.402 20.8465 308.702 20.8465 309.002 20.8465C309.202 20.8465 309.502 20.9466 309.702 20.9466C309.502 20.8466 309.602 20.9467 309.802 21.0467C309.602 20.8467 309.502 20.8467 309.702 21.0467C309.602 20.8467 309.502 20.5465 309.402 20.3465C309.402 20.4465 309.402 20.4467 309.402 20.5467C309.402 20.2467 309.402 20.3468 309.302 20.6468C309.402 20.3468 308.902 21.3469 309.002 21.2469C307.502 23.6469 304.702 25.0467 302.702 27.0467C301.902 27.7467 301.702 29.1467 302.302 30.0467C303.302 31.6467 304.702 32.8467 305.702 34.5467C306.102 35.2467 306.302 35.9469 306.202 36.7469C306.202 37.2469 306.202 37.3468 306.102 37.6468C306.002 37.9468 306.002 37.9468 306.102 37.6468C305.902 37.8468 306.002 37.8467 306.202 37.5467C306.402 37.3467 306.502 37.2469 306.802 37.2469C306.502 37.3469 306.602 37.3469 307.002 37.2469C306.602 37.2469 307.502 37.4469 306.802 37.2469C306.702 37.2469 305.902 36.9468 306.502 37.1468C306.302 37.0468 306.002 36.9465 305.802 36.8465C303.802 35.8465 301.902 34.7469 299.902 33.7469C298.902 33.2469 297.702 33.3468 296.902 34.1468C295.402 35.7468 294.002 37.3467 292.702 39.0467C292.102 39.8467 291.602 40.7467 290.702 41.5467C291.902 42.7467 293.102 43.9467 294.202 45.0467C295.702 43.4467 294.902 40.5468 292.502 40.6468C292.102 40.6468 291.702 40.7465 291.302 40.8465C290.802 40.9465 291.302 40.8465 291.402 40.8465C291.102 40.8465 290.702 40.6466 291.502 40.9466C291.002 40.7466 291.802 41.1466 291.502 40.9466C291.402 40.9466 291.802 41.1469 291.802 41.2469C291.602 40.9469 291.702 41.0469 291.802 41.2469C291.802 41.1469 291.702 40.9465 291.702 40.8465C291.602 40.1465 291.702 41.1468 291.702 40.6468C291.702 40.4468 291.702 40.2467 291.702 40.0467C291.702 37.3467 292.302 34.5465 292.602 31.8465C292.702 30.6465 291.702 29.8466 290.802 29.4466C288.902 28.6466 286.902 27.8469 284.802 27.2469C283.902 27.0469 284.702 27.3467 284.302 27.0467C284.702 27.3467 283.902 26.5466 284.202 26.9466C283.902 26.5466 284.202 27.1468 284.102 26.6468C284.102 26.4468 284.002 26.3468 284.002 26.1468C284.002 26.3468 284.002 26.4469 284.002 26.2469C284.002 25.6469 284.202 26.2465 284.102 25.8465C284.002 26.0465 284.002 26.0466 284.102 25.9466C284.202 25.8466 284.202 25.8466 284.002 25.9466C284.202 25.7466 284.202 25.7465 284.002 25.8465C284.302 25.7465 284.302 25.6469 284.102 25.7469C284.502 25.7469 284.902 25.5467 285.302 25.5467C287.502 25.1467 289.702 24.7465 291.902 24.3465C292.702 24.2465 293.502 23.3468 293.602 22.6468C293.802 21.4468 294.002 20.1466 294.202 18.9466C294.402 17.7466 294.402 16.6466 294.502 15.4466C294.502 15.2466 294.602 14.9468 294.702 14.6468C294.702 14.8468 294.502 14.8469 294.702 14.7469C294.502 14.8469 294.402 15.0468 294.202 15.1468C294.502 14.9468 293.402 15.2469 293.802 15.2469C293.702 15.2469 293.202 15.1469 293.602 15.2469C293.702 15.2469 294.102 15.4469 293.802 15.2469C293.502 15.1469 294.102 15.4467 294.202 15.5467C294.702 15.8467 294.102 15.4469 294.502 15.7469C294.702 15.9469 294.902 16.1465 295.102 16.3465C295.202 16.4465 295.302 16.6469 295.402 16.7469C295.302 16.5469 295.202 16.4469 295.402 16.7469C296.302 18.2469 297.002 20.0468 298.102 21.6468C298.802 22.6468 299.802 23.0469 300.902 22.7469C303.202 22.2469 305.502 21.7468 307.802 21.1468C310.802 20.1468 309.502 15.3468 306.402 16.1468Z" fill="#dc5621"/>
</svg>