<svg xmlns="http://www.w3.org/2000/svg" id="f186a4a3-950e-4831-9d65-ff5f3f2a2ae2" viewBox="0 0 130 113"><defs><style>.e233dea9-2736-4dd4-906f-a99a9d029f1e{fill:#fff;}</style></defs><path class="e233dea9-2736-4dd4-906f-a99a9d029f1e" d="M17.3,99.3c.4-2.7.7-5.4,1-8.1l1.2-8.7a38.3,38.3,0,0,0,.5-7.6,34.7,34.7,0,0,0-1.9-10A42.7,42.7,0,0,1,15,49.5c0-.8-.1-1.5-.9-1.9a1.8,1.8,0,0,1-.8-1.1,4.9,4.9,0,0,1,.3-4.4,1.9,1.9,0,0,1,2.6-.7c.6.3.8.1,1-.4s1.3-3.6,2.1-5.4a16.4,16.4,0,0,1,6-7.5,24,24,0,0,1,7.9-3.8,17.3,17.3,0,0,1,10.3.8,51.3,51.3,0,0,1,8.1,4.1l4.7,3a3.9,3.9,0,0,0,3.3.5c2.9-.7,5.9-1.4,8.8-1.8a31.4,31.4,0,0,1,13.3.3,12.9,12.9,0,0,1,9.6,11.3c.1,1.4.2,2.7.2,4a1.1,1.1,0,0,0,.7,1.2c.6.4,1.6.7,1.8,1.3a4.7,4.7,0,0,1-.4,2.3,25.6,25.6,0,0,0-.5,2.7c-.1.7-.4.7-1,.6s-1.4-.3-1.8,1.2-1.6,5-2.5,7.5a10.6,10.6,0,0,1-1.1,2.1,28.4,28.4,0,0,0-4.1,9.8,112.9,112.9,0,0,0-2.3,12.7c-.7,4.3-1.2,8.6-2.3,12.8a12.9,12.9,0,0,1-3.9,7,9.7,9.7,0,0,1-9.2,2.5,7.1,7.1,0,0,1-4.2-3,21.1,21.1,0,0,1-3.5-9.1c-.4-2.7-.6-5.4-1-8a16.3,16.3,0,0,0-1.5-5.2,5.9,5.9,0,0,0-9.4-2,16.3,16.3,0,0,0-4.1,4.9A64.6,64.6,0,0,0,36.8,97l-1.5,3.9a11.8,11.8,0,0,1-5.1,5.7c-2.8,1.7-8.2,1.2-10.9-1.5a6,6,0,0,1-1.8-4V99.3Zm3.9-.1h.1v.4a3.8,3.8,0,0,0,4.8,4,6.6,6.6,0,0,0,4.6-3.5c.9-1.9,1.8-3.7,2.6-5.5a59.1,59.1,0,0,1,3.9-8,28.2,28.2,0,0,1,6-7.3,9.1,9.1,0,0,1,6.3-2.1c5,.3,8.9,3.1,10.1,7.9a42.8,42.8,0,0,1,.9,6.1c.3,2.6.5,5.2.8,7.7a16,16,0,0,0,2.4,6.4,2.3,2.3,0,0,0,1.7,1.3,6.4,6.4,0,0,0,5.6-1.4,12.9,12.9,0,0,0,3.2-6.1,141.7,141.7,0,0,0,2.5-14.5,60.1,60.1,0,0,1,4-15.1c1.7-3.9,3.3-7.8,4.9-11.7.5-1.4.9-3,1.3-4.5s.3-.8-.3-1.1-1.9-.5-2.5.8,0,.2-.1.2a62.7,62.7,0,0,1-6.5,11.3A14.1,14.1,0,0,1,72,69a6.8,6.8,0,0,1-6.9-.1,14,14,0,0,1-5.6-5.7,28,28,0,0,1-2.3-6.3c-.3-1.3-.6-2.5-.8-3.8a1.8,1.8,0,0,0-1.6-1.5,9.4,9.4,0,0,0-4.4.1,4,4,0,0,0-3,2.6,40.4,40.4,0,0,1-6.7,10.6,10.1,10.1,0,0,1-10,3.7c-3.8-.7-6.2-3.1-7.6-6.5A93.5,93.5,0,0,1,19.5,52c0-.2-.1-.3-.1-.4a.7.7,0,0,0-.1.5,25.1,25.1,0,0,0,.4,2.7,56.6,56.6,0,0,0,2.6,10.6,31,31,0,0,1,1.3,15.1L23,85l-.9,7.5ZM37.5,27.7a15.4,15.4,0,0,0-3,.4,27.6,27.6,0,0,0-7.1,3.5c-3.5,2.4-5.3,5.9-6.3,9.9-.1.2,0,.4,0,.6l.5-.3,1.3-1.1a6.1,6.1,0,0,1,5.9-1.1,9.4,9.4,0,0,1,2.3,1,2.5,2.5,0,0,0,2.5.1,18.6,18.6,0,0,1,5.7-1.6,12.1,12.1,0,0,1,6.8,1,6.1,6.1,0,0,1,3.4,4.8c.1.6.4.8,1,.8l5,.3a1.2,1.2,0,0,0,1.3-.8,27.5,27.5,0,0,1,1.7-2.9,7.2,7.2,0,0,1,3.4-2.8,7,7,0,0,1,7,.8,3.7,3.7,0,0,0,2.7.7l2.1-.5a17,17,0,0,1,5.1-.8c3.5.2,6.5,2.3,7,5.6.1.5.3.7.7.7h.8c.5.1.7,0,.6-.5a21.1,21.1,0,0,0-.2-2.6A7.7,7.7,0,0,0,84,37.1,17.3,17.3,0,0,0,78.7,35a34.4,34.4,0,0,0-12.4.2,77.3,77.3,0,0,0-15.8,4.5l-1.8.5a1.8,1.8,0,0,1-1.9-1.1,1.5,1.5,0,0,1,.6-2.1,4.5,4.5,0,0,1,1.9-1.1,14.5,14.5,0,0,1,2.9-1.1l.4-.2-.3-.4L44,29.5A13.5,13.5,0,0,0,37.5,27.7ZM61,49.5A30.5,30.5,0,0,0,63.9,61a7.6,7.6,0,0,0,1.8,2.2,4.4,4.4,0,0,0,5.2.7,5.7,5.7,0,0,0,3.2-2.7,65,65,0,0,0,5.2-9.3,8.9,8.9,0,0,0,.9-3.9A1.7,1.7,0,0,0,79,46.2a4.5,4.5,0,0,0-2.3-.4,25,25,0,0,0-3.8.6,5.9,5.9,0,0,1-5-.8l-1.2-.8a6,6,0,0,0-1.1-.6,2.7,2.7,0,0,0-3.9,1.5A9.9,9.9,0,0,0,61,49.5ZM27.8,44.7c-2,0-2.5.4-2.8,2a8.8,8.8,0,0,0,.2,3.6,40.8,40.8,0,0,0,3.4,10.2c1.3,3.1,3.8,3.8,6.6,1.9A14,14,0,0,0,39,58.9a25.4,25.4,0,0,0,5.3-10,7.8,7.8,0,0,0,.4-2.1A2.2,2.2,0,0,0,43,44.5a18.2,18.2,0,0,0-3.3-.1c-1.4.2-2.8.7-4.2,1a10,10,0,0,1-6.6-.4Z"/><path class="e233dea9-2736-4dd4-906f-a99a9d029f1e" d="M33.3,6.9,33,8.3A38.4,38.4,0,0,0,33.2,19l.3,2.6a1.7,1.7,0,0,1-.9,1.9l-2.2,1.2a31.1,31.1,0,0,0-7.9,5c-.6.6-.7.5-1.2-.1l-4.1-4.9a40.9,40.9,0,0,0-7-6.1l-2-1.5c-.6-.4-.5-.5,0-.9A5.8,5.8,0,0,1,11,15l5.4-.6c.8,0,.9-.1.8-.9S17,10.3,17,8.7s1.1-2.6,2.8-1.8,2.7,1.5,4,2.3l1.7,1.1c.3.2.5.1.7-.2l1.5-2.5a11,11,0,0,1,2.6-3.1c.7-.5.9-.6,1.7-.1A3,3,0,0,1,33.3,6.9Zm-3.8,9.4h0V11.7a.6.6,0,0,0-.1-.4l-.2.3a25.1,25.1,0,0,0-.4,2.7c-.1,1.1,0,1.1-1.1,1a7.1,7.1,0,0,1-3.8-1.5l-2.6-2c-.3-.2-.5-.1-.5.3s.3,2.4.6,3.6a1.4,1.4,0,0,1-.6,1.5l-1,.3-3.3.3H15l1,1c.1.1.3.2.4.4l5.4,5.5c.7.7.5.9,1.4.1a15.7,15.7,0,0,1,5.6-3.2,1,1,0,0,0,.7-1Z"/><path class="e233dea9-2736-4dd4-906f-a99a9d029f1e" d="M9.7,56.1V55a1.3,1.3,0,0,1,2-1.3,2.5,2.5,0,0,1,.4.9c.8,3,1.5,6,2.2,9a28.6,28.6,0,0,0,.7,2.8,4.3,4.3,0,0,0-.1.5l-.4-.2A12.3,12.3,0,0,1,10,58.9a27,27,0,0,1-.4-2.8Z"/><path class="e233dea9-2736-4dd4-906f-a99a9d029f1e" d="M8.5,61c0,1.1,0,1.1-1,1.3s-1.1.1-1.3-.9-.8-2.8-1.1-4.3.3-1.8,1.5-1.6a.9.9,0,0,1,.7.6A14.7,14.7,0,0,1,8.5,61Z"/><path class="e233dea9-2736-4dd4-906f-a99a9d029f1e" d="M51.9,68.4A12.4,12.4,0,0,1,46.5,67a4.8,4.8,0,0,1-1.6-1.2,2.6,2.6,0,0,1,0-3.6c.7-.8,1.4-.9,2.1-.1a6.9,6.9,0,0,1,1.1,1.3,2.9,2.9,0,0,0,3,1.3l2.7-.5,1.2-.3c.6,0,1.2,0,1.5.6a1.9,1.9,0,0,1,.1,1.9A2.6,2.6,0,0,1,55,67.7Z"/><path class="e233dea9-2736-4dd4-906f-a99a9d029f1e" d="M75.6,47.8a5.6,5.6,0,0,1-1.5,3.1c-.6.5-.5.5,0,1.1s.8.4.6.9a.2.2,0,0,0,.2.2l.4-.2c1.5-.6,1.5-.5,2,.9s.1.6-.3.8l-5.3,4.1c-.3.3-.8.6-1,.5s-.8-.7-1.2-1.1a4.3,4.3,0,0,0,.1-.5,1.7,1.7,0,0,1,.2-.5l-.5.2-1.4.6a12.4,12.4,0,0,1,.4-1.6,5.4,5.4,0,0,1,1.6-2.6c0-.1.1-.2.1-.3h-.3l-2,.7a1.4,1.4,0,0,1-1.7-.8.6.6,0,0,1,.2-.9c2.7-1.8,5.4-3.8,8.5-5H75C75.5,47.2,75.6,47.2,75.6,47.8Z"/><path class="e233dea9-2736-4dd4-906f-a99a9d029f1e" d="M39.5,52.9a1.9,1.9,0,0,1-1.3,2.2L35,56.8a1.3,1.3,0,0,1-1.8-.4c-.4-.4-.6-.3-1,0l-1.1.8c-.3.2-.8.5-1,.4s-.8-.7-1.2-1.1a.6.6,0,0,1,.1-.4l.6-.8c.4-.4,1-.8,1.1-1.3s-.7-.8-1.1-1.2-.2-.5,0-.9a15.3,15.3,0,0,1,6.2-4.8c.7-.3.9-.2,1.2.5s.7,1.1-.5,1.8a9.5,9.5,0,0,0-1.6,1.2l1.8-.6.6-.2c.8-.3.8-.3,1.3.5S39.5,51.9,39.5,52.9Z"/></svg>