<svg xmlns="http://www.w3.org/2000/svg" width="103" height="101" viewBox="0 0 103 101" fill="none"> <path d="M73.2623 38.2769L73.2519 38.2944L73.8249 40.0205C74.569 40.3873 75.1421 40.9284 75.5842 41.693C76.5098 43.2933 76.7755 45.6238 76.2498 48.2886C76.0891 49.0716 76.7028 49.8225 77.5034 49.8152C78.0998 49.8139 78.63 49.3926 78.7502 48.7868L78.7504 48.7862C79.3784 45.6015 79.0642 42.6225 77.7948 40.4211C77.52 39.9026 76.7735 38.9679 75.9799 38.3345C75.5844 38.0189 75.1176 37.729 74.6469 37.6439C74.4019 37.5997 74.1358 37.6075 73.8792 37.7166C73.6194 37.827 73.4138 38.0225 73.2623 38.2769Z" fill="#fff" stroke="#fff"/> <path d="M54.7056 38.1006C56.1779 37.5908 57.3653 37.054 58.4841 36.5482L58.4898 36.5456C60.011 35.8579 61.3994 35.2312 63.2497 34.7689C65.098 34.307 67.4257 34.0053 70.8054 33.9971C73.9115 34.1065 76.2671 35.2795 77.9949 37.0987C79.734 38.9298 80.8604 41.4415 81.4392 44.2469C82.5995 49.8716 81.5281 56.5267 79.0016 60.8228L79.0016 60.8228L78.9981 60.8288C76.5319 65.159 74.5139 67.5801 73.0314 69.3587L73.0304 69.3599L73.0304 69.3599L73.0281 69.3627L73.0259 69.3653L73.0258 69.3654L73.0258 69.3654L72.9571 69.4478C71.4006 71.3145 70.3133 72.6185 70.3133 74.6672V74.6674C70.3167 81.7402 70.2913 90.3654 64.6054 97.6853C64.4679 97.5712 64.2988 97.3974 64.1014 97.1635C63.6979 96.6853 63.2222 96.0112 62.7163 95.234C61.7063 93.6826 60.6123 91.7772 59.7861 90.338C58.0564 87.3249 56.6083 84.869 55.3156 83.1671C54.6687 82.3155 54.0433 81.6289 53.4216 81.152C52.7985 80.6741 52.1458 80.3815 51.4561 80.3815C50.5856 80.3815 49.7772 80.7721 49.0345 81.3789C48.2922 81.9853 47.5792 82.8369 46.8873 83.8332C45.5085 85.8184 44.1472 88.4777 42.769 91.17L42.7577 91.192L42.7577 91.192L42.7577 91.192L42.7561 91.1952L42.7544 91.1984L42.7544 91.1985C42.0641 92.5466 41.2061 94.2223 40.4235 95.579C40.0315 96.2587 39.666 96.845 39.3558 97.2658C39.2413 97.4212 39.1394 97.547 39.0512 97.6437C33.6185 90.8134 31.7824 83.4603 32.5951 74.281L32.5984 74.244L32.5962 74.2069C32.5622 73.6411 32.4983 73.1934 32.3503 72.7589C32.2024 72.3249 31.9801 71.9324 31.667 71.4653L31.6641 71.4612C30.7986 70.1976 29.9675 69.1465 29.1504 68.1131L29.1468 68.1086C27.4755 65.9948 25.8372 63.9227 23.9479 60.1151L23.9481 60.1151L23.9422 60.104C21.5674 55.6052 20.5078 49.1324 21.5324 43.7455C22.0437 41.0572 23.067 38.6754 24.667 36.943C26.2552 35.2233 28.4358 34.1158 31.3351 33.9968C37.4429 33.9846 40.35 35.1769 43.5803 36.5016L43.5899 36.5056L43.5966 36.5083C44.8689 37.0301 46.2021 37.5768 47.7945 38.0754C47.5367 38.2668 47.2814 38.4362 47.0152 38.5689L47.0141 38.5695C46.3844 38.8854 46.1307 39.652 46.4444 40.2817L46.4557 40.3044L46.4693 40.3258C46.6737 40.6493 46.9512 40.868 47.2944 40.9452C47.6209 41.0186 47.9361 40.9477 48.1978 40.842C48.6912 40.6427 49.1793 40.2391 49.5267 39.9519L49.5554 39.9281C49.7625 39.757 49.9104 39.636 50.0191 39.5673L50.0423 39.5526L50.0638 39.5354L50.2078 39.4202C50.5254 39.1656 50.7572 38.9807 50.9562 38.852C51.1541 38.724 51.2684 38.6867 51.3439 38.6801C51.4678 38.6693 51.6975 38.7261 52.3109 39.3721L52.3196 39.3813L52.3288 39.3901C52.3444 39.4049 52.3601 39.4199 52.376 39.435C53.0612 40.0875 54.0067 40.988 55.3276 40.988V40.9881L55.3356 40.988C55.7246 40.9817 56.051 40.8262 56.2752 40.5706C56.4918 40.3237 56.5903 40.0104 56.5908 39.7123C56.5912 39.4142 56.4935 39.1002 56.2768 38.8527C56.0523 38.5965 55.7254 38.4411 55.336 38.4345L55.336 38.4344L55.3269 38.4345C55.2415 38.4346 55.0876 38.3839 54.8427 38.2059C54.7974 38.173 54.7518 38.1378 54.7056 38.1006ZM27.741 70.4564C28.5418 71.4469 29.1513 72.2024 29.5518 72.8704C29.9465 73.5287 30.1014 74.0438 30.0552 74.5513L30.0552 74.5515C29.1618 84.4163 31.3956 92.1437 37.2972 99.5451L37.2973 99.5452C37.7054 100.057 38.2684 100.364 38.901 100.364H38.9133L38.9257 100.363C40.0306 100.308 40.8989 99.4811 41.729 98.2872C42.5688 97.0793 43.4777 95.3319 44.6149 93.1452L44.6328 93.1107C44.7598 92.8666 44.8897 92.6168 45.023 92.361L45.0247 92.3578C46.0747 90.3067 47.3045 87.9055 48.5075 86.017C49.1098 85.0714 49.6921 84.2759 50.2282 83.7224C50.7898 83.1425 51.1997 82.9351 51.456 82.9351C51.487 82.9351 51.5903 82.9545 51.7821 83.0855C51.9649 83.2104 52.1822 83.405 52.4301 83.6705C52.9249 84.2003 53.4905 84.9567 54.0876 85.8424C55.2796 87.6107 56.5508 89.8245 57.5735 91.6057C57.5735 91.6057 57.5735 91.6057 57.5735 91.6058L57.575 91.6083L57.5765 91.611L57.5766 91.6111C59.1043 94.2725 60.3398 96.3902 61.4163 97.8579C61.9551 98.5925 62.4702 99.187 62.9799 99.6104C63.4892 100.033 64.026 100.313 64.6031 100.358C65.3179 100.417 65.946 100.1 66.3888 99.5453L66.389 99.545C72.8619 91.427 72.8619 82.0795 72.8618 74.7122V74.6671C72.8618 73.5831 73.4519 72.8373 74.9818 71.0024C76.5174 69.1607 78.6313 66.6251 81.2115 62.0944C85.3716 54.7908 85.6204 44.6721 81.7543 37.9886L81.3378 38.2294L81.7543 37.9885C79.2888 33.7269 75.4967 31.4434 70.8133 31.4434C63.1329 31.4434 59.5034 33.1817 56.6095 34.5727L56.6088 34.573L56.6074 34.5736L56.5924 34.5809L56.578 34.5891C54.6176 35.7011 52.8198 36.1373 51.026 36.0703C49.2231 36.0029 47.3875 35.4259 45.3561 34.4523L45.3467 34.4478L45.3371 34.4437C42.2381 33.1138 38.3391 31.4434 31.3244 31.4434C27.1733 31.4434 23.6197 33.5157 21.3297 37.2325L21.3297 37.2324L21.3255 37.2395C18.1927 42.5155 17.8918 48.6645 19.3176 54.5532C20.7422 60.4365 23.8973 66.0974 27.741 70.4564Z" fill="#fff" stroke="#fff"/> <path d="M34.5455 11.8887L27.5154 8.0439L23.6684 1.01189C22.9321 -0.337297 20.7096 -0.337297 19.9733 1.01189L16.1266 8.0442L9.09645 11.8887C8.41908 12.2584 8 12.9663 8 13.7372C8 14.5081 8.41938 15.216 9.09645 15.5857L16.1266 19.4314L19.9736 26.4628C20.3423 27.139 21.0521 27.5584 21.8211 27.5584C22.5902 27.5584 23.2999 27.1393 23.6687 26.4628L27.5157 19.4318L34.5458 15.586C35.2232 15.2163 35.6423 14.5084 35.6423 13.7375C35.6423 12.9666 35.2226 12.2587 34.5455 11.8887ZM24.9525 16.0316C24.5985 16.2254 24.3087 16.5161 24.1149 16.8692L21.8208 21.0615L19.5267 16.8692C19.3329 16.5164 19.0432 16.2254 18.6892 16.0316L14.4969 13.7375L18.6892 11.4443C19.0432 11.2505 19.3329 10.9598 19.5267 10.6068L21.8208 6.41327L24.1149 10.6068C24.3087 10.9595 24.5985 11.2505 24.9525 11.4443L29.1448 13.7375L24.9525 16.0316Z" fill="#fff"/> <path d="M72.0746 47.8706L68.1868 45.744L66.0594 41.8554C65.4379 40.7149 63.5621 40.7149 62.9406 41.8554L60.8132 45.744L56.9254 47.8706C56.3537 48.1827 56 48.7802 56 49.4308C56 50.0817 56.354 50.6789 56.9254 50.9909L60.8132 53.1175L62.9406 57.0062C63.2519 57.5768 63.8509 57.9308 64.5 57.9308C65.1498 57.9308 65.7481 57.5768 66.0594 57.0062L68.1868 53.1175L72.0746 50.9909C72.6463 50.6789 73 50.0814 73 49.4308C73.0003 48.7802 72.6463 48.1827 72.0746 47.8706ZM66.0258 50.2471C65.727 50.4106 65.4824 50.656 65.3189 50.9539L64.501 52.4484L63.6832 50.9539C63.5196 50.6562 63.2751 50.4106 62.9763 50.2471L61.4844 49.431L62.9763 48.615C63.2751 48.4515 63.5196 48.2061 63.6832 47.9082L64.501 46.4137L65.3189 47.9082C65.4824 48.2059 65.727 48.4515 66.0258 48.615L67.5177 49.431L66.0258 50.2471Z" fill="#fff"/> <path d="M102.399 37.5569C101.079 35.2158 97.4776 32.7786 81.5038 38.6264C80.4107 39.0268 79.8403 40.2586 80.2319 41.3776C80.6196 42.4954 81.8259 43.0775 82.915 42.6807C94.3247 38.5073 98.2793 39.1623 98.7553 39.696C99.6868 42.6192 85.7094 57.3702 55.6714 75.1381C25.643 92.9028 6.18189 97.9371 4.18644 95.6732C3.91755 94.8266 6.15113 89.1962 21.9936 77.0953C22.923 76.3851 23.115 75.0369 22.4221 74.0837C21.7268 73.1315 20.4122 72.9313 19.4828 73.6446C4.37872 85.1817 -1.99345 93.3113 0.541637 97.8097C1.49937 99.5087 3.54805 100.24 6.36249 100.24C18.1995 100.238 43.5402 87.2842 57.7706 78.8661C70.9948 71.0419 82.8928 62.697 91.2718 55.368C103.979 44.2533 103.708 39.8797 102.399 37.5569Z" fill="#fff"/> <path d="M0.600562 37.5569C1.92071 35.2158 5.52243 32.7786 21.4962 38.6264C22.5893 39.0268 23.1597 40.2586 22.7681 41.3776C22.3804 42.4954 21.1741 43.0775 20.085 42.6807C8.6753 38.5073 4.72069 39.1623 4.24475 39.696C3.31316 42.6192 17.2906 57.3702 47.3286 75.1381C77.357 92.9028 96.8181 97.9371 98.8136 95.6732C99.0825 94.8266 96.8489 89.1962 81.0064 77.0953C80.077 76.3851 79.885 75.0369 80.5779 74.0837C81.2732 73.1315 82.5878 72.9313 83.5172 73.6446C98.6213 85.1817 104.993 93.3113 102.458 97.8097C101.501 99.5087 99.4519 100.24 96.6375 100.24C84.8005 100.238 59.4598 87.2842 45.2294 78.8661C32.0052 71.0419 20.1072 62.697 11.7282 55.368C-0.978643 44.2533 -0.707899 39.8797 0.600562 37.5569Z" fill="#fff"/> </svg>