<?xml version="1.0" encoding="utf-8"?>
<!DOCTYPE svg PUBLIC "-//W3C//DTD SVG 20010904//EN" "http://www.w3.org/TR/2001/REC-SVG-20010904/DTD/svg10.dtd">
<svg version="1.0" xmlns="http://www.w3.org/2000/svg" width="152pt" height="152pt" viewBox="0 0 152 152" style="" preserveAspectRatio="xMidYMid meet">
<g fill="#264795FF" stroke="#264795FF">
<path d="M 66.661 2.106 C 57.313 3.342 45.887 7.303 37.500 12.215 C 29.159 17.099 16.877 29.255 12.077 37.377 C 1.428 55.393 -1.308 79.548 5.092 99.041 C 13.218 123.795 33.583 142.617 58.770 148.650 C 67.568 150.758 84.432 150.758 93.230 148.650 C 120.028 142.231 142.330 120.020 148.606 93.500 C 150.757 84.411 150.778 67.653 148.650 58.770 C 139.849 22.029 103.897 -2.818 66.661 2.106 M 93.377 7.968 C 117.712 14.192 137.115 33.396 143.935 58.007 C 146.773 68.250 146.773 83.750 143.935 93.993 C 137.721 116.417 121.553 134.072 99.773 142.217 C 92.579 144.907 89.864 145.370 78.960 145.767 C 64.261 146.302 57.856 145.034 45.500 139.144 C 21.193 127.558 6.000 103.271 6.000 76.000 C 6.000 43.989 27.434 16.083 58.216 8.019 C 68.229 5.395 83.231 5.374 93.377 7.968 "/></g>
<g fill="#264795FF" stroke="#264795FF">
<path d="M 70.053 28.076 C 62.300 33.750 52.723 36.493 44.131 35.502 C 40.484 35.082 35.925 34.684 34.000 34.619 L 30.500 34.500 30.183 50.500 C 29.526 83.660 35.279 102.443 51.383 119.715 C 57.917 126.725 70.258 135.995 75.100 137.532 C 77.835 138.400 89.249 131.515 97.053 124.290 C 107.591 114.535 114.980 102.479 119.603 87.500 C 121.179 82.393 121.458 78.002 121.477 58.000 L 121.500 34.500 118.000 34.769 C 116.075 34.916 110.675 35.108 106.000 35.195 C 96.121 35.379 89.104 33.151 81.657 27.465 C 79.162 25.559 76.755 24.020 76.310 24.044 C 75.864 24.069 73.049 25.883 70.053 28.076 M 81.610 34.968 C 89.428 39.926 95.390 41.500 106.350 41.500 L 116.200 41.500 115.803 61.000 C 115.421 79.725 115.283 80.848 112.318 89.261 C 108.417 100.332 104.147 107.448 96.288 115.975 C 88.818 124.080 78.052 131.469 75.084 130.527 C 72.123 129.587 62.152 122.001 57.194 116.916 C 47.977 107.463 40.682 93.659 37.947 80.500 C 37.261 77.200 36.655 67.075 36.600 58.000 L 36.500 41.500 44.812 41.856 C 54.352 42.264 63.935 39.761 71.245 34.954 C 73.585 33.415 75.822 32.121 76.215 32.078 C 76.609 32.035 79.036 33.336 81.610 34.968 "/></g>
<g fill="#264795FF" stroke="#264795FF">
<path d="M 72.494 42.841 C 67.129 46.112 58.663 48.749 51.114 49.497 L 43.729 50.230 44.301 63.865 C 44.830 76.472 45.950 82.896 48.934 90.443 L 50.097 93.386 72.509 70.991 L 94.921 48.595 89.547 46.933 C 86.591 46.018 82.618 44.309 80.718 43.135 C 76.528 40.545 76.273 40.536 72.494 42.841 "/></g>
<g fill="#264795FF" stroke="#264795FF">
<path d="M 87.089 95.410 L 66.771 115.747 71.485 118.989 C 75.815 121.969 76.413 122.123 78.849 120.894 C 80.307 120.158 85.139 115.925 89.586 111.487 C 95.673 105.413 98.563 101.574 101.274 95.959 C 104.550 89.174 108.621 76.287 107.760 75.426 C 107.566 75.233 98.264 84.226 87.089 95.410 "/></g>
<g fill="#264795FF" stroke="#264795FF">
<path d="M 82.084 76.415 L 55.669 102.845 57.439 105.547 L 59.209 108.249 83.941 83.374 C 108.663 58.509 108.672 58.498 108.586 54.242 L 108.500 49.985 82.084 76.415 "/></g>
</svg>
