<?xml version="1.0" encoding="utf-8"?>
<!DOCTYPE svg PUBLIC "-//W3C//DTD SVG 20010904//EN" "http://www.w3.org/TR/2001/REC-SVG-20010904/DTD/svg10.dtd">
<svg version="1.0" xmlns="http://www.w3.org/2000/svg" width="152pt" height="152pt" viewBox="0 0 152 152" style="" preserveAspectRatio="xMidYMid meet">
<g fill="#264795FF" stroke="#264795FF">
<path d="M 66.992 2.016 C 58.060 3.075 45.876 7.303 37.500 12.249 C 28.753 17.415 16.688 29.472 11.724 38.007 C 3.982 51.321 0.296 69.009 2.048 84.433 C 5.581 115.528 28.415 141.379 58.770 148.650 C 67.568 150.758 84.432 150.758 93.230 148.650 C 120.028 142.231 142.330 120.020 148.606 93.500 C 150.757 84.411 150.778 67.653 148.650 58.770 C 139.915 22.303 104.353 -2.413 66.992 2.016 M 93.377 7.968 C 117.760 14.205 137.101 33.347 143.935 58.007 C 146.474 67.170 146.741 83.648 144.494 92.540 C 143.666 95.818 140.994 102.567 138.556 107.538 C 130.715 123.526 117.232 135.608 99.773 142.289 C 91.766 145.353 91.001 145.455 76.000 145.449 C 61.455 145.444 60.049 145.271 53.183 142.651 C 23.743 131.416 6.000 106.352 6.000 76.000 C 6.000 43.836 27.348 16.113 58.381 7.977 C 68.223 5.396 83.306 5.393 93.377 7.968 "/></g>
<g fill="#264795FF" stroke="#264795FF">
<path d="M 58.500 105.660 C 50.662 106.295 35.470 108.128 33.651 108.658 C 32.060 109.122 31.897 109.846 32.484 113.849 C 32.858 116.407 33.504 118.854 33.918 119.286 C 34.332 119.718 39.943 119.380 46.387 118.536 C 60.762 116.651 94.526 116.592 108.000 118.427 C 113.225 119.139 117.807 119.446 118.182 119.110 C 118.558 118.775 119.008 116.280 119.182 113.566 C 119.499 108.651 119.486 108.628 116.000 107.890 C 105.329 105.629 73.918 104.411 58.500 105.660 "/></g>
<g fill="#264795FF" stroke="#264795FF">
<path d="M 31.623 62.537 C 27.841 63.298 24.525 64.142 24.255 64.412 C 23.985 64.682 24.279 67.737 24.908 71.202 C 29.785 98.036 31.085 104.479 31.745 105.094 C 32.160 105.481 36.268 105.103 40.872 104.254 L 49.244 102.712 48.652 97.708 C 48.326 94.955 47.168 87.933 46.080 82.102 C 44.991 76.271 43.738 69.250 43.294 66.500 C 42.348 60.634 41.875 60.473 31.623 62.537 "/></g>
<g fill="#264795FF" stroke="#264795FF">
<path d="M 108.511 62.250 C 107.434 65.413 101.958 100.448 102.372 101.528 C 102.876 102.839 118.779 105.554 119.825 104.508 C 120.684 103.650 127.057 65.776 126.573 64.412 C 126.361 63.814 123.021 62.801 119.151 62.162 C 110.281 60.697 109.037 60.707 108.511 62.250 "/></g>
<g fill="#264795FF" stroke="#264795FF">
<path d="M 26.575 36.650 C 27.210 40.884 26.839 42.182 22.440 51.121 C 19.783 56.523 17.900 61.233 18.256 61.589 C 19.122 62.455 44.227 58.029 45.500 56.786 C 46.159 56.142 43.605 53.124 38.000 47.924 L 29.500 40.038 33.750 38.367 C 39.222 36.216 39.378 34.000 34.059 34.000 C 31.891 34.000 29.840 33.550 29.500 33.000 C 29.160 32.450 28.206 32.000 27.380 32.000 C 26.159 32.000 26.008 32.871 26.575 36.650 "/></g>
<g fill="#264795FF" stroke="#264795FF">
<path d="M 121.667 32.667 C 121.300 33.033 121.000 34.707 121.000 36.386 C 121.000 38.882 119.531 40.883 112.945 47.355 C 108.515 51.708 105.089 55.789 105.332 56.423 C 105.576 57.058 110.888 58.373 117.137 59.346 C 123.387 60.319 129.290 61.345 130.255 61.626 C 133.665 62.620 133.012 59.280 128.034 50.256 C 125.265 45.237 123.000 40.902 123.000 40.623 C 123.000 40.344 124.878 39.977 127.172 39.807 C 132.457 39.418 133.154 37.509 128.691 35.644 C 126.795 34.852 124.938 33.708 124.563 33.102 C 123.792 31.854 122.651 31.683 121.667 32.667 "/></g>
<g fill="#264795FF" stroke="#264795FF">
<path d="M 60.711 94.003 C 57.528 94.411 54.661 95.006 54.341 95.325 C 54.022 95.645 54.038 97.390 54.378 99.203 L 54.997 102.500 75.934 102.500 L 96.871 102.500 97.500 99.148 C 97.846 97.304 97.859 95.526 97.530 95.197 C 95.666 93.333 71.954 92.564 60.711 94.003 "/></g>
<g fill="#264795FF" stroke="#264795FF">
<path d="M 52.429 55.428 C 51.594 58.753 52.533 61.215 56.030 64.874 C 58.487 67.445 58.995 68.804 58.968 72.741 C 58.951 75.358 58.276 78.374 57.468 79.441 C 55.252 82.371 55.665 84.125 59.574 88.381 C 62.174 91.212 63.437 91.963 64.242 91.158 C 65.365 90.035 64.587 87.682 61.826 83.851 C 60.878 82.536 61.000 81.648 62.428 79.469 C 63.830 77.329 64.409 77.036 65.094 78.118 C 65.576 78.878 65.976 80.476 65.985 81.670 C 65.997 83.379 67.056 84.190 70.978 85.493 C 73.715 86.402 76.415 86.861 76.978 86.514 C 79.158 85.167 77.828 83.029 74.119 81.918 C 70.511 80.837 70.195 80.437 69.619 76.238 C 68.583 68.680 68.872 66.331 71.015 64.872 C 73.539 63.154 74.993 58.214 73.870 55.177 C 72.814 52.324 71.000 53.239 71.000 56.625 C 71.000 60.609 69.238 62.865 65.593 63.549 C 62.246 64.176 58.266 62.847 56.765 60.600 C 56.361 59.995 56.024 58.038 56.015 56.250 C 55.997 52.336 53.357 51.731 52.429 55.428 "/></g>
<g fill="#264795FF" stroke="#264795FF">
<path d="M 80.102 36.810 C 78.751 39.333 79.763 42.951 82.708 46.130 C 84.979 48.582 85.098 49.237 84.452 55.792 C 83.765 62.760 83.730 62.828 80.480 63.438 C 76.395 64.204 74.415 66.270 76.281 67.818 C 77.229 68.605 78.998 68.488 82.734 67.393 C 87.414 66.021 87.910 65.594 88.191 62.692 C 88.560 58.885 89.954 58.739 91.975 62.296 C 93.335 64.691 93.277 65.076 91.225 67.261 C 88.611 70.043 88.309 73.000 90.640 73.000 C 92.237 73.000 93.381 71.904 96.671 67.217 C 98.149 65.111 98.135 64.627 96.501 61.001 C 94.202 55.904 94.954 49.724 98.307 46.138 C 101.237 43.007 102.374 39.752 101.500 37.000 C 100.421 33.600 98.000 34.588 98.000 38.429 C 98.000 42.213 96.102 44.685 92.502 45.589 C 87.579 46.825 83.000 43.644 83.000 38.988 C 83.000 35.460 81.448 34.294 80.102 36.810 "/></g>
<g fill="#264795FF" stroke="#264795FF">
<path d="M 60.200 54.200 C 59.540 54.860 59.000 56.651 59.000 58.181 C 59.000 63.308 67.065 63.228 67.827 58.093 C 68.455 53.860 63.214 51.186 60.200 54.200 "/></g>
<g fill="#264795FF" stroke="#264795FF">
<path d="M 87.200 36.200 C 85.657 37.743 85.657 41.257 87.200 42.800 C 88.743 44.343 92.257 44.343 93.800 42.800 C 96.605 39.995 94.492 35.000 90.500 35.000 C 89.345 35.000 87.860 35.540 87.200 36.200 "/></g>
</svg>
