<?xml version="1.0" encoding="utf-8"?>
<!DOCTYPE svg PUBLIC "-//W3C//DTD SVG 20010904//EN" "http://www.w3.org/TR/2001/REC-SVG-20010904/DTD/svg10.dtd">
<svg version="1.0" xmlns="http://www.w3.org/2000/svg" width="152pt" height="152pt" viewBox="0 0 152 152" style="" preserveAspectRatio="xMidYMid meet">
<g fill="#264795FF" stroke="#264795FF">
<path d="M 66.661 2.106 C 57.313 3.342 45.887 7.303 37.500 12.215 C 29.159 17.099 16.877 29.255 12.077 37.377 C 1.428 55.393 -1.308 79.548 5.092 99.041 C 13.218 123.795 33.583 142.617 58.770 148.650 C 67.568 150.758 84.432 150.758 93.230 148.650 C 120.028 142.231 142.330 120.020 148.606 93.500 C 150.757 84.411 150.778 67.653 148.650 58.770 C 139.849 22.029 103.897 -2.818 66.661 2.106 M 93.377 7.968 C 117.712 14.192 137.115 33.396 143.935 58.007 C 146.773 68.250 146.773 83.750 143.935 93.993 C 137.721 116.417 121.553 134.072 99.773 142.217 C 92.579 144.907 89.864 145.370 78.960 145.767 C 64.261 146.302 57.856 145.034 45.500 139.144 C 21.193 127.558 6.000 103.271 6.000 76.000 C 6.000 43.989 27.434 16.083 58.216 8.019 C 68.229 5.395 83.231 5.374 93.377 7.968 "/></g>
<g fill="#264795FF" stroke="#264795FF">
<path d="M 96.142 17.078 C 94.321 19.032 90.095 32.743 86.459 48.491 C 84.747 55.906 83.622 58.000 81.353 58.000 C 78.984 58.000 78.277 54.097 77.789 38.319 C 77.419 26.351 76.964 22.593 75.637 20.569 C 73.669 17.566 69.541 17.115 68.140 19.750 C 67.069 21.763 64.576 60.505 65.429 61.885 C 65.740 62.388 68.358 63.354 71.247 64.032 C 77.451 65.487 79.635 66.490 83.000 69.426 C 84.375 70.625 87.975 72.682 91.000 73.996 C 98.490 77.249 99.729 78.417 97.956 80.554 C 96.163 82.714 90.183 81.979 86.142 79.101 C 82.646 76.612 79.176 76.378 78.333 78.574 C 77.442 80.898 80.045 87.899 83.505 92.484 C 89.936 101.008 96.000 109.900 96.000 110.807 C 96.000 111.328 95.331 112.311 94.512 112.990 C 92.866 114.356 90.777 112.545 81.838 102.000 C 74.643 93.512 74.175 96.347 80.529 109.931 C 84.646 118.732 85.652 121.781 84.903 123.181 C 82.975 126.784 80.866 124.789 75.724 114.500 C 68.221 99.485 64.823 99.143 69.921 113.915 C 71.779 119.300 72.981 124.222 72.591 124.853 C 70.864 127.648 68.792 125.245 63.532 114.346 C 57.052 100.920 55.301 100.389 57.405 112.488 C 58.736 120.140 58.630 123.000 57.015 123.000 C 55.218 123.000 53.897 119.715 51.558 109.422 C 50.193 103.415 47.945 95.350 46.564 91.500 C 45.182 87.650 44.040 83.060 44.026 81.299 C 43.987 76.448 41.977 67.941 39.899 63.834 C 35.438 55.014 21.000 50.816 21.000 58.339 C 21.000 59.587 22.331 62.707 23.958 65.273 C 29.130 73.428 29.789 75.323 31.349 86.528 C 32.671 96.021 33.611 99.061 38.322 109.083 C 43.999 121.159 48.278 127.058 53.210 129.609 C 54.813 130.437 60.708 131.730 66.312 132.482 C 71.915 133.233 78.469 134.557 80.876 135.424 C 86.936 137.607 88.735 137.420 94.720 133.988 C 104.164 128.571 111.431 116.356 116.426 97.500 C 118.435 89.915 121.023 83.909 127.142 72.629 C 135.983 56.331 137.391 52.791 135.701 51.101 C 132.475 47.875 129.859 50.659 120.076 67.733 C 116.044 74.769 112.977 77.722 110.979 76.487 C 109.253 75.421 109.882 72.554 116.000 53.582 C 119.300 43.349 122.000 33.846 122.000 32.464 C 122.000 29.465 117.656 27.211 115.432 29.056 C 114.704 29.661 111.993 35.633 109.408 42.328 C 103.443 57.776 101.319 62.000 99.515 62.000 C 97.394 62.000 95.728 58.213 96.505 55.157 C 96.877 53.696 98.721 45.750 100.604 37.500 C 102.487 29.250 104.269 21.736 104.565 20.801 C 105.170 18.888 101.802 15.000 99.539 15.000 C 98.735 15.000 97.207 15.935 96.142 17.078 "/></g>
</svg>
